<svg xmlns="http://www.w3.org/2000/svg">
<defs>
<font id="BadScript-Regular" horiz-adv-x="0" >
  <font-face 
    font-family="Bad Script"
    font-weight="400"
    font-stretch="normal"
    units-per-em="1000"
    panose-1="0 0 0 0 0 0 0 0 0 0"
    ascent="800"
    descent="-200"
    x-height="504"
    cap-height="979"
    bbox="-879 -648 1576 1455"
    underline-thickness="50"
    underline-position="-125"
    unicode-range="U+0020-FB02"
  />
<missing-glyph horiz-adv-x="965" 
d="M577 -78q-26 41 -53 47q-4 1 -11 1.5t-15 0.5q-9 0 -19.5 -2t-24.5 -5q-3 5 -3 8q14 11 43 11q3 0 7 1h7q-7 5 -18 13t-26 18q-31 19 -31 25t5 9q3 2 5 3.5t3 2.5q-8 8 -8 17q0 11 1 15q-81 44 -134 112q-20 24 -34.5 45t-24.5 37t-15 24.5t-6 9.5q-31 11 -42 14
q-5 2 -12 4.5t-16 5.5q-15 4 -23 8q-7 3 -36 15q-30 12 -46 25t-16 22t11 9l256 -22q18 4 37.5 8t40.5 8q29 5 61.5 11.5t60.5 12.5t43 9q75 18 94 46q56 98 127 98q17 0 31 -2t25 -5v1l74 26q3 0 3 -2v-1l-25 -69l70 3q2 0 2 -1v-2l-64 -66l-1 1q-3 -237 -241 -399
q0 -11 -5.5 -17.5t-12.5 -6.5l-12 -12q32 -11 56 -20.5t39 -17.5l21 1q35 0 62 -19v-2q0 -2 -1 -3q-2 -1 -3 -2q-13 6 -23 9.5t-15 3.5q-6 1 -11 0.5t-9 -0.5q14 -7 23 -14.5t14 -15.5q-1 -4 -9 -6q-32 32 -62 32q-6 0 -10 -0.5t-7 -0.5q-3 -1 -7 -1q-1 -1 -5.5 -2t-6.5 -2
q-1 -1 -3 -1.5t-5 -2.5q-6 -3 -8 -3h-4q-3 0 -3 5q10 11 16.5 13t13.5 4q4 2 7 2.5t6 1.5q-12 6 -25.5 12.5t-29.5 11.5q-32 11 -32 14q0 6 11 15q-7 0 -12 7t-7 12h-27q-15 0 -28.5 1t-26.5 3q-9 -24 -23 -24q-2 0 -4 1q-6 -4 -9.5 -6t-5.5 -4q65 -40 84 -57q3 -1 17 -3
q6 -1 11 -1.5t8 -2.5q21 -6 36 -26q0 -3 -2 -5q-1 -1 -2 -1.5l-1 -0.5q-13 12 -21 16t-28 7q20 -12 27 -39q-1 -4 -4 -4h-4zM491 142l78 88l93 -72q3 1 9.5 8.5t12 15.5t5.5 10q-4 3 -13.5 11.5t-24.5 21.5q-16 14 -28.5 25t-23.5 20l73 97q-11 10 -20 16.5t-17 9.5l-74 -93
q-27 21 -51 39.5t-46 33.5q-20 -23 -26 -39l91 -72l-72 -93q1 -3 8 -9.5t15.5 -12t10.5 -5.5z" />
    <glyph glyph-name="fi" unicode="fi" horiz-adv-x="526" 
d="M377 -10q-34 0 -34 55q0 5 1 11.5t4 13.5q2 8 4.5 17t4.5 22q3 12 7 28.5t8 38.5q5 21 10 43t10 45t11 50.5t13 59.5t10.5 49.5t3.5 20.5v10q0 3 -1 10q-16 -1 -45 -2t-63 -2.5t-65.5 -2.5t-53.5 -2t-26 -1q-10 -53 -21 -123t-22 -143.5t-20.5 -138.5t-16.5 -108
q-35 -214 -139 -299q-63 -53 -172 -53q-28 0 -61 8t-62.5 21t-48.5 28.5t-19 29.5q0 9 9 15.5t26 5.5q37 -26 61 -39t46 -17t53 -4q63 0 107.5 27t74 72t48.5 100q12 34 24.5 94.5t24.5 133.5t23 147.5t20.5 139t15.5 105.5l-93 -2q-20 2 -20 18q0 14 9.5 20t36.5 7t77 1
q20 81 41 146.5t48.5 111.5t68 71t99.5 25q58 0 88.5 -19t34.5 -47q1 -1 1 -2v-1v-1.5t0 0.5v-2v-1v0v0q-1 -16 -17 -32q-15 -12 -32 -12t-31.5 14t-14.5 31q0 10 3 17q-13 3 -35 3q-50 0 -92 -40t-71 -108.5t-42 -153.5l266 19h1q2 0 5 -1t6 -5q15 -14 15 -42
q0 -20 -46 -216t-46 -208q0 -11 10 -11q5 0 18 13q12 12 20 12q16 0 16 -20q0 -13 -14.5 -25t-32.5 -19t-27 -7z" />
    <glyph glyph-name="fl" unicode="fl" horiz-adv-x="593" 
d="M460 -8q-37 0 -55 20t-18 49q0 25 5.5 64.5t14 86t18 93.5t17.5 88q4 22 13 63.5t20.5 93.5t23.5 106.5t23.5 103t20.5 83.5q-99 11 -171 -32t-118 -124.5t-68 -186.5h162q28 0 28 -19q0 -12 -11 -17t-29 -7q-3 0 -25.5 -0.5t-51.5 -1t-53 -1t-30 -0.5q-10 -53 -21 -123
t-22 -143.5t-20.5 -138.5t-16.5 -108q-34 -211 -139 -299q-63 -53 -172 -53q-28 0 -61 8t-62.5 21t-48.5 28.5t-19 29.5q0 9 9 15.5t26 5.5q37 -26 61.5 -39t48.5 -17t60 -4q58 0 100.5 27t71.5 72t48 100q12 34 24.5 94.5t24.5 133.5t23 147.5t20.5 139t15.5 105.5l-93 -2
q-20 2 -20 18q0 14 9.5 20t36.5 7t77 1q29 91 59 164.5t70 125.5t98 80t143 28q41 0 66 -4.5t19 -34.5l-26 -107q-9 -40 -22 -101.5t-28 -133.5t-30 -144.5t-27 -135.5t-19.5 -106.5t-7.5 -56.5q0 -21 8.5 -30.5t21.5 -9.5q21 0 31.5 7t19 13.5t21.5 6.5q8 0 14.5 -5
t6.5 -17q0 -22 -29 -34.5t-66 -12.5z" />
    <glyph glyph-name="f_f" unicode="ff" horiz-adv-x="684" 
d="M127 -411q-27 0 -59 7.5t-61 20t-48 27.5l-2 -2q-63 -53 -172 -53q-28 0 -61 8t-62.5 21t-48.5 28.5t-19 29.5q0 9 9 15.5t26 5.5q37 -26 61 -39t46 -17t53 -4q63 0 107.5 27t74 72t48.5 100q12 34 24.5 94.5t24.5 133.5t23 147.5t20.5 139t15.5 105.5l-93 -2
q-20 2 -20 18q0 14 9.5 20t36.5 7t77 1q20 81 41 146.5t48.5 111.5t68 71t99.5 25q83 0 83 -30q0 -15 -20 -29q-20 4 -39.5 4.5t-40.5 0.5q-48 0 -87 -39.5t-65 -107.5t-39 -153h293q20 81 41 146.5t48.5 111.5t68 71t99.5 25q83 0 83 -30q0 -15 -20 -29q-20 4 -39.5 4.5
t-40.5 0.5q-48 0 -86.5 -39.5t-65 -107.5t-39.5 -153l127 -1q28 0 28 -19q0 -24 -48 -26h-19h-36.5h-38h-23.5q-10 -53 -21 -123t-22 -143.5t-20.5 -138.5t-16.5 -108q-35 -214 -139 -299q-63 -53 -172 -53zM96 -59q-28 -172 -101 -261q28 -19 48.5 -28t40.5 -12t47 -3
q63 0 107.5 27t74 72t48.5 100q12 34 24.5 94.5t24.5 133.5t23 147.5t20.5 139t15.5 105.5l-93 -2q-4 0 -7 1q-42 0 -85 -0.5t-73 -0.5h-35q-10 -53 -21 -123t-22 -143.5t-20.5 -138.5t-16.5 -108z" />
    <glyph glyph-name="f_f_i" unicode="ffi" horiz-adv-x="869" 
d="M128 -411q-27 0 -59 7.5t-61.5 20.5t-48.5 27l-2 -2q-63 -53 -172 -53q-28 0 -61 8t-62.5 21t-48.5 28.5t-19 29.5q0 9 9 15.5t26 5.5q37 -26 61 -39t46 -17t53 -4q63 0 107.5 27t74 72t48.5 100q12 34 24.5 94.5t24.5 133.5t23 147.5t20.5 139t15.5 105.5l-93 -2
q-20 2 -20 18q0 14 9.5 20t36.5 7t77 1q20 81 41 146.5t48.5 111.5t68 71t99.5 25q83 0 83 -30q0 -15 -20 -29q-20 4 -39.5 4.5t-40.5 0.5q-48 0 -87 -39.5t-65 -107.5t-39 -153h294q20 81 41 146.5t48.5 111.5t68 71t99.5 25q58 0 88.5 -19t34.5 -47q1 -1 1 -2v-1v-1.5
t0 0.5v-2v-1v0v0q-1 -16 -17 -32q-15 -12 -32 -12t-31.5 14t-14.5 31q0 10 3 17q-13 3 -35 3q-50 0 -92 -40t-71 -108.5t-42 -153.5l266 19h1q2 0 5 -1t6 -5q15 -14 15 -42q0 -20 -46 -216t-46 -208q0 -11 10 -11q5 0 18 13q12 12 20 12q16 0 16 -20q0 -13 -14.5 -25
t-32.5 -19t-27 -7q-34 0 -34 55q0 5 1 11.5t4 13.5q2 8 4.5 17t4.5 22q3 12 7 28.5t8 38.5q5 21 10 43t10 45t11 50.5t13 59.5t10.5 49.5t3.5 20.5v10q0 3 -1 10q-16 -1 -45 -2t-63 -2.5t-65.5 -2.5t-53.5 -2t-26 -1q-10 -53 -21 -123t-22 -143.5t-20.5 -138.5t-16.5 -108
q-35 -214 -139 -299q-63 -53 -172 -53zM96 -59q-27 -170 -101 -260q28 -19 48.5 -28.5t40.5 -12.5t48 -3q63 0 107.5 27t74 72t48.5 100q12 34 24.5 94.5t24.5 133.5t23 147.5t20.5 139t15.5 105.5l-93 -2q-4 0 -7 1q-42 0 -85 -0.5t-73.5 -0.5h-35.5q-10 -53 -21 -123
t-22 -143.5t-20.5 -138.5t-16.5 -108z" />
    <glyph glyph-name="f_f_l" unicode="ffl" horiz-adv-x="953" 
d="M135 -411q-28 0 -61 8t-63 21.5t-48 28.5q-3 -3 -6 -5q-63 -53 -172 -53q-28 0 -61 8t-62.5 21t-48.5 28.5t-19 29.5q0 9 9 15.5t26 5.5q37 -26 61 -39t46 -17t53 -4q63 0 107.5 27t74 72t48.5 100q12 34 24.5 94.5t24.5 133.5t23 147.5t20.5 139t15.5 105.5l-93 -2
q-20 2 -20 18q0 14 9.5 20t36.5 7t77 1q20 81 41 146.5t48.5 111.5t68 71t99.5 25q83 0 83 -30q0 -15 -20 -29q-20 4 -39.5 4.5t-40.5 0.5q-48 0 -87 -39.5t-65 -107.5t-39 -153h301q29 91 59 164.5t70 125.5t98 80t143 28q41 0 66 -4.5t19 -34.5l-26 -107
q-9 -40 -22 -101.5t-28 -133.5t-30 -144.5t-27 -135.5t-19.5 -106.5t-7.5 -56.5q0 -21 8.5 -30.5t21.5 -9.5q21 0 31.5 7t19 13.5t21.5 6.5q8 0 14.5 -5t6.5 -17q0 -22 -29 -34.5t-66 -12.5t-55 20t-18 49q0 25 5.5 64.5t14 86t18 93.5t17.5 88q4 22 13 63.5t20.5 93.5
t23.5 106.5t23.5 103t20.5 83.5q-99 11 -171 -32t-118 -124.5t-68 -186.5h162q28 0 28 -19q0 -12 -11 -17t-29 -7q-3 0 -25.5 -0.5t-51.5 -1t-53 -1t-30 -0.5q-10 -53 -21 -123t-22 -143.5t-20.5 -138.5t-16.5 -108q-34 -211 -139 -299q-63 -53 -172 -53zM96 -59
q-27 -167 -98 -257q30 -21 51.5 -31t44 -13t55.5 -3q58 0 100.5 27t71.5 72t48 100q12 34 24.5 94.5t24.5 133.5t23 147.5t20.5 139t15.5 105.5l-93 -2q-4 0 -8 2q-42 -1 -86.5 -1.5t-76.5 -0.5h-37q-10 -53 -21 -123t-22 -143.5t-20.5 -138.5t-16.5 -108z" />
    <glyph glyph-name=".notdef" horiz-adv-x="965" 
d="M577 -78q-26 41 -53 47q-4 1 -11 1.5t-15 0.5q-9 0 -19.5 -2t-24.5 -5q-3 5 -3 8q14 11 43 11q3 0 7 1h7q-7 5 -18 13t-26 18q-31 19 -31 25t5 9q3 2 5 3.5t3 2.5q-8 8 -8 17q0 11 1 15q-81 44 -134 112q-20 24 -34.5 45t-24.5 37t-15 24.5t-6 9.5q-31 11 -42 14
q-5 2 -12 4.5t-16 5.5q-15 4 -23 8q-7 3 -36 15q-30 12 -46 25t-16 22t11 9l256 -22q18 4 37.5 8t40.5 8q29 5 61.5 11.5t60.5 12.5t43 9q75 18 94 46q56 98 127 98q17 0 31 -2t25 -5v1l74 26q3 0 3 -2v-1l-25 -69l70 3q2 0 2 -1v-2l-64 -66l-1 1q-3 -237 -241 -399
q0 -11 -5.5 -17.5t-12.5 -6.5l-12 -12q32 -11 56 -20.5t39 -17.5l21 1q35 0 62 -19v-2q0 -2 -1 -3q-2 -1 -3 -2q-13 6 -23 9.5t-15 3.5q-6 1 -11 0.5t-9 -0.5q14 -7 23 -14.5t14 -15.5q-1 -4 -9 -6q-32 32 -62 32q-6 0 -10 -0.5t-7 -0.5q-3 -1 -7 -1q-1 -1 -5.5 -2t-6.5 -2
q-1 -1 -3 -1.5t-5 -2.5q-6 -3 -8 -3h-4q-3 0 -3 5q10 11 16.5 13t13.5 4q4 2 7 2.5t6 1.5q-12 6 -25.5 12.5t-29.5 11.5q-32 11 -32 14q0 6 11 15q-7 0 -12 7t-7 12h-27q-15 0 -28.5 1t-26.5 3q-9 -24 -23 -24q-2 0 -4 1q-6 -4 -9.5 -6t-5.5 -4q65 -40 84 -57q3 -1 17 -3
q6 -1 11 -1.5t8 -2.5q21 -6 36 -26q0 -3 -2 -5q-1 -1 -2 -1.5l-1 -0.5q-13 12 -21 16t-28 7q20 -12 27 -39q-1 -4 -4 -4h-4zM491 142l78 88l93 -72q3 1 9.5 8.5t12 15.5t5.5 10q-4 3 -13.5 11.5t-24.5 21.5q-16 14 -28.5 25t-23.5 20l73 97q-11 10 -20 16.5t-17 9.5l-74 -93
q-27 21 -51 39.5t-46 33.5q-20 -23 -26 -39l91 -72l-72 -93q1 -3 8 -9.5t15.5 -12t10.5 -5.5z" />
    <glyph glyph-name=".null" 
 />
    <glyph glyph-name="nonmarkingreturn" horiz-adv-x="333" 
 />
    <glyph glyph-name="space" unicode=" " horiz-adv-x="260" 
 />
    <glyph glyph-name="exclam" unicode="!" horiz-adv-x="327" 
d="M106 160q-15 0 -17 20q45 194 77 368t50 330q3 26 7 50t8 49q11 50 12 99q3 10 11.5 17t17.5 7q12 0 17 -17q-1 -20 -4 -46.5t-9 -59.5q-5 -34 -11 -76t-12 -92q-6 -51 -17.5 -122.5t-27 -155.5t-34.5 -174t-40 -177q-11 -20 -28 -20zM90 -49q-8 0 -13 5t-5 12t1 9
q-20 8 -20 29q0 22 18 36.5t35 14.5t25.5 -11t8.5 -28q0 -12 -6.5 -27.5t-17.5 -27.5t-26 -12z" />
    <glyph glyph-name="quotedbl" unicode="&#x22;" horiz-adv-x="260" 
d="M127 801q-17 0 -17 18q0 52 43 147q11 20 28 20q18 0 18 -15v-5q0 -1 -14 -35q-8 -17 -15 -43.5t-14 -62.5q-3 -11 -12 -17.5t-17 -6.5zM220 807q-16 0 -16 18q0 61 51 145q11 12 27 12t16 -17v-4q0 -2 -9 -17q-10 -16 -18.5 -43t-14.5 -47q-6 -21 -12.5 -34t-23.5 -13z
" />
    <glyph glyph-name="numbersign" unicode="#" horiz-adv-x="689" 
d="M335 60q-15 0 -17 20q20 63 34 135.5t27 148.5q-19 -1 -38 -1.5t-38 -0.5q-19 -1 -38.5 -1.5t-38.5 -2.5q-7 -28 -19.5 -76t-29.5 -116q-4 -18 -7 -37t-3 -39q-1 -12 -10.5 -20t-16.5 -8q-19 0 -19 21q0 32 15 99.5t44 171.5q-20 -2 -39.5 -5.5t-39.5 -7.5
q-19 -4 -39.5 -6.5t-40.5 -3.5q-21 3 -21 17q0 8 8.5 18t24.5 11t36.5 4t41.5 6q20 4 41 7t41 6q5 19 11 41t13 47t11 42t5 25q-15 -1 -30 -3t-31 -5t-29.5 -5t-25.5 -4q-11 -1 -22.5 -4.5t-22.5 -8.5q-11 -8 -17 -8q-16 0 -19 20q14 44 110 52q11 2 20.5 3t17.5 2
q8 2 15 2.5t14 1.5t13.5 1.5t13.5 1.5q3 24 6 51q2 18 5 45.5t8 57t13 52.5q12 35 33 35t21 -29q-1 -12 -12 -21q-4 -17 -7.5 -41.5t-6.5 -56.5q-3 -31 -6 -53.5t-5 -36.5l48 1q21 0 42.5 -0.5t43.5 -1.5q30 133 63 205q12 16 27 16q16 0 16 -24q-18 -40 -33 -90t-29 -109
q38 -2 73 -3.5t66 -1.5q32 0 53.5 0.5t34.5 1.5q17 -5 17 -17q0 -32 -66 -32q-65 0 -188 6q-9 -48 -15 -84t-11 -61h7l177 -1q17 -5 17 -17q0 -9 -7 -17.5t-17 -11.5l-177 1h-8q-33 -201 -60 -284q-11 -20 -28 -20zM239 405q20 1 56.5 2.5t91.5 2.5q5 26 11 62.5t15 83.5
q-22 2 -39 2h-31h-39h-13t-12 -1q-6 -27 -18 -72z" />
    <glyph glyph-name="dollar" unicode="$" horiz-adv-x="560" 
d="M171 -75q-16 0 -18 20l14 52q-119 25 -160 117q-14 33 -14 68q0 68 24.5 117t82.5 101q10 8 19 8q19 0 19 -16q0 -10 -4 -15q-50 -46 -71.5 -87.5t-21.5 -100.5q0 -58 38.5 -97t99.5 -53l159 537q-60 144 -60 215q0 47 15.5 87t47.5 64.5t80 24.5q9 0 31 -3q5 15 9 30.5
t7 30.5q4 11 13 17.5t16 6.5q16 0 16 -18q0 -30 -18 -81q56 -32 80 -109q4 -7 4 -15q0 -10 -8.5 -17.5t-17.5 -7.5q-15 0 -18 22q-4 22 -17.5 46.5t-39.5 39.5q-6 -14 -13.5 -38t-15.5 -57q-9 -33 -24.5 -90.5t-38.5 -138.5q8 -20 17 -41l18 -42q67 -150 67 -249
q0 -48 -13 -95t-42 -85t-75.5 -61t-113.5 -23q-7 0 -15 0.5t-19 1.5l-12 -46q-11 -20 -27 -20zM359 652q17 58 28.5 101t18.5 71t15 53t16 46q-5 1 -12 1.5t-15 0.5q-36 0 -60 -32.5t-24 -75.5q0 -69 33 -165zM223 33h18q96 0 152 71q47 59 47 152q0 44 -19.5 106t-56.5 150
q-17 -60 -35 -120l-36 -120q-17 -59 -35 -118.5t-35 -120.5z" />
    <glyph glyph-name="percent" unicode="%" horiz-adv-x="502" 
d="M73 -57q-14 0 -17 20q32 104 78.5 240t108.5 303q17 44 28 73.5t16 45.5q42 122 73.5 201.5t51.5 116.5q10 8 18 8q20 0 20 -16q0 -7 -14 -29q-14 -20 -38.5 -84t-50.5 -147q-13 -41 -28.5 -84.5t-32.5 -88.5q-53 -140 -99.5 -275t-85.5 -264q-11 -20 -28 -20zM149 742
q-44 0 -73.5 23t-29.5 54q0 56 30 86.5t73 30.5q44 0 70.5 -27t26.5 -70t-26.5 -70t-70.5 -27zM143 791q56 0 56 45q0 56 -53 56q-25 0 -39.5 -16t-14.5 -41t13 -34.5t38 -9.5zM373 -4q-22 0 -33 3q-12 2 -12 13q0 10 8 19.5t20 10.5l34 -2q17 0 30 11.5t13 37.5
q0 18 -8.5 35.5t-22.5 29.5t-30 12q-24 0 -41 -17.5t-17 -33.5q0 -28 20 -43q2 -4 3 -7t1 -8q0 -10 -8 -17.5t-24 -7.5t-27 22.5t-11 43.5q0 29 14.5 55t39.5 43t54 17q30 0 52.5 -16.5t35 -41t12.5 -50.5q0 -62 -29 -85.5t-74 -23.5z" />
    <glyph glyph-name="ampersand" unicode="&#x26;" horiz-adv-x="763" 
d="M380 -12q-74 0 -135 28t-105.5 79t-68.5 119t-24 147q0 51 14.5 95t35.5 77t39 51q24 25 53 43t62 31q-81 69 -81 162q0 29 16 59t43 50q26 21 60.5 31t74.5 10q83 0 138 -30t77 -76q2 -21 -8 -28t-19 -7q-11 0 -18 16q-13 35 -56 57t-104 22q-40 0 -77 -13t-60 -38
t-23 -61q0 -69 56 -113q20 -17 49 -27q43 0 65.5 -11t22.5 -30q0 -11 -9 -18.5t-22 -7.5q-61 12 -75 19q-57 -6 -104 -42.5t-75 -92.5t-28 -123q0 -94 36.5 -169t99.5 -118t144 -43q75 0 132.5 24.5t96.5 63.5t59 85t20 88q0 65 -25 104.5t-79 66.5q-61 -27 -91.5 -74.5
t-30.5 -97.5q0 -28 11 -41t11 -27q0 -10 -8 -18.5t-19 -8.5q-19 0 -31 33q-4 13 -7 26.5t-3 28.5q0 59 37.5 114.5t93.5 93.5q10 7 29 15t40.5 16.5t39.5 15t27 10.5q85 37 85 107l-9 81q3 10 11.5 17t15.5 7q27 0 27 -112q0 -16 -10.5 -41t-32.5 -49q-25 -25 -58.5 -44
t-77.5 -32q45 -25 66 -55t27.5 -64.5t6.5 -71.5q0 -52 -23.5 -102t-65 -92.5t-97.5 -71.5q-83 -43 -162 -43z" />
    <glyph glyph-name="quotesingle" unicode="'" horiz-adv-x="141" 
d="M129 798q-19 0 -19 21q0 106 25 168q10 16 23 16q11 0 16 -4.5t5 -9.5v-7q0 -1 -0.5 -2.5l-1.5 -4.5q-5 -9 -10 -47q-1 -8 -2 -19t-2 -23q-3 -25 -6 -48.5t-11 -31.5q-11 -8 -17 -8z" />
    <glyph glyph-name="parenleft" unicode="(" horiz-adv-x="284" 
d="M186 -303q-15 0 -39 42q-48 86 -71.5 190.5t-23.5 225.5q0 293 136 552q23 41 44 75t41 60q21 26 35.5 43t22.5 25q61 61 74 61q8 5 16 5q12 0 12 -11t-9 -22t-22 -22q-7 -5 -13.5 -10.5t-13.5 -11.5q-15 -12 -24 -22q-185 -212 -235 -517q-15 -94 -15 -186
q0 -94 15.5 -178.5t45.5 -159.5q11 -26 32 -61q21 -34 21 -42v-3q0 -12 -10 -22.5t-19 -10.5z" />
    <glyph glyph-name="parenright" unicode=")" horiz-adv-x="271" 
d="M-191 -266q-14 0 -14 15q0 10 14 24.5t33.5 30.5t35.5 29q24 20 51 46.5t67 83.5q60 83 104.5 179t75.5 205q39 138 39 239q0 68 -7 114.5t-18 82t-23 68.5q-8 25 -13 46.5t-6 39.5q3 19 23 30q6 2 13 2q6 0 12 -11q2 -18 8.5 -42t17.5 -55q15 -41 24.5 -89.5t14 -93.5
t4.5 -75q0 -62 -15 -141.5t-42.5 -165.5t-63.5 -167q-28 -60 -56 -107t-57 -81q-13 -15 -24 -27.5t-20 -21.5q-16 -19 -28.5 -32.5t-23.5 -23.5q-10 -10 -23.5 -22.5t-33.5 -29.5q-19 -16 -50 -44q-10 -6 -19 -6z" />
    <glyph glyph-name="asterisk" unicode="*" horiz-adv-x="335" 
d="M289 579q-10 0 -17 7q-22 24 -39 44.5t-28 36.5l-42 -67q-7 -12 -23 -12q-18 0 -18 17q0 3 2 11l50 79q-40 -9 -75 -33q-12 -6 -18 -6q-17 0 -17 20q0 10 12 20q23 14 44 24.5t42 16.5q-7 9 -21 39t-24 41q-2 6 -2 13q0 8 8 16.5t18 8.5t19 -10.5t17 -25.5q5 -7 9 -16
t8 -17q5 -9 8.5 -16.5t7.5 -14.5v-1q14 23 26 43.5t20 36.5q11 15 25 15q18 0 18 -17q0 -10 -17 -39q-8 -14 -14.5 -25.5t-11.5 -19.5q61 6 64 7q24 0 24 -15q0 -8 -6.5 -17t-17.5 -13q-11 -1 -21 -2l-20 -2q-9 -1 -18.5 -1.5t-18.5 -1.5q11 -17 28 -38t40 -45q4 -4 4 -15
q0 -10 -8 -18t-17 -8z" />
    <glyph glyph-name="plus" unicode="+" horiz-adv-x="441" 
d="M183 146q-17 0 -17 43q0 22 5 54.5t15 76.5q-2 0 -6 -0.5t-9 -1.5q-4 -1 -10 -2t-11 -2q-13 -2 -29 -6q-39 -17 -57 -17q-20 0 -20 15q0 7 3 10q6 11 16.5 17.5t16.5 6.5q4 0 8 -2q45 21 97 24h8q1 7 2.5 14t2.5 14l7 30q2 5 2 11.5v14.5v22q0 27 20 38q6 4 13 4
q19 0 19 -24t-2.5 -39.5t-5.5 -29.5q-1 -7 -2.5 -14t-3.5 -13q-5 -14 -6 -26h7q11 0 24.5 -1.5t28.5 -3.5q15 -3 26.5 -4t20.5 -1q8 0 16.5 0.5t16.5 1.5q14 -3 14 -16t-20 -25q-8 -4 -11 -5l-131 11q-15 -82 -15 -126v-14q-8 -35 -33 -35z" />
    <glyph glyph-name="comma" unicode="," horiz-adv-x="161" 
d="M-20 -186q-18 0 -18 18q0 8 6 17q11 13 23.5 33t23.5 41.5t19 38t10 21.5q0 4 -3 5q-4 1 -4 7q-4 -1 -8.5 -2.5t-8.5 -1.5q-20 0 -20 21q0 18 13.5 35t36.5 17q43 0 43 -54q0 -26 -15.5 -61.5t-38 -70t-42.5 -58.5q-9 -6 -17 -6z" />
    <glyph glyph-name="hyphen" unicode="-" horiz-adv-x="425" 
d="M175 261q-23 0 -38 2t-23 5l-28 1l-19 -3q-1 0 -1.5 0.5l-0.5 0.5h-3q-18 0 -18 19q0 16 17.5 24t42.5 8q13 0 28.5 -1.5t34.5 -3.5q20 -2 40.5 -3.5t42.5 -1.5q45 0 100 15h6q18 0 18 -15q0 -47 -199 -47z" />
    <glyph glyph-name="period" unicode="." horiz-adv-x="125" 
d="M19 -16q-16 0 -24 4h-4q-29 0 -29 34q0 17 14.5 31t31.5 14t32 -12q17 -17 17 -33t-12 -27t-26 -11z" />
    <glyph glyph-name="slash" unicode="/" horiz-adv-x="398" 
d="M-96 -449q-19 0 -19 16q0 4 18 50q10 23 27 67t42 110q25 67 45 118.5t35 88.5l90 224q17 42 38.5 93.5t44.5 105.5t46 105.5t42 93.5t31 68q54 117 63 163q9 47 18 78.5t16 48.5q15 35 40 39h6q18 0 18 -16q0 -15 -18 -27q-11 -22 -16 -48t-7 -42q-1 -8 -5 -22.5
t-11 -34.5q-7 -21 -30.5 -77t-64.5 -147t-69 -155t-44 -102q-31 -75 -56.5 -137.5t-51.5 -128.5q-17 -43 -34.5 -87t-37 -94.5t-44.5 -115.5q-19 -48 -40.5 -102.5t-45.5 -113.5q-7 -19 -26 -19z" />
    <glyph glyph-name="zero" unicode="0" horiz-adv-x="455" 
d="M184 -11q-45 0 -74 26.5t-43 70t-14 94.5q0 83 20 150t54.5 113.5t77.5 67.5q17 8 33.5 12t32.5 4q31 0 46 -7t28 -18q7 -4 13.5 -10t13.5 -12q6 -6 13.5 -11.5t14.5 -10.5q2 -3 3 -7.5t1 -10.5q0 -13 -16 -19q28 -32 28 -101q0 -45 -13 -96.5t-38 -99t-61 -82.5
q-52 -53 -120 -53zM187 27q37 0 68 23.5t54.5 62t37.5 83.5q20 71 20 111q0 43 -16 82q-1 3 -1.5 6.5t-0.5 8.5q0 9 13 20q-4 3 -8 7t-9 8q-41 40 -73 40q-59 0 -99.5 -47t-57.5 -116q-17 -71 -17 -131q0 -61 14 -93.5t30 -48.5t45 -16z" />
    <glyph glyph-name="one" unicode="1" horiz-adv-x="388" 
d="M-2 -10q-18 0 -18 18q0 27 12 27q67 0 95 3q14 1 25 2t19 1q8 73 14.5 122.5t11.5 74.5q6 25 12.5 49.5t13.5 48.5q-43 -65 -102 -121q-9 -6 -17 -6q-18 0 -18 18q0 8 6 17q26 26 42.5 44t23.5 27q14 20 28 38t27 44q14 27 26.5 51.5t24.5 40.5q14 17 25 17q13 0 13 -16
v-5q0 -1 -0.5 -2t-0.5 -3l-3 -10h1l-2 -3q-63 -239 -81 -424q22 1 43 1.5t40 0.5h42h5.5t8.5 -1q5 0 9.5 -0.5t9.5 -0.5q17 -5 17 -20q0 -16 -18 -25q-6 -3 -12 -3l-69 5l-237 -4q-10 -6 -17 -6z" />
    <glyph glyph-name="two" unicode="2" horiz-adv-x="504" 
d="M57 -9q-31 0 -54.5 21t-23.5 52q0 33 24.5 54.5t61.5 21.5q26 0 55 -6.5t51 -22.5q179 178 179 276q0 76 -100 76q-37 0 -70.5 -13.5t-54 -34.5t-20.5 -46q-4 -9 -12 -14.5t-15 -5.5q-18 0 -18 18q0 29 20 55t50.5 45.5t64.5 30.5t61 11q139 0 139 -118t-184 -302
q43 -25 71 -37t59 -12q24 0 35.5 15t16.5 37t9.5 44.5t14.5 38.5q6 11 20 11q13 0 17 -18q-6 -76 -24 -109q-36 -65 -87 -65q-43 0 -83 23t-78 43q-4 -6 -20.5 -22.5t-43 -31.5t-61.5 -15zM60 39q36 0 80 41q-42 17 -64 17q-25 0 -39 -10t-14 -23q0 -25 37 -25z" />
    <glyph glyph-name="three" unicode="3" horiz-adv-x="454" 
d="M81 -411q-62 0 -118.5 23.5t-98.5 60t-61 76.5q-14 33 -14 56q0 100 39 100q12 0 17 -17q-1 -8 -2 -16.5t-2 -16.5q-3 -16 -3 -40q0 -49 39 -92t98 -66q57 -22 125 -22q66 0 119.5 25.5t88.5 68.5q68 85 68 211q0 51 -24 98.5t-63 78t-85 30.5h-6q-51 -30 -96 -36
q-20 2 -20 17q0 16 28.5 32.5t62.5 23.5l32 20q21 12 45.5 33t46.5 46t36 49.5t14 44.5q0 40 -15 65t-68 25q-99 0 -177 -91q-10 -12 -20 -12q-20 0 -20 18q0 20 21 42t54 41.5t70.5 32t69.5 12.5q43 0 72.5 -16.5t44.5 -42t15 -53.5q0 -42 -25 -85q-26 -44 -82 -98l-18 -16
t-19 -16q54 -11 93 -46.5t60 -88t21 -114.5q0 -96 -37 -174.5t-113 -124.5t-193 -46z" />
    <glyph glyph-name="four" unicode="4" horiz-adv-x="499" 
d="M263 -410q-17 0 -17 18q0 5 4 11q4 5 4.5 13t0.5 20q0 7 6 38t16 88q11 57 20 109t17 99q-252 -3 -274 -3t-22 18q0 9 6 18q22 26 41.5 48.5t37.5 41.5q35 39 84 93t97 118q23 32 50 73t55 92q10 16 28 16q15 0 15 -24q-7 -13 -14 -24.5t-12 -19.5q8 -5 8 -14l-2 -19
q-6 -147 -48 -369q39 3 62 5t29 3q24 0 24 -15t-16.5 -26.5t-47.5 -11.5h-60q-19 -106 -30.5 -183.5t-15.5 -127.5q0 -5 -0.5 -10.5t-1.5 -13.5q-7 -61 -44 -61zM139 27h57q41 0 72 0.5t53 1.5q15 98 27.5 185t22.5 164q-31 -48 -69.5 -97.5t-84.5 -100.5t-79 -89t-54 -63
q14 -1 28 -1h27z" />
    <glyph glyph-name="five" unicode="5" horiz-adv-x="652" 
d="M299 -413q-58 0 -112.5 17t-97.5 50t-68 81t-25 109q0 51 28 51q11 0 17 -11v-14q0 -75 33.5 -127.5t92 -80t131.5 -27.5q186 0 249 139q22 50 22 107q0 69 -30.5 121t-82 81.5t-115.5 29.5q-43 0 -75.5 -6t-63.5 -21t-72 -42q-9 -6 -18 -6q-18 0 -18 18q0 4 0.5 6t1.5 4
q52 73 86.5 133.5t52 125.5t17.5 149q3 12 13 18q9 12 22 12q10 0 19 -7l6.5 -6.5t7.5 -6.5q42 -21 168 -21q78 0 135 39q17 11 24 11q17 0 17 -18q0 -13 -15.5 -26t-38.5 -23.5t-45 -17t-35 -7.5t-23 -1h-18q-141 0 -192 20q-7 -160 -105 -309q57 26 157 26q51 0 99 -19
t86.5 -54.5t61.5 -84.5t23 -110q0 -81 -36 -150t-107.5 -110.5t-176.5 -41.5z" />
    <glyph glyph-name="six" unicode="6" horiz-adv-x="550" 
d="M213 -10q-79 0 -122.5 64.5t-43.5 170.5q0 37 6.5 92t19 119.5t29.5 130.5t37 124q27 79 65 142t85 100t100 37q78 0 123 -34q14 -12 30.5 -35.5t28 -46t11.5 -32.5q0 -27 -29 -27q-15 0 -18 7q-20 53 -38 79t-40 35t-54 9q-46 0 -78.5 -22.5t-61.5 -60.5
q-35 -48 -65.5 -120t-53 -156t-34.5 -169q62 93 152 121q15 5 31 7.5t32 2.5q65 0 104.5 -57t39.5 -152q0 -89 -29 -164t-86 -120t-141 -45zM218 32q71 0 117.5 43.5t67.5 108.5q21 66 21 123q0 97 -33.5 135t-89.5 38q-28 0 -61 -17t-64 -49t-52 -75.5t-26 -96.5v-1
q0 -141 61 -191q23 -18 59 -18z" />
    <glyph glyph-name="seven" unicode="7" horiz-adv-x="474" 
d="M59 -419q-17 3 -21 14l-2 11q0 29 16 34q26 48 67 175q20 62 35 108t25 76h-26q-59 0 -100 3q-3 -1 -6 -1.5t-5 -0.5q-17 0 -17 18q0 16 12 23h93l64 -1q75 215 165 373q2 3 4.5 7.5t5.5 8.5q4 5 6.5 10t4.5 11l-253 4q-4 0 -13 -1.5t-21 -5.5q-13 -4 -22 -6t-14 -2
q-36 0 -36 34q0 18 17 24t55 6l307 -3q32 0 32 -43q0 -23 -19 -52q-40 -61 -82.5 -153t-87.5 -214h131q17 0 17 -18q0 -10 -9 -19t-22 -9q-39 5 -71 6.5t-57 1.5h-3q-18 -48 -37.5 -103.5t-40.5 -119.5q-20 -64 -33 -101.5t-18 -48.5q-17 -42 -41 -46z" />
    <glyph glyph-name="eight" unicode="8" horiz-adv-x="497" 
d="M230 -20q-51 0 -98.5 27t-78.5 76t-31 116q0 124 148 260q21 20 42.5 40t43.5 40q-23 26 -46 65.5t-38 81.5t-15 73q0 95 49 151t133 56q35 0 59.5 -18t40.5 -45.5t23.5 -57.5t7.5 -53q0 -47 -9.5 -76t-26.5 -54q-28 -43 -123 -129q9 -16 19.5 -34t21.5 -38
q88 -149 88 -246q0 -64 -25.5 -117.5t-72.5 -85.5t-112 -32zM289 570l33 32q8 10 17.5 19t18.5 18q9 8 17.5 17.5t15.5 18.5q35 43 35 90q0 78 -32 122q-25 33 -61 33q-133 0 -133 -150q0 -27 13.5 -65t33.5 -73t37 -54zM222 31q45 0 83.5 24t62 64.5t23.5 89.5
q0 74 -36 155q-9 21 -28.5 55.5t-48.5 83.5q-18 -16 -36.5 -32t-36.5 -33q-135 -123 -135 -218q0 -85 42 -137t110 -52z" />
    <glyph glyph-name="nine" unicode="9" horiz-adv-x="465" 
d="M50 -430q-49 0 -82.5 13.5t-61.5 45.5t-60 87q0 1 -0.5 2.5t-0.5 2.5v5q2 11 10.5 20t15.5 9q6 0 8 -3l6 -9q4 -7 5 -7q51 -109 119 -121q18 -3 37 -3q81 0 145 75q43 50 74 123t51 169q12 58 18 112q-84 -91 -177 -91q-35 0 -60.5 17t-42 44t-24.5 57.5t-8 56.5
q0 8 0.5 14t1.5 13q17 119 70 190q83 108 242 108q48 0 86 -22q7 -4 12.5 -8.5t10.5 -9.5q16 -1 20.5 -8t4.5 -22l-1 -38q0 -18 -7.5 -51.5t-21.5 -72.5t-34 -75q-5 -21 -9.5 -43.5l-9.5 -47.5l-12 -60t-17 -80q-48 -233 -149 -331q-62 -61 -159 -61zM171 46q76 0 147 89
q11 13 20.5 26.5t17.5 28.5q5 19 11 48.5t13 69.5t12.5 70t11.5 49q-26 25 -64 25q-70 0 -123.5 -20.5t-93.5 -77.5q-40 -58 -53 -155q-1 -7 -1.5 -16.5t-0.5 -22.5q0 -24 14 -58q25 -56 89 -56z" />
    <glyph glyph-name="colon" unicode=":" horiz-adv-x="237" 
d="M121 336q-13 0 -26.5 12.5t-13.5 35.5t16.5 45.5t35.5 22.5q20 0 39 -15.5t19 -32.5q0 -16 -6 -27.5t-16 -20.5q-22 -20 -48 -20zM37 -19q-12 2 -14 4h-1q-9 0 -20 21.5t-11 40.5q0 20 13.5 30.5t33.5 10.5t41 -15t21 -33q0 -17 -11 -31q-23 -26 -52 -28z" />
    <glyph glyph-name="semicolon" unicode=";" horiz-adv-x="247" 
d="M108 342q-12 0 -19 21.5t-7 41.5t13.5 34t34.5 14q22 0 39.5 -14t17.5 -37q0 -22 -17.5 -40t-39.5 -18h-5q-1 0 -2.5 0.5t-3.5 0.5q-4 -3 -11 -3zM-14 -155q-19 0 -19 16q0 7 6 19q21 26 36 47.5t22 37.5q15 35 15 49v1q-3 -9 -12 -16t-20 -7q-12 0 -19 11t-7 26
q0 10 9.5 22.5t23 22t25.5 9.5q19 0 34 -18t15 -33q0 -40 -47 -121q-23 -40 -38 -52q-16 -14 -24 -14z" />
    <glyph glyph-name="less" unicode="&#x3c;" horiz-adv-x="456" 
d="M249 53q-7 0 -23 14t-35.5 36t-38 47t-30.5 48t-12 37q0 41 66 89q37 27 70.5 64t64.5 68.5t59 41.5q21 0 21 -9q0 -23 -18 -31q-17 -7 -131 -127q-17 -15 -27 -23t-19 -14.5t-23 -19.5q-12 -11 -12 -18.5t7 -21.5q11 -19 29 -42.5t36.5 -45.5t30.5 -37q10 -12 12.5 -16
t2.5 -13t-10.5 -18t-19.5 -9z" />
    <glyph glyph-name="equal" unicode="=" horiz-adv-x="456" 
d="M66 333q-18 0 -18 18q0 50 160 50t160 -26q0 -9 -7 -17.5t-17 -11.5q-64 4 -105.5 5.5t-59.5 1.5q-84 0 -96 -14q-9 -6 -17 -6zM75 202q-17 0 -17 18q0 23 37 38q26 11 64 16.5t87 5.5q19 0 37.5 -0.5t37.5 -1.5q38 -3 72 -3q17 -6 17 -17q0 -9 -7 -17.5t-17 -11.5
l-146 6q-104 0 -154 -31q-3 -1 -5.5 -1.5t-5.5 -0.5z" />
    <glyph glyph-name="greater" unicode="&#x3e;" horiz-adv-x="456" 
d="M147 97q-8 -4 -16.5 -0.5t-8.5 13.5q0 14 19 26q16 10 40 29.5t51 43.5t51.5 47t41.5 41q-34 30 -69 66.5t-66 85.5q-3 20 8.5 29t21.5 9t12 -2l2 -2q36 -62 62 -95t48 -46q30 -18 30 -32q0 -15 -10.5 -26t-21.5 -22q-26 -24 -60 -56.5t-69.5 -62t-65.5 -46.5z" />
    <glyph glyph-name="question" unicode="?" horiz-adv-x="446" 
d="M172 152q-16 0 -18 21q12 71 21.5 117.5t16.5 69.5q9 30 20.5 55t33.5 59.5t62 90.5q81 117 81 205q0 59 -17 92.5t-43.5 48t-57.5 14.5q-57 0 -102 -17t-71 -47.5t-26 -71.5q0 -5 2 -14t6 -23q4 -13 6 -21t2 -12q0 -12 -14 -12q-44 0 -44 86q0 44 20.5 77t55 56
t76.5 34.5t84 11.5q116 0 156 -106q14 -40 14 -85q0 -46 -5.5 -74.5t-16.5 -52.5q-10 -24 -24.5 -45t-30.5 -43q-8 -10 -17 -21.5t-18 -23.5q-23 -30 -41.5 -58t-33 -63t-26.5 -87.5t-23 -132.5q-1 -12 -10.5 -20t-17.5 -8zM163 -18q-31 0 -38.5 15.5t-7.5 34.5
q0 20 19.5 36t36.5 16q35 0 35 -29q0 -16 -7 -37q-15 -28 -38 -36z" />
    <glyph glyph-name="at" unicode="@" horiz-adv-x="873" 
d="M453 -83q-103 0 -191 53q-148 88 -196 291q-8 35 -12 72t-4 75q0 146 53.5 265t158.5 192q104 74 253 74q111 0 193 -56t127 -162t45 -256q0 -53 -21.5 -105.5t-57 -93t-77.5 -59.5q-33 -15 -71 -15q-42 0 -63 23t-28 64t-7 94v35q-48 -137 -98 -201t-92 -64
q-66 0 -66 121q0 48 7.5 106.5t23.5 117t39.5 107.5t55.5 79t72 30q17 0 35 -8t30.5 -18.5t12.5 -20.5q0 -12 -11 -19t-21 -7q-11 0 -27.5 13t-34.5 13q-15 0 -31 -16q-9 -8 -17.5 -21t-17.5 -30t-21 -51t-23 -77t-18.5 -89.5t-7.5 -90.5q0 -87 27 -87q16 0 35 23t38.5 58.5
t35.5 73.5t27 69t14 44q24 93 58 93q23 0 23 -94l-1 -97q0 -53 8.5 -89.5t33.5 -36.5q64 0 111 43q85 76 85 215q0 39 -10.5 91t-30.5 98q-40 94 -113 149t-166 55q-128 0 -223 -63.5t-146 -168.5q-51 -106 -51 -228q0 -318 189 -422q77 -43 178 -43q129 0 223 78
q36 29 59.5 54t43.5 50.5t47 55.5q10 8 20 8q16 0 16.5 -13t-7.5 -24q-42 -49 -82 -95.5t-86 -82.5t-106 -57.5t-142 -21.5z" />
    <glyph glyph-name="A" unicode="A" horiz-adv-x="702" 
d="M575 -3q-10 0 -17.5 14.5t-12.5 36.5q-7 37 -11 85t-13 121q-51 5 -94 6.5t-85.5 2t-90.5 1.5q-129 -194 -243 -247q-38 -19 -60 -19q-26 0 -26 25q0 13 9 22t18 9t15 -8q74 29 128 85t110 134q-33 2 -62 3t-47 5t-18 16q0 11 9 20t19 10q20 -3 52 -5t78 -4
q34 51 73.5 117.5t79.5 139t75 144.5t60 134.5t35 107.5q10 24 30 24q7 0 12.5 -9t7.5 -20t-5 -19q-7 -25 -14 -70t-13 -98.5t-11 -107t-8 -97t-3 -66.5q0 -79 12 -193q41 -5 55.5 -8.5t14.5 -19.5q0 -9 -9 -17.5t-20 -7.5l-34 4q0 -3 2.5 -27.5t7 -58t8.5 -66.5t7.5 -55
t4.5 -20v3v-3q-2 -10 -9.5 -17t-16.5 -7zM516 302q-4 32 -6 77t-2 100q0 113 21 272q-30 -61 -63.5 -125t-67.5 -123.5t-64 -109.5t-52 -84q35 0 76 -0.5t82.5 -2t75.5 -4.5z" />
    <glyph glyph-name="B" unicode="B" horiz-adv-x="514" 
d="M22 -60q-17 0 -19 20q1 8 2.5 18t4.5 22q-7 2 -14 3.5t-15 2.5q-43 8 -53 18.5t-10 21.5q0 6 6 12.5t11 6.5q11 0 32 -9.5t53 -9.5l97 422l-30 1q-15 0 -15 17q0 24 54 24q18 75 28.5 139.5t22 127t32.5 130.5q-17 -7 -32 -23t-27 -16q-4 0 -10.5 4.5t-6.5 15.5
q0 23 29.5 41t66.5 25q5 10 14 10t17 -8q92 -3 148.5 -64t56.5 -162q0 -42 -16.5 -81.5t-44.5 -72t-64 -54t-74 -26.5q42 -3 80.5 -23t68.5 -51.5t47 -69t17 -74.5q0 -95 -49.5 -158.5t-140 -95.5t-215.5 -32l-21 1q-3 -13 -3 -24q-3 -13 -11.5 -21t-16.5 -8zM170 511
q69 0 124.5 29.5t88.5 79.5t33 109q0 90 -46 136.5t-120 47.5q-21 -72 -32.5 -136t-21 -128.5t-26.5 -137.5zM101 37q160 0 246 64t86 171q0 38 -18.5 72t-50 61.5t-70.5 43t-81 15.5q-10 0 -23.5 0.5t-29.5 1.5q0 -2 -7.5 -33.5t-18.5 -80t-23 -102t-23 -101t-18.5 -78.5
t-7.5 -32q7 -1 16.5 -1.5t22.5 -0.5z" />
    <glyph glyph-name="C" unicode="C" horiz-adv-x="544" 
d="M240 -15q-50 0 -88 27t-63.5 70t-38 92.5t-12.5 93.5q0 56 12 126.5t35 149t56 156.5t75 140t90.5 98t100.5 36q39 0 72.5 -18t59 -47.5t39.5 -64t14 -68.5q-3 -20 -14 -26t-22 3.5t-14 32.5q-7 62 -44 101t-92 39q-54 0 -116 -74q-33 -39 -63 -94.5t-55 -118.5t-44 -127
t-29 -121t-10 -98q0 -69 17.5 -128t52.5 -95t89 -36q60 0 137 56q17 12 32.5 23.5t23.5 11.5q17 0 17 -18q0 -17 -21 -30t-40 -28q-85 -64 -157 -64z" />
    <glyph glyph-name="D" unicode="D" horiz-adv-x="711" 
d="M83 -55q-19 0 -19 14.5t1 33.5q-22 5 -43.5 8.5t-36 11t-14.5 24.5q0 5 5.5 11.5t10.5 6.5q16 0 24 -5t20.5 -10t39.5 -5q56 274 110.5 489.5t106.5 371.5q-49 -17 -80.5 -35.5t-40.5 -18.5q-18 0 -18 18q0 14 13 23q36 23 72 39t73 26q8 13 18 13t14 -5q110 24 190 -4
t123 -108t43 -216q0 -141 -31.5 -246t-87 -179.5t-127 -120.5t-151.5 -69q-44 -13 -90 -18t-96 -5q-4 -45 -29 -45zM120 33q140 0 240 48t164 130.5t94 187t30 217.5q0 99 -25 164t-68.5 99t-100 40.5t-119.5 -10.5q-42 -132 -82 -285.5t-78 -328.5q-13 -61 -27 -126
t-28 -136z" />
    <glyph glyph-name="E" unicode="E" horiz-adv-x="594" 
d="M433 -9q-14 0 -46.5 1t-74.5 2t-86.5 2.5t-83.5 2.5t-64.5 2t-30.5 1l-34 -3q-24 0 -26.5 13t1.5 19q5 6 13.5 28t18 53.5t16.5 65.5q7 30 20.5 91.5t32.5 154.5q20 92 44 205t53 245q-16 1 -16 20q0 18 29 33q0 31 30 31q16 0 17 -15q34 8 85 14t104.5 9t98 2.5
t65.5 -3.5q19 -3 19 -15q0 -15 -8.5 -22t-15.5 -7q-106 0 -174 -2.5t-110 -8t-71 -15.5q-12 -40 -23 -89.5t-21.5 -101.5t-20.5 -100.5t-19 -85.5q20 -2 58 -3t81.5 -1t81 0.5t55.5 1.5q12 0 14.5 -5.5t2.5 -10.5q0 -23 -25 -28t-58 -5l-220 5q-10 -38 -23.5 -95
t-27.5 -119.5t-27 -119t-24 -93.5q126 -2 207 -4t127.5 -3t69 -1h30t10.5 0.5t11 1.5q17 -5 17 -17q0 -20 -18.5 -25.5t-63.5 -5.5z" />
    <glyph glyph-name="F" unicode="F" horiz-adv-x="758" 
d="M163 -26q-15 0 -17 20q24 113 40.5 201t28.5 159.5t20 133.5q-4 -1 -17.5 -1.5t-29 0.5t-26.5 5.5t-11 13.5q0 16 9 21t22.5 5h25.5l35 1l3 25q8 64 19 133t27 142q-80 -21 -123.5 -40.5t-63 -32t-28.5 -12.5q-18 0 -18 18q0 16 20.5 31.5t52.5 28.5t66.5 24t63 19
t42.5 12q5 20 9 36.5t8 29.5q11 15 25 15q15 0 17.5 -10t-4.5 -21l-7 -37q232 58 536 63q17 -5 17 -17q0 -9 -7 -17.5t-18 -11.5q-151 -2 -285.5 -18t-252.5 -47q-10 -54 -19.5 -96t-17 -84.5t-13.5 -100.5l-3 -27q76 7 128 10.5t93.5 5t82.5 1.5q8 0 11 -5.5t3 -10.5
q0 -10 -7.5 -18.5t-18.5 -10.5q-13 -1 -44.5 -2.5t-74 -3t-89 -4t-90.5 -7.5q-9 -63 -21 -134t-25.5 -140t-25.5 -127.5t-21 -97.5q-9 -20 -27 -20z" />
    <glyph glyph-name="G" unicode="G" horiz-adv-x="745" 
d="M409 -448q-16 0 -18 21q18 108 32.5 182t27.5 127.5t26 96.5t27 88q-91 -82 -238 -82q-56 0 -98.5 25t-70.5 67t-42 94.5t-14 107.5q0 73 16 151t44 154t66 143.5t82 119t92 81t96 29.5q85 0 134.5 -50.5t64.5 -136.5q-4 -32 -15.5 -30.5t-26 24.5t-27.5 52
q-39 94 -130 94q-48 0 -92.5 -29.5t-83.5 -79.5t-71 -113.5t-55 -132t-35.5 -134.5t-12.5 -121q0 -70 17 -132t58 -100t111 -38q173 0 236 96q17 26 22.5 47.5t5.5 41.5q-3 9 -24 32.5t-49.5 50.5t-54.5 45q-64 -13 -146 -24q-20 2 -20 18q0 13 12 23q65 47 113 47
q29 0 56 -15q122 27 272 75q24 0 24 -17q0 -6 -4 -15q-64 -105 -112.5 -219.5t-81.5 -239.5q-16 -60 -27 -108.5t-20 -93.5t-18 -91.5t-20 -102.5q-1 -12 -10.5 -20t-17.5 -8zM571 249q6 12 16.5 34.5t23 47.5l23 46t16.5 30q-90 -30 -178 -51q18 -16 38 -38t37 -41t24 -28z
" />
    <glyph glyph-name="H" unicode="H" horiz-adv-x="837" 
d="M113 -34q-15 0 -17 20q28 114 60.5 235t63.5 234q-33 -10 -44.5 -21.5t-11.5 -30.5q0 -11 -3.5 -20t-20.5 -9q-21 0 -21 29q0 38 27 59t86 37q10 41 18.5 92t15.5 104.5t12.5 102.5t9.5 87.5t7 58.5q3 24 29 24q18 0 17 -17q-12 -142 -60 -439q75 20 170.5 32t210.5 17
q15 108 28.5 192t23.5 136.5t11 64.5q2 11 11 17.5t18 6.5q6 0 11.5 -4t5.5 -13q0 -4 -5.5 -37t-13.5 -82t-17 -103t-16 -101.5t-11 -75.5h112q9 0 13 -5.5t4 -12.5q0 -8 -6.5 -16.5t-17.5 -11.5q-37 0 -61.5 0.5t-50.5 0.5q-9 -72 -26.5 -156.5t-32.5 -172.5t-18 -171
q-1 -12 -10.5 -20t-18.5 -8q-15 0 -17 21q2 52 10.5 114.5t19.5 123t20.5 108.5t13.5 71l14 88q-232 -9 -387 -51q-20 -84 -42 -161.5t-43.5 -154.5t-42.5 -162q-11 -20 -28 -20z" />
    <glyph glyph-name="I" unicode="I" horiz-adv-x="435" 
d="M264 -10q-29 0 -60.5 5t-64 7.5t-65.5 -7.5h-5q-10 0 -15 5t-5 12q0 19 26 26.5t72 7.5q21 111 47 234t58 259q32 135 54 229t34 147h-81q-19 0 -19 19q0 8 9 17t22 9h98t59.5 -0.5t40.5 -0.5q15 -4 15 -16q0 -10 -8 -18.5t-19 -10.5q-33 0 -47.5 0.5t-22.5 0.5
q-72 -290 -121.5 -507.5t-75.5 -362.5q65 -2 84 -8.5t19 -20.5q0 -6 -8.5 -15t-20.5 -11z" />
    <glyph glyph-name="J" unicode="J" horiz-adv-x="536" 
d="M145 -13q-101 0 -155 116q-29 63 -29 76q0 14 8 23t15 9q17 0 20 -13q11 -43 31.5 -81.5t52 -62.5t74.5 -24q54 0 92.5 29.5t66 78.5t46 109.5t31.5 123.5q1 5 7.5 36t16.5 78.5t21.5 103t23.5 111t21.5 102.5t16 76.5t7.5 33.5q-37 -20 -73 -20q-26 0 -58 7t-63.5 15.5
t-56.5 10.5q-14 6 -14 16q0 11 9 20t19 10q21 -2 51 -10t61 -15t53 -7q34 0 66 19q11 5 17.5 4t18.5 0q14 0 19 -17q-13 -51 -28.5 -120t-30.5 -144t-28.5 -145t-23 -123t-13.5 -76q-15 -75 -37 -138.5t-55.5 -111t-82.5 -74t-117 -26.5z" />
    <glyph glyph-name="K" unicode="K" horiz-adv-x="613" 
d="M11 -9q-15 0 -18 21q23 125 51 259t61 278q34 145 57 245.5t36 157.5q5 11 13.5 17.5t15.5 6.5q16 0 16 -18q-9 -50 -16.5 -90t-16.5 -79.5t-21 -89.5q-15 -64 -29.5 -127.5t-28.5 -127.5q28 32 80.5 90.5t129.5 144.5t138 156t107 124q11 8 24 7.5t13 -16.5
q0 -11 -8 -20q-37 -45 -94 -110t-133 -151q-76 -85 -126.5 -143t-76.5 -88q9 -93 39 -171t71.5 -133t86.5 -79q24 -13 54.5 -18t60 4t49.5 38q10 8 18 8q20 0 20 -18q0 -11 -14 -27.5t-34 -29.5t-37 -16q-54 -10 -103.5 3t-98.5 64q-39 39 -69 94t-51 118.5t-32 125.5
q-7 -7 -19.5 -20t-17.5 -21q-25 -115 -42.5 -200t-26.5 -141q-2 -12 -11 -20t-17 -8z" />
    <glyph glyph-name="L" unicode="L" horiz-adv-x="538" 
d="M306 -7q-90 2 -143.5 3t-81 2.5t-37 2.5t-9.5 2.5t-1 2.5q-7 10 -4 26.5t14 32.5q10 16 22.5 54.5t25.5 92t26 114t25 120t22.5 111t17.5 86.5q18 83 33 155.5t28 134.5q3 10 12 17t17 7q14 0 17 -17q-11 -49 -27 -126.5t-36 -181.5q-7 -35 -17 -85.5t-22.5 -108.5
t-25 -117.5t-24.5 -112.5t-22 -93.5t-16 -60.5q107 -18 173 -18q47 2 74.5 3t44 2t28.5 2t27 3q11 0 14 -5.5t3 -11.5q0 -8 -7 -17t-17 -12q-34 -3 -68 -5t-66 -2z" />
    <glyph glyph-name="M" unicode="M" horiz-adv-x="982" 
d="M813 -12q-19 0 -20 21.5t-1 73.5q0 21 1 66t3 105.5t4.5 129t5 136t4.5 127t3.5 102.5t1.5 60q-21 -48 -53.5 -113t-70 -138t-75.5 -146t-71.5 -137t-57.5 -111q-10 -21 -25 -21q-14 0 -20 14q-4 17 -13 58.5t-21.5 98.5t-27 122t-28.5 129.5t-26 120t-20.5 95
t-11.5 52.5q-21 -108 -44 -207.5t-46.5 -197t-48.5 -200.5t-51 -219q-11 -20 -28 -20q-15 0 -17 20q11 59 27 135.5t36 163t41 176t41 174.5t37.5 158.5t29.5 126.5q3 10 12 17t16 7q13 0 18 -17q44 -188 79.5 -363.5t73.5 -337.5q24 41 56 100.5t68 129.5t72.5 141.5
t69 136t57 113.5t37.5 74q12 24 29 24q16 0 16 -15q0 -3 -3 -52.5t-7.5 -136t-9.5 -201.5t-8.5 -249t-5.5 -277q7 -13 -2.5 -31t-25.5 -18z" />
    <glyph glyph-name="N" unicode="N" horiz-adv-x="649" 
d="M468 -11q-13 0 -23.5 18.5t-18.5 46.5t-15 54q-7 29 -21.5 83t-32.5 123t-37.5 145t-38.5 149t-34.5 135l-25.5 102q-19 -88 -41 -195t-46 -220.5t-48 -221.5t-45 -198q-5 -20 -26 -20t-21 18q0 3 8.5 39.5t25.5 106.5q6 26 18 82t27.5 129.5t32.5 154t33.5 157.5
t29.5 140t21.5 101.5t9.5 40.5q3 10 15 10q11 0 17 -7t10 -24q5 -23 16.5 -72t28 -114.5t36 -141t40 -153.5t40 -150t35.5 -131.5t27 -98.5q4 24 13.5 75.5t22.5 121t28 149t30.5 159.5t29 152t24 127.5t15.5 85.5q4 11 15 17.5t20 6.5t9.5 -6t0.5 -18q-21 -104 -44 -222.5
t-45.5 -238t-42 -230t-34.5 -198.5q-6 -29 -11 -49t-28 -20z" />
    <glyph glyph-name="O" unicode="O" horiz-adv-x="661" 
d="M226 -22q-178 0 -178 317q0 86 14.5 171t41.5 161t65.5 135t87.5 92.5t106 33.5q58 0 105 -40q21 -21 11 -34.5t-41 0.5q-44 25 -90 25q-40 0 -74.5 -27t-63 -72t-50 -101t-37 -115t-23 -113t-7.5 -95q0 -148 34 -220t108 -72q61 0 112.5 38t91.5 101t68.5 139t44.5 152
q14 64 20.5 135t-1 139.5t-34.5 123.5q-29 56 -72 68q-15 5 -37 8.5t-38.5 9t-16.5 15.5q0 19 25 22q74 0 118.5 -31.5t67 -83.5t30.5 -113.5t8 -121.5q0 -107 -29 -221.5t-82 -212.5q-53 -97 -126 -155t-159 -58z" />
    <glyph glyph-name="P" unicode="P" horiz-adv-x="561" 
d="M71 -5q-15 0 -18 21q6 38 17 91.5t23.5 110t22.5 104t15 73.5q-85 27 -85 49q0 12 8.5 18t17.5 6q10 0 26 -5.5t29.5 -11t13.5 -6.5l100 469q-44 -13 -65 -51q-9 -12 -23 -12q-18 0 -18 17q0 12 14 31t41 37.5t66 25.5q11 20 25 20t17 -15q72 0 127 -32.5t85.5 -87
t30.5 -121.5q0 -93 -26 -158t-68.5 -106.5t-92 -61.5t-97.5 -23t-84 7q-2 -12 -9 -46.5t-17 -80.5t-20 -93.5t-17.5 -85.5t-10.5 -55q-2 -12 -11 -20t-17 -8zM183 430q39 -9 83 -5t86.5 24t76.5 58q70 80 70 195q0 60 -25.5 110t-73 80t-112.5 30z" />
    <glyph glyph-name="Q" unicode="Q" horiz-adv-x="666" 
d="M772 -360q-107 0 -211.5 36t-208 117t-208.5 215q-33 28 -53.5 73t-30 98t-9.5 104q0 107 15 205t46.5 179t78.5 136q84 97 204 97q17 0 35 -3t30.5 -9t12.5 -16q0 -7 -8.5 -14.5t-18.5 -7.5q-6 0 -20 3.5t-27 7t-18 3.5q-87 0 -153 -87q-93 -120 -120 -348
q-5 -44 -7.5 -98.5t2 -108.5t19.5 -99t46 -72.5t81 -27.5q73 0 146 73q140 141 189 387q11 49 15.5 109.5t-0.5 121.5t-23.5 112t-53 82t-89.5 31q-19 0 -37.5 -2.5t-35.5 -7.5q-20 3 -20 17q0 38 93 38q46 0 85.5 -25t68.5 -65.5t45.5 -88.5t16.5 -95q0 -123 -21.5 -239.5
t-64 -215.5t-105.5 -171q-40 -46 -80 -69t-74.5 -30t-57.5 -5.5t-29 3.5q133 -150 272.5 -223.5t287.5 -73.5q81 0 168.5 13.5t187.5 32.5q24 0 24 -15q0 -8 -6.5 -17t-17.5 -13q-103 -19 -193.5 -33t-167.5 -14z" />
    <glyph glyph-name="R" unicode="R" horiz-adv-x="507" 
d="M391 -37q-63 0 -112 65t-67 179q-24 110 -24 249q0 30 17 30q8 0 29 -9t41 -9q38 0 78.5 21.5t70.5 57.5q62 77 62 182q0 55 -18 99t-50.5 70.5t-75.5 26.5q-49 0 -78 -8l-184 -902q-6 -17 -28 -17q-23 0 -23 16l7 35t19.5 95t28.5 136t33.5 160t35.5 167.5t34 157.5
t28 129q-24 -8 -35.5 -20.5t-19.5 -22t-24 -8.5q-13 6 -13 20q0 28 31.5 51t79.5 35q8 23 17 32.5t16 9.5q5 0 8.5 -8.5t-4.5 -24.5q76 11 133.5 -13t90 -79.5t32.5 -141.5t-34.5 -155t-99 -108.5t-156.5 -39.5q0 -85 11 -160t32 -132t52.5 -89t71.5 -32q35 0 57 10.5
t44 23.5q7 11 16.5 6t13 -17t-7.5 -23q-28 -21 -59.5 -33t-76.5 -12z" />
    <glyph glyph-name="S" unicode="S" horiz-adv-x="618" 
d="M244 -11q-68 0 -125 22.5t-91.5 66.5t-34.5 107q0 95 57 164q8 10 21 24t26 24.5t22 10.5q18 0 19 -12.5t-4 -18.5q-50 -46 -71.5 -87.5t-21.5 -90.5q0 -60 29.5 -96.5t77 -53t101.5 -16.5q59 0 102 30.5t66 80t23 106.5q0 88 -81 275q-81 189 -81 263q0 49 15.5 89.5
t47.5 65t80 24.5q44 0 74 -17t48.5 -41.5t27 -47.5t8.5 -35q0 -10 -8.5 -17.5t-17.5 -7.5q-15 0 -18 18q-7 44 -37 75t-77 31t-71 -33t-24 -77q0 -59 16.5 -116.5t40.5 -113.5l48 -112t40.5 -112.5t16.5 -115.5q0 -44 -13 -89t-42 -83t-75.5 -61t-113.5 -23z" />
    <glyph glyph-name="T" unicode="T" horiz-adv-x="655" 
d="M188 -38q-17 0 -19 21q5 38 15.5 100t25 138.5t31 160t33 165t31.5 153.5t27 126.5t18 82.5q-79 2 -139 2.5t-112 -2.5q-21 3 -21 17q0 28 51 31q7 1 14 1h14l205 -4q14 42 38 42q26 0 18 -42q8 1 34 2.5t61 3t71.5 3.5t66.5 3t46 1q17 -5 17 -17q0 -30 -49 -30
q-22 0 -59 -1.5t-77.5 -3.5t-76 -4t-54.5 -2q-20 -100 -38.5 -185.5t-36 -166t-35 -165.5t-35.5 -183t-38 -219q-3 -12 -11 -20t-16 -8z" />
    <glyph glyph-name="U" unicode="U" horiz-adv-x="639" 
d="M232 -10q-54 0 -95.5 26t-64.5 70t-23 96q0 9 6.5 53t18.5 111.5t27 148t31.5 163.5t33.5 158t32 130q2 8 9 11.5t13 3.5q21 0 21 -17q-11 -43 -26.5 -111.5t-32.5 -149.5t-33 -163.5t-29 -155t-21 -123.5t-8 -69q0 -58 37.5 -97t104.5 -39q86 0 133.5 40.5t67.5 98.5
q47 142 76.5 270.5t54 247t57.5 229.5q5 18 15.5 28.5t19.5 10.5q18 0 18 -17q0 -7 -15.5 -51t-32.5 -115q-13 -55 -28 -125.5t-32 -147t-35 -150.5t-38 -135.5t-42 -101.5q-68 -128 -220 -128z" />
    <glyph glyph-name="V" unicode="V" horiz-adv-x="640" 
d="M211 -2q-4 28 -8 61t-8 71q-6 52 -17 129t-24.5 167t-27.5 183t-26 179t-21 153q3 10 11.5 17t15.5 7q14 0 19 -17q7 -68 19 -156.5t27 -186.5t30 -195.5t28 -185t21 -154.5q174 274 243 479q18 53 29 92.5t16 73.5t5 69t-4 79.5t-11 105.5q0 13 8.5 22t17.5 9
q17 0 20 -17q15 -94 12.5 -180.5t-22.5 -172.5t-58.5 -178.5t-94.5 -197.5q-39 -71 -79 -134.5t-83 -119.5q-14 -17 -23.5 -16t-14.5 14z" />
    <glyph glyph-name="W" unicode="W" horiz-adv-x="834" 
d="M188 -15q-8 0 -14.5 8.5t-6.5 23.5q0 94 -6 179.5t-14 155.5t-14 116q-6 47 -14.5 116t-14.5 152.5t-6 173.5q0 31 12 40q17 11 26.5 8.5t9.5 -17.5l-5 -62q0 -24 4 -89t13 -164t25 -226q27 -214 33 -330q27 63 48 110t38 87t32.5 81t31.5 89.5t34.5 113.5t41.5 153
q-1 31 -2 71t1 79.5t9 65.5q11 33 33 33q17 0 23 -26t4 -66t-8 -82.5t-14 -75.5q1 -41 1 -104t1.5 -137t7.5 -149t18 -141.5t33 -113.5q114 221 180 412.5t66 370.5q0 34 -7.5 67.5t-22.5 56t-38 22.5q-11 0 -24 -4t-27 -14l-15 -46q-11 -20 -29 -20q-19 0 -15.5 19.5
t9.5 39.5q20 69 106 69q25 0 45.5 -16.5t35 -42t22.5 -53t8 -49.5q0 -196 -62.5 -402.5t-186.5 -424.5q-33 -53 -55 -53t-51 102q-22 82 -33 194.5t-11 257.5q-14 -50 -33.5 -110t-42.5 -123t-47 -121t-48 -104.5t-45.5 -73.5t-39.5 -27z" />
    <glyph glyph-name="X" unicode="X" horiz-adv-x="628" 
d="M498 -28q-12 0 -17 6q-12 49 -22 80.5t-19 56t-19 50.5t-23.5 62.5t-31.5 93t-43 141.5q-42 -61 -86 -126.5t-86 -127.5t-78 -112t-61.5 -79.5t-35.5 -29.5q-32 0 -32 24q20 26 51 69t68.5 96t77.5 109.5t77 110.5q22 32 44 64.5t44 64.5q-1 3 -9.5 33t-21.5 75.5
t-27 95.5t-26.5 93.5t-20 70.5t-7.5 25q-15 0 -15 17q0 22 16 34t32 8q4 -3 16 -36q6 -17 16.5 -53.5t23 -82t24.5 -91t21.5 -82t14.5 -54.5q79 113 146 199.5t122 147.5q29 32 54 42.5t25 -15.5q0 -8 -13 -24q-36 -44 -60 -72.5t-41.5 -49.5t-34.5 -43t-39.5 -52t-56.5 -77
t-85 -119q105 -384 169 -508q0 -14 -10 -24.5t-21 -10.5z" />
    <glyph glyph-name="Y" unicode="Y" horiz-adv-x="478" 
d="M135 -4q-7 2 -10 11t0 22q16 54 24.5 90t14 65.5t10 63t12.5 81.5q-43 55 -111 440q-8 49 -14.5 91t-11.5 76q0 13 7.5 22.5t18.5 9.5q14 0 22.5 -10t-1.5 -27l12 -89q44 -321 100 -462q12 25 30.5 70.5t43.5 112.5q34 88 65.5 158.5t66 128.5t76.5 109q6 8 17 8
q20 0 20 -17q0 -11 -27.5 -50t-67.5 -106.5t-79 -165.5q-11 -29 -26 -68t-34 -88q-18 -49 -32 -82t-22 -50q-15 -57 -22 -88t-10 -46t-4.5 -26t-5 -27t-12 -48t-24.5 -92q-6 -21 -26 -17z" />
    <glyph glyph-name="Z" unicode="Z" horiz-adv-x="572" 
d="M566 -248q-49 0 -103.5 19.5t-106.5 49.5t-94.5 64t-68.5 62q-17 19 -37.5 39t-44.5 33.5t-52 13.5q-17 0 -32.5 -9.5t-30 -18.5t-27.5 -9q-18 0 -18 18q0 6 13.5 28t35.5 53t47.5 65.5t49.5 67.5q38 51 77 105t79 109q99 139 178 259.5t137 223.5q-55 -4 -122.5 -7
t-134 -4.5t-121.5 0t-84 5.5q-14 5 -14 19q0 26 30 26q83 -2 136.5 -3.5t87 -2t55 0t40 2.5t43.5 5q35 4 62 5.5t47 1.5q41 0 41 -20q0 -7 -24.5 -48.5t-68 -109.5t-101.5 -155t-125.5 -185t-140 -199t-145.5 -197q26 18 56 18q48 0 140 -89q91 -90 180.5 -139t180.5 -49
q62 0 111 20t82 46q9 7 22 18t26.5 20t23.5 9q14 0 14 -16t-24 -37q-35 -30 -81 -54.5t-96 -39t-98 -14.5z" />
    <glyph glyph-name="bracketleft" unicode="[" horiz-adv-x="287" 
d="M0 -309q-17 3 -22 17q5 46 19 127t34.5 186t44.5 224t50.5 242t51.5 239.5t47 215.5q8 16 16.5 18t26.5 1q11 0 36.5 -2.5t50.5 -4.5t36 -3q13 -2 13 -15q0 -21 -18.5 -26.5t-50 -2t-71.5 6.5q-29 -135 -48 -225.5t-31 -147.5t-19.5 -91.5t-12 -56.5t-8.5 -41.5t-9.5 -47
t-14.5 -73t-24 -120t-39 -188.5q-19 -94 -30 -188q11 -6 37.5 -2t58.5 11.5t59.5 14t40.5 6.5t13 -11q-1 -8 -9 -18.5t-24 -15.5q-31 -8 -67 -18t-71 -14.5t-66 3.5z" />
    <glyph glyph-name="backslash" unicode="\" horiz-adv-x="398" 
d="M487 -450q-20 3 -30.5 15.5t-18.5 30.5q-7 18 -12.5 39.5t-9.5 42.5q-2 11 -4 20.5t-4 18.5t-6.5 23.5t-12.5 33.5q-15 41 -45 105q-12 26 -31.5 70t-43 96.5t-47 108t-44.5 105.5t-36 87l-90 224q-7 19 -20.5 52t-31.5 80q-36 95 -64 169t-40 101q-11 28 -11 31
q0 17 19 17t26 -19q24 -60 66 -166t101 -259q59 -152 106 -267t82 -192q46 -103 84.5 -189.5t64 -149.5t30.5 -94q2 -8 3.5 -18t3.5 -23q5 -29 16 -50q18 -10 18 -27q0 -16 -18 -16z" />
    <glyph glyph-name="bracketright" unicode="]" horiz-adv-x="287" 
d="M292 962q17 -3 22 -17q-5 -46 -19 -127t-34.5 -186t-44.5 -224t-50.5 -242t-51.5 -239.5t-47 -215.5q-7 -16 -16 -18t-27 -1q-11 1 -36 3t-50.5 4.5t-36.5 2.5q-13 2 -13 15q0 22 18.5 27t50.5 2t71 -7q29 135 48 225.5t31 147.5t19.5 91.5t12 56.5t8.5 41.5t9.5 47
t14.5 73t24.5 120t38.5 188.5q19 94 30 188q-11 6 -37.5 2t-58.5 -11.5t-59.5 -14t-40.5 -6.5t-13 11q2 8 9.5 19t23.5 15q32 8 67.5 18t71 14.5t65.5 -3.5z" />
    <glyph glyph-name="asciicircum" unicode="^" horiz-adv-x="685" 
d="M547 704q-33 13 -59 43.5t-48 76.5q-6 13 -11.5 25.5t-10.5 25.5q-5 14 -10 26.5t-11 24.5t-9.5 25t-5.5 26l-30 -32q-12 -13 -24 -27t-25 -29q-50 -59 -94 -98t-85 -50q-3 -1 -5.5 -1.5t-5.5 -0.5q-13 0 -13 12q0 22 29 34q30 13 85.5 63.5t131.5 144.5q9 11 17 20.5
t15 16.5l20 22l7 9q8 9 22 9q15 0 15 -13v-5t-2 -6l-10 -20q-1 -2 -1 -5q3 -11 6 -23t7 -25q6 -18 13.5 -45.5t19.5 -57.5t29 -56q33 -51 73 -66q8 -5 8 -15q0 -9 -12 -19t-26 -10z" />
    <glyph glyph-name="underscore" unicode="_" horiz-adv-x="652" 
d="M86 -42q-95 0 -95 23q0 14 9.5 22.5t22.5 8.5q16 0 32 -4q9 -2 19.5 -3t20.5 -1h22t23 1q11 1 29 2t41 2t72.5 1h124.5q150 0 235 6q17 -5 17 -17q0 -9 -7 -17.5t-17 -11.5q-38 -2 -92 -3.5t-125 -1.5z" />
    <glyph glyph-name="grave" unicode="`" horiz-adv-x="277" 
d="M169 1031q-10 0 -17 7q-40 53 -58.5 86t-28.5 67q0 13 8.5 22t17.5 9q15 0 20 -17q8 -28 24 -55.5t55 -77.5q2 -3 3 -6t1 -8q0 -10 -8 -18.5t-17 -8.5z" />
    <glyph glyph-name="a" unicode="a" horiz-adv-x="449" 
d="M355 -2q-23 0 -42.5 24.5t-19.5 52.5q0 62 33 210q-21 -43 -49.5 -86.5t-58 -81t-54 -63.5t-36.5 -35q-25 -19 -55 -19q-57 0 -57 72q0 36 14.5 81.5t39 94.5t57 95.5t68.5 84.5q73 76 118 76q46 0 52 -40q3 -12 3 -26q5 3 11 3q23 0 23 -22v-4q0 -2 -12 -44
q-6 -21 -13.5 -59t-14.5 -83t-11.5 -89.5t-4.5 -79.5l5 -2.5t5 -3.5q6 -4 15 -11.5t9 -18.5q0 -10 -6.5 -18t-18.5 -8zM81 52q11 0 18 7q102 87 181 241q23 42 33.5 64t14 34t3.5 25q0 10 -5 18t-13 8q-9 0 -26 -9q-25 -13 -59 -48.5t-67.5 -83.5t-57.5 -101
q-37 -77 -37 -137q0 -18 15 -18z" />
    <glyph glyph-name="b" unicode="b" horiz-adv-x="393" 
d="M165 -10q-30 0 -50.5 19t-30.5 50t-10 67q0 54 7.5 104t16.5 105q9 56 17 102t15 85q4 20 8 38.5t8 37.5q3 19 9.5 52t16.5 79q11 47 21 101t20 114q7 16 20 16q26 0 26 -22l-2 -7q-13 -85 -27 -161.5t-29 -144.5q-15 -67 -28.5 -128.5t-24.5 -117.5q31 56 62.5 90
t70.5 34q40 0 61 -30t21 -64q0 -48 -10 -110t-29 -122t-46 -104q-50 -83 -113 -83zM165 41q36 0 72 60q25 40 41.5 90t26.5 109q2 17 3.5 35t1.5 37q0 38 -6.5 60t-28.5 22q-16 0 -38.5 -20.5t-45 -54t-39 -72.5t-20.5 -75t-5.5 -62.5t-1.5 -43.5q0 -85 40 -85z" />
    <glyph glyph-name="c" unicode="c" horiz-adv-x="335" 
d="M129 -12q-34 0 -57 17.5t-34.5 45t-11.5 58.5q0 59 14.5 121t41.5 119t62 99q53 63 112 63q43 0 56 -31q2 -4 4 -9t5 -12q5 -14 10 -16q2 -4 3 -7t1 -8q0 -9 -8 -17t-19 -8q-21 0 -27 31t-33 31q-25 0 -51.5 -26.5t-50.5 -70.5t-43 -99q-28 -80 -28 -143q0 -89 65 -89
q33 0 61 31q11 12 20 22t19 10q19 0 19 -17q0 -21 -18.5 -43t-48 -37t-63.5 -15z" />
    <glyph glyph-name="d" unicode="d" horiz-adv-x="439" 
d="M285 -18q-8 0 -15.5 14.5t-11.5 33.5t-4 33q0 20 6 47q-20 -61 -52 -90t-83 -29q-34 0 -55 20t-30.5 49t-9.5 56q0 149 56 253q18 32 32.5 52t30 34.5t36.5 28.5q32 21 78 21t67 -45q15 64 24 103.5t14.5 64.5t10 45.5t10 46t13.5 66.5l6.5 32.5t10 47.5t9 43t3.5 19
q0 13 8.5 22t18.5 9q21 0 21 -23v-4q0 -12 -8.5 -57.5t-25.5 -124.5q-35 -161 -45 -223q-10 -64 -39 -180q-22 -87 -40 -159.5t-17 -121.5q0 -27 9 -56q-1 -12 -10.5 -20t-17.5 -8zM134 40q14 0 35.5 22t45 58.5t44.5 82.5t34 94.5t13 92.5q0 25 -14.5 49t-41.5 24
q-32 0 -60.5 -28t-51.5 -73.5t-39 -99.5q-24 -81 -24 -136q0 -34 14 -60t45 -26z" />
    <glyph glyph-name="e" unicode="e" horiz-adv-x="324" 
d="M133 -10q-34 0 -51 11.5t-28 31.5q-21 39 -21 94q0 98 29.5 184t78.5 144q48 56 105 56q31 0 48 -25t17 -59q0 -64 -33.5 -108.5t-82.5 -72.5q-24 -14 -52 -27.5t-60 -26.5l-2 -72q0 -84 51 -84q27 0 50 11.5t41 23t30 11.5q17 0 17 -18q0 -10 -14.5 -23t-36.5 -24.5
t-45.5 -19t-40.5 -7.5zM91 240q59 24 97.5 46t57.5 54t19 85q0 39 -33 39q-29 0 -68 -53q-41 -53 -66 -139q-3 -10 -5 -18t-2 -14z" />
    <glyph glyph-name="f" unicode="f" horiz-adv-x="342" 
d="M-215 -411q-28 0 -61 8t-62.5 21t-48.5 28.5t-19 29.5q0 9 9 15.5t26 5.5q37 -26 61 -39t46 -17t53 -4q63 0 107.5 27t74 72t48.5 100q12 34 24.5 94.5t24.5 133.5t23 147.5t20.5 139t15.5 105.5l-93 -2q-20 2 -20 18q0 14 9.5 20t36.5 7t77 1q20 81 41 146.5t48.5 111.5
t68 71t99.5 25q83 0 83 -30q0 -15 -20 -29q-20 4 -39.5 4.5t-40.5 0.5q-48 0 -87 -39.5t-65 -107.5t-39 -153l127 -1q28 0 28 -19q0 -24 -48 -26h-19h-36.5h-38h-23.5q-10 -53 -21 -123t-22 -143.5t-20.5 -138.5t-16.5 -108q-35 -214 -139 -299q-63 -53 -172 -53z" />
    <glyph glyph-name="g" unicode="g" horiz-adv-x="380" 
d="M67 -410q-48 0 -80.5 32.5t-32.5 86.5q0 52 27 90.5t66 69t76 57.5q28 20 49.5 37t37.5 30q1 4 5 22.5t9.5 44t11.5 50.5t10 42.5t5 20.5q-17 -49 -40 -90t-49.5 -65t-53.5 -24q-37 0 -57.5 27t-20.5 73q0 57 14.5 119.5t41.5 121.5t65 105q56 69 124 69q17 0 32.5 -4
t28.5 -12q6 3 13 3q16 0 16 -16q0 -13 -6.5 -34t-11.5 -38q-7 -25 -19 -75.5t-24 -103.5q-1 -4 -5.5 -24.5t-10.5 -48.5t-12 -56.5t-10.5 -49t-5.5 -24.5q18 12 35 27.5t31 27t23 11.5q18 0 18 -17q0 -12 -8 -20q-31 -24 -57 -43t-48 -35l-29 -147q-29 -149 -75 -200
q-36 -40 -83 -40zM112 40q22 0 49 29t52.5 78t42.5 107q13 44 22.5 77.5t16.5 58.5q14 48 18 66q-14 13 -39 13q-29 0 -60 -26.5t-59 -72t-49 -102.5q-31 -86 -31 -157t37 -71zM65 -360q38 0 60.5 30t36.5 80t25 110l15 79q-36 -30 -72 -57q-24 -18 -53.5 -44t-51.5 -59.5
t-22 -74.5q0 -33 17 -48.5t45 -15.5z" />
    <glyph glyph-name="h" unicode="h" horiz-adv-x="468" 
d="M57 -8q-17 0 -17 17q0 8 24.5 124.5t73.5 340.5q10 46 22 105t24.5 120.5t23 115.5t18 90.5t8.5 44.5q5 15 17 15q26 0 32 -25q-1 -5 -7 -36t-16 -78.5t-21 -101.5t-22 -106.5t-19.5 -93t-12.5 -59.5q-11 -52 -20.5 -96t-17.5 -79q102 210 193 210q37 0 55 -29t18 -64
q0 -37 -13 -98l-16 -84q-13 -70 -20.5 -110.5t-7.5 -54.5l2 -39q0 -28 -31 -28q-16 0 -23 13t-3 33l58 325q3 15 3 36q0 50 -28 50q-21 0 -46.5 -24t-52 -61.5t-49 -77t-38.5 -72t-21 -46.5q-7 -23 -15 -52t-13.5 -52.5t-5.5 -32.5q1 -24 -4.5 -32t-31.5 -8z" />
    <glyph glyph-name="i" unicode="i" horiz-adv-x="214" 
d="M65 -10q-34 0 -34 55q0 5 1 11.5t4 13.5q2 8 4.5 17t4.5 22q3 12 7 28.5t8 38.5q5 21 10 43t10 45t11 50.5t13 59.5t10.5 49.5t3.5 20.5v10q0 8 -7 33q0 12 8.5 22t20.5 10q11 0 19 -15t8 -33q0 -20 -46 -216t-46 -208q0 -11 10 -11q5 0 18 13q12 12 20 12q16 0 16 -20
q0 -13 -14.5 -25t-32.5 -19t-27 -7zM166 594q-16 0 -24 4h-4q-29 0 -29 34q0 17 14.5 31t31.5 14t32 -12q17 -17 17 -33t-12 -27t-26 -11z" />
    <glyph glyph-name="j" unicode="j" horiz-adv-x="201" 
d="M-233 -414q-55 0 -90 19q-11 6 -11 15t7.5 18t17.5 11q16 -6 37.5 -9.5t47.5 -3.5q56 0 99 32t76.5 87t57.5 126.5t42 151.5t30.5 161t22 156t17.5 135q3 11 11.5 17t16.5 6q17 0 17 -18l-21 -150q-19 -129 -34 -235t-34.5 -190.5t-53.5 -149.5q-46 -89 -105.5 -134
t-150.5 -45zM161 594q-16 0 -24 4h-4q-29 0 -29 34q0 17 14.5 31t31.5 14t32 -12q17 -17 17 -33t-12 -27t-26 -11z" />
    <glyph glyph-name="k" unicode="k" horiz-adv-x="436" 
d="M60 -12q-12 0 -20 4.5t-8 9.5q0 20 12 75.5t34 146.5q45 191 78.5 336t53.5 264q10 60 17 100t20 40q32 0 32 -33q0 -6 -3 -23t-8 -44q-9 -41 -14 -64.5t-8 -39.5t-6.5 -33.5t-9.5 -45t-17 -75.5q-11 -52 -18.5 -87t-11.5 -52q40 43 81 43q40 0 55 -27.5t15 -59.5
q0 -58 -41.5 -103t-125.5 -95q9 -50 35 -93t60.5 -69t69.5 -26q25 0 33.5 16.5t12.5 30.5q6 14 16 14q26 0 26 -33q0 -20 -17 -38q-33 -37 -67 -37q-57 0 -101 36.5t-72 88.5q-14 26 -20.5 49t-9.5 41l-7 -5q-1 -13 -6.5 -37.5t-15.5 -60.5q-9 -37 -14 -59t-7 -30
q-4 -25 -23 -25zM131 246q5 5 18 12q14 8 44.5 29t59.5 55q30 35 30 78q0 44 -30 44q-38 0 -65.5 -34t-40.5 -103q-1 -7 -4.5 -22.5t-11.5 -58.5z" />
    <glyph glyph-name="l" unicode="l" horiz-adv-x="261" 
d="M118 -8q-37 0 -55 20t-18 49t3.5 53t10.5 67q8 43 18 97t23 115q6 31 12.5 62.5t13.5 63.5q10 46 21.5 102t23.5 112t22.5 104.5t17 79t7.5 33.5q5 16 22 16q21 0 21 -23q-5 -30 -7 -43.5t-3.5 -21t-4 -18.5t-7.5 -35.5t-15 -72.5q-6 -29 -16 -76t-22.5 -105t-25 -118.5
t-24 -117t-20.5 -101.5t-13 -70q-7 -37 -10 -59.5t-3 -30.5q0 -15 9 -27t22 -12t23 4.5t20 8.5q5 2 9 4.5t8 4.5q8 4 10 4q22 0 22 -22t-29 -34.5t-66 -12.5z" />
    <glyph glyph-name="m" unicode="m" horiz-adv-x="688" 
d="M64 -14q-10 0 -17 4t-7 10q4 12 7.5 26.5t6.5 31.5t7 32.5t9 29.5q21 83 38 171t30 180q1 5 1.5 9t1.5 8q0 7 14 23q9 4 15 4q13 0 18 -17v-8q-1 -35 -6.5 -74t-15.5 -81l-25 -105q5 11 11 24t13 28q52 122 100 176q45 51 100 51q30 0 49 -24.5t19 -56.5v-8q-1 -3 -1 -8
q54 66 113 90q19 8 37 8t34.5 -17.5t16.5 -46.5t-6 -63t-16 -68q-5 -17 -10.5 -34.5t-11.5 -34.5q-8 -23 -20 -60t-21.5 -73.5t-11.5 -58.5q-2 -16 -3 -26t-3 -13q-2 -7 -8.5 -15.5t-18.5 -8.5q-23 0 -23 49q0 30 11 66q6 18 10.5 33t8.5 28q3 12 8 26.5t11 31.5
q12 35 30 90.5t24 118.5q0 20 -5 24t-18 4t-40 -17t-54 -49q-31 -35 -53.5 -79t-38.5 -97q-4 -16 -8 -29t-9 -24q-5 -15 -12.5 -38t-15.5 -47.5t-13 -44.5q-8 -32 -13 -38q-6 -8 -18 -8q-23 0 -25 25q11 82 34.5 145t38.5 100q15 38 28.5 84t13.5 80t-21 34q-19 0 -41 -20.5
t-45 -53.5t-44 -71.5t-38 -75t-28.5 -64t-15.5 -38.5q-6 -16 -10 -28.5t-7 -20.5q-32 -101 -61 -101z" />
    <glyph glyph-name="n" unicode="n" horiz-adv-x="446" 
d="M311 -6q-32 0 -28 27l49 292q9 54 9 83q0 48 -27 48q-15 0 -36.5 -27.5t-45.5 -71.5t-48 -94.5t-44 -96.5t-33 -77.5t-16 -37.5q-18 -39 -36 -39q-10 0 -12.5 5.5t-2.5 18.5q0 5 5.5 38.5t14.5 84.5t19.5 107t20 106.5t16.5 84t9 37.5q6 12 10.5 15t17.5 3t20 -9.5
t7 -17.5q0 -13 -18.5 -68.5t-38.5 -168.5l-10 -59q5 11 11.5 25.5t13.5 30.5q10 22 25.5 58t36 75.5t42.5 71.5q44 63 82 63q67 0 67 -108q0 -40 -13 -100.5t-24 -132.5q-6 -40 -11.5 -78.5t-12.5 -63t-19 -24.5z" />
    <glyph glyph-name="o" unicode="o" horiz-adv-x="381" 
d="M133 -9q-37 0 -59.5 20.5t-33 52.5t-10.5 66q0 91 30.5 176.5t83.5 141.5q51 57 115 57q92 0 92 -140q0 -54 -13.5 -109t-36.5 -104t-51 -86t-57 -56q-30 -19 -60 -19zM141 36q21 0 45.5 25t48 67.5t40.5 95.5q27 80 27 136q0 58 -7 72q-6 15 -14.5 21t-28.5 6
q-21 0 -44 -16q-46 -29 -80 -100q-53 -106 -53 -206q0 -68 39 -94q6 -3 12.5 -5t14.5 -2z" />
    <glyph glyph-name="p" unicode="p" horiz-adv-x="418" 
d="M-26 -410q-15 0 -17 20q17 63 29.5 120.5t22.5 107.5q10 51 17.5 90t12.5 67t12.5 67t17.5 90t25 131t37 189v22q0 10 9 19t21 9t17.5 -9.5t5.5 -17.5q0 -9 -1.5 -15.5t-3.5 -13.5q-1 -3 -1.5 -6t-2.5 -7q-2 -8 -2 -11l-14 -72q72 137 154 137q44 0 63 -26t19 -76
q0 -61 -11.5 -125t-35 -122.5t-58.5 -103.5q-52 -67 -124 -67q-28 0 -44 11.5t-27 39.5q-12 -57 -24 -113t-23 -112t-22.5 -107t-23.5 -96q-9 -20 -28 -20zM173 34q52 0 97 66q56 85 74 223q2 20 3.5 38.5t1.5 35.5q0 65 -32 65t-73 -46q-39 -43 -67.5 -99t-44.5 -110.5
t-16 -95.5q0 -77 57 -77z" />
    <glyph glyph-name="q" unicode="q" horiz-adv-x="373" 
d="M152 -412q-7 0 -13.5 4.5t-6.5 11.5q0 6 6 33q2 14 5.5 30.5t6.5 35.5q3 13 10 47.5t16.5 81.5t20 97t20 95t15.5 76t8 38q-5 -7 -9 -14t-8 -15q-8 -16 -24.5 -44.5t-39.5 -50.5q-25 -22 -58 -22q-34 0 -52.5 29t-18.5 67q0 57 8.5 119t25.5 120.5t44 101.5q51 81 126 81
q29 0 51.5 -19.5t35 -52t12.5 -71.5q-2 -10 -10 -24q-1 -29 -20 -132t-57 -281q-7 -29 -13 -59t-13 -62t-17.5 -82.5t-25.5 -118.5q-6 -20 -25 -20zM106 41q14 0 34.5 25.5t42 64t41 79.5t32 74t13.5 46q1 5 1.5 14t1.5 19q1 11 2.5 19.5t5.5 14.5l3 3q-14 64 -49 64
q-29 0 -53.5 -24.5t-44 -64t-33 -87t-21 -94t-7.5 -84.5q0 -69 31 -69z" />
    <glyph glyph-name="r" unicode="r" horiz-adv-x="355" 
d="M54 -16q-14 0 -14 18l23 119q3 18 11 57t17.5 86.5t18.5 93t15.5 77.5t7.5 37q7 42 29 42q10 0 15.5 -4.5t5.5 -18.5t-3.5 -30.5t-10.5 -39.5q-4 -15 -7.5 -28.5t-8.5 -32t-14 -50.5q27 60 51 96.5t60 70.5q34 29 68 29q26 0 42.5 -10.5t16.5 -24.5q0 -16 -15 -21.5
t-30 1.5q-12 8 -24.5 4t-29.5 -17q-43 -31 -72 -77t-49 -99t-33.5 -105t-24.5 -94q-15 -79 -45 -79z" />
    <glyph glyph-name="s" unicode="s" horiz-adv-x="309" 
d="M117 -3q-37 0 -62 25t-25 52q0 14 8 19t17 6q10 0 16 -7.5t12 -17.5q5 -9 11 -17t22 -8q34 0 53.5 21t19.5 46q0 32 -13 65t-36 76q-25 46 -37.5 82t-12.5 61q0 52 26 84.5t73 32.5q20 0 40.5 -8t35 -22t14.5 -33q0 -29 -24 -29q-9 0 -14.5 7t-11.5 14q-18 21 -40 21
q-49 0 -49 -57q0 -34 14.5 -70.5t33 -73t33 -72.5t14.5 -69q0 -50 -30.5 -85.5t-87.5 -42.5z" />
    <glyph glyph-name="t" unicode="t" horiz-adv-x="316" 
d="M129 -4q-32 0 -51 17t-19 66q0 26 6 60l9 57q5 21 9 39.5t8 34.5t7 29.5t6 25.5q2 12 6 27.5t8 34.5q5 20 8 38t7 35q-21 0 -39 -1.5t-33 -3.5q-20 3 -20 17q0 9 7.5 18.5t19.5 10.5l72 -2q2 5 3 11.5t2 13.5q2 14 7.5 42t15.5 50q9 22 26 22q16 0 16 -18v-6
q-7 -31 -13 -59t-11 -55h72q38 0 47 -6q8 -6 8 -15q0 -16 -16 -20.5t-48 -4.5t-71 3q-4 -25 -14.5 -70t-26.5 -113q-16 -67 -24 -109.5t-8 -62.5q0 -39 9 -51q5 -8 21 -8q15 0 26 9t20 19q8 11 17 19.5t19 8.5q20 0 20 -20q0 -7 -9.5 -20.5t-23 -27t-25.5 -22.5
q-16 -13 -50 -13z" />
    <glyph glyph-name="u" unicode="u" horiz-adv-x="425" 
d="M292 -24q-30 0 -30 80q0 56 12.5 115t24.5 115q-10 -20 -20 -41t-20 -43q-12 -24 -30 -59t-40.5 -70t-46.5 -58t-48 -23q-54 0 -54 107q0 68 11 146t32 165l16 61q9 33 31 33q12 0 17 -17q-3 -28 -12 -62t-19.5 -80.5t-19 -109.5t-10.5 -149q0 -40 13 -40q37 0 130 180
q6 12 19.5 42t32 66.5t37.5 70.5t36.5 56.5t28.5 22.5q17 0 17 -19q0 -11 -10 -39t-22 -59t-18 -52q-18 -62 -28.5 -127.5t-15.5 -134.5q0 -18 4.5 -24.5t9 -10.5t4.5 -15q0 -10 -11.5 -18.5t-20.5 -8.5z" />
    <glyph glyph-name="v" unicode="v" horiz-adv-x="342" 
d="M128 -3q-25 0 -28 21q-9 62 -16 118.5t-12 108.5q-6 51 -13.5 113.5t-17.5 135.5q3 10 11.5 17t15.5 7q14 0 19 -17q5 -49 11 -100.5t13 -104.5q8 -52 14.5 -109t13.5 -117q73 115 117 216.5t44 207.5q0 105 -62 129q-18 7 -32 8q-14 2 -20 5t-6 12q0 21 28 25
q139 -10 139 -171q0 -79 -27 -169t-83 -190q-18 -32 -38.5 -63.5t-43.5 -62.5q-15 -20 -27 -20z" />
    <glyph glyph-name="w" unicode="w" horiz-adv-x="575" 
d="M358 -7q-23 0 -23 40q0 13 0.5 24t-1.5 18q-34 183 -45 276q-13 -28 -29 -71t-34 -91.5t-36.5 -95.5t-35.5 -83q-10 -13 -23 -13q-21 0 -21 41q-16 68 -36 220q-7 59 -15 109t-13 80.5t-5 28.5q0 7 8 16t17 9t16.5 -7.5t11.5 -24.5q2 -8 5 -36t7.5 -67.5t10 -82.5t11 -82
t11.5 -66.5t11 -34.5q11 32 30 81.5t39.5 106t38 109t24.5 89.5q4 19 23 19q11 0 16 -6t6 -17q23 -235 54 -397q36 49 68.5 101.5t54 102.5t23.5 94t-23 75q-5 7 -17.5 13t-23 13t-10.5 16t8.5 17t19.5 9q42 -1 65.5 -41t23.5 -100q0 -73 -39 -150.5t-101 -154.5
q-7 -12 -18 -32.5t-24.5 -37.5t-29.5 -17z" />
    <glyph glyph-name="x" unicode="x" horiz-adv-x="342" 
d="M255 -8q-11 0 -16 16q-1 8 -3.5 16t-6.5 16q-8 12 -18 40q-4 13 -10 28.5t-14 33.5q-7 18 -15 37t-16 39l-137 -210q-9 -15 -28 -15t-19 16q0 9 9 24q5 7 20 31l40 64q26 41 48.5 76t43.5 66q-1 3 -2.5 7t-3.5 8q-1 5 -4 13.5t-8 21.5q-4 14 -9.5 29.5t-12.5 33.5l-10 30
l-6 18t-4.5 12.5t-4.5 13.5q-1 6 -3 11.5t-3 9.5q-4 8 -4 16q0 5 7.5 13t19.5 8t19 -9.5t11 -22.5q2 -7 4.5 -13.5t3.5 -13.5q2 -13 6 -25.5t9 -26.5q5 -13 9.5 -26.5t10.5 -27.5q2 -7 5 -14.5t6 -15.5q10 12 25.5 33t35.5 50t33 47.5t19 25.5t13 13.5t15 10.5q8 3 14 3
q16 -3 16 -16q0 -12 -5 -22q-4 -7 -10.5 -16.5t-15.5 -20.5q-10 -11 -23.5 -30.5t-32.5 -45.5q-18 -27 -33.5 -48t-28.5 -37q27 -66 43.5 -106.5t20.5 -55.5q9 -29 20 -49q11 -19 11 -39q-1 -10 -10 -17.5t-21 -7.5z" />
    <glyph glyph-name="y" unicode="y" horiz-adv-x="420" 
d="M76 -417q-34 0 -58 17.5t-36.5 43.5t-12.5 49q0 35 9 61t24 48t35.5 40t44.5 35q28 20 40 28.5t16 11t6 3.5t8.5 6t24 18l52.5 39q2 11 11.5 42t25.5 82t25.5 81.5t11.5 40.5q-43 -125 -103 -191q-40 -46 -78 -46q-37 0 -61 30t-24 84q0 84 48 265q24 90 24 97
q-3 14 2 20q14 19 33 19t19 -20q0 -9 -9 -51t-28 -117t-28 -125.5t-9 -75.5q0 -52 13 -65q12 -13 30 -13q38 0 81 64q21 32 39.5 79t33.5 97t25.5 92.5t16.5 64.5q11 45 19 56q8 12 24 12t16 -12q0 -6 -10.5 -57t-32.5 -147t-37 -162.5t-23 -101.5q20 17 35 32t26.5 25.5
t20.5 10.5q19 0 19 -17q0 -9 -8 -20q-54 -48 -104 -86q-14 -78 -29.5 -148t-37 -123.5t-52.5 -84.5t-78 -31zM77 -369q26 0 45.5 21.5t34 54t24.5 65.5q3 9 7.5 28t9.5 37t6 23l13 65q-39 -30 -76 -55q-24 -16 -52.5 -38.5t-48.5 -53.5t-20 -75q0 -40 27 -63q11 -9 30 -9z
" />
    <glyph glyph-name="z" unicode="z" horiz-adv-x="399" 
d="M212 -11q-33 0 -64 11q-30 11 -44.5 16t-28.5 5q-15 0 -37 -13q-23 -14 -31 -14q-14 0 -17 10.5t5 24.5q14 18 41 53.5t61.5 81t70.5 92.5t68 89t54.5 71.5t29.5 38.5l-120 5l-84 -5q-45 0 -45 25q0 24 34 24l42 -3l215 -1q26 0 27 -10v-9q0 -10 -17 -30.5t-34 -43.5
q-36 -49 -67.5 -90.5t-61.5 -81t-61.5 -82t-69.5 -93.5q34 0 53 -6.5t34 -13.5t38 -7q97 0 97 55q0 12 -9 23t-9 24q0 8 8 18t19 10q13 0 21.5 -12t13 -28t4.5 -28q0 -49 -35 -77.5t-101 -28.5z" />
    <glyph glyph-name="braceleft" unicode="{" horiz-adv-x="276" 
d="M67 -297q-51 0 -51 130q0 65 15 152t43 195q6 23 15.5 60t16.5 77q0 6 -8 6l-28 -4q-9 -1 -15.5 3.5t-6.5 13.5q0 10 9.5 18.5t22.5 15.5q5 3 11 5.5t12 5.5q24 11 38 54q11 42 11 86q0 51 0.5 106.5t6.5 109.5t22 100t46 79.5t80 46.5q9 2 19.5 0t10.5 -16
q0 -13 -13 -21.5t-27 -8.5q-35 -6 -53 -38q-28 -49 -31.5 -122.5t-5.5 -154.5q-1 -40 -3.5 -71t-7.5 -53q-10 -43 -21.5 -68.5t-34.5 -45.5q15 -9 15 -40q0 -30 -30 -132q-63 -210 -63 -340q0 -28 3 -49.5t12 -35.5q11 -17 26 -13l23 6q16 5 22 0.5t6 -11.5q0 -11 -14.5 -22
t-34.5 -17.5t-38 -6.5z" />
    <glyph glyph-name="bar" unicode="|" horiz-adv-x="283" 
d="M22 -149q-11 0 -13 14q0 10 17 96t46.5 235t66.5 346q40 213 70 371t52 261q6 10 16 17t18 7q12 0 14 -17q-19 -92 -49.5 -248t-71.5 -375q-17 -91 -34.5 -182.5t-34 -175t-30 -150.5t-21.5 -110.5t-10 -54.5q0 -12 -11.5 -23t-24.5 -11z" />
    <glyph glyph-name="braceright" unicode="}" horiz-adv-x="320" 
d="M-76 -345q-70 0 -120 31q-29 18 -29 30q0 11 11.5 20.5t20.5 9.5q11 0 15 -3q52 -47 118 -47q36 0 59 23t37 62t23.5 88t18.5 101q4 24 10.5 62.5t16.5 82t23 80.5t31 58q-13 10 -13 41q0 30 8 60q3 16 6 29t5 24q4 23 16 59.5t25 72.5q7 17 13.5 35t13.5 37
q9 24 20.5 59t20 77.5t8.5 86.5q0 68 -27 81q-12 5 -26 5l-43 -2q-17 2 -17 12q0 34 83 34q80 0 80 -106q0 -82 -34 -185q-7 -23 -15 -45.5t-16 -44.5q-8 -23 -16 -45.5t-15 -45.5q-34 -102 -34 -181v-9q1 -4 1 -10q12 4 27 4q14 0 14 -15q0 -13 -22 -25q-22 -11 -25 -15
q-14 -15 -25 -64t-25 -132q-14 -88 -28.5 -150t-34 -106.5t-48.5 -80.5q-42 -53 -112 -53z" />
    <glyph glyph-name="asciitilde" unicode="~" horiz-adv-x="735" 
d="M117 379q-15 0 -17 21q4 41 30.5 79.5t65.5 63.5t80 25q13 0 24.5 -2.5t21.5 -7.5q11 -4 36 -18t65 -38q78 -47 100 -47q19 0 32.5 9.5t23.5 37.5q17 47 39 47q17 0 17 -17q0 -3 -1 -6.5t-3 -7.5l-40 -73q-20 -37 -63 -38q-23 0 -54 13t-72 36q-10 6 -23 14.5t-29 18.5
q-31 20 -46 24t-33 4q-28 0 -56.5 -15t-47.5 -40t-21 -55q-1 -12 -10.5 -20t-18.5 -8z" />
    <glyph glyph-name="uni00A0" unicode="&#xa0;" horiz-adv-x="260" 
 />
    <glyph glyph-name="exclamdown" unicode="&#xa1;" horiz-adv-x="198" 
d="M106 395q-16 0 -25 11.5t-9 27.5q0 36 33 61q6 5 16 5q18 0 18 -17v-4q0 -2 -1 -3q20 -8 20 -30t-17.5 -36.5t-34.5 -14.5zM-60 -648q-12 0 -17 17q2 51 12 99q9 48 15 99q18 158 50 334t78 371q4 9 12 14.5t15 5.5q16 0 18 -20q-45 -193 -77 -367.5t-50 -330.5
q-3 -25 -6.5 -50t-8.5 -49q-9 -49 -12 -99q-3 -10 -11.5 -17t-17.5 -7z" />
    <glyph glyph-name="cent" unicode="&#xa2;" horiz-adv-x="339" 
d="M90 -115q-17 0 -17 16q0 11 14 41q8 14 12.5 26t7.5 22q-35 8 -56 43.5t-21 77.5q0 53 12.5 109.5t36 110.5t54.5 97q48 66 101 79q11 26 18 43.5t10 25.5q7 27 32 30q15 0 15 -18q0 -30 -27 -80q27 -6 37 -33q2 -6 4 -10.5t3 -9.5q3 -9 9 -12q2 -4 3 -7t1 -8
q0 -9 -8 -17t-19 -8q-21 0 -27 31t-34 31q-27 0 -55 -26.5t-52.5 -71t-42.5 -98.5q-27 -81 -27 -135q0 -53 26 -81q10 -10 22 -13q10 10 21 10t15 -12q32 5 54 34q9 11 16 19.5t16 8.5q19 0 19 -21q0 -14 -15.5 -32.5t-41 -34.5t-54.5 -21q-18 -66 -45 -96q-7 -10 -17 -10z
" />
    <glyph glyph-name="sterling" unicode="&#xa3;" horiz-adv-x="713" 
d="M53 -15q-39 0 -59 24.5t-20 52.5q0 35 15.5 66.5t43.5 51.5t65 20q23 0 45.5 -5t50.5 -18q10 33 18.5 70.5t17.5 76.5l25 115q-29 10 -53.5 18t-43.5 8q-25 0 -33 -7.5t-12 -15.5t-18 -8q-19 0 -19 18q0 26 26.5 40.5t55.5 14.5q21 0 48 -8.5t57 -19.5q27 142 55.5 244
t64.5 162t85 74q47 13 72 -3.5t36 -50t15 -72.5q-2 -30 -27 -30q-16 0 -19 16q0 34 -5.5 61.5t-19.5 39.5t-40 -1q-39 -20 -66.5 -64.5t-47 -106.5t-34.5 -134.5t-29 -147.5q22 -7 43.5 -11t43.5 -4q27 0 48.5 12t38 23.5t29.5 11.5q16 0 16 -18q0 -16 -20 -32t-50.5 -27
t-64.5 -11q-23 0 -46 4.5t-45 11.5q-13 -73 -28 -142t-36 -126q20 -11 53 -28t71.5 -36t77 -36t70 -27.5t49.5 -10.5q32 0 58 16t40 23t30 7t16 -15t-15 -28.5t-38 -25t-46.5 -18t-41.5 -6.5q-37 0 -83.5 16t-94.5 39.5t-91 47.5t-72 40q-27 -59 -66 -95t-96 -36zM22 72
q0 -18 9.5 -30.5t29.5 -12.5q45 0 73 29t46 77q-23 10 -42.5 15.5t-36.5 5.5q-34 0 -56.5 -26t-22.5 -58z" />
    <glyph glyph-name="currency" unicode="&#xa4;" horiz-adv-x="493" 
d="M382 200q-7 0 -26 15t-38.5 38.5t-31.5 46.5q-29 -20 -70 -20t-77 24q-12 -22 -22 -36.5t-18 -22.5q-16 -15 -22 -15q-18 0 -18 19q0 12 9 30.5t19.5 35t16.5 23.5q-26 38 -26 78t28 84q-26 16 -41 33q-14 16 -18 23q-3 6 -3 14t8 17t18 9q11 0 15 -9q5 -9 12 -15t14 -11
q4 -3 7.5 -6t7.5 -5q4 -3 7 -6t6 -5q43 38 94 38q23 0 37.5 -8t20.5 -12q4 -3 23 -10q5 9 19 22t31 25t32.5 20.5t24.5 8.5q18 0 18 -18q0 -10 -12 -21t-27 -20.5t-26 -16.5q-7 -4 -13.5 -8t-10.5 -8q-7 -5 -12 -8q21 -25 21 -63q0 -61 -28 -110q-1 -8 -6 -13q8 -21 34 -49
q14 -14 24 -24.5t15 -16.5q11 -13 11 -21q0 -9 -8 -17.5t-19 -8.5zM218 329q28 0 51 17t36.5 43.5t13.5 54.5q0 44 -43 57q-12 3 -14 13q-5 4 -10 7l-10 6q-10 5 -24 5q-21 0 -42.5 -15.5t-36 -39.5t-14.5 -50q0 -38 26 -68t67 -30z" />
    <glyph glyph-name="yen" unicode="&#xa5;" horiz-adv-x="430" 
d="M166 -12q-18 5 -11 29q7 25 20 61t24 80.5t12 94.5q-71 -6 -109 -29q-6 -2 -11 -2q-6 0 -11.5 5t-5.5 16q0 22 41 36q20 8 45 12t53 7l3 31q-10 15 -20 44q-84 -1 -97 -14q-9 -6 -17 -6q-18 0 -18 18q0 42 117 49q-45 156 -90 437l-12 79q0 13 7.5 22.5t18.5 9.5
t18.5 -6.5t7.5 -14.5t-5 -16q24 -180 78 -405q8 -35 16 -61.5t15 -43.5h9q5 13 12 28t15 31q19 34 66 151q48 119 90 199t93 129q10 8 19 8q18 0 18 -17q0 -9 -8 -20q-68 -65 -139 -230q-10 -22 -22 -52.5t-27 -68.5q-16 -38 -28 -65.5t-20 -44.5q-8 -16 -14 -29t-9 -21
q94 -4 94 -24q0 -9 -7 -17.5t-17 -11.5q-18 2 -40 3t-48 2q-3 -4 -9 -71q19 0 37.5 -0.5t36.5 -1.5q38 -3 72 -3q17 -5 17 -17q0 -9 -7 -17.5t-17 -11.5l-144 6q-4 -31 -13 -61t-14 -62q-14 -49 -24 -78t-16 -48q-4 -10 -10.5 -15t-14.5 -3z" />
    <glyph glyph-name="brokenbar" unicode="&#xa6;" horiz-adv-x="324" 
d="M171 395q-13 0 -13 15q0 2 3.5 13.5t9.5 32.5q13 40 46 180q17 69 29.5 121t22.5 86q18 69 33 138q14 24 31 24q15 0 17 -17q-15 -72 -34 -138q-18 -69 -35.5 -140t-34.5 -143q-8 -36 -18.5 -72t-21.5 -72q-4 -12 -15 -20t-20 -8zM23 -389q-14 0 -14 16l45 238
q15 74 24.5 125.5t13.5 80.5q5 30 8.5 46t4.5 19q14 19 29 19t15 -17q-8 -67 -20.5 -137.5t-25 -132.5t-21.5 -104q-7 -31 -13 -62t-11 -63q-4 -12 -15 -20t-20 -8z" />
    <glyph glyph-name="section" unicode="&#xa7;" horiz-adv-x="523" 
d="M16 -207q-48 0 -93.5 14t-79 39t-45.5 59q0 24 20 35q7 4 15 4q7 0 12 -11q10 -29 39 -49.5t65.5 -31t67.5 -10.5q81 0 150 38t112 101q43 62 43 137q0 72 -58 164q-13 20 -26.5 38.5t-27.5 37.5q-19 25 -45.5 62t-46.5 78.5t-20 81.5q0 59 12 94t34 59t50 40.5t62 33.5
q-100 109 -100 197q0 47 14 72.5t36 41.5q37 28 85 28q56 0 103 -23.5t75.5 -61t28.5 -79.5q0 -49 -6 -77t-33 -28q-11 0 -14 14l4 69q0 40 -22 72.5t-59.5 52t-83.5 19.5q-69 0 -77 -62q-3 -19 -3 -37q0 -86 95 -184q55 -56 88.5 -95t48.5 -69t15 -61q0 -39 -22 -72
t-55.5 -57t-70.5 -38t-67 -15q47 -69 77 -118t44.5 -88.5t14.5 -80.5q0 -74 -26 -131.5t-71 -98.5t-102 -66q-85 -38 -157 -38zM221 436q9 19 64 44q56 25 87.5 46.5t31.5 62.5q0 42 -26.5 82t-81.5 95q-79 -29 -112 -62t-33 -85t18 -91.5t52 -91.5z" />
    <glyph glyph-name="dieresis" unicode="&#xa8;" horiz-adv-x="326" 
d="M52 1054q-13 0 -20.5 17t-7.5 30q0 14 4 23.5t10 16.5q13 16 33 16q11 0 22 -11v1q16 -19 16 -34q0 -10 -10.5 -24t-24 -24.5t-22.5 -10.5zM251 1060q-1 0 -3 0.5t-5 1.5q-24 8 -24 32t19 42t32 18q31 0 31 -31q0 -22 -15.5 -42.5t-34.5 -20.5z" />
    <glyph glyph-name="copyright" unicode="&#xa9;" horiz-adv-x="532" 
d="M293 477q-67 0 -115.5 29t-74.5 76.5t-26 104.5q0 85 47.5 145t121.5 94q36 17 74 25t76 9q5 0 10 -1t9 -3q5 -1 10 -3t9 -4q11 -8 11 -17q0 -10 -9.5 -18.5t-21.5 -8.5l-43 6q-31 0 -70 -11.5t-75.5 -33.5t-63.5 -52t-35 -67q-5 -23 -5 -52q0 -31 13.5 -64t36.5 -57
q50 -50 130 -50q54 0 98.5 26t75 64.5t43.5 74.5q9 27 9 54q0 26 -4.5 43t-12.5 30q-4 6 -9.5 12.5t-12.5 13.5q-12 13 -29 32q-1 2 -1.5 5.5t-0.5 7.5q0 8 8 16.5t19 8.5q8 0 23 -13.5t29.5 -31t20.5 -31.5q14 -39 14 -73q0 -72 -36 -137.5t-99 -106.5q-64 -42 -144 -42z
M305 589q-32 0 -55 17t-35 41t-12 44q0 40 24 76.5t60.5 60t74.5 23.5q37 0 60 -19q2 -3 3 -6.5t1 -8.5q0 -9 -8.5 -17t-16.5 -8q-10 0 -24 7t-29 7q-13 0 -32 -10t-34 -26q-33 -36 -33 -75q0 -26 15.5 -38.5t36 -16t36.5 -4.5q17 -5 17 -17q0 -30 -49 -30z" />
    <glyph glyph-name="ordfeminine" unicode="&#xaa;" horiz-adv-x="281" 
d="M288 600q-40 0 -61 29q-29 -20 -65 -20q-37 0 -61 24t-24 73q0 33 22.5 62.5t58 48t72.5 18.5h1q3 20 3 43q0 51 -50 51q-38 0 -61 -23q-3 -4 -5.5 -7.5t-4.5 -8.5q-7 -20 -27 -20q-15 0 -17 20q1 5 2.5 9.5t2.5 8.5q1 9 9 18q11 13 30 24t40.5 18t37.5 7q47 0 68 -23
t21 -62q0 -20 -3 -45t-8 -55q-12 -61 -12 -83q0 -23 4.5 -33.5t11.5 -15.5q3 -3 7 -5l8 -4q8 -2 19.5 -5.5t11.5 -18.5t-19 -22q-6 -3 -12 -3zM166 657q32 0 45 13q-1 3 -1 11v25q0 21 12 82h-7q-27 0 -48 -13t-33 -31.5t-12 -35.5q0 -51 44 -51z" />
    <glyph glyph-name="guillemotleft" unicode="&#xab;" horiz-adv-x="326" 
d="M115 134q-14 0 -28 18q-48 63 -75 77q-26 11 -26 20q0 8 5.5 14t16.5 14q32 28 62 59.5t60 66.5q3 3 5.5 6t4.5 5l12 12t19 7t12 -13q0 -1 -1 -3.5t-2 -6.5q-10 -27 -108 -131l-15.5 -15.5l-13.5 -13.5q18 -12 44 -40q26 -25 39 -36q14 -11 14 -18q0 -22 -25 -22z
M260 111q-10 0 -16 7q-49 85 -107 123q-18 0 -18 14q0 5 10 17q38 39 65.5 75t46.5 67q15 16 28 16t15.5 -8.5t-5.5 -20.5q-28 -47 -51.5 -78.5t-41.5 -48.5q24 -14 48 -40.5t40.5 -51t16.5 -35.5q0 -16 -10.5 -26t-20.5 -10z" />
    <glyph glyph-name="logicalnot" unicode="&#xac;" horiz-adv-x="484" 
d="M370 213q-17 0 -17 14q1 6 8 26.5t16 44.5t15 38q-37 0 -78.5 1.5t-91.5 4.5q-105 6 -158 6q-17 2 -17 13q0 15 13.5 24t20.5 9q53 0 159 -6q105 -6 163 -6l33 1q15 0 15 -14q0 -3 -5.5 -18t-13 -32.5t-13.5 -30.5q-13 -38 -22.5 -56.5t-26.5 -18.5z" />
    <glyph glyph-name="registered" unicode="&#xae;" horiz-adv-x="530" 
d="M281 500q-37 0 -74.5 15t-66.5 43q-63 59 -63 144q0 63 36 105q89 103 190 137q20 8 37 11t32 3q29 0 44.5 -4t29.5 -12q7 -3 13.5 -7t13.5 -8q6 -4 12.5 -8t13.5 -8q11 -8 11 -17q0 -11 -8 -17q68 -63 68 -153q0 -46 -24.5 -86.5t-66 -71.5t-93 -48.5t-105.5 -17.5z
M305 546q83 0 149 51q-10 -3 -25 -3q-23 0 -50 10t-51 29.5t-39 46.5l2 -59q-1 -12 -10.5 -20t-18.5 -8q-26 0 -26 147q0 66 17 108q11 16 27 16q8 4 12 4h6q4 0 12.5 -1t22.5 -3q93 -12 93 -66q0 -49 -50 -66q-7 -2 -16.5 -5t-23.5 -7q-26 -8 -35 -15q65 -65 142 -65h8
q2 0 4 0.5t4 0.5q17 -5 17 -17v-5t-2 -5q49 48 49 103q0 57 -37 100q-37 46 -47 72q-40 20 -70 20q-58 0 -113.5 -28t-92.5 -75t-37 -100q0 -35 22 -72.5t62 -62.5t95 -25zM280 739q7 4 15 7l16 6q12 4 27.5 10t27.5 13t12 14q0 20 -23 25q-24 6 -67 6q-4 -15 -6 -31t-2 -34
v-16z" />
    <glyph glyph-name="macron" unicode="&#xaf;" horiz-adv-x="348" 
d="M87 594q-28 2 -45.5 8t-17.5 22q0 13 8.5 19.5t20.5 4.5q33 -4 58 -6t48 -2.5t51 0.5t68 4q16 -6 16 -18q0 -20 -27 -28q-11 -3 -36 -4t-54 -1t-53.5 0.5t-36.5 0.5z" />
    <glyph glyph-name="degree" unicode="&#xb0;" horiz-adv-x="236" 
d="M208 827q-49 0 -71 23t-22 52q0 37 13 66.5t35 47.5t48 18q39 0 50 -26q77 -19 77 -67q0 -29 -19 -55.5t-48.5 -42.5t-62.5 -16zM213 871q18 0 36 8t30.5 20.5t12.5 27.5t-16.5 28.5t-37 22.5t-34.5 9q-21 0 -30.5 -17t-9.5 -42q0 -24 11.5 -40.5t37.5 -16.5z" />
    <glyph glyph-name="plusminus" unicode="&#xb1;" horiz-adv-x="422" 
d="M197 129q-17 0 -17 41q0 39 20 133h-4.5t-8.5 -2l-12 -2t-11 -2q-12 -2 -20.5 -4t-32.5 -12q-15 -7 -35 -7q-18 0 -18 16q6 17 18 25t18 8q5 0 9 -2q42 19 97 24h8q1 8 2.5 15t2.5 13l6 30q2 5 2 11.5v14.5v22q0 25 19 38q5 4 14 4q19 0 19 -31q0 -8 -1 -17.5t-3 -19.5
q-3 -10 -4.5 -20t-3.5 -18q-1 -9 -3.5 -19t-4.5 -21h7q17 0 41 -3l36 -5q6 -1 12.5 -1.5t13.5 -0.5q8 0 15.5 0.5t15.5 1.5q13 -4 13 -13t-9 -19.5t-21 -13.5l-132 11q-15 -75 -15 -126v-14q-6 -35 -33 -35zM31 7q-14 0 -14 13q0 24 35 38.5t84 20.5q50 6 85 6q18 0 36 -0.5
t36 -1.5q38 -1 72 -3q13 -1 13 -15q0 -13 -19 -25q-3 -2 -5.5 -3t-5.5 -3l-145 6q-105 0 -161 -31q-3 -1 -6 -1.5t-5 -0.5z" />
    <glyph glyph-name="uni00B2" unicode="&#xb2;" horiz-adv-x="293" 
d="M214 503q-72 0 -116 62q-46 -43 -67 -43t-21 25q0 26 32 56q14 12 29.5 20t24.5 8q5 0 8 -0.5t6 -1.5q75 91 124 232q-30 -6 -57 -32q-3 -11 -12 -20t-20 -9q-17 0 -17 22q0 11 13 25.5t33 28.5t41 23t37 9q31 0 31 -33q0 -13 -10 -38.5t-27 -57.5t-36 -65t-38 -60.5
t-33 -44.5q10 -11 18 -26q8 -13 26 -24.5t31 -11.5t34 3q14 -5 14 -16q0 -12 -15.5 -21.5t-32.5 -9.5z" />
    <glyph glyph-name="uni00B3" unicode="&#xb3;" horiz-adv-x="278" 
d="M7 391q-28 0 -57 14t-49.5 41.5t-21.5 67.5q2 11 12.5 21.5t21.5 10.5q9 0 14 -11q2 -92 94 -92q23 0 54 13.5t57 38.5q58 58 58 143q0 59 -32 64q-6 -1 -10.5 -1h-9.5q-26 0 -26 13q0 9 11.5 19.5t27 21t26.5 17.5q17 12 31 24.5t24 27.5q10 13 10 30t-34 17
q-21 0 -31 -5q-7 -2 -11 -3.5t-6 -1.5q-5 -5 -15 -5q-14 0 -14 12q0 15 13.5 26t32.5 17.5t34 6.5q80 0 80 -46q0 -59 -93 -131q41 -20 41 -85q0 -66 -34.5 -127.5t-104.5 -105.5q-52 -32 -93 -32zM139 704q3 0 5 2q-1 0 -1.5 -0.5l-0.5 -0.5q-2 0 -3 -1z" />
    <glyph glyph-name="acute" unicode="&#xb4;" horiz-adv-x="833" 
d="M394 1029q-23 0 -23 23q0 6 11 22q11 14 23 36.5t23 45.5q6 11 11.5 23t10.5 23q6 11 11.5 22.5t10.5 22.5q11 15 25 15q18 0 18 -17q0 -9 -7 -22q-4 -7 -8.5 -16.5t-10.5 -20.5q-10 -23 -29 -62t-44 -71q-1 -10 -8.5 -17t-13.5 -7z" />
    <glyph glyph-name="uni00B5" unicode="&#xb5;" horiz-adv-x="455" 
d="M-74 -553q-13 0 -13 14v6q0 3 59 263q27 124 48 231t35 197q-3 -12 -3 -13q1 8 2.5 16.5t2.5 17.5q1 8 2.5 16.5t2.5 16.5q1 56 9.5 122t23.5 142q8 11 12 15q17 21 33 21q11 0 14 -17q-7 -40 -18 -108.5t-25 -166.5v-28q0 -150 65 -150q16 0 29.5 14t24.5 32t16 29
q4 8 11.5 22.5t18.5 35.5t23.5 51.5t25.5 70.5q2 12 3.5 24.5t2.5 25.5q2 25 9 57t25 69q18 36 43 36q13 0 13 -15q0 -4 -9 -48q-4 -22 -14 -54t-24 -76l-3 -24q-5 -34 -11 -69.5t-11 -71.5q-6 -35 -11 -70.5t-8 -70.5q-1 -11 -12 -19.5t-22 -8.5t-14 14q4 66 15 134
q-29 -58 -55 -87t-49 -38t-44 -9q-45 0 -66 50q-18 -91 -48.5 -234t-73.5 -337q-4 -12 -15 -20t-20 -8z" />
    <glyph glyph-name="paragraph" unicode="&#xb6;" horiz-adv-x="536" 
d="M280 -195q-13 0 -13 15v3q0 1 3 12.5t8 33.5q6 22 12.5 52t15.5 68q23 107 46 227.5t46 253.5q24 134 47 253.5t45 224.5q-31 3 -75 3q-43 0 -99 -9q-25 -125 -41 -206t-23 -117l14 3q13 -2 13 -14q0 -20 -35 -34q-14 -88 -46 -252.5t-81 -406.5l-15 -75
q0 -12 -10.5 -22.5t-22.5 -10.5q-16 0 -16 17t4 36.5t8 39.5q2 10 4.5 19.5t4.5 17.5t5 19t5 24q2 14 6.5 33.5t9.5 46.5t11 55l12 56q11 57 22.5 114.5t21.5 110.5q5 26 10 51t9 48t7.5 43t6.5 36q-42 0 -81.5 20.5t-65.5 52.5t-26 68q0 96 76 165q126 114 357 114
q29 0 56 -1t54 -3q26 -2 51.5 -4t49.5 -4q14 -5 14 -16q0 -13 -20 -25q-2 -2 -5 -3l-6 -2q-42 1 -119 9q-23 -112 -48.5 -245.5t-52.5 -289.5q-28 -157 -57.5 -301t-61.5 -276q-4 -12 -15 -20t-20 -8zM206 618q18 98 33 175.5t28 135.5q-35 -10 -70 -30t-63.5 -47t-46 -58.5
t-17.5 -63.5q0 -81 90 -102z" />
    <glyph glyph-name="periodcentered" unicode="&#xb7;" horiz-adv-x="444" 
d="M208 286q-27 0 -38 23.5t-11 44.5t6 31t21 20q13 10 39 10q24 0 44 -13.5t20 -33.5q0 -21 -13 -40t-31.5 -30.5t-36.5 -11.5z" />
    <glyph glyph-name="cedilla" unicode="&#xb8;" horiz-adv-x="276" 
d="M123 -288q-18 0 -41.5 5.5t-40.5 15t-17 21.5q0 14 8.5 20t19.5 6q50 -22 79 -22t51.5 22t22.5 52q0 34 -11.5 53t-35.5 19q-38 0 -60 -34q-7 -12 -17 -12t-15.5 7.5t-0.5 17.5l10.5 21l19.5 39l20.5 41t13.5 25q5 8 20 8q18 0 18 -16q0 -9 -9 -24.5t-25 -45.5
q31 16 57.5 6t42.5 -37.5t16 -64.5q0 -31 -14.5 -59.5t-42.5 -46t-69 -17.5z" />
    <glyph glyph-name="uni00B9" unicode="&#xb9;" horiz-adv-x="283" 
d="M48 525q-15 0 -15 13q0 33 83 47q32 113 57 222q-39 -37 -78 -46q-16 1 -16 13q0 8 7.5 18t18.5 14q38 9 72 69q5 8 8 13t5 8q5 8 4 8v0.5t1 1.5h2q15 22 32 22q13 0 13 -17q-41 -195 -81 -323h1q102 0 102 -21q0 -10 -11.5 -21t-27.5 -11q-8 0 -17.5 1.5t-20.5 2.5
q-11 2 -26 3t-33 1q-37 0 -69 -16q-3 -1 -6 -1.5t-5 -0.5z" />
    <glyph glyph-name="ordmasculine" unicode="&#xba;" horiz-adv-x="256" 
d="M114 530q-26 0 -46 24.5t-20 54.5q0 40 14 84.5t38 87t55 75.5q49 50 94 53q30 0 48 -15q6 -6 6 -17q0 -9 -15 -20q0 -189 -68 -275q-42 -52 -106 -52zM131 576q16 0 34.5 12t38.5 40q14 20 24 53.5t16 75t6 83.5l-5 22q-1 0 -1.5 0.5t-1.5 0.5h-2q-38 -15 -71.5 -53
t-54 -87.5t-20.5 -100.5q0 -29 15 -41q7 -5 22 -5z" />
    <glyph glyph-name="guillemotright" unicode="&#xbb;" horiz-adv-x="330" 
d="M-31 87q-18 2 -18 18q2 11 10.5 20t17.5 11l15 15q6 4 16 16q5 5 21 18t43 34q28 20 41.5 32t14.5 14q-4 5 -10.5 11t-16.5 10q-20 9 -31 18q-38 30 -38 91q0 28 10 41t24 13q15 0 14 -19q0 -10 -0.5 -18.5t-0.5 -15.5q0 -15 7.5 -27.5t18.5 -22.5q5 -5 11.5 -9.5
t12.5 -8.5q13 -8 31.5 -20.5t18.5 -25.5t-9.5 -25t-26.5 -28q-9 -7 -19 -15.5t-22 -17.5q-25 -19 -43.5 -34t-27.5 -26q-9 -10 -26.5 -28t-37.5 -21zM122 141q-14 0 -14 13q0 8 4 15q15 19 38.5 37.5t55.5 35.5q9 5 17.5 10t17.5 9q-49 41 -71 101q-6 18 -6 30t8 24t24 12
t16 -14q0 -15 7 -28q6 -13 15 -26.5t32 -39.5q24 -27 33 -31q10 -4 10 -14q0 -9 -9 -18q-17 -17 -74 -47t-78 -57q-12 -12 -26 -12z" />
    <glyph glyph-name="onequarter" unicode="&#xbc;" horiz-adv-x="682" 
d="M93 -79q-20 0 -20 16q0 4 10.5 30.5t26.5 62t31 68.5t24 51l228 481l196 397q28 0 28 -16q0 2 -6 -19.5t-19 -57.5t-35 -80l-19 -39q-97 -195 -178.5 -363.5t-146.5 -311.5l-92 -202q-8 -17 -28 -17zM104 600q-15 0 -15 12q0 20 23 31t60 17q19 60 35.5 119t29.5 116
q-20 -25 -41.5 -42t-44.5 -17q-16 0 -16 13q0 18 30 27q20 5 36 24.5t32 48.5q9 15 21 34.5t31 19.5q13 0 13 -17q-20 -97 -40.5 -177.5t-40.5 -145.5q103 0 103 -21q0 -10 -11.5 -21t-28.5 -11q-16 0 -28.5 2t-27 4t-39.5 2q-26 0 -49.5 -9t-31.5 -9zM474 -13q-15 0 -17 21
q3 36 29 91q13 26 24.5 54t21.5 58q-41 -8 -69.5 -12t-43.5 -4q-30 0 -30 17q0 9 10.5 26.5t25.5 37.5t29 40.5t21 35.5q24 50 44 76.5t35 30.5q10 3 16.5 0t6.5 -17q0 -11 -17 -31t-31 -52l-84 -125l109 25l31 103q24 83 56 83q16 0 16 -18q0 -14 -10 -34
q-53 -133 -84.5 -213.5t-45 -117.5t-14.5 -42q-1 -16 -10.5 -24.5t-18.5 -8.5z" />
    <glyph glyph-name="onehalf" unicode="&#xbd;" horiz-adv-x="682" 
d="M93 -79q-20 0 -20 16q0 7 12 34q12 26 39 87q14 30 24 52.5t17 38.5l129 282q12 26 24 50.5t25 49.5q13 24 25.5 49t24.5 50l196 397h1q27 0 27 -16q0 -7 -8 -17v-1h1q0 -33 -53 -139l-19 -39q-97 -195 -178.5 -363.5t-146.5 -311.5l-92 -202q-8 -17 -28 -17zM104 600
q-15 0 -15 12q0 20 23 31t60 17q33 114 57 222q-37 -38 -78 -46q-16 1 -16 13q0 8 7.5 18t18.5 14q39 9 72 68q5 8 8 13.5t6 8.5q5 8 3 8v0.5t1 1.5h2q15 22 32 22q13 0 13 -17q-20 -97 -40.5 -177.5t-40.5 -145.5h1q102 0 102 -21q0 -10 -11.5 -21t-28.5 -11q-7 0 -17 1
t-21 3q-10 2 -25 3t-32 1q-37 0 -70 -16q-8 -2 -11 -2zM565 10q-70 0 -116 62q-46 -43 -67 -43t-21 26q0 25 32 54q14 13 29.5 21t24.5 8q11 0 14 -2q37 46 68 104t56 128q-26 -4 -57 -32q-3 -11 -12 -20t-20 -9q-17 0 -17 22q0 11 13 25.5t33 28.5t41.5 23t38.5 9
q29 0 29 -31q0 -23 -17 -57q-74 -147 -127 -211q3 -3 5.5 -6t4.5 -6q2 -4 4 -7t4 -7q8 -10 18.5 -18.5t23.5 -13.5q7 -4 18 -4q10 0 31 3q14 -5 14 -16q0 -12 -15 -21.5t-33 -9.5z" />
    <glyph glyph-name="threequarters" unicode="&#xbe;" horiz-adv-x="682" 
d="M93 -79q-20 0 -20 16q0 7 12 34q6 13 14.5 32.5t19.5 44.5q23 53 46 101l228 481l196 397h1q27 0 27 -16q0 -7 -8 -17v-1h1q0 -33 -53 -139l-19 -39q-97 -195 -178.5 -363.5t-146.5 -311.5l-92 -202q-8 -17 -28 -17zM73 450q-28 0 -57 14t-49 41.5t-22 67.5q4 21 23 30
q3 1 6 1.5t7 0.5q8 0 12 -11q2 -45 25.5 -68.5t57.5 -23.5q46 0 87 25t67 69t26 101q0 59 -32 64q-7 -1 -12 -1.5t-9 -0.5q-7 0 -16 1t-9 14q0 9 11.5 19.5t27 20.5t26.5 18q17 11 31.5 23.5t24.5 27.5q9 14 9 31q0 16 -34 16q-21 0 -31 -5q-7 -2 -11 -3.5t-6 -1.5
q-7 -5 -15 -5q-14 0 -14 12q0 23 29 36.5t60 13.5q32 0 51.5 -11.5t19.5 -31.5q0 -63 -93 -134q41 -19 41 -90q0 -52 -23.5 -99t-59.5 -83.5t-76 -57t-73 -20.5zM205 763q1 0 5 2q-1 0 -1.5 -0.5l-0.5 -0.5q-2 0 -3 -1zM474 -13q-15 0 -17 21q3 36 29 91q13 26 24.5 54
t21.5 58q-41 -8 -69.5 -12t-43.5 -4q-30 0 -30 17q0 12 9 27t21 29t19 23q5 7 10 13t8 10v-1q5 9 9.5 18.5t9.5 20.5q48 101 79 107q2 0 4 0.5t3 0.5q16 0 16 -18q0 -10 -8 -20q-17 -12 -40 -63q-11 -25 -27.5 -52.5t-39.5 -57.5q-2 -1 -2 -3q6 2 12.5 2.5t11.5 1.5
q5 0 10.5 0.5t10.5 1.5t10.5 1.5t9.5 1.5q5 1 10.5 2t11.5 2q13 44 30 76v-1q2 5 4 12.5t4 15.5q24 83 56 83q16 0 16 -18q0 -14 -10 -34q-9 -22 -15 -66q-2 -22 -5.5 -42.5t-8.5 -38.5q-7 -15 -32 -23q-16 -47 -32 -84t-31 -65v2q-9 -20 -14 -34t-6 -22q-1 -16 -10.5 -24.5
t-18.5 -8.5z" />
    <glyph glyph-name="questiondown" unicode="&#xbf;" horiz-adv-x="406" 
d="M303 672q31 0 38.5 -15t7.5 -35q0 -19 -19.5 -35.5t-36.5 -16.5q-35 0 -35 29q0 16 7 37q15 28 38 36zM294 502q17 0 18 -21q-12 -70 -21.5 -117t-16.5 -70q-8 -30 -20 -55t-34 -59t-62 -91q-81 -117 -81 -205q0 -58 17 -92t44 -48.5t57 -14.5q57 0 102 17t71 47.5
t26 71.5q0 5 -2 14.5t-6 22.5q-4 14 -6 21.5t-2 11.5q0 12 14 12q44 0 44 -86q0 -43 -20.5 -76.5t-55 -56.5t-76.5 -34.5t-84 -11.5q-116 0 -156 106q-14 40 -14 85q0 47 6 75t16 52q11 24 25 45t30 43q8 11 17 22t18 23q23 30 41.5 58t33 63t26.5 87.5t23 132.5q2 12 11 20
t17 8z" />
    <glyph glyph-name="Agrave" unicode="&#xc0;" horiz-adv-x="702" 
d="M575 -3q-10 0 -17.5 14.5t-12.5 36.5q-7 37 -11 85t-13 121q-51 5 -94 6.5t-85.5 2t-90.5 1.5q-129 -194 -243 -247q-38 -19 -60 -19q-26 0 -26 25q0 13 9 22t18 9t15 -8q74 29 128 85t110 134q-33 2 -62 3t-47 5t-18 16q0 11 9 20t19 10q20 -3 52 -5t78 -4
q34 51 73.5 117.5t79.5 139t75 144.5t60 134.5t35 107.5q10 24 30 24q7 0 12.5 -9t7.5 -20t-5 -19q-7 -25 -14 -70t-13 -98.5t-11 -107t-8 -97t-3 -66.5q0 -79 12 -193q41 -5 55.5 -8.5t14.5 -19.5q0 -9 -9 -17.5t-20 -7.5l-34 4q0 -3 2.5 -27.5t7 -58t8.5 -66.5t7.5 -55
t4.5 -20v3v-3q-2 -10 -9.5 -17t-16.5 -7zM516 302q-4 32 -6 77t-2 100q0 113 21 272q-30 -61 -63.5 -125t-67.5 -123.5t-64 -109.5t-52 -84q35 0 76 -0.5t82.5 -2t75.5 -4.5zM654 1032q-10 0 -17 7q-40 53 -58.5 86t-28.5 67q0 13 8.5 22t17.5 9q15 0 20 -17q8 -28 24 -55.5
t55 -77.5q2 -3 3 -6t1 -8q0 -10 -8 -18.5t-17 -8.5z" />
    <glyph glyph-name="Aacute" unicode="&#xc1;" horiz-adv-x="702" 
d="M575 -3q-10 0 -17.5 14.5t-12.5 36.5q-7 37 -11 85t-13 121q-51 5 -94 6.5t-85.5 2t-90.5 1.5q-129 -194 -243 -247q-38 -19 -60 -19q-26 0 -26 25q0 13 9 22t18 9t15 -8q74 29 128 85t110 134q-33 2 -62 3t-47 5t-18 16q0 11 9 20t19 10q20 -3 52 -5t78 -4
q34 51 73.5 117.5t79.5 139t75 144.5t60 134.5t35 107.5q10 24 30 24q7 0 12.5 -9t7.5 -20t-5 -19q-7 -25 -14 -70t-13 -98.5t-11 -107t-8 -97t-3 -66.5q0 -79 12 -193q41 -5 55.5 -8.5t14.5 -19.5q0 -9 -9 -17.5t-20 -7.5l-34 4q0 -3 2.5 -27.5t7 -58t8.5 -66.5t7.5 -55
t4.5 -20v3v-3q-2 -10 -9.5 -17t-16.5 -7zM516 302q-4 32 -6 77t-2 100q0 113 21 272q-30 -61 -63.5 -125t-67.5 -123.5t-64 -109.5t-52 -84q35 0 76 -0.5t82.5 -2t75.5 -4.5zM600 1032q-23 0 -23 23q0 6 11 22q11 14 23 36.5t23 45.5q6 11 11.5 23t10.5 23q6 11 11.5 22.5
t10.5 22.5q11 15 25 15q18 0 18 -17q0 -9 -7 -22q-4 -7 -8.5 -16.5t-10.5 -20.5q-10 -23 -29 -62t-44 -71q-1 -10 -8.5 -17t-13.5 -7z" />
    <glyph glyph-name="Acircumflex" unicode="&#xc2;" horiz-adv-x="702" 
d="M575 -3q-10 0 -17.5 14.5t-12.5 36.5q-7 37 -11 85t-13 121q-51 5 -94 6.5t-85.5 2t-90.5 1.5q-129 -194 -243 -247q-38 -19 -60 -19q-26 0 -26 25q0 13 9 22t18 9t15 -8q74 29 128 85t110 134q-33 2 -62 3t-47 5t-18 16q0 11 9 20t19 10q20 -3 52 -5t78 -4
q34 51 73.5 117.5t79.5 139t75 144.5t60 134.5t35 107.5q10 24 30 24q7 0 12.5 -9t7.5 -20t-5 -19q-7 -25 -14 -70t-13 -98.5t-11 -107t-8 -97t-3 -66.5q0 -79 12 -193q41 -5 55.5 -8.5t14.5 -19.5q0 -9 -9 -17.5t-20 -7.5l-34 4q0 -3 2.5 -27.5t7 -58t8.5 -66.5t7.5 -55
t4.5 -20v3v-3q-2 -10 -9.5 -17t-16.5 -7zM516 302q-4 32 -6 77t-2 100q0 113 21 272q-30 -61 -63.5 -125t-67.5 -123.5t-64 -109.5t-52 -84q35 0 76 -0.5t82.5 -2t75.5 -4.5zM701 1035q-14 0 -31.5 17.5t-33.5 44.5t-26 55q-2 -3 -3.5 -6t-3.5 -6q-13 -28 -77 -98
q-9 -6 -17 -6q-18 0 -18 16q0 17 36 56q17 20 29 35.5t17 25.5q11 20 26.5 42t33.5 22t18 -19l-1 -12q0 -15 11 -40.5t28.5 -49.5t35.5 -37q4 -7 4 -15q0 -10 -8.5 -17.5t-19.5 -7.5z" />
    <glyph glyph-name="Atilde" unicode="&#xc3;" horiz-adv-x="702" 
d="M575 -3q-10 0 -17.5 14.5t-12.5 36.5q-7 37 -11 85t-13 121q-51 5 -94 6.5t-85.5 2t-90.5 1.5q-129 -194 -243 -247q-38 -19 -60 -19q-26 0 -26 25q0 13 9 22t18 9t15 -8q74 29 128 85t110 134q-33 2 -62 3t-47 5t-18 16q0 11 9 20t19 10q20 -3 52 -5t78 -4
q34 51 73.5 117.5t79.5 139t75 144.5t60 134.5t35 107.5q10 24 30 24q7 0 12.5 -9t7.5 -20t-5 -19q-7 -25 -14 -70t-13 -98.5t-11 -107t-8 -97t-3 -66.5q0 -79 12 -193q41 -5 55.5 -8.5t14.5 -19.5q0 -9 -9 -17.5t-20 -7.5l-34 4q0 -3 2.5 -27.5t7 -58t8.5 -66.5t7.5 -55
t4.5 -20v3v-3q-2 -10 -9.5 -17t-16.5 -7zM516 302q-4 32 -6 77t-2 100q0 113 21 272q-30 -61 -63.5 -125t-67.5 -123.5t-64 -109.5t-52 -84q35 0 76 -0.5t82.5 -2t75.5 -4.5zM692 1067q-22 0 -38 9t-30 20q-14 10 -27.5 19t-24.5 9q-24 0 -41 -36q-9 -12 -23 -12
q-18 0 -18 17q0 3 0.5 5.5t1.5 5.5q35 68 76 68q21 0 54 -19q32 -19 49.5 -27.5t36.5 -8.5t19 4v6l-5 27q0 13 9 22t19 9q20 0 20 -47q0 -48 -42 -65q-15 -6 -36 -6z" />
    <glyph glyph-name="Adieresis" unicode="&#xc4;" horiz-adv-x="702" 
d="M575 -3q-10 0 -17.5 14.5t-12.5 36.5q-7 37 -11 85t-13 121q-51 5 -94 6.5t-85.5 2t-90.5 1.5q-129 -194 -243 -247q-38 -19 -60 -19q-26 0 -26 25q0 13 9 22t18 9t15 -8q74 29 128 85t110 134q-33 2 -62 3t-47 5t-18 16q0 11 9 20t19 10q20 -3 52 -5t78 -4
q34 51 73.5 117.5t79.5 139t75 144.5t60 134.5t35 107.5q10 24 30 24q7 0 12.5 -9t7.5 -20t-5 -19q-7 -25 -14 -70t-13 -98.5t-11 -107t-8 -97t-3 -66.5q0 -79 12 -193q41 -5 55.5 -8.5t14.5 -19.5q0 -9 -9 -17.5t-20 -7.5l-34 4q0 -3 2.5 -27.5t7 -58t8.5 -66.5t7.5 -55
t4.5 -20v3v-3q-2 -10 -9.5 -17t-16.5 -7zM516 302q-4 32 -6 77t-2 100q0 113 21 272q-30 -61 -63.5 -125t-67.5 -123.5t-64 -109.5t-52 -84q35 0 76 -0.5t82.5 -2t75.5 -4.5zM529 1058q-13 0 -20.5 16.5t-7.5 30.5q0 24 14 40q11 16 32 16q10 0 23 -11v1q16 -19 16 -34
q0 -10 -10.5 -24t-24 -24.5t-22.5 -10.5zM728 1064q-1 0 -3.5 0.5t-4.5 0.5q-24 9 -24 33t19 42t32 18q31 0 31 -31q0 -22 -15.5 -42.5t-34.5 -20.5z" />
    <glyph glyph-name="Aring" unicode="&#xc5;" horiz-adv-x="702" 
d="M575 -3q-10 0 -17.5 14.5t-12.5 36.5q-7 37 -11 85t-13 121q-51 5 -94 6.5t-85.5 2t-90.5 1.5q-129 -194 -243 -247q-38 -19 -60 -19q-26 0 -26 25q0 13 9 22t18 9t15 -8q74 29 128 85t110 134q-33 2 -62 3t-47 5t-18 16q0 11 9 20t19 10q20 -3 52 -5t78 -4
q34 51 73.5 117.5t79.5 139t75 144.5t60 134.5t35 107.5q10 24 30 24q7 0 12.5 -9t7.5 -20t-5 -19q-7 -25 -14 -70t-13 -98.5t-11 -107t-8 -97t-3 -66.5q0 -79 12 -193q41 -5 55.5 -8.5t14.5 -19.5q0 -9 -9 -17.5t-20 -7.5l-34 4q0 -3 2.5 -27.5t7 -58t8.5 -66.5t7.5 -55
t4.5 -20v3v-3q-2 -10 -9.5 -17t-16.5 -7zM516 302q-4 32 -6 77t-2 100q0 113 21 272q-30 -61 -63.5 -125t-67.5 -123.5t-64 -109.5t-52 -84q35 0 76 -0.5t82.5 -2t75.5 -4.5zM588 1010q-56 0 -83 37q-10 14 -10 34q0 36 21 67q11 14 25 23t27 9q15 0 23 -4q5 3 11 3
q9 0 13 -4q54 -39 54 -88q0 -32 -23 -54.5t-58 -22.5zM593 1053q29 0 29 30q0 16 -23 39h-6q-8 0 -16 5q-7 5 -15 5t-14 -10t-6 -28q0 -17 17.5 -29t33.5 -12z" />
    <glyph glyph-name="AE" unicode="&#xc6;" horiz-adv-x="953" 
d="M793 -9q-15 0 -47.5 1t-74.5 2t-86 2.5t-83 2.5t-65 2t-32 1l-34 -3q-19 0 -25.5 11t0.5 21q10 14 19.5 41t18 61t15.5 68t11 60l-159 3q-60 -91 -118 -150t-106 -87.5t-79 -28.5q-26 0 -26 25q0 13 9 22t19 9q9 0 14 -8q43 17 80.5 44.5t75.5 70t82 104.5
q-37 2 -65.5 4.5t-47.5 3.5q-14 5 -14 16t9 20t19 10q20 -3 52 -5t78 -4q51 77 111.5 183t130.5 242q18 35 33 70.5t27 71.5q-15 5 -15 16t7 16.5t21 11.5q6 17 12 36.5t26 19.5q14 0 20 -8.5t0 -25.5q49 12 122 18.5t171 6.5q44 0 60.5 -3.5t16.5 -13.5t-7 -18.5t-17 -11.5
q-106 0 -174 -2.5t-110 -8t-71 -15.5q-7 -26 -17.5 -67t-21.5 -88.5t-21.5 -92.5t-18.5 -79.5t-11 -49.5q92 -1 159 0t103.5 -1.5t36.5 -16.5q0 -20 -19 -27q-19 -5 -62 -6t-102 1t-126 4q-5 -21 -10.5 -48.5t-11 -53.5t-9 -44t-3.5 -21q44 -2 83 -4.5t63.5 -9t24.5 -22.5
q0 -9 -9 -17.5t-22 -8.5q-30 6 -67 10t-80 6q-10 -62 -22 -117t-33 -97l386 -8q25 0 42 0.5t27 1.5q17 -5 17 -20q0 -18 -19 -22q-13 -4 -27.5 -5t-33.5 -1zM417 307l85 389q-129 -246 -220 -387z" />
    <glyph glyph-name="Ccedilla" unicode="&#xc7;" horiz-adv-x="544" 
d="M240 -15q-50 0 -88 27t-63.5 70t-38 92.5t-12.5 93.5q0 56 12 126.5t35 149t56 156.5t75 140t90.5 98t100.5 36q39 0 72.5 -18t59 -47.5t39.5 -64t14 -68.5q-3 -20 -14 -26t-22 3.5t-14 32.5q-7 62 -44 101t-92 39q-54 0 -116 -74q-33 -39 -63 -94.5t-55 -118.5t-44 -127
t-29 -121t-10 -98q0 -69 17.5 -128t52.5 -95t89 -36q60 0 137 56q17 12 32.5 23.5t23.5 11.5q17 0 17 -18q0 -17 -21 -30t-40 -28q-85 -64 -157 -64zM243 -288q-18 0 -41.5 5.5t-40.5 15t-17 21.5q0 14 8.5 20t19.5 6q50 -22 79 -22t51.5 22t22.5 52q0 34 -11.5 53t-35.5 19
q-38 0 -60 -34q-7 -12 -17 -12t-15.5 7.5t-0.5 17.5l10.5 21l19.5 39l20.5 41t13.5 25q5 8 20 8q18 0 18 -16q0 -9 -9 -24.5t-25 -45.5q31 16 57.5 6t42.5 -37.5t16 -64.5q0 -31 -14.5 -59.5t-42.5 -46t-69 -17.5z" />
    <glyph glyph-name="Egrave" unicode="&#xc8;" horiz-adv-x="594" 
d="M433 -9q-14 0 -46.5 1t-74.5 2t-86.5 2.5t-83.5 2.5t-64.5 2t-30.5 1l-34 -3q-24 0 -26.5 13t1.5 19q5 6 13.5 28t18 53.5t16.5 65.5q7 30 20.5 91.5t32.5 154.5q20 92 44 205t53 245q-16 1 -16 20q0 18 29 33q0 31 30 31q16 0 17 -15q34 8 85 14t104.5 9t98 2.5
t65.5 -3.5q19 -3 19 -15q0 -15 -8.5 -22t-15.5 -7q-106 0 -174 -2.5t-110 -8t-71 -15.5q-12 -40 -23 -89.5t-21.5 -101.5t-20.5 -100.5t-19 -85.5q20 -2 58 -3t81.5 -1t81 0.5t55.5 1.5q12 0 14.5 -5.5t2.5 -10.5q0 -23 -25 -28t-58 -5l-220 5q-10 -38 -23.5 -95
t-27.5 -119.5t-27 -119t-24 -93.5q126 -2 207 -4t127.5 -3t69 -1h30t10.5 0.5t11 1.5q17 -5 17 -17q0 -20 -18.5 -25.5t-63.5 -5.5zM469 1030q-10 0 -17 7q-40 53 -58.5 86t-28.5 67q0 13 8.5 22t17.5 9q15 0 20 -17q8 -28 24 -55.5t55 -77.5q2 -3 3 -6t1 -8q0 -10 -8 -18.5
t-17 -8.5z" />
    <glyph glyph-name="Eacute" unicode="&#xc9;" horiz-adv-x="594" 
d="M433 -9q-14 0 -46.5 1t-74.5 2t-86.5 2.5t-83.5 2.5t-64.5 2t-30.5 1l-34 -3q-24 0 -26.5 13t1.5 19q5 6 13.5 28t18 53.5t16.5 65.5q7 30 20.5 91.5t32.5 154.5q20 92 44 205t53 245q-16 1 -16 20q0 18 29 33q0 31 30 31q16 0 17 -15q34 8 85 14t104.5 9t98 2.5
t65.5 -3.5q19 -3 19 -15q0 -15 -8.5 -22t-15.5 -7q-106 0 -174 -2.5t-110 -8t-71 -15.5q-12 -40 -23 -89.5t-21.5 -101.5t-20.5 -100.5t-19 -85.5q20 -2 58 -3t81.5 -1t81 0.5t55.5 1.5q12 0 14.5 -5.5t2.5 -10.5q0 -23 -25 -28t-58 -5l-220 5q-10 -38 -23.5 -95
t-27.5 -119.5t-27 -119t-24 -93.5q126 -2 207 -4t127.5 -3t69 -1h30t10.5 0.5t11 1.5q17 -5 17 -17q0 -20 -18.5 -25.5t-63.5 -5.5zM415 1030q-23 0 -23 23q0 6 11 22q11 14 23 36.5t23 45.5q6 11 11.5 23t10.5 23q6 11 11.5 22.5t10.5 22.5q11 15 25 15q18 0 18 -17
q0 -9 -7 -22q-4 -7 -8.5 -16.5t-10.5 -20.5q-10 -23 -29 -62t-44 -71q-1 -10 -8.5 -17t-13.5 -7z" />
    <glyph glyph-name="Ecircumflex" unicode="&#xca;" horiz-adv-x="594" 
d="M433 -9q-14 0 -46.5 1t-74.5 2t-86.5 2.5t-83.5 2.5t-64.5 2t-30.5 1l-34 -3q-24 0 -26.5 13t1.5 19q5 6 13.5 28t18 53.5t16.5 65.5q7 30 20.5 91.5t32.5 154.5q20 92 44 205t53 245q-16 1 -16 20q0 18 29 33q0 31 30 31q16 0 17 -15q34 8 85 14t104.5 9t98 2.5
t65.5 -3.5q19 -3 19 -15q0 -15 -8.5 -22t-15.5 -7q-106 0 -174 -2.5t-110 -8t-71 -15.5q-12 -40 -23 -89.5t-21.5 -101.5t-20.5 -100.5t-19 -85.5q20 -2 58 -3t81.5 -1t81 0.5t55.5 1.5q12 0 14.5 -5.5t2.5 -10.5q0 -23 -25 -28t-58 -5l-220 5q-10 -38 -23.5 -95
t-27.5 -119.5t-27 -119t-24 -93.5q126 -2 207 -4t127.5 -3t69 -1h30t10.5 0.5t11 1.5q17 -5 17 -17q0 -20 -18.5 -25.5t-63.5 -5.5zM516 1033q-14 0 -31.5 17.5t-33.5 44.5t-26 55q-2 -3 -3.5 -6t-3.5 -6q-13 -28 -77 -98q-9 -6 -17 -6q-18 0 -18 16q0 17 36 56
q17 20 29 35.5t17 25.5q11 20 26.5 42t33.5 22t18 -19l-1 -12q0 -15 11 -40.5t28.5 -49.5t35.5 -37q4 -7 4 -15q0 -10 -8.5 -17.5t-19.5 -7.5z" />
    <glyph glyph-name="Edieresis" unicode="&#xcb;" horiz-adv-x="594" 
d="M433 -9q-14 0 -46.5 1t-74.5 2t-86.5 2.5t-83.5 2.5t-64.5 2t-30.5 1l-34 -3q-24 0 -26.5 13t1.5 19q5 6 13.5 28t18 53.5t16.5 65.5q7 30 20.5 91.5t32.5 154.5q20 92 44 205t53 245q-16 1 -16 20q0 18 29 33q0 31 30 31q16 0 17 -15q34 8 85 14t104.5 9t98 2.5
t65.5 -3.5q19 -3 19 -15q0 -15 -8.5 -22t-15.5 -7q-106 0 -174 -2.5t-110 -8t-71 -15.5q-12 -40 -23 -89.5t-21.5 -101.5t-20.5 -100.5t-19 -85.5q20 -2 58 -3t81.5 -1t81 0.5t55.5 1.5q12 0 14.5 -5.5t2.5 -10.5q0 -23 -25 -28t-58 -5l-220 5q-10 -38 -23.5 -95
t-27.5 -119.5t-27 -119t-24 -93.5q126 -2 207 -4t127.5 -3t69 -1h30t10.5 0.5t11 1.5q17 -5 17 -17q0 -20 -18.5 -25.5t-63.5 -5.5zM344 1056q-13 0 -20.5 16.5t-7.5 30.5q0 24 14 40q11 16 32 16q10 0 23 -11v1q16 -19 16 -34q0 -10 -10.5 -24t-24 -24.5t-22.5 -10.5z
M543 1062q-1 0 -3.5 0.5t-4.5 0.5q-24 9 -24 33t19 42t32 18q31 0 31 -31q0 -22 -15.5 -42.5t-34.5 -20.5z" />
    <glyph glyph-name="Igrave" unicode="&#xcc;" horiz-adv-x="435" 
d="M264 -10q-29 0 -60.5 5t-64 7.5t-65.5 -7.5h-5q-10 0 -15 5t-5 12q0 19 26 26.5t72 7.5q21 111 47 234t58 259q32 135 54 229t34 147h-81q-19 0 -19 19q0 8 9 17t22 9h98t59.5 -0.5t40.5 -0.5q15 -4 15 -16q0 -10 -8 -18.5t-19 -10.5q-33 0 -47.5 0.5t-22.5 0.5
q-72 -290 -121.5 -507.5t-75.5 -362.5q65 -2 84 -8.5t19 -20.5q0 -6 -8.5 -15t-20.5 -11zM437 1030q-10 0 -17 7q-40 53 -58.5 86t-28.5 67q0 13 8.5 22t17.5 9q15 0 20 -17q8 -28 24 -55.5t55 -77.5q2 -3 3 -6t1 -8q0 -10 -8 -18.5t-17 -8.5z" />
    <glyph glyph-name="Iacute" unicode="&#xcd;" horiz-adv-x="435" 
d="M264 -10q-29 0 -60.5 5t-64 7.5t-65.5 -7.5h-5q-10 0 -15 5t-5 12q0 19 26 26.5t72 7.5q21 111 47 234t58 259q32 135 54 229t34 147h-81q-19 0 -19 19q0 8 9 17t22 9h98t59.5 -0.5t40.5 -0.5q15 -4 15 -16q0 -10 -8 -18.5t-19 -10.5q-33 0 -47.5 0.5t-22.5 0.5
q-72 -290 -121.5 -507.5t-75.5 -362.5q65 -2 84 -8.5t19 -20.5q0 -6 -8.5 -15t-20.5 -11zM383 1030q-23 0 -23 23q0 6 11 22q11 14 23 36.5t23 45.5q6 11 11.5 23t10.5 23q6 11 11.5 22.5t10.5 22.5q11 15 25 15q18 0 18 -17q0 -9 -7 -22q-4 -7 -8.5 -16.5t-10.5 -20.5
q-10 -23 -29 -62t-44 -71q-1 -10 -8.5 -17t-13.5 -7z" />
    <glyph glyph-name="Icircumflex" unicode="&#xce;" horiz-adv-x="435" 
d="M264 -10q-29 0 -60.5 5t-64 7.5t-65.5 -7.5h-5q-10 0 -15 5t-5 12q0 19 26 26.5t72 7.5q21 111 47 234t58 259q32 135 54 229t34 147h-81q-19 0 -19 19q0 8 9 17t22 9h98t59.5 -0.5t40.5 -0.5q15 -4 15 -16q0 -10 -8 -18.5t-19 -10.5q-33 0 -47.5 0.5t-22.5 0.5
q-72 -290 -121.5 -507.5t-75.5 -362.5q65 -2 84 -8.5t19 -20.5q0 -6 -8.5 -15t-20.5 -11zM484 1033q-14 0 -31.5 17.5t-33.5 44.5t-26 55q-2 -3 -3.5 -6t-3.5 -6q-13 -28 -77 -98q-9 -6 -17 -6q-18 0 -18 16q0 17 36 56q17 20 29 35.5t17 25.5q11 20 26.5 42t33.5 22t18 -19
l-1 -12q0 -15 11 -40.5t28.5 -49.5t35.5 -37q4 -7 4 -15q0 -10 -8.5 -17.5t-19.5 -7.5z" />
    <glyph glyph-name="Idieresis" unicode="&#xcf;" horiz-adv-x="435" 
d="M264 -10q-29 0 -60.5 5t-64 7.5t-65.5 -7.5h-5q-10 0 -15 5t-5 12q0 19 26 26.5t72 7.5q21 111 47 234t58 259q32 135 54 229t34 147h-81q-19 0 -19 19q0 8 9 17t22 9h98t59.5 -0.5t40.5 -0.5q15 -4 15 -16q0 -10 -8 -18.5t-19 -10.5q-33 0 -47.5 0.5t-22.5 0.5
q-72 -290 -121.5 -507.5t-75.5 -362.5q65 -2 84 -8.5t19 -20.5q0 -6 -8.5 -15t-20.5 -11zM312 1056q-13 0 -20.5 16.5t-7.5 30.5q0 24 14 40q11 16 32 16q10 0 23 -11v1q16 -19 16 -34q0 -10 -10.5 -24t-24 -24.5t-22.5 -10.5zM511 1062q-1 0 -3.5 0.5t-4.5 0.5
q-24 9 -24 33t19 42t32 18q31 0 31 -31q0 -22 -15.5 -42.5t-34.5 -20.5z" />
    <glyph glyph-name="Eth" unicode="&#xd0;" horiz-adv-x="711" 
d="M83 -55q-19 0 -19 14.5t1 33.5q-22 5 -43.5 8.5t-36 11t-14.5 24.5q0 5 5.5 11.5t10.5 6.5q16 0 24 -5t20.5 -10t39.5 -5q56 274 110.5 489.5t106.5 371.5q-49 -17 -80.5 -35.5t-40.5 -18.5q-18 0 -18 18q0 14 13 23q36 23 72 39t73 26q8 13 18 13t14 -5q110 24 190 -4
t123 -108t43 -216q0 -141 -31.5 -246t-87 -179.5t-127 -120.5t-151.5 -69q-44 -13 -90 -18t-96 -5q-4 -45 -29 -45zM120 33q140 0 240 48t164 130.5t94 187t30 217.5q0 99 -25 164t-68.5 99t-100 40.5t-119.5 -10.5q-42 -132 -82 -285.5t-78 -328.5q-13 -61 -27 -126
t-28 -136zM236 494l-78 -7q-71 -5 -103 -5t-40.5 6t-8.5 18q0 9 8.5 17t17.5 8t13 -3l18 1l45 2.5t55.5 3t51.5 3.5t32 3q65 5 132.5 8t137.5 3q8 0 12.5 -5.5t4.5 -11.5q0 -9 -7 -17.5t-17 -11.5q-137 0 -274 -12z" />
    <glyph glyph-name="Ntilde" unicode="&#xd1;" horiz-adv-x="649" 
d="M468 -11q-13 0 -23.5 18.5t-18.5 46.5t-15 54q-7 29 -21.5 83t-32.5 123t-37.5 145t-38.5 149t-34.5 135l-25.5 102q-19 -88 -41 -195t-46 -220.5t-48 -221.5t-45 -198q-5 -20 -26 -20t-21 18q0 3 8.5 39.5t25.5 106.5q6 26 18 82t27.5 129.5t32.5 154t33.5 157.5
t29.5 140t21.5 101.5t9.5 40.5q3 10 15 10q11 0 17 -7t10 -24q5 -23 16.5 -72t28 -114.5t36 -141t40 -153.5t40 -150t35.5 -131.5t27 -98.5q4 24 13.5 75.5t22.5 121t28 149t30.5 159.5t29 152t24 127.5t15.5 85.5q4 11 15 17.5t20 6.5t9.5 -6t0.5 -18q-21 -104 -44 -222.5
t-45.5 -238t-42 -230t-34.5 -198.5q-6 -29 -11 -49t-28 -20zM507 1065q-22 0 -38 9t-30 20q-14 10 -27.5 19t-24.5 9q-24 0 -41 -36q-9 -12 -23 -12q-18 0 -18 17q0 3 0.5 5.5t1.5 5.5q35 68 76 68q21 0 54 -19q32 -19 49.5 -27.5t36.5 -8.5t19 4v6l-5 27q0 13 9 22t19 9
q20 0 20 -47q0 -48 -42 -65q-15 -6 -36 -6z" />
    <glyph glyph-name="Ograve" unicode="&#xd2;" horiz-adv-x="661" 
d="M226 -22q-178 0 -178 317q0 86 14.5 171t41.5 161t65.5 135t87.5 92.5t106 33.5q58 0 105 -40q21 -21 11 -34.5t-41 0.5q-44 25 -90 25q-40 0 -74.5 -27t-63 -72t-50 -101t-37 -115t-23 -113t-7.5 -95q0 -148 34 -220t108 -72q61 0 112.5 38t91.5 101t68.5 139t44.5 152
q14 64 20.5 135t-1 139.5t-34.5 123.5q-29 56 -72 68q-15 5 -37 8.5t-38.5 9t-16.5 15.5q0 19 25 22q74 0 118.5 -31.5t67 -83.5t30.5 -113.5t8 -121.5q0 -107 -29 -221.5t-82 -212.5q-53 -97 -126 -155t-159 -58zM506 1030q-10 0 -17 7q-40 53 -58.5 86t-28.5 67
q0 13 8.5 22t17.5 9q15 0 20 -17q8 -28 24 -55.5t55 -77.5q2 -3 3 -6t1 -8q0 -10 -8 -18.5t-17 -8.5z" />
    <glyph glyph-name="Oacute" unicode="&#xd3;" horiz-adv-x="661" 
d="M226 -22q-178 0 -178 317q0 86 14.5 171t41.5 161t65.5 135t87.5 92.5t106 33.5q58 0 105 -40q21 -21 11 -34.5t-41 0.5q-44 25 -90 25q-40 0 -74.5 -27t-63 -72t-50 -101t-37 -115t-23 -113t-7.5 -95q0 -148 34 -220t108 -72q61 0 112.5 38t91.5 101t68.5 139t44.5 152
q14 64 20.5 135t-1 139.5t-34.5 123.5q-29 56 -72 68q-15 5 -37 8.5t-38.5 9t-16.5 15.5q0 19 25 22q74 0 118.5 -31.5t67 -83.5t30.5 -113.5t8 -121.5q0 -107 -29 -221.5t-82 -212.5q-53 -97 -126 -155t-159 -58zM452 1030q-23 0 -23 23q0 6 11 22q11 14 23 36.5t23 45.5
q6 11 11.5 23t10.5 23q6 11 11.5 22.5t10.5 22.5q11 15 25 15q18 0 18 -17q0 -9 -7 -22q-4 -7 -8.5 -16.5t-10.5 -20.5q-10 -23 -29 -62t-44 -71q-1 -10 -8.5 -17t-13.5 -7z" />
    <glyph glyph-name="Ocircumflex" unicode="&#xd4;" horiz-adv-x="661" 
d="M226 -22q-178 0 -178 317q0 86 14.5 171t41.5 161t65.5 135t87.5 92.5t106 33.5q58 0 105 -40q21 -21 11 -34.5t-41 0.5q-44 25 -90 25q-40 0 -74.5 -27t-63 -72t-50 -101t-37 -115t-23 -113t-7.5 -95q0 -148 34 -220t108 -72q61 0 112.5 38t91.5 101t68.5 139t44.5 152
q14 64 20.5 135t-1 139.5t-34.5 123.5q-29 56 -72 68q-15 5 -37 8.5t-38.5 9t-16.5 15.5q0 19 25 22q74 0 118.5 -31.5t67 -83.5t30.5 -113.5t8 -121.5q0 -107 -29 -221.5t-82 -212.5q-53 -97 -126 -155t-159 -58zM553 1033q-14 0 -31.5 17.5t-33.5 44.5t-26 55
q-2 -3 -3.5 -6t-3.5 -6q-13 -28 -77 -98q-9 -6 -17 -6q-18 0 -18 16q0 17 36 56q17 20 29 35.5t17 25.5q11 20 26.5 42t33.5 22t18 -19l-1 -12q0 -15 11 -40.5t28.5 -49.5t35.5 -37q4 -7 4 -15q0 -10 -8.5 -17.5t-19.5 -7.5z" />
    <glyph glyph-name="Otilde" unicode="&#xd5;" horiz-adv-x="661" 
d="M226 -22q-178 0 -178 317q0 86 14.5 171t41.5 161t65.5 135t87.5 92.5t106 33.5q58 0 105 -40q21 -21 11 -34.5t-41 0.5q-44 25 -90 25q-40 0 -74.5 -27t-63 -72t-50 -101t-37 -115t-23 -113t-7.5 -95q0 -148 34 -220t108 -72q61 0 112.5 38t91.5 101t68.5 139t44.5 152
q14 64 20.5 135t-1 139.5t-34.5 123.5q-29 56 -72 68q-15 5 -37 8.5t-38.5 9t-16.5 15.5q0 19 25 22q74 0 118.5 -31.5t67 -83.5t30.5 -113.5t8 -121.5q0 -107 -29 -221.5t-82 -212.5q-53 -97 -126 -155t-159 -58zM544 1065q-22 0 -38 9t-30 20q-14 10 -27.5 19t-24.5 9
q-24 0 -41 -36q-9 -12 -23 -12q-18 0 -18 17q0 3 0.5 5.5t1.5 5.5q35 68 76 68q21 0 54 -19q32 -19 49.5 -27.5t36.5 -8.5t19 4v6l-5 27q0 13 9 22t19 9q20 0 20 -47q0 -48 -42 -65q-15 -6 -36 -6z" />
    <glyph glyph-name="Odieresis" unicode="&#xd6;" horiz-adv-x="661" 
d="M226 -22q-178 0 -178 317q0 86 14.5 171t41.5 161t65.5 135t87.5 92.5t106 33.5q58 0 105 -40q21 -21 11 -34.5t-41 0.5q-44 25 -90 25q-40 0 -74.5 -27t-63 -72t-50 -101t-37 -115t-23 -113t-7.5 -95q0 -148 34 -220t108 -72q61 0 112.5 38t91.5 101t68.5 139t44.5 152
q14 64 20.5 135t-1 139.5t-34.5 123.5q-29 56 -72 68q-15 5 -37 8.5t-38.5 9t-16.5 15.5q0 19 25 22q74 0 118.5 -31.5t67 -83.5t30.5 -113.5t8 -121.5q0 -107 -29 -221.5t-82 -212.5q-53 -97 -126 -155t-159 -58zM381 1056q-13 0 -20.5 16.5t-7.5 30.5q0 24 14 40
q11 16 32 16q10 0 23 -11v1q16 -19 16 -34q0 -10 -10.5 -24t-24 -24.5t-22.5 -10.5zM580 1062q-1 0 -3.5 0.5t-4.5 0.5q-24 9 -24 33t19 42t32 18q31 0 31 -31q0 -22 -15.5 -42.5t-34.5 -20.5z" />
    <glyph glyph-name="multiply" unicode="&#xd7;" horiz-adv-x="364" 
d="M283 173q-13 0 -29 13.5t-31.5 33.5t-28.5 41t-21 36q-56 -46 -84 -67.5t-39.5 -27.5t-19.5 -6q-6 0 -11 5.5t-5 15.5q0 9 22.5 28t54.5 43t60 49q-15 26 -30 48t-25 46v4q0 13 8.5 22.5t15.5 9.5q6 0 16 -14t20 -33t18 -35l10 -20q34 30 65.5 55.5t56.5 41.5t37 16
q8 0 13.5 -6.5t5.5 -16.5q0 -11 -11 -22q-26 -16 -62 -43t-83 -65q34 -60 56 -83q11 -10 20 -17.5l15 -12.5q12 -7 12 -17q0 -8 -8.5 -15t-17.5 -7z" />
    <glyph glyph-name="Oslash" unicode="&#xd8;" horiz-adv-x="648" 
d="M82 -54q-16 0 -16 12q0 3 1 5.5t7.5 15.5t21.5 47q-66 75 -66 279q0 82 14.5 165t41.5 158t65.5 133.5t87.5 92.5t106 34q24 0 43 -7t35 -21q17 -13 14 -27.5t-13 -16.5q-9 -1 -15 1.5t-16 8.5q-15 10 -27.5 13t-31.5 3q-40 0 -81 -36.5t-77 -100.5t-61 -146
q-36 -123 -36 -243q0 -163 41 -236q172 383 272 585t105 220q-16 22 -40.5 31.5t-48.5 13t-39 8.5q-14 6 -14 15q0 19 25 22q79 0 129 -41q10 41 19.5 64.5t27.5 24.5q13 1 15 -8t-3 -25l-26 -90q41 -59 57.5 -137t11.5 -165.5t-28.5 -175.5t-61 -167.5t-87 -142t-107 -98.5
t-119.5 -36q-49 0 -85 24l-19 -42q-8 -14 -22 -14zM211 24q52 0 99 29.5t86.5 81.5t69.5 118q33 74 55.5 155.5t31 161.5t1 151.5t-33.5 126.5q-24 -51 -39 -81t-24.5 -48t-16.5 -30.5t-15 -27.5t-20 -39.5t-31.5 -66t-49.5 -108t-74 -164t-106 -235.5q27 -24 67 -24z" />
    <glyph glyph-name="Ugrave" unicode="&#xd9;" horiz-adv-x="639" 
d="M232 -10q-54 0 -95.5 26t-64.5 70t-23 96q0 9 6.5 53t18.5 111.5t27 148t31.5 163.5t33.5 158t32 130q2 8 9 11.5t13 3.5q21 0 21 -17q-11 -43 -26.5 -111.5t-32.5 -149.5t-33 -163.5t-29 -155t-21 -123.5t-8 -69q0 -58 37.5 -97t104.5 -39q86 0 133.5 40.5t67.5 98.5
q47 142 76.5 270.5t54 247t57.5 229.5q5 18 15.5 28.5t19.5 10.5q18 0 18 -17q0 -7 -15.5 -51t-32.5 -115q-13 -55 -28 -125.5t-32 -147t-35 -150.5t-38 -135.5t-42 -101.5q-68 -128 -220 -128zM478 1030q-10 0 -17 7q-40 53 -58.5 86t-28.5 67q0 13 8.5 22t17.5 9
q15 0 20 -17q8 -28 24 -55.5t55 -77.5q2 -3 3 -6t1 -8q0 -10 -8 -18.5t-17 -8.5z" />
    <glyph glyph-name="Uacute" unicode="&#xda;" horiz-adv-x="639" 
d="M232 -10q-54 0 -95.5 26t-64.5 70t-23 96q0 9 6.5 53t18.5 111.5t27 148t31.5 163.5t33.5 158t32 130q2 8 9 11.5t13 3.5q21 0 21 -17q-11 -43 -26.5 -111.5t-32.5 -149.5t-33 -163.5t-29 -155t-21 -123.5t-8 -69q0 -58 37.5 -97t104.5 -39q86 0 133.5 40.5t67.5 98.5
q47 142 76.5 270.5t54 247t57.5 229.5q5 18 15.5 28.5t19.5 10.5q18 0 18 -17q0 -7 -15.5 -51t-32.5 -115q-13 -55 -28 -125.5t-32 -147t-35 -150.5t-38 -135.5t-42 -101.5q-68 -128 -220 -128zM424 1030q-23 0 -23 23q0 6 11 22q11 14 23 36.5t23 45.5q6 11 11.5 23
t10.5 23q6 11 11.5 22.5t10.5 22.5q11 15 25 15q18 0 18 -17q0 -9 -7 -22q-4 -7 -8.5 -16.5t-10.5 -20.5q-10 -23 -29 -62t-44 -71q-1 -10 -8.5 -17t-13.5 -7z" />
    <glyph glyph-name="Ucircumflex" unicode="&#xdb;" horiz-adv-x="639" 
d="M232 -10q-54 0 -95.5 26t-64.5 70t-23 96q0 9 6.5 53t18.5 111.5t27 148t31.5 163.5t33.5 158t32 130q2 8 9 11.5t13 3.5q21 0 21 -17q-11 -43 -26.5 -111.5t-32.5 -149.5t-33 -163.5t-29 -155t-21 -123.5t-8 -69q0 -58 37.5 -97t104.5 -39q86 0 133.5 40.5t67.5 98.5
q47 142 76.5 270.5t54 247t57.5 229.5q5 18 15.5 28.5t19.5 10.5q18 0 18 -17q0 -7 -15.5 -51t-32.5 -115q-13 -55 -28 -125.5t-32 -147t-35 -150.5t-38 -135.5t-42 -101.5q-68 -128 -220 -128zM525 1033q-14 0 -31.5 17.5t-33.5 44.5t-26 55q-2 -3 -3.5 -6t-3.5 -6
q-13 -28 -77 -98q-9 -6 -17 -6q-18 0 -18 16q0 17 36 56q17 20 29 35.5t17 25.5q11 20 26.5 42t33.5 22t18 -19l-1 -12q0 -15 11 -40.5t28.5 -49.5t35.5 -37q4 -7 4 -15q0 -10 -8.5 -17.5t-19.5 -7.5z" />
    <glyph glyph-name="Udieresis" unicode="&#xdc;" horiz-adv-x="639" 
d="M232 -10q-54 0 -95.5 26t-64.5 70t-23 96q0 9 6.5 53t18.5 111.5t27 148t31.5 163.5t33.5 158t32 130q2 8 9 11.5t13 3.5q21 0 21 -17q-11 -43 -26.5 -111.5t-32.5 -149.5t-33 -163.5t-29 -155t-21 -123.5t-8 -69q0 -58 37.5 -97t104.5 -39q86 0 133.5 40.5t67.5 98.5
q47 142 76.5 270.5t54 247t57.5 229.5q5 18 15.5 28.5t19.5 10.5q18 0 18 -17q0 -7 -15.5 -51t-32.5 -115q-13 -55 -28 -125.5t-32 -147t-35 -150.5t-38 -135.5t-42 -101.5q-68 -128 -220 -128zM353 1056q-13 0 -20.5 16.5t-7.5 30.5q0 24 14 40q11 16 32 16q10 0 23 -11v1
q16 -19 16 -34q0 -10 -10.5 -24t-24 -24.5t-22.5 -10.5zM552 1062q-1 0 -3.5 0.5t-4.5 0.5q-24 9 -24 33t19 42t32 18q31 0 31 -31q0 -22 -15.5 -42.5t-34.5 -20.5z" />
    <glyph glyph-name="Yacute" unicode="&#xdd;" horiz-adv-x="478" 
d="M135 -4q-7 2 -10 11t0 22q16 54 24.5 90t14 65.5t10 63t12.5 81.5q-43 55 -111 440q-8 49 -14.5 91t-11.5 76q0 13 7.5 22.5t18.5 9.5q14 0 22.5 -10t-1.5 -27l12 -89q44 -321 100 -462q12 25 30.5 70.5t43.5 112.5q34 88 65.5 158.5t66 128.5t76.5 109q6 8 17 8
q20 0 20 -17q0 -11 -27.5 -50t-67.5 -106.5t-79 -165.5q-11 -29 -26 -68t-34 -88q-18 -49 -32 -82t-22 -50q-15 -57 -22 -88t-10 -46t-4.5 -26t-5 -27t-12 -48t-24.5 -92q-6 -21 -26 -17zM270 1030q-23 0 -23 23q0 6 11 22q11 14 23 36.5t23 45.5q6 11 11.5 23t10.5 23
q6 11 11.5 22.5t10.5 22.5q11 15 25 15q18 0 18 -17q0 -9 -7 -22q-4 -7 -8.5 -16.5t-10.5 -20.5q-10 -23 -29 -62t-44 -71q-1 -10 -8.5 -17t-13.5 -7z" />
    <glyph glyph-name="Thorn" unicode="&#xde;" horiz-adv-x="628" 
d="M35 -17q-12 0 -12 13v3q0 2 1 4l224 1076q2 8 3 15t1 12q0 12 11 21t22 9q18 0 18 -16q0 -7 -1 -9l-3 -11q0 -23 -5.5 -50.5t-12 -53t-11.5 -43.5q-8 -28 -12 -56q89 77 162 77q60 0 100.5 -21.5t65.5 -57t38 -77.5t17.5 -83.5t4.5 -75.5q0 -164 -65 -257t-187 -130
q-107 -32 -275 -32l-50 -230q-4 -12 -14.5 -19.5t-19.5 -7.5zM128 285q148 0 218 18q70 17 113 42q143 80 143 305q0 200 -93 255q-36 22 -93 22q-58 0 -131 -47q-21 -14 -36 -30z" />
    <glyph glyph-name="germandbls" unicode="&#xdf;" horiz-adv-x="479" 
d="M-59 -448q-13 0 -13 14q0 3 6.5 41.5t18 102t27 141.5t33 162t35.5 162q32 134 60 234t53 165q20 52 40 107t45.5 106t60 91.5t81.5 64.5t111 24q71 0 71 -57q0 -24 -23.5 -66.5t-62.5 -93.5t-85.5 -100t-93.5 -86q46 -12 75 -41t42.5 -66.5t13.5 -74.5q0 -232 -110 -336
q-58 -54 -148 -54q-19 0 -42 9.5t-39 25t-16 33.5q0 25 18 36t28 0q9 -15 15.5 -28.5t18.5 -21.5t36 -8q44 0 76 20t53 53t33.5 72.5t17.5 79.5t5 73q0 52 -8 93.5t-27.5 66t-53.5 24.5q-11 0 -27.5 -1t-39.5 -3q-17 2 -17 14q0 16 9 21t30 16q28 15 63.5 46t71.5 70t67 78
t50 71.5t19 50.5q0 19 -6.5 29t-35.5 10q-55 0 -104.5 -45.5t-92 -125t-79.5 -185t-69 -226t-58 -245.5q-12 -58 -26 -129.5t-27.5 -144t-25 -135.5t-19.5 -106q-4 -12 -15 -20t-20 -8z" />
    <glyph glyph-name="agrave" unicode="&#xe0;" horiz-adv-x="449" 
d="M355 -2q-23 0 -42.5 24.5t-19.5 52.5q0 62 33 210q-21 -43 -49.5 -86.5t-58 -81t-54 -63.5t-36.5 -35q-25 -19 -55 -19q-57 0 -57 72q0 36 14.5 81.5t39 94.5t57 95.5t68.5 84.5q73 76 118 76q46 0 52 -40q3 -12 3 -26q5 3 11 3q23 0 23 -22v-4q0 -2 -12 -44
q-6 -21 -13.5 -59t-14.5 -83t-11.5 -89.5t-4.5 -79.5l5 -2.5t5 -3.5q6 -4 15 -11.5t9 -18.5q0 -10 -6.5 -18t-18.5 -8zM81 52q11 0 18 7q102 87 181 241q23 42 33.5 64t14 34t3.5 25q0 10 -5 18t-13 8q-9 0 -26 -9q-25 -13 -59 -48.5t-67.5 -83.5t-57.5 -101
q-37 -77 -37 -137q0 -18 15 -18zM322 584q-10 0 -17 7q-40 53 -58.5 86t-28.5 67q0 13 8.5 22t17.5 9q15 0 20 -17q8 -28 24 -55.5t55 -77.5q2 -3 3 -6t1 -8q0 -10 -8 -18.5t-17 -8.5z" />
    <glyph glyph-name="aacute" unicode="&#xe1;" horiz-adv-x="449" 
d="M355 -2q-23 0 -42.5 24.5t-19.5 52.5q0 62 33 210q-21 -43 -49.5 -86.5t-58 -81t-54 -63.5t-36.5 -35q-25 -19 -55 -19q-57 0 -57 72q0 36 14.5 81.5t39 94.5t57 95.5t68.5 84.5q73 76 118 76q46 0 52 -40q3 -12 3 -26q5 3 11 3q23 0 23 -22v-4q0 -2 -12 -44
q-6 -21 -13.5 -59t-14.5 -83t-11.5 -89.5t-4.5 -79.5l5 -2.5t5 -3.5q6 -4 15 -11.5t9 -18.5q0 -10 -6.5 -18t-18.5 -8zM81 52q11 0 18 7q102 87 181 241q23 42 33.5 64t14 34t3.5 25q0 10 -5 18t-13 8q-9 0 -26 -9q-25 -13 -59 -48.5t-67.5 -83.5t-57.5 -101
q-37 -77 -37 -137q0 -18 15 -18zM309 573q-11 0 -19.5 5.5t-8.5 17.5q0 6 11 22q16 23 38 68t41 87q8 15 36 15q19 0 19 -17q0 -3 -8 -23t-21.5 -48.5t-29 -56.5t-29.5 -46q-8 -13 -15 -18.5t-14 -5.5z" />
    <glyph glyph-name="acircumflex" unicode="&#xe2;" horiz-adv-x="449" 
d="M355 -2q-23 0 -42.5 24.5t-19.5 52.5q0 62 33 210q-21 -43 -49.5 -86.5t-58 -81t-54 -63.5t-36.5 -35q-25 -19 -55 -19q-57 0 -57 72q0 36 14.5 81.5t39 94.5t57 95.5t68.5 84.5q73 76 118 76q46 0 52 -40q3 -12 3 -26q5 3 11 3q23 0 23 -22v-4q0 -2 -12 -44
q-6 -21 -13.5 -59t-14.5 -83t-11.5 -89.5t-4.5 -79.5l5 -2.5t5 -3.5q6 -4 15 -11.5t9 -18.5q0 -10 -6.5 -18t-18.5 -8zM81 52q11 0 18 7q102 87 181 241q23 42 33.5 64t14 34t3.5 25q0 10 -5 18t-13 8q-9 0 -26 -9q-25 -13 -59 -48.5t-67.5 -83.5t-57.5 -101
q-37 -77 -37 -137q0 -18 15 -18zM404 577q-14 0 -31.5 17.5t-33.5 44.5t-26 55q-2 -3 -3.5 -6t-3.5 -6q-13 -28 -77 -98q-9 -6 -17 -6q-18 0 -18 16q0 17 36 56q17 20 29 35.5t17 25.5q11 20 26.5 42t33.5 22t18 -19l-1 -12q0 -15 11 -40.5t28.5 -49.5t35.5 -37q4 -7 4 -15
q0 -10 -8.5 -17.5t-19.5 -7.5z" />
    <glyph glyph-name="atilde" unicode="&#xe3;" horiz-adv-x="449" 
d="M355 -2q-23 0 -42.5 24.5t-19.5 52.5q0 62 33 210q-21 -43 -49.5 -86.5t-58 -81t-54 -63.5t-36.5 -35q-25 -19 -55 -19q-57 0 -57 72q0 36 14.5 81.5t39 94.5t57 95.5t68.5 84.5q73 76 118 76q46 0 52 -40q3 -12 3 -26q5 3 11 3q23 0 23 -22v-4q0 -2 -12 -44
q-6 -21 -13.5 -59t-14.5 -83t-11.5 -89.5t-4.5 -79.5l5 -2.5t5 -3.5q6 -4 15 -11.5t9 -18.5q0 -10 -6.5 -18t-18.5 -8zM81 52q11 0 18 7q102 87 181 241q23 42 33.5 64t14 34t3.5 25q0 10 -5 18t-13 8q-9 0 -26 -9q-25 -13 -59 -48.5t-67.5 -83.5t-57.5 -101
q-37 -77 -37 -137q0 -18 15 -18zM395 609q-22 0 -38 9t-30 20q-14 10 -27.5 19t-24.5 9q-24 0 -41 -36q-9 -12 -23 -12q-18 0 -18 17q0 3 0.5 5.5t1.5 5.5q35 68 76 68q21 0 54 -19q32 -19 49.5 -27.5t36.5 -8.5t19 4v6l-5 27q0 13 9 22t19 9q20 0 20 -47q0 -48 -42 -65
q-15 -6 -36 -6z" />
    <glyph glyph-name="adieresis" unicode="&#xe4;" horiz-adv-x="449" 
d="M355 -2q-23 0 -42.5 24.5t-19.5 52.5q0 62 33 210q-21 -43 -49.5 -86.5t-58 -81t-54 -63.5t-36.5 -35q-25 -19 -55 -19q-57 0 -57 72q0 36 14.5 81.5t39 94.5t57 95.5t68.5 84.5q73 76 118 76q46 0 52 -40q3 -12 3 -26q5 3 11 3q23 0 23 -22v-4q0 -2 -12 -44
q-6 -21 -13.5 -59t-14.5 -83t-11.5 -89.5t-4.5 -79.5l5 -2.5t5 -3.5q6 -4 15 -11.5t9 -18.5q0 -10 -6.5 -18t-18.5 -8zM81 52q11 0 18 7q102 87 181 241q23 42 33.5 64t14 34t3.5 25q0 10 -5 18t-13 8q-9 0 -26 -9q-25 -13 -59 -48.5t-67.5 -83.5t-57.5 -101
q-37 -77 -37 -137q0 -18 15 -18zM233 603q-13 0 -20.5 17t-7.5 30q0 14 4.5 23.5t9.5 16.5q5 8 13 12.5t19 4.5t23 -12v1q16 -19 16 -34q0 -10 -10.5 -24t-24 -24.5t-22.5 -10.5zM392 609q-2 0 -8 2q-24 8 -24 33q0 24 18.5 41.5t31.5 17.5q32 0 32 -31q0 -21 -15.5 -42
t-34.5 -21z" />
    <glyph glyph-name="aring" unicode="&#xe5;" horiz-adv-x="449" 
d="M355 -2q-23 0 -42.5 24.5t-19.5 52.5q0 62 33 210q-21 -43 -49.5 -86.5t-58 -81t-54 -63.5t-36.5 -35q-25 -19 -55 -19q-57 0 -57 72q0 36 14.5 81.5t39 94.5t57 95.5t68.5 84.5q73 76 118 76q46 0 52 -40q3 -12 3 -26q5 3 11 3q23 0 23 -22v-4q0 -2 -12 -44
q-6 -21 -13.5 -59t-14.5 -83t-11.5 -89.5t-4.5 -79.5l5 -2.5t5 -3.5q6 -4 15 -11.5t9 -18.5q0 -10 -6.5 -18t-18.5 -8zM81 52q11 0 18 7q102 87 181 241q23 42 33.5 64t14 34t3.5 25q0 10 -5 18t-13 8q-9 0 -26 -9q-25 -13 -59 -48.5t-67.5 -83.5t-57.5 -101
q-37 -77 -37 -137q0 -18 15 -18zM319 564q-56 0 -83 37q-10 14 -10 34q0 36 21 67q11 14 25 23t27 9q15 0 23 -4q5 3 11 3q9 0 13 -4q54 -39 54 -88q0 -32 -23 -54.5t-58 -22.5zM324 607q29 0 29 30q0 16 -23 39h-6q-8 0 -16 5q-7 5 -15 5t-14 -10t-6 -28q0 -17 17.5 -29
t33.5 -12z" />
    <glyph glyph-name="ae" unicode="&#xe6;" horiz-adv-x="547" 
d="M356 -10q-45 0 -68.5 27t-29.5 68t-1 82q-25 -35 -51.5 -66.5t-52.5 -59.5q-39 -41 -74 -41q-34 0 -48.5 18.5t-14.5 52.5q0 36 14.5 82t39 95t57 95.5t68.5 84.5q73 76 121 76q29 0 38 -14.5t12 -31.5q51 53 103 53q31 0 48 -25t17 -59q0 -47 -21 -83.5t-55.5 -63.5
t-74 -47.5t-77.5 -35.5l-2 -77q-1 -84 51 -84q26 0 49.5 11.5t42 23t29.5 11.5q17 0 17 -18q0 -10 -14.5 -23t-36.5 -24.5t-45.5 -19t-40.5 -7.5zM314 240q28 15 57.5 30t56.5 34.5t44 49.5q10 18 14.5 44t-1 46t-28.5 20q-27 0 -58 -37q4 -7 3 -9.5t-1 -6.5l-42 -45
q-37 -75 -45 -126zM81 52q19 0 49 29t65 79t70 114t65 134q3 14 -1 27.5t-16 13.5q-18 0 -55 -30.5t-79.5 -85t-75.5 -126.5q-11 -23 -20.5 -50t-14 -51t-2 -39t14.5 -15z" />
    <glyph glyph-name="ccedilla" unicode="&#xe7;" horiz-adv-x="335" 
d="M129 -12q-34 0 -57 17.5t-34.5 45t-11.5 58.5q0 59 14.5 121t41.5 119t62 99q53 63 112 63q43 0 56 -31q2 -4 4 -9t5 -12q5 -14 10 -16q2 -4 3 -7t1 -8q0 -9 -8 -17t-19 -8q-21 0 -27 31t-33 31q-25 0 -51.5 -26.5t-50.5 -70.5t-43 -99q-28 -80 -28 -143q0 -89 65 -89
q33 0 61 31q11 12 20 22t19 10q19 0 19 -17q0 -21 -18.5 -43t-48 -37t-63.5 -15zM142 -288q-18 0 -41.5 5.5t-40.5 15t-17 21.5q0 14 8.5 20t19.5 6q50 -22 79 -22t51.5 22t22.5 52q0 34 -11.5 53t-35.5 19q-38 0 -60 -34q-7 -12 -17 -12t-15.5 7.5t-0.5 17.5l10.5 21
l19.5 39l20.5 41t13.5 25q5 8 20 8q18 0 18 -16q0 -9 -9 -24.5t-25 -45.5q31 16 57.5 6t42.5 -37.5t16 -64.5q0 -31 -14.5 -59.5t-42.5 -46t-69 -17.5z" />
    <glyph glyph-name="egrave" unicode="&#xe8;" horiz-adv-x="324" 
d="M133 -10q-34 0 -51 11.5t-28 31.5q-21 39 -21 94q0 98 29.5 184t78.5 144q48 56 105 56q31 0 48 -25t17 -59q0 -64 -33.5 -108.5t-82.5 -72.5q-24 -14 -52 -27.5t-60 -26.5l-2 -72q0 -84 51 -84q27 0 50 11.5t41 23t30 11.5q17 0 17 -18q0 -10 -14.5 -23t-36.5 -24.5
t-45.5 -19t-40.5 -7.5zM91 240q59 24 97.5 46t57.5 54t19 85q0 39 -33 39q-29 0 -68 -53q-41 -53 -66 -139q-3 -10 -5 -18t-2 -14zM244 585q-10 0 -17 7q-40 53 -58.5 86t-28.5 67q0 13 8.5 22t17.5 9q15 0 20 -17q8 -28 24 -55.5t55 -77.5q2 -3 3 -6t1 -8q0 -10 -8 -18.5
t-17 -8.5z" />
    <glyph glyph-name="eacute" unicode="&#xe9;" horiz-adv-x="324" 
d="M133 -10q-34 0 -51 11.5t-28 31.5q-21 39 -21 94q0 98 29.5 184t78.5 144q48 56 105 56q31 0 48 -25t17 -59q0 -64 -33.5 -108.5t-82.5 -72.5q-24 -14 -52 -27.5t-60 -26.5l-2 -72q0 -84 51 -84q27 0 50 11.5t41 23t30 11.5q17 0 17 -18q0 -10 -14.5 -23t-36.5 -24.5
t-45.5 -19t-40.5 -7.5zM91 240q59 24 97.5 46t57.5 54t19 85q0 39 -33 39q-29 0 -68 -53q-41 -53 -66 -139q-3 -10 -5 -18t-2 -14zM231 574q-11 0 -19.5 5.5t-8.5 17.5q0 6 11 22q16 23 38 68t41 87q8 15 36 15q19 0 19 -17q0 -3 -8 -23t-21.5 -48.5t-29 -56.5t-29.5 -46
q-8 -13 -15 -18.5t-14 -5.5z" />
    <glyph glyph-name="ecircumflex" unicode="&#xea;" horiz-adv-x="324" 
d="M133 -10q-34 0 -51 11.5t-28 31.5q-21 39 -21 94q0 98 29.5 184t78.5 144q48 56 105 56q31 0 48 -25t17 -59q0 -64 -33.5 -108.5t-82.5 -72.5q-24 -14 -52 -27.5t-60 -26.5l-2 -72q0 -84 51 -84q27 0 50 11.5t41 23t30 11.5q17 0 17 -18q0 -10 -14.5 -23t-36.5 -24.5
t-45.5 -19t-40.5 -7.5zM91 240q59 24 97.5 46t57.5 54t19 85q0 39 -33 39q-29 0 -68 -53q-41 -53 -66 -139q-3 -10 -5 -18t-2 -14zM326 578q-14 0 -31.5 17.5t-33.5 44.5t-26 55q-2 -3 -3.5 -6t-3.5 -6q-13 -28 -77 -98q-9 -6 -17 -6q-18 0 -18 16q0 17 36 56q17 20 29 35.5
t17 25.5q11 20 26.5 42t33.5 22t18 -19l-1 -12q0 -15 11 -40.5t28.5 -49.5t35.5 -37q4 -7 4 -15q0 -10 -8.5 -17.5t-19.5 -7.5z" />
    <glyph glyph-name="edieresis" unicode="&#xeb;" horiz-adv-x="324" 
d="M133 -10q-34 0 -51 11.5t-28 31.5q-21 39 -21 94q0 98 29.5 184t78.5 144q48 56 105 56q31 0 48 -25t17 -59q0 -64 -33.5 -108.5t-82.5 -72.5q-24 -14 -52 -27.5t-60 -26.5l-2 -72q0 -84 51 -84q27 0 50 11.5t41 23t30 11.5q17 0 17 -18q0 -10 -14.5 -23t-36.5 -24.5
t-45.5 -19t-40.5 -7.5zM91 240q59 24 97.5 46t57.5 54t19 85q0 39 -33 39q-29 0 -68 -53q-41 -53 -66 -139q-3 -10 -5 -18t-2 -14zM155 604q-13 0 -20.5 17t-7.5 30q0 14 4.5 23.5t9.5 16.5q5 8 13 12.5t19 4.5t23 -12v1q16 -19 16 -34q0 -10 -10.5 -24t-24 -24.5
t-22.5 -10.5zM314 610q-2 0 -8 2q-24 8 -24 33q0 24 18.5 41.5t31.5 17.5q32 0 32 -31q0 -21 -15.5 -42t-34.5 -21z" />
    <glyph glyph-name="igrave" unicode="&#xec;" horiz-adv-x="214" 
d="M65 -10q-34 0 -34 55q0 5 1 11.5t4 13.5q2 8 4.5 17t4.5 22q3 12 7 28.5t8 38.5q5 21 10 43t10 45t11 50.5t13 59.5t10.5 49.5t3.5 20.5v10q0 8 -7 33q0 12 8.5 22t20.5 10q11 0 19 -15t8 -33q0 -20 -46 -216t-46 -208q0 -11 10 -11q5 0 18 13q12 12 20 12q16 0 16 -20
q0 -13 -14.5 -25t-32.5 -19t-27 -7zM163 585q-10 0 -17 7q-40 53 -58.5 86t-28.5 67q0 13 8.5 22t17.5 9q15 0 20 -17q8 -28 24 -55.5t55 -77.5q2 -3 3 -6t1 -8q0 -10 -8 -18.5t-17 -8.5z" />
    <glyph glyph-name="iacute" unicode="&#xed;" horiz-adv-x="214" 
d="M65 -10q-34 0 -34 55q0 5 1 11.5t4 13.5q2 8 4.5 17t4.5 22q3 12 7 28.5t8 38.5q5 21 10 43t10 45t11 50.5t13 59.5t10.5 49.5t3.5 20.5v10q0 8 -7 33q0 12 8.5 22t20.5 10q11 0 19 -15t8 -33q0 -20 -46 -216t-46 -208q0 -11 10 -11q5 0 18 13q12 12 20 12q16 0 16 -20
q0 -13 -14.5 -25t-32.5 -19t-27 -7zM150 574q-11 0 -19.5 5.5t-8.5 17.5q0 6 11 22q16 23 38 68t41 87q8 15 36 15q19 0 19 -17q0 -3 -8 -23t-21.5 -48.5t-29 -56.5t-29.5 -46q-8 -13 -15 -18.5t-14 -5.5z" />
    <glyph glyph-name="icircumflex" unicode="&#xee;" horiz-adv-x="214" 
d="M65 -10q-34 0 -34 55q0 5 1 11.5t4 13.5q2 8 4.5 17t4.5 22q3 12 7 28.5t8 38.5q5 21 10 43t10 45t11 50.5t13 59.5t10.5 49.5t3.5 20.5v10q0 8 -7 33q0 12 8.5 22t20.5 10q11 0 19 -15t8 -33q0 -20 -46 -216t-46 -208q0 -11 10 -11q5 0 18 13q12 12 20 12q16 0 16 -20
q0 -13 -14.5 -25t-32.5 -19t-27 -7zM245 578q-14 0 -31.5 17.5t-33.5 44.5t-26 55q-2 -3 -3.5 -6t-3.5 -6q-13 -28 -77 -98q-9 -6 -17 -6q-18 0 -18 16q0 17 36 56q17 20 29 35.5t17 25.5q11 20 26.5 42t33.5 22t18 -19l-1 -12q0 -15 11 -40.5t28.5 -49.5t35.5 -37
q4 -7 4 -15q0 -10 -8.5 -17.5t-19.5 -7.5z" />
    <glyph glyph-name="idieresis" unicode="&#xef;" horiz-adv-x="214" 
d="M65 -10q-34 0 -34 55q0 5 1 11.5t4 13.5q2 8 4.5 17t4.5 22q3 12 7 28.5t8 38.5q5 21 10 43t10 45t11 50.5t13 59.5t10.5 49.5t3.5 20.5v10q0 8 -7 33q0 12 8.5 22t20.5 10q11 0 19 -15t8 -33q0 -20 -46 -216t-46 -208q0 -11 10 -11q5 0 18 13q12 12 20 12q16 0 16 -20
q0 -13 -14.5 -25t-32.5 -19t-27 -7zM74 604q-13 0 -20.5 17t-7.5 30q0 14 4.5 23.5t9.5 16.5q5 8 13 12.5t19 4.5t23 -12v1q16 -19 16 -34q0 -10 -10.5 -24t-24 -24.5t-22.5 -10.5zM233 610q-2 0 -8 2q-24 8 -24 33q0 24 18.5 41.5t31.5 17.5q32 0 32 -31q0 -21 -15.5 -42
t-34.5 -21z" />
    <glyph glyph-name="eth" unicode="&#xf0;" horiz-adv-x="435" 
d="M122 -9q-30 0 -49 20t-28.5 49.5t-9.5 55.5q0 150 56 253q18 32 32 52t30 34.5t37 28.5q32 21 78 21t67 -45l18 70q11 47 11 95t-21 97l-94 -49l-6 -1q-18 0 -18 19t13 29q50 18 85 38q-51 77 -157 119q-16 6 -16 20t9 18.5t16 4.5q3 0 6.5 -1t7.5 -3q5 -2 14.5 -7
t25.5 -13q32 -16 70 -45.5t64 -67.5q13 7 30.5 15.5t32 14.5t16.5 6q18 0 18 -21q0 -20 -21 -29l-54 -25q26 -61 26 -139q0 -14 -2.5 -33t-7.5 -42q-4 -22 -8 -40t-6 -30q-4 -25 -18.5 -92t-45.5 -155q-20 -58 -50 -109t-68 -82t-83 -31zM139 40q24 0 49 26.5t49 70t44 95.5
q30 80 30 141q0 62 -32 83q-12 7 -30 7q-20 0 -42.5 -18t-50.5 -60q-14 -21 -27.5 -53.5t-24.5 -69.5t-17.5 -72.5t-6.5 -63.5q0 -56 31 -78q9 -8 28 -8z" />
    <glyph glyph-name="ntilde" unicode="&#xf1;" horiz-adv-x="446" 
d="M311 -6q-32 0 -28 27l49 292q9 54 9 83q0 48 -27 48q-15 0 -36.5 -27.5t-45.5 -71.5t-48 -94.5t-44 -96.5t-33 -77.5t-16 -37.5q-18 -39 -36 -39q-10 0 -12.5 5.5t-2.5 18.5q0 5 5.5 38.5t14.5 84.5t19.5 107t20 106.5t16.5 84t9 37.5q6 12 10.5 15t17.5 3t20 -9.5
t7 -17.5q0 -13 -18.5 -68.5t-38.5 -168.5l-10 -59q5 11 11.5 25.5t13.5 30.5q10 22 25.5 58t36 75.5t42.5 71.5q44 63 82 63q67 0 67 -108q0 -40 -13 -100.5t-24 -132.5q-6 -40 -11.5 -78.5t-12.5 -63t-19 -24.5zM341 610q-22 0 -38 9t-30 20q-14 10 -27.5 19t-24.5 9
q-24 0 -41 -36q-9 -12 -23 -12q-18 0 -18 17q0 3 0.5 5.5t1.5 5.5q35 68 76 68q21 0 54 -19q32 -19 49.5 -27.5t36.5 -8.5t19 4v6l-5 27q0 13 9 22t19 9q20 0 20 -47q0 -48 -42 -65q-15 -6 -36 -6z" />
    <glyph glyph-name="ograve" unicode="&#xf2;" horiz-adv-x="381" 
d="M133 -9q-37 0 -59.5 20.5t-33 52.5t-10.5 66q0 91 30.5 176.5t83.5 141.5q51 57 115 57q92 0 92 -140q0 -54 -13.5 -109t-36.5 -104t-51 -86t-57 -56q-30 -19 -60 -19zM141 36q21 0 45.5 25t48 67.5t40.5 95.5q27 80 27 136q0 58 -7 72q-6 15 -14.5 21t-28.5 6
q-21 0 -44 -16q-46 -29 -80 -100q-53 -106 -53 -206q0 -68 39 -94q6 -3 12.5 -5t14.5 -2zM268 585q-10 0 -17 7q-40 53 -58.5 86t-28.5 67q0 13 8.5 22t17.5 9q15 0 20 -17q8 -28 24 -55.5t55 -77.5q2 -3 3 -6t1 -8q0 -10 -8 -18.5t-17 -8.5z" />
    <glyph glyph-name="oacute" unicode="&#xf3;" horiz-adv-x="381" 
d="M133 -9q-37 0 -59.5 20.5t-33 52.5t-10.5 66q0 91 30.5 176.5t83.5 141.5q51 57 115 57q92 0 92 -140q0 -54 -13.5 -109t-36.5 -104t-51 -86t-57 -56q-30 -19 -60 -19zM141 36q21 0 45.5 25t48 67.5t40.5 95.5q27 80 27 136q0 58 -7 72q-6 15 -14.5 21t-28.5 6
q-21 0 -44 -16q-46 -29 -80 -100q-53 -106 -53 -206q0 -68 39 -94q6 -3 12.5 -5t14.5 -2zM255 574q-11 0 -19.5 5.5t-8.5 17.5q0 6 11 22q16 23 38 68t41 87q8 15 36 15q19 0 19 -17q0 -3 -8 -23t-21.5 -48.5t-29 -56.5t-29.5 -46q-8 -13 -15 -18.5t-14 -5.5z" />
    <glyph glyph-name="ocircumflex" unicode="&#xf4;" horiz-adv-x="381" 
d="M133 -9q-37 0 -59.5 20.5t-33 52.5t-10.5 66q0 91 30.5 176.5t83.5 141.5q51 57 115 57q92 0 92 -140q0 -54 -13.5 -109t-36.5 -104t-51 -86t-57 -56q-30 -19 -60 -19zM141 36q21 0 45.5 25t48 67.5t40.5 95.5q27 80 27 136q0 58 -7 72q-6 15 -14.5 21t-28.5 6
q-21 0 -44 -16q-46 -29 -80 -100q-53 -106 -53 -206q0 -68 39 -94q6 -3 12.5 -5t14.5 -2zM350 578q-14 0 -31.5 17.5t-33.5 44.5t-26 55q-2 -3 -3.5 -6t-3.5 -6q-13 -28 -77 -98q-9 -6 -17 -6q-18 0 -18 16q0 17 36 56q17 20 29 35.5t17 25.5q11 20 26.5 42t33.5 22t18 -19
l-1 -12q0 -15 11 -40.5t28.5 -49.5t35.5 -37q4 -7 4 -15q0 -10 -8.5 -17.5t-19.5 -7.5z" />
    <glyph glyph-name="otilde" unicode="&#xf5;" horiz-adv-x="381" 
d="M133 -9q-37 0 -59.5 20.5t-33 52.5t-10.5 66q0 91 30.5 176.5t83.5 141.5q51 57 115 57q92 0 92 -140q0 -54 -13.5 -109t-36.5 -104t-51 -86t-57 -56q-30 -19 -60 -19zM141 36q21 0 45.5 25t48 67.5t40.5 95.5q27 80 27 136q0 58 -7 72q-6 15 -14.5 21t-28.5 6
q-21 0 -44 -16q-46 -29 -80 -100q-53 -106 -53 -206q0 -68 39 -94q6 -3 12.5 -5t14.5 -2zM341 610q-22 0 -38 9t-30 20q-14 10 -27.5 19t-24.5 9q-24 0 -41 -36q-9 -12 -23 -12q-18 0 -18 17q0 3 0.5 5.5t1.5 5.5q35 68 76 68q21 0 54 -19q32 -19 49.5 -27.5t36.5 -8.5t19 4
v6l-5 27q0 13 9 22t19 9q20 0 20 -47q0 -48 -42 -65q-15 -6 -36 -6z" />
    <glyph glyph-name="odieresis" unicode="&#xf6;" horiz-adv-x="381" 
d="M133 -9q-37 0 -59.5 20.5t-33 52.5t-10.5 66q0 91 30.5 176.5t83.5 141.5q51 57 115 57q92 0 92 -140q0 -54 -13.5 -109t-36.5 -104t-51 -86t-57 -56q-30 -19 -60 -19zM141 36q21 0 45.5 25t48 67.5t40.5 95.5q27 80 27 136q0 58 -7 72q-6 15 -14.5 21t-28.5 6
q-21 0 -44 -16q-46 -29 -80 -100q-53 -106 -53 -206q0 -68 39 -94q6 -3 12.5 -5t14.5 -2zM179 604q-13 0 -20.5 17t-7.5 30q0 14 4.5 23.5t9.5 16.5q5 8 13 12.5t19 4.5t23 -12v1q16 -19 16 -34q0 -10 -10.5 -24t-24 -24.5t-22.5 -10.5zM338 610q-2 0 -8 2q-24 8 -24 33
q0 24 18.5 41.5t31.5 17.5q32 0 32 -31q0 -21 -15.5 -42t-34.5 -21z" />
    <glyph glyph-name="divide" unicode="&#xf7;" horiz-adv-x="438" 
d="M226 455q-40 0 -40 32q0 19 11 38.5t26.5 32.5t27.5 13q20 0 35.5 -13t15.5 -29q0 -28 -36 -57q-20 -17 -40 -17zM382 293l-334 6q-18 2 -18 13q0 18 22 28q7 5 35.5 5.5t67.5 -0.5t77 -3q42 -1 83.5 -2t83.5 -1q13 -3 13 -13t-9.5 -19.5t-20.5 -13.5zM139 100
q-22 3 -27.5 16t-5.5 44q0 18 16.5 32.5t36.5 14.5t38 -12.5t18 -28.5q0 -15 -13 -31q-25 -30 -63 -35z" />
    <glyph glyph-name="oslash" unicode="&#xf8;" horiz-adv-x="378" 
d="M17 -60q-15 2 -11 15q1 3 13.5 25t32.5 57q-11 20 -16.5 44t-5.5 49q0 91 30.5 176.5t83.5 141.5q51 57 115 57q25 0 43 -10q17 30 24.5 44.5t11.5 18.5t10 4q19 0 17 -16l-36 -77q22 -35 22 -104q0 -54 -13.5 -109t-36.5 -104t-51 -86t-57 -56q-30 -19 -60 -19
q-33 0 -57 19q-21 -33 -31.5 -48t-16.5 -18.5t-11 -3.5zM75 137q0 -28 7 -49q26 46 56 98.5t58.5 103.5t51 93.5t33.5 68.5q-9 7 -29 7q-21 0 -44 -16q-46 -29 -80 -100q-53 -106 -53 -206zM141 36q21 0 45.5 25t48 67.5t40.5 95.5q27 80 27 136q0 31 -2 49q-17 -33 -44 -82
t-57 -102t-56 -99t-42 -73q6 -5 13 -10q6 -3 12.5 -5t14.5 -2z" />
    <glyph glyph-name="ugrave" unicode="&#xf9;" horiz-adv-x="425" 
d="M292 -24q-30 0 -30 80q0 56 12.5 115t24.5 115q-10 -20 -20 -41t-20 -43q-12 -24 -30 -59t-40.5 -70t-46.5 -58t-48 -23q-54 0 -54 107q0 68 11 146t32 165l16 61q9 33 31 33q12 0 17 -17q-3 -28 -12 -62t-19.5 -80.5t-19 -109.5t-10.5 -149q0 -40 13 -40q37 0 130 180
q6 12 19.5 42t32 66.5t37.5 70.5t36.5 56.5t28.5 22.5q17 0 17 -19q0 -11 -10 -39t-22 -59t-18 -52q-18 -62 -28.5 -127.5t-15.5 -134.5q0 -18 4.5 -24.5t9 -10.5t4.5 -15q0 -10 -11.5 -18.5t-20.5 -8.5zM283 585q-10 0 -17 7q-40 53 -58.5 86t-28.5 67q0 13 8.5 22t17.5 9
q15 0 20 -17q8 -28 24 -55.5t55 -77.5q2 -3 3 -6t1 -8q0 -10 -8 -18.5t-17 -8.5z" />
    <glyph glyph-name="uacute" unicode="&#xfa;" horiz-adv-x="425" 
d="M292 -24q-30 0 -30 80q0 56 12.5 115t24.5 115q-10 -20 -20 -41t-20 -43q-12 -24 -30 -59t-40.5 -70t-46.5 -58t-48 -23q-54 0 -54 107q0 68 11 146t32 165l16 61q9 33 31 33q12 0 17 -17q-3 -28 -12 -62t-19.5 -80.5t-19 -109.5t-10.5 -149q0 -40 13 -40q37 0 130 180
q6 12 19.5 42t32 66.5t37.5 70.5t36.5 56.5t28.5 22.5q17 0 17 -19q0 -11 -10 -39t-22 -59t-18 -52q-18 -62 -28.5 -127.5t-15.5 -134.5q0 -18 4.5 -24.5t9 -10.5t4.5 -15q0 -10 -11.5 -18.5t-20.5 -8.5zM270 574q-11 0 -19.5 5.5t-8.5 17.5q0 6 11 22q16 23 38 68t41 87
q8 15 36 15q19 0 19 -17q0 -3 -8 -23t-21.5 -48.5t-29 -56.5t-29.5 -46q-8 -13 -15 -18.5t-14 -5.5z" />
    <glyph glyph-name="ucircumflex" unicode="&#xfb;" horiz-adv-x="425" 
d="M292 -24q-30 0 -30 80q0 56 12.5 115t24.5 115q-10 -20 -20 -41t-20 -43q-12 -24 -30 -59t-40.5 -70t-46.5 -58t-48 -23q-54 0 -54 107q0 68 11 146t32 165l16 61q9 33 31 33q12 0 17 -17q-3 -28 -12 -62t-19.5 -80.5t-19 -109.5t-10.5 -149q0 -40 13 -40q37 0 130 180
q6 12 19.5 42t32 66.5t37.5 70.5t36.5 56.5t28.5 22.5q17 0 17 -19q0 -11 -10 -39t-22 -59t-18 -52q-18 -62 -28.5 -127.5t-15.5 -134.5q0 -18 4.5 -24.5t9 -10.5t4.5 -15q0 -10 -11.5 -18.5t-20.5 -8.5zM365 578q-14 0 -31.5 17.5t-33.5 44.5t-26 55q-2 -3 -3.5 -6t-3.5 -6
q-13 -28 -77 -98q-9 -6 -17 -6q-18 0 -18 16q0 17 36 56q17 20 29 35.5t17 25.5q11 20 26.5 42t33.5 22t18 -19l-1 -12q0 -15 11 -40.5t28.5 -49.5t35.5 -37q4 -7 4 -15q0 -10 -8.5 -17.5t-19.5 -7.5z" />
    <glyph glyph-name="udieresis" unicode="&#xfc;" horiz-adv-x="425" 
d="M292 -24q-30 0 -30 80q0 56 12.5 115t24.5 115q-10 -20 -20 -41t-20 -43q-12 -24 -30 -59t-40.5 -70t-46.5 -58t-48 -23q-54 0 -54 107q0 68 11 146t32 165l16 61q9 33 31 33q12 0 17 -17q-3 -28 -12 -62t-19.5 -80.5t-19 -109.5t-10.5 -149q0 -40 13 -40q37 0 130 180
q6 12 19.5 42t32 66.5t37.5 70.5t36.5 56.5t28.5 22.5q17 0 17 -19q0 -11 -10 -39t-22 -59t-18 -52q-18 -62 -28.5 -127.5t-15.5 -134.5q0 -18 4.5 -24.5t9 -10.5t4.5 -15q0 -10 -11.5 -18.5t-20.5 -8.5zM194 604q-13 0 -20.5 17t-7.5 30q0 14 4.5 23.5t9.5 16.5
q5 8 13 12.5t19 4.5t23 -12v1q16 -19 16 -34q0 -10 -10.5 -24t-24 -24.5t-22.5 -10.5zM353 610q-2 0 -8 2q-24 8 -24 33q0 24 18.5 41.5t31.5 17.5q32 0 32 -31q0 -21 -15.5 -42t-34.5 -21z" />
    <glyph glyph-name="yacute" unicode="&#xfd;" horiz-adv-x="420" 
d="M76 -417q-34 0 -58 17.5t-36.5 43.5t-12.5 49q0 35 9 61t24 48t35.5 40t44.5 35q28 20 40 28.5t16 11t6 3.5t8.5 6t24 18l52.5 39q2 11 11.5 42t25.5 82t25.5 81.5t11.5 40.5q-43 -125 -103 -191q-40 -46 -78 -46q-37 0 -61 30t-24 84q0 84 48 265q24 90 24 97
q-3 14 2 20q14 19 33 19t19 -20q0 -9 -9 -51t-28 -117t-28 -125.5t-9 -75.5q0 -52 13 -65q12 -13 30 -13q38 0 81 64q21 32 39.5 79t33.5 97t25.5 92.5t16.5 64.5q11 45 19 56q8 12 24 12t16 -12q0 -6 -10.5 -57t-32.5 -147t-37 -162.5t-23 -101.5q20 17 35 32t26.5 25.5
t20.5 10.5q19 0 19 -17q0 -9 -8 -20q-54 -48 -104 -86q-14 -78 -29.5 -148t-37 -123.5t-52.5 -84.5t-78 -31zM77 -369q26 0 45.5 21.5t34 54t24.5 65.5q3 9 7.5 28t9.5 37t6 23l13 65q-39 -30 -76 -55q-24 -16 -52.5 -38.5t-48.5 -53.5t-20 -75q0 -40 27 -63q11 -9 30 -9z
M250 574q-11 0 -19.5 5.5t-8.5 17.5q0 6 11 22q16 23 38 68t41 87q8 15 36 15q19 0 19 -17q0 -3 -8 -23t-21.5 -48.5t-29 -56.5t-29.5 -46q-8 -13 -15 -18.5t-14 -5.5z" />
    <glyph glyph-name="thorn" unicode="&#xfe;" horiz-adv-x="419" 
d="M-24 -414q-19 0 -19 22q0 10 1.5 23t6 40t14.5 76t26.5 129.5t42 201.5t61.5 291.5t84 400.5q5 14 10 19t17 5q20 0 20 -27q0 -2 -6 -28t-14 -66t-17.5 -84t-18 -83.5t-13.5 -64.5t-5 -26q58 94 127 94q22 0 41 -15t33 -39t21.5 -50t7.5 -48q0 -58 -10.5 -115.5
t-31 -107.5t-50.5 -86q-52 -64 -128 -64q-28 0 -49 14t-34 47q-24 -108 -46.5 -215.5t-43.5 -219.5q-2 -11 -11 -17.5t-16 -6.5zM189 28q41 0 81 48.5t60 124.5q20 78 20 126q0 59 -18.5 96t-46.5 37q-24 0 -48 -20.5t-44.5 -53t-35 -68t-19.5 -65.5l-21 -118q-7 -34 3 -58
t30 -36.5t39 -12.5z" />
    <glyph glyph-name="ydieresis" unicode="&#xff;" horiz-adv-x="420" 
d="M76 -417q-34 0 -58 17.5t-36.5 43.5t-12.5 49q0 35 9 61t24 48t35.5 40t44.5 35q28 20 40 28.5t16 11t6 3.5t8.5 6t24 18l52.5 39q2 11 11.5 42t25.5 82t25.5 81.5t11.5 40.5q-43 -125 -103 -191q-40 -46 -78 -46q-37 0 -61 30t-24 84q0 84 48 265q24 90 24 97
q-3 14 2 20q14 19 33 19t19 -20q0 -9 -9 -51t-28 -117t-28 -125.5t-9 -75.5q0 -52 13 -65q12 -13 30 -13q38 0 81 64q21 32 39.5 79t33.5 97t25.5 92.5t16.5 64.5q11 45 19 56q8 12 24 12t16 -12q0 -6 -10.5 -57t-32.5 -147t-37 -162.5t-23 -101.5q20 17 35 32t26.5 25.5
t20.5 10.5q19 0 19 -17q0 -9 -8 -20q-54 -48 -104 -86q-14 -78 -29.5 -148t-37 -123.5t-52.5 -84.5t-78 -31zM77 -369q26 0 45.5 21.5t34 54t24.5 65.5q3 9 7.5 28t9.5 37t6 23l13 65q-39 -30 -76 -55q-24 -16 -52.5 -38.5t-48.5 -53.5t-20 -75q0 -40 27 -63q11 -9 30 -9z
M174 604q-13 0 -20.5 17t-7.5 30q0 14 4.5 23.5t9.5 16.5q5 8 13 12.5t19 4.5t23 -12v1q16 -19 16 -34q0 -10 -10.5 -24t-24 -24.5t-22.5 -10.5zM333 610q-2 0 -8 2q-24 8 -24 33q0 24 18.5 41.5t31.5 17.5q32 0 32 -31q0 -21 -15.5 -42t-34.5 -21z" />
    <glyph glyph-name="Amacron" unicode="&#x100;" horiz-adv-x="702" 
d="M575 -3q-10 0 -17.5 14.5t-12.5 36.5q-7 37 -11 85t-13 121q-51 5 -94 6.5t-85.5 2t-90.5 1.5q-129 -194 -243 -247q-38 -19 -60 -19q-26 0 -26 25q0 13 9 22t18 9t15 -8q74 29 128 85t110 134q-33 2 -62 3t-47 5t-18 16q0 11 9 20t19 10q20 -3 52 -5t78 -4
q34 51 73.5 117.5t79.5 139t75 144.5t60 134.5t35 107.5q10 24 30 24q7 0 12.5 -9t7.5 -20t-5 -19q-7 -25 -14 -70t-13 -98.5t-11 -107t-8 -97t-3 -66.5q0 -79 12 -193q41 -5 55.5 -8.5t14.5 -19.5q0 -9 -9 -17.5t-20 -7.5l-34 4q0 -3 2.5 -27.5t7 -58t8.5 -66.5t7.5 -55
t4.5 -20v3v-3q-2 -10 -9.5 -17t-16.5 -7zM516 302q-4 32 -6 77t-2 100q0 113 21 272q-30 -61 -63.5 -125t-67.5 -123.5t-64 -109.5t-52 -84q35 0 76 -0.5t82.5 -2t75.5 -4.5zM579 1075q-28 2 -45.5 8t-17.5 22q0 13 8.5 19.5t20.5 4.5q33 -4 58 -6t48 -2.5t51 0.5t68 4
q16 -6 16 -18q0 -20 -27 -28q-11 -3 -36 -4t-54 -1t-53.5 0.5t-36.5 0.5z" />
    <glyph glyph-name="amacron" unicode="&#x101;" horiz-adv-x="449" 
d="M355 -2q-23 0 -42.5 24.5t-19.5 52.5q0 62 33 210q-21 -43 -49.5 -86.5t-58 -81t-54 -63.5t-36.5 -35q-25 -19 -55 -19q-57 0 -57 72q0 36 14.5 81.5t39 94.5t57 95.5t68.5 84.5q73 76 118 76q46 0 52 -40q3 -12 3 -26q5 3 11 3q23 0 23 -22v-4q0 -2 -12 -44
q-6 -21 -13.5 -59t-14.5 -83t-11.5 -89.5t-4.5 -79.5l5 -2.5t5 -3.5q6 -4 15 -11.5t9 -18.5q0 -10 -6.5 -18t-18.5 -8zM81 52q11 0 18 7q102 87 181 241q23 42 33.5 64t14 34t3.5 25q0 10 -5 18t-13 8q-9 0 -26 -9q-25 -13 -59 -48.5t-67.5 -83.5t-57.5 -101
q-37 -77 -37 -137q0 -18 15 -18zM276 593q-28 2 -45.5 8t-17.5 22q0 13 8.5 19.5t20.5 4.5q33 -4 58 -6t48 -2.5t51 0.5t68 4q16 -6 16 -18q0 -20 -27 -28q-11 -3 -36 -4t-54 -1t-53.5 0.5t-36.5 0.5z" />
    <glyph glyph-name="Abreve" unicode="&#x102;" horiz-adv-x="702" 
d="M575 -3q-10 0 -17.5 14.5t-12.5 36.5q-7 37 -11 85t-13 121q-51 5 -94 6.5t-85.5 2t-90.5 1.5q-129 -194 -243 -247q-38 -19 -60 -19q-26 0 -26 25q0 13 9 22t18 9t15 -8q74 29 128 85t110 134q-33 2 -62 3t-47 5t-18 16q0 11 9 20t19 10q20 -3 52 -5t78 -4
q34 51 73.5 117.5t79.5 139t75 144.5t60 134.5t35 107.5q10 24 30 24q7 0 12.5 -9t7.5 -20t-5 -19q-7 -25 -14 -70t-13 -98.5t-11 -107t-8 -97t-3 -66.5q0 -79 12 -193q41 -5 55.5 -8.5t14.5 -19.5q0 -9 -9 -17.5t-20 -7.5l-34 4q0 -3 2.5 -27.5t7 -58t8.5 -66.5t7.5 -55
t4.5 -20v3v-3q-2 -10 -9.5 -17t-16.5 -7zM516 302q-4 32 -6 77t-2 100q0 113 21 272q-30 -61 -63.5 -125t-67.5 -123.5t-64 -109.5t-52 -84q35 0 76 -0.5t82.5 -2t75.5 -4.5zM617 1037q-47 0 -73 40t-26 102q0 13 7.5 22t15.5 9t12 -10q1 -5 3 -18.5t5 -35.5q8 -64 50 -64
q50 0 85.5 36.5t68.5 92.5q7 8 16 8q13 0 13 -17q0 -9 -3 -14q-38 -66 -82.5 -108.5t-91.5 -42.5z" />
    <glyph glyph-name="abreve" unicode="&#x103;" horiz-adv-x="449" 
d="M355 -2q-23 0 -42.5 24.5t-19.5 52.5q0 62 33 210q-21 -43 -49.5 -86.5t-58 -81t-54 -63.5t-36.5 -35q-25 -19 -55 -19q-57 0 -57 72q0 36 14.5 81.5t39 94.5t57 95.5t68.5 84.5q73 76 118 76q46 0 52 -40q3 -12 3 -26q5 3 11 3q23 0 23 -22v-4q0 -2 -12 -44
q-6 -21 -13.5 -59t-14.5 -83t-11.5 -89.5t-4.5 -79.5l5 -2.5t5 -3.5q6 -4 15 -11.5t9 -18.5q0 -10 -6.5 -18t-18.5 -8zM81 52q11 0 18 7q102 87 181 241q23 42 33.5 64t14 34t3.5 25q0 10 -5 18t-13 8q-9 0 -26 -9q-25 -13 -59 -48.5t-67.5 -83.5t-57.5 -101
q-37 -77 -37 -137q0 -18 15 -18zM320 579q-47 0 -73 40t-26 102q0 13 7.5 22t15.5 9t12 -10q1 -5 3 -18.5t5 -35.5q8 -64 50 -64q50 0 85.5 36.5t68.5 92.5q7 8 16 8q13 0 13 -17q0 -9 -3 -14q-38 -66 -82.5 -108.5t-91.5 -42.5z" />
    <glyph glyph-name="Aogonek" unicode="&#x104;" horiz-adv-x="702" 
d="M575 -3q-10 0 -17.5 14.5t-12.5 36.5q-7 37 -11 85t-13 121q-51 5 -94 6.5t-85.5 2t-90.5 1.5q-129 -194 -243 -247q-38 -19 -60 -19q-26 0 -26 25q0 13 9 22t18 9t15 -8q74 29 128 85t110 134q-33 2 -62 3t-47 5t-18 16q0 11 9 20t19 10q20 -3 52 -5t78 -4
q34 51 73.5 117.5t79.5 139t75 144.5t60 134.5t35 107.5q10 24 30 24q7 0 12.5 -9t7.5 -20t-5 -19q-7 -25 -14 -70t-13 -98.5t-11 -107t-8 -97t-3 -66.5q0 -79 12 -193q41 -5 55.5 -8.5t14.5 -19.5q0 -9 -9 -17.5t-20 -7.5l-34 4q0 -3 2.5 -27.5t7 -58t8.5 -66.5t7.5 -55
t4.5 -20v3v-3q-2 -10 -9.5 -17t-16.5 -7zM516 302q-4 32 -6 77t-2 100q0 113 21 272q-30 -61 -63.5 -125t-67.5 -123.5t-64 -109.5t-52 -84q35 0 76 -0.5t82.5 -2t75.5 -4.5zM608 5q5 -39 -21 -62t-70 -44q-29 -14 -42 -29t-13 -43q0 -16 7 -24.5t25 -8.5q15 0 27 3.5
t29 17.5q23 18 30 18q18 0 18 -21q0 -10 -11.5 -24t-31.5 -25q-31 -15 -61 -15q-40 0 -58 23t-18 54q0 32 14 58.5t57 48.5q30 15 49.5 23.5t29.5 18.5t8 27q-3 24 14 24q15 0 18 -20z" />
    <glyph glyph-name="aogonek" unicode="&#x105;" horiz-adv-x="449" 
d="M355 -2q-23 0 -42.5 24.5t-19.5 52.5q0 62 33 210q-21 -43 -49.5 -86.5t-58 -81t-54 -63.5t-36.5 -35q-25 -19 -55 -19q-57 0 -57 72q0 36 14.5 81.5t39 94.5t57 95.5t68.5 84.5q73 76 118 76q46 0 52 -40q3 -12 3 -26q5 3 11 3q23 0 23 -22v-4q0 -2 -12 -44
q-6 -21 -13.5 -59t-14.5 -83t-11.5 -89.5t-4.5 -79.5l5 -2.5t5 -3.5q6 -4 15 -11.5t9 -18.5q0 -10 -6.5 -18t-18.5 -8zM81 52q11 0 18 7q102 87 181 241q23 42 33.5 64t14 34t3.5 25q0 10 -5 18t-13 8q-9 0 -26 -9q-25 -13 -59 -48.5t-67.5 -83.5t-57.5 -101
q-37 -77 -37 -137q0 -18 15 -18zM382 9q5 -39 -21 -62t-70 -44q-29 -14 -42 -29t-13 -43q0 -16 7 -24.5t25 -8.5q15 0 27 3.5t29 17.5q23 18 30 18q18 0 18 -21q0 -10 -11.5 -24t-31.5 -25q-31 -15 -61 -15q-40 0 -58 23t-18 54q0 32 14 58.5t57 48.5q30 15 49.5 23.5
t29.5 18.5t8 27q-3 24 14 24q15 0 18 -20z" />
    <glyph glyph-name="Cacute" unicode="&#x106;" horiz-adv-x="544" 
d="M240 -15q-50 0 -88 27t-63.5 70t-38 92.5t-12.5 93.5q0 56 12 126.5t35 149t56 156.5t75 140t90.5 98t100.5 36q39 0 72.5 -18t59 -47.5t39.5 -64t14 -68.5q-3 -20 -14 -26t-22 3.5t-14 32.5q-7 62 -44 101t-92 39q-54 0 -116 -74q-33 -39 -63 -94.5t-55 -118.5t-44 -127
t-29 -121t-10 -98q0 -69 17.5 -128t52.5 -95t89 -36q60 0 137 56q17 12 32.5 23.5t23.5 11.5q17 0 17 -18q0 -17 -21 -30t-40 -28q-85 -64 -157 -64zM449 1030q-23 0 -23 23q0 6 11 22q11 14 23 36.5t23 45.5q6 11 11.5 23t10.5 23q6 11 11.5 22.5t10.5 22.5q11 15 25 15
q18 0 18 -17q0 -9 -7 -22q-4 -7 -8.5 -16.5t-10.5 -20.5q-10 -23 -29 -62t-44 -71q-1 -10 -8.5 -17t-13.5 -7z" />
    <glyph glyph-name="cacute" unicode="&#x107;" horiz-adv-x="335" 
d="M129 -12q-34 0 -57 17.5t-34.5 45t-11.5 58.5q0 59 14.5 121t41.5 119t62 99q53 63 112 63q43 0 56 -31q2 -4 4 -9t5 -12q5 -14 10 -16q2 -4 3 -7t1 -8q0 -9 -8 -17t-19 -8q-21 0 -27 31t-33 31q-25 0 -51.5 -26.5t-50.5 -70.5t-43 -99q-28 -80 -28 -143q0 -89 65 -89
q33 0 61 31q11 12 20 22t19 10q19 0 19 -17q0 -21 -18.5 -43t-48 -37t-63.5 -15zM251 574q-11 0 -19.5 5.5t-8.5 17.5q0 6 11 22q16 23 38 68t41 87q8 15 36 15q19 0 19 -17q0 -3 -8 -23t-21.5 -48.5t-29 -56.5t-29.5 -46q-8 -13 -15 -18.5t-14 -5.5z" />
    <glyph glyph-name="Ccircumflex" unicode="&#x108;" horiz-adv-x="544" 
d="M240 -15q-50 0 -88 27t-63.5 70t-38 92.5t-12.5 93.5q0 56 12 126.5t35 149t56 156.5t75 140t90.5 98t100.5 36q39 0 72.5 -18t59 -47.5t39.5 -64t14 -68.5q-3 -20 -14 -26t-22 3.5t-14 32.5q-7 62 -44 101t-92 39q-54 0 -116 -74q-33 -39 -63 -94.5t-55 -118.5t-44 -127
t-29 -121t-10 -98q0 -69 17.5 -128t52.5 -95t89 -36q60 0 137 56q17 12 32.5 23.5t23.5 11.5q17 0 17 -18q0 -17 -21 -30t-40 -28q-85 -64 -157 -64zM550 1033q-14 0 -31.5 17.5t-33.5 44.5t-26 55q-2 -3 -3.5 -6t-3.5 -6q-13 -28 -77 -98q-9 -6 -17 -6q-18 0 -18 16
q0 17 36 56q17 20 29 35.5t17 25.5q11 20 26.5 42t33.5 22t18 -19l-1 -12q0 -15 11 -40.5t28.5 -49.5t35.5 -37q4 -7 4 -15q0 -10 -8.5 -17.5t-19.5 -7.5z" />
    <glyph glyph-name="ccircumflex" unicode="&#x109;" horiz-adv-x="335" 
d="M129 -12q-34 0 -57 17.5t-34.5 45t-11.5 58.5q0 59 14.5 121t41.5 119t62 99q53 63 112 63q43 0 56 -31q2 -4 4 -9t5 -12q5 -14 10 -16q2 -4 3 -7t1 -8q0 -9 -8 -17t-19 -8q-21 0 -27 31t-33 31q-25 0 -51.5 -26.5t-50.5 -70.5t-43 -99q-28 -80 -28 -143q0 -89 65 -89
q33 0 61 31q11 12 20 22t19 10q19 0 19 -17q0 -21 -18.5 -43t-48 -37t-63.5 -15zM346 578q-14 0 -31.5 17.5t-33.5 44.5t-26 55q-2 -3 -3.5 -6t-3.5 -6q-13 -28 -77 -98q-9 -6 -17 -6q-18 0 -18 16q0 17 36 56q17 20 29 35.5t17 25.5q11 20 26.5 42t33.5 22t18 -19l-1 -12
q0 -15 11 -40.5t28.5 -49.5t35.5 -37q4 -7 4 -15q0 -10 -8.5 -17.5t-19.5 -7.5z" />
    <glyph glyph-name="Cdotaccent" unicode="&#x10a;" horiz-adv-x="544" 
d="M240 -15q-50 0 -88 27t-63.5 70t-38 92.5t-12.5 93.5q0 56 12 126.5t35 149t56 156.5t75 140t90.5 98t100.5 36q39 0 72.5 -18t59 -47.5t39.5 -64t14 -68.5q-3 -20 -14 -26t-22 3.5t-14 32.5q-7 62 -44 101t-92 39q-54 0 -116 -74q-33 -39 -63 -94.5t-55 -118.5t-44 -127
t-29 -121t-10 -98q0 -69 17.5 -128t52.5 -95t89 -36q60 0 137 56q17 12 32.5 23.5t23.5 11.5q17 0 17 -18q0 -17 -21 -30t-40 -28q-85 -64 -157 -64zM471 1049q-16 0 -24 4h-4q-29 0 -29 34q0 17 14.5 31t31.5 14t32 -12q17 -17 17 -33t-12 -27t-26 -11z" />
    <glyph glyph-name="cdotaccent" unicode="&#x10b;" horiz-adv-x="335" 
d="M129 -12q-34 0 -57 17.5t-34.5 45t-11.5 58.5q0 59 14.5 121t41.5 119t62 99q53 63 112 63q43 0 56 -31q2 -4 4 -9t5 -12q5 -14 10 -16q2 -4 3 -7t1 -8q0 -9 -8 -17t-19 -8q-21 0 -27 31t-33 31q-25 0 -51.5 -26.5t-50.5 -70.5t-43 -99q-28 -80 -28 -143q0 -89 65 -89
q33 0 61 31q11 12 20 22t19 10q19 0 19 -17q0 -21 -18.5 -43t-48 -37t-63.5 -15zM267 594q-16 0 -24 4h-4q-29 0 -29 34q0 17 14.5 31t31.5 14t32 -12q17 -17 17 -33t-12 -27t-26 -11z" />
    <glyph glyph-name="Ccaron" unicode="&#x10c;" horiz-adv-x="544" 
d="M240 -15q-50 0 -88 27t-63.5 70t-38 92.5t-12.5 93.5q0 56 12 126.5t35 149t56 156.5t75 140t90.5 98t100.5 36q39 0 72.5 -18t59 -47.5t39.5 -64t14 -68.5q-3 -20 -14 -26t-22 3.5t-14 32.5q-7 62 -44 101t-92 39q-54 0 -116 -74q-33 -39 -63 -94.5t-55 -118.5t-44 -127
t-29 -121t-10 -98q0 -69 17.5 -128t52.5 -95t89 -36q60 0 137 56q17 12 32.5 23.5t23.5 11.5q17 0 17 -18q0 -17 -21 -30t-40 -28q-85 -64 -157 -64zM462 1025q-11 0 -17 11t-16 29q-36 70 -75 89q-12 6 -19.5 10.5t-7.5 14.5t9 17.5t22 7.5q18 0 37.5 -17t39 -42.5
t35.5 -53.5q18 29 29.5 46t27.5 34.5t46 47.5q10 8 19 8q18 0 18 -17q0 -10 -8 -20q-33 -33 -50 -52.5t-28 -36.5t-27 -44q-8 -15 -16 -23.5t-19 -8.5z" />
    <glyph glyph-name="ccaron" unicode="&#x10d;" horiz-adv-x="335" 
d="M129 -12q-34 0 -57 17.5t-34.5 45t-11.5 58.5q0 59 14.5 121t41.5 119t62 99q53 63 112 63q43 0 56 -31q2 -4 4 -9t5 -12q5 -14 10 -16q2 -4 3 -7t1 -8q0 -9 -8 -17t-19 -8q-21 0 -27 31t-33 31q-25 0 -51.5 -26.5t-50.5 -70.5t-43 -99q-28 -80 -28 -143q0 -89 65 -89
q33 0 61 31q11 12 20 22t19 10q19 0 19 -17q0 -21 -18.5 -43t-48 -37t-63.5 -15zM258 570q-11 0 -17 11t-16 29q-36 70 -75 89q-12 6 -19.5 10.5t-7.5 14.5t9 17.5t22 7.5q18 0 37.5 -17t39 -42.5t35.5 -53.5q18 29 29.5 46t27.5 34.5t46 47.5q10 8 19 8q18 0 18 -17
q0 -10 -8 -20q-33 -33 -50 -52.5t-28 -36.5t-27 -44q-8 -15 -16 -23.5t-19 -8.5z" />
    <glyph glyph-name="Dcaron" unicode="&#x10e;" horiz-adv-x="711" 
d="M83 -55q-19 0 -19 14.5t1 33.5q-22 5 -43.5 8.5t-36 11t-14.5 24.5q0 5 5.5 11.5t10.5 6.5q16 0 24 -5t20.5 -10t39.5 -5q56 274 110.5 489.5t106.5 371.5q-49 -17 -80.5 -35.5t-40.5 -18.5q-18 0 -18 18q0 14 13 23q36 23 72 39t73 26q8 13 18 13t14 -5q110 24 190 -4
t123 -108t43 -216q0 -141 -31.5 -246t-87 -179.5t-127 -120.5t-151.5 -69q-44 -13 -90 -18t-96 -5q-4 -45 -29 -45zM120 33q140 0 240 48t164 130.5t94 187t30 217.5q0 99 -25 164t-68.5 99t-100 40.5t-119.5 -10.5q-42 -132 -82 -285.5t-78 -328.5q-13 -61 -27 -126
t-28 -136zM441 1025q-11 0 -17 11t-16 29q-36 70 -75 89q-12 6 -19.5 10.5t-7.5 14.5t9 17.5t22 7.5q18 0 37.5 -17t39 -42.5t35.5 -53.5q18 29 29.5 46t27.5 34.5t46 47.5q10 8 19 8q18 0 18 -17q0 -10 -8 -20q-33 -33 -50 -52.5t-28 -36.5t-27 -44q-8 -15 -16 -23.5
t-19 -8.5z" />
    <glyph glyph-name="dcaron" unicode="&#x10f;" horiz-adv-x="439" 
d="M285 -18q-8 0 -15.5 14.5t-11.5 33.5t-4 33q0 20 6 47q-20 -61 -52 -90t-83 -29q-34 0 -55 20t-30.5 49t-9.5 56q0 149 56 253q18 32 32.5 52t30 34.5t36.5 28.5q32 21 78 21t67 -45q15 64 24 103.5t14.5 64.5t10 45.5t10 46t13.5 66.5l6.5 32.5t10 47.5t9 43t3.5 19
q0 13 8.5 22t18.5 9q21 0 21 -23v-4q0 -12 -8.5 -57.5t-25.5 -124.5q-35 -161 -45 -223q-10 -64 -39 -180q-22 -87 -40 -159.5t-17 -121.5q0 -27 9 -56q-1 -12 -10.5 -20t-17.5 -8zM134 40q14 0 35.5 22t45 58.5t44.5 82.5t34 94.5t13 92.5q0 25 -14.5 49t-41.5 24
q-32 0 -60.5 -28t-51.5 -73.5t-39 -99.5q-24 -81 -24 -136q0 -34 14 -60t45 -26zM534 736q-18 0 -18 18q0 8 6 17q13 14 24 35t18 39.5t7 25.5q-7 -4 -13 -7t-14 -3q-20 0 -20 21q0 18 13.5 35t36.5 17q43 0 43 -54q0 -34 -15.5 -67.5t-35.5 -55t-32 -21.5z" />
    <glyph glyph-name="Dcroat" unicode="&#x110;" horiz-adv-x="711" 
d="M83 -55q-19 0 -19 14.5t1 33.5q-22 5 -43.5 8.5t-36 11t-14.5 24.5q0 5 5.5 11.5t10.5 6.5q16 0 24 -5t20.5 -10t39.5 -5q56 274 110.5 489.5t106.5 371.5q-49 -17 -80.5 -35.5t-40.5 -18.5q-18 0 -18 18q0 14 13 23q36 23 72 39t73 26q8 13 18 13t14 -5q110 24 190 -4
t123 -108t43 -216q0 -141 -31.5 -246t-87 -179.5t-127 -120.5t-151.5 -69q-44 -13 -90 -18t-96 -5q-4 -45 -29 -45zM120 33q140 0 240 48t164 130.5t94 187t30 217.5q0 99 -25 164t-68.5 99t-100 40.5t-119.5 -10.5q-42 -132 -82 -285.5t-78 -328.5q-13 -61 -27 -126
t-28 -136zM236 494l-78 -7q-71 -5 -103 -5t-40.5 6t-8.5 18q0 9 8.5 17t17.5 8t13 -3l18 1l45 2.5t55.5 3t51.5 3.5t32 3q65 5 132.5 8t137.5 3q8 0 12.5 -5.5t4.5 -11.5q0 -9 -7 -17.5t-17 -11.5q-137 0 -274 -12z" />
    <glyph glyph-name="dcroat" unicode="&#x111;" horiz-adv-x="439" 
d="M285 -18q-8 0 -15.5 14.5t-11.5 33.5t-4 33q0 20 6 47q-20 -61 -52 -90t-83 -29q-34 0 -55 20t-30.5 49t-9.5 56q0 149 56 253q18 32 32.5 52t30 34.5t36.5 28.5q32 21 78 21t67 -45q15 64 24 103.5t14.5 64.5t10 45.5t10 46t13.5 66.5l6.5 32.5t10 47.5t9 43t3.5 19
q0 13 8.5 22t18.5 9q21 0 21 -23v-4q0 -12 -8.5 -57.5t-25.5 -124.5q-35 -161 -45 -223q-10 -64 -39 -180q-22 -87 -40 -159.5t-17 -121.5q0 -27 9 -56q-1 -12 -10.5 -20t-17.5 -8zM134 40q14 0 35.5 22t45 58.5t44.5 82.5t34 94.5t13 92.5q0 25 -14.5 49t-41.5 24
q-32 0 -60.5 -28t-51.5 -73.5t-39 -99.5q-24 -81 -24 -136q0 -34 14 -60t45 -26zM354 639q-23 0 -38 2t-23 5l-28 1l-19 -3q-1 0 -1.5 0.5l-0.5 0.5h-3q-18 0 -18 19q0 16 17.5 24t42.5 8q13 0 28.5 -1.5t34.5 -3.5q20 -2 40.5 -3.5t42.5 -1.5q45 0 100 15h6q18 0 18 -15
q0 -47 -199 -47z" />
    <glyph glyph-name="Emacron" unicode="&#x112;" horiz-adv-x="594" 
d="M433 -9q-14 0 -46.5 1t-74.5 2t-86.5 2.5t-83.5 2.5t-64.5 2t-30.5 1l-34 -3q-24 0 -26.5 13t1.5 19q5 6 13.5 28t18 53.5t16.5 65.5q7 30 20.5 91.5t32.5 154.5q20 92 44 205t53 245q-16 1 -16 20q0 18 29 33q0 31 30 31q16 0 17 -15q34 8 85 14t104.5 9t98 2.5
t65.5 -3.5q19 -3 19 -15q0 -15 -8.5 -22t-15.5 -7q-106 0 -174 -2.5t-110 -8t-71 -15.5q-12 -40 -23 -89.5t-21.5 -101.5t-20.5 -100.5t-19 -85.5q20 -2 58 -3t81.5 -1t81 0.5t55.5 1.5q12 0 14.5 -5.5t2.5 -10.5q0 -23 -25 -28t-58 -5l-220 5q-10 -38 -23.5 -95
t-27.5 -119.5t-27 -119t-24 -93.5q126 -2 207 -4t127.5 -3t69 -1h30t10.5 0.5t11 1.5q17 -5 17 -17q0 -20 -18.5 -25.5t-63.5 -5.5zM394 1073q-28 2 -45.5 8t-17.5 22q0 13 8.5 19.5t20.5 4.5q33 -4 58 -6t48 -2.5t51 0.5t68 4q16 -6 16 -18q0 -20 -27 -28q-11 -3 -36 -4
t-54 -1t-53.5 0.5t-36.5 0.5z" />
    <glyph glyph-name="emacron" unicode="&#x113;" horiz-adv-x="324" 
d="M133 -10q-34 0 -51 11.5t-28 31.5q-21 39 -21 94q0 98 29.5 184t78.5 144q48 56 105 56q31 0 48 -25t17 -59q0 -64 -33.5 -108.5t-82.5 -72.5q-24 -14 -52 -27.5t-60 -26.5l-2 -72q0 -84 51 -84q27 0 50 11.5t41 23t30 11.5q17 0 17 -18q0 -10 -14.5 -23t-36.5 -24.5
t-45.5 -19t-40.5 -7.5zM91 240q59 24 97.5 46t57.5 54t19 85q0 39 -33 39q-29 0 -68 -53q-41 -53 -66 -139q-3 -10 -5 -18t-2 -14zM198 594q-28 2 -45.5 8t-17.5 22q0 13 8.5 19.5t20.5 4.5q33 -4 58 -6t48 -2.5t51 0.5t68 4q16 -6 16 -18q0 -20 -27 -28q-11 -3 -36 -4
t-54 -1t-53.5 0.5t-36.5 0.5z" />
    <glyph glyph-name="Ebreve" unicode="&#x114;" horiz-adv-x="594" 
d="M433 -9q-14 0 -46.5 1t-74.5 2t-86.5 2.5t-83.5 2.5t-64.5 2t-30.5 1l-34 -3q-24 0 -26.5 13t1.5 19q5 6 13.5 28t18 53.5t16.5 65.5q7 30 20.5 91.5t32.5 154.5q20 92 44 205t53 245q-16 1 -16 20q0 18 29 33q0 31 30 31q16 0 17 -15q34 8 85 14t104.5 9t98 2.5
t65.5 -3.5q19 -3 19 -15q0 -15 -8.5 -22t-15.5 -7q-106 0 -174 -2.5t-110 -8t-71 -15.5q-12 -40 -23 -89.5t-21.5 -101.5t-20.5 -100.5t-19 -85.5q20 -2 58 -3t81.5 -1t81 0.5t55.5 1.5q12 0 14.5 -5.5t2.5 -10.5q0 -23 -25 -28t-58 -5l-220 5q-10 -38 -23.5 -95
t-27.5 -119.5t-27 -119t-24 -93.5q126 -2 207 -4t127.5 -3t69 -1h30t10.5 0.5t11 1.5q17 -5 17 -17q0 -20 -18.5 -25.5t-63.5 -5.5zM432 1035q-47 0 -73 40t-26 102q0 13 7.5 22t15.5 9t12 -10q1 -5 3 -18.5t5 -35.5q8 -64 50 -64q50 0 85.5 36.5t68.5 92.5q7 8 16 8
q13 0 13 -17q0 -9 -3 -14q-38 -66 -82.5 -108.5t-91.5 -42.5z" />
    <glyph glyph-name="ebreve" unicode="&#x115;" horiz-adv-x="324" 
d="M133 -10q-34 0 -51 11.5t-28 31.5q-21 39 -21 94q0 98 29.5 184t78.5 144q48 56 105 56q31 0 48 -25t17 -59q0 -64 -33.5 -108.5t-82.5 -72.5q-24 -14 -52 -27.5t-60 -26.5l-2 -72q0 -84 51 -84q27 0 50 11.5t41 23t30 11.5q17 0 17 -18q0 -10 -14.5 -23t-36.5 -24.5
t-45.5 -19t-40.5 -7.5zM91 240q59 24 97.5 46t57.5 54t19 85q0 39 -33 39q-29 0 -68 -53q-41 -53 -66 -139q-3 -10 -5 -18t-2 -14zM242 580q-47 0 -73 40t-26 102q0 13 7.5 22t15.5 9t12 -10q1 -5 3 -18.5t5 -35.5q8 -64 50 -64q50 0 85.5 36.5t68.5 92.5q7 8 16 8
q13 0 13 -17q0 -9 -3 -14q-38 -66 -82.5 -108.5t-91.5 -42.5z" />
    <glyph glyph-name="Edotaccent" unicode="&#x116;" horiz-adv-x="594" 
d="M433 -9q-14 0 -46.5 1t-74.5 2t-86.5 2.5t-83.5 2.5t-64.5 2t-30.5 1l-34 -3q-24 0 -26.5 13t1.5 19q5 6 13.5 28t18 53.5t16.5 65.5q7 30 20.5 91.5t32.5 154.5q20 92 44 205t53 245q-16 1 -16 20q0 18 29 33q0 31 30 31q16 0 17 -15q34 8 85 14t104.5 9t98 2.5
t65.5 -3.5q19 -3 19 -15q0 -15 -8.5 -22t-15.5 -7q-106 0 -174 -2.5t-110 -8t-71 -15.5q-12 -40 -23 -89.5t-21.5 -101.5t-20.5 -100.5t-19 -85.5q20 -2 58 -3t81.5 -1t81 0.5t55.5 1.5q12 0 14.5 -5.5t2.5 -10.5q0 -23 -25 -28t-58 -5l-220 5q-10 -38 -23.5 -95
t-27.5 -119.5t-27 -119t-24 -93.5q126 -2 207 -4t127.5 -3t69 -1h30t10.5 0.5t11 1.5q17 -5 17 -17q0 -20 -18.5 -25.5t-63.5 -5.5zM437 1049q-16 0 -24 4h-4q-29 0 -29 34q0 17 14.5 31t31.5 14t32 -12q17 -17 17 -33t-12 -27t-26 -11z" />
    <glyph glyph-name="edotaccent" unicode="&#x117;" horiz-adv-x="324" 
d="M133 -10q-34 0 -51 11.5t-28 31.5q-21 39 -21 94q0 98 29.5 184t78.5 144q48 56 105 56q31 0 48 -25t17 -59q0 -64 -33.5 -108.5t-82.5 -72.5q-24 -14 -52 -27.5t-60 -26.5l-2 -72q0 -84 51 -84q27 0 50 11.5t41 23t30 11.5q17 0 17 -18q0 -10 -14.5 -23t-36.5 -24.5
t-45.5 -19t-40.5 -7.5zM91 240q59 24 97.5 46t57.5 54t19 85q0 39 -33 39q-29 0 -68 -53q-41 -53 -66 -139q-3 -10 -5 -18t-2 -14zM247 594q-16 0 -24 4h-4q-29 0 -29 34q0 17 14.5 31t31.5 14t32 -12q17 -17 17 -33t-12 -27t-26 -11z" />
    <glyph glyph-name="Eogonek" unicode="&#x118;" horiz-adv-x="594" 
d="M433 -9q-14 0 -46.5 1t-74.5 2t-86.5 2.5t-83.5 2.5t-64.5 2t-30.5 1l-34 -3q-24 0 -26.5 13t1.5 19q5 6 13.5 28t18 53.5t16.5 65.5q7 30 20.5 91.5t32.5 154.5q20 92 44 205t53 245q-16 1 -16 20q0 18 29 33q0 31 30 31q16 0 17 -15q34 8 85 14t104.5 9t98 2.5
t65.5 -3.5q19 -3 19 -15q0 -15 -8.5 -22t-15.5 -7q-106 0 -174 -2.5t-110 -8t-71 -15.5q-12 -40 -23 -89.5t-21.5 -101.5t-20.5 -100.5t-19 -85.5q20 -2 58 -3t81.5 -1t81 0.5t55.5 1.5q12 0 14.5 -5.5t2.5 -10.5q0 -23 -25 -28t-58 -5l-220 5q-10 -38 -23.5 -95
t-27.5 -119.5t-27 -119t-24 -93.5q126 -2 207 -4t127.5 -3t69 -1h30t10.5 0.5t11 1.5q17 -5 17 -17q0 -20 -18.5 -25.5t-63.5 -5.5zM517 9q5 -39 -21 -62t-70 -44q-29 -14 -42 -29t-13 -43q0 -16 7 -24.5t25 -8.5q15 0 27 3.5t29 17.5q23 18 30 18q18 0 18 -21
q0 -10 -11.5 -24t-31.5 -25q-31 -15 -61 -15q-40 0 -58 23t-18 54q0 32 14 58.5t57 48.5q30 15 49.5 23.5t29.5 18.5t8 27q-3 24 14 24q15 0 18 -20z" />
    <glyph glyph-name="eogonek" unicode="&#x119;" horiz-adv-x="324" 
d="M133 -10q-34 0 -51 11.5t-28 31.5q-21 39 -21 94q0 98 29.5 184t78.5 144q48 56 105 56q31 0 48 -25t17 -59q0 -64 -33.5 -108.5t-82.5 -72.5q-24 -14 -52 -27.5t-60 -26.5l-2 -72q0 -84 51 -84q27 0 50 11.5t41 23t30 11.5q17 0 17 -18q0 -10 -14.5 -23t-36.5 -24.5
t-45.5 -19t-40.5 -7.5zM91 240q59 24 97.5 46t57.5 54t19 85q0 39 -33 39q-29 0 -68 -53q-41 -53 -66 -139q-3 -10 -5 -18t-2 -14zM245 32q5 -39 -21 -62t-70 -44q-29 -14 -42 -29t-13 -43q0 -16 7 -24.5t25 -8.5q15 0 27 3.5t29 17.5q23 18 30 18q18 0 18 -21
q0 -10 -11.5 -24t-31.5 -25q-31 -15 -61 -15q-40 0 -58 23t-18 54q0 32 14 58.5t57 48.5q30 15 49.5 23.5t29.5 18.5t8 27q-3 24 14 24q15 0 18 -20z" />
    <glyph glyph-name="Ecaron" unicode="&#x11a;" horiz-adv-x="594" 
d="M433 -9q-14 0 -46.5 1t-74.5 2t-86.5 2.5t-83.5 2.5t-64.5 2t-30.5 1l-34 -3q-24 0 -26.5 13t1.5 19q5 6 13.5 28t18 53.5t16.5 65.5q7 30 20.5 91.5t32.5 154.5q20 92 44 205t53 245q-16 1 -16 20q0 18 29 33q0 31 30 31q16 0 17 -15q34 8 85 14t104.5 9t98 2.5
t65.5 -3.5q19 -3 19 -15q0 -15 -8.5 -22t-15.5 -7q-106 0 -174 -2.5t-110 -8t-71 -15.5q-12 -40 -23 -89.5t-21.5 -101.5t-20.5 -100.5t-19 -85.5q20 -2 58 -3t81.5 -1t81 0.5t55.5 1.5q12 0 14.5 -5.5t2.5 -10.5q0 -23 -25 -28t-58 -5l-220 5q-10 -38 -23.5 -95
t-27.5 -119.5t-27 -119t-24 -93.5q126 -2 207 -4t127.5 -3t69 -1h30t10.5 0.5t11 1.5q17 -5 17 -17q0 -20 -18.5 -25.5t-63.5 -5.5zM428 1025q-11 0 -17 11t-16 29q-36 70 -75 89q-12 6 -19.5 10.5t-7.5 14.5t9 17.5t22 7.5q18 0 37.5 -17t39 -42.5t35.5 -53.5
q18 29 29.5 46t27.5 34.5t46 47.5q10 8 19 8q18 0 18 -17q0 -10 -8 -20q-33 -33 -50 -52.5t-28 -36.5t-27 -44q-8 -15 -16 -23.5t-19 -8.5z" />
    <glyph glyph-name="ecaron" unicode="&#x11b;" horiz-adv-x="324" 
d="M133 -10q-34 0 -51 11.5t-28 31.5q-21 39 -21 94q0 98 29.5 184t78.5 144q48 56 105 56q31 0 48 -25t17 -59q0 -64 -33.5 -108.5t-82.5 -72.5q-24 -14 -52 -27.5t-60 -26.5l-2 -72q0 -84 51 -84q27 0 50 11.5t41 23t30 11.5q17 0 17 -18q0 -10 -14.5 -23t-36.5 -24.5
t-45.5 -19t-40.5 -7.5zM91 240q59 24 97.5 46t57.5 54t19 85q0 39 -33 39q-29 0 -68 -53q-41 -53 -66 -139q-3 -10 -5 -18t-2 -14zM238 570q-11 0 -17 11t-16 29q-36 70 -75 89q-12 6 -19.5 10.5t-7.5 14.5t9 17.5t22 7.5q18 0 37.5 -17t39 -42.5t35.5 -53.5q18 29 29.5 46
t27.5 34.5t46 47.5q10 8 19 8q18 0 18 -17q0 -10 -8 -20q-33 -33 -50 -52.5t-28 -36.5t-27 -44q-8 -15 -16 -23.5t-19 -8.5z" />
    <glyph glyph-name="Gcircumflex" unicode="&#x11c;" horiz-adv-x="745" 
d="M409 -448q-16 0 -18 21q18 108 32.5 182t27.5 127.5t26 96.5t27 88q-91 -82 -238 -82q-56 0 -98.5 25t-70.5 67t-42 94.5t-14 107.5q0 73 16 151t44 154t66 143.5t82 119t92 81t96 29.5q85 0 134.5 -50.5t64.5 -136.5q-4 -32 -15.5 -30.5t-26 24.5t-27.5 52
q-39 94 -130 94q-48 0 -92.5 -29.5t-83.5 -79.5t-71 -113.5t-55 -132t-35.5 -134.5t-12.5 -121q0 -70 17 -132t58 -100t111 -38q173 0 236 96q17 26 22.5 47.5t5.5 41.5q-3 9 -24 32.5t-49.5 50.5t-54.5 45q-64 -13 -146 -24q-20 2 -20 18q0 13 12 23q65 47 113 47
q29 0 56 -15q122 27 272 75q24 0 24 -17q0 -6 -4 -15q-64 -105 -112.5 -219.5t-81.5 -239.5q-16 -60 -27 -108.5t-20 -93.5t-18 -91.5t-20 -102.5q-1 -12 -10.5 -20t-17.5 -8zM571 249q6 12 16.5 34.5t23 47.5l23 46t16.5 30q-90 -30 -178 -51q18 -16 38 -38t37 -41t24 -28z
M528 1030q-14 0 -31.5 17.5t-33.5 44.5t-26 55q-2 -3 -3.5 -6t-3.5 -6q-13 -28 -77 -98q-9 -6 -17 -6q-18 0 -18 16q0 17 36 56q17 20 29 35.5t17 25.5q11 20 26.5 42t33.5 22t18 -19l-1 -12q0 -15 11 -40.5t28.5 -49.5t35.5 -37q4 -7 4 -15q0 -10 -8.5 -17.5t-19.5 -7.5z
" />
    <glyph glyph-name="gcircumflex" unicode="&#x11d;" horiz-adv-x="380" 
d="M67 -410q-48 0 -80.5 32.5t-32.5 86.5q0 52 27 90.5t66 69t76 57.5q28 20 49.5 37t37.5 30q1 4 5 22.5t9.5 44t11.5 50.5t10 42.5t5 20.5q-17 -49 -40 -90t-49.5 -65t-53.5 -24q-37 0 -57.5 27t-20.5 73q0 57 14.5 119.5t41.5 121.5t65 105q56 69 124 69q17 0 32.5 -4
t28.5 -12q6 3 13 3q16 0 16 -16q0 -13 -6.5 -34t-11.5 -38q-7 -25 -19 -75.5t-24 -103.5q-1 -4 -5.5 -24.5t-10.5 -48.5t-12 -56.5t-10.5 -49t-5.5 -24.5q18 12 35 27.5t31 27t23 11.5q18 0 18 -17q0 -12 -8 -20q-31 -24 -57 -43t-48 -35l-29 -147q-29 -149 -75 -200
q-36 -40 -83 -40zM112 40q22 0 49 29t52.5 78t42.5 107q13 44 22.5 77.5t16.5 58.5q14 48 18 66q-14 13 -39 13q-29 0 -60 -26.5t-59 -72t-49 -102.5q-31 -86 -31 -157t37 -71zM65 -360q38 0 60.5 30t36.5 80t25 110l15 79q-36 -30 -72 -57q-24 -18 -53.5 -44t-51.5 -59.5
t-22 -74.5q0 -33 17 -48.5t45 -15.5zM376 578q-14 0 -31.5 17.5t-33.5 44.5t-26 55q-2 -3 -3.5 -6t-3.5 -6q-13 -28 -77 -98q-9 -6 -17 -6q-18 0 -18 16q0 17 36 56q17 20 29 35.5t17 25.5q11 20 26.5 42t33.5 22t18 -19l-1 -12q0 -15 11 -40.5t28.5 -49.5t35.5 -37
q4 -7 4 -15q0 -10 -8.5 -17.5t-19.5 -7.5z" />
    <glyph glyph-name="Gbreve" unicode="&#x11e;" horiz-adv-x="745" 
d="M409 -448q-16 0 -18 21q18 108 32.5 182t27.5 127.5t26 96.5t27 88q-91 -82 -238 -82q-56 0 -98.5 25t-70.5 67t-42 94.5t-14 107.5q0 73 16 151t44 154t66 143.5t82 119t92 81t96 29.5q85 0 134.5 -50.5t64.5 -136.5q-4 -32 -15.5 -30.5t-26 24.5t-27.5 52
q-39 94 -130 94q-48 0 -92.5 -29.5t-83.5 -79.5t-71 -113.5t-55 -132t-35.5 -134.5t-12.5 -121q0 -70 17 -132t58 -100t111 -38q173 0 236 96q17 26 22.5 47.5t5.5 41.5q-3 9 -24 32.5t-49.5 50.5t-54.5 45q-64 -13 -146 -24q-20 2 -20 18q0 13 12 23q65 47 113 47
q29 0 56 -15q122 27 272 75q24 0 24 -17q0 -6 -4 -15q-64 -105 -112.5 -219.5t-81.5 -239.5q-16 -60 -27 -108.5t-20 -93.5t-18 -91.5t-20 -102.5q-1 -12 -10.5 -20t-17.5 -8zM571 249q6 12 16.5 34.5t23 47.5l23 46t16.5 30q-90 -30 -178 -51q18 -16 38 -38t37 -41t24 -28z
M444 1032q-47 0 -73 40t-26 102q0 13 7.5 22t15.5 9t12 -10q1 -5 3 -18.5t5 -35.5q8 -64 50 -64q50 0 85.5 36.5t68.5 92.5q7 8 16 8q13 0 13 -17q0 -9 -3 -14q-38 -66 -82.5 -108.5t-91.5 -42.5z" />
    <glyph glyph-name="gbreve" unicode="&#x11f;" horiz-adv-x="380" 
d="M67 -410q-48 0 -80.5 32.5t-32.5 86.5q0 52 27 90.5t66 69t76 57.5q28 20 49.5 37t37.5 30q1 4 5 22.5t9.5 44t11.5 50.5t10 42.5t5 20.5q-17 -49 -40 -90t-49.5 -65t-53.5 -24q-37 0 -57.5 27t-20.5 73q0 57 14.5 119.5t41.5 121.5t65 105q56 69 124 69q17 0 32.5 -4
t28.5 -12q6 3 13 3q16 0 16 -16q0 -13 -6.5 -34t-11.5 -38q-7 -25 -19 -75.5t-24 -103.5q-1 -4 -5.5 -24.5t-10.5 -48.5t-12 -56.5t-10.5 -49t-5.5 -24.5q18 12 35 27.5t31 27t23 11.5q18 0 18 -17q0 -12 -8 -20q-31 -24 -57 -43t-48 -35l-29 -147q-29 -149 -75 -200
q-36 -40 -83 -40zM112 40q22 0 49 29t52.5 78t42.5 107q13 44 22.5 77.5t16.5 58.5q14 48 18 66q-14 13 -39 13q-29 0 -60 -26.5t-59 -72t-49 -102.5q-31 -86 -31 -157t37 -71zM65 -360q38 0 60.5 30t36.5 80t25 110l15 79q-36 -30 -72 -57q-24 -18 -53.5 -44t-51.5 -59.5
t-22 -74.5q0 -33 17 -48.5t45 -15.5zM292 580q-47 0 -73 40t-26 102q0 13 7.5 22t15.5 9t12 -10q1 -5 3 -18.5t5 -35.5q8 -64 50 -64q50 0 85.5 36.5t68.5 92.5q7 8 16 8q13 0 13 -17q0 -9 -3 -14q-38 -66 -82.5 -108.5t-91.5 -42.5z" />
    <glyph glyph-name="Gdotaccent" unicode="&#x120;" horiz-adv-x="745" 
d="M409 -448q-16 0 -18 21q18 108 32.5 182t27.5 127.5t26 96.5t27 88q-91 -82 -238 -82q-56 0 -98.5 25t-70.5 67t-42 94.5t-14 107.5q0 73 16 151t44 154t66 143.5t82 119t92 81t96 29.5q85 0 134.5 -50.5t64.5 -136.5q-4 -32 -15.5 -30.5t-26 24.5t-27.5 52
q-39 94 -130 94q-48 0 -92.5 -29.5t-83.5 -79.5t-71 -113.5t-55 -132t-35.5 -134.5t-12.5 -121q0 -70 17 -132t58 -100t111 -38q173 0 236 96q17 26 22.5 47.5t5.5 41.5q-3 9 -24 32.5t-49.5 50.5t-54.5 45q-64 -13 -146 -24q-20 2 -20 18q0 13 12 23q65 47 113 47
q29 0 56 -15q122 27 272 75q24 0 24 -17q0 -6 -4 -15q-64 -105 -112.5 -219.5t-81.5 -239.5q-16 -60 -27 -108.5t-20 -93.5t-18 -91.5t-20 -102.5q-1 -12 -10.5 -20t-17.5 -8zM571 249q6 12 16.5 34.5t23 47.5l23 46t16.5 30q-90 -30 -178 -51q18 -16 38 -38t37 -41t24 -28z
M449 1046q-16 0 -24 4h-4q-29 0 -29 34q0 17 14.5 31t31.5 14t32 -12q17 -17 17 -33t-12 -27t-26 -11z" />
    <glyph glyph-name="gdotaccent" unicode="&#x121;" horiz-adv-x="380" 
d="M67 -410q-48 0 -80.5 32.5t-32.5 86.5q0 52 27 90.5t66 69t76 57.5q28 20 49.5 37t37.5 30q1 4 5 22.5t9.5 44t11.5 50.5t10 42.5t5 20.5q-17 -49 -40 -90t-49.5 -65t-53.5 -24q-37 0 -57.5 27t-20.5 73q0 57 14.5 119.5t41.5 121.5t65 105q56 69 124 69q17 0 32.5 -4
t28.5 -12q6 3 13 3q16 0 16 -16q0 -13 -6.5 -34t-11.5 -38q-7 -25 -19 -75.5t-24 -103.5q-1 -4 -5.5 -24.5t-10.5 -48.5t-12 -56.5t-10.5 -49t-5.5 -24.5q18 12 35 27.5t31 27t23 11.5q18 0 18 -17q0 -12 -8 -20q-31 -24 -57 -43t-48 -35l-29 -147q-29 -149 -75 -200
q-36 -40 -83 -40zM112 40q22 0 49 29t52.5 78t42.5 107q13 44 22.5 77.5t16.5 58.5q14 48 18 66q-14 13 -39 13q-29 0 -60 -26.5t-59 -72t-49 -102.5q-31 -86 -31 -157t37 -71zM65 -360q38 0 60.5 30t36.5 80t25 110l15 79q-36 -30 -72 -57q-24 -18 -53.5 -44t-51.5 -59.5
t-22 -74.5q0 -33 17 -48.5t45 -15.5zM297 594q-16 0 -24 4h-4q-29 0 -29 34q0 17 14.5 31t31.5 14t32 -12q17 -17 17 -33t-12 -27t-26 -11z" />
    <glyph glyph-name="uni0122" unicode="&#x122;" horiz-adv-x="745" 
d="M409 -448q-16 0 -18 21q18 108 32.5 182t27.5 127.5t26 96.5t27 88q-91 -82 -238 -82q-56 0 -98.5 25t-70.5 67t-42 94.5t-14 107.5q0 73 16 151t44 154t66 143.5t82 119t92 81t96 29.5q85 0 134.5 -50.5t64.5 -136.5q-4 -32 -15.5 -30.5t-26 24.5t-27.5 52
q-39 94 -130 94q-48 0 -92.5 -29.5t-83.5 -79.5t-71 -113.5t-55 -132t-35.5 -134.5t-12.5 -121q0 -70 17 -132t58 -100t111 -38q173 0 236 96q17 26 22.5 47.5t5.5 41.5q-3 9 -24 32.5t-49.5 50.5t-54.5 45q-64 -13 -146 -24q-20 2 -20 18q0 13 12 23q65 47 113 47
q29 0 56 -15q122 27 272 75q24 0 24 -17q0 -6 -4 -15q-64 -105 -112.5 -219.5t-81.5 -239.5q-16 -60 -27 -108.5t-20 -93.5t-18 -91.5t-20 -102.5q-1 -12 -10.5 -20t-17.5 -8zM571 249q6 12 16.5 34.5t23 47.5l23 46t16.5 30q-90 -30 -178 -51q18 -16 38 -38t37 -41t24 -28z
M172 -281q-23 0 -23 23l8 14.5t20 37t25 47t23.5 44.5t15.5 30q12 16 25 16q18 0 18 -17q0 -9 -7 -22q-7 -14 -19 -40t-28.5 -55t-35.5 -53q-1 -10 -8.5 -17.5t-13.5 -7.5z" />
    <glyph glyph-name="uni0123" unicode="&#x123;" horiz-adv-x="380" 
d="M67 -410q-48 0 -80.5 32.5t-32.5 86.5q0 52 27 90.5t66 69t76 57.5q28 20 49.5 37t37.5 30q1 4 5 22.5t9.5 44t11.5 50.5t10 42.5t5 20.5q-17 -49 -40 -90t-49.5 -65t-53.5 -24q-37 0 -57.5 27t-20.5 73q0 57 14.5 119.5t41.5 121.5t65 105q56 69 124 69q17 0 32.5 -4
t28.5 -12q6 3 13 3q16 0 16 -16q0 -13 -6.5 -34t-11.5 -38q-7 -25 -19 -75.5t-24 -103.5q-1 -4 -5.5 -24.5t-10.5 -48.5t-12 -56.5t-10.5 -49t-5.5 -24.5q18 12 35 27.5t31 27t23 11.5q18 0 18 -17q0 -12 -8 -20q-31 -24 -57 -43t-48 -35l-29 -147q-29 -149 -75 -200
q-36 -40 -83 -40zM112 40q22 0 49 29t52.5 78t42.5 107q13 44 22.5 77.5t16.5 58.5q14 48 18 66q-14 13 -39 13q-29 0 -60 -26.5t-59 -72t-49 -102.5q-31 -86 -31 -157t37 -71zM65 -360q38 0 60.5 30t36.5 80t25 110l15 79q-36 -30 -72 -57q-24 -18 -53.5 -44t-51.5 -59.5
t-22 -74.5q0 -33 17 -48.5t45 -15.5zM332 834q18 0 18 -18q0 -8 -6 -17q-11 -13 -23.5 -33t-23.5 -41.5t-19 -38t-10 -21.5q0 -3 3 -5q4 -1 4 -7q5 2 9 3t8 1q20 0 20 -21q0 -18 -13.5 -35t-36.5 -17q-43 0 -43 54q0 27 15.5 62.5t38 70t42.5 57.5q9 6 17 6z" />
    <glyph glyph-name="Hcircumflex" unicode="&#x124;" horiz-adv-x="837" 
d="M113 -34q-15 0 -17 20q28 114 60.5 235t63.5 234q-33 -10 -44.5 -21.5t-11.5 -30.5q0 -11 -3.5 -20t-20.5 -9q-21 0 -21 29q0 38 27 59t86 37q10 41 18.5 92t15.5 104.5t12.5 102.5t9.5 87.5t7 58.5q3 24 29 24q18 0 17 -17q-12 -142 -60 -439q75 20 170.5 32t210.5 17
q15 108 28.5 192t23.5 136.5t11 64.5q2 11 11 17.5t18 6.5q6 0 11.5 -4t5.5 -13q0 -4 -5.5 -37t-13.5 -82t-17 -103t-16 -101.5t-11 -75.5h112q9 0 13 -5.5t4 -12.5q0 -8 -6.5 -16.5t-17.5 -11.5q-37 0 -61.5 0.5t-50.5 0.5q-9 -72 -26.5 -156.5t-32.5 -172.5t-18 -171
q-1 -12 -10.5 -20t-18.5 -8q-15 0 -17 21q2 52 10.5 114.5t19.5 123t20.5 108.5t13.5 71l14 88q-232 -9 -387 -51q-20 -84 -42 -161.5t-43.5 -154.5t-42.5 -162q-11 -20 -28 -20zM647 1033q-14 0 -31.5 17.5t-33.5 44.5t-26 55q-2 -3 -3.5 -6t-3.5 -6q-13 -28 -77 -98
q-9 -6 -17 -6q-18 0 -18 16q0 17 36 56q17 20 29 35.5t17 25.5q11 20 26.5 42t33.5 22t18 -19l-1 -12q0 -15 11 -40.5t28.5 -49.5t35.5 -37q4 -7 4 -15q0 -10 -8.5 -17.5t-19.5 -7.5z" />
    <glyph glyph-name="hcircumflex" unicode="&#x125;" horiz-adv-x="468" 
d="M57 -8q-17 0 -17 17q0 8 24.5 124.5t73.5 340.5q10 46 22 105t24.5 120.5t23 115.5t18 90.5t8.5 44.5q5 15 17 15q26 0 32 -25q-1 -5 -7 -36t-16 -78.5t-21 -101.5t-22 -106.5t-19.5 -93t-12.5 -59.5q-11 -52 -20.5 -96t-17.5 -79q102 210 193 210q37 0 55 -29t18 -64
q0 -37 -13 -98l-16 -84q-13 -70 -20.5 -110.5t-7.5 -54.5l2 -39q0 -28 -31 -28q-16 0 -23 13t-3 33l58 325q3 15 3 36q0 50 -28 50q-21 0 -46.5 -24t-52 -61.5t-49 -77t-38.5 -72t-21 -46.5q-7 -23 -15 -52t-13.5 -52.5t-5.5 -32.5q1 -24 -4.5 -32t-31.5 -8zM408 1033
q-14 0 -31.5 17.5t-33.5 44.5t-26 55q-2 -3 -3.5 -6t-3.5 -6q-13 -28 -77 -98q-9 -6 -17 -6q-18 0 -18 16q0 17 36 56q17 20 29 35.5t17 25.5q11 20 26.5 42t33.5 22t18 -19l-1 -12q0 -15 11 -40.5t28.5 -49.5t35.5 -37q4 -7 4 -15q0 -10 -8.5 -17.5t-19.5 -7.5z" />
    <glyph glyph-name="Hbar" unicode="&#x126;" horiz-adv-x="837" 
d="M113 -34q-15 0 -17 20q28 114 60.5 235t63.5 234q-33 -10 -44.5 -21.5t-11.5 -30.5q0 -11 -3.5 -20t-20.5 -9q-21 0 -21 29q0 38 27 59t86 37q12 50 22 115t18 128q-56 -2 -80.5 1t-30.5 9t-6 15t8.5 17t17.5 8t13 -3l84 4q6 50 10 90t7 61q3 24 29 24q18 0 17 -17
q-5 -62 -18 -156l173 7q99 6 204 9q10 59 17 96t8 47q2 11 11 17.5t18 6.5q6 0 11.5 -4t5.5 -13q0 -4 -7.5 -47.5t-16.5 -101.5q65 1 128 1q8 0 12.5 -5.5t4.5 -11.5q0 -9 -7 -17.5t-17 -11.5q-65 0 -129 -1q-9 -60 -18 -116t-13 -88h112q9 0 13 -5.5t4 -12.5
q0 -8 -6.5 -16.5t-17.5 -11.5q-37 0 -61.5 0.5t-50.5 0.5q-9 -72 -26.5 -156.5t-32.5 -172.5t-18 -171q-1 -12 -10.5 -20t-18.5 -8q-15 0 -17 21q2 52 10.5 114.5t19.5 123t20.5 108.5t13.5 71l14 88q-232 -9 -387 -51q-20 -84 -42 -161.5t-43.5 -154.5t-42.5 -162
q-11 -20 -28 -20zM529 755l-122 -7q-53 -3 -91 -5q-14 -101 -35 -231q75 20 170.5 32t210.5 17q8 58 15.5 109t14.5 94q-47 -1 -89 -3.5t-74 -5.5z" />
    <glyph glyph-name="hbar" unicode="&#x127;" horiz-adv-x="468" 
d="M57 -8q-17 0 -17 17q0 8 24.5 124.5t73.5 340.5q10 46 22 105t24.5 120.5t23 115.5t18 90.5t8.5 44.5q5 15 17 15q26 0 32 -25q-1 -5 -7 -36t-16 -78.5t-21 -101.5t-22 -106.5t-19.5 -93t-12.5 -59.5q-11 -52 -20.5 -96t-17.5 -79q102 210 193 210q37 0 55 -29t18 -64
q0 -37 -13 -98l-16 -84q-13 -70 -20.5 -110.5t-7.5 -54.5l2 -39q0 -28 -31 -28q-16 0 -23 13t-3 33l58 325q3 15 3 36q0 50 -28 50q-21 0 -46.5 -24t-52 -61.5t-49 -77t-38.5 -72t-21 -46.5q-7 -23 -15 -52t-13.5 -52.5t-5.5 -32.5q1 -24 -4.5 -32t-31.5 -8zM220 756
q-23 0 -38 2t-23 5l-28 1l-19 -3q-1 0 -1.5 0.5l-0.5 0.5h-3q-18 0 -18 19q0 16 17.5 24t42.5 8q13 0 28.5 -1.5t34.5 -3.5q20 -2 40.5 -3.5t42.5 -1.5q45 0 100 15h6q18 0 18 -15q0 -47 -199 -47z" />
    <glyph glyph-name="Itilde" unicode="&#x128;" horiz-adv-x="435" 
d="M264 -10q-29 0 -60.5 5t-64 7.5t-65.5 -7.5h-5q-10 0 -15 5t-5 12q0 19 26 26.5t72 7.5q21 111 47 234t58 259q32 135 54 229t34 147h-81q-19 0 -19 19q0 8 9 17t22 9h98t59.5 -0.5t40.5 -0.5q15 -4 15 -16q0 -10 -8 -18.5t-19 -10.5q-33 0 -47.5 0.5t-22.5 0.5
q-72 -290 -121.5 -507.5t-75.5 -362.5q65 -2 84 -8.5t19 -20.5q0 -6 -8.5 -15t-20.5 -11zM475 1065q-22 0 -38 9t-30 20q-14 10 -27.5 19t-24.5 9q-24 0 -41 -36q-9 -12 -23 -12q-18 0 -18 17q0 3 0.5 5.5t1.5 5.5q35 68 76 68q21 0 54 -19q32 -19 49.5 -27.5t36.5 -8.5
t19 4v6l-5 27q0 13 9 22t19 9q20 0 20 -47q0 -48 -42 -65q-15 -6 -36 -6z" />
    <glyph glyph-name="itilde" unicode="&#x129;" horiz-adv-x="214" 
d="M65 -10q-34 0 -34 55q0 5 1 11.5t4 13.5q2 8 4.5 17t4.5 22q3 12 7 28.5t8 38.5q5 21 10 43t10 45t11 50.5t13 59.5t10.5 49.5t3.5 20.5v10q0 8 -7 33q0 12 8.5 22t20.5 10q11 0 19 -15t8 -33q0 -20 -46 -216t-46 -208q0 -11 10 -11q5 0 18 13q12 12 20 12q16 0 16 -20
q0 -13 -14.5 -25t-32.5 -19t-27 -7zM236 610q-22 0 -38 9t-30 20q-14 10 -27.5 19t-24.5 9q-24 0 -41 -36q-9 -12 -23 -12q-18 0 -18 17q0 3 0.5 5.5t1.5 5.5q35 68 76 68q21 0 54 -19q32 -19 49.5 -27.5t36.5 -8.5t19 4v6l-5 27q0 13 9 22t19 9q20 0 20 -47q0 -48 -42 -65
q-15 -6 -36 -6z" />
    <glyph glyph-name="Imacron" unicode="&#x12a;" horiz-adv-x="435" 
d="M264 -10q-29 0 -60.5 5t-64 7.5t-65.5 -7.5h-5q-10 0 -15 5t-5 12q0 19 26 26.5t72 7.5q21 111 47 234t58 259q32 135 54 229t34 147h-81q-19 0 -19 19q0 8 9 17t22 9h98t59.5 -0.5t40.5 -0.5q15 -4 15 -16q0 -10 -8 -18.5t-19 -10.5q-33 0 -47.5 0.5t-22.5 0.5
q-72 -290 -121.5 -507.5t-75.5 -362.5q65 -2 84 -8.5t19 -20.5q0 -6 -8.5 -15t-20.5 -11zM362 1073q-28 2 -45.5 8t-17.5 22q0 13 8.5 19.5t20.5 4.5q33 -4 58 -6t48 -2.5t51 0.5t68 4q16 -6 16 -18q0 -20 -27 -28q-11 -3 -36 -4t-54 -1t-53.5 0.5t-36.5 0.5z" />
    <glyph glyph-name="imacron" unicode="&#x12b;" horiz-adv-x="214" 
d="M65 -10q-34 0 -34 55q0 5 1 11.5t4 13.5q2 8 4.5 17t4.5 22q3 12 7 28.5t8 38.5q5 21 10 43t10 45t11 50.5t13 59.5t10.5 49.5t3.5 20.5v10q0 8 -7 33q0 12 8.5 22t20.5 10q11 0 19 -15t8 -33q0 -20 -46 -216t-46 -208q0 -11 10 -11q5 0 18 13q12 12 20 12q16 0 16 -20
q0 -13 -14.5 -25t-32.5 -19t-27 -7zM117 594q-28 2 -45.5 8t-17.5 22q0 13 8.5 19.5t20.5 4.5q33 -4 58 -6t48 -2.5t51 0.5t68 4q16 -6 16 -18q0 -20 -27 -28q-11 -3 -36 -4t-54 -1t-53.5 0.5t-36.5 0.5z" />
    <glyph glyph-name="Ibreve" unicode="&#x12c;" horiz-adv-x="435" 
d="M264 -10q-29 0 -60.5 5t-64 7.5t-65.5 -7.5h-5q-10 0 -15 5t-5 12q0 19 26 26.5t72 7.5q21 111 47 234t58 259q32 135 54 229t34 147h-81q-19 0 -19 19q0 8 9 17t22 9h98t59.5 -0.5t40.5 -0.5q15 -4 15 -16q0 -10 -8 -18.5t-19 -10.5q-33 0 -47.5 0.5t-22.5 0.5
q-72 -290 -121.5 -507.5t-75.5 -362.5q65 -2 84 -8.5t19 -20.5q0 -6 -8.5 -15t-20.5 -11zM400 1035q-47 0 -73 40t-26 102q0 13 7.5 22t15.5 9t12 -10q1 -5 3 -18.5t5 -35.5q8 -64 50 -64q50 0 85.5 36.5t68.5 92.5q7 8 16 8q13 0 13 -17q0 -9 -3 -14q-38 -66 -82.5 -108.5
t-91.5 -42.5z" />
    <glyph glyph-name="ibreve" unicode="&#x12d;" horiz-adv-x="214" 
d="M65 -10q-34 0 -34 55q0 5 1 11.5t4 13.5q2 8 4.5 17t4.5 22q3 12 7 28.5t8 38.5q5 21 10 43t10 45t11 50.5t13 59.5t10.5 49.5t3.5 20.5v10q0 8 -7 33q0 12 8.5 22t20.5 10q11 0 19 -15t8 -33q0 -20 -46 -216t-46 -208q0 -11 10 -11q5 0 18 13q12 12 20 12q16 0 16 -20
q0 -13 -14.5 -25t-32.5 -19t-27 -7zM161 580q-47 0 -73 40t-26 102q0 13 7.5 22t15.5 9t12 -10q1 -5 3 -18.5t5 -35.5q8 -64 50 -64q50 0 85.5 36.5t68.5 92.5q7 8 16 8q13 0 13 -17q0 -9 -3 -14q-38 -66 -82.5 -108.5t-91.5 -42.5z" />
    <glyph glyph-name="Iogonek" unicode="&#x12e;" horiz-adv-x="435" 
d="M264 -10q-29 0 -60.5 5t-64 7.5t-65.5 -7.5h-5q-10 0 -15 5t-5 12q0 19 26 26.5t72 7.5q21 111 47 234t58 259q32 135 54 229t34 147h-81q-19 0 -19 19q0 8 9 17t22 9h98t59.5 -0.5t40.5 -0.5q15 -4 15 -16q0 -10 -8 -18.5t-19 -10.5q-33 0 -47.5 0.5t-22.5 0.5
q-72 -290 -121.5 -507.5t-75.5 -362.5q65 -2 84 -8.5t19 -20.5q0 -6 -8.5 -15t-20.5 -11zM278 9q5 -39 -21 -62t-70 -44q-29 -14 -42 -29t-13 -43q0 -16 7 -24.5t25 -8.5q15 0 27 3.5t29 17.5q23 18 30 18q18 0 18 -21q0 -10 -11.5 -24t-31.5 -25q-31 -15 -61 -15
q-40 0 -58 23t-18 54q0 32 14 58.5t57 48.5q30 15 49.5 23.5t29.5 18.5t8 27q-3 24 14 24q15 0 18 -20z" />
    <glyph glyph-name="iogonek" unicode="&#x12f;" horiz-adv-x="214" 
d="M65 -10q-34 0 -34 55q0 5 1 11.5t4 13.5q2 8 4.5 17t4.5 22q3 12 7 28.5t8 38.5q5 21 10 43t10 45t11 50.5t13 59.5t10.5 49.5t3.5 20.5v10q0 8 -7 33q0 12 8.5 22t20.5 10q11 0 19 -15t8 -33q0 -20 -46 -216t-46 -208q0 -11 10 -11q5 0 18 13q12 12 20 12q16 0 16 -20
q0 -13 -14.5 -25t-32.5 -19t-27 -7zM166 594q-16 0 -24 4h-4q-29 0 -29 34q0 17 14.5 31t31.5 14t32 -12q17 -17 17 -33t-12 -27t-26 -11zM103 14q5 -39 -21 -62t-70 -44q-29 -14 -42 -29t-13 -43q0 -16 7 -24.5t25 -8.5q15 0 27 3.5t29 17.5q23 18 30 18q18 0 18 -21
q0 -10 -11.5 -24t-31.5 -25q-31 -15 -61 -15q-40 0 -58 23t-18 54q0 32 14 58.5t57 48.5q30 15 49.5 23.5t29.5 18.5t8 27q-3 24 14 24q15 0 18 -20z" />
    <glyph glyph-name="Idotaccent" unicode="&#x130;" horiz-adv-x="435" 
d="M264 -10q-29 0 -60.5 5t-64 7.5t-65.5 -7.5h-5q-10 0 -15 5t-5 12q0 19 26 26.5t72 7.5q21 111 47 234t58 259q32 135 54 229t34 147h-81q-19 0 -19 19q0 8 9 17t22 9h98t59.5 -0.5t40.5 -0.5q15 -4 15 -16q0 -10 -8 -18.5t-19 -10.5q-33 0 -47.5 0.5t-22.5 0.5
q-72 -290 -121.5 -507.5t-75.5 -362.5q65 -2 84 -8.5t19 -20.5q0 -6 -8.5 -15t-20.5 -11zM405 1049q-16 0 -24 4h-4q-29 0 -29 34q0 17 14.5 31t31.5 14t32 -12q17 -17 17 -33t-12 -27t-26 -11z" />
    <glyph glyph-name="dotlessi" unicode="&#x131;" horiz-adv-x="214" 
d="M65 -10q-34 0 -34 55q0 5 1 11.5t4 13.5q2 8 4.5 17t4.5 22q3 12 7 28.5t8 38.5q5 21 10 43t10 45t11 50.5t13 59.5t10.5 49.5t3.5 20.5v10q0 8 -7 33q0 12 8.5 22t20.5 10q11 0 19 -15t8 -33q0 -20 -46 -216t-46 -208q0 -11 10 -11q5 0 18 13q12 12 20 12q16 0 16 -20
q0 -13 -14.5 -25t-32.5 -19t-27 -7z" />
    <glyph glyph-name="Jcircumflex" unicode="&#x134;" horiz-adv-x="536" 
d="M145 -13q-101 0 -155 116q-29 63 -29 76q0 14 8 23t15 9q17 0 20 -13q11 -43 31.5 -81.5t52 -62.5t74.5 -24q54 0 92.5 29.5t66 78.5t46 109.5t31.5 123.5q1 5 7.5 36t16.5 78.5t21.5 103t23.5 111t21.5 102.5t16 76.5t7.5 33.5q-37 -20 -73 -20q-26 0 -58 7t-63.5 15.5
t-56.5 10.5q-14 6 -14 16q0 11 9 20t19 10q21 -2 51 -10t61 -15t53 -7q34 0 66 19q11 5 17.5 4t18.5 0q14 0 19 -17q-13 -51 -28.5 -120t-30.5 -144t-28.5 -145t-23 -123t-13.5 -76q-15 -75 -37 -138.5t-55.5 -111t-82.5 -74t-117 -26.5zM519 1033q-14 0 -31.5 17.5
t-33.5 44.5t-26 55q-2 -3 -3.5 -6t-3.5 -6q-13 -28 -77 -98q-9 -6 -17 -6q-18 0 -18 16q0 17 36 56q17 20 29 35.5t17 25.5q11 20 26.5 42t33.5 22t18 -19l-1 -12q0 -15 11 -40.5t28.5 -49.5t35.5 -37q4 -7 4 -15q0 -10 -8.5 -17.5t-19.5 -7.5z" />
    <glyph glyph-name="jcircumflex" unicode="&#x135;" horiz-adv-x="201" 
d="M-233 -414q-55 0 -90 19q-11 6 -11 15t7.5 18t17.5 11q16 -6 37.5 -9.5t47.5 -3.5q56 0 99 32t76.5 87t57.5 126.5t42 151.5t30.5 161t22 156t17.5 135q3 11 11.5 17t16.5 6q17 0 17 -18l-21 -150q-19 -129 -34 -235t-34.5 -190.5t-53.5 -149.5q-46 -89 -105.5 -134
t-150.5 -45zM240 578q-14 0 -31.5 17.5t-33.5 44.5t-26 55q-2 -3 -3.5 -6t-3.5 -6q-13 -28 -77 -98q-9 -6 -17 -6q-18 0 -18 16q0 17 36 56q17 20 29 35.5t17 25.5q11 20 26.5 42t33.5 22t18 -19l-1 -12q0 -15 11 -40.5t28.5 -49.5t35.5 -37q4 -7 4 -15q0 -10 -8.5 -17.5
t-19.5 -7.5z" />
    <glyph glyph-name="uni0136" unicode="&#x136;" horiz-adv-x="613" 
d="M11 -9q-15 0 -18 21q23 125 51 259t61 278q34 145 57 245.5t36 157.5q5 11 13.5 17.5t15.5 6.5q16 0 16 -18q-9 -50 -16.5 -90t-16.5 -79.5t-21 -89.5q-15 -64 -29.5 -127.5t-28.5 -127.5q28 32 80.5 90.5t129.5 144.5t138 156t107 124q11 8 24 7.5t13 -16.5
q0 -11 -8 -20q-37 -45 -94 -110t-133 -151q-76 -85 -126.5 -143t-76.5 -88q9 -93 39 -171t71.5 -133t86.5 -79q24 -13 54.5 -18t60 4t49.5 38q10 8 18 8q20 0 20 -18q0 -11 -14 -27.5t-34 -29.5t-37 -16q-54 -10 -103.5 3t-98.5 64q-39 39 -69 94t-51 118.5t-32 125.5
q-7 -7 -19.5 -20t-17.5 -21q-25 -115 -42.5 -200t-26.5 -141q-2 -12 -11 -20t-17 -8zM113 -281q-23 0 -23 23l8 14.5t20 37t25 47t23.5 44.5t15.5 30q12 16 25 16q18 0 18 -17q0 -9 -7 -22q-7 -14 -19 -40t-28.5 -55t-35.5 -53q-1 -10 -8.5 -17.5t-13.5 -7.5z" />
    <glyph glyph-name="uni0137" unicode="&#x137;" horiz-adv-x="436" 
d="M60 -12q-12 0 -20 4.5t-8 9.5q0 20 12 75.5t34 146.5q45 191 78.5 336t53.5 264q10 60 17 100t20 40q32 0 32 -33q0 -6 -3 -23t-8 -44q-9 -41 -14 -64.5t-8 -39.5t-6.5 -33.5t-9.5 -45t-17 -75.5q-11 -52 -18.5 -87t-11.5 -52q40 43 81 43q40 0 55 -27.5t15 -59.5
q0 -58 -41.5 -103t-125.5 -95q9 -50 35 -93t60.5 -69t69.5 -26q25 0 33.5 16.5t12.5 30.5q6 14 16 14q26 0 26 -33q0 -20 -17 -38q-33 -37 -67 -37q-57 0 -101 36.5t-72 88.5q-14 26 -20.5 49t-9.5 41l-7 -5q-1 -13 -6.5 -37.5t-15.5 -60.5q-9 -37 -14 -59t-7 -30
q-4 -25 -23 -25zM131 246q5 5 18 12q14 8 44.5 29t59.5 55q30 35 30 78q0 44 -30 44q-38 0 -65.5 -34t-40.5 -103q-1 -7 -4.5 -22.5t-11.5 -58.5zM169 -281q-23 0 -23 23q0 6 11 22q11 15 23 37t24 46q5 11 10.5 22.5t11.5 23.5q5 11 10.5 22.5t10.5 21.5q12 16 25 16
q18 0 18 -17q0 -9 -7 -22q-4 -7 -8.5 -16.5t-9.5 -21.5q-11 -23 -30 -62t-44 -70q-1 -10 -8.5 -17.5t-13.5 -7.5z" />
    <glyph glyph-name="kgreenlandic" unicode="&#x138;" horiz-adv-x="436" 
d="M60 -12q-12 0 -20 4.5t-8 9.5q0 20 12 75.5t34 146.5q45 191 78.5 336t53.5 264q10 60 17 100t20 40q32 0 32 -33q0 -6 -3 -23t-8 -44q-9 -41 -14 -64.5t-8 -39.5t-6.5 -33.5t-9.5 -45t-17 -75.5q-11 -52 -18.5 -87t-11.5 -52q40 43 81 43q40 0 55 -27.5t15 -59.5
q0 -58 -41.5 -103t-125.5 -95q9 -50 35 -93t60.5 -69t69.5 -26q25 0 33.5 16.5t12.5 30.5q6 14 16 14q26 0 26 -33q0 -20 -17 -38q-33 -37 -67 -37q-57 0 -101 36.5t-72 88.5q-14 26 -20.5 49t-9.5 41l-7 -5q-1 -13 -6.5 -37.5t-15.5 -60.5q-9 -37 -14 -59t-7 -30
q-4 -25 -23 -25zM131 246q5 5 18 12q14 8 44.5 29t59.5 55q30 35 30 78q0 44 -30 44q-38 0 -65.5 -34t-40.5 -103q-1 -7 -4.5 -22.5t-11.5 -58.5z" />
    <glyph glyph-name="Lacute" unicode="&#x139;" horiz-adv-x="538" 
d="M306 -7q-90 2 -143.5 3t-81 2.5t-37 2.5t-9.5 2.5t-1 2.5q-7 10 -4 26.5t14 32.5q10 16 22.5 54.5t25.5 92t26 114t25 120t22.5 111t17.5 86.5q18 83 33 155.5t28 134.5q3 10 12 17t17 7q14 0 17 -17q-11 -49 -27 -126.5t-36 -181.5q-7 -35 -17 -85.5t-22.5 -108.5
t-25 -117.5t-24.5 -112.5t-22 -93.5t-16 -60.5q107 -18 173 -18q47 2 74.5 3t44 2t28.5 2t27 3q11 0 14 -5.5t3 -11.5q0 -8 -7 -17t-17 -12q-34 -3 -68 -5t-66 -2zM267 1030q-23 0 -23 23q0 6 11 22q11 14 23 36.5t23 45.5q6 11 11.5 23t10.5 23q6 11 11.5 22.5t10.5 22.5
q11 15 25 15q18 0 18 -17q0 -9 -7 -22q-4 -7 -8.5 -16.5t-10.5 -20.5q-10 -23 -29 -62t-44 -71q-1 -10 -8.5 -17t-13.5 -7z" />
    <glyph glyph-name="lacute" unicode="&#x13a;" horiz-adv-x="261" 
d="M118 -8q-37 0 -55 20t-18 49t3.5 53t10.5 67q8 43 18 97t23 115q6 31 12.5 62.5t13.5 63.5q10 46 21.5 102t23.5 112t22.5 104.5t17 79t7.5 33.5q5 16 22 16q21 0 21 -23q-5 -30 -7 -43.5t-3.5 -21t-4 -18.5t-7.5 -35.5t-15 -72.5q-6 -29 -16 -76t-22.5 -105t-25 -118.5
t-24 -117t-20.5 -101.5t-13 -70q-7 -37 -10 -59.5t-3 -30.5q0 -15 9 -27t22 -12t23 4.5t20 8.5q5 2 9 4.5t8 4.5q8 4 10 4q22 0 22 -22t-29 -34.5t-66 -12.5zM181 1031q-23 0 -23 23q0 6 11 22q11 14 23 36.5t23 45.5q6 11 11.5 23t10.5 23q6 11 11.5 22.5t10.5 22.5
q11 15 25 15q18 0 18 -17q0 -9 -7 -22q-4 -7 -8.5 -16.5t-10.5 -20.5q-10 -23 -29 -62t-44 -71q-1 -10 -8.5 -17t-13.5 -7z" />
    <glyph glyph-name="uni013B" unicode="&#x13b;" horiz-adv-x="538" 
d="M306 -7q-90 2 -143.5 3t-81 2.5t-37 2.5t-9.5 2.5t-1 2.5q-7 10 -4 26.5t14 32.5q10 16 22.5 54.5t25.5 92t26 114t25 120t22.5 111t17.5 86.5q18 83 33 155.5t28 134.5q3 10 12 17t17 7q14 0 17 -17q-11 -49 -27 -126.5t-36 -181.5q-7 -35 -17 -85.5t-22.5 -108.5
t-25 -117.5t-24.5 -112.5t-22 -93.5t-16 -60.5q107 -18 173 -18q47 2 74.5 3t44 2t28.5 2t27 3q11 0 14 -5.5t3 -11.5q0 -8 -7 -17t-17 -12q-34 -3 -68 -5t-66 -2zM167 -281q-23 0 -23 23l8 14.5t20 37t25 47t23.5 44.5t15.5 30q12 16 25 16q18 0 18 -17q0 -9 -7 -22
q-7 -14 -19 -40t-28.5 -55t-35.5 -53q-1 -10 -8.5 -17.5t-13.5 -7.5z" />
    <glyph glyph-name="uni013C" unicode="&#x13c;" horiz-adv-x="261" 
d="M118 -8q-37 0 -55 20t-18 49t3.5 53t10.5 67q8 43 18 97t23 115q6 31 12.5 62.5t13.5 63.5q10 46 21.5 102t23.5 112t22.5 104.5t17 79t7.5 33.5q5 16 22 16q21 0 21 -23q-5 -30 -7 -43.5t-3.5 -21t-4 -18.5t-7.5 -35.5t-15 -72.5q-6 -29 -16 -76t-22.5 -105t-25 -118.5
t-24 -117t-20.5 -101.5t-13 -70q-7 -37 -10 -59.5t-3 -30.5q0 -15 9 -27t22 -12t23 4.5t20 8.5q5 2 9 4.5t8 4.5q8 4 10 4q22 0 22 -22t-29 -34.5t-66 -12.5zM53 -281q-23 0 -23 23q0 6 11 22q11 15 23 37t24 46q5 11 10.5 22.5t11.5 23.5q5 11 10.5 22.5t10.5 21.5
q12 16 25 16q18 0 18 -17q0 -9 -7 -22q-4 -7 -8.5 -16.5t-9.5 -21.5q-11 -23 -30 -62t-44 -70q-1 -10 -8.5 -17.5t-13.5 -7.5z" />
    <glyph glyph-name="Lcaron" unicode="&#x13d;" horiz-adv-x="538" 
d="M306 -7q-90 2 -143.5 3t-81 2.5t-37 2.5t-9.5 2.5t-1 2.5q-7 10 -4 26.5t14 32.5q10 16 22.5 54.5t25.5 92t26 114t25 120t22.5 111t17.5 86.5q18 83 33 155.5t28 134.5q3 10 12 17t17 7q14 0 17 -17q-11 -49 -27 -126.5t-36 -181.5q-7 -35 -17 -85.5t-22.5 -108.5
t-25 -117.5t-24.5 -112.5t-22 -93.5t-16 -60.5q107 -18 173 -18q47 2 74.5 3t44 2t28.5 2t27 3q11 0 14 -5.5t3 -11.5q0 -8 -7 -17t-17 -12q-34 -3 -68 -5t-66 -2zM423 855q-18 0 -18 18q0 8 6 17q13 14 24 35t18 39.5t7 25.5q-7 -4 -13 -7t-14 -3q-20 0 -20 21
q0 18 13.5 35t36.5 17q43 0 43 -54q0 -34 -15.5 -67.5t-35.5 -55t-32 -21.5z" />
    <glyph glyph-name="lcaron" unicode="&#x13e;" horiz-adv-x="261" 
d="M118 -8q-37 0 -55 20t-18 49t3.5 53t10.5 67q8 43 18 97t23 115q6 31 12.5 62.5t13.5 63.5q10 46 21.5 102t23.5 112t22.5 104.5t17 79t7.5 33.5q5 16 22 16q21 0 21 -23q-5 -30 -7 -43.5t-3.5 -21t-4 -18.5t-7.5 -35.5t-15 -72.5q-6 -29 -16 -76t-22.5 -105t-25 -118.5
t-24 -117t-20.5 -101.5t-13 -70q-7 -37 -10 -59.5t-3 -30.5q0 -15 9 -27t22 -12t23 4.5t20 8.5q5 2 9 4.5t8 4.5q8 4 10 4q22 0 22 -22t-29 -34.5t-66 -12.5zM296 736q-18 0 -18 18q0 8 6 17q13 14 24 35t18 39.5t7 25.5q-7 -4 -13 -7t-14 -3q-20 0 -20 21q0 18 13.5 35
t36.5 17q43 0 43 -54q0 -34 -15.5 -67.5t-35.5 -55t-32 -21.5z" />
    <glyph glyph-name="Ldot" unicode="&#x13f;" horiz-adv-x="494" 
d="M306 -7q-90 2 -143.5 3t-81 2.5t-37 2.5t-9.5 2.5t-1 2.5q-7 10 -4 26.5t14 32.5q10 16 22.5 54.5t25.5 92t26 114t25 120t22.5 111t17.5 86.5q18 83 33 155.5t28 134.5q3 10 12 17t17 7q14 0 17 -17q-11 -49 -27 -126.5t-36 -181.5q-7 -35 -17 -85.5t-22.5 -108.5
t-25 -117.5t-24.5 -112.5t-22 -93.5t-16 -60.5q107 -18 173 -18q47 2 74.5 3t44 2t28.5 2t27 3q11 0 14 -5.5t3 -11.5q0 -8 -7 -17t-17 -12q-34 -3 -68 -5t-66 -2zM370 286q-27 0 -38 23.5t-11 44.5t6 31t21 20q13 10 39 10q24 0 44 -13.5t20 -33.5q0 -21 -13 -40
t-31.5 -30.5t-36.5 -11.5z" />
    <glyph glyph-name="ldot" unicode="&#x140;" horiz-adv-x="410" 
d="M118 -8q-37 0 -55 20t-18 49t3.5 53t10.5 67q8 43 18 97t23 115q6 31 12.5 62.5t13.5 63.5q10 46 21.5 102t23.5 112t22.5 104.5t17 79t7.5 33.5q5 16 22 16q21 0 21 -23q-5 -30 -7 -43.5t-3.5 -21t-4 -18.5t-7.5 -35.5t-15 -72.5q-6 -29 -16 -76t-22.5 -105t-25 -118.5
t-24 -117t-20.5 -101.5t-13 -70q-7 -37 -10 -59.5t-3 -30.5q0 -15 9 -27t22 -12t23 4.5t20 8.5q5 2 9 4.5t8 4.5q8 4 10 4q22 0 22 -22t-29 -34.5t-66 -12.5zM289 286q-27 0 -38 23.5t-11 44.5t6 31t21 20q13 10 39 10q24 0 44 -13.5t20 -33.5q0 -21 -13 -40t-31.5 -30.5
t-36.5 -11.5z" />
    <glyph glyph-name="Lslash" unicode="&#x141;" horiz-adv-x="538" 
d="M306 -7q-90 2 -143.5 3t-81 2.5t-37 2.5t-9.5 2.5t-1 2.5q-7 10 -4 26.5t14 32.5q10 16 22.5 54.5t25.5 92t26 114t25 120t22.5 111t17.5 86.5q18 83 33 155.5t28 134.5q3 10 12 17t17 7q14 0 17 -17q-11 -49 -27 -126.5t-36 -181.5q-7 -35 -17 -85.5t-22.5 -108.5
t-25 -117.5t-24.5 -112.5t-22 -93.5t-16 -60.5q107 -18 173 -18q47 2 74.5 3t44 2t28.5 2t27 3q11 0 14 -5.5t3 -11.5q0 -8 -7 -17t-17 -12q-34 -3 -68 -5t-66 -2zM1 327q-10 14 0 24q1 1 20 14.5t46.5 33t57 40t52.5 36.5t31 21l123 73q5 2 11 0t8 -7q6 -13 -5 -21
q-13 -10 -20 -15t-14.5 -11t-23 -17t-47.5 -33l-206 -139q-8 -4 -16.5 -6.5t-16.5 7.5z" />
    <glyph glyph-name="lslash" unicode="&#x142;" horiz-adv-x="261" 
d="M118 -8q-37 0 -55 20t-18 49t3.5 53t10.5 67q8 43 18 97t23 115q6 31 12.5 62.5t13.5 63.5q10 46 21.5 102t23.5 112t22.5 104.5t17 79t7.5 33.5q5 16 22 16q21 0 21 -23q-5 -30 -7 -43.5t-3.5 -21t-4 -18.5t-7.5 -35.5t-15 -72.5q-6 -29 -16 -76t-22.5 -105t-25 -118.5
t-24 -117t-20.5 -101.5t-13 -70q-7 -37 -10 -59.5t-3 -30.5q0 -15 9 -27t22 -12t23 4.5t20 8.5q5 2 9 4.5t8 4.5q8 4 10 4q22 0 22 -22t-29 -34.5t-66 -12.5zM-35 339q-10 14 0 24q1 1 20 14.5t46.5 33t57 40t52.5 36.5t31 21l123 73q5 2 11 0t8 -7q6 -13 -5 -21
q-13 -10 -20 -15t-14.5 -11t-23 -17t-47.5 -33l-206 -139q-8 -4 -16.5 -6.5t-16.5 7.5z" />
    <glyph glyph-name="Nacute" unicode="&#x143;" horiz-adv-x="649" 
d="M468 -11q-13 0 -23.5 18.5t-18.5 46.5t-15 54q-7 29 -21.5 83t-32.5 123t-37.5 145t-38.5 149t-34.5 135l-25.5 102q-19 -88 -41 -195t-46 -220.5t-48 -221.5t-45 -198q-5 -20 -26 -20t-21 18q0 3 8.5 39.5t25.5 106.5q6 26 18 82t27.5 129.5t32.5 154t33.5 157.5
t29.5 140t21.5 101.5t9.5 40.5q3 10 15 10q11 0 17 -7t10 -24q5 -23 16.5 -72t28 -114.5t36 -141t40 -153.5t40 -150t35.5 -131.5t27 -98.5q4 24 13.5 75.5t22.5 121t28 149t30.5 159.5t29 152t24 127.5t15.5 85.5q4 11 15 17.5t20 6.5t9.5 -6t0.5 -18q-21 -104 -44 -222.5
t-45.5 -238t-42 -230t-34.5 -198.5q-6 -29 -11 -49t-28 -20zM415 1030q-23 0 -23 23q0 6 11 22q11 14 23 36.5t23 45.5q6 11 11.5 23t10.5 23q6 11 11.5 22.5t10.5 22.5q11 15 25 15q18 0 18 -17q0 -9 -7 -22q-4 -7 -8.5 -16.5t-10.5 -20.5q-10 -23 -29 -62t-44 -71
q-1 -10 -8.5 -17t-13.5 -7z" />
    <glyph glyph-name="nacute" unicode="&#x144;" horiz-adv-x="446" 
d="M311 -6q-32 0 -28 27l49 292q9 54 9 83q0 48 -27 48q-15 0 -36.5 -27.5t-45.5 -71.5t-48 -94.5t-44 -96.5t-33 -77.5t-16 -37.5q-18 -39 -36 -39q-10 0 -12.5 5.5t-2.5 18.5q0 5 5.5 38.5t14.5 84.5t19.5 107t20 106.5t16.5 84t9 37.5q6 12 10.5 15t17.5 3t20 -9.5
t7 -17.5q0 -13 -18.5 -68.5t-38.5 -168.5l-10 -59q5 11 11.5 25.5t13.5 30.5q10 22 25.5 58t36 75.5t42.5 71.5q44 63 82 63q67 0 67 -108q0 -40 -13 -100.5t-24 -132.5q-6 -40 -11.5 -78.5t-12.5 -63t-19 -24.5zM255 574q-11 0 -19.5 5.5t-8.5 17.5q0 6 11 22q16 23 38 68
t41 87q8 15 36 15q19 0 19 -17q0 -3 -8 -23t-21.5 -48.5t-29 -56.5t-29.5 -46q-8 -13 -15 -18.5t-14 -5.5z" />
    <glyph glyph-name="uni0145" unicode="&#x145;" horiz-adv-x="649" 
d="M468 -11q-13 0 -23.5 18.5t-18.5 46.5t-15 54q-7 29 -21.5 83t-32.5 123t-37.5 145t-38.5 149t-34.5 135l-25.5 102q-19 -88 -41 -195t-46 -220.5t-48 -221.5t-45 -198q-5 -20 -26 -20t-21 18q0 3 8.5 39.5t25.5 106.5q6 26 18 82t27.5 129.5t32.5 154t33.5 157.5
t29.5 140t21.5 101.5t9.5 40.5q3 10 15 10q11 0 17 -7t10 -24q5 -23 16.5 -72t28 -114.5t36 -141t40 -153.5t40 -150t35.5 -131.5t27 -98.5q4 24 13.5 75.5t22.5 121t28 149t30.5 159.5t29 152t24 127.5t15.5 85.5q4 11 15 17.5t20 6.5t9.5 -6t0.5 -18q-21 -104 -44 -222.5
t-45.5 -238t-42 -230t-34.5 -198.5q-6 -29 -11 -49t-28 -20zM135 -281q-23 0 -23 23l8 14.5t20 37t25 47t23.5 44.5t15.5 30q12 16 25 16q18 0 18 -17q0 -9 -7 -22q-7 -14 -19 -40t-28.5 -55t-35.5 -53q-1 -10 -8.5 -17.5t-13.5 -7.5z" />
    <glyph glyph-name="uni0146" unicode="&#x146;" horiz-adv-x="446" 
d="M311 -6q-32 0 -28 27l49 292q9 54 9 83q0 48 -27 48q-15 0 -36.5 -27.5t-45.5 -71.5t-48 -94.5t-44 -96.5t-33 -77.5t-16 -37.5q-18 -39 -36 -39q-10 0 -12.5 5.5t-2.5 18.5q0 5 5.5 38.5t14.5 84.5t19.5 107t20 106.5t16.5 84t9 37.5q6 12 10.5 15t17.5 3t20 -9.5
t7 -17.5q0 -13 -18.5 -68.5t-38.5 -168.5l-10 -59q5 11 11.5 25.5t13.5 30.5q10 22 25.5 58t36 75.5t42.5 71.5q44 63 82 63q67 0 67 -108q0 -40 -13 -100.5t-24 -132.5q-6 -40 -11.5 -78.5t-12.5 -63t-19 -24.5zM131 -281q-23 0 -23 23q0 6 11 22q11 15 23 37t24 46
q5 11 10.5 22.5t11.5 23.5q5 11 10.5 22.5t10.5 21.5q12 16 25 16q18 0 18 -17q0 -9 -7 -22q-4 -7 -8.5 -16.5t-9.5 -21.5q-11 -23 -30 -62t-44 -70q-1 -10 -8.5 -17.5t-13.5 -7.5z" />
    <glyph glyph-name="Ncaron" unicode="&#x147;" horiz-adv-x="649" 
d="M468 -11q-13 0 -23.5 18.5t-18.5 46.5t-15 54q-7 29 -21.5 83t-32.5 123t-37.5 145t-38.5 149t-34.5 135l-25.5 102q-19 -88 -41 -195t-46 -220.5t-48 -221.5t-45 -198q-5 -20 -26 -20t-21 18q0 3 8.5 39.5t25.5 106.5q6 26 18 82t27.5 129.5t32.5 154t33.5 157.5
t29.5 140t21.5 101.5t9.5 40.5q3 10 15 10q11 0 17 -7t10 -24q5 -23 16.5 -72t28 -114.5t36 -141t40 -153.5t40 -150t35.5 -131.5t27 -98.5q4 24 13.5 75.5t22.5 121t28 149t30.5 159.5t29 152t24 127.5t15.5 85.5q4 11 15 17.5t20 6.5t9.5 -6t0.5 -18q-21 -104 -44 -222.5
t-45.5 -238t-42 -230t-34.5 -198.5q-6 -29 -11 -49t-28 -20zM428 1025q-11 0 -17 11t-16 29q-36 70 -75 89q-12 6 -19.5 10.5t-7.5 14.5t9 17.5t22 7.5q18 0 37.5 -17t39 -42.5t35.5 -53.5q18 29 29.5 46t27.5 34.5t46 47.5q10 8 19 8q18 0 18 -17q0 -10 -8 -20
q-33 -33 -50 -52.5t-28 -36.5t-27 -44q-8 -15 -16 -23.5t-19 -8.5z" />
    <glyph glyph-name="ncaron" unicode="&#x148;" horiz-adv-x="446" 
d="M311 -6q-32 0 -28 27l49 292q9 54 9 83q0 48 -27 48q-15 0 -36.5 -27.5t-45.5 -71.5t-48 -94.5t-44 -96.5t-33 -77.5t-16 -37.5q-18 -39 -36 -39q-10 0 -12.5 5.5t-2.5 18.5q0 5 5.5 38.5t14.5 84.5t19.5 107t20 106.5t16.5 84t9 37.5q6 12 10.5 15t17.5 3t20 -9.5
t7 -17.5q0 -13 -18.5 -68.5t-38.5 -168.5l-10 -59q5 11 11.5 25.5t13.5 30.5q10 22 25.5 58t36 75.5t42.5 71.5q44 63 82 63q67 0 67 -108q0 -40 -13 -100.5t-24 -132.5q-6 -40 -11.5 -78.5t-12.5 -63t-19 -24.5zM262 570q-11 0 -17 11t-16 29q-36 70 -75 89
q-12 6 -19.5 10.5t-7.5 14.5t9 17.5t22 7.5q18 0 37.5 -17t39 -42.5t35.5 -53.5q18 29 29.5 46t27.5 34.5t46 47.5q10 8 19 8q18 0 18 -17q0 -10 -8 -20q-33 -33 -50 -52.5t-28 -36.5t-27 -44q-8 -15 -16 -23.5t-19 -8.5z" />
    <glyph glyph-name="Eng" unicode="&#x14a;" horiz-adv-x="737" 
d="M465 -170q-14 -69 -33.5 -123t-49 -85.5t-75.5 -31.5q-48 0 -80.5 32.5t-32.5 86.5q0 37 20.5 72.5t52.5 68t68 60.5t67 49.5t49 34.5v4q-13 15 -22.5 47t-17.5 63q-7 29 -21.5 83t-32.5 123t-37.5 145t-38.5 149t-34.5 135l-25.5 102q-19 -88 -41 -195t-46 -220.5
t-48 -221.5t-45 -198q-5 -20 -26 -20t-21 18q0 3 8.5 39.5t25.5 106.5q6 26 18 82t27.5 129.5t32.5 154t33.5 157.5t29.5 140t21.5 101.5t9.5 40.5q3 10 15 10q11 0 17 -7t10 -24q5 -23 16.5 -72t28 -114.5t36 -141t40 -153.5t40 -150t35.5 -131.5t27 -98.5q3 16 8 45t12 68
l3 14v0q13 67 28.5 151.5t32.5 174t33 172.5t28 147.5t18 97.5q4 11 15 17.5t20 6.5t9.5 -6t0.5 -18q-21 -104 -44 -222.5t-45.5 -238t-42 -230t-34.5 -198.5q-2 -9 -3.5 -16.5t-2.5 -14.5q18 12 34.5 27t30.5 26.5t23 11.5q18 0 18 -17q0 -15 -8 -20q-34 -23 -60 -43.5
t-48 -37.5zM243 -286q0 -40 12 -57t43 -17q36 0 60.5 31t41 81t27.5 108l14 78q-23 -17 -56 -42t-65.5 -55t-54.5 -62.5t-22 -64.5z" />
    <glyph glyph-name="eng" unicode="&#x14b;" horiz-adv-x="446" 
d="M290 -170q-14 -69 -33.5 -123.5t-49 -85.5t-75.5 -31q-48 0 -80.5 32.5t-32.5 86.5q0 32 18.5 65t48 64.5t64.5 60.5t68.5 53t58.5 41l8 39l47 281q9 54 9 83q0 48 -27 48q-15 0 -36.5 -27.5t-45.5 -71.5t-48 -94.5t-44 -96.5t-33 -77.5t-16 -37.5q-18 -39 -36 -39
q-10 0 -12.5 5.5t-2.5 18.5q0 5 5.5 38.5t14.5 84.5t19.5 107t20 106.5t16.5 84t9 37.5q6 12 10.5 15t17.5 3t20 -9.5t7 -17.5q0 -13 -18.5 -68.5t-38.5 -168.5l-10 -59q5 11 11.5 25.5t13.5 30.5q10 22 25.5 58t36 75.5t42.5 71.5q44 63 82 63q67 0 67 -108
q0 -40 -13 -100.5t-24 -132.5q-6 -35 -10.5 -69.5t-10.5 -58.5q25 18 46.5 39t34.5 21q18 0 18 -17q0 -15 -8 -20q-32 -21 -57 -41t-46 -36zM68 -296q0 -28 14 -48t45 -20q36 0 59.5 32t39 83t26.5 109l14 76q-28 -22 -62 -50t-65 -59t-51 -62.5t-20 -60.5z" />
    <glyph glyph-name="Omacron" unicode="&#x14c;" horiz-adv-x="661" 
d="M226 -22q-178 0 -178 317q0 86 14.5 171t41.5 161t65.5 135t87.5 92.5t106 33.5q58 0 105 -40q21 -21 11 -34.5t-41 0.5q-44 25 -90 25q-40 0 -74.5 -27t-63 -72t-50 -101t-37 -115t-23 -113t-7.5 -95q0 -148 34 -220t108 -72q61 0 112.5 38t91.5 101t68.5 139t44.5 152
q14 64 20.5 135t-1 139.5t-34.5 123.5q-29 56 -72 68q-15 5 -37 8.5t-38.5 9t-16.5 15.5q0 19 25 22q74 0 118.5 -31.5t67 -83.5t30.5 -113.5t8 -121.5q0 -107 -29 -221.5t-82 -212.5q-53 -97 -126 -155t-159 -58zM431 1073q-28 2 -45.5 8t-17.5 22q0 13 8.5 19.5t20.5 4.5
q33 -4 58 -6t48 -2.5t51 0.5t68 4q16 -6 16 -18q0 -20 -27 -28q-11 -3 -36 -4t-54 -1t-53.5 0.5t-36.5 0.5z" />
    <glyph glyph-name="omacron" unicode="&#x14d;" horiz-adv-x="381" 
d="M133 -9q-37 0 -59.5 20.5t-33 52.5t-10.5 66q0 91 30.5 176.5t83.5 141.5q51 57 115 57q92 0 92 -140q0 -54 -13.5 -109t-36.5 -104t-51 -86t-57 -56q-30 -19 -60 -19zM141 36q21 0 45.5 25t48 67.5t40.5 95.5q27 80 27 136q0 58 -7 72q-6 15 -14.5 21t-28.5 6
q-21 0 -44 -16q-46 -29 -80 -100q-53 -106 -53 -206q0 -68 39 -94q6 -3 12.5 -5t14.5 -2zM222 594q-28 2 -45.5 8t-17.5 22q0 13 8.5 19.5t20.5 4.5q33 -4 58 -6t48 -2.5t51 0.5t68 4q16 -6 16 -18q0 -20 -27 -28q-11 -3 -36 -4t-54 -1t-53.5 0.5t-36.5 0.5z" />
    <glyph glyph-name="Obreve" unicode="&#x14e;" horiz-adv-x="661" 
d="M226 -22q-178 0 -178 317q0 86 14.5 171t41.5 161t65.5 135t87.5 92.5t106 33.5q58 0 105 -40q21 -21 11 -34.5t-41 0.5q-44 25 -90 25q-40 0 -74.5 -27t-63 -72t-50 -101t-37 -115t-23 -113t-7.5 -95q0 -148 34 -220t108 -72q61 0 112.5 38t91.5 101t68.5 139t44.5 152
q14 64 20.5 135t-1 139.5t-34.5 123.5q-29 56 -72 68q-15 5 -37 8.5t-38.5 9t-16.5 15.5q0 19 25 22q74 0 118.5 -31.5t67 -83.5t30.5 -113.5t8 -121.5q0 -107 -29 -221.5t-82 -212.5q-53 -97 -126 -155t-159 -58zM469 1035q-47 0 -73 40t-26 102q0 13 7.5 22t15.5 9t12 -10
q1 -5 3 -18.5t5 -35.5q8 -64 50 -64q50 0 85.5 36.5t68.5 92.5q7 8 16 8q13 0 13 -17q0 -9 -3 -14q-38 -66 -82.5 -108.5t-91.5 -42.5z" />
    <glyph glyph-name="obreve" unicode="&#x14f;" horiz-adv-x="381" 
d="M133 -9q-37 0 -59.5 20.5t-33 52.5t-10.5 66q0 91 30.5 176.5t83.5 141.5q51 57 115 57q92 0 92 -140q0 -54 -13.5 -109t-36.5 -104t-51 -86t-57 -56q-30 -19 -60 -19zM141 36q21 0 45.5 25t48 67.5t40.5 95.5q27 80 27 136q0 58 -7 72q-6 15 -14.5 21t-28.5 6
q-21 0 -44 -16q-46 -29 -80 -100q-53 -106 -53 -206q0 -68 39 -94q6 -3 12.5 -5t14.5 -2zM266 580q-47 0 -73 40t-26 102q0 13 7.5 22t15.5 9t12 -10q1 -5 3 -18.5t5 -35.5q8 -64 50 -64q50 0 85.5 36.5t68.5 92.5q7 8 16 8q13 0 13 -17q0 -9 -3 -14q-38 -66 -82.5 -108.5
t-91.5 -42.5z" />
    <glyph glyph-name="Ohungarumlaut" unicode="&#x150;" horiz-adv-x="661" 
d="M349 997q-21 4 -16 24q2 7 15 16q22 14 43 37t37 42q14 11 26 8q15 -4 12 -19q-1 -3 -3.5 -7t-7.5 -9q-11 -11 -23 -26q-13 -16 -29.5 -32t-30.5 -26t-23 -8zM463 997q-21 8 -13 25q2 4 5.5 7.5t10.5 7.5q23 11 46.5 32.5t40.5 39.5q14 9 26 5q16 -5 11 -19
q-1 -5 -13 -15q-5 -4 -11.5 -10.5t-14.5 -13.5q-15 -14 -32 -29t-32 -24t-24 -6zM226 -22q-178 0 -178 317q0 86 14.5 171t41.5 161t65.5 135t87.5 92.5t106 33.5q58 0 105 -40q21 -21 11 -34.5t-41 0.5q-44 25 -90 25q-40 0 -74.5 -27t-63 -72t-50 -101t-37 -115t-23 -113
t-7.5 -95q0 -148 34 -220t108 -72q61 0 112.5 38t91.5 101t68.5 139t44.5 152q14 64 20.5 135t-1 139.5t-34.5 123.5q-29 56 -72 68q-15 5 -37 8.5t-38.5 9t-16.5 15.5q0 19 25 22q74 0 118.5 -31.5t67 -83.5t30.5 -113.5t8 -121.5q0 -107 -29 -221.5t-82 -212.5
q-53 -97 -126 -155t-159 -58z" />
    <glyph glyph-name="ohungarumlaut" unicode="&#x151;" horiz-adv-x="381" 
d="M133 -9q-37 0 -59.5 20.5t-33 52.5t-10.5 66q0 91 30.5 176.5t83.5 141.5q51 57 115 57q92 0 92 -140q0 -54 -13.5 -109t-36.5 -104t-51 -86t-57 -56q-30 -19 -60 -19zM141 36q21 0 45.5 25t48 67.5t40.5 95.5q27 80 27 136q0 58 -7 72q-6 15 -14.5 21t-28.5 6
q-21 0 -44 -16q-46 -29 -80 -100q-53 -106 -53 -206q0 -68 39 -94q6 -3 12.5 -5t14.5 -2zM223 586q-18 3 -18 22q0 8 12 18q20 17 37.5 43t30.5 47q13 13 25 11q14 -1 14 -17q0 -4 -12 -24t-29.5 -43.5t-34 -40.5t-25.5 -16zM322 576q-20 5 -17 23q1 4 16.5 20.5t36 39
t34.5 43.5q13 12 25 9q17 -3 14 -17q-1 -4 -14.5 -23t-32 -42t-36 -39t-26.5 -14z" />
    <glyph glyph-name="OE" unicode="&#x152;" horiz-adv-x="1017" 
d="M208 -22q-178 0 -178 317q0 86 14.5 171t41.5 161t65.5 135t87.5 92.5t106 33.5q56 0 105 -40q9 -9 9 -20q0 -24 -16 -24q-2 0 -7.5 3t-15.5 7q-44 25 -90 25q-40 0 -80 -36t-75 -99t-60 -145q-36 -123 -36 -243q0 -292 129 -292q60 0 111 35t93 96.5t73 141.5t50 170
q11 53 16.5 104t5.5 101q0 99 -38 180q-29 56 -73 68q-11 3 -21.5 5.5t-20.5 4.5t-19 4t-16 4q-14 6 -14 15q0 19 25 22q202 0 222 -278q11 50 21 89.5t17 70.5l4 17q-16 1 -16 20q0 18 29 33v2q0 10 9 20q12 9 21 9q16 0 17 -15q49 12 123 18.5t173 6.5h27q49 0 49 -17
q0 -10 -7 -18.5t-17 -11.5h-67q-208 0 -288 -26q-6 -15 -10.5 -33.5t-9.5 -41.5q-5 -22 -12.5 -54.5t-17.5 -76.5q-10 -43 -20 -85.5t-20 -85.5q14 -1 31.5 -2.5t38.5 -1.5h62q59 0 96.5 0.5t53.5 1.5q17 -5 17 -16q0 -19 -20 -27q-19 -6 -63 -6l-84 1h-16q-49 0 -80.5 1
t-45.5 3q-14 -64 -23.5 -110t-13.5 -73q-5 -36 -12 -79.5t-18 -86t-29 -78.5l386 -8q25 0 42 0.5t27 1.5q17 -5 17 -17q0 -20 -19 -25.5t-54 -5.5h-7q-74 0 -217 6q-70 2 -113.5 3.5t-57.5 1.5l-34 -3q-17 0 -22.5 7t-5.5 14t3 11q28 43 53 173q-86 -161 -205 -209
q-42 -17 -86 -17z" />
    <glyph glyph-name="oe" unicode="&#x153;" horiz-adv-x="552" 
d="M351 -10q-75 0 -87 105q-63 -104 -140 -104q-36 0 -58 20.5t-32.5 52.5t-10.5 66q0 91 30.5 176.5t83.5 141.5q51 57 115 57q73 0 88 -88q61 94 134 94q31 0 48 -25t17 -59q0 -64 -33.5 -108.5t-82.5 -72.5q-49 -29 -112 -54l-2 -72q0 -84 51 -84q27 0 50 11.5t41 23
t30 11.5q17 0 17 -18q0 -10 -14.5 -23t-37 -24.5t-48 -19t-47.5 -7.5zM326 244q47 24 85 45.5t60 52.5t22 83q0 39 -33 39q-50 0 -82 -54.5t-52 -165.5zM134 36q22 0 48.5 24.5t50 67t36.5 96.5q32 128 27.5 181.5t-51.5 53.5q-31 0 -65.5 -33.5t-58.5 -82.5
q-27 -52 -40 -104t-13 -102q0 -49 19 -75t47 -26z" />
    <glyph glyph-name="Racute" unicode="&#x154;" horiz-adv-x="507" 
d="M391 -37q-63 0 -112 65t-67 179q-24 110 -24 249q0 30 17 30q8 0 29 -9t41 -9q38 0 78.5 21.5t70.5 57.5q62 77 62 182q0 55 -18 99t-50.5 70.5t-75.5 26.5q-49 0 -78 -8l-184 -902q-6 -17 -28 -17q-23 0 -23 16l7 35t19.5 95t28.5 136t33.5 160t35.5 167.5t34 157.5
t28 129q-24 -8 -35.5 -20.5t-19.5 -22t-24 -8.5q-13 6 -13 20q0 28 31.5 51t79.5 35q8 23 17 32.5t16 9.5q5 0 8.5 -8.5t-4.5 -24.5q76 11 133.5 -13t90 -79.5t32.5 -141.5t-34.5 -155t-99 -108.5t-156.5 -39.5q0 -85 11 -160t32 -132t52.5 -89t71.5 -32q35 0 57 10.5
t44 23.5q7 11 16.5 6t13 -17t-7.5 -23q-28 -21 -59.5 -33t-76.5 -12zM300 1030q-23 0 -23 23q0 6 11 22q11 14 23 36.5t23 45.5q6 11 11.5 23t10.5 23q6 11 11.5 22.5t10.5 22.5q11 15 25 15q18 0 18 -17q0 -9 -7 -22q-4 -7 -8.5 -16.5t-10.5 -20.5q-10 -23 -29 -62t-44 -71
q-1 -10 -8.5 -17t-13.5 -7z" />
    <glyph glyph-name="racute" unicode="&#x155;" horiz-adv-x="355" 
d="M54 -16q-14 0 -14 18l23 119q3 18 11 57t17.5 86.5t18.5 93t15.5 77.5t7.5 37q7 42 29 42q10 0 15.5 -4.5t5.5 -18.5t-3.5 -30.5t-10.5 -39.5q-4 -15 -7.5 -28.5t-8.5 -32t-14 -50.5q27 60 51 96.5t60 70.5q34 29 68 29q26 0 42.5 -10.5t16.5 -24.5q0 -16 -15 -21.5
t-30 1.5q-12 8 -24.5 4t-29.5 -17q-43 -31 -72 -77t-49 -99t-33.5 -105t-24.5 -94q-15 -79 -45 -79zM268 574q-11 0 -19.5 5.5t-8.5 17.5q0 6 11 22q16 23 38 68t41 87q8 15 36 15q19 0 19 -17q0 -3 -8 -23t-21.5 -48.5t-29 -56.5t-29.5 -46q-8 -13 -15 -18.5t-14 -5.5z" />
    <glyph glyph-name="uni0156" unicode="&#x156;" horiz-adv-x="507" 
d="M391 -37q-63 0 -112 65t-67 179q-24 110 -24 249q0 30 17 30q8 0 29 -9t41 -9q38 0 78.5 21.5t70.5 57.5q62 77 62 182q0 55 -18 99t-50.5 70.5t-75.5 26.5q-49 0 -78 -8l-184 -902q-6 -17 -28 -17q-23 0 -23 16l7 35t19.5 95t28.5 136t33.5 160t35.5 167.5t34 157.5
t28 129q-24 -8 -35.5 -20.5t-19.5 -22t-24 -8.5q-13 6 -13 20q0 28 31.5 51t79.5 35q8 23 17 32.5t16 9.5q5 0 8.5 -8.5t-4.5 -24.5q76 11 133.5 -13t90 -79.5t32.5 -141.5t-34.5 -155t-99 -108.5t-156.5 -39.5q0 -85 11 -160t32 -132t52.5 -89t71.5 -32q35 0 57 10.5
t44 23.5q7 11 16.5 6t13 -17t-7.5 -23q-28 -21 -59.5 -33t-76.5 -12zM73 -281q-23 0 -23 23l8 14.5t20 37t25 47t23.5 44.5t15.5 30q12 16 25 16q18 0 18 -17q0 -9 -7 -22q-7 -14 -19 -40t-28.5 -55t-35.5 -53q-1 -10 -8.5 -17.5t-13.5 -7.5z" />
    <glyph glyph-name="uni0157" unicode="&#x157;" horiz-adv-x="355" 
d="M54 -16q-14 0 -14 18l23 119q3 18 11 57t17.5 86.5t18.5 93t15.5 77.5t7.5 37q7 42 29 42q10 0 15.5 -4.5t5.5 -18.5t-3.5 -30.5t-10.5 -39.5q-4 -15 -7.5 -28.5t-8.5 -32t-14 -50.5q27 60 51 96.5t60 70.5q34 29 68 29q26 0 42.5 -10.5t16.5 -24.5q0 -16 -15 -21.5
t-30 1.5q-12 8 -24.5 4t-29.5 -17q-43 -31 -72 -77t-49 -99t-33.5 -105t-24.5 -94q-15 -79 -45 -79zM12 -281q-23 0 -23 23q0 6 11 22q11 15 23 37t24 46q5 11 10.5 22.5t11.5 23.5q5 11 10.5 22.5t10.5 21.5q12 16 25 16q18 0 18 -17q0 -9 -7 -22q-4 -7 -8.5 -16.5
t-9.5 -21.5q-11 -23 -30 -62t-44 -70q-1 -10 -8.5 -17.5t-13.5 -7.5z" />
    <glyph glyph-name="Rcaron" unicode="&#x158;" horiz-adv-x="507" 
d="M391 -37q-63 0 -112 65t-67 179q-24 110 -24 249q0 30 17 30q8 0 29 -9t41 -9q38 0 78.5 21.5t70.5 57.5q62 77 62 182q0 55 -18 99t-50.5 70.5t-75.5 26.5q-49 0 -78 -8l-184 -902q-6 -17 -28 -17q-23 0 -23 16l7 35t19.5 95t28.5 136t33.5 160t35.5 167.5t34 157.5
t28 129q-24 -8 -35.5 -20.5t-19.5 -22t-24 -8.5q-13 6 -13 20q0 28 31.5 51t79.5 35q8 23 17 32.5t16 9.5q5 0 8.5 -8.5t-4.5 -24.5q76 11 133.5 -13t90 -79.5t32.5 -141.5t-34.5 -155t-99 -108.5t-156.5 -39.5q0 -85 11 -160t32 -132t52.5 -89t71.5 -32q35 0 57 10.5
t44 23.5q7 11 16.5 6t13 -17t-7.5 -23q-28 -21 -59.5 -33t-76.5 -12zM313 1025q-11 0 -17 11t-16 29q-36 70 -75 89q-12 6 -19.5 10.5t-7.5 14.5t9 17.5t22 7.5q18 0 37.5 -17t39 -42.5t35.5 -53.5q18 29 29.5 46t27.5 34.5t46 47.5q10 8 19 8q18 0 18 -17q0 -10 -8 -20
q-33 -33 -50 -52.5t-28 -36.5t-27 -44q-8 -15 -16 -23.5t-19 -8.5z" />
    <glyph glyph-name="rcaron" unicode="&#x159;" horiz-adv-x="355" 
d="M54 -16q-14 0 -14 18l23 119q3 18 11 57t17.5 86.5t18.5 93t15.5 77.5t7.5 37q7 42 29 42q10 0 15.5 -4.5t5.5 -18.5t-3.5 -30.5t-10.5 -39.5q-4 -15 -7.5 -28.5t-8.5 -32t-14 -50.5q27 60 51 96.5t60 70.5q34 29 68 29q26 0 42.5 -10.5t16.5 -24.5q0 -16 -15 -21.5
t-30 1.5q-12 8 -24.5 4t-29.5 -17q-43 -31 -72 -77t-49 -99t-33.5 -105t-24.5 -94q-15 -79 -45 -79zM275 570q-11 0 -17 11t-16 29q-36 70 -75 89q-12 6 -19.5 10.5t-7.5 14.5t9 17.5t22 7.5q18 0 37.5 -17t39 -42.5t35.5 -53.5q18 29 29.5 46t27.5 34.5t46 47.5q10 8 19 8
q18 0 18 -17q0 -10 -8 -20q-33 -33 -50 -52.5t-28 -36.5t-27 -44q-8 -15 -16 -23.5t-19 -8.5z" />
    <glyph glyph-name="Sacute" unicode="&#x15a;" horiz-adv-x="618" 
d="M244 -11q-68 0 -125 22.5t-91.5 66.5t-34.5 107q0 95 57 164q8 10 21 24t26 24.5t22 10.5q18 0 19 -12.5t-4 -18.5q-50 -46 -71.5 -87.5t-21.5 -90.5q0 -60 29.5 -96.5t77 -53t101.5 -16.5q59 0 102 30.5t66 80t23 106.5q0 88 -81 275q-81 189 -81 263q0 49 15.5 89.5
t47.5 65t80 24.5q44 0 74 -17t48.5 -41.5t27 -47.5t8.5 -35q0 -10 -8.5 -17.5t-17.5 -7.5q-15 0 -18 18q-7 44 -37 75t-77 31t-71 -33t-24 -77q0 -59 16.5 -116.5t40.5 -113.5l48 -112t40.5 -112.5t16.5 -115.5q0 -44 -13 -89t-42 -83t-75.5 -61t-113.5 -23zM461 1037
q-23 0 -23 23q0 6 11 22q11 14 23 36.5t23 45.5q6 11 11.5 23t10.5 23q6 11 11.5 22.5t10.5 22.5q11 15 25 15q18 0 18 -17q0 -9 -7 -22q-4 -7 -8.5 -16.5t-10.5 -20.5q-10 -23 -29 -62t-44 -71q-1 -10 -8.5 -17t-13.5 -7z" />
    <glyph glyph-name="sacute" unicode="&#x15b;" horiz-adv-x="309" 
d="M117 -3q-37 0 -62 25t-25 52q0 14 8 19t17 6q10 0 16 -7.5t12 -17.5q5 -9 11 -17t22 -8q34 0 53.5 21t19.5 46q0 32 -13 65t-36 76q-25 46 -37.5 82t-12.5 61q0 52 26 84.5t73 32.5q20 0 40.5 -8t35 -22t14.5 -33q0 -29 -24 -29q-9 0 -14.5 7t-11.5 14q-18 21 -40 21
q-49 0 -49 -57q0 -34 14.5 -70.5t33 -73t33 -72.5t14.5 -69q0 -50 -30.5 -85.5t-87.5 -42.5zM222 574q-11 0 -19.5 5.5t-8.5 17.5q0 6 11 22q16 23 38 68t41 87q8 15 36 15q19 0 19 -17q0 -3 -8 -23t-21.5 -48.5t-29 -56.5t-29.5 -46q-8 -13 -15 -18.5t-14 -5.5z" />
    <glyph glyph-name="Scircumflex" unicode="&#x15c;" horiz-adv-x="618" 
d="M244 -11q-68 0 -125 22.5t-91.5 66.5t-34.5 107q0 95 57 164q8 10 21 24t26 24.5t22 10.5q18 0 19 -12.5t-4 -18.5q-50 -46 -71.5 -87.5t-21.5 -90.5q0 -60 29.5 -96.5t77 -53t101.5 -16.5q59 0 102 30.5t66 80t23 106.5q0 88 -81 275q-81 189 -81 263q0 49 15.5 89.5
t47.5 65t80 24.5q44 0 74 -17t48.5 -41.5t27 -47.5t8.5 -35q0 -10 -8.5 -17.5t-17.5 -7.5q-15 0 -18 18q-7 44 -37 75t-77 31t-71 -33t-24 -77q0 -59 16.5 -116.5t40.5 -113.5l48 -112t40.5 -112.5t16.5 -115.5q0 -44 -13 -89t-42 -83t-75.5 -61t-113.5 -23zM562 1040
q-14 0 -31.5 17.5t-33.5 44.5t-26 55q-2 -3 -3.5 -6t-3.5 -6q-13 -28 -77 -98q-9 -6 -17 -6q-18 0 -18 16q0 17 36 56q17 20 29 35.5t17 25.5q11 20 26.5 42t33.5 22t18 -19l-1 -12q0 -15 11 -40.5t28.5 -49.5t35.5 -37q4 -7 4 -15q0 -10 -8.5 -17.5t-19.5 -7.5z" />
    <glyph glyph-name="scircumflex" unicode="&#x15d;" horiz-adv-x="309" 
d="M117 -3q-37 0 -62 25t-25 52q0 14 8 19t17 6q10 0 16 -7.5t12 -17.5q5 -9 11 -17t22 -8q34 0 53.5 21t19.5 46q0 32 -13 65t-36 76q-25 46 -37.5 82t-12.5 61q0 52 26 84.5t73 32.5q20 0 40.5 -8t35 -22t14.5 -33q0 -29 -24 -29q-9 0 -14.5 7t-11.5 14q-18 21 -40 21
q-49 0 -49 -57q0 -34 14.5 -70.5t33 -73t33 -72.5t14.5 -69q0 -50 -30.5 -85.5t-87.5 -42.5zM317 578q-14 0 -31.5 17.5t-33.5 44.5t-26 55q-2 -3 -3.5 -6t-3.5 -6q-13 -28 -77 -98q-9 -6 -17 -6q-18 0 -18 16q0 17 36 56q17 20 29 35.5t17 25.5q11 20 26.5 42t33.5 22
t18 -19l-1 -12q0 -15 11 -40.5t28.5 -49.5t35.5 -37q4 -7 4 -15q0 -10 -8.5 -17.5t-19.5 -7.5z" />
    <glyph glyph-name="Scedilla" unicode="&#x15e;" horiz-adv-x="618" 
d="M244 -11q-68 0 -125 22.5t-91.5 66.5t-34.5 107q0 95 57 164q8 10 21 24t26 24.5t22 10.5q18 0 19 -12.5t-4 -18.5q-50 -46 -71.5 -87.5t-21.5 -90.5q0 -60 29.5 -96.5t77 -53t101.5 -16.5q59 0 102 30.5t66 80t23 106.5q0 88 -81 275q-81 189 -81 263q0 49 15.5 89.5
t47.5 65t80 24.5q44 0 74 -17t48.5 -41.5t27 -47.5t8.5 -35q0 -10 -8.5 -17.5t-17.5 -7.5q-15 0 -18 18q-7 44 -37 75t-77 31t-71 -33t-24 -77q0 -59 16.5 -116.5t40.5 -113.5l48 -112t40.5 -112.5t16.5 -115.5q0 -44 -13 -89t-42 -83t-75.5 -61t-113.5 -23zM212 -288
q-18 0 -41.5 5.5t-40.5 15t-17 21.5q0 14 8.5 20t19.5 6q50 -22 79 -22t51.5 22t22.5 52q0 34 -11.5 53t-35.5 19q-38 0 -60 -34q-7 -12 -17 -12t-15.5 7.5t-0.5 17.5l10.5 21l19.5 39l20.5 41t13.5 25q5 8 20 8q18 0 18 -16q0 -9 -9 -24.5t-25 -45.5q31 16 57.5 6
t42.5 -37.5t16 -64.5q0 -31 -14.5 -59.5t-42.5 -46t-69 -17.5z" />
    <glyph glyph-name="scedilla" unicode="&#x15f;" horiz-adv-x="309" 
d="M117 -3q-37 0 -62 25t-25 52q0 14 8 19t17 6q10 0 16 -7.5t12 -17.5q5 -9 11 -17t22 -8q34 0 53.5 21t19.5 46q0 32 -13 65t-36 76q-25 46 -37.5 82t-12.5 61q0 52 26 84.5t73 32.5q20 0 40.5 -8t35 -22t14.5 -33q0 -29 -24 -29q-9 0 -14.5 7t-11.5 14q-18 21 -40 21
q-49 0 -49 -57q0 -34 14.5 -70.5t33 -73t33 -72.5t14.5 -69q0 -50 -30.5 -85.5t-87.5 -42.5zM98 -288q-18 0 -41.5 5.5t-40.5 15t-17 21.5q0 14 8.5 20t19.5 6q50 -22 79 -22t51.5 22t22.5 52q0 34 -11.5 53t-35.5 19q-38 0 -60 -34q-7 -12 -17 -12t-15.5 7.5t-0.5 17.5
l10.5 21l19.5 39l20.5 41t13.5 25q5 8 20 8q18 0 18 -16q0 -9 -9 -24.5t-25 -45.5q31 16 57.5 6t42.5 -37.5t16 -64.5q0 -31 -14.5 -59.5t-42.5 -46t-69 -17.5z" />
    <glyph glyph-name="Scaron" unicode="&#x160;" horiz-adv-x="618" 
d="M244 -11q-68 0 -125 22.5t-91.5 66.5t-34.5 107q0 95 57 164q8 10 21 24t26 24.5t22 10.5q18 0 19 -12.5t-4 -18.5q-50 -46 -71.5 -87.5t-21.5 -90.5q0 -60 29.5 -96.5t77 -53t101.5 -16.5q59 0 102 30.5t66 80t23 106.5q0 88 -81 275q-81 189 -81 263q0 49 15.5 89.5
t47.5 65t80 24.5q44 0 74 -17t48.5 -41.5t27 -47.5t8.5 -35q0 -10 -8.5 -17.5t-17.5 -7.5q-15 0 -18 18q-7 44 -37 75t-77 31t-71 -33t-24 -77q0 -59 16.5 -116.5t40.5 -113.5l48 -112t40.5 -112.5t16.5 -115.5q0 -44 -13 -89t-42 -83t-75.5 -61t-113.5 -23zM474 1032
q-11 0 -17 11t-16 29q-36 70 -75 89q-12 6 -19.5 10.5t-7.5 14.5t9 17.5t22 7.5q18 0 37.5 -17t39 -42.5t35.5 -53.5q18 29 29.5 46t27.5 34.5t46 47.5q10 8 19 8q18 0 18 -17q0 -10 -8 -20q-33 -33 -50 -52.5t-28 -36.5t-27 -44q-8 -15 -16 -23.5t-19 -8.5z" />
    <glyph glyph-name="scaron" unicode="&#x161;" horiz-adv-x="309" 
d="M117 -3q-37 0 -62 25t-25 52q0 14 8 19t17 6q10 0 16 -7.5t12 -17.5q5 -9 11 -17t22 -8q34 0 53.5 21t19.5 46q0 32 -13 65t-36 76q-25 46 -37.5 82t-12.5 61q0 52 26 84.5t73 32.5q20 0 40.5 -8t35 -22t14.5 -33q0 -29 -24 -29q-9 0 -14.5 7t-11.5 14q-18 21 -40 21
q-49 0 -49 -57q0 -34 14.5 -70.5t33 -73t33 -72.5t14.5 -69q0 -50 -30.5 -85.5t-87.5 -42.5zM229 570q-11 0 -17 11t-16 29q-36 70 -75 89q-12 6 -19.5 10.5t-7.5 14.5t9 17.5t22 7.5q18 0 37.5 -17t39 -42.5t35.5 -53.5q18 29 29.5 46t27.5 34.5t46 47.5q10 8 19 8
q18 0 18 -17q0 -10 -8 -20q-33 -33 -50 -52.5t-28 -36.5t-27 -44q-8 -15 -16 -23.5t-19 -8.5z" />
    <glyph glyph-name="uni0162" unicode="&#x162;" horiz-adv-x="655" 
d="M188 -38q-17 0 -19 21q5 38 15.5 100t25 138.5t31 160t33 165t31.5 153.5t27 126.5t18 82.5q-79 2 -139 2.5t-112 -2.5q-21 3 -21 17q0 28 51 31q7 1 14 1h14l205 -4q14 42 38 42q26 0 18 -42q8 1 34 2.5t61 3t71.5 3.5t66.5 3t46 1q17 -5 17 -17q0 -30 -49 -30
q-22 0 -59 -1.5t-77.5 -3.5t-76 -4t-54.5 -2q-20 -100 -38.5 -185.5t-36 -166t-35 -165.5t-35.5 -183t-38 -219q-3 -12 -11 -20t-16 -8zM167 -288q-18 0 -41.5 5.5t-40.5 15t-17 21.5q0 14 8.5 20t19.5 6q50 -22 79 -22t51.5 22t22.5 52q0 34 -11.5 53t-35.5 19
q-38 0 -60 -34q-7 -12 -17 -12t-15.5 7.5t-0.5 17.5l10.5 21l19.5 39l20.5 41t13.5 25q5 8 20 8q18 0 18 -16q0 -9 -9 -24.5t-25 -45.5q31 16 57.5 6t42.5 -37.5t16 -64.5q0 -31 -14.5 -59.5t-42.5 -46t-69 -17.5z" />
    <glyph glyph-name="uni0163" unicode="&#x163;" horiz-adv-x="316" 
d="M129 -4q-32 0 -51 17t-19 66q0 26 6 60l9 57q5 21 9 39.5t8 34.5t7 29.5t6 25.5q2 12 6 27.5t8 34.5q5 20 8 38t7 35q-21 0 -39 -1.5t-33 -3.5q-20 3 -20 17q0 9 7.5 18.5t19.5 10.5l72 -2q2 5 3 11.5t2 13.5q2 14 7.5 42t15.5 50q9 22 26 22q16 0 16 -18v-6
q-7 -31 -13 -59t-11 -55h72q38 0 47 -6q8 -6 8 -15q0 -16 -16 -20.5t-48 -4.5t-71 3q-4 -25 -14.5 -70t-26.5 -113q-16 -67 -24 -109.5t-8 -62.5q0 -39 9 -51q5 -8 21 -8q15 0 26 9t20 19q8 11 17 19.5t19 8.5q20 0 20 -20q0 -7 -9.5 -20.5t-23 -27t-25.5 -22.5
q-16 -13 -50 -13zM90 -288q-18 0 -41.5 5.5t-40.5 15t-17 21.5q0 14 8.5 20t19.5 6q50 -22 79 -22t51.5 22t22.5 52q0 34 -11.5 53t-35.5 19q-38 0 -60 -34q-7 -12 -17 -12t-15.5 7.5t-0.5 17.5l10.5 21l19.5 39l20.5 41t13.5 25q5 8 20 8q18 0 18 -16q0 -9 -9 -24.5
t-25 -45.5q31 16 57.5 6t42.5 -37.5t16 -64.5q0 -31 -14.5 -59.5t-42.5 -46t-69 -17.5z" />
    <glyph glyph-name="Tcaron" unicode="&#x164;" horiz-adv-x="655" 
d="M188 -38q-17 0 -19 21q5 38 15.5 100t25 138.5t31 160t33 165t31.5 153.5t27 126.5t18 82.5q-79 2 -139 2.5t-112 -2.5q-21 3 -21 17q0 28 51 31q7 1 14 1h14l205 -4q14 42 38 42q26 0 18 -42q8 1 34 2.5t61 3t71.5 3.5t66.5 3t46 1q17 -5 17 -17q0 -30 -49 -30
q-22 0 -59 -1.5t-77.5 -3.5t-76 -4t-54.5 -2q-20 -100 -38.5 -185.5t-36 -166t-35 -165.5t-35.5 -183t-38 -219q-3 -12 -11 -20t-16 -8zM385 1025q-11 0 -17 11t-16 29q-36 70 -75 89q-12 6 -19.5 10.5t-7.5 14.5t9 17.5t22 7.5q18 0 37.5 -17t39 -42.5t35.5 -53.5
q18 29 29.5 46t27.5 34.5t46 47.5q10 8 19 8q18 0 18 -17q0 -10 -8 -20q-33 -33 -50 -52.5t-28 -36.5t-27 -44q-8 -15 -16 -23.5t-19 -8.5z" />
    <glyph glyph-name="tcaron" unicode="&#x165;" horiz-adv-x="316" 
d="M129 -4q-32 0 -51 17t-19 66q0 26 6 60l9 57q5 21 9 39.5t8 34.5t7 29.5t6 25.5q2 12 6 27.5t8 34.5q5 20 8 38t7 35q-21 0 -39 -1.5t-33 -3.5q-20 3 -20 17q0 9 7.5 18.5t19.5 10.5l72 -2q2 5 3 11.5t2 13.5q2 14 7.5 42t15.5 50q9 22 26 22q16 0 16 -18v-6
q-7 -31 -13 -59t-11 -55h72q38 0 47 -6q8 -6 8 -15q0 -16 -16 -20.5t-48 -4.5t-71 3q-4 -25 -14.5 -70t-26.5 -113q-16 -67 -24 -109.5t-8 -62.5q0 -39 9 -51q5 -8 21 -8q15 0 26 9t20 19q8 11 17 19.5t19 8.5q20 0 20 -20q0 -7 -9.5 -20.5t-23 -27t-25.5 -22.5
q-16 -13 -50 -13zM284 585q-18 0 -18 18q0 8 6 17q13 14 24 35t18 39.5t7 25.5q-7 -4 -13 -7t-14 -3q-20 0 -20 21q0 18 13.5 35t36.5 17q43 0 43 -54q0 -34 -15.5 -67.5t-35.5 -55t-32 -21.5z" />
    </font>
</defs>
</svg>
