<?xml version="1.0" encoding="utf-8"?>
<!-- Generator: Adobe Illustrator 21.0.2, SVG Export Plug-In . SVG Version: 6.00 Build 0)  -->
<svg version="1.1" id="Layer_1" xmlns="http://www.w3.org/2000/svg" xmlns:xlink="http://www.w3.org/1999/xlink" x="0px" y="0px"
	 viewBox="0 0 731 516.6" style="enable-background:new 0 0 731 516.6;" xml:space="preserve">
<style type="text/css">
	.st0{fill:#149449;}
	.st1{fill:#CB0003;}
	.st2{fill:#74C2CF;}
	.st3{fill:#B9824A;}
	.st4{fill:#FFFFFF;}
</style>
<g>
	<path class="st0" d="M394.7,137c-1.4-0.6-2.5-0.1-3.2,1.5c-3.3,8.1-8.8,12.5-16.6,13.1c-3.2-0.1-6.2-2.6-6.6-6.8
		c7.2,0.5,17.6-6.7,14-12.9c-1.5-3-5.7-4.9-10.7-2.5c-3.9,1.9-6.4,5.3-7.6,9.2c-0.2,0.2-0.3,0.5-0.4,0.8c-6.1,13-15.9,20.6-22,17.9
		c-1.5-1.4-3.1-3.7-4.1-5.4c12.2-0.2,14-15.5,6.8-18.1c-5.9-2.2-12.2,6.7-13.8,11.9c-0.2-0.8-0.1-3.3-0.1-5.5
		c20.5-11.8,28.9-39.5,12.6-40c-9.6-0.5-17.8,18.4-17.6,38.9c-0.7,1.5-1.3,4.2-3.6,8.7c-2.5,4.7-8,12.5-9.2,7.4
		c-0.5-4.4,0-8.8,1.6-13.2c1.1-3.3-3.7-4.9-4.8-1.7c-0.2,0.6-0.4,1.2-0.7,1.7c-0.1-10.9-11.5-14.4-16.9-2.4
		c-0.2,0.2-0.4,0.4-0.5,0.6c-1.7,4.1-5.2,5.8-9.8,5.9c-1.4-7.3-8-10.6-15.5-2.9c-2,2.1-4,5.1-4.7,6.6c-0.3-1.3-0.4-4.6-0.4-5.9
		c11.1-4.9,25.2-18.2,26.4-30.2c2.1-19.3-22.7-16.7-29.9,14.6c-2.1,9.1-2.5,20.9,1,29.4c0.5,1.8,2,3,4.6,1.5c1.9,6.5,9,7.5,14.8-0.2
		c2.4-4.4,3.7-7,3.8-7.7c2.9-0.1,5.4-0.6,7.6-1.6c-0.8,6.5,0.2,13.4,5.5,14.6c3.1,0.5,5-1.1,7.2-3.3c0.5-0.5,5.7-5.9,5.7-6.5
		c0,0.5-0.2,0.7-0.1,1.3c0.6,3.7,2.2,6.6,5.9,6.6c5.2-0.7,9.5-4.7,13.1-11.9c0.5,3.1,1.3,6.2,2.3,9.2c1.4,3.4,6.1,1,4.8-1.6
		c0-1.2-0.6-2-0.4-3.8c7.4,15.4,22,7.7,30.9-5.5c1.5,4.4,5.1,7.8,10.8,8c10.3-0.7,17.4-6.1,21.2-16.2
		C396.6,138.6,396.1,137.5,394.7,137z M377.8,134.7c-0.3,1.9-6.2,5.7-8.9,5.1C372.5,131.7,378.3,132.7,377.8,134.7z M342.8,105.3
		c9.4,0.3-0.5,21.6-12.2,28.9C331.3,120.5,337.5,105,342.8,105.3z M282.1,113.3c-0.9,9.6-12.6,20.4-21.1,24.8
		C262.7,110.4,284.2,97.7,282.1,113.3z M270.1,159.4c-0.8,0.2-1.5,0-2-0.6c-0.1,0-0.1-0.3-0.1-0.9c0-0.6,0.2-1.2,0.6-2
		c1.5-2.6,4.7-3.7,7.4-4.3C274.8,154.2,272.9,158.2,270.1,159.4z M267.6,149.1c0.8-0.9,1.5-1.7,2.1-2.4c1.5-1.8,4.9-3.9,6.5-0.7
		C272.6,146.4,269.7,147.5,267.6,149.1z M296.7,158.9c-3.2,2-3.2-8.2-1.1-14.7c3.1-10.1,8.4-8.1,8.1-1.3c0,0.6,0.2,1.2,0.7,1.8
		c0.9,1.1,1.5,1.1,2.9,0.5C304.7,149.8,301.1,156,296.7,158.9z M335.6,146.7c0.5-1.4,1.5-3.1,2.2-4.1
		C346,131.4,345.5,148.8,335.6,146.7z M561.9,138.3c-0.3-3.2-2.9-4.2-5-1.3c-3.7,8.3-11.6,11.8-23.8,10.5c-0.2-1.4-0.3-2.3-0.4-2.6
		c12.9-4.3,36.3-35.3,18.5-42.7c-13-5.3-23.7,20.7-23.8,39.3c-3.3,1.6-9.7,1.8-19.3,0.8c-0.2-1.4-0.3-2.2-0.4-2.6
		c13.1-4.3,36.3-35.6,18.5-42.7c-12.7-5.3-23.7,20-23.7,40.2c-0.1,0.1-0.2,0.3-0.3,0.5c-5.2,15.4-13.2,18.2-14.4,17.7
		c-0.3-0.1-0.6-0.7-0.9-1.8c-0.9-3.3-0.7-8.8,0.5-16.5c0.1-0.7,0-1.4-0.4-2c-1.4-1.9-4.2-0.7-4.6,1c-1.9,5.2-8.5,14.5-10.6,15.1
		c-2.2,0.7-1.7-13.3,1.6-20.6c1.5-2.9-3.1-5.3-4.7-2.1c-1,2.2-1.9,5.4-2.5,8.8c-0.2,0.3-0.4,0.6-0.6,0.9
		c-6.8,15.4-15.3,31.1-20.9,15.7c-2.2-6.1-0.8-18,0.5-26.6c1.6,0.5,4.9,1.7,8.4,1.5c3.9-0.2,10.1-2.5,8-5.9
		c-0.7-1.3-2.3-1.6-3.5-0.8c-3.3,2-5.8,1.9-9.5,1c-1.5-0.5-2.5-1.1-2.5-1.1c0.5-2.8,2-10.6,3-13.9c0.7-2.4-1.7-4-3.7-3
		c-1.4,0.7-1.1,1.1-4.7,15.8c-8.8-1.9-8.9,2.4-7.2,4.1c0.6,0.5,1.2,0.6,1.8,0.6c2.9-0.3,3.8,0.3,4.9,0.3c-0.5,3.4-1,7.6-1.4,12
		c-0.2,0.2-0.3,0.4-0.4,0.6c-1.9,3.4-6.5,5.6-13.9,6.7c0,0-3.5-5-3.5-5.2c15.2-8.1,8.3-22.3-1.6-16.3c-2.4,1.4-4.1,3.5-5,6.2
		c-0.9,2.1-0.9,5.1,0.2,9c1.2,2.9,3.2,5.8,5,8.3c-6.1,3.3-9.2,8.6-7.3,17.8c3.6,7.3,9.2,7,15.9,2.5c4-3.6,4.3-8.5,0.9-14.8
		c-0.4-0.9-0.9-1.9-1.6-2.9c3.8-0.8,7.9-2.1,11.1-4.4c0,3.8,0.4,7.4,1.3,10.2c7.9,17.8,17.3,9.8,25.7-5.8c0.3,2,0.8,3.8,1.7,5
		c4.9,6.3,10.9-3.9,14.1-7.1c-1.2,17.8,12.7,17.1,22.2-0.3c0.8,3.2,2,6,3.7,8.2c2.3,2.8,4.6,4,6.9,3.4c3.5-1.1,4-4.6,3.7-8.2
		c-0.1-1-0.5-1.8-1.2-2.6c4.3,0.4,8,0,10.9-1.2c1.3,12.4,6.7,18.3,11.7,17.3c4.5-1.3,4.8-8.2,2.2-11.1
		C550.9,152.3,558.1,147.9,561.9,138.3z M419,135.3c-1.3-3.9,2.9-8.8,5.4-7.8c0,0,0.1,0.2,0.2,0.6C425.5,131,421.6,133.8,419,135.3z
		 M425.2,163.4c-3.9,2.8-6.5,2.6-8-0.4c-1.4-5.9,0.7-9.6,5.4-11.7C424.5,154.1,427.7,160.4,425.2,163.4z M524.2,101.6
		c10.9,4.4-8.1,28.9-16.7,32.5C508,118.9,516.8,98.7,524.2,101.6z M512.7,154.1c-0.2,0.1-1.4-1.5-1.5-1.7c-0.9-1.1-1.7-2.6-2.2-4.4
		C511.1,148.8,513.6,152.1,512.7,154.1z M535.1,124.1c7-23,17.8-19.4,17.2-11.6c-0.6,9.6-13.8,24.3-19.9,26.8
		C532.6,134.3,533.5,129.3,535.1,124.1z M537.6,159.3c-0.2,0.1-2.7-2.6-3.7-6.1C536.7,154.3,538.4,158,537.6,159.3z M231.3,140.6
		c-2.3,4.7-5.8,6.3-10.2,5.9c0.6-4,0.7-7.8-0.5-11.6c-4.8-15.2-20.7-7.9-19,2.5c-0.5,0.7-1,1.4-1.4,2.1c-0.5,0.4-1,0.9-1.4,1.8
		c-6.8,15.3-15.3,31.1-20.9,15.7c-2.1-6-0.9-17.4,0.5-26.6c1.6,0.5,4.9,1.7,8.4,1.5c2.5-0.1,7.8-1.5,8.3-3.9
		c0.4-1.2-0.4-2.9-1.9-3.1c-1.9-0.5-2.6,1.7-6.7,2c-4.4,0.1-7.2-1.7-7.2-1.7c0.4-2.2,1.9-10.4,3-13.9c0.6-2.2-1.6-4.1-3.7-3
		c-1.4,0.7-1.2,1.4-4.7,15.8c-10.8-2.3-8.7,5-5.4,4.6c2.9-0.3,3.8,0.3,4.9,0.3c-1.2,8.2-2.8,21.9-0.3,29.7c8,18,17.5,9.6,25.9-6.3
		c2,6.4,8,10.3,15.4,4.4c1.9-1.5,3.4-3.3,4.6-5.3c7.8,1.1,13.3-2,16.9-8.8C237.8,137.8,232.7,138.8,231.3,140.6z M211.3,152.8
		c-6.8,5.5-9.3-3.3-7.3-9.6c1.7,2.2,5.8,5.9,9.8,7.1C213.1,151.2,212.3,152,211.3,152.8z M216.1,145.8c-3.4-1.1-7.1-3.7-8.6-6.7
		c1.2-1,2.2-2,1.3-3.5c-0.4-0.8-1.6-1.7-1.8-1.7c0-0.4,0.2-0.6,0.5-0.6c1.2-0.8,2.8-2.6,5-1.5C215.2,133.2,217.9,139.2,216.1,145.8z
		"/>
	<path class="st1" d="M449.9,229.4c-0.7-0.1-1.4-0.3-2.1-0.5c-3.1-0.9-3.3-7.8-4.5-12.3c-1.9-7.3-0.2-6.9-6.1-7.2
		c-5-0.3-5.2-0.1-5.6,1.9c-2.7,15.9-2.6,16.3-3.7,17c-1.2,0.8-2.2,0.8-3.2,0.3c-0.9-0.4-1.4-1-1-3c5.9-35.2,7.4-50.5,13.4-45.6
		c2.2,1.7,4,5,5.2,7.5c2.4,5.1,4.9,8.1,7.8,19.6c0.9,4,3.5,16.6,3.2,19.3C453.1,228.3,452,229.3,449.9,229.4z M435.3,192.1
		c-0.7,0.2-1.5,5.1-1.5,5.8c-0.6,5.5-2,6.3,0,6.3c7.8,0.7,7.6,1.7,4.4-6.7C438,197.1,435.9,192,435.3,192.1z M467.4,191.9
		c2.1-2.9,3.4-4.1,7.4-8c4.5-4.6,11.9-4.2,14.2-0.9c7.7,9.6,7,18.4,7.4,30.8c0.1,3.8-0.4,6.1-1.9,12.5c-0.4,2.5-5.9,4.5-5.9-0.5
		c0-3.4,2.2-14.2,1.2-26.8c-0.5-5.6-4.1-12.5-6-13c-4.5-1.1-14.2,9.9-15.7,29.2c-1.1,14.2-2.5,13.8-6.2,13.8
		c-3.6,0-1.8-4.8-3.1-19.6c-0.4-4.5-2.9-23.6-2.4-25.3c0.3-4.5,3.3-5,5.6-3.9C466.4,181.9,465.7,189.2,467.4,191.9z M522.5,174.9
		c9.4,1.4,21.5,10.4,25.1,23.2c2,7,0.1,19.1-5.6,25.2c-6.5,7-17.4,10.9-27.5,11.5c-10.4,0.5-10.4-4.7-10.9-7.2
		c-0.8-4.2-1.5-10.2-1.4-16.1C502.5,172.1,496.1,170.9,522.5,174.9z M542.6,203.6c-0.1-2.2-0.6-4.2-1.4-6
		c-7.9-18.1-20.5-17.5-25.8-18.4c-3.4-0.7-2.1,0.2-1.4,10.7c2.6,38.1-0.5,38.9,2,39.1C526.1,229.7,544.1,222.2,542.6,203.6z"/>
	<path class="st1" d="M183.7,91.1c-0.5,0-7.1,0-7.6-0.2c-2.4-0.7-2.3-3.6,0-4.1c3.4-0.8,4.8,0,4.5-2.4c-0.1-1.1-1.7-29.9-1.3-35.9
		c0-4.8,0.3-4.9-3.7-5.4c-4.4-0.5-3.7-3.4-1.7-4.2c1-0.5,7.4-0.3,14.4-0.5c1.5,0,3.3,0.4,3.6,1.9c0.3,1.8-2.6,2.2-3.7,2.7
		c-1.5,0.6-0.4,1.6-0.1,4.6c0.5,6,1.5,0.8,1.5,37.4c0,2.2,1.8,1.2,3.6,2.8c0.8,0.7,0.5,2.3-1.3,2.9C190.4,91.2,185.7,91,183.7,91.1
		L183.7,91.1z M242.6,82.2c-4.7,11.9-19.8,13.2-25.8,4.5c-2.2-3.2-3.7-11.4,0.7-13.5c1.4-0.7,3.1-0.1,3.9,1.4
		c1.2,2.3-1.6,3.4-0.2,7.3c1.7,4.5,6.5,6.1,10.1,4.1c5.6-3.2,3.9-18.3,4.8-34.2c0.3-3.3,3.8-3.8,5.4-2.9c1.1,0.6,1.4,1.7,1.9,3.6
		C244.7,56.7,246.3,72.9,242.6,82.2z M234.6,42.2c0-2.7,2.7-4.7,5.6-4.7c3.4,0.2,4.1,4.6,1.8,6.7C239.5,46.6,234.6,45.6,234.6,42.2z
		 M269.9,49.4c0-3.9-2-9.3,2.8-10.1c1.2-0.2,2.2,0,3.2,0.6c4.5,3,7.4,40.1-3.3,47.7c-4.6,3.2-10.9,3.4-15.2,0.8
		c-8.8-5.4-7.7-35.2-6.4-42.8c1.1-7,8.2-6.1,6.3-0.4c-2.4,7.3-2.1,40.6,6.8,40C271.1,84.8,269.9,69.6,269.9,49.4z M308.3,81.4
		c0.2,2.2,0,4.1-0.7,5.7c-1.2,2.7-5.1,4.5-7.8,4.8c-13.7,1.7-15.4-13.7-8.1-10.8c2.9,1.2,0.7,5.3,5,5.9c3.8,0.8,7.1-1.6,2.7-7.6
		c-1-1.4-2.5-3.2-3.6-4.4c-18-20.6-10.5-37,2.4-37c6.9-0.2,11.6,4,10,12.2c-0.4,3-6,3.6-5.1-2.4c1-6.4-10.2-6.6-9.9,0
		C293.5,61.8,307.5,70.3,308.3,81.4z M319.8,61.1c0-16,2.4-13.1-3.5-13.1c-3.5,0.2-5-3.7-0.9-4.7c2.8-0.8,10.4-1.2,12.3-1.3
		c4.2-0.1,5.5-0.1,6.5,1.1c0.9,1.1,0.9,3.1-1.8,3.6c-9.4,1.6-2.4-6.4-3.9,36.9c-0.2,3.4-2.9,4.6-5.8,4.1
		C318.5,87.2,319.8,81.7,319.8,61.1z M382.9,75.1c-1.2-3-0.9-3.2-2.8,0.3c0,0.4-2.8,5.4-3.1,5.8c-2.3,3.1-5.5,3.7-9.4,3.3
		c-3.9-0.4-6.1-2.4-7.8-5.8c-6-13.3-4.7-36.2,5.6-34.8c6,1-0.9,19.4,2.9,28.6c0.5,1.1,1.5,3.9,3.7,3.1c1.1-0.4,2-1.3,2.2-1.8
		c0.6-1.1,3.4-9.4,4.1-14.4c0.4-2,0.4-3.7,1-5.3c0.9-2.3,4.2-1.9,4.8-0.4c1.2,2.8,0.5,5.9,1.9,12.1c1.2,5.4,4.5,14.4,7.2,9.6
		c2.5-4.3,6.7-16.9,6.4-27.4c-0.1-2.2,2.7-2.7,4-2.2c2.1,0.8,1.7,4.3,1.2,8.8c-1.2,12.1-5.5,25.6-10.7,27.9
		c-3.2,1.5-7.7-0.2-9.4-2.9C384.2,78.4,383.7,77,382.9,75.1z M432.9,86.4c-1.9-0.5-2.8-3.4-3.2-5.3c-0.9-5.1-1.3-5.2-2.4-10.1
		c-0.3-1.3-1.6-1.3-4.8-1.5c-1.2-0.1-4.1-0.3-4.8,0.2c-0.7,0.5-0.8,1.8-2.8,12.6c-0.2,1.3-0.4,1.7-0.7,2.8c-0.2,0.7-1.5,1.2-2.2,1.3
		c-0.9,0.2-2.6-0.4-2.8-1.4c-0.1-1,0-1,2.5-14.6c3.4-18.1,5.7-38.5,15.7-19.9c2,3.7,3.4,5.4,5.2,9.8c3.7,9.3,5.8,22.2,5.5,24
		C438,86,436.7,87.4,432.9,86.4z M418.3,64.2c-0.2,0.5,0.1,0.8,1,0.8c7.6,0.6,7.4,1.5,4.3-5.8C419.3,49.3,420.4,57.3,418.3,64.2z
		 M452,54.3c2.1-2.5,3.3-3.5,7.2-7c5.1-4.6,12.5-2.7,13.4-1.4c1,1.4,6.4,6.5,7.2,16.3c0.9,14.3,0.5,14.6-1.4,21.8
		c-0.3,1.3-2.2,2.3-3.5,2.3c-5.1-0.3,0.4-9-1.1-26c-0.5-4.8-3.9-10.9-5.8-11.3c-3.3-0.7-9.1,5-11.6,11c-6.9,16.2-1,26.3-9.7,26.3
		c-3.5,0-1.8-4.6-3-17c-0.7-7.5-1.5-9.3-1.8-14.7c-0.1-2-0.3-4.1-0.6-6.2c0-4.3,2.5-5.7,5.6-4.5C451,45.6,450.3,51.9,452,54.3z
		 M491.9,49.3c0.1-0.9-0.2-1.7-1.2-1.5c-1.5,0.2-5.5,0.9-6-1.8c-0.3-2.3,2.5-2.8,5.2-3.1c2.6-0.3,12-1.1,14.5-0.6
		c2.3,0.6,2.7,3.2,1.4,4c-0.9,0.6-2.4,0.7-3.5,0.8c-6.4,0.3-0.6-3-2,36.7c-0.1,1.6-0.7,2.8-1.8,3.5c-1.8,1.1-5.4,1.1-6.2-0.9
		C490.4,82.3,491.9,52.2,491.9,49.3z"/>
	<path class="st0" d="M216,282.4c-1-1.8-1.5,0-3.1,3c0,0.3-1.1,2.3-1.3,2.6c-1.9,4.1-4,8-7.9,9.6c-5.1,2.1-14,1.7-17.9-3.2
		c-11.5-14.6-11.6-56.9,5.5-54.6c9.3,1.5-2.3,27.8,5.3,43.4c0.9,1.8,2.7,3,4.5,2.4c1.7-0.5,3-1.9,3.2-2.5c0.7-1.3,5.1-13.2,6.6-24.6
		c0.6-4.2,1.3-6.6,5.2-6.2c1.9,0.2,3,1.1,3.6,4.7c0.3,3.4,1.2,15.7,4.5,23.1c1.2,3,3,6.8,5.7,7.2c3.8,0.4,12.3-25.2,11.8-41.5
		c-0.1-3.2,4-3.9,5.9-3.2c2.5,0.9,2.3,4,2.3,6.3c-0.2,9.3-2.8,24.8-6.6,33.4c-4.4,9.9-7.4,14.2-14.1,14c-4.4-0.1-8.1-3.1-9.4-5
		C218.7,289.5,216.8,284.5,216,282.4z M293.6,301.9c-8.5-1.3-6.6-6.2-9.5-16c-2.7-9.2-0.3-8.6-8.8-9.1c-9-0.5-7.4-1.1-9.6,10.4
		c-2.2,11.6-2.3,12.5-3.7,13.3c-1.8,1-3.1,1-4.6,0.4c-1.4-0.6-1.9-1.4-1.4-3.8c9.5-49.6,11-68.5,23.5-52.9
		c10.7,16.2,15.6,28.7,18.8,50.9c0.3,1.9,0.2,2.5,0.1,3.2C298.2,300.5,296.6,301.7,293.6,301.9z M272.3,255.4
		c-0.9,2.4-1.4,4.7-1.7,7c-0.9,6.9-2.8,7.9-0.1,7.9c7,0.5,10.4,1.5,9-1.8C278.7,266.3,273.5,253.1,272.3,255.4z M313.8,261.1
		c0.7-19.3,2.3-15.3-5.2-15.3c-3,0.2-4.6-1.4-4.9-3c-0.6-4.4,6.9-4.6,17.2-5.4c10.9-0.8,12.8-0.2,14.2,1.4c1.4,1.6,0.8,3.7-0.3,4.4
		c-1.9,1.2-5.2,1.1-8.1,1.3c-4,0,0.5,1.1,0.2,38.3c-0.1,15.5,0,17.8-3,19.6c-2.7,1.6-8,1.6-9.2-1.4c-1.2-2.7-1.2-9.6-1.2-12.7
		C313.5,285.8,313.8,261.2,313.8,261.1z M357.5,277.2c3,11.3,6.8,13.1,11.2,13.1c13.7,0,13.9-7.1,17.6-8.1s4.5,3.3,3.6,4.9
		c-8.9,13.5-34.5,11.5-41.6,3.1c-6-6.6-9.1-15.1-6.3-28.2c1.3-5.5,4.6-9.9,8.7-13c14.8-11.1,35.1-3.8,35.6,3.3
		c0.2,2.1-1.4,5.1-4,4.3c-1.4-0.4-1.5-1.9-2.5-3.1c-3.9-3.6-11.6-5.3-16-2.2c-3.4,2.3-6.2,6.1-7.1,10.4
		C355.8,265.9,356.4,272.9,357.5,277.2z M435,296c-0.3,4.1-4.3,4.8-6.6,3c-1.5-1.2-1.8-2.5-1.9-5.9c-0.7-16.8,3.5-12.4-14.3-10.7
		c-5.3,0,1.8,18.7-9.2,18.7c-2.5,0-4.3-1-5.3-3.1c-1.2-2.1-1.8-1.2-1.8-45.5c0-1.6-0.6-7.1,0.6-10.2c0.8-1.6,3.9-3.7,6.8-3.6
		c5.6,0.4,5.3,9.3,5.9,17.9c0.4,5.7,0,7.3,0.3,14.1c0,5.6,1.5,4.2,8.3,3.5c1.4-0.2,5.5-0.5,6.5-1.5c1.5-1.5,0.3-11.8,0.7-18.1
		c0.5-7.8-1.4-8.6-0.1-10.6c2.5-3.9,6.8-4,8-1.7C434.2,244.9,435.2,294.7,435,296z"/>
	<path class="st1" d="M570.1,353c-0.4-4-4.7-4.4-6.7-1.2c-2.5,4.5-8.6,7.5-18.4,9c0,0-4.7-6.7-4.7-6.9c5.4-3,10.8-7.6,11.5-13.8
		c1.6-13.4-16.1-12.5-20.3,0.4c-1.2,2.8-1,6.8,0.4,12v0.1c-4.3,13.8-14.4,27.7-16.3,20.2c-0.7-5.8,0-11.7,2-17.5c1-2.8-1.5-5-4-4.4
		c-2.3,0.5-2.1,2.3-3.2,4.4c0-4.2-1.4-9.4-5.2-11.4c-7.5-4.5-13.5,0.3-17.1,7.9c-0.3,0.3-0.5,0.6-0.7,1c-4.3,11.4-11.9,29.3-23,29
		c-6-2.8,7-26.8,0.4-34.1c-7.4-8.5-17.6,19.1-17.2,16.3c0.9-12.2,3.3-27.8-4.1-29.4c-2.1,0.1-5.7,0-10.1,6.2
		c-5.3,7.5-6.2,15.6-7.3,20.2c0-0.1,0.3-9.8,0.5-12.2c0.1-0.6,0.2-1.3,0.3-2.2c0.3-1.8,0.5-3.2-0.5-4.3c-1.4-2.2-5.7-1.5-6,1.8
		c-0.2,2.7-0.7,5.7-0.8,9.1c-0.3,0.4-0.6,0.8-0.8,1.3c-8.8,20.3-20,41.6-27.6,21.1c-2.9-7.9-1.3-22.8,0.4-35.3
		c6.7,2,13,3.5,20.7-1.3c2.6-1.6,1.7-5.8-1.1-6.2c-2.6-0.6-3.4,2.2-8.9,2.7c-5.9,0.1-9.6-2.2-9.6-2.2c0.6-3.5,2.6-14,3.9-18.5
		c1.4-4.6-5.4-6-6.4-2c-0.6,1.7-1.4,5.4-4.6,19c-2.7-0.6-5.2-0.7-7.6-0.4c-4.2,0.1-3.9,7,0.6,6.7c3.6-0.3,5.4,0.4,6.5,0.4
		c-0.7,4.4-1.4,10.1-1.8,16c-0.2,0.2-0.3,0.4-0.5,0.7c-2.5,4.5-8.6,7.5-18.4,9c0,0-4.7-6.6-4.7-6.9c15.6-8.4,13-20.7,7-22.9
		c-5.7-2.5-13.5,2.4-15.8,9.5c-1.2,2.8-1,6.8,0.4,12c0.1,0,0.1,0.1,0.1,0.1c-7.5,19-21.9,27.3-23,23.9c-1.4-4.4-0.7-14.9,0.5-22
		v-0.1c0.1-0.3,0.2-0.7,0.2-1c0.3-1.5,0.6-2.8,0.9-3.8c0.4-0.9,0.3-1.8-0.3-2.7c-1.4-2.6-5.6-2-6.1,0.8c-0.4,1.5-0.9,3.1-1.2,4.9
		c-0.1,0.1-0.1,0.1-0.1,0.1c-6.5,18.7-25.3,32.9-26.2,27.3c-0.8-4.6,0.4-12.8,3.5-24.6c0.7-2-0.7-3.9-2.6-4.2
		c-2.3,0.4-9.7,1.8-12.8,1.5c13.1-16,2.2-23.9-7.2-17.6c-5.3,3.3-8.1,9.9-4.1,17.6c0.4,0.8,0.9,1.6,1.5,2.2
		c-6,15.9-10.3,24.8-22.3,29.3c-2.8,0.1,2.8-24.6-0.1-30.6c-2.1-4.5-6.9-4.1-10.2-2c-5.8,3.3-9.6,12.3-10.1,14.7
		c-0.7-1.7-1.2-7-1.3-8.8c15.3-5.4,46.4-49.9,21.9-55.2c-12.2-2.8-29.6,24.8-28.8,52.2c-7.5,16.1-17.8,23.9-30.7,23.2
		c-10.9-1.7-13-27.7,3.6-42.2c6.4-5.7,17.4-8.9,14.6-0.4c-2,6.4-5,7.1-4.4,10.1c0.9,3.1,4.8,3.4,6.1,1.1
		c19.9-29.7-20.3-32.2-32.5,1.8c-7.6,21.8,2.3,35,11.9,36.3c13.9,0.8,24.9-5.2,33-18.2c1.1,4.4,2.7,8.6,5,12.5
		c2.8,3.6,6.7,0.6,6.6-2.2c1.2-14.2,10.2-22.5,9.7-17.6c0.6,9.5-5.6,28.6,3,31.8c1.4,0.5,2.9,0.6,4.6,0.1c11.2-4.3,20.1-15,26.5-32
		c3.4,1,7.4,0.9,11.4,0.2c-2,8.5-5.7,25,2.1,28.9c2.1,1,4.5,0.9,7.2-0.3c7.4-2.7,14-8.6,19.9-17.7c0.1,7,1.6,13.4,7.6,14.6
		c6.5,1.2,19.3-8.9,27.2-24.5c0.8,1.1,1.6,2.3,2.4,3.4c-9.4,5.1-11.8,13.2-9.5,23.6c4.8,9.6,12.3,9.3,21.1,3.2
		c5.3-4.7,5.7-11.3,1.1-19.6c-0.5-1.1-1.2-2.4-2.1-3.8c5-1,10.4-2.8,14.6-5.7c0.1,5.1,0.6,9.8,1.8,13.5c11.3,25,24.6,11.5,35.9-11.6
		c0.2,0.9,0.4,1.9,0.7,2.8c1,2.6,2.4,5.5,5.5,5.2c3-0.6,3.7-3.4,4-6.5c3.4-17.7,9.9-29.5,10.7-24.2c1.3,11.8-3.7,25,1.5,29.6
		c7.1,5.2,12-10.4,16.8-17.5c0-0.2,0.1-0.1,0,0.3c-1.2,7.6-6.1,22.1-2.7,27.7c2.4,4.1,6.3,5.9,11.1,4.5c6.5-1.7,11.9-7.5,16.2-14.3
		c0.8,5.7,3.1,10.1,7.4,11.1c4.7,0.8,7.6-2.1,13.1-8.2c0.3-0.3,3.9-4.5,3.9-4.9c0,0.6-0.2,0.9-0.1,1.7c0.8,4.8,3,8.8,7.9,8.7
		c4.6-0.7,8.8-3.4,12.4-8c-1.1,3.7-1,8,0,12.7c4.8,9.7,12.3,9.3,21.1,3.2c5.3-4.7,5.7-11.3,1.1-19.6c-0.5-1.1-1.2-2.4-2.1-3.8
		C558.1,365.1,567.9,361.3,570.1,353z M250.9,312.6c13.4,2.7-11.2,36.7-20.5,41.1C231.6,328.7,246.7,311.7,250.9,312.6z
		 M278.7,352.5c-0.1-0.1-0.3-0.9-0.5-2.4c-0.3-1.5-0.1-2.8,0.6-3.8c0.7-1.1,3.9-3.7,5-2.9C283.5,346.1,280.4,350.4,278.7,352.5z
		 M357.3,351.1c-1.9-5.8,4.4-11.4,7.1-10.4c0,0.1,0.1,0.3,0.3,0.8C365.9,345.3,360.8,349.1,357.3,351.1z M365.7,388.5
		c-5.1,3.7-8.6,3.5-10.6-0.5c-1.9-7.9,0.9-12.8,7.1-15.6C364.9,376.1,369.2,384.5,365.7,388.5z M495,378.1c-7,4.4-2.5-34.4,7.3-28.1
		c0.5,0.4,0.9,1.1,1.3,2.2c1.2,3.7-0.3,4.9,1.4,6.9c1.3,1.4,2,1.4,3.9,0.6C505.3,366.3,500.6,374.3,495,378.1z M545.2,337.3
		c0.2,0.2,0.6,1.3,0.5,2.1c-0.5,3.8-4.2,6.4-7.5,8.3C536.4,342.4,542.2,336.1,545.2,337.3z M537,360.6c0.7,1,1.4,2,2.1,2.9
		c-1.9,1.1-3.5,2.2-4.8,3.5C535.3,365.1,536.2,363,537,360.6z M546.6,385.1c-5.1,3.7-8.6,3.5-10.6-0.5c-1.9-7.9,0.9-12.8,7.1-15.6
		C545.7,372.7,550,381.1,546.6,385.1z M324.1,340.5c0-0.7,0.1-1.7,0.4-3c0.4-1.9,2.3-3.1,3.5-2.9c0.2-0.1,1.3-0.1,3.2,0.1
		c3.2,1.2,3.4,4.6,1.4,7.4C329.4,346.4,324.5,345.3,324.1,340.5z"/>
	<path class="st0" d="M285.4,423.5c2.5-8.1,10-5.3,16.5-0.1c9.7,7.8,10.6,8.2,13.4,6.8c8.6-4.3,21.8-18.2,24.5-5.9
		c3.9,19,2.9,40.9-0.8,46.9c-2.5,3.9-12.7,7.8-11.2-4.5c0.6-5.6,3.4-15.4,1.9-32.2c-0.5-5.5-2.9-2.6-8.3,1.2c-1.3,0.9-2.7,1.9-4.1,3
		c-2.9,2.2-7.4,1.6-9.8-0.8c-3-3.1-3.6-3.2-8.7-7.9c-0.5-0.5-1.6,0-1.7,0.6c-0.2,1.2-0.3,7.1-0.3,9.2c0.1,32.3,2.5,34.8-2.7,35.3
		c-6.5,0.8-8-5.9-9.3-12.6C283,452,283.2,430.9,285.4,423.5z M388.1,421.2c20.9,6.9,22.4,37.2,8.4,46c-12.4,7.8-26.5,6.9-35.8,1.9
		c-3.6-1.9-7-5-9.9-13.8C343.9,434.4,360.7,412.2,388.1,421.2z M385.9,432.3c-6.1-7.2-17.6-6.7-22.8-1.6c-7.8,8.7-7.8,18.9-2.7,28
		c2.3,4.6,6.6,6.6,11.7,7.5C395.4,469.9,393.2,441,385.9,432.3z M434.8,454.4c1.1-4.3,2.1-8.6,3-13.1c3.2-15.3,3.7-21.5,5-24
		c1.3-2.7,7.1-1.3,7.5,0.9c0.7,3.3,0.1,4.5-3.5,21c-6.8,34.4-9.4,35.5-13.8,36.5c-2.2,0.6-5,0.4-6.6-1.7c-1.6-2.2-2.5-3.8-3.3-5.6
		c-2.5-5.7-8.2-25.3-11.3-44.9c-0.3-1.7-0.1-3.3,0.6-4.5c1.4-2.9,7.5-5.9,10.5-0.2C428,432.4,433,463.1,434.8,454.4z M470.8,426.4
		c3.5,8.9,0.2,50.3-1,53.9c-1.8,5.3-7.2,3.3-8.7,2c-0.9-0.8-1.4-2-1.7-3.6c-1.5-10.1-2.4-24.4,1.1-51.6c0.6-5.3,5.5-4.9,7.9-3.4
		C469.6,424.3,470.4,425.3,470.8,426.4z M460.5,414.9c0-6.1,11.2-9.3,11.7-1.5C472.2,420.7,460.5,420.5,460.5,414.9z M496.7,457.3
		c5.6-1.6,8-1.9,9.9-0.7c1,0.8,1.9,1.2,1.9,2.4c0,1.4-0.8,2.1-2.1,2.5c-11.6,4.3-12.7,1.9-13,4.7c0,2.4,0.9,3.6,2.7,3.6
		c1.8,0.2,3.6,0.1,5.4-0.1c8-1,7.4-1.1,8.1-0.8c2.7,0.5,3.4,4.1,2.2,5c-3.4,2.5-12,2.5-17.7,2.8c-1.8,0.1-3.7-0.1-5.7-0.6
		c-6.4-1.9-9.5-33.2-5.2-55.5c1.6-6.5,9.8-6.5,18.1-6.1c3.5-0.2,9.3,0.7,8.4,4.3c-1,2.9-3.1,2.3-8.1,2.3c-4.3,0-6.7-0.7-7.2,1.7
		c-0.4,1.7-1.2,6-1.2,10.7C492.8,455.9,490.1,459.3,496.7,457.3z M535.6,440.8c6.5,11.1,14.5,17.8,15.4,28.3
		c0.8,7.4-2,11.1-7.8,13.5c-5.1,2.3-12.8,1.5-16.4-0.9c-3.6-2.5-5.3-5.8-5.3-9.8c-0.2-4,4-3.8,5.9-3.1c2.5,1,2.2,2.9,2.8,4.6
		c1.8,5.7,11.5,4.8,11.2-0.2c-0.3-4.8-6.1-10.4-10.9-16.1c-8.6-9.6-16.3-27-10.4-38.3c3.9-7.5,9.4-10.2,16.3-10.2
		c9.9-0.2,16.4,5.7,14.2,17c-0.5,3.9-6.6,4.4-7.2-0.1c-0.5-3.1,0.6-3.8-0.4-6.4s-2.9-3.4-5.5-3.5C524.7,415,528.9,429.4,535.6,440.8
		z"/>
	<path class="st2" d="M398,181l-17.6,5.7c-0.3-2.3-2.8-2.9-4-2c-2.1-5.1-7.4-8.4-13.2-7.7l-145.9,19.9c-5.7,0.8-10,5.4-10.6,10.8
		c-2.1-0.1-3.2,1.4-3,3.1l-18.5-0.7c-4.6-0.2-8.4,3.9-7.7,8.5c0.6,4.6,5.3,7.5,9.7,6.1l17.6-5.7c0.3,2,2.3,2.8,3.7,2.1
		c2.1,5.1,7.4,8.3,13.1,7.5l145.8-19.9c5.7-0.8,10-5.4,10.7-10.9c1.4,0.5,3.7-0.7,3.4-3l18.5,0.7c4.6,0.2,8.4-3.9,7.7-8.5
		C407.1,182.5,402.4,179.6,398,181z M224.6,222.9c-0.6,0.1-1.1-0.3-1.2-0.9c-2.7-20-3.1-20-1.7-20.2c0.6-0.1,1.1,0.3,1.2,0.9
		C225.6,222.6,226,222.7,224.6,222.9z M229.5,222.2c-0.6,0.1-1.1-0.3-1.2-0.9c-2.7-20-3.1-20-1.7-20.2c0.6-0.1,1.1,0.3,1.2,0.9
		C230.5,221.9,230.9,222,229.5,222.2z M293.7,210.5c-0.1,0.1-7.9-5.8-8-5.9c-4.5-3.4-0.8-11.4,6-8.1c0.3-0.2,0.5-0.5,0.8-0.7
		c3.1-2.5,7.5-0.8,8.3,3C301.1,201.5,300.2,201.9,293.7,210.5z M358.9,203.5c0.2,1.3-1.9,1.6-2,0.3c-2.7-20-3.1-20-1.7-20.2
		C356.6,183.4,356.2,183.5,358.9,203.5z M363.8,202.8c0.2,1.3-1.9,1.6-2,0.3c-2.7-20-3.1-20-1.7-20.2
		C361.5,182.7,361.1,182.8,363.8,202.8z"/>
	<path class="st2" d="M560,63.9h-6.1l3.3-5.7c0.9-1.6-1.5-3-2.4-1.4l-4.2,7.1h-4.8c4.2-7.9,4.6-7.2-3.4-7.7l1.9-3.4h8
		c1.8,0,1.8-2.8,0-2.8h-6.5l3-5.3c0.9-1.6-1.5-3-2.4-1.4l-3,5.3l-3.3-5.7c-0.9-1.6-3.3-0.2-2.4,1.4l4.2,7.1l-1.9,3.4l-2.9-4.2
		c-0.6-0.9-2-0.8-2.5,0.1l-2.8,4.7l-2.4-4.1l4.1-6.9c0.9-1.6-1.5-3-2.4-1.4l-3.3,5.6l-3.1-5.3c-0.9-1.6-3.3-0.2-2.4,1.4l3.1,5.3
		h-6.5c-1.8,0-1.8,2.8,0,2.8h8.2l2.5,4.3c-8.9,0.1-8.5-0.6-5,6.9h-3.9l-4-7.2c-0.9-1.6-3.3-0.3-2.4,1.3l3.2,5.8h-6.6
		c-1.8,0-1.8,2.8,0,2.8h6.5l-3.1,5.4c-0.6,0.9,0.1,2.1,1.2,2.1s0.9-0.2,5.2-7.5h3.8l-2.2,4.5c-0.5,1,0.2,2.1,1.3,2.2l5.8,0.1
		l-2.3,4.1l-8.2-0.1c-1.8,0-1.8,2.8,0,2.8l6.6,0.1l-3.3,5.7c-0.5,0.9,0.1,2.1,1.2,2.1s1.1-0.4,4.4-6.4l3.1,5.4
		c0.9,1.6,3.3,0.2,2.4-1.4l-4-6.8l2.3-4c4.6,7.5,3.8,7.5,8.4,0.5l1.8,3.2l-4.2,7c-0.6,0.9,0.1,2.1,1.2,2.1s1-0.4,4.6-6.4
		c3.5,6,3.5,6.4,4.5,6.4s1.8-1.2,1.2-2.1L546,80h6.2c1.8,0,1.8-2.8,0-2.8h-7.8l-1.9-3.3l5.3-0.7c1.1-0.1,1.7-1.3,1.1-2.3l-2.7-4.3
		h4.3l3.9,7c0.9,1.6,3.3,0.2,2.4-1.3l-3.2-5.6c5.9,0,7.6,0.4,7.6-1.4C561.3,64.5,560.7,63.9,560,63.9z M540.8,58.9l4.3,0.3
		c-2.4,4.5-2.4,4.3-2.4,4.8H538L540.8,58.9z M535.9,53.9l2.5,3.6l-2.7,4.8l-2.4-4.1C533.5,58,535.8,54.1,535.9,53.9z M531,59.7
		l2.4,4.2h-5.9l-1.9-4.1C530.7,59.8,530.6,59.8,531,59.7z M530.9,70.8c-0.4-0.1-0.2-0.1-5.3-0.2l1.9-4h5.8L530.9,70.8z M536,76.7
		c-0.2-0.3-2.5-4.2-2.8-4.4l2.5-4.3l2.9,4.9L536,76.7z M541,71.4l-2.7-4.7h4.8l2.5,4.1L541,71.4z"/>
	<g>
		<path class="st3" d="M534.8,286c-6.9-0.4-14.1-6.7-14.1-6.7s-6.7-4.5-1.7-12s5.4-10.8,5.4-10.8s2.1-7-6.5-10.9
			c-8.6-3.9-16.8,13.9-18,13.4c-1.3-0.4,0.2-7.3-6.2-13.2c-11.9-9.8-22.9,0-22.9,0l0,0l0,0c0,0-11.7,8.9-4.3,22.5
			c4.6,7.4,11.6,7.2,11.8,8.5c0.2,1.4-18.8,6.1-16.6,15.2c2.2,9.1,9.5,8.4,9.5,8.4s3.3,0.2,11.6-3.2c8.3-3.5,11.5,3.9,11.5,3.9
			s4.9,8.3,3.9,15.2c-0.9,6.8-4.9,5.2-5.5,11s4.7,8,4.7,8s3.9,3.7,10.5,0.7c6.5-3.1,9.1-9.9,9.1-9.9c1.4-7.3,2.8-13.5,6.4-17.2
			c4.3-2.2,10.3-2.5,17.5-2.5c9.8-1.8,16.5-11.6,12.7-17.5c0,0-1.2-5.6-7-6.1C540.8,282.2,541.7,286.4,534.8,286z"/>
		<path class="st4" d="M499.9,274.7c3.3,4-2.8,9.1-6.1,5C490.4,275.7,496.5,270.7,499.9,274.7z M501.9,289.6c3.3,4,9.4-1,6.1-5
			C504.6,280.5,498.5,285.5,501.9,289.6z M510.5,293.8c-4,3.3,1,9.4,5,6.1C519.6,296.6,514.5,290.5,510.5,293.8z"/>
		<path class="st4" d="M474.4,283.8c-0.1,0,2.1,1.9,2.3,2.2c0.4,0.5,0.6,0.9,0.6,1.5c0.1,1.1-0.4,0.9-0.7,1.8
			c-0.5,1.1,0.1,1.1,1.1,1.6c2.8,1.6,2.8,3.9,0.9,6.3c-1,1.3-3.1-0.2-2.1-1.5c1.9-2.5-1.5-2.6-2.6-4.6c-0.7-1.3-0.2-1.9,0.2-3
			c0.4-1.2,0.2-0.8-0.7-1.6c-2.6-2.1-1.7-4.8,0.6-5.3C475.6,280.9,476,283.5,474.4,283.8z M517.1,261.3c-0.2,0.2-1.5-2.2-1.7-2.4
			c-0.9-1.1-1.9-1.7-3.3-1.4c-0.3,0.1-0.5,0.2-0.8,0.2c-0.8,0.1-0.5,0.5-0.9-0.2c-0.2-0.4,0-1.2-0.2-1.8c-0.5-1.1-2.4-2.7-5.6-0.5
			c-1.4,0.9,0.3,2.9,1.6,2c0.6,0,1.1,0.1,1.7,0.1c0,0.2,0,0.4,0,0.6c0.1,0.2,0,0.6,0.1,0.9c0.1,0.5,0.4,1,0.8,1.3
			c1.1,0.9,1.9,0.2,3.1,0.2c2.2-0.1,2.2,2.6,4,3.4c1.3,0.6,2.4,0.2,3.3-0.8C520.3,261.6,518.2,260.1,517.1,261.3z M516.7,318.9
			c-1.4-0.7-1.7-2.3-3.5-2.4c-1.3-0.1-3.2,1.6-3.8,1.5c-0.4-0.1-1.1-1.4-1.5-1.8c-2.9-2.3-5.1,1.9-6.1-0.5c-0.6-1.5-3-0.5-2.3,1
			c0.5,1.2,1.4,2.6,2.8,2.9c2.5,0.5,3-2.7,4.9-0.4c3.1,3.7,3.8,0.3,5.3,0c1.2-0.2,1.8,1.3,2.8,1.8
			C516.6,321.7,518.1,319.7,516.7,318.9z M535.8,289.2c1.6,2.1-0.7,3.1-0.7,5.1c0,1.4,1.9,2.8,1.1,3.9c-0.8,1.1-4,2.6-0.1,6.9
			c1.1,1.2,3.1-0.4,2-1.6c-1-1.1-1.6-1.6-0.5-3.1c0.9-1.1,2.6-1.3,1-4.5c-1.7-3.7,3-3.6-0.8-8.2
			C536.7,286.3,534.8,287.9,535.8,289.2z M475.2,260.9c2.4-2-0.6-5.6-3-3.6C469.9,259.3,472.9,262.9,475.2,260.9z M484,250.6
			c-2-2.4-5.6,0.6-3.6,3S486,253,484,250.6z M488.9,258.1c1.2,5.6-3.5,9.8-9,8.8c-1.6-0.3-1.8,2.2-0.2,2.5c7,1.3,13.3-4.6,11.7-11.7
			C491,256,488.5,256.4,488.9,258.1z"/>
	</g>
	<g>
		<path class="st0" d="M201.9,424.7c3.3,6.7,27.7,22.9,27.4,26.1c-11.9-8.1-22.9-2.6-22.7-2.6c4.5-16.2-12.7-13.7-12.7-13.7
			c6.2-4.9-3.1-16.3-3.1-16.3c11.9,6.5,17.5-3.5,17.3-3.7c7.1,13,15.8,5.5,15.8,5.4c-3.9,15.7,7.9,28.7,7.9,28.7
			S203.4,423,201.9,424.7z M240.1,445.4c6.7-8.6,12.7-13.1,21.1-16.7c-4.2-0.6-9.1-7.5,2.3-15.7c-4.2-1.2-9.4-7.6-8.5-16.8
			c-0.5,7-12.1,12.2-14.5,7.6c0,0,2.6,5.5-0.9,12.1s-9.3,4.6-9.3,4.4c7.8,15.6,7.6,24,7.6,24C239,433.8,266,368.2,240.1,445.4z
			 M226.4,454.7c0,0-8.2,2-25-2.3c0.1,0,3.3,5.3-2.4,10.1c-5.7,4.9-11.6,3.5-11.6,3.5c5,1.4,2.4,13.9-4.3,15.8
			c8.7-2.8,16.1,0.8,18.3,4.7c5.4-12.7,13.3-9.7,14.8-5.6c1.6-8.9,4.8-15.9,11.7-24.2C158.2,498.7,216.5,458.2,226.4,454.7z"/>
		<path class="st1" d="M242.6,452.5c-1.7-4.2,0.5-9,4.7-10.5c4.2-1.7,9,0.5,10.5,4.7c1.7,4.2-0.5,9-4.7,10.5
			C248.9,458.8,244.2,456.7,242.6,452.5z M257.2,474.3c4.2-1.7,6.3-6.4,4.7-10.5c-1.7-4.2-6.4-6.3-10.5-4.7
			c-4.2,1.7-6.3,6.4-4.7,10.5C248.3,473.8,252.9,475.8,257.2,474.3z M239.8,469.8c4.2-1.7,6.3-6.4,4.7-10.5
			c-1.7-4.2-6.4-6.3-10.5-4.7c-4.2,1.7-6.3,6.4-4.7,10.5C231,469.4,235.7,471.4,239.8,469.8z"/>
	</g>
</g>
</svg>
