<?xml version="1.0" encoding="utf-8"?>
<!-- Generator: Adobe Illustrator 21.0.2, SVG Export Plug-In . SVG Version: 6.00 Build 0)  -->
<svg version="1.1" id="Layer_2" xmlns="http://www.w3.org/2000/svg" xmlns:xlink="http://www.w3.org/1999/xlink" x="0px" y="0px"
	 viewBox="0 0 731 516.6" style="enable-background:new 0 0 731 516.6;" xml:space="preserve">
<style type="text/css">
	.st0{fill:#FE0000;}
	.st1{fill:#FFFFFF;}
</style>
<g>
	<path d="M281.3,267.1c-5.5,1.1-6.6-3.1-4.1-4.4c1.4-1,5.4,0.4,5.9-3.2c0.3-1.3,0.4-2.7,0-3.9c-0.7-2.4-3.3-3.9-5.4-4.2
		c-4.2-0.4-8.3-0.2-10.8,3.2c-2.1,2.9-2.6,7.4-1.5,10.6c2,6.4,10.1,8.7,14.6,12.5c10.6,8.8-0.3,21.2-11.7,16.8
		c-4.5-1.7-5.8-7.2-5.2-9.9c0.6-2.7,5.9-4.5,5.9,1.3c0,4.8,7.5,5,8.8,1.7c2.6-6.4-10.3-10-18-16c-4.3-3.5-5.6-8.3-4.8-13.8
		c1.5-10.8,10.4-12.5,21-11.8C291.7,246.7,291.5,265,281.3,267.1z M333.8,280.4c-3.1,8.1-6.1,10.3-13.1,12.6c-3.2,1.1-4.2,0.6-4.2,2
		c0,5.6,0.3,6.7-1.3,7.5c-5,1.7-4.3-4.6-4.5-6.9c0-0.6-0.1-0.7-0.1-0.7c-1.9-1-10.3-0.1-16-8.6c-2-3-3.2-6.1-3.7-9.4
		c-4.7-28.9,22.2-37.4,34.4-26.5c0.9,0.8,1.8,1.7,2.6,2.6C336.4,261.8,335.5,275.5,333.8,280.4z M313.9,277.4
		c1.7,0.1,2.2,1.5,2.3,3.2c0,0.4,0.3,7.9,0.4,8.3c0,0,0.2,0,0.6-0.1c4.2-1.2,5.7-1.6,7.3-3.3c2.4-2.5,4-5.2,4.5-8.6
		c2.7-17.5-10.3-28.3-19-24.3c-2.3,1-4.1,1.8-5.7,3.7c-6.5,8.3-4.3,23.4,1.1,29c2.3,2.5,4.1,2.9,4.9,3.2c0.1,0,0.1,0,0.1,0
		C311.4,287.1,308.5,276.7,313.9,277.4z M374.5,246.7c-1.1-0.7-3.5-0.4-4.2,0.8c-0.5,0.9-0.4,1.8,0.3,7.9c0.5,4.2,0.7,9.5,0.8,13.8
		c0.2,10.3-5.5,23.2-15,19.1c-4.5-1.9-5.4-9-6.3-17.9c-1.7-16.5,2.3-23.6-3-23.9c-1-0.1-2.6-0.1-3.5,0.4c-2.5,1.3-4.1,4.3-4.6,7
		c-1.5,7.8-2.3,21.1,0.8,29.2c2.8,7.5,8.5,11.6,17.9,11.6c2,0,3.9-0.2,5.7-0.7c4.9-1.3,8.6-5.1,9.8-7.1
		C379.3,276.7,377.1,248.4,374.5,246.7z M419.2,287.6c0.2,6.6-2.7,9.2-9.1,6.4c-1.8-0.8-1.6-2.4-1.6-3.7c0-0.4,0.1-0.9,0.2-1.5
		c0.2-1.4,0.1-1.6,0.1-3.8c0-0.8-1.2-1.6-2-1.7c-20.6-0.1-20.8-0.2-20.7,1.5c0,4.9,0.9,8.5-2.7,8.6c-1.6,0.2-2.2-0.4-2.5-1.9
		c-0.5-1.5-0.4-2.5-0.4-5.1c0.1-5.1-0.3-6.4-0.1-11.1c0.2-6.7,2-19,7-23.8c2.1-2,5.9-4.3,8.8-4.5C415.2,246,419.2,268.4,419.2,287.6
		z M405.7,260.6c-4.7-13.6-14.1-8.7-16.6-2c-2.8,8.1-3.2,18.4-2.9,19.4c0.4,0.1,6.4-0.3,6.8-0.3c3.3-0.2,6.7-0.3,10,0.1
		c1.1,0.1,5,0.3,5.6-0.2C408.6,277.7,409,270.2,405.7,260.6z M460.9,271.6c-0.8,9-3.6,14.9-12.4,18.9c-7.4,3.6-22.2,6.7-24,0.1
		c-1.2-6.2-1.8-8.1-1.8-29.5c-0.5-15.6-0.4-15.9,17-13.4C449.9,249.2,461.9,260.4,460.9,271.6z M434.2,288.9
		c0.5,0.7,9.4-0.1,15.9-4.9c5-4,6.6-13,4.2-18.3c-6.3-13.9-16.8-13.3-20.4-13.9c-1-0.2-1.2-0.1-1.2-0.1s-0.1,0.3,0.1,1.7
		C434.5,267.7,434.2,288.9,434.2,288.9z"/>
	<g>
		<path class="st0" d="M378.8,388.3v15.8c3.6,0.5,7.4,2,10.8,3.9c2.6-9.4,13.2-10.3,21.2-4.9c4.2-7.6,13.8-7.7,18.5-0.6
			c6.1-3.7,12.9-3.4,17.8,0.5v-14.5L378.8,388.3z M378.8,346.4v21.8h68.1v-21.8H378.8z M378.8,305.8v20.3h68.1v-20.3H378.8z
			 M269.5,388.5V403c4.9-3.9,11.7-4.2,17.8-0.5c4.8-7.1,14.4-7.1,18.5,0.6c7.8-5.4,18.6-4.3,21.2,4.9c3.4-1.9,7-3.4,10.8-3.9v-15.8
			L269.5,388.5z M269.5,346.4v21.8h68.3v-21.8H269.5z M269.5,305.9v20.3h68.3v-20.3H269.5z"/>
		<path d="M503.3,477.6v4.3c0,11-9,20-20,20c-37,0-33.3,0.6-59.4-7.5c-1.3-0.4-2.6,0.6-2.6,1.9v0.8c0,1.5-1.3,2.8-2.8,2.8h-37.9
			c-1.5,0-2.8-1.3-2.8-2.8v-45.9c2.9-0.8,5.4-3.4,7.8-3.7c4.2-0.7,5.6,3.4,10.1,5.5c8.1,3.9,15.8,0.7,20-5.9
			c6.3,6.3,15.3,6,21.8-0.9c4.3,5.4,11.9,6,17.9,3.5c9.7,4.3,26.9,1.2,36.5,5.6C499.1,458.8,503.3,469.7,503.3,477.6z M213.1,477.6
			v4.3c0,11,9,20,20,20c37,0,33.3,0.6,59.4-7.5c1.3-0.4,2.6,0.6,2.6,1.9v0.8c0,1.5,1.3,2.8,2.8,2.8h37.9c1.5,0,2.8-1.3,2.8-2.8
			v-45.9c-2.9-0.8-5.4-3.4-7.8-3.7c-4.2-0.7-5.6,3.4-10.1,5.5c-8.1,3.9-15.8,0.7-20-5.9c-6.3,6.3-15.3,6-21.8-0.9
			c-4.3,5.4-11.9,6-17.9,3.5c-9.7,4.3-26.9,1.2-36.5,5.6C217.2,458.8,213.1,469.7,213.1,477.6z"/>
		<path class="st1" d="M446.8,368.2v20.3h-68.3v-20.3H446.8z M378.8,326.1v20.3h68.1v-20.3H378.8z M452.1,409.7
			c-4.2-9.4-14.5-12.6-23.1-7.3c-4.8-7.1-14.4-7.1-18.5,0.6c-7.8-5.4-18.6-4.3-21.2,4.9c-7.4-4-16.5-6.6-22.8,0.5
			c-4.1,4.4-3.7,10.1-0.4,13.9c-12.6,8.9-7.8,31.3,10.4,29c3.4-0.4,6.2-3.5,8.9-4c4.2-0.7,5.6,3.4,10.1,5.5c8.1,3.9,15.8,0.7,20-5.9
			c6.3,6.3,15.3,6,21.8-0.9c8.9,10.9,31.1,2,25.8-11.2C476.1,427.2,467.2,408.8,452.1,409.7z M337.8,368.1v20.3h-68.3v-20.3H337.8z
			 M269.5,326.2v20.3h68.3v-20.3H269.5z M253.4,434.9c-5.5,13.2,16.9,22,25.8,11.2c6.4,6.9,15.5,7.1,21.8,0.9
			c4.1,6.6,11.8,9.7,20,5.9c4.4-2.1,5.9-6.1,10.1-5.5c2.7,0.4,5.5,3.5,8.9,4c18.3,2.2,23.1-20.1,10.4-29c3.4-4,3.6-9.5-0.4-13.9
			c-6.3-7.1-15.5-4.4-22.8-0.5c-2.6-9.4-13.2-10.3-21.2-4.9c-4.2-7.6-13.8-7.7-18.5-0.6c-8.5-5.4-18.9-2.1-23.1,7.3
			C249.3,408.8,240.3,427.2,253.4,434.9z"/>
	</g>
	<g>
		<path class="st0" d="M494.2,71.4c-6.5,3.4-15.5,1.9-21.8-1.9c-9.1-5.5-15.7-14.4-23.2-21.6c-15-14.5-32.4-26.5-53-31.1
			c-58.1-13.5-114.5,26.7-119.8,86.7c10.4-6.3,19.7-7.7,20.8-7.5c4.2-9.1,14.2-13.1,23.9-11.5c6.5,1.1,11.5,5.3,17.8,6.8
			c7.2,1.8,10.4-5.8,16.3-8.4c7.7-3.4,16.7,1.1,21.4,7.4c1.4,1.8,3.2,6.5,5.8,6.8c3.6,0.5,8.7-7,15.5-4c5.9,2.7,6.7,11,11.6,10.9
			c1.9-0.1,4-1.9,5.8-2.4c6.1-1.9,12.6-0.6,18.1,2.3c7.7-11.8,17.7-2.7,25.3-0.8c3.4,0.8,6.8,1,10.3,0.6c13.9-1.6,24-11.1,32.3-21.7
			C497.9,79.2,495.4,75.3,494.2,71.4z"/>
		<path class="st1" d="M492.6,62.2c0.5-13.6,12.2-24.2,25.8-23.7c13.6,0.5,24.2,12,23.7,25.7s-12.2,24.2-25.8,23.7
			C502.7,87.3,492.1,75.8,492.6,62.2z M415.3,101.4c-1.9,0.5-4,2.3-5.8,2.4c-4.9,0.2-5.7-8.3-11.6-10.9c-6.8-3.1-11.9,4.5-15.5,4
			c-2.6-0.3-4.4-5-5.8-6.8c-4.7-6.3-13.7-10.8-21.4-7.4c-5.8,2.5-9,10.1-16.3,8.4c-6.2-1.5-11.3-5.7-17.8-6.8
			c-9.8-1.7-19.7,2.3-23.9,11.5c-0.2,0-0.4,0-0.7,0c-27.9,4-59.8,37.2-39.3,65.4c9.5,13.2,26.1,13.2,40.1,7.9
			c8.7-3.3,16.5-8.4,25.3-11.9c28.5-11.5,72.5-1.1,92.7,14.8c12.7,10.1,32.3,3.3,39.1-10.1C468.9,133.1,438.9,94.5,415.3,101.4z"/>
	</g>
	<path class="st0" d="M279.3,226.3c1.2,1.9-3.3,9.4-14.3,10.5c-32.1,3-30-32.7-9.9-48.8c5-3.8,11.6-0.8,14-0.3
		c0.9-1.9,1.6-2.9,2.5-3.2c2.7-0.9,7.2,1.3,6.5,4.5c-1.2,4.8-2.6,10.4-2.6,12.7c-1.1,0.5-2.1,1-4.6-0.4c-3.9-1.9-4.3-3.3-3.6-8
		c0.4-10-24.2,18.3-11.6,35.1c2,2.7,4.8,4.2,8.3,4.4c1.7,0,3.7-0.5,6-1.5c2.4-1,4.1-2.7,5.4-5C277.1,225.1,278.8,225.6,279.3,226.3z
		 M301.8,238.7c-22.7,0-24.1-33-7.1-51c2.6-2.8,4.4-4.4,5.7-5.1c2.5-1.3,9.2,0.7,5.4,6.3C333.2,191.6,327.1,238.7,301.8,238.7z
		 M303.4,193.3c-2.8-0.4-10.8,19.1-8.3,33.6c0.7,4.1,2.9,6.3,6.6,6.5c8.5,1.2,19.3-17.1,12.9-32.2
		C312.9,196.9,309.1,194.2,303.4,193.3z M365.7,216.3c-1.5-23.9,0.3-21.2-1.5-24.2c-1-1.6-6.7-3.8-8.4-2.9c-0.7,0.3-1.1,1.1-1.3,2.3
		c-1.5,10.4-5.4,29.6-11.6,37c-8.9,10.6-4.1-22.9-1.8-36.6c0-5.2-3.8-6.5-9-5.9c-2.5,10.9-7.9,37.6-0.6,46.1
		c9.3,12,18.7-3.2,22.9-17.7c-0.2,27.6,11,26.1,13,21.7C366.7,232.3,365.9,220.1,365.7,216.3z M383.3,207.5c-2.4-0.4-3.8-1.8-4-4.3
		c-0.7-6.5,9.5-11.5,20.7-10.6c-1.1,5,0.2,13.1,6.5,5.8c0.5-0.6,0.8-1,1-1.4c0.5-1.4,7.3-9-1.6-11.9c-1.8-0.5-2.7,0.4-3.9,1.6
		c-32.7-8.1-35.9,19.7-25.4,23.5c10,3.6,19.8-0.1,23.4,5.1c1.8,3.1,1.7,6-0.3,8.8c-3.9,5.5-10.9,8.6-17.4,5.9
		c-6.9-2.9-3.1-12.9-7.7-11.6c-1,0.3-2,1.2-2,2.4c-0.3,8.7,6.6,15.1,14,16.3c15.6,2.5,30-9.1,23.5-22
		C405.5,206.3,395,209.5,383.3,207.5z M417.7,187c-2.6,8.3-2.5,42.3-0.9,47.3c2,3.6,9.1,3.1,9.1-0.3c-1.9-12.8-1.1-28.7,0-41.6
		C426.3,188.2,419.7,183.3,417.7,187z M467,230.2c-1.2-10.9-1.5-32.1-1.6-42.4c-2.4-1.6-5.6-3.2-8.1-1.7c-1.2,0.8-2.1,1.4-1.3,22.5
		c0.2,4.8,0.5,12.1,0.9,16.9c-7.9-7.1-16-28.6-16.2-32.4c0.5-1.9-0.1-3.5-0.6-3.9c-1.5-1-8.3-3.1-9.5,0.6c-1.1,7.1-2.1,30.7,1.7,46
		c0.5,2.6,5,3.3,7.3,1.8c1.6-1.1,1.1-2.6,0.6-6.1c-1.3-8.9-1.8-19.1-1-28.4c3.4,10.5,8.8,22.4,18,28.5c1.1,1.4-0.6,2.5,4.5,4.7
		c1.5,0.7,3.8,1.4,5.1,0.4C468.2,235.7,467.5,234.5,467,230.2z"/>
</g>
</svg>
