<?xml version="1.0" encoding="utf-8"?>
<!-- Generator: Adobe Illustrator 21.0.2, SVG Export Plug-In . SVG Version: 6.00 Build 0)  -->
<svg version="1.1" id="Layer_2" xmlns="http://www.w3.org/2000/svg" xmlns:xlink="http://www.w3.org/1999/xlink" x="0px" y="0px"
	 viewBox="0 0 731 516.6" style="enable-background:new 0 0 731 516.6;" xml:space="preserve">
<style type="text/css">
	.st0{fill:#45B748;}
	.st1{fill:#EA1821;}
	.st2{fill:#161516;}
	.st3{fill:#FFFFFF;}
</style>
<g>
	<g>
		<path class="st0" d="M422,122.4l-13.6,21.3l-19.7-33.1l-20.5,31.6l-23.6-32.3l-13.8,36.5l-29.6-25.7L288.3,156
			c0,0-7.4-5.2-14.6-10.4c39.7-47.3,19.3-76.1-0.7-71.3c-11,2.6-18,15.7-11.7,25.3c-2,2.5-3.1,5.5-3.2,8.9
			c-16.7-5.4-25.4-36.6-6.4-59.7c28.8-35,82.4-27.9,115.3-3.6C392.1,63.7,410.8,93.6,422,122.4z"/>
		<path class="st1" d="M273.2,94c8.2,0.2,14.6,7,14.4,15.2s-7,14.6-15.2,14.4c-8.2-0.2-14.6-7-14.4-15.2S265,93.8,273.2,94z
			 M434.4,181.8c21.4-39.1-3.3-66.8-6.3-68.9l-19.6,30.7l-19.7-33.1l-20.6,31.6l-23.6-32.3l-13.9,36.5l-29.6-25.7L288.2,156
			c0,0-30.6-21.6-28.7-21.4c-14.1,33.6,8.7,65.1,13.6,63.6C346.1,165.1,432,178.1,434.4,181.8z"/>
	</g>
	<g>
		<path class="st0" d="M344.4,488.7c-15.4,2.1-28.1-4.9-56.2,0.2c-19.3,3.4-42,3.8-57-8.6c-10.5-8.7-14.3-24.2-10.5-37.1
			c3.6-12.3,19.8-22.4,32.3-16.5c4.7,2.3,5.6,5.8,8.1,9.8c-2.7-4.3-7.3-4.4-10.1-4.9c-12.7-2-23.4,15.8-7.7,26.2
			c10.5,7,26-0.4,34.7-7.1c2.4-1.7,8.4-9.4,9.2-17.2c2.6-2.2,5.1-5.3,6.5-9.8c0.1,0,7.1,15.2,12.8,16.5c-0.3-0.4,6.1-1.6,11.4-16.6
			c0,0,5.3,14.2,12.3,16.6c0.2,0,8.5-5.8,11.4-17.1c0,0,1.5,5.5,6,10.1c1.2,13.3,1,15.8,5.8,27.2C357.1,469.8,357,487,344.4,488.7z
			 M379.3,488.7c15.4,2.1,28.1-4.9,56.2,0.2c19.3,3.4,42,3.8,57-8.6c10.5-8.7,14.3-24.2,10.5-37.1c-3.6-12.3-19.8-22.4-32.3-16.5
			c-4.7,2.3-5.6,5.8-8.1,9.8c2.7-4.3,7.3-4.4,10.1-4.9c12.7-2,23.4,15.8,7.7,26.2c-10.5,7-26-0.4-34.7-7.1
			c-2.4-1.7-8.4-9.4-9.2-17.2c-2.6-2.2-5.1-5.3-6.5-9.8c-0.1,0-7.1,15.2-12.8,16.5c0.3-0.4-6.1-1.6-11.4-16.6
			c0,0-5.3,14.2-12.3,16.6c-0.2,0-8.5-5.8-11.4-17.1c0,0-1.5,5.5-6,10.1c-1.2,13.3-1,15.8-5.8,27.2
			C366.5,469.8,366.7,487,379.3,488.7z"/>
		<path class="st2" d="M287.7,324l57.6,0v15.4l-57.6,0L287.7,324z M287.7,369.3l57.6,0V354l-57.6,0V369.3z M287.7,397.8
			c23.8,1.8,48-0.9,57.6-2.2V384l-57.6,0V397.8z M378.4,324l57.6,0v15.4l-57.6,0V324z M378.4,369.3l57.6,0V354l-57.6,0V369.3z
			 M436,384l-57.6,0v11.6c9.6,1.3,33.8,4,57.6,2.2V384z"/>
		<path class="st3" d="M345.3,369.3V384l-57.6,0l0-14.6L345.3,369.3z M287.7,339.4v14.6l57.6,0l0-14.6L287.7,339.4z M436,369.3
			l0,14.6l-57.6,0v-14.6L436,369.3z M378.4,339.4l0,14.6l57.6,0v-14.6L378.4,339.4z"/>
		<path class="st1" d="M356.6,438.7c-11.8-3.5-15-15.6-15-15.6c-3.1,11.3-11.4,17.2-11.4,17.1c-7-2.4-12.3-16.7-12.3-16.6
			c-5.3,15-11.7,16.1-11.4,16.6c-5.8-1.3-12.8-16.6-12.8-16.5c-4,11.9-15.6,14.6-15.7,14.4c4.8-6,4.9-40.6,4.9-40.8
			c32.1,3.3,66.8-2.4,66.8-2.4C349.2,420.3,356.7,438.8,356.6,438.7z M451.7,434.1c0,6.2,5,11.2,11.2,11.2c6.2,0,11.2-5,11.2-11.2
			c0-6.2-5-11.2-11.2-11.2C456.7,423,451.7,428,451.7,434.1z M367,438.7c11.8-3.5,15-15.6,15-15.6c3.1,11.3,11.4,17.2,11.4,17.1
			c7-2.4,12.3-16.7,12.3-16.6c5.3,15,11.7,16.1,11.4,16.6c5.8-1.3,12.8-16.6,12.8-16.5c4,11.9,15.6,14.6,15.7,14.4
			c-4.8-6-4.9-40.6-4.9-40.8c-32.1,3.3-66.8-2.4-66.8-2.4C374.5,420.3,367,438.8,367,438.7z M249.6,434.1c0,6.2,5,11.2,11.2,11.2
			c6.2,0,11.2-5,11.2-11.2c0-6.2-5-11.2-11.2-11.2S249.6,428,249.6,434.1z"/>
	</g>
	<path class="st0" d="M468.6,279.6c-2.2-0.3-3.9,1.5-4.6,3.5c-4.7,15.9-11,24.9-18.8,27c-2.9-0.1-4-17.2-4.2-20.1
		c11.4-7.4,34.7-40.7,22-55c-10.4-11.2-25.8,7.8-29.1,41.5c-1-0.1-6.8-4.6-14.1,3.6c-1.1,0.5-1.8,1.6-2.3,3.1
		c-2,3.2-3.6,7.3-4.4,10.9c-4.1,7.9-7.7,11.2-8.7,10.7c-1.4-0.7-1.4-10.2,1.4-18.4c1.6-4.8-4.5-7.6-6.9-3.9
		c-2-12.1-15.5-15.7-21.9-0.4c-1.5,1.4-5.2,19.1-17.2,23.8c0,0-0.1,0-0.2-0.1c0,0-0.3-0.3-0.7-1.8c-1-4.3-0.7-11.5,0.9-21.4
		c0.5-2.5-1.4-4.6-3.2-4.8c-2.1-0.4-4.2,1.4-4.6,3c-2.2,6.4-10.1,18.3-12.5,19.1c-1-2-0.8-16.7,3.2-25.9c1.1-2.3-0.2-4.9-1.8-5.6
		c-2-1.1-4.4-0.1-5.4,2.1c-1.4,3.3-2.6,7.5-3.4,12.5c-1.7,2.9-5.6,12.4-19.7,12.7c1-3.4,2.1-6.4,3.1-8.8c2.1-5.7-5.2-8.2-7.3-3.5
		c-1.8,4.5-12,15.4-13.6,9.6c-1.6-7.6,5.3-21.7,12.3-19.6c1.6,0.4,1.8,0.8,1.9,2.2c0.1,1,0.8,2.2,1.7,2.8c3.8,2.3,6.9-1.5,6.2-4.2
		c-0.7-4.8-3.1-7.6-7.7-8.9c-10.1-2.9-18.1,6.6-21.2,16.7c-1.4,1.5-2.5,7-16.8,9.2c0,0-3.5-5.6-3.5-5.7c19-11.2,9.5-30.7-3.3-22.6
		c-3.1,1.9-5.3,4.8-6.5,8.5c-1.2,3-1.2,7,0.1,12.5c1.3,3.6,3.5,7.2,5.6,10.4c-8.7,5.3-10.6,13.7-8.8,23.7c0.5,1.5,3.2,7.2,8.4,8.2
		c6.1,1.2,24.8-5.2,12.6-27.5c4.5-1,8.2-2.5,11.1-4.2c1.5,7.3,7.8,11.1,15.9,6.5c-8.8,38.5,16.5,47.1,21.8,31
		c2.3-6.9-0.1-19.1-4.7-24.8c-0.8-1-1.6-2-2.3-3c5.5-1,10.2-3.4,13.7-6.6c0.8,9.4,5.1,11.8,9,11c3-0.5,8.6-7.6,10.4-10
		c0.2,21.6,14.2,17.6,23,7c1.5,10.5,8.8,12.2,13.6,8.8c2.5-1.9,7-7,8.8-9.4c2,11.9,11.4,10,18,3c4,7.8,14.1,6.2,20.9-2.3
		c0.2,1,0.4,1.8,1.3,4.7c1.4,4.8,5.1,8.6,10.3,7.8c14.4-3.5,21.8-19.9,25.7-34.2C471.9,281.8,471.1,279.7,468.6,279.6z M441.4,278.9
		c1.8-19.2,8.4-36.5,14.7-38.4c0.3,0.1,0.8,0.3,1.1,0.4C463.2,248,450,270,441.4,278.9z M433,287c-0.1,2.1-0.1,4.3,0,6.3
		c-4.7,10.8-14.6,17.2-12.7,4.8c1.5-3.2,3-7,4.3-11.2C427.6,282.8,430.1,282.5,433,287z M381.9,307.4c-3.1-5.5,1.9-30.6,8-26.3
		c0.2,0.1,0.6,0.6,0.9,1.8c1,3.6-0.4,4.8,1.3,7.2c1.1,1.4,1.9,1.5,2.5,1.5c-0.2,0.3-0.3,0.5-0.4,0.8l0,0c-1.6,2.8-6,11.3-11.5,15.1
		C382.7,307.5,382.4,307.6,381.9,307.4z M315.8,331c-2.8,1.9-9.7-5.9-6-24.3c1.2,1.7,3.3,3.8,5.3,8.9
		C317,320.1,318.6,328.6,315.8,331z M270.3,315.6c-9.5,7.1-9.6-4.7-7.9-9c0.9-2.2,2.7-4,5.2-5.3
		C269.6,304.4,273.1,312.1,270.3,315.6z M265,274.3c1-3.3,3.9-4.8,4.9-4.7c0.9,3.2-2.6,6.3-5.4,8.1
		C264.3,276.6,264.6,275.3,265,274.3z"/>
	<path class="st2" d="M286.3,202.9c2.7-2.9,32.3-6.5,34.7-6.9c6.6-0.6,9.2,3.7,7.3,5c-2.8,2-1.3-0.1-25.9,4.3
		c-2,14.3-2.6,23.2-2.7,28.4c11.2-1.7,15.3-4.4,16.5-1c1.4,4.1-8.9,4-16.6,6.8c-0.3,6.3,0.4,13.7,2.1,13.5c3.9-0.2,9.4-1.1,18.4-4.8
		c11.7-4.8,11.2-5.5,13.1-4c2.3,1.8-3.7,5.8-6.1,7.2c-3.1,1.9-8.2,4.2-15.3,6.8c-16.8,6.2-26.1,0-27.8-7.2
		c-1.1-3.6-1.9-15.1,0.5-31.4c2.2-14.5,4.8-14.6,2.2-14.4C286,205.5,285.8,204.7,286.3,202.9z M356.1,255.6
		c6.6-1.7,16.8-3.5,22.3-4.5c4.2-0.8,8.5-2,8,0.6c-0.5,2.8-0.3,1.9-24.9,8.5c-2.8,0.8-4.6,1.3-5.4,1.6c-4.1,0.4-7-0.1-8.7-1.5
		s-2.9-2.8-3.5-4.3c-6.5-18.9,0.4-52.3,3.1-60.1c0.9-2.2,14,0.8,13.4,5.9C354,229.9,356.1,249.6,356.1,255.6z M398.7,198.4
		c2.8-2,11.7-0.9,13.3-0.3c1.1-0.2,31.4-3.3,28.1,1.9c-2.8,4.5-18.8,0.4-28.6,4.8c-2.5,14.2-1.5,25.8-1.5,27.6c4.4-0.6,9-1,13.7-1.3
		c6.1,0,5.5,4.1,0.3,4.8c-11.1,2-8.4,1.7-13.6,2.6c-0.4,3.1,0.7,15.8,1,19.1c0.4,3.6-2.8,4.4-5.6,4c-1.6-0.2-7-0.8-8-4.4
		C389,226.7,398.7,200,398.7,198.4z"/>
</g>
</svg>
