<?xml version="1.0" encoding="utf-8"?>
<!-- Generator: Adobe Illustrator 21.0.2, SVG Export Plug-In . SVG Version: 6.00 Build 0)  -->
<svg version="1.1" id="Layer_2" xmlns="http://www.w3.org/2000/svg" xmlns:xlink="http://www.w3.org/1999/xlink" x="0px" y="0px"
	 viewBox="0 0 731 516.6" style="enable-background:new 0 0 731 516.6;" xml:space="preserve">
<g>
	<path d="M218.3,72.5c-0.5,0.4-0.9,0.6-1.6,0.6c-2.2-0.3-1.8-2.9-5-1.6c-1.1,0.4-3.8,1.7-5.9,3.2c-0.4,0.3-0.1,0.7,0.1,1.1
		c0.3,0.5,2.5,5.7,3,5.9c0,0,0.3,0.1,2.9-0.9c1.4-0.4,2.3,0.1,2.9,1.2c0.6,1.1,0.2,2-0.7,2.9c-1.2,1-8.2,4.5-9.2,4.7
		c-3.4,0.7-5.6-3.5-1-5.4c0.1,0,0.1-0.1,0.3-0.1c0,0,0-0.1,0-0.1c-0.8-2-1.7-3.7-1.9-4.1c-4.5-8.7-5.3-11.2-9.9-21.6
		c-3.2,1.4-4,2.4-6,1.2c-1.2-0.7-1.7-1.7-0.9-3c1-1.7,8.3-3.7,14.5-6.6c13.3-6.2,13.5-10.4,18.5,3c0.1,0.6,0.1,1.1-0.3,1.6
		c-3.3,3.4-5.5-4.4-6.6-4.8c-0.1,0-0.5,0.2-0.6,0.2c0,0-2.8,1.9-10.4,5c-2.8,1.1-3,1.3-2.6,2.4c0.5,1.5,3.8,9.1,4.2,10.2
		c1,2.3,0.9,2.3,2.6,1.5c3.6-1.9,5.1-2.5,6.2-2.8c0.5-0.2,0.8-0.3,0.7-0.4c0.1-0.1,0.1-0.3-0.1-0.7c-0.8-2,0.1-3.1,1.7-3.3
		c2-0.3,2.8,2.1,4,4.6C218.9,69.7,219.9,71.1,218.3,72.5z M264.4,69.5c-1.5,0.6-3.1,1.1-5.5,1.7c-2.8,0.7-4.1,1.2-5.1,0.3
		c-0.5-0.4-1-1.6-0.8-2.2c0.1-0.4,0.2-0.6,0.4-0.9c0.7-0.7,1.8-1.1,2.6-1.5c-1.6-2.8-1.4-3.3-10.1-1.2c-8.5,2-8.1,1.8-8.2,3.2
		c0,0.5-0.2,2.2-0.1,2.8c0.7,0.1,2.7-0.6,3.3-0.5c2,0.4,3.4,3.4-0.6,4.8c-6.8,2.1-10.3,4.3-11.3,0.7c-0.3-1.4,0.4-2.4,1.6-2.7
		c1.4-0.3,2.1-0.9,2-3.7c-0.1-16.3,1.1-29,1.6-30.7c0.4-3.4,4.5-4.7,6.4-1.7c3.3,5,6.9,8.4,10.5,13.5c1.4,1.8,5.2,8.1,8.9,12.5
		c1.9,2.3,2.9,0.5,5.1,0.9C266.4,64.9,268,68,264.4,69.5z M250.7,59.6c-0.5-1.8-11.4-15.3-12.2-16.3c-0.1,0.1,0,0.1,0,0.3
		c-0.1,1.1-0.9,18-0.6,18.8C238.2,62.4,250.4,59.7,250.7,59.6z M298.4,61.7c-1.6,1.6-7.5,2.1-9.7,2.1c-1.5,0.1-2.9-0.2-3.2-1.8
		c-0.2-1.4,0.3-2.2,1.6-2.7c0,0,0,0,0-0.1c0.4-0.1,1-0.2,1-0.2c-0.4-0.5-2.1-2-2.6-2.6c-0.5-0.5-1.5-1.6-2.1-1.8
		c-1.3-0.3-7,1.6-5.9,1.3c-0.8,0.2-0.8,0.3-0.7,1.2c0.1,0.7,0.1,0.8,0.3,1.3c0.1,0.1,0.1,0.3,0.2,0.4c0.4,2,0.3,2.1,2.5,1.7
		c2.9-0.6,4.8,4.2,0.4,5.1c0,0,0,0-0.1,0c-4.4,0.5-10.3,3.8-11.1-0.3c-0.1-2,0.8-2.9,2.4-3c0.3-0.1,1.3-0.3,1.4-0.6
		c0,0,0.1-0.1,0.1-0.3c0,0-1.4-4-3.1-11.4c-0.5-2.3-0.9-2.8-1.4-5.1c-0.2-0.9-2-8.4-2.6-9.1c-0.2,0-2.7,0.3-2.9,0.3
		c-2.3,0.4-3.7-2.9-1.9-4.3c1.3-1,10.3-3.2,11.9-3.5c3-0.7,7.9-2.6,13.5-0.8c8.7,2.7,17,16.1,3.7,24.3c-0.3,0.2-1.3,0.8-1.1,1.1
		c0,0.1,0,0.1,0.1,0.2c5,5,3.7,4.9,6.5,4.6C298.8,57.2,299.9,59.9,298.4,61.7z M286.3,32.8c-2.6-1.5-6.3-1.2-8.7-0.7
		c-4.1,1-6.9,2.1-6.9,2.1c-0.3,0.1-0.1,0.8,0,1c1.4,3.8,2.8,10.2,4,13.9c0.1,0.3,0.3,0.6,0.4,1.1c0.2,0.6,0.2,0.7,1,0.6
		c1.8-0.2,8.7-2.1,12.2-3.8C294.5,44.2,292.6,36.5,286.3,32.8z M344.6,53.3c-0.5,0-0.4,0.2-0.9,0.1c-0.7,0-0.7-0.6-0.8-1.2
		c-0.5-2.1-0.2-20.2-0.2-18.9c0,0-0.1-7,0-7.1c0,0,0-0.1,0.1-0.1c0,0,0-0.1,0.1-0.1c1.1,0,2.3,0.1,3.9-0.4c1.5-0.5,2.3-1.8,2-3.1
		c-0.9-2.9-3.3-1.8-7.1-1.9c-6.3-0.2-6.6-0.9-9.2,4.3c-1,2-1.4,1.5-5.2,11c-1.1,2.8-1.5,4-1.5,4c-0.2-0.2-1.1-1.2-1.1-1.5
		c-4.6-6.2-6.8-9-10.8-14.5c-1.3-1.8-3.4-2.1-5.6-1.8c-5,0.6-10,0.4-9.5,3.9c0.2,1.4,1.3,1.9,2.7,1.9c3.1,0.1,3.4-0.8,3.5,0.5
		c2.1,15.5,3.7,22.5,3.8,27.2c-0.2,0.1-1.8,0.3-2,0.3c-3.4,1-2.2,5.4,1.2,4.8c2.4-0.5,9.4-0.5,10.9-1.9c1.1-1.1,1.3-4.1-2.5-3.7
		c-0.2,0-0.2,0.1-0.4,0c-2.7,0.3-1.8,0.1-2.6-5.7c-0.4-3-1.9-11.6-3.2-21.9c0.1,0.1,0.2,0.1,0.2,0.2c1.4,2.5,12,16.2,12.8,17.3
		c1,1.4,2.1,2.8,3.9,2.4c2.6-0.5,1.5-3,6.1-12.6c0.7-1.5,0.6-2.1,4.3-8.4c0.1,1.6,0,2.4-0.1,3.8c-0.1,1.1,0.5,22,0,22.5
		c-0.1,0.3-0.6,0.4-1,0.4c-2,0.3-3.5,1-3.2,3.1c0.3,2,2.2,2.2,4.2,2c6.7-0.9,11.6,0.2,10.9-3.6C348.1,53.3,346.3,52.7,344.6,53.3z
		 M383.3,19.8c-9.8,0-15.3-1.6-16.8,0.6c-0.5,0.8-0.2,1.7,0.3,2.4c1.2,2,2.4,1.3,6,1.4c-0.2,8.9-0.8,21.3-0.2,27.7
		c0,0.2-0.1,0.5-0.1,0.5c0,0,0,0.1-0.1,0.1c-0.2,0-0.2,0.1-0.3,0c-2-0.1-3.9,0.7-3.8,2.7c0.1,2.2,1.9,2.6,4,2.7
		c6.6-0.3,8.9,0,10.1-1.3c0.9-0.9,0.7-2.5,0-3.2c-0.8-0.8-1.7-0.7-2.8-0.8c-0.4-0.1-0.5-0.1-0.9-0.1c-0.6,0-0.9-0.2-0.9-0.2
		c-0.3-0.4-0.4-7.4-0.1-7.5c0.5-0.4,6.6-1,8.4-0.4c2.1,0.8,0.8,3,3.2,3.5c0.3,0.1,0.6,0,1-0.1c1.2-0.3,1.7-1.2,1.7-2.5
		c0.1-6.6,0.2-8-0.9-8.9c-0.7-0.6-1.8-0.8-2.9-0.1c-0.4,0.3-0.7,0.8-0.8,2c0,0.4-0.1,0.6-0.2,0.6c0,0.1-0.3,0.1-0.8,0.1
		c-1.9-0.3-4.3-0.2-6.9,0c-1.9,0-1.8,0.1-1.7-2.4c0-1.1,0.4-9.2,0.5-11c0.1-1.1,0.2-1.2,3.4-1.1c6.9,0.3,12.3-0.2,12.3-0.2
		c0.2,0.2,0.3,0.7,0.3,1.6c0.1,0.2,0.1,0.4,0.1,0.6c-0.4,4.7,2.5,6.3,4.1,4.5c1.1-1.2,0.8-6.1,0.7-7.9
		C398.3,17.5,396,19.8,383.3,19.8z M428,49.2c-0.8,0.4-1.7,0.8-4.3,1.3c-0.3,0.1-1.5,0.3-1.4,0.7c0,0.2,2.2,5.3,2.7,5.9
		c0.4,0.5,0.8,0.5,2,0.7c3.9,0.6,2.9,5.2-0.8,5.1c-3-0.3-5.3-0.7-7.9-1.5c-1.5-0.4-2.7-1.2-2.5-2.7c0.2-1.4,1-2,2.4-2c0,0,0,0,0-0.1
		c0.4,0.1,1,0.1,1,0.1c-0.2-0.7-1.3-2.5-1.6-3.3c-1.3-2.8-1.3-2.5-3.6-2.8c-0.8-0.1-4.2-0.2-3.8-0.2c-1.1,0-1,0.2-1.2,2.2
		c0,0.1,0,0.3,0,0.5c-0.2,2-0.4,2.1,1.8,2.4c3,0.4,3.2,5.5-1.3,4.9c0,0,0,0,0-0.1c-4.2-0.9-11,0.2-10.4-3.8c0.8-3.2,3.3-1.9,4.5-2
		c0.2,0,0.3-0.1,0.4-0.1c0.2,0,0.2-1,0.2-1.3c0-4.8,0.6-6.8,1.3-18.6c0.1-0.9,0.7-6.1,0.4-6.9c-1.2-0.7-5,0.1-4.7-3.3
		c0.3-2.6,2.7-2.4,11.4-1.7c8.1,0.6,18.2,0.7,21.4,12.5C435.8,41.7,432.7,47,428,49.2z M423.9,29.4c-3.6-1.6-8.7-1.9-12.3-1.6
		c-0.6,0.1-0.5-0.2-0.6,0.5c0,0,0.1,1.9-0.7,11.4c0,0.5-0.4,4.9-0.1,5.3c0.4,0.5,3.7,0.6,4.3,0.6c8.8,0.5,12.8,0.5,14.7-4.3
		C430.5,37.8,427.7,30.9,423.9,29.4z M472.1,43c1.6-5.6,4.8-8.5-0.4-9.8c-2-0.7-3.9-1.2-5.9-1.4c-13.1-1.6-20.1-4.7-21.6-5
		c-2.4-0.6-3.4,1.5-3.1,2.7c0.3,1.1,1.6,1.9,3.2,2.5c1.1,0.6,1.8,0.6,1.5,2c0,0.2-0.4,1.4-0.5,1.6c-0.2,1.1-0.3,1.1-1,3.7
		c-0.1,0.5-1.1,4.9-1.8,7.7c-2.5,9.7-1.8,12.2-3.5,11.9c-2.5-0.3-4.9-0.3-5,2c0.1,1.6,1.5,2.3,3,2.3c12.1,1.6,22.5,7.9,26.4,7.3
		c1.3-0.2,1.7-0.7,3.3-4.7c0.7-1.9,0.9-4.9-0.2-5.7c-0.8-0.7-1.7-0.6-2.3-0.2c-1.4,1-1.4,3.8-2.1,5.1c-0.3,0.6-0.5,0.3-1,0.4
		c-2.8-0.7-7.6-3.3-11.8-4.4c-4.7-1.2-4.3-0.9-3.2-6.1c0.4-1.8,1.2-0.8,7.5,0.4c0,0,0.1,0,0.2,0c2,0.3,2.1,0.7,2,1.6
		c-0.2,2.3,3.2,3.2,4.1,0.5c0.7-1.6,2.6-6.9,2-8.5c-0.5-1.7-3.1-2.5-4.5,0.5c-0.3,1.2-0.3,1.4-1.8,1c-8.4-2.5-8-0.4-6.8-5.7
		c1.1-5.1,2-9.7,2.7-10c0.6-0.3,3.2,0.4,6,1c6.3,1.4,5.5,0.4,10.6,2c0.7,0.2,0.6,0.3,0.6,0.6c-0.1,0.9-0.2,1-0.4,1.8
		c-0.7,1.8-0.6,4.1,1.4,4.6C470.8,44.9,471.8,44.2,472.1,43z M498.1,50.2c-1.3,1.4-1.1,3.2,1.2,4c1.8,0.8,2.9-0.7,3.8-2.4
		c3.8-7.3,3-8.5,1.4-9.3c-1.4-0.8-2.5-0.1-3.2,1.3c-0.1,0.2-0.2,0.3-0.2,0.4c-1.1-0.4-5.7-6.1-15.2-4.8c-3.5,0.4-5.8,2.3-6.9,5.5
		c-3.7,10.7,18.8,14.9,14.6,23.7c-0.9,2-2.5,2.9-4.8,2.9c-3.5,0-6.5-1-9.1-3c-3.3-2.8-3.3-2.8-2.5-5.1c0.5-1.7,0.2-2.8-1.6-3.5
		c-1.7-0.6-2.8,0.5-3.5,2.1c0,0,0,0-0.1,0c-1.3,3.4-1.1,3.8-1.9,5.5c-1,2.1-1.5,4.6,0.7,5.3c2.4,0.7,3.6-1.9,3.6-1.9
		c0.7,0.6,0.8,0.6,1.5,1.3c0,0,0,0,0.1,0c5.9,5.1,14.9,5.4,18.9,2.6c2.6-1.7,5.5-5.5,4.3-10.6c-2-9.1-15.8-12.6-15-17.6
		c0.1-1.4,2.3-2.2,3.6-2.3c3.7-0.2,6.9,1,9.6,3.4c0,0,0,0,0.1,0c0.8,0.7,1.5,1.1,1.1,2C498.3,49.8,498.2,50,498.1,50.2z M546.3,60.4
		c-3.8-2.2-7.3-3.9-11-5.1c-2.8-1-3.9,2.3-2.8,4c0.5,0.8,1.3,1.2,2.2,1.5c0.3,0.1,1.4,0.3,1.5,0.6c0,0.1,0,0.3,0,0.6
		c0,0.5-1.9,4.4-2.1,4.6c-2.9,5.7-3.3,7.6-4.2,9.6c-0.1,0.2-0.4,1-0.5,1.1c-0.3,0.1-6.8-2.8-7.1-3c-3.6-1.5-3.8-1.2-7.6-3.2
		c-0.6-0.3-0.6-0.4-0.5-1.1c0.2-0.7,4.8-15.3,5.3-15.8c0.6,0,2.1,0.7,2.6,1c3,1.7,5.3-1.1,4-3c-0.9-1.2-12.2-6.6-14.4-6.6
		c-1.7,0.1-2.5,1.9-1.9,3.2c0.5,1.1,1.5,1.5,2.6,2c3.7,1.9,2.8-1.9-6.4,27c-0.3,1-0.7,0.6-2.5,0.1c-2.2-0.5-3.5,1.9-2.9,3.3
		c0.3,0.8,1.1,1.4,2.5,2c0.2,0.1,0.7,0.4,0.8,0.3c5.9,1.9,8.4,4,9.9,2c0.4-0.5,0.8-1.1,0.7-1.8c-0.1-0.6-0.3-1.1-0.8-1.5
		c-0.3-0.2-0.7-0.6-1-0.7c-0.1,0-0.2-0.1-0.3-0.2c-0.1-0.1-1.1-0.6-1.3-0.7c-0.7-0.3-0.7-0.4-0.5-1.1c0.1-0.5,1-3.4,1.3-3.8
		c0.6,0,11.4,4.3,12,4.6c3.6,1.4,3.8,1.7,2,5.3c-0.1,0.2-0.4,1-0.6,1.1c-0.1,0-2.3-0.6-2.7-0.6c-2.1,0.1-3.5,3.3-0.9,4.7
		c2.3,1.3,4.1,1.9,6.5,3c2.3,1,3.7-0.5,3.5-2c-0.2-1.6-1.7-1.4-1.6-2.8c0.1-1.7,5.9-14.4,5.3-13.2c1-2.2,2.1-5.9,5.4-11.4
		c0.4-0.7,0.6-0.7,1.3-0.5c1.3,0.4,3.6,1.8,4.9-0.7C547.7,62.1,547.4,61.1,546.3,60.4z"/>
	<path d="M292.7,161.6c-0.3,1.2-0.5,2.3-0.7,3.3c-0.3-4,0.1-25.4,0.3-29.6c-0.9-2.2-2.7-1.3-4.7,0.2c-1.8,2.2-2.4,12.7-2.6,15.5
		c-1.4,2-13,18.5-15.1,17.6c-5.4-2.1,0.3-26.2-10.6-24.3c-6.2,1-13,25.6-14.5,30.2c-1.8-8.1-2.8-16-2.9-23.5
		c12.7-14,30.2-33.4,31.3-46.8c1.4-14.8-24.3-23.1-35.6,16.2c-2.9,10.6-3.5,22.5-2.9,32.5c-3,5.5-20.5,31.8-31.1,30.5
		c-18.3-1.8-18.6-38.3-9.5-64.1c13.3-36.8,32.8-16.4,31.1-4.2c-0.4,2.6-1.3,4.3-2.8,5c-2.6,1.1-3.3,0-2.8-1.2
		c-0.9-2.1-3.5-1.8-3.6,0c-0.4,2.5,2.7,7.2,8.4,5c2-0.7,3.5-2.9,4.4-6.4c4.3-19.7-26.3-39.4-42.7-1.8c-9,20.9-11.9,55.8,6.3,68.8
		c4.2,2.9,9.1,3.6,10.5,3.6c11.8-0.4,25.9-19.2,32.4-29.2c0.9,8.6,2.6,16,5.1,24.4c0.8,0.4,1.7,0.6,2.9,0.6c1.1,0,2.7-0.1,3.4-2.5
		c1.5-10,10.9-32.4,12.2-33.6c0.8,1.6-1.2,22.5,9.2,24.9c4.8,0.8,14-11.6,16.8-15.6c0.1,7.6,0.9,16.5,2.1,23.3
		c2.3,2.8,5.2,0.6,5.8-1.2c0.8-13.3,8.5-34.8,12.1-34.8c2.9,0.2,1.2,7.4,0.7,8.6c1.2,3.3,5.8,3,5.8-4.1
		C310.7,141.5,300.4,132,292.7,161.6z M241.9,145.9c0.2-12.4,2.3-27,7.8-37.9c9.8-20.2,21.5-13.9,19.7-2.9
		C266.3,120.3,243.4,143.8,241.9,145.9z M322.3,133.8c0.3-2.5,1.5-3.1,3.3-3.1c1.4,0.1,2.4,0.6,2.3,1.9c0,1.6-1.6,4.8-3.9,4.8
		C322.3,137.3,322,135.5,322.3,133.8z M462,170.3c1.4,1.9-3.8,3.2-4.2-5c-0.6-12.1,0.7-25.1-6.3-24.3c-6.4,0.7-14.3,21.3-15.6,23.8
		c0.5-14.5-4-21.2-11.7-8c-3.2,5.5-4.3,8.9-6.1,12.8c0.2-5.9,3.4-30.1,3.7-32.9c-0.3-0.7-0.7-1.3-1.6-1.3c-0.8-0.2-3.4,1.3-4.1,1.8
		c-1.9,4.8-2.8,10.7-3.4,15.1c-2.7,4.7-15.7,29.5-19.9,27.5c-9.4-4.3,0.5-54,2.1-59.9c6.4-1,12.4-1.4,18-1.3
		c11.4,0.1,17.2,5.9,16.7,8.1c-0.2,0.9-0.5,0.7-1.1,0.1c-1.1,0.7-1.7,1.6-1,2.8c1.5,2.8,6,1.2,6-3.4c0-3.9-6.3-10.9-18.5-11.2
		c-5-0.5-13.5,0.4-19.1,1.3c0.7-3.5,1.9-8.7-1.7-8.7c-1.6,0.2-3,0.8-3.9,1.9c-0.4,0.7-2.2,7.4-2.4,8.2c-16.7,3.1-41.8,10.7-51.1,4.2
		c-1.6-1-2.2-1.9-2-2.6c0.4-1,0.6-0.9,1.1-0.6c2.7-4.5-4.7-4.3-4.7,1.3c-0.1,3.6,5.1,7.3,10.3,8c12.2,1.4,28.4-3.4,45.6-6.6
		c-2.9,11.8-21.2,31.9-27.4,38.8c-5.3-6.4-10.2-8.7-9-13.4c2.1-7.9,10.6-11.7,13.1-9.4c1.9,1.9,1,5.8-0.7,5.2
		c-1.7,0.8-0.4,3.7,0.9,3.7c1.7,0,3-1.4,4-4c3.5-9.9-11.7-12.2-20.3-4.3c-2.3,2-4.2,5.2-4.4,8.7c-0.3,0.9-0.1,2.9,1.1,4.9
		c-2.5,3.7-13.8,21.5-18.3,21.3c-6.3-0.2-0.4-27.5-1-28.8c-1.3-2.1-4.4-1.8-5.8,0c-4.5,8-4,32.6,5.4,32.6c6.7,0,18.1-16.6,21.8-22.2
		c1.2,1.4,9.6,9.8,9.7,9.9c-4.4,5.3-11.8,13.7-10.5,20.2c1.9,7.4,12,4.3,17.3-4.4c4-6.6,3.5-10.9-0.6-16.9c-0.1-0.2-0.2-0.3-0.3-0.5
		c5.5-6.6,14.5-15.7,22.7-28.7c-1.9,12.9-6.2,46.2,6.6,49.7c6.3,1.6,17.2-16.3,20.6-22c-0.3,4-0.6,10.8,0,14.8
		c0.7,2.3,4.9,3.2,6,1.6c0,0,1.2-2.8,5-10.7c10.5-21.1,7.1-11.8,7.1-0.4c0,4.1,0.6,4.5,3.1,4.7c1.6,0.1,3-0.5,3.8-1.7
		c0.6-1.1,11.4-23.3,13-24.2c0.6,1.6-2.6,22.9,8.1,28.2c3.2,1.5,6.9-0.2,6.9-3.6C464.6,168.3,462.2,169.1,462,170.3z M349.4,184.3
		c-0.7-1-0.3-3,0-4.2c0.9-4,4.7-8.3,8.4-12.9C361.5,176.6,352,188.4,349.4,184.3z M549.1,151.8c-2.1,2.1-10.4,5.8-17.7,10.7
		c-3.9-9.9-4.8-10.9-6.3-15.2c-2.3-6.6,0.9-13.4,7-10c7.4,4.3,2.4,9.7,1.1,8.1c-0.7-0.1-1.2,0.1-1.6,0.6c-0.9,0.9,1,3,2.3,3.1
		c1.2,0.1,2.5-1.2,3.2-2.1c3.7-4.3,1.9-11.4-6.8-13.2c-11.1-2.4-17,7.9-11.5,17.7c-1.4,2-16.5,26.5-20.5,25.9
		c-3.5-0.6,2.8-35.5,1.3-40.4c-0.6-2.1-5.5-1.5-6.2-0.5c-4.8,12.1-16.2,30.5-18.6,29c-1.9-0.9,2.5-19.4,6.7-20
		c0.6-0.1,0.8,0.3,0.9,0.8c0.1,0.9-0.1,1.1-0.4,1.3c-0.5,0.7,0.5,2.5,1.5,2.3c4.7-1.6,2.7-5.8,0.2-7.3
		c-12.2-7.4-21.8,23.1-10.3,26.6c5.8,1.8,14.8-13.3,17.6-18.5c-0.4,8.4-2.2,28.3,6.1,29.8c6.5,2.2,20.4-20.3,23.8-25.6
		c3.4,5.9,4.4,9,5.1,11.6c-5.6,4.3-11.6,9.4-11.6,16.2c0,5.4,6,7.8,11.6,3.8c5.6-3.7,9.5-12.5,6.5-21.1c9.1-5.9,17.5-9.6,20.5-12.6
		C552.2,151.5,550.2,151.5,549.1,151.8z M518.8,184.9c-1.1-1-1.3-2.8-0.6-5.3c1.1-4.5,5-7.8,8.4-10.4
		C527.8,178.8,522.6,187.9,518.8,184.9z"/>
	<path d="M204,482.2c-2.3,2.6-5.9,3-9.4,3c0,0.1,0,0.7,0,0.9c0,0.3,0,0.9,0.3,1.1c0,0,0.1,0,0.3,0c1.4,0,2.5,0.4,2.2,1.7
		c-0.2,0.8-0.8,0.8-1.5,0.8c-4.5,0-5.2,0.1-5.7-0.4c-0.7-0.9-0.4-2.1,1.3-2.3c0.2,0,0.5,0,0.7-0.2c0.1-0.2-0.2-15-0.2-14.8
		c0-0.4-0.3-0.2-0.7-0.3c-0.6,0-1.2,0-1.6-0.5c-0.8-1-0.3-2.2,1-2.2c4,0.2,9-1.4,12.3,0.7C206.8,471.9,207,478.8,204,482.2z
		 M199.5,471.3c-1.7-0.1-4.3,0.2-4.7,0.3c-0.1,0-0.1,0-0.1,0c-0.1,0.1-0.1,10.3,0,10.5c0.1,0.3,1.7,0.3,2.1,0.3
		c0.5-0.1,1-0.1,1.4-0.2C204.7,482.2,205.7,471.5,199.5,471.3z M215.5,489.4c-0.5,0.5-1,0.3-2.1,0.2c-0.8-0.1-3.8,0-3.5,0
		c-0.9,0-1.7-0.1-1.8-1.1c-0.1-0.8,0.4-1.5,1.1-1.5c1-0.1,1.1-0.3,1.2-0.8c0.5-3.4,0-11.4,0-14.2c0-0.5,0-0.4-0.4-0.4
		c-0.8,0-1.8,0-2.3-0.6c-0.4-0.5-0.4-1.2,0.1-1.7c0.4-0.4,1.1-0.4,1.7-0.4c4.2,0,5.8-0.8,6.2,0.5c0.3,0.8,0,1.6-1,1.8
		c-0.1,0.1-0.1,0-0.2,0.1c-1.8,0-1.7,0.8-1.4,5c0.2,7.8,0,10.7,0,10.7c0.1,0.1,0.2,0.1,0.4,0.1C215.7,487,216.4,488.5,215.5,489.4z
		 M234.5,471.4c-0.2,0-0.2,0-0.2,0c-0.1,0.1-0.9,16.5-1.1,17.2c-0.3,1.1-1.3,1.2-1.9,0.9c-1.7-1-8.7-14.5-9.3-15.5
		c0.1,0.4-0.3,12.5-0.1,12.7c0,0,0,0.1,0,0.1c0,0,0.1,0.1,0.3,0.1c1,0,2,0.5,1.9,1.5c0,1.5-1.6,1.3-5.4,1.6c-2.4,0-2-2.9-0.2-2.9
		c1,0,0.5,0,0.8-10.3c0.1-4.4,0-2.5,0-4.4c0-0.4-0.1-0.4-0.5-0.4c-2.6,0-3-3.8,2.7-2.6c1.8,0.4,2.9,3.8,6.2,9.8
		c0.7,1.1,3.1,5.2,3.1,5.2c0.6-13.6,1.1-12.7,0.3-12.9c-0.7-0.2-1-0.1-1.5-0.7c-0.4-0.5-0.5-1.5,0.2-2c0.6-0.4,1.4-0.3,4.1-0.1
		c0.6,0,1.6,0,2.1,0.3C237.1,469.7,236.9,471.4,234.5,471.4z M254.5,489.2c-0.8,1.3-6.8,0-10.5-0.3c-5-0.4-6,0.5-6.4-1
		c-0.2-1.1,0.6-1.3,1.6-1.5c1.7-0.4,1.2,0.5,1.3-4.1c0.1-11.7,1-10.4-0.6-11c-0.7-0.2-1.5-0.4-1.8-1c-0.3-0.7,0.1-1.8,1.2-1.8
		c1.3,0,4.4,1,10.7,0.2c5.3-0.7,4.7,0.8,4.6,2.8c-0.2,2.3,0.1,3.5-1.2,3.5c-1.6,0-1.2-2.2-1.3-3.3c0-0.2,0-0.2-0.4-0.3
		c-2.3-0.1-1.5,0-3.3,0.2c-5.5,0.5-5-0.9-5.1,2.3c0,0.6,0,4.6,0,5.2c0,0.3,0.1,0.5,0.8,0.5c0.4,0,0.9,0,1.4,0c2.6,0,2.6,0.3,2.6-0.7
		c0.3-1.7,1.6-1.8,2.1-0.9c0.5,0.8,0.2,3.9,0.1,4.8c-0.1,1.5-2,1.5-2.1,0.3c-0.1-0.5-0.3-0.7-1.2-0.6c-0.1,0-0.1,0-0.1,0
		c-0.8,0-1.4,0-2.3,0c-0.3,0-1.2-0.1-1.4,0.1c-0.2,0.2-0.2,2.7,0.1,3c0.3,0.4,1.6,0.4,2.1,0.4c4.1,0.1,7.1,1.7,7.1,0.3
		c0-1.1-0.3-3.7,1.5-3C255.4,484.1,255.2,488.1,254.5,489.2z M287.2,485.8c-1.4,3.6-5.3,4.5-9,3.6c-7.9-1.9-8.4-18.9,2.1-20.5
		c1.1-0.2,2.3,0,4.3,1.3c0,0,0.4,0.3,0.4,0.3c0-2.6,2.5-1.9,2.3-0.6c-0.2,1.3,0.2,4.8-0.7,6c-0.5,0.7-2.1,0.5-2-1.1
		c0-0.8,0.3-1.3-0.3-1.8c-1.5-1.1-2.2-1.4-3.2-1.4c-5.3,0-8.3,8-4.6,13.4c1.7,2.4,7.5,3.1,8.8-1.4c0.4-1.2,0.5-2.1,1.6-2
		C288.5,481.9,287.8,484.3,287.2,485.8z M306.2,489.2c-1,1.6-8.5-0.7-15-0.3c-2,0.4-3.2-2.3,0.6-2.6c0.5,0,0.6-0.5,0.6-1
		c-0.2-3.6,0.3-12.6,0.2-11.5c0.1-2.5,0.2-2-1.4-2.6c-2.2-0.7-1.3-2.7,0-2.7c1.3,0,4.4,1,10.7,0.2c5.3-0.7,4.7,0.8,4.6,2.8
		c-0.2,2.3,0.1,3.5-1.2,3.5c-1.6,0-1.2-2.2-1.3-3.3c0-0.2,0-0.2-0.4-0.3c-3.1-0.2-0.9,0.3-6.5,0.3c-2.4,0-2-0.9-2,7
		c0,0.8-0.1,1,1.5,1c3.4,0,3.3,0.3,3.3-0.7c0.3-1.7,1.6-1.8,2.1-0.9c0.5,0.8,0.2,3.9,0.1,4.8c-0.1,1.5-2,1.5-2.1,0.3
		c-0.1-0.3-0.2-0.5-0.3-0.6c-0.3-0.1-1,0-1,0c-3.4,0.2-3.8-0.3-3.8,0.7c0,3.8-0.1,2.4,4.2,3.1c0.6,0.1,4.7,0.9,5.1,0.5
		c0.1-0.1,0.1-0.3,0.1-0.5c0-0.7,0-1.4,0-2c0.1-0.9,0.8-1.3,1.5-1C307.1,484.1,306.9,488.1,306.2,489.2z M321.4,488.6
		c-1.4,0.4-4.3,1.6-8.2,0.9c-0.1-0.1-0.1,0-0.2-0.1c-0.4-0.1-0.8-0.1-1.1-0.2c-1.1-0.2-2.3,0.8-2.8-0.8c-0.2-1,0.3-1.6,1.2-1.9
		c0.2-0.1,1.2-0.1,1.4-0.1c0-0.2-0.5-14.3-0.7-14.5c-0.1-0.1-0.3-0.2-0.4-0.2c-1.3-0.2-2.5-0.6-2.2-1.8c0.1-0.7,0.6-0.9,1.3-0.9
		c7,0.8,11.7-2.5,16.3,4.3c0.3,0.3,0.8,1.7,0.9,2.1C329,482.5,326,487.4,321.4,488.6z M324.2,475.5c-2.1-4.9-6.7-4.1-10.2-3.7
		c-0.4,0-0.4,0.1-0.4,0.5c0,0.8,0,1.4,0.1,2.3c0.1,0.5,0.6,11.6,0.6,11.7c0,0.4,0.1,0.6,0.5,0.6c4.2-0.1,5.9-0.8,7.3-1.6
		C325.5,483.4,325.8,479,324.2,475.5z M349.1,489.5c-0.6,0.5-1.7,0.5-2.5,0.5c-1.2,0.1-3.2,0.2-3.9-0.3c-0.5-0.3-0.8-1.3,0-2
		c0.5-0.3,1.1-0.3,1.5-0.4c-0.2-1-0.4-1.7-1.4-1.8c-0.5-0.1-7.4-0.7-7.8-0.4c-0.2,0.2-0.7,1.6-0.8,1.9c0.2,0.1,0.9,0.1,1.1,0.2
		c1.4,0,1.6,1.8,0.8,2.2c-0.7,0.4-1.9,0.3-4.1,0.3c-0.9,0-2.2,0.1-2.7-0.6c-0.6-0.8-0.1-2.2,1-2.1c2.1,0.2,1.4-3.1,7-16.9
		c0.4-1,0.8-1.7,1.9-1.7c1.6,0,1.4,1.3,2.3,3.9c0.4,1.1,2.2,5.5,2.6,6.9c0.3,1.1,1.5,5.1,2.5,7.1c0.7,1.5,1.4,0.7,2.5,1.2
		C349.7,487.7,350,488.9,349.1,489.5z M339,472.4c-0.1,0.3-3.2,9.5-3.2,9.8c0.3,0.1,6.5,0.6,6.7,0.6c0-0.8-3-9-3.5-10.5
		C339,472.3,339.1,472.3,339,472.4z M362.7,483.8c0,0.1,0.7,1.3,0.8,1.4c1.3,2.1,1.3,1.8,2.2,1.8c2.1,0,2,2.6,0,2.8
		c-8,0.5-5.9-2.6-4.7-2.7c0,0,0,0,0,0c0.3,0,0.5,0,0.5,0c-0.2-0.4-0.9-1.3-1.1-1.6c-0.9-1.4-0.8-1.3-2.1-1.3c-0.4,0-2.1,0.2-2,0.2
		c-0.6,0.1-0.5,0.2-0.5,1.3c0.3,1.1-0.6,1.4,1.1,1.4c1.6,0,2,2.8-0.3,2.8c0,0,0,0,0,0c-2.3-0.2-5.8,0.8-5.7-1.5
		c0.1-0.6,0.3-0.8,0.5-1c0.6-0.5,1-0.2,1.7-0.3c0.1,0,0.2-0.1,0.2-0.1c0,0-0.4-13.4-0.4-14.1c-0.1-0.8,0.1-0.6-0.8-0.7
		c-0.1,0-0.7-0.1-0.8-0.1c-1.1-0.1-1.4-2-0.4-2.5c0.7-0.4,5.3-0.5,6-0.5c1.5,0,4-0.6,6.5,0.9c3.9,2.3,7.1,10.4-0.3,13.5
		C363.2,483.4,362.6,483.6,362.7,483.8z M355.7,478.3c0,0.2,0.1,2.7,0.3,2.9c0.1,0.1,1.1,0.1,1.3,0.1c1.3-0.2,3.5-0.2,5.6-0.8
		c3.3-1,3-5.3,0.3-7.9c-2.2-2.1-6.6-0.8-7.6-0.8c-0.1,0-0.1,0.2-0.1,0.3C355.4,472.1,355.6,473.2,355.7,478.3z M395.7,488.8
		c-2.5,0.8-4.8,1-7.2-0.1c0,0,0,0,0,0c-0.5-0.3-0.5-0.2-1-0.4c0,0,0,0,0,0.1c-0.3,1.8-2.5,2.1-2.7,0.3c0-0.5,0.1-4.1,0.2-4.6
		c0,0,0,0,0,0c0.1-0.9,0.5-1.7,1.4-1.6c1,0.1,1.3,0.6,1.3,1.6c-0.1,1.4-0.1,1.3,2,2.3c2.5,0.9,6.7,0.6,6.9-2.3
		c0.4-3.6-5.1-4.1-8.7-6.1c-4.4-2.7-1.9-10.7,6.9-8.3c0.2,0.1,1.2,0.4,1.2,0.4c0-0.8,0.4-1.7,1.3-1.5c0.9,0.1,1,0.7,1.1,1.5
		c0,0.9,0.1,1.7-0.2,3.5c-0.1,1-0.4,2-1.4,1.9c-1.2,0-1.6-0.9-1.2-1.9c0-0.1,0-0.2,0.1-0.3c0.1-0.5-0.3-0.6-0.8-0.9c0,0,0,0,0,0
		c-3.9-1.9-9.5,1-4.2,3.6c1.6,0.8,2.6,0.7,5.4,2.3C400.8,480.7,400.4,487.2,395.7,488.8z M415.4,482.2c-2.3,2.6-5.9,3-9.4,3
		c0,0.1,0,0.2,0,0.4c0,0.7-0.1,1.6,0.6,1.5c0.6,0,1.5,0.1,1.9,0.6c0.4,0.5,0.4,1.5-0.3,1.9c-0.5,0.2-5,0.1-4.5,0.1
		c-0.8,0-1.6,0.1-2.2-0.4c-0.7-0.9-0.3-2.1,1.3-2.3c0.2,0,0.5,0,0.7-0.2c0.1-0.2-0.1-14.8-0.2-15c0,0-0.6-0.1-0.7-0.1
		c-0.3,0-0.3,0-0.9-0.1c-1.2-0.2-1.6-2.7,0.4-2.7c3.9,0.2,9-1.4,12.3,0.7C418.2,471.9,418.3,478.7,415.4,482.2z M413.9,472.7
		c-2.2-2.5-6.8-1.1-7.9-1.1c-0.1,0.1-0.1,10.3,0,10.5c0.1,0.3,1.7,0.3,2.1,0.3c0.5-0.1,1-0.1,1.4-0.2
		C414.4,482.2,416.6,475.8,413.9,472.7z M430.9,483.8c0,0.1,1.4,2.3,1.4,2.4c0.9,1.4,1.6,0.3,2.7,1.1c0.6,0.6,0.6,1.5-0.1,2.1
		c-0.6,0.5-1.1,0.4-1.9,0.5c-1,0-3.6,0-4.4-0.5c-0.8-0.6-0.7-2.1,0.6-2.2c0,0,0,0,0,0c0.3,0,0.5,0,0.5,0c-0.1-0.2-0.4-0.7-0.5-0.7
		c-0.3-0.4-1.1-1.8-1.5-2.1c-0.6-0.3-3.8,0.1-3.2,0.1c-0.6,0.1-0.5,0.2-0.5,1.3c0,0.1,0,0.1,0,0.3c0,1.1-0.1,1.2,1.1,1.2
		c1.6,0,2,2.8-0.3,2.8c0,0,0,0,0,0c-1.8-0.2-2.4,0.2-4.3,0c-1.5-0.1-1.8-1.7-0.9-2.5c0.7-0.5,1-0.2,1.7-0.3c0.1,0,0.2-0.1,0.2-0.1
		c0.1,0,0-0.6,0-0.7c0-0.3-0.4-13.8-0.5-14c-0.1,0-1.3-0.2-1.4-0.2c-1.1-0.1-1.4-2-0.4-2.5c0.4-0.2,2.6-0.4,3.1-0.4
		c4.4-0.2,11.9-1.8,13.6,7c0.5,2.9-0.7,5.8-4.4,7.3C431.4,483.4,430.9,483.6,430.9,483.8z M424,478.3c0,0.2,0.1,2.7,0.3,2.9
		c0.1,0.1,1.1,0.1,1.3,0.1c1.3-0.2,3.5-0.2,5.6-0.8c2.2-0.6,3.4-3.2,1.5-6.3c-1.1-1.9-2.6-3-5.3-2.8c-2,0.1-3.5,0.4-3.5,0.4
		c-0.1,0-0.1,0.2-0.1,0.3C423.6,472.1,423.8,473.1,424,478.3z M454.6,471.7c-0.1,0-0.8,0-0.9,0.1c-0.2,0,0.1,6.2,0.1,6.4
		c0,1.6,0.7,8.1-3.1,10.6c-1.7,1.2-3.4,1.2-5.3,0.9c-7.8-1-5.1-17.2-5.8-18.3c0-0.1-0.1-0.1-0.3-0.1c-1.6,0-1.9-2.2-0.3-2.5
		c1.4-0.3,3.3-0.2,4.3-0.1c2.7,0,2.5,3.2-0.3,2.7c-0.1,0-0.5-0.1-0.5,0c-0.4,0.4,0.1,10,0.2,10.6c1.1,6.7,8.4,7.4,8.6-2.3
		c0-1.3-0.6-8-0.6-8c0,0,0,0-0.1,0c-0.5-0.1-0.8,0-1.1-0.4c-0.2-0.3-0.3-0.5-0.3-0.9c0.1-1.1,0.8-1.3,1.7-1.4c1-0.2,3.7-0.2,4.5,0.4
		C456.3,470.1,456.1,471.7,454.6,471.7z M471.3,487.9c-2.6,2.6-7.6,2.1-9.7,0.6c-2.5-1.7-4.1-6.3-3.9-9.8c0.5-6.7,6.5-12.6,12.7-8.2
		c0,0.1,0,0,0.1,0.1c0-0.1,0-0.1,0-0.2c0.1-1,0.5-1.8,1.4-1.5c0.5,0.1,1,0.5,0.9,1.1c-0.2,1.3,0.2,4.8-0.7,6c-0.5,0.7-2.1,0.5-2-1.1
		c0-1.4,0.6-1.3-1.8-2.8c-3.6-2.1-9.1,3.1-7.8,9.1c0.4,2,1.2,4.6,3.2,5.4c1.7,0.7,3.9,0.8,5.4-0.3c2.4-1.7,1.4-4.7,3.2-4.5
		C474.5,482,472.9,486.3,471.3,487.9z M491.8,489.2c-0.8,1.3-6.8,0-10.5-0.3c-5-0.4-6,0.5-6.4-1c-0.2-1.6,1.5-1.3,2.5-1.6
		c0.4-0.1,0.4-0.6,0.4-1c-0.2-3.6,0.3-12.6,0.2-11.5c0.1-2.5,0.2-2-1.4-2.6c-2.2-0.7-1.3-2.7,0-2.7c1.3,0,4.4,1,10.7,0.2
		c5.3-0.7,4.7,0.9,4.6,2.8c-0.2,2.3,0.1,3.5-1.2,3.5c-1.6,0-1.2-2.2-1.3-3.3c0-0.2,0-0.2-0.4-0.3c-2.3-0.1-1.5,0-3.3,0.2
		c-5.5,0.5-5-0.9-5.1,2.3c0,0.6,0,4.6,0,5.2c0,0.3,0.1,0.5,0.8,0.5c0.2,0,3.5,0.1,3.5,0.1c0.5,0,0.4-0.3,0.4-0.8
		c0.3-1.7,1.6-1.8,2.1-0.9c0.5,0.8,0.2,3.9,0.1,4.8c-0.1,1.5-2,1.5-2.1,0.3c-0.1-0.5-0.3-0.7-1.2-0.6c-0.1,0-0.1,0-0.1,0
		c-4,0.2-3.8-0.5-3.8,1.5c0,2-0.1,2,2.3,2.1c3.8,0.1,7.1,1.7,7.1,0.3c0-0.7,0-1.4,0-2c0.1-0.9,0.8-1.3,1.5-1
		C492.6,484.1,492.4,488.1,491.8,489.2z M523.7,474.8c-0.9-0.2-1.1-1.4-1.2-2.3c0-0.2-0.1-1.3-0.3-1.5c0,0-0.3,0-0.3,0
		c0,0-1.8,0.5-5.7,0.5c-0.2,0-1.2,0-1.4,0.1c-0.2,0.1-0.2,0.3-0.2,0.5c-0.1,0.9,0,5.2,0,6c0,2.4,0.2,0.8,4.4,1.1
		c0.3,0,0.4,0,0.4-0.1c0.1,0,0.1-0.1,0.1-0.3c0-0.7,0.1-0.9,0.3-1.1c0.5-0.4,1.1-0.3,1.5,0c0.7,0.6,0.6,2.1,0.8,4.8
		c0.1,1.7-1.8,2.1-2.3,0.7c-0.2-0.7-0.5-1.1-2.2-1c-0.4,0-2.6,0.2-2.9,0.5c-0.1,0.1,0.1,4,0.2,4.1c0,0,0.2,0.1,0.5,0.1
		c0.6,0,1.5,0,2,0.4c0.4,0.4,0.6,1.2,0.1,1.7c-0.3,0.4-1.1,0.6-1.6,0.6c-0.6,0.1-4,0.4-4.5,0.3c-1.8-0.4-2-2.9,0.8-2.9
		c0,0,0,0,0-0.1c0,0-0.3-4.5-0.3-15.5c-1.8,0-2.3,0.3-2.9-0.7c-0.6-1-0.1-1.9,1-1.9c4.3-0.2,5.5,0.4,10.8-0.4
		c0.9-0.2,2.7-0.5,3.4,0.2c0.4,0.3,0.5,0.8,0.5,1.2C524.8,471.6,525.5,475.2,523.7,474.8z M534.1,487.8c0.3,0.5,0.2,1.2-0.2,1.6
		c-0.5,0.5-1,0.3-2.1,0.2c-0.8-0.1-3.8,0-3.5,0c-0.9,0-1.7-0.1-1.8-1.1c-0.1-0.8,0.4-1.5,1.1-1.5c1-0.1,1.1-0.3,1.2-0.8
		c0.5-2.9,0.1-14.4,0-14.6c0,0-0.3,0-0.4,0c-0.8,0-1.8,0-2.3-0.6c-0.4-0.5-0.4-1.2,0.1-1.7c0.4-0.4,1.1-0.4,1.7-0.4
		c0.5,0,5.2-0.4,5.6-0.2c0.9,0.4,1.1,2.1-0.4,2.4c-0.1,0.1-0.1,0-0.2,0.1c-2.3,0-1.3,0.9-1.3,9c0,6.3-0.1,6.8-0.1,6.8
		c0.2,0.1,0.3,0.1,0.5,0.1c0.3,0,0.5,0.1,0.8,0.1C533.6,487.3,533.9,487.6,534.1,487.8z M547.3,483.8c0,0.1,0.7,1.3,0.8,1.4
		c1.3,2.1,1.3,1.8,2.2,1.8c2.1,0,2,2.6,0,2.8c-7.9,0.5-5.9-2.6-4.7-2.7c0,0,0,0,0,0c0.3,0,0.5,0,0.5,0c-0.1-0.3-1.7-2.6-2-2.8
		c-0.3-0.1-1.4-0.1-1.7-0.1c-2.3,0.2-2,0-2,1.4c0,0.1,0,0.1,0,0.3c0,1.1-0.1,1.2,1.1,1.2c1.6,0,2,2.8-0.3,2.8c0,0,0,0,0,0
		c-1.8-0.2-2.4,0.2-4.3,0c-1.4-0.1-1.8-1.7-0.9-2.5c0.7-0.5,1-0.2,1.7-0.3c0.1,0,0.2-0.1,0.2-0.1c0,0-0.3-14.4-0.5-14.7
		c-0.1,0-1.3-0.2-1.4-0.2c-1.1-0.1-1.4-2-0.4-2.5c0.8-0.4,5.8-0.4,7.4-0.6c8.9-0.7,13.2,11.1,4.8,14.5
		C547.8,483.4,547.2,483.6,547.3,483.8z M540.6,481.2c0.3,0.3,4.1-0.2,4.6-0.2c8.3-1,3.7-8.6,1.2-9.2c-1.5-0.5-2.7-0.5-5.5-0.1
		c-0.1,0-0.8,0.1-0.8,0.2C540,471.9,540.4,481,540.6,481.2z M264.6,476.2c-4.2,0-4.2,6.6,0,6.6S268.8,476.2,264.6,476.2z
		 M377.8,477.5c-4.2,0-4.2,6.6,0,6.6S382,477.5,377.8,477.5z M500.9,476.7c-4.2,0-4.2,6.6,0,6.6S505.1,476.7,500.9,476.7z"/>
	<path d="M345,236.7c-0.7-0.4-1.3-1-1.6-1.8c2.2-5.2,0.7-14.7-4.9-3.1c-3.1,6.6-5.3,14.2-6.8,21.4c-1.5,7.8-0.2,9.1-3.3,10.3
		c-1.4,0.6-2.5,0.1-3.5-1.1c-1.1-6.2-1.9-14.3-2-21.4c-3.7,6.5-15.5,26.2-22.8,24.4c-14.7-3.7-9.4-43.5-6-58.6
		c-9.7-1.2-16.2,2.9-16,3.9c0.1,0.6,0.3,0.6,0.6,0.5c0.9,0.4,1.1,1,0.6,1.8c-1.8,3.6-7.9-3.1-0.1-7.1c4.7-2.4,9.9-2.4,15.4-2
		c0.5-2.2,2.6-10.4,3.4-11.7c0.8-0.8,2.8-1.7,3.8-1.7c1,0,1.7,0.8,2,2.3c0.2,0.9-1.8,10.9-2,11.8c11.1,1.3,17,3.5,25.1,1
		c1.4-0.5,2.3-1.1,2.6-1.8c0.2-0.5,0.1-0.7,0.1-0.7c0,0-0.3,0.1-0.4,0.1c-0.2-1.1-0.3-2.1,0.8-2.3c0.4-0.2,1.3-0.2,2.1,0.5
		c1.1,0.9,1,2.2,0.6,3.6c-2.7,7.6-25.6,3.5-31.5,2.7c-1.6,9.1-8.4,50,0,53.9c4.9,2.5,19-23.4,21.5-28.4c0.1-2.9,0.8-13.6,2.6-15.9
		c2.1-1.6,3.8-2.3,4.7-0.2c-0.2,3.8-0.7,25.5-0.3,29.6c0.9-5,5.6-22.7,12.1-23.5c1.8-0.2,3.2,0.3,4.5,1.4
		C351.4,229.2,348.9,238.9,345,236.7z M451,234.6c-3,3-11.1,6.5-20.5,12.6c4.1,12-5,23-12,23c-4.3,0-7.3-2.8-5.7-8.9
		c1.3-5.1,6.4-9.4,11.1-13c-0.6-2.5-1.6-5.6-5-11.5c-5.4,9.2-15.7,23.2-25.9,20.1c-6.8-2-8.4-7.5-9.1-13.7
		c-5.2,7.5-14.5,15.5-22.6,11.4c-16.5-8.6-3-39.8,9.8-30c5.5,4.3,2.9,13.4-9,12.5c-1.3,4.2-2.7,12.7,1.3,14.9
		c7.5,3.9,16-8,20.6-14.9c1.3-8.9,6.3-16.8,12-16.5c12,0,7.8,16.5-4.1,16.7c-4.6,22.5,8.7,23.8,25.2-3.4c-6-10.1,0.2-20.5,11.3-18.1
		c8.7,1.8,10.6,8.9,6.8,13.2c-0.7,0.9-2.1,2.2-3.2,2.1c-1.4,0-3.3-2.1-2.3-3.1c0.5-0.5,1-0.7,1.6-0.6c1.3,1.7,6.3-3.8-1.1-8.1
		c-6.1-3.4-9.3,3.4-7,10c1.5,4.3,2.4,5.4,6.3,15.2c7.6-5.1,15.5-8.6,17.7-10.7C448.2,233.6,450.1,233.5,451,234.6z M424.6,251.3
		c-18.2,13.6-3.2,25.1-0.2,6.4C424.8,255.4,424.8,253.3,424.6,251.3z M398.6,223.6c-2.5,0-5.3,8.2-6,10.6
		C398.3,233.9,401.9,223.6,398.6,223.6z M369.9,227c-2.3-2.3-5.7,4.5-6.7,7.1C369.4,235.5,371.3,228.4,369.9,227z"/>
	<path d="M235.2,237c0,0-9.2-7.3-19.4-4.1c0.1,0,4.7-6.1-4.2-10.3c0.2,0.1,6.5-4,1.8-11.7c0,0,7.9,5.7,11,1.4c0,0-1,11.5,9.6,7.9
		c0-0.1-3.2,7.4,2.7,15c-2.1,0.3-13.8-15.2-18.4-17.2C217.2,219.2,235.2,237,235.2,237z M232.8,241.1c0,0-5.6,0.5-16.3-4
		c0.1,0,1.6,3.8-2.6,6.4c-4.2,2.6-8,1.1-8,1.1c3.1,1.4,0.2,9.4-4.5,9.9c6.1-0.9,10.6,2.3,11.6,5c5-8,9.8-4.8,10.4-2.2
		c2-5.7,4.8-9.9,10.2-14.7C183.3,263.1,225.8,242.4,232.8,241.1z M240.6,234.2c5.2-5,9.7-7.4,15.6-8.8c-2.8-0.8-5.1-5.9,3.1-10.1
		c-2.7-1.3-5.4-6.1-3.9-12c-1,4.5-9.2,6.8-10.4,3.5c0,0,1.2,3.9-1.8,7.9c-3,3.9-6.6,2.1-6.6,2c3.6,11,2.5,16.5,2.5,16.5
		C241.1,226.4,265.6,186,240.6,234.2z M242,250.8c-0.8,2.8-3.8,4.5-6.7,3.6c-2.8-0.8-4.5-3.8-3.6-6.7c0.8-2.8,3.8-4.5,6.7-3.6
		C241.2,245,242.9,247.9,242,250.8z M250,245.9c-2.8-0.9-5.8,0.7-6.7,3.6c-0.9,2.8,0.7,5.8,3.6,6.7c2.8,0.9,5.8-0.7,6.7-3.6
		C254.4,249.7,252.8,246.8,250,245.9z M239.3,238.3c-0.9,2.8,0.7,5.8,3.6,6.7c2.8,0.9,5.8-0.7,6.7-3.6
		C251.7,234.6,241.4,231.3,239.3,238.3z"/>
	<path d="M509.5,218.1c-4.6,1.9-16.3,17.5-18.4,17.2c5.9-7.6,2.6-15.1,2.7-15c10.6,3.6,9.6-7.9,9.6-7.9c3.1,4.3,11-1.4,11-1.4
		c-4.8,7.6,1.6,11.7,1.8,11.7c-8.9,4.2-4.3,10.3-4.2,10.3c-10.2-3.2-19.4,4.1-19.4,4.1S510.6,219.2,509.5,218.1z M494.2,242.6
		c5.4,4.8,8.2,9,10.2,14.7c0.6-2.6,5.4-5.8,10.4,2.2c1-2.7,5.4-5.9,11.6-5c-4.6-0.6-7.6-8.6-4.5-9.9c0,0-3.8,1.5-8-1.1
		c-4.2-2.6-2.7-6.4-2.6-6.4c-10.6,4.6-16.3,4-16.3,4C501.9,242.4,544.5,263.1,494.2,242.6z M488.6,233.2c0,0-1.1-5.5,2.5-16.5
		c0,0.1-3.6,1.9-6.6-2c-3-4-1.8-7.9-1.8-7.9c-1.1,3.3-9.3,1-10.4-3.5c1.5,5.9-1.1,10.7-3.9,12c8.2,4.2,5.9,9.3,3.1,10.1
		c5.9,1.4,10.4,3.8,15.6,8.8C462.2,186,486.6,226.4,488.6,233.2z M489.4,244.1c2.9-0.9,5.9,0.8,6.7,3.6c0.9,2.9-0.8,5.9-3.6,6.7
		c-2.9,0.9-5.9-0.8-6.7-3.6C484.9,247.9,486.5,245,489.4,244.1z M474.1,252.6c0.9,2.9,3.9,4.5,6.7,3.6c2.9-0.9,4.5-3.9,3.6-6.7
		c-0.9-2.9-3.9-4.5-6.7-3.6S473.3,249.7,474.1,252.6z M478.1,241.3c0.9,2.9,3.9,4.5,6.7,3.6c2.9-0.9,4.5-3.9,3.6-6.7
		C486.3,231.3,476,234.6,478.1,241.3z"/>
	<g>
		<path d="M193.8,406.5c0,1.5-0.5,2.9-1.5,4c-9-3.4-9.5-18.4-0.7-22.5C194.3,390.7,193.8,390.7,193.8,406.5z"/>
		<path d="M467.2,396.2c-17.2,0-31.3,14-31.3,31.3c0,17.3,14,31.3,31.3,31.3c17.3,0,31.3-14,31.3-31.3
			C498.4,410.2,484.4,396.2,467.2,396.2z M467.2,435.9c-4.7,0-8.4-3.7-8.4-8.4c0-4.7,3.7-8.4,8.4-8.4s8.4,3.7,8.4,8.4
			C475.6,432.2,471.8,435.9,467.2,435.9z M250.1,396.2c-17.2,0-31.3,14-31.3,31.3c0,17.3,14,31.3,31.3,31.3s31.3-14,31.3-31.3
			C281.4,410.1,267.5,396.2,250.1,396.2z M250.1,435.9c-4.7,0-8.4-3.7-8.4-8.4c0-4.7,3.7-8.4,8.4-8.4c4.7,0,8.4,3.7,8.4,8.4
			C258.6,432.2,254.9,435.9,250.1,435.9z"/>
		<path d="M542.6,352.3c-2.6,0,2.3,0.1-50.2-0.5v-0.1c-0.6,0-97-0.6-102-1.3c-3.6-0.4-5.3-3.3-5.3-6v-35.7c0-8.7-7.1-15.9-15.9-15.9
			h-35.2c-10.7,0-20.3,6.2-24.5,16l-12.8,28.8c-0.9,2-2.8,3.4-5,3.6c-69,7.1-69.6,6.9-77.1,8.7c-23.9,5.6-13,19-22.7,24.7
			c-3.5,2-4.1,6.9-1.3,9.7c7,7,5.8,3.4,5.8,22.2c0,3.5-2.5,5-4,6c-6,4.4-1.3,18.7,10.6,18.7h12.3c-2.3-21.2,14.2-39,34.9-39
			c22,0,37.7,19.8,34.9,39h147.1c-2.3-21.2,14.2-39,34.9-39s37.2,17.9,34.9,39h30c5.9,0,4.8-6,10.7-6c3.4,0,6.1-2.8,6.1-6.1v-60.8
			C548.7,355.1,546,352.4,542.6,352.3z M301.8,424.4l-3.7-21c-3.2-18.1-18.9-31.2-37.2-31.2h-49.3c-2.9,0-2.9-4.4,0-4.4H261
			c20.4,0,37.8,14.5,41.5,34.8l3.7,21C306.6,426.4,302.3,427.1,301.8,424.4z M307.8,337l7-17.6c2.9-7.4,10.1-12.3,18.1-12.3h24.8
			c6,0,11,5,11,11v20.3c0,4.6-3.7,8.3-8.3,8.3h-46C309.4,346.8,306,341.7,307.8,337z M373.9,368.7h-20.4c-3.4,0-3.4-5.2,0-5.2h20.4
			C377.2,363.5,377.2,368.7,373.9,368.7z M538.8,417.6l-0.8-10.2c-1.5-18.5-16.6-32.9-35.1-33.4l-43.6-1.1
			c-18.6-0.4-34.4,13.1-36.7,31.6l-2.2,16.7c-0.3,2.8-4.7,2.3-4.4-0.5l2.2-16.6c2.6-20.7,20.3-35.9,41.1-35.3l43.6,1
			c20.8,0.4,37.7,16.6,39.4,37.3l0.8,10.2C543.3,420.2,539,420.5,538.8,417.6z"/>
		<path d="M511.3,347.2l-51.8-0.4c-1.6-2.6-2.8-4.1-2.8-4.1c-1,1.5-2,2.8-2.9,4l-20.9-0.2c-4-19.9-12.6-25.3-12.6-25.3
			c-7.5,10.5-15.3,12-16,11.7c-2.3-29.2-19.6-41.3-20.5-42.9c1.8-0.7,22.3,1.8,43.5-19.2c0.7,0.2,5.8,6.6,4.5,19.3
			c0,0,14.3,1.9,36.2-20.2c0.1-0.2,8.1,1.2,5.4,27.6c-0.1,0.3,26.4-5.4,41.7-26.9c0.2,0,4,7.8,4.2,8.3
			C525.5,297.2,521.5,324.2,511.3,347.2z"/>
	</g>
</g>
</svg>
