<?xml version="1.0" encoding="utf-8"?>
<!-- Generator: Adobe Illustrator 21.0.2, SVG Export Plug-In . SVG Version: 6.00 Build 0)  -->
<svg version="1.1" id="Layer_1" xmlns="http://www.w3.org/2000/svg" xmlns:xlink="http://www.w3.org/1999/xlink" x="0px" y="0px"
	 viewBox="0 0 731 516.6" style="enable-background:new 0 0 731 516.6;" xml:space="preserve">
<path d="M223.7,330.3c0,1.8-4.4,1.3-4.4-0.5c0-5.2-5.8-12.4-11.1-0.5c-7.4,16.5-5.2,57,2,58.1c2,0.2,4-0.2,5.7-1.6
	c5.4-4.6,1.2-13.9,5.8-13.5c1.3,0.1,2.6,1.2,2.6,2.5c1,21.2-15.4,22.9-24.5,13.9c-7.4-7.3-11.4-21.3-11.4-32.8
	c0-34.1,25.5-46.3,33.9-32.2C223.4,325.3,223.8,327.5,223.7,330.3z M263.8,353.4c-0.4,19.1,0.8,35.6,0.8,37.2
	c-0.6,3.9-7.7,3.3-7.9,1c-0.9-12.6-0.5-36-0.5-37.6c-3.7,0.8-11.6,1.3-15.1,1.5c-0.3,0.3,0.3,32.9,0.3,33.4
	c-1.9,6.2-12.6,5.8-13.2,0.6c0-73.8-0.4-68.2,1-69.9c3.1-3.6,12.7-5.5,12.7,1l-0.7,27.9c5.7-0.2,10-0.5,15.1-1.4
	c0.2-5.1,0.9-15.7,1.3-26.7c0-3.8,7.8-5,7.6-0.7c-0.2,3.8-1.3,26.2-1.3,26.6C270,345.2,268.8,353.6,263.8,353.4z M303.5,317.9
	c1,1,1.4,2.1,1.1,3.1c-0.5,2-1.5,3-17.1,3c0,1.6,0.1,14.1,0.2,16.6c4.5,0.2,7.7,0.3,12.2-0.5c1.6,0.4,3.3,5,1.2,6.2
	c-2,1.1-9.9,1.4-13.3,0.6c-0.4,5.4-2.3,36.3-2.3,38.9c6.3,1.8,14-0.5,17.6-0.3c0.6,1.4,1,3.1,0.5,4.6c-0.7,2.6-1.2,4.4-20.1,3.3
	c-7.6-0.5-8.6-0.5-9.8-4.1c-4.7-13.6,0.1-60.4-0.2-70.3C273.6,318.3,302.7,317.9,303.5,317.9z M343.6,330.3c0,1-1.3,1.2-2.2,1.1
	c-3.2-0.5-1.5-1.9-2.9-4.9c-1.4-3.1-4.2-5-6.6-2.6c-10.5,8.6-10,50-4.6,60.9c1.3,2.6,2.6,3.1,5.5,2.5c3-0.6,6.1-3.7,6.1-11.1
	c0-6,5.2-3.9,5.2-1.4c1.1,23.1-19.3,24.5-28.8,8.3c-16.6-28.4-1.7-65.5,16.7-65.1c4.2,0.1,7.8,1.9,10.1,5.6
	C343.3,325.3,343.8,327.5,343.6,330.3z M363,347.1c1.6-1.1,19.7-27.4,21.3-28.5c2.9-2.5,6.3,0.4,4.4,4.1
	c-3.7,4.3-18.7,24.7-20.1,26.7c6.4,10.1,13.8,25,19.2,35.7c2.6,5,3,4.6,2,5.5c-1.5,1.4-4.8,2.3-5.9,0.4
	c-4.3-5.3-16.5-27.9-20.3-33.4c-0.5,5.6,0.5,28.6-0.4,31.1c-3.1,8.5-15.8,5.6-15.8,1.3c0.5-20.3,0.6-66.9-0.4-69.8
	c-0.5-1.8,2.9-3.2,6.1-3.6C363.7,315.4,363.2,322.9,363,347.1z M394.2,370.4c-0.7,7.3,5.9,27,15.7,14c4.3-5.8,2.8-13.6-0.2-19.9
	c-3.3-6.9-9.5-9.1-16.2-21.8c-9-16.8,3-25.7,12.9-24.7c7.9,0.8,14.5,7.8,15.6,13.9c-1.5,2.2-3.8,1.9-4.6,0.5
	c-9.2-16.2-18.8-6.9-11.8,4.7c5.3,8.8,10.7,11.5,14.9,20c7.2,14.4,3.2,27.8-5.2,33.7c-14.2,10-29-6.3-27-20.6
	C388.3,367.2,394.2,366.5,394.2,370.4z M333,189.6l-0.1-16.4c0,0-5.7,0.9-8.8,1.5c-1.8-0.4-4.4-6-1.4-6.4c2.1-1.1,11.6-3,15.2,0.3
	c1.6,1.4,1,3.2,1,11.1c0,0.5,0,14.4-0.5,14.6c-49.9,22.2-44.3-73-11.3-67.5c6.3,1.1,11,13.2,7.7,24.6c-0.8,0.6-4.6-0.5-4.4-1.7
	c0.4-1.8,0.6-3.9,0.6-6.1c0-25.7-15.3-8.1-15.9,17.9C315,175.4,319.2,190.1,333,189.6z M379.3,172.2c-5.1-0.8-12.9-0.4-13.5,1.9
	c-1.8,7.2-3,12.9-3.6,17c-0.7,4.1-1.1,6.4-1.4,6.9c-0.6,3.6-13,3.4-12.1-0.6c5.6-29.5,5.4-27.3,4.9-28.3c-1.2-1.4-1.1-2.8,0.3-4.1
	c2-2.5-0.5,1.7,7.3-26.7c0.8-2.8,2.5-8.7,3.5-11.4c3.8-4.4,12.7-2.8,13.5,1.2l14.8,68.1c0.6,2.9-3.7,4.1-5.8,2.5
	C384.5,196.6,384.7,188.1,379.3,172.2z M367.9,166.1c3.8,0.9,5.5-0.2,9.5,0.1c-0.2-0.9-4.7-20-4.9-20.8
	C370.3,155,369.8,157.6,367.9,166.1z M446.8,139.3c-1.3,6.2-11.1,43.2-12.1,44.7c-0.4,0.5-0.8,0.9-1.4,1.1
	c-7.5,2.6-13.3-31.1-17.6-39.1c2,15.1,4.6,44.9,3.6,47.9c-3.5,3.1-14.6,5.7-15.1-2.2l-3.1-57.4c3-8.9,16.5-5.1,16.5-1.4
	c9.9,25.4,13.1,36.9,13.1,36.9c13.7-43.1,12.5-40.7,14.4-42c4.9-3.3,14.1-1.4,14.4,3.4c3.2,67,3,65.3,1.4,66.7
	c-2.1,2-8.3,3.8-11.3,0.5C446.6,195.2,448.4,157.1,446.8,139.3z M497.3,125.6c0.9,1,1.3,2,1,3c-0.5,1.9-1.2,2.8-16.4,2.8
	c0,1.6,0.1,13.5,0.2,16c4.3,0.2,7.4,0.3,11.7-0.5c1,0.3,2.3,2.6,2.1,4.6c-0.2,1.5-1.6,1.8-3.1,2c-2.8,0.5-7.9,0.5-10.5,0
	c-0.2,2.7-2.2,33.6-2.2,37.3c6.1,1.8,13.4-0.5,16.9-0.3c1.3,3,0.5,5.7-0.7,6.7c-3.3,2.2-21.5,0.9-24.9,0.2c-8.6-2-2.4-60.9-2.8-70.7
	c0-0.7,13.1-0.8,13.9-0.8C486.2,125.9,491.2,125.8,497.3,125.6z M507.8,176c-0.5,5.1,2.6,15.7,7.7,17.4c2.9,1,10.8-4,9.9-13.5
	c-0.4-5-2.5-10-4.9-13.5c-1.4-1.3-3-2.9-4.6-4.8c-17.9-19.8-12.7-32-2.5-35.3c10.8-3.5,19.8,5.8,21.1,12.6c-1.4,2.2-3.6,1.8-4.4,0.5
	c-7.6-13.3-15.8-9-13,0.7c3.3,11.2,22.9,20.9,19.2,41.8c-3.6,19.8-26.9,23-33.3,2.3c-0.8-2.5-1.8-8.8,0.1-10.3
	C504.6,172.8,507.8,173.2,507.8,176z M246.7,200c-13.5-2.3-37.6-10.2-62.5,1.6c-1.5,0.7-3.3,1.7-5,1.4c-1.8,0-2.3-4.8,2.1-7.1
	c33.8-16.9,54.8-1.7,104.9,4.6c1.2,0.1,3.4,0.3,3.4,1.9c0,3.1-5.3,2-6.9,1.8C265.1,202.5,255.7,201.6,246.7,200z M242.5,176.7
	c1.6-10.7,6-19.6,2.9-19.2c-1.1,0.1-2.4,1.7-3.2,2.4c-4.9,4.1-7.1,7.7-10.3,12.4c-1.3,1.9-2.5,4.8-4.3,6.4c-2,1.7-4.5,0.9-5-1.8
	c-0.8-4.7,9.2-24.2,6.7-27.1c-2.9-3.3-20.5,35.1-29.3,29c-3.7-2.6-0.7-11.1-4.4-7.6c-2.1,2-4.4,6-7.3,6.9c-2.7,0.9-7.7,1.4-9.2-1.8
	c-5.1-10.7,14.2-32.2,24.4-28.3c1.8,0.7,3.7,1.6,4.5,3.4c4.1,9.4-5.4,13.3-5.4,20.6c0,0.2,0.2,0.4,0.2,0.8
	c3.4,4.5,10.5-9.9,23.4-26.8c2.2-2.9,9.1-3.7,9.2,1.4c0,2.7-0.2,5.5-0.7,8.1c-0.2,1.1-2.5,6.2-1.7,7h0.2c0.8-0.8,2.3-2.5,3-3.6
	c0.6-1,6.9-6.1,7.9-6.8c9.8-6.9,13.1,2.4,7.5,17.1c-5.7,14.9-5,17.4-7.2,18C240.2,188.5,241.8,181.9,242.5,176.7z M195.6,165.1
	c1.1-1.5,7.5-10.2,4.5-10.7c-1.9-0.3-5.6,2.5-7,3.6c-7.4,5.9-11.3,16.3-6.4,15.8C190.2,173.4,193.6,167.9,195.6,165.1z M216,124.8
	c19.6-0.3,29,5.4,39.9,2.6c1.7-0.4,4.6-1.5,5.1,1.2c2.3,12.5-55.3-6.1-65.3,6.5c-1.1,1.4-1.8,3.3-3.9,1.5
	C189.3,134.5,191.5,125.1,216,124.8z M276.2,189.4c-1.4-1.8-0.8-4.6-0.7-6.7c0.3-4.6,0.8-9.4,4.7-21.4c0.1-0.4,2.2-4.3,0.2-3.7
	c-0.6,0.2-4.9,8.2-5.2,8.8c-1.9,3.6-4.3,6.7-6.7,9.9c-4.2,5.6-13.8,7.1-14.4,0.2c-0.9-12.1,11.5-28.3,20.9-23c1,0.5,1.6,1.6,2.6,1
	c0.7-0.4,1.1-1.9,1.6-2.6c10.3-16.6,12.2-20.5,13.4-24.6c1.2-4.4,9.8-7,5.4,7.1c-0.5,1.6-14.2,36.2-15.6,47.8
	c-0.3,2.2,0.1,4.6-1,6.6C280.4,190.3,277.8,191.3,276.2,189.4z M269.8,167.2c1.4-2.1,5.8-7.2,2.1-9c-1.4-0.7-2.4,0-3.4,0.9
	c-4.9,4.3-5.7,8.2-7.3,11.6C259.7,173.8,260.8,181,269.8,167.2z M216.8,477.4c0.2,3.4,0.5,7.6-0.8,9.6c-1.9,2.8-6.5,0.6-5-2.6
	c0-13.9-0.5-25.5-0.3-37.6c-0.2-0.2-0.4-0.4-0.5-0.6c-3-5-8.7-11.2-13.7-17.6c-0.3,18.7-0.2,7.2-0.6,56.4c0,3.6-5.7,3.6-5.7,0
	c0-1,0.5-64.1,0.7-65.1c-0.4-3.3,4-4.1,5.3-1.7c3.5,6,9.8,12.9,14.7,19.2c0.4-10.8,0-16.9,0-18.5c0-3.3,5.4-3.8,5.7-0.1
	C217.2,429.2,216.2,468.5,216.8,477.4z M251.6,471.6l-1.5,0.2c0.7,7,4.8,15.3,0.2,16.4c-4,0.7-3.7-4.2-4.5-8
	c-0.8-3.5-1.2-5.7-1.5-8.3l-13.6,0.3c-2,9.2-1.4,17.1-5.7,16c-1.6-0.2-2.5-1.4-2.5-2.6c0-0.2,1.2-6,1.2-6.2l0,0
	c0.3-2.3,0.7-4.8,1.1-7.2c-5,0-4-5.5-0.7-5.5l1.6-0.1c1.7-15,3.7-19.5,5-27.7c4.4-21.8,3.1-21.8,5.5-22.6c7.3-4.4,6.5,18.2,9.6,30.1
	c0.4,0.6,3.3,19,3.4,19.8l1.9-0.2C254.8,466.1,255,471,251.6,471.6z M231.5,466.7l11.9-0.2c-2.1-13.5-3.2-19.1-3.2-19.1l0,0
	c-1.2-5-1.7-9.9-2.4-14.8c-0.4,2.1-1,5-1.4,7.4c-1.1,6.3-2.6,10.6-3.4,16.5C233,456.4,232.6,457.6,231.5,466.7z M284.2,432.6
	c-0.3-2.2,0-4.6-0.5-7.6c-0.3-1.8-0.7-3.5-0.7-5c0-4.5-6.3-4-5.9,0c-0.2,0.4,0,1,0.3,2c1.5,16.4,0.7,12.3,2,20.3
	c1.6,9.8,0.6,14.1,0.6,18.5c0,0.5,0.2,3,0.2,3.1c0,2.4-0.5,4.9-0.6,7.9c0,8.3-12.1,13.8-14.8,5.8c-3.4-8.8-0.2-25.9-0.2-32.7
	c0-9,2.3-17.1,1.7-25.7c-0.3-3.3-5.8-3.4-5.7,0.5c0.6,7-1.7,15.7-1.7,25.2c0,6.7-1.3,11.2-1.3,18.6c0,2.7,0.3,5.4,0.3,7.5
	c0,24.4,27.5,17.4,27.5,0.8c0-1,0.1-2.1,0.3-3.2c0.7-7.1-0.1-4.7,0.3-10.9C286.6,444.6,284.3,440.4,284.2,432.6z M310.1,459.9
	c-1.1-0.1-2.9-0.1-3.9,0.4c-2.3-0.8-4,0.9-4,2.5c0,2.2,3.2,4.7,7.7,2.6c0.7,0,2.8-0.2,4.3-0.4c-0.2,2.5-0.5,1.9-0.8,7
	c-0.1,1-0.3,0.9-0.3,2.6c0,3.3-2.5,7.6-4,7.6c-14.7,0-12.5-60-1.3-60c1.8,0,3.6,1.4,3.8,2.9c0.2,1.3,1.4,2.4,3.2,2.4
	c5.2-0.7,2-10.8-7.7-10.8c-9,0.5-10.4,9.3-11.7,14.2c-4.3,14.4-5.1,56.7,13.6,56.7c10.5,0,9.6-15.8,10.6-19.7
	c0.1-0.7,0.6-4.9,0.2-5.5C318.7,458.6,313.8,458.8,310.1,459.9z M355.9,463.8l-1.8,0.1c-1.2-44.8,1.3-49-4.3-48.9
	c-1.4,0.2-2.5,1.3-2.4,3.2c1,5.8,0.5,26.2,1,45.9l-13.6,0.4c0-45.3,2.6-47.2-2-47.5c-1.7,0-2.8,1.2-3,2.6
	c-0.2,3.8-0.8,43.5-0.8,45.1h-1.1c-3.5,0.2-4.2,5.7,1.2,5.4c0.1,12.8-0.5,14.9-0.5,14.9c0,1.3,1.1,2.7,2.9,2.7
	c4.1,0,3.5-6.1,3.4-17.8l13.6-0.4c0.1,4.8,0.3,10.6,0.4,15.6c0,3.4,5.7,3.7,5.7-0.2c-0.1-4.7-0.2-10.1-0.4-15.6
	c1.6,0,4.7,0.2,4.7-2.9C358.8,464.9,357.5,463.8,355.9,463.8z M386.8,416.8l-23.4,0.9c-3.8,0.3-3.4,5.5,0.1,5.5l8.1-0.3
	c0.3,6,0.4,23.3,0.4,23.3c-0.2,36.4-0.1,28.7-0.4,37.5c0,3.6,5.5,3.8,5.7,0.2c0.5-12.5,0.6-51.6,0-61.3l9.6-0.4
	c1.5-0.1,2.8-1.2,2.7-2.9C389.5,417.9,388.3,416.8,386.8,416.8z M417.1,419.3c-2.6,4.9-5.5,9.9-9,15.3c-7.3-11-9.3-15.8-12.1-15.8
	c-2.4,0-3.7,2.6-2.3,4.4c4.2,5.2,7.6,11.5,11.6,17.2c0,0.3,0.3,43.6,0.3,43.9c0,3.6,5.8,3.4,5.8-0.1l-0.3-42.4
	c0.3-0.5,0.5-1.1,0.4-1.6c5.2-8.6,7.2-11.5,10.9-18.5C424,418.5,418.8,416,417.1,419.3z M466,481.7l-11.6,0.2
	c-1.7-55.7,3.4-65.2-2.6-65.2c-1.6,0-2.9,1.3-2.9,2.7c0,21.7-1.2,29.4-0.5,55.2c0.1,2.9,0.2,6,0.2,8.9c-1,1.7,0.4,4,2.6,4
	c0.3,0,14.6-0.3,14.9-0.3c1.5,0,2.8-1.2,2.8-2.8C468.8,482.9,467.5,481.7,466,481.7z M486.3,480.9l-2.2,0.1
	c-1.3-30.3-1.2-24.2-1.2-58.6c1.7-0.1,5.4,0.2,5.4-2.8c0-1.6-1.4-2.8-2.8-2.8l-9.6,0.5c-3.9,0.3-3.3,5.5,0.1,5.5h1.2
	c0,35.4,0,29.8,1.2,58.6h-1.3c-3.8,0.3-3.4,5.5,0.1,5.5l2.9-0.1c0.8,0.4,2.1,0.5,3-0.2l3.4-0.1C490.2,486.1,489.8,480.9,486.3,480.9
	z M499.2,432c0-3.2,2-9.5,5.5-9.5c0.6,0,1.5,0.7,2.4,1.5c1.1,0.9,2.8,2.4,4.2,2.4c1.6,0,2.9-1.1,2.9-2.7c0-1.4-0.8-1.8-1.6-2.7
	c-4.3-4.4-6.7-4-8.5-4l0,0c-7.9,0.2-10.5,10.1-10.5,14.9h0.1c-0.3,19.2,18.2,27.1,18.2,44.5c0,2.3-3.7,4.8-7,4.8
	c-1.7,0-3.3-1.4-3.3-2c0-7-7.9-4.2-5.7-0.3c0,5.3,5.6,7.7,9.1,7.7c5.3,0,12.8-3.6,12.8-10.2C517.4,457.7,499.2,447.7,499.2,432z
	 M544.5,416.8l-23.4,0.9c-3.8,0.3-3.4,5.5,0.1,5.5l8.1-0.3c0.6,10.2,0.3,47.7,0,60.8c0,3.6,5.5,3.8,5.8,0.2
	c0.4-10.5,0.7-50.9,0-61.3l9.6-0.4c1.5-0.1,2.7-1.3,2.7-2.7C547.3,418,546,416.8,544.5,416.8z M305.3,271.5
	c-0.6,6.7,4.7,21.5,11.2,17.7c8.8-4.8,8.7-14.5,4.4-23.6c-3-6.3-28.7-27.6-16.2-41.8c12.4-11.5,26.7,0,28.4,9.1
	c-1.5,2.2-3.8,1.9-4.6,0.5c-5.9-10.4-12.1-10.3-13.8-5.6c-2.3,6.5,5.1,15.2,9.8,20.4c23.8,25.1,3.3,54-13.6,45.2
	c-8.1-4.2-12.7-13.9-11.5-22.3C299.3,268.3,305.3,267.6,305.3,271.5z M374.4,267.6c-5.2-0.8-13.4-0.5-14.1,2
	c-5.3,22-3.9,25-6.4,26.5c-2.6,1.6-8.5,1.6-10.9-0.4c-1.3-1.1-0.8-0.5,4.8-30.3c0.1-0.2,0-0.5-0.2-0.9c-2.5-2.9,1-4.3,1.3-5.9
	c0.3-1.8,7.4-30.6,10.3-38c3.9-4.5,13.2-2.9,14.1,1.2c16.3,75.2,16,71.6,15,72.9c-0.9,1.1-2.4,1.5-3.8,1.4
	C379.5,295.5,381.1,287.5,374.4,267.6z M362.5,261.2c4,0.9,5.8-0.2,9.9,0.1c-0.2-1-4.9-20.8-5.1-21.6
	C365.1,249.7,364.5,252.5,362.5,261.2z M442,267.7c-0.7,25.7,0.2,23.5-4.1,24.6c-1.9,0.5-4.1,0.7-6,0.1c-1.6-0.5-1,2.5-20-50.1
	c-0.5,5.3-1.5,47.3-1.8,48.1c-1.7,6.2-11.1,5.5-11.7,0.9c-0.6-5.7-1.1-66.4-0.9-65.2c0-1.7,2.9-3.7,4.4-4.4
	c11.5-5.6,10.2,9.7,28.6,55.7c-0.4-1.7-2-43.8-1.2-52.1c0.2-2.5,9.7-6.7,13.2-3.6C443.8,222.9,443.3,219.7,442,267.7z M473.5,292
	c-3.6,3.4-11.4,3.6-11.4-0.4c0.4-17.9,1.1-46.9,0.6-65c-8.5,0.9-13.3,3.1-13.3-3.2c0-4.6,2.1-4.5,5.7-4.9c4.7-0.6,10.5-0.9,15.2-1.1
	c17.8-0.6,18.4,0.6,18.8,3.1c0.8,5.4-8.6,4.1-13,5.3l-0.2,0.2C475.2,293.3,475.1,290.5,473.5,292z M520,267.6
	c-5.2-0.8-13.4-0.5-14.1,2c-1.8,7.5-3.1,13.4-3.8,17.7c-0.7,4.3-1.1,6.7-1.4,7.2c-0.6,3.8-13.6,3.6-12.7-0.6
	c5.8-30.8,5.6-28.5,5.2-29.5c-2.5-2.9,1-4.3,1.3-5.9c0.4-2.3,7.5-30.9,10.3-38c3.9-4.5,13.2-2.9,14.1,1.2l15.4,70.9
	c0.5,2.3-2,3.6-4.1,3.3C525.1,295.5,526.7,287.5,520,267.6z M508.1,261.2c4,0.9,5.8-0.2,9.9,0.1c-0.2-0.7-4.9-21.1-5.1-21.6
	C510.7,249.6,510.1,252.4,508.1,261.2z M196.9,34.6h-2.1c0.3,11.3,0.7,50-0.2,61.3c5-0.2,4.8,5.5,0.9,5.8l-2.5,0.1
	c-1.1,0.8-2.6,0.8-3.5,0.2c-1.7,0-5.3,0.6-5.6-2.7c0-3,2.7-3,4.4-3.1c1-8.5,0.6-49.8,0.3-61.5H187c-4.1,0-4.1-5.8,0-5.8h9.9
	C201,28.8,201,34.6,196.9,34.6z M231.9,28.9l-25.2,1c-4.1,0.3-3.7,5.8,0.1,5.8l8.7-0.3c0.4,6.1,0.4,24.7,0.4,24.7
	c-0.2,38.8-0.1,30.3-0.5,39.7c0,3.8,5.9,4,6.2,0.2c0.5-13.1,0.7-54.6,0.1-64.9l10.4-0.4C236.1,34.4,235.6,28.9,231.9,28.9z
	 M250.2,30.7c0-0.5-0.2-0.8-0.3-1c-1.6-3.1-2-4.9-4.5-4.9s-3.7,2.3-2.7,4.2l1.6,3c0.2,0.8,0.7,2.7,0.7,3.4c-0.2,3.7,0.3,5.2-1.5,6.6
	c-1.4,1.1-1.5,2.9-0.4,4.2c3.5,3.9,10.6-3.5,7.4-14.4C250.4,31.3,250.2,30.9,250.2,30.7z M264.6,45.1c0-3.5,2.2-10,5.9-10
	c0.6,0,1.6,0.8,2.6,1.6c1.2,1,3,2.5,4.5,2.5c3.1,0,4.2-3.7,1.7-5.3c-1.7-1.3-4.1-4.7-8.8-4.7c-0.3,0-0.7,0.1-0.8,0.1l0,0
	c-8.5,0.2-11.3,10.7-11.3,15.8h0.1c-0.5,20.3,19.6,28.4,19.6,47.2c0,2.4-4,5-7.6,5c-1.8,0-3.6-1.5-3.6-2.1c0-7.5-8.4-4.4-6.2-0.3
	c0,5.6,6.1,8.1,9.8,8.1c5.8,0,13.7-3.8,13.7-10.8c0-5-1.5-9.2-3-13.1C275.9,65.5,264.6,58.7,264.6,45.1z M345.5,88.1
	c-0.8-0.1-1.7-0.2-2.6-0.2c0.3,2.7,0,0.3,1.8,10.6c1.8,3.2-3.8,5.9-5.5,2.5c-0.9-1.7-2.3-11.3-2.6-13c-5.5,0.2-10.7,0.8-16.6,0.8
	c0,0.3-1.7,10.6-1.8,10.9c-0.4,1.7-0.8,3.6-3.3,3.6c-2.1-0.3-3-1.6-3-3.3c0-1.2,0-2.6,0.6-3.8c10.3-53.4,0.3-4.2,11.9-54.1
	c2-11.4,1.7-12,2.9-13c1.3-2.6,5.4-1.9,5.8,0.9c2.1,16,7,39.1,8.8,51.9c1.4,0,2.8,0.1,4.2,0.2C349.8,82.6,349.7,88.1,345.5,88.1z
	 M329.6,47.2c-0.4,1.7-6.5,25-8.4,35.5c4.6-0.1,9.6-0.6,14.6-0.9C335.8,81.9,329.6,47.2,329.6,47.2z M375.4,97.6l-12.5,0.2
	c-1.2-38.6,0.3-37.3,0.3-66.2c0-3.9-6.2-3.8-6.2,0c0,33.4-0.7,5.1-0.7,48.3c0,6.6,0.4,13.2,0.4,19.5c-1.1,1.8,0.5,4.2,2.8,4.2
	c0.3,0,15.8-0.3,16.1-0.3C379.3,103.4,379.6,97.6,375.4,97.6z M402.3,97.6l-12.5,0.2c-1.9-60.4,3.7-69.1-2.8-69.1
	c-1.7,0-3.1,1.3-3.1,2.9v15.5c-1.5,16.2-0.4,47.3-0.4,52.4c-1,1.7,0.3,4.2,3,4.2l15.9-0.3C406.2,103.4,406.5,97.6,402.3,97.6z
	 M438.1,29.8c-2-1.5-5-0.2-5,2.3c0.2,42.6,0.3,26.9-0.2,68.6c0,3.8,6.2,3.8,6.2,0c0.4-38.4,0.4-32.9,0.4-37.1l6.7-1.4
	c5-0.6,8.7-0.3,8.7-3.6c-0.1-1.8-1.5-2.9-3.1-2.9c-0.3,0-6.2,0.6-6.5,0.8l-5.8,1.2l-0.2-22.3c22.3-0.9,9.7-0.4,16-0.4
	c1.7,0,3.1-1.4,3.1-2.9C458.4,28,452.9,29.2,438.1,29.8z M494.5,45.7c-0.3-2.3,0-4.9-0.5-8.1c-0.3-1.8-0.7-3.6-0.7-5.3
	c0-0.5-0.2-1-0.3-1.5c-1.3-3.3-6.4-2.1-6,1.4c-0.2,0.4,0,1.1,0.4,2.1c0,0.4,0.2,2.2,0.5,4.2c0.4,2.2,0.2,4.8,0.5,7.8
	c0.1,8.7,2.7,11.5,1.9,25.4c-0.1,1.4-0.2,3.3-0.1,4.7c0.4,5-0.4,6-0.5,10.7c0,9.7-17.3,17.5-17.3-0.8c0-2.8-0.4-5.5-0.4-7.9
	c0-7.2,1.4-12.1,1.4-19.7c0-9.4,2.5-18.1,1.8-27.2c-0.3-3.6-6.2-3.4-6.2,0.2c0,2.1,0.5,3.5-0.8,14.1c-1.8,14.8-0.2,10-1.7,22.2
	c-1.4,11.9-0.4,13.8-0.4,18.3c0,26.1,29.6,18.2,29.6,0.9c0.1-2.8,0.8-6.4,0.6-9.3c-0.5-6.9,1.2-10.4-0.9-23.5
	C494.6,48.8,494.6,48,494.5,45.7z M532.7,45.3c0-4.8,0-9.4-0.2-14.2c-0.3-3.7-6.2-3.6-6.2,0.3c0.2,5.7,0.2,12,0,19.4
	c-5.3-6.7-12.1-14-15.9-20.4c-1.4-2.6-6.1-1.7-5.7,1.8c-0.3,1.1-0.8,67.8-0.8,68.9c0,3.8,6.2,3.8,6.2,0c0.4-52.1,0.3-40,0.6-59.8
	c5.3,6.8,11.5,13.4,14.8,18.7c0.2,0.2,0.3,0.4,0.6,0.6c-0.2,6.8,0,35,0.3,39.9c-1.1,2.3,0.9,4.2,2.7,4.2
	C535.7,104.7,530.6,93.8,532.7,45.3z M183.1,239.2c-1.1-1.2-0.9-3,0.4-4c1.7-1.3,1.2-2.7,1.4-6.2c0-0.7-0.5-2.4-0.6-3.2
	c-0.4-0.8-1.8-3.1-1.8-4c0-3.2,4.4-3.6,5.6-1.2c0.3,0.6,1.9,3.4,1.9,4C193.1,237.9,185.9,242.3,183.1,239.2z M227.5,222.3
	c-1.6-0.3-0.1-0.2-28.8,0.6c-3.6,0-3.9,5.5,0.2,5.5l9.6-0.3c0,2.2-0.9,61.2,0.4,63c1.5,2.8,4.7,2,5.5,0.1l0.1,0.1v-0.2
	c0.2-0.6,0.2-1.2,0-1.7c-0.3-14.4-0.5-54.9-0.1-61.3c15.6-0.5,13.6-0.2,14.6-0.7C230.6,226.3,230.1,222.3,227.5,222.3z M247.7,287.1
	l-2.2,0.1c-1.3-29.6-1.2-23.4-1.2-58.6c1.9-0.1,5.5,0.2,5.5-3c-0.1-1.4-1.4-2.6-2.8-2.6l-9.8,0.5c-3.9,0.3-3.4,5.5,0.1,5.5h1.3
	c0,36.8,0.1,32.1,1.2,58.6l-1.4,0.1c-3.8,0.3-3.5,5.5,0.1,5.5l3-0.1c0.8,0.4,2.1,0.5,3-0.2l3.4-0.1
	C251.6,292.3,251.2,287.1,247.7,287.1z M275.5,287.9l-11.8,0.2c-1.2-37.5,0.3-33.6,0.3-62.5c0-3.7-5.8-3.6-5.8,0
	c0,27.8-0.7,8.8-0.7,45.6c0,6.3,0.3,12.4,0.3,18.4c-1,1.7,0.4,4,2.7,4c0.3,0,14.9-0.3,15.2-0.3C279.3,293.3,279.5,287.9,275.5,287.9
	z M545.6,392.5c1.5,6.5-16.8,5.9-19.7,6c-26.5,1-59.5-13.1-81-5.7c-2.5,0.9-12.2,8.6-13.6,3.1c-0.4-1.6,0.3-3.3,1.1-4.6
	c5.7-8,21.5-8.2,30.8-8.4c20.8-0.3,46.3,14.8,78.4,8.1C543.8,390.4,545.2,391.2,545.6,392.5z M542.9,354c-8.3,9.7-23,17.8-18.1,27.8
	c0.6,1.2,1.1,1.8,0.2,2.7c-1.7,2.9-8.8,3.3-8.6-6c0-0.3,0-0.6-0.1-0.9c-5.4,0.3-16.6,9.2-20.7,1.2c-5.2-8.5,2.5-22.9-3-19.5
	c-2.6,1.5-5,5.4-6.8,8c-1.6,2.3-2.4,5.3-4.1,7.4c-4.1,4.6-7.4-3.6-7.7-7c-0.7-8.8,2.4-17.4,5.5-25.2c1.1-2.9,1.8-4.5,1.8-5.4
	l0.1-0.1c-0.2-0.3-2.4-0.5-3.3-0.1c-5.3,1.7-11.9-0.5-14.4,1.8c-2.2,2-2.7,6.2-3.7,9c-3.3,8.8-4.4,18.5-4.4,28
	c0,1.9-1.5,2.8-2.8,3.3c-4.1,1.5-5.2-8-5.6-9.8c-2.1-12.2,4.2-26,4.5-28.8c-2.6,0.2-8.3,0.5-9.6,3.8c-0.7,1.8,3.2,2,0.7,4.4
	c-1.1,1-4.2,0.8-5.7,0c-2.6-1.3-3.2-5-1.6-7.4c2.2-3.4,5.5-3.8,8.6-5.1c3.3-1.5,6.9-3.4,10.6-3.4c2.1,0,3.7-4.9,4.7-6.4
	c3.5-5.8,7.9-11.9,13.7-15c1.7-0.8,2.5-0.9,3.4,0.3c2.4,2.9-1.5,6.1-3,8.3c-2.4,3.5-3.8,7.4-5.9,11c2.5,0.5,5.4,0.1,7.9,0.2
	c9,0.1,9,0.1,10.5-2.9c7.8-15.6,25.7-27.7,31.9-18.8c7.3,10.6-12.9,26.5-26.5,26.6c-1.7,0-6.1,13.6-6.4,14.4
	c-2.5,6.9-4.3,13.5-4.3,20.9c0,0,0.1,0,0.1,0.1c1.2-1,1.6-3.8,2.2-5c2.4-4.9,12.4-19.8,18.5-14.2c6.9,6.4-3.8,25.9,5.8,23.8
	c3.5-0.7,6.3-3.1,9.5-4.7c0.4-0.2,0.7-0.6,0.8-1.1c3.3-13.1,7.1-27.1,19.7-32.6C544.4,334.4,553.8,341.5,542.9,354z M531.1,358.9
	c2.4-2.3,4.8-5,6.8-7.7c1.1-1.4,2.7-3.3,1.7-5.2c-0.6-1.2-2-0.7-3-0.3c-5.3,2.6-10.7,14.8-13.1,20.1 M499.1,328.4
	c9.1-2.2,14.6-10.1,14-15.2c-0.8-0.3-1.1-0.9-1.9-0.6c-6.3,1.6-11.9,7.1-17,16.4C496,329.4,497.4,328.8,499.1,328.4z"/>
</svg>
