<?xml version="1.0" encoding="utf-8"?>
<!-- Generator: Adobe Illustrator 21.0.2, SVG Export Plug-In . SVG Version: 6.00 Build 0)  -->
<svg version="1.1" id="Layer_2" xmlns="http://www.w3.org/2000/svg" xmlns:xlink="http://www.w3.org/1999/xlink" x="0px" y="0px"
	 viewBox="0 0 731 516.6" style="enable-background:new 0 0 731 516.6;" xml:space="preserve">
<g>
	<path d="M167.3,156.3c-85.9,0-86.3-0.6-90.8,1.6c-4.1,2-4.2,5,0.4,7.3c5.5,2.7,11,1.2,16.8,2.9c1.7,0.2,1.7-0.1,4,0.7
		c6.4,8.1,4.6-4,4.6,168.2c0,8.2-1.7,16.6-2.8,18.2c-3.5-0.6-5.7-1.9-6.4-3.7c-3.2-7.8,3.7-15.1,0.5-18.5c-9-7.1-32.6-3.9-32.6,13.6
		c0,7.4,3.9,11.3,10,14.5v-0.2c12.5,6.2,32.7,5.5,46.4,1.6l-0.7,0.5c23.5-8.9,35.7-17.5,35.7-62.4c0-131-0.7-125.9,1.8-129.4
		c3.3-4.4,4.6-3.2,7.8-3.8c2.4-0.3,3.4-0.6,6-1c5.1-0.4,7.3,0.8,9.5-2.5C181.9,156.7,176.5,156.3,167.3,156.3z"/>
	<path d="M667,157.5c-33.1,0-37.5-0.6-40,1.9c-3.7,3.7,2,8.6,6.7,8.6c2.1,0,5.3-0.1,6.8,0.1c-3.1,7.6-7.4,21.1-8.1,23
		c-3.6,10.9-20.1,50-28.4,53.1c-3.8-1.6-10.8-18.2-24.1-43.8c-2.3-4.6-11.8-29.6-12.6-32.5c0.7,0.2,7.5,0.1,8.2,0.1
		c3.8,0,3.8-4.4,6-7.2c1.4-1.8,1.2-2,1.1-2.7c-1.1-1,4.1-0.5-57-0.5c-7.9,0-8.2,6.6-10.1,8.5c-0.9,0.9-1.4,1.6-1.5,2.2
		c-0.6,3,4.8,0.9,7.2,2.1c2.7,1.7,10.7,23.6,19.7,42.2c1,1.9,29.9,58.8,34.5,69.5c3.1,7.3,1.6,60.5,0.7,64.2
		c-1.1,3.4-3.3,6.9-5.2,6.9c-2,0-3.8,0.6-5.2,1.8c-3.1,2.5-6,1.9-6.4,4.2c-0.3,1.9,2.8,5.7,15,3.7c53.2,0,57.5,0.3,58.2-1.9
		c1.9-6.2-4.6-7.3-12.1-8.1c-1-0.5-1.9-1.3-2.6-2.2c-1.1-5.9-0.9-58.9-0.9-60.8c0-13.9,4-25,34.5-81.8c9.2-17,7-11.6,11.3-20.5
		c0,0,9.1-18.5,9.1-18.5c0.3-0.3,0.7-0.4,1.2-0.4c4.6,0,6.6,0.5,8.4-2.4C686.1,158.7,675.8,157.5,667,157.5z"/>
	<path d="M461.9,254.5H436l14-24.1c3.9-6.6-6.2-12.5-10.1-5.8l-17.5,30h-20.2c12.3-22.9,13.8-23.9,11.7-28
		c-2.2-3.9-3.9-3.1-26.1-4.5l8-14.2l33.9,0.2c7.8,0,7.8-11.7,0-11.7l-27.3-0.2l12.8-22.6c3.9-6.6-6.4-12.5-10.1-5.8l-12.8,22.6
		l-14-24.1c-3.9-6.6-14-0.8-10.1,5.8l17.5,30l-8.1,14.4l-12.3-17.5c-2.7-3.9-8.4-3.5-10.7,0.4l-11.7,19.7l-10.1-17.3l17.1-29.2
		c3.9-6.6-6.2-12.6-10.1-5.8L325.9,190l-13-22.6c-4-6.6-14.1-0.8-10.2,5.8l13,22.4h-27.6c-7.8,0-7.8,11.7,0,11.7h34.6l10.5,18.1
		c-26.3,0.4-27.6-0.6-30,3.3c-2.4,3.9-0.8,4.9,8.9,25.7h-16.4l-16.8-30.2c-3.7-6.8-14-1.2-10.1,5.7l13.6,24.5h-27.8
		c-7.8,0-7.8,11.7,0,11.7h27.6l-13.2,22.8c-2.4,3.9,0.6,8.7,5.1,8.7s3.9-1,21.8-31.5h16.2l-9.3,19.1c-2,4.1,1,8.9,5.5,9.1l24.5,0.6
		l-9.7,17.1c-0.2,0-34.4-0.4-34.6-0.4c-7.6,0-7.8,11.7,0,11.7l28,0.4l-13.8,24.1c-2.2,3.9,0.6,8.7,5.1,8.7s4.5-1.8,18.7-26.9
		l13.2,22.8c3.9,6.6,14,0.8,10.1-5.8L333,318l9.7-17c13.2,21.6,13.2,23.3,17.7,23.5c4.5,0.2,4.9-2,17.7-21.2l7.8,13.4l-17.7,29.6
		c-2.4,3.9,0.6,8.7,5.1,8.7s4.3-1.6,19.5-27.1c14.6,25.3,14.6,27.1,19.1,27.1c4.5,0,7.4-4.9,5.1-8.7L403,322.5h26.3
		c7.8,0,7.8-11.7,0-11.7h-33.1l-8.2-13.9l22.6-2.9c4.7-0.6,7-5.7,4.7-9.5L404,266.2h18.3l16.6,29.4c3.7,6.8,14,1,10.1-5.7
		l-13.4-23.7h26.1c3.3,0,5.8-2.5,5.8-5.8C467.7,257.2,465.2,254.5,461.9,254.5z M381.3,233.4l18.3,1.2c-10.1,18.9-9.9,18.3-10.3,20
		h-20L381.3,233.4z M360.5,212.4l10.7,15.4l-11.3,20l-10.1-17.3C350.1,229.7,360.1,213.2,360.5,212.4z M339.8,236.8l10.3,17.7h-24.9
		l-8.2-17.1C338.4,237.1,338.1,237.3,339.8,236.8z M339.2,283.6c-1.6-0.6-0.8-0.4-22.4-0.8l8.2-16.8h24.4L339.2,283.6z M361,308.4
		c-0.8-1.2-10.7-17.7-11.7-18.7l10.5-18.3l12.1,20.8L361,308.4z M381.9,286l-11.5-19.9h20l10.7,17.3L381.9,286z"/>
</g>
</svg>
