<?xml version="1.0" encoding="utf-8"?>
<!-- Generator: Adobe Illustrator 21.0.2, SVG Export Plug-In . SVG Version: 6.00 Build 0)  -->
<svg version="1.1" id="Layer_1" xmlns="http://www.w3.org/2000/svg" xmlns:xlink="http://www.w3.org/1999/xlink" x="0px" y="0px"
	 viewBox="0 0 731 516.6" style="enable-background:new 0 0 731 516.6;" xml:space="preserve">
<path d="M215.4,375.5c6.5,12-12.2,22.2-18.8,10.2C190.2,373.7,208.9,363.5,215.4,375.5z M309.9,65c6.5,12,25.3,1.8,18.8-10.2
	C322.1,42.8,303.3,53,309.9,65z M548.3,286.8c6.5,12,25.3,1.8,18.8-10.2S541.8,274.8,548.3,286.8z M143.1,327.5l0,0.2
	c0.7,1.7,1.2,4.2,5.8,11.8c4.9,8.4,4.2,8.7,6.2,9.4c3.3,1.1,6.7-2.5,4.9-6c-1.4-2.6-2.4-3.9-3.2-5.7c1.2-1.4,15.6-8.2,17.5-9.1
	c5.6-2.5,13.8-5.9,19.7-4.6c4.9,1.1,10.2,6.6,10.4,11.2c0.1,2.3-0.9,4.8-2.9,7.5c-4.6,5.9-10,3.9-12.5,3.9c-4.3,0-4.6,7.3,0.8,7.6
	c5.4,0.5,10.1-0.2,14.1-3.7c9.6-8.4,11.4-19.8,2.1-28.3c-8.3-7.5-17.5-10.6-47,6.4c-0.7,0.5-4.9,2.9-5.8,2.7
	c-0.7-0.1-2.4-3.7-2.7-4.3c-0.5-1.1-1.3-2.8-2.3-3.5C146.2,321.6,141.9,322.7,143.1,327.5z M142.3,262.5c-9.8,7.1-11,27.5,2.6,36
	c13,8,27.6,6.3,40.9-1.2l0.1,0c8.3-5.1,10.7-14.8,10-21.6C193.6,254.9,160.5,247.6,142.3,262.5z M185.8,270.8c3.7,6,2.5,14.1-1.8,18
	c-10.5,9.2-39.5,11.1-41.5-7.8c-0.7-6.5,2.1-12.4,8.5-15.3C162.2,260.6,179.4,260.5,185.8,270.8z M146.6,183.6
	c-0.4,0.9-0.7,1.8-0.9,2.6c-0.1,0.4-0.2,0.7-0.3,0.8c-1.8,8.3-3.7,11.1-3,13.5c1.3,4.1,5.9,4.6,7.4-0.6c0.2-0.2,0.1-0.5,0.3-0.6
	c0.7,0.2,13,16.4,13.4,17c1.2,1.8,1.3,1.5-1.5,2.6c-6,2.3-8,3.5-16.4,6.3l-0.1,0c-0.2,0.1-0.4,0.2-0.7,0.3c0.3-1.5,1.4-4.8-0.3-6.3
	c-1.6-1.3-3.2-1.5-4.5-0.9c-1.6,0.8-2.1,2-4.2,10.1c-1.4,5.3-2,7.2-1.1,8.9c1.4,2.7,6.3,3.1,7.4-1.9c0.2-1.4,0.8-1.4,2.6-2
	c1.6-0.4,14-4.6,21.9-8.4c2.3-1.4,3.8-1.5,12.5-0.4c2,0.2,9.4,1.6,10.4,2.5c0.2,0.2,0.2,0.4,0.2,0.7c-0.6,2.8-0.1,4.9,2.6,5.5
	c3.7,0.8,4.6-2.4,5.4-6.1c1.5-6.7,3.6-12.7-1.5-13.4l0,0.1c-1-0.2-2.2,0.3-3.1,1.7c-0.3,0.5-0.5,1.2-0.8,2.5
	c-0.1,0.5-0.1,0.8-0.5,0.9c-1.4,0.1-10.6-1.6-12-1.9c-5.5-1.1-6.9-0.6-9.2-4l-0.2-0.1l0-0.1c-5.1-7-9.6-12-13.6-17.1
	c-3.5-4.6-4.6-4.8-3.9-7.5c1-3.4,0.3-4.4-0.7-5.2l0-0.1C150.7,181.5,147.5,181.5,146.6,183.6z M165.2,146.9
	c-6.5,13.2-13.5,18.7-8.9,21.9c0.5,0.4,1.3,0.5,2.4,0.5c3.5,0,3.6-2.1,5.9-6.2c12.2,7,23.7,14.1,35.8,19.7c2.4,1.4-1.5-0.9,2.8,1.6
	l0.1,0.2l-0.1,0.1c-0.1,0.2,0.1,0.1-0.2,0.3c-2.1,3.6-1,6,1,7c4.7,2.4,6.7-3.6,8.8-7.8c2.5-5,3.9-7.8,3.1-9.8
	c-0.6-1.9-3-2.7-4.4-2.2c-1.5,0.5-2.3,1.7-3.7,4.3c-0.4,0.7-0.9,1.1-0.9,1.1c-0.7,0.2-10.4-4.9-10.5-5.3c-0.3-0.9,3-9.4,5-11.2
	c2.5-2.2,4.7,1.1,7-1.8c0.3-0.3,0.4-0.8,0.5-1.4c0.3-1.8-0.6-3.1-2.5-4c-9.5-4.7-11.2-5.7-13.1-4.9c-1.2,0.5-2.3,1.8-2,3.7
	c0.2,0.8,0.6,1.4,2.3,2.4c0.5,0.3,0.8,0.5,0.7,0.7c0.2,0.1,0,0.5-0.4,1.1c-1.1,1.5-2.1,3.4-4.5,8.9c-1.2,2.5-1.1,2.4-4.5,0.5
	c-1.5-0.9-12.5-7.2-14.8-8.7c-1.5-1-1.4-1.4,0.7-5c5.6-9.7,6.8-14.7,6.8-14.7c0.2-0.4,0.2-0.3,0.4-0.7c2-0.5,8.4,5.1,11.6,1.8
	c2.6-2.8-1.9-5.3-5.4-7C169.9,125,173.7,129.8,165.2,146.9z M223.3,81.1c-3.2,0.3-9,6.4-11.2,9.6c-1.5,2.8,0.4,5.7,2.7,5.9
	c1.4,0.2,1.9-0.6,3.1-1.4c0.1-0.1,0.2-0.1,0.3-0.1c0.2,0,7.9,7,8.1,7.2c4.6,4,6,5,8.9,8.2c3.8,4.1,10.2,13.2,8.2,18.5
	c-2.2,6.4-7.5,9.5-15.4,6.4c-3.9-1.4-7.8-4.3-15.1-11.7c-0.6-0.6-12.2-12.4-12.2-13.3c-0.1-0.4,1.1-1.1,1.4-1.4
	c1.3-1.3,2.7-2.2,2.7-4c0-3-3.7-5.7-7.7-1.9c-2.2,1.9-8.4,7.3-9.3,10.1c-1,3.2,3.2,6.2,6.1,3.5c0.2-0.2,0.7-0.7,0.9-0.5
	c3.3,0.8,22.9,30.2,40.3,29c6.2-0.4,11.8-5.8,13.7-8.6c11.9-17.1-12.3-34.1-22.8-45.1c-0.2-0.2-1.7-1.7-1.5-2c0-0.4,1.3-1.7,1.6-1.9
	C229.4,84.5,226.3,81,223.3,81.1z M299.2,95.1c-1.7-2.9-3.8-11.1-8.2-9.1c-4.6,2-0.4,8.5,1.9,13.1c-0.1,0.4-18.2,8.9-18.4,8.9
	c0,0-12.2-23.9-18.8-35.1c-1.2-2.4-1.8-2.4-0.6-3.2c1.3-0.9,3.6-2.5,4.2-4c0.9-2.5-0.8-4.7-2.6-5c-1.4-0.3-2.8,0.4-4.1,1.1
	c-4.2,2.2-18.1,7.4-13.1,12.9c2.9,3,5,0.6,7.6-0.8c1.6-0.8,0.5-3.1,20.6,36c0.2,0.4,0.4,0.8,0.4,1.2c-0.1,0.7-0.6,0.9-1.4,1.3
	c-1.4,0.7-2.7,1.3-3.5,3.3c-0.8,2.3,0.7,5.1,3,4.9c1.2,0,8.6-3.6,9.6-4.2C302.9,102.5,305.4,105.3,299.2,95.1z M419,60.2
	c0-0.1,2-10.8,2.1-10.8c0-0.1,0.1-0.3,0.3-0.2c1.5,0.2,3.1,0.8,5.5,0.5c3.2-0.4,4.5-4.2,2.9-6.5c-1.5-2.1-3.6-1.4-8.4-2.6
	c-0.7-0.2-4.8-1-5.4-1.4c-5.1-1.2-6,2.8-9.3,6.3c-6.1,7.3-11.2,16-13.7,19.7c-0.2-0.3-1-2.3-1-2.6c-3.2-8.6-6.4-17.4-9.2-25.9
	c-1.3-4.2-5-4.8-12.6-5.9c-6.5-1-7.9,0.3-8.3,3c-0.3,1.9,0.4,3.2,2.8,4.1c4,1.4,4.8,0.1,4.5,2.2c-4.4,28.4-4.4,35-6.5,42.5
	c-0.3,0.1-2.7-0.3-3-0.4c-5.3,0-5.5,7.1-0.4,7.7c4.2,0.4,13.8,3.2,16.6,1.7c2.1-1.3,3.5-5.7-2.2-6.6c-0.3,0-0.4,0.1-0.6-0.1
	c-4.1-0.6-2.6-0.6-1.3-9.6c0.6-4.2,1.8-16.5,4.5-34.2c0,0,2,6.6,4.6,14.3c2.5,7.1,5.1,13.1,5.1,13.1c1.9,5.5,2.8,8.9,6.1,9
	c4.7,0.1,3.2-6.3,21.6-28.7c0,0-7.9,38.6-7.9,38.6c-0.1,0.8-0.4,1.4-0.7,1.6c-0.3,0.4-1,0.4-1.5,0.3c-1.8-0.1-3.2-0.1-4.4,0.9
	c-2.1,1.8-2,6.1,2.3,7c2.6,0.5,5.8,0.7,8.2,1c5.1,0.6,10.7,2.3,10.7-2.9c0.1-2.9-2.6-4.2-5-3.9C412.9,91,411.7,94.6,419,60.2z
	 M469.6,107.8c-1-1.3-2.3-1.5-3.3-1.1c-1.5,0.6-2.2,2.1-3.2,3.8c-2.2,4-1.7,3.7-3.5,3.3c-2-1.1-3.2-2.2-6.3-4.6
	c-14.3-11.2-15.6-8-11.8-15c2.8-5.1,1.2-3.5,11.6,1.6c0.1,0,0.2,0,0.3,0.1c2.6,1.1,2.6,1.7,2.2,3.1c-1.3,3.3,3.3,6,5.7,2.3
	c1.6-2.2,6.6-9.4,6.4-12.1c0.1-2.7-3.3-4.9-6.5-0.8c-0.9,1.7-1,2-3,0.9c-2.2-1.4-7.4-4.4-7.8-4.6c-2.8-1.6-2.2-0.6,7.6-18.5
	c0.8-1.2,1.3-1.8,1.6-1.8c0.2-0.1,0.6,0,1,0.1c0.7,0.3,7.6,4.1,9.6,5.1c7.7,3.5,4.7,1.3,10.5,4.9c0.8,0.5,0.7,0.7,0.6,1.1
	c-0.6,1.4-0.6,1.4-1.3,2.6c-4.5,6.5,1.8,10.2,4.3,5.7c4-7.3,7.9-9.6,5.8-13c-1-1.5-7.4-4.9-9.7-5.8c-16.6-6.5-24.4-14-26.5-15.2
	c-3-1.9-5.3,0.9-5.5,2.7c-0.4,3.4,4.6,5.3,4.5,7.4c-0.1,0.8-1.5,3.1-1.9,3.4c-1.7,3.2-11.9,18.6-17.3,29.9c-1.7,3.1-2.4,1.8-4.9,1
	c-2.3-0.7-4.9-1.6-6.1,1.5c-0.5,2,0.1,3.1,1.6,4c0.4,0.4,1,0.7,1.6,0.9c16.9,8.1,32.3,24.1,37,21.4c1.4-0.8,4-4.4,4.9-5.7
	C469.3,114.3,470.9,109.5,469.6,107.8z M502.2,137.7c3.4,1.5,5,1.8,6.3,2.1c8.8,1.5,16.6-4.2,20.2-12.6c7.4-17.3-3.6-25.4-11.8-33.1
	c-3.4-3.2-4.6-4.5-9-8.1c-3.3-2.7-6.8,1.1-6.3,3.7c0.2,1.1,0.7,1.5,1.4,2.4c0.1,0.1,1.5,2,1.6,2.2c-0.4,1-15.2,15.9-15.9,16.6
	c-8.5,8.2-12.8,13.3-12.8,13.3c-0.2,0.1-0.4,0.2-0.4,0.2c-0.4,0.1-1.5-1-1.8-1.4c-2.6-3.5-6.9-1.2-7.2,1.9
	c-0.4,3.8,5.5,6.9,9.5,11.9l0,0.1c3.3,3.5,6.9,1.1,7.3-1.8c0.5-3.7-4.1-4.2-2-6.4c0.3-0.3,1.5-1.5,1.7-1.8c2.6-2.5,2.5-2.8,4.7-0.6
	c0.3,0.2,2.1,1.7,3,2.6c2.6,2.7,2.8,2.4,1.6,6.9c-0.3,1.2-0.8,4.4-1.2,5.5c0,0-0.7-0.6-1.1-1l-0.1,0.1c-1.6-1.3-3.2-1.2-4.8,0.2
	c-1.8,1.7-1.1,3.7,0.3,5.6c2.3,3.4,4.7,6,8.1,9.1c4.3,3.6,9.9-1.3,5.7-5.6c-2.2-2.6-2.1-2-0.6-8.1c0.1-0.3,1-4.1,1.2-4.3
	C500.1,136.9,501.7,137.5,502.2,137.7z M509.4,99.4c1-0.7,0.2-0.6,2.6,1c5.3,4.2,11.6,9.2,11.6,15.9c0,5.2-2.6,12.1-6.3,14.4
	c-5.8,3.8-10.3,1.4-16-3.2c-2-1.7-7.3-6-8.9-8c-0.7-0.9-0.7-1,0-1.8c1.4-1.5-0.2-0.4,12.6-13.5C506.8,102.4,509.4,99.4,509.4,99.4z
	 M531,183.8c17,14.4,33.9-2.9,34.7-16.5c0.5-8.3-4-14-6-17.7c-1.1-2-7.2-13.4-9-14.7c-2.7-2-7.1,1.3-5.9,4.2c0.1,0.2,0.7,1.8,0.8,2
	c0.9,2.8,4.8-0.2-28.7,17.9c-2.2,1.2-6.9,4.1-6.9,4.1c-0.3,0.1-0.4,0.1-0.4,0c-0.5,0-1.1-1.4-1.3-1.8c-1.4-4.2-6.3-3.2-7.5-0.3
	c-1.5,3.5,3.2,8.1,5.6,14.2l0,0.1c3,5.9,9.5,1.3,7.5-2.7c-1.6-3.1-1.3-2.9,1.5-4.3c0.3-0.1,0.5-0.3,0.6-0.4c0.7-0.4,0.9-0.5,1.9-0.9
	c1.2-0.6,1.4-0.6,2,0.5c-0.4-0.6,2.2,3.3,3,4.8c1.6,3.2,1.9,2.9-0.5,6.9c-0.7,1.1-2.1,3.9-2.8,4.9c0,0-0.5-0.8-0.8-1.3l-0.1,0
	c-1.1-1.7-2.7-2.1-4.6-1.2c-2.2,1.1-2.1,3.2-1.3,5.5c1.1,3.8,2.7,6.9,5.1,11c3.1,4.7,9.8,1.6,7.1-3.7c-1.3-3-1.6-2.3,1.8-7.9
	c0.2-0.2,2.2-3.6,2.4-3.7C529.3,182.4,530.6,183.5,531,183.8z M549.1,149.3c1.1-0.3,0.5-0.3,1.2,0.3c0.5,0.6,0.6,0.8,1,1.4
	c4.4,6.4,6.1,9.4,6.8,14c1.1,5.5-5.2,15.1-10.6,16.5c-7.8,2.3-11.7-2.8-18.7-14.5c-0.8-1.3-1.1-1.5-1.8-3.5
	c-0.4-1.1-0.4-1.2,0.5-1.7c1.9-1.1-0.4-0.2,6.2-3.8C546.6,151.1,549.1,149.3,549.1,149.3z M588.7,250.4c0-1,0-1.9-0.1-2.7
	c-0.1-0.5-0.1-0.7,0-0.9c-0.2-1.5-0.8-6.9-1.1-10.9c-0.9-6.3-8.4-6.4-7.7,0.5c-0.1,0.3,0,0.5-0.1,0.7c-0.7,0.1-19.4-11.4-20-12.1
	c0.4-0.8,14.2-13.1,14.8-13.7l0.1,0c0.2-0.2,0.3-0.4,0.6-0.5c0.3,1.9,0.4,6.2,4.4,6.1c4.5-0.4,4.4-3.5,2.3-18.3
	c-1.4-5.8-8.5-4.1-7.6,1.8c0.1,0.5,0.2,1-0.1,1.4c0,0-12.2,9.7-19.1,17.2c-3.3,4.2-20.6,6.9-22.2,6.3c-0.2-0.1-0.4-0.3-0.4-0.5
	c-0.4-2.8-1.6-4.6-4.4-4.2c-3.7,0.6-3.4,3.9-2.9,7.6c1,6.9,1.2,13.1,6.3,12l0-0.1c1-0.1,2-1,2.3-2.7c0.1-0.6,0.1-1.3-0.1-2.7
	c-0.1-0.5-0.2-0.8,0.1-1c1.2-0.6,10.5-2.3,11.8-2.5c5.6-1,6.7-1.9,10,0.4l0.2,0.1l0,0.1c7.2,4.7,13.1,7.6,18.8,11.1
	c5,3.1,6,2.8,6.3,5.6c0.3,3.6,1.3,4.2,2.5,4.6l0,0.1C585.7,253.8,588.6,252.7,588.7,250.4z M528,355.6c-0.7,16.1,20,20.7,29.4,16.1
	c4.6-2.4,8.4-9.2,11.4-15.6c4.9-10.3,6.1-17.1,6.6-18.6c1.4-4.9-5.1-7-6.8-2.5c-0.1,0.1-0.7,2-0.7,2.1c0,0.1-0.3,0.9-0.5,0.9
	c-0.7,0.2-11.2-4.9-11.8-5.2c-9.2-5.5-26-11.5-27.5-12.3c0-0.3,1.1-2.2,1.2-2.5c3.2-6.4-4.4-9-6.8-4.7c-2.6,5.2-1.6,4.3-5.2,10.8
	c-6.2,11.5-13,28.1-0.7,32.7C521.7,358.8,525.1,357.8,528,355.6z M565.3,344.8c0,0-1.8,4.9-5,11.3c-2.7,5.5-5.3,10.1-11.5,10.3
	c-3.6,0.1-7.1-1.1-10.3-3.4c-5.1-3.9-2.8-20.1,2-27.7c1.5-2.5,4.3,0.1,18,6.8C562.3,343.9,565.3,344.8,565.3,344.8z M532.9,329.8
	c0.3,0,0.6,0.2,0.7,0.5c0.2,0.1,0.1,0.5-0.3,1.3c-4.2,8.6-7.4,15.9-10.4,18.3c-1.5,1.3-4,0.8-5.1-0.6c-0.7-1-0.4-4.2-0.3-5.5
	c0.4-4.5,6.7-17.2,7-17C524.7,326.6,532.8,329.7,532.9,329.8z M479.8,390.9c2.6,2,7.5,9.1,10.9,5.7c3.5-3.4-2.1-7.7-6.4-11.6
	c0-0.4,12.9-13.7,13.1-14c1.5-1.6,0.7-0.6,5.1,3.2c1.6,1.3,22.5,19.7,27.2,23.5c1.2,1,0.8,0.9-1.2,3.9c-1.5,2.3-1.3,4.2-0.1,5.4
	c2.3,2.5,4.5,1.3,6.7-1.2c3.9-4.3,10.8-10.1,9.6-14.3c-0.6-2.6-4.3-4.1-6.5-1.7c-4.2,4.7,0.5,6.8-22-12.9c0,0-6.8-6-6.8-6
	c-7.4-6.7-7-5.7-4.6-8.4c1.8-1.9,2-4.9-0.1-6.5c-2.6-2.4-4.4-0.3-14.3,10.7C474.5,384.5,470.4,383.5,479.8,390.9z M443,425.1
	c6.6-0.8-1.4-9.2-1.1-10.8c0.1-0.3,0.5-0.6,0.8-0.9c3.5-2.2,12-4.7,17.2-7.7c1.7-1,4.5-2.6,5.7-2.2c1.2,0.3,4.9,6.4,4.7,7.3
	c-0.2,0.8-2.4,1.9-3.1,2.4c-2.9,1.8-3.8,2.3-5.6,3.5c0,0.2-1.6,1.3-2.4,1.5c-0.5,0.1-1-0.2-1.6-0.9c-2.3-2.8-6.8-0.1-4.8,3.8
	c1.1,2.5,4.9,10.4,7.4,11.5c2.7,1.6,6.4-1.2,3.5-5.9c-1-1.6-0.3-1.6,3.4-3.7c8.6-4.9,6.8-5.7,10.7,0.7c0.6,0.9,8.3,13,7.9,14.1
	c-0.2,0.9-3.3,2.5-4.1,3c-13.1,8-7.5,6.2-15.2,10.3c-0.9,0.5-1,0.3-1.3-0.1c-2.3-3-1.9-3.8-3.8-5.3c-2.5-2.4-5.2-0.7-5.5,1.3
	c-0.2,1.6,0.7,2.4,2.2,5.4c4.6,9,4.1,11.1,13.3,5.4c5.4-3.3,11.4-10.2,29.1-17.7c1.9-0.8,2.9-2.1,2.4-4.2c-0.7-3.5-3.9-3.3-7.3-2.2
	c-1.5,0.3-2.4,1.1-3.6-0.8c-0.2-0.3-1.2-2-1.2-2.3c-0.9-1.5-10.7-20.1-17.4-29.8c-0.7-1.2-1.4-2.7-0.2-3.4c3.2-2.3,5.6-4.7,3.4-7.4
	c-1.5-1.5-2.7-1.4-4.3-0.6c-0.5,0.2-1.1,0.5-1.5,0.9c-17.9,12.5-38.8,15.8-36.7,22.9c0.7,1.8,1.5,3.7,2.4,5.7
	C437.6,421.6,441,425.3,443,425.1z M408.1,452.2c4.4,1,7.9,1.5,12.1,1.5c23,1.2,9,16-4.3,13.5l-0.1,0c-1.7-0.2-2.7-0.2-3-1.7
	c0,0,0-1.9,0-1.9c-0.1-2.5-2.2-3.6-3.9-3.3c-3.5,0.7-3.4,2.1-3.3,5.6c0.8,4.2,1.9,12.3,4.8,13.9c2.1,1.1,5.5-0.4,4.3-4.8
	c1.5-0.4,11.3,3.1,21.2-6.1c3.7-3.3,4.9-7.5,3.6-12.8c-4.3-17.7-34.6-4.3-37.2-19.1c-0.6-3.3,0.5-5.9,3.4-7.9
	c4.3-3,8.9-4.2,13.8-3.8c6.4,1,6.4,1,7.3,4.8c0.7,2.6,2,3.9,4.8,3.3c2.7-0.6,3.1-2.9,2.7-5.5l0.1-0.1c-0.6-3.2-1-4.3-1.6-6.6
	c-0.7-2.3-1-10-5.5-8.8c-3.9,1.1-3.2,5.5-3.2,5.5c-1.4-0.2-1.5-0.1-3-0.5l-0.1,0c-11.5-1.8-29.4,5.8-26.2,22.1
	C396.2,445.6,402,450.8,408.1,452.2z M357.8,456.6c9.3,5,21,6.1,21.8,11.8c0.9,4-8.3,9.4-18.1,4.8l-0.1,0c-1.6-0.6-2.6-0.9-2.4-2.4
	c2.9-6.3-5.6-8.6-6.7-2.9c-0.7,3.8-1.3,12.3-0.1,15.1c1.4,2.9,6.3,2.6,6.2-2.5c1.5,0,10.1,5.9,22.1-0.5c8.8-4.5,12.3-21.1-9.2-26.5
	c-4.4-1.1-12.5-4.7-14.5-8.5c-1.3-2.5-1.7-8.9,4.6-11.1c8.1-2.9,13.5-0.7,17.7,1.4c2,1,2.1,1.5,2.3,2.3c0.3,1.6-0.3,3.8,0.8,5.5
	c1.2,1.8,6.4,3.2,7.1-3.2l0.1-0.1c0.1-1.9,0.2-3.5,0.2-4.8c-0.1-4.9,0.9-8.9-0.9-11c-1.4-1.7-5.9-1.4-6.6,3.4c0,0.1,0,0.2-0.1,0.2
	c-1.3-0.5-1.4-0.5-2.8-1.2l-0.1,0c-6.9-3-13.4-2.5-20.5,0C345.4,431,344.6,449.7,357.8,456.6z M298.6,429.4c5.3,4.3,5.5-7.3,7-8.2
	c0.3-0.2,0.8,0,1.2-0.1c2.3,0.6,3.8,1.5,7.3,3c17.8,8,17.3,3.4,14.5,13.9c-0.8,2.9-1.9,1-11-0.9c-0.1,0-0.2,0-0.4,0
	c-2.6-0.4-3-0.9-2.9-2.5c0.4-3.5-4.6-5-6.1-0.9c-1,2.5-4.1,10.7-3.3,13.3c0.7,2.9,4.5,3.2,6,0.3c2-4-1.1-3.6,10.1-0.7
	c4.3,1.1,4,1.5,3.4,3.8c-2.3,8.6-2.7,10.2-3.5,13.1c-1.9,6.8-1.1,6.3-7.1,4.7c-3.5-0.9-6.9-1.9-10.8-2.3c-3.3-0.3-4.5-0.5-6.2-1.2
	c-0.3-0.2-1.7-0.6-1.8-0.9c-0.3-0.5,1-4.5,1.1-5c1.1-4.9-2.6-6.5-4.6-5c-1.3,1-1.2,2.1-2.3,5.3c-1.9,5.4-2.4,6.2-2.6,7.8
	c-1,7.4,16.7,3.8,40.7,14.4c2,0.8,3.6,0.7,4.7-1.1c2-3-0.3-5.1-3.4-6.8c-1.5-1.1-2.5-1.1-1.9-3.2c0.1-0.3,0.7-2.2,0.8-2.5
	c0,0,5.9-19.1,7.6-25c2.1-7.7,2-10.6,3.8-10.7c2.3-0.1,7.7,1.9,8.2-2.7c0.1-2.1-0.9-2.9-2.5-3.5c-0.5-0.3-1.1-0.4-1.7-0.5
	c-18.3-3.7-37.2-15.6-41.1-11.8c-1.2,1.1-2.8,5.2-3.3,6.7C297.4,423.1,297,428.1,298.6,429.4z M234.1,418.3
	c-3.1,10.6,0.8,24,12.2,30.1c0,0,7.1,3.9,10,5.5c8.6,4.8,9.1,7.2,11.4,7.2c1.5,0,3.1-1.6,3.2-3.2c0.2-1.6-0.9-2.8-2.1-4.1
	c-2-2.2-2.9-2.2-1.6-4.2c17.8-30,20.1-34.1,20.1-34.1c5.4,3.5,8.3,2.1,9.3-0.9c1.4-4.5-3.2-4.4-5.4-6.3c-0.8-0.7-1.6-1.4-2.4-2.2
	c-0.2-0.3-0.2-0.2-0.4-0.5c-8.4-7.8-17.1-9.3-21-10.6C254.8,391.2,240,398,234.1,418.3z M260.8,402c3.7,0.2,7.3,1,10.5,2.5
	c1.2,0.5,9.6,4.4,10.1,5.6c0.3,0.8-9.4,17.1-9.8,17.9c-3.6,6.4-3.5,5.6-8.1,14.3c-0.3,0.6-2.5,4.6-3.2,4.8c-0.3,0.1-2-0.8-2.3-1
	c-11.3-5.6-19.5-11.1-17.4-24C242.3,411.3,249.7,401.4,260.8,402z"/>
<path d="M389.6,184.1c-11.9,13.4-25.1,82.5-32.4,84.9c7.1-34-15.5-53.1-15-52.9c40.1-5.1,18.6-40.8,18.6-40.8
	c16.9,9,33.4-22,33.4-22c-3.5,32.2,23.7,35.4,24.4,35.1c-22.2,27.7,2.4,40.2,2.7,40c-38.1,5.8-56.4,44-56.4,44
	S394.9,186,389.6,184.1z M378.8,287.8c25.1,7,40.8,16.2,56.3,31.5c-2.2-9.4,8.3-27.4,37.2-9.3c-1-10.3,8.2-27.7,29.7-34.6
	c-15.9,5.3-38.3-15.9-30.3-25c0,0-9.9,10.9-27.7,9.1c-17.7-1.8-18.9-16.5-18.6-16.6c-27.1,31.7-46.5,38.8-46.5,38.8
	C403.4,274.9,574.3,274.6,378.8,287.8z M345.7,266.2c0,0-12.3-16.1-18-57.5c0.2,0.3-8.7,11.9-24.6,4c-16.1-8.2-18.3-22.8-18.3-22.8
	c1.7,12.4-28.6,18-39.3,5.1c14.2,16.8,13.4,36.4,6.4,45.1c33.2,0.6,33.8,20.8,26,27.8c21.3-4.8,39.7-4.1,64.5,3.8
	C185.4,154.9,328.5,247.3,345.7,266.2z M365.6,300.2c8-7.5,20.4-6.7,27.4,1.1c7.5,8,6.7,20.4-1.1,27.4c-8,7.5-20.4,6.7-27.4-1.1
	C357,319.7,357.6,307.7,365.6,300.2z M329.4,352c7.5,8,19.8,8.4,27.4,1.1c8-7.5,8.4-19.8,1.1-27.4c-7.5-8-19.8-8.4-27.4-1.1
	C322.8,331.9,322.2,343.9,329.4,352z M324.5,309c7.5,8,19.8,8.4,27.4,1.1c8-7.5,8.4-19.8,1.1-27.4
	C335.3,263.6,307.1,290.7,324.5,309z"/>
</svg>
