<?xml version="1.0" encoding="utf-8"?>
<!-- Generator: Adobe Illustrator 21.0.2, SVG Export Plug-In . SVG Version: 6.00 Build 0)  -->
<svg version="1.1" id="Layer_1" xmlns="http://www.w3.org/2000/svg" xmlns:xlink="http://www.w3.org/1999/xlink" x="0px" y="0px"
	 viewBox="0 0 731 516.6" style="enable-background:new 0 0 731 516.6;" xml:space="preserve">
<g>
	<path d="M317.3,237.1c-1,1.7-2.6,2.4-4.1,3.4c-0.4,0.2-0.8,0.6-1.2,0.7c-0.1,0-0.3,0-0.4,0c0-0.2,0.2-0.4,0.2-0.5
		c-0.4-1.5-0.4-2.8-1.4-3.7c-3-4.3-3.9-5.2-8.1-6.9c-1.9-1.2-0.7-0.6-4.8-0.8c-1.7-0.1-2.3-0.2-3.4,0.8c-2.8,2.2-0.8,6.1,1.8,8.5
		c1.4,1.3,5.8,4.8,6.3,5.4c-1.1,0.5-1.9-0.2-2.9,0.8c-2,0-4,0.1-4,0.1c-2.2-0.1-0.9,0.6-3.5,0.6c-6.9,0-6.3,0.7-6.6-0.8
		c-0.5-2.4-1.4-4.5-2.5-6.2c-4.7-6.5-6.6-9.2-11.7-8.6c-6,3.1-4.5,11.4,0.4,14.8c0.3,0.2,0.5,0.4,0.7,0.7c-2,0.5-4-1-6.2-0.6
		c-2.6-1.8-0.9-1.2-1.9-2.9c-0.1-0.1-0.2-0.3-0.2-0.4c-0.3-3.3-4-9-6.9-10.2c-1.2-0.6-2.3-1.6-3.7-1.4c-0.2,0-0.6-0.3-0.9-0.4
		c-0.5-0.3-0.9-0.3-1.2-0.2c-0.5,0.3-1,0.4-1.5,0.5c-5.4,1-3.3,6.9,1.2,10.6c2.1,1.8,4,2.8,4,2.8c0,0-0.1,0-0.1,0.1
		c-1.1,0-2.5-0.1-3.5-0.1c-1.2-0.9-1.6-0.6-9.2-0.6c-0.3-0.1-1.1-0.1-1.3-0.2c-1.5-1.1-6.2,0-7.2-0.9c-4.5-4.2-7.8-6.5-11-9.2
		c-0.8-0.6-1.8-0.9-2.6-1.5c-1.1-0.8-2.5-0.5-3.6-1.4c-7.1-0.9-11.7,6.4-2.8,11.6c-1,0.1-5.8,0.4-6.6-0.2c-4.8-6.2-6.3-8.9-11-11.1
		c-3.1-1.6-3.7-1.5-6.6-0.6c-1.7,0.7-2.1,2.3-2.4,3.7c-0.3,0.7-0.1,1.6,0.4,2.3c3,5.2,5.5,4.6,7.9,6.7h0c0,0,0,0.1,0,0.1
		c-3.7,0.1-7.4,0.1-11,0.1c-0.1,0-4-1.4-6.5-2.8c-1.7-0.9-3.4-1.4-5.1-2.1c-4.3-1.7-3.2-1.6-5.2-1.9c-2.3-0.3-1.3-0.7-4-0.6
		c-1.4,0-2.4-0.3-4.3,0.8c-2.5,1.4-2.9,4.6-1.9,5.9c2.2,3.2,2.9,2.6,4.5,3.4c0.5,0.2,1,0.5,1.6,0.4c-1.1,1-1.9,0.6-3.4,1.4
		c-0.9,0.4-1.5,0-2.4,0.8c-0.1,0-0.4,0-0.8-0.1c-1-0.8-3.3-0.3-4.7-1c-1.2-0.8-2.3,0-3.6-0.6c-0.5-0.2-1-0.5-1.7-0.3
		c-0.8,0.2-2-0.8-3-0.8c-0.7,0-3.3,0.1-3.8-0.4c-0.1-0.1-0.2-0.2-0.3-0.2c-1.7-0.6-1.2,0.4-2.6,0.5c-1.4,0.1-2.6,0.2-4.1,2.2
		c-1.3,1.6-1.3,2.6,0,4.3c1.2,2.3,7,1.7,11.9,1.7c-2.3,0.7-4.9,2.3-8.7,4.8c-0.3,0.2-0.6,0.4-0.9,0.4c-2.4,0.2-4.2,1.8-6.2,3.1
		c-17.2,12-13.4,17.7-9.5,17.7c5,0,7.3-3.3,12.9-10.9c0.9-1.2,2.2-3.4,2.5-5c0-0.3,1.2-1.6,1.9-1.8c1.1-0.4,2-1,2.9-1.6
		c2.3-1.6,4-2,5.3-2.8c0.8-0.5,1.6-1,2.3-0.9c-0.1,0.6-0.6,0.9-1.1,1.3c-2.3,2.8-5.1,7.7-6.1,10.5c-3,7.9,2.9,9.7,9,1.1
		c6.5-8,3.8-15,7.8-17c1-0.4,1.9-1,3-1c1.3-0.2,2.2-1.1,3.6-0.9c1.4-1.2,2.3-0.2,3.7-1c0.8-0.4,1.5-0.4,2.4-0.6
		c1.2-0.2,1.8-0.6,3-0.6c0,0,0,0,0,0c-2.9,2.1-11.5,12.2-10.6,15.6c0.8,1.8,3.1,3.4,4.8,2.6c3-1.2,7-3.6,8.5-6.3
		c4.3-7.4,3-9.6,3.9-11.6c0.1-0.2,0.2-0.6,0.3-0.8c0-0.1,0.1-0.3,0.2-0.3c0.7,0,1.3-0.2,1.9-0.3c1.8-0.5,2.3-0.5,3.5-0.4
		c0.3,0,5.4,0,5.5,0c-0.1,0.4-0.5,0.5-0.8,0.7c-1.3,1.2-2.6,1.8-3.5,3.5c-1.2,3-5.3,7.1-2.9,10.7c1.6,2.3,3.1,1.2,4.8,0.5
		c3.2-1.3,4.3-1.8,8.7-7.5c3.1-3.4,2.5-9.1,5.6-8.8c0.4,0,25.4-0.1,25.6,0.2c0.4,0.4,0.8,0.3,1.2,0.1c0.1,0,0.1-0.1,0.1-0.1
		c0.6,0.5,1.1,0.4,1.8,0.4c0.5,0.1,1,0,1.5,0c0.9,0.2,1.9,0.2,2.8,0.2c0,0,0,0,0,0.1c0,0,0,0.1,0,0.1c-0.4,0.2-1.2,1-1.5,1.1
		c-0.8,0.2-1.6,0.8-2.3,1.2c-3,2-2,0.6-4.7,2.8c-2.4,2-2.4,1.2-4.8,4.7c-0.6,1-1.3,1.7-1.3,2.9c-0.1,0.8-0.3,1.6,0.2,2.3
		c0.7,1.3,2.3,2,3.5,1.7c5.2-2.3,14.3-9.3,14.3-14.5c0-0.4,0.2-0.9,0.3-1.3c0.4-1.4-0.2-1.1,4.9-1.1c1.1,0.8,2.2,0.7,3.4,0.7
		c8.7-0.1,2.3,0.8,10.6,0.8c0.3,0.1,0.5,0.3,0.6,0.6c-7.6,5.1-16.8,10.7-13.7,16c3.4,5.7,18-9,19.5-14.2c0.3-0.9,0.5-1,0.9-1
		c2.9,0.2,5-0.2,6.6,0.5c2.3,1,4.5-0.8,6.7,1.5c1.3,0.5,2,0.1,2.1-0.5c0.1-0.8,0.4-0.8,0.9-0.8c0.2,0,0.3,0,0.4,0
		c0,0.1,0.1,0.1,0.1,0.1c-0.3,0-0.4,0-0.6,0.2c-0.8,1-1.5,2.2-2.5,3c-2.2,2-4,4.7-5.9,7.1c-2.3,2.8-2.7,6.3-2.3,7.9
		c0.1,0.2,0,0.4,0.1,0.7c0.1,0.8,1.1,2.4,2.1,2.6c1,0,1.6,0.3,2.5-0.4c0.8-0.7,1.9-1.2,2.7-2c7.3-6.9,10.4-16.1,10.1-19
		c0-0.9,0.1-0.9,0.7-0.9c2.6-0.1,5.4,0.3,8.1-0.8c0.5-0.2,1-0.2,1.6-0.2c2.8,0,1.5-0.6,4-0.7c0.7,0,1.5-0.1,2.1-0.5
		c0,0,0.1,0.1,0.1,0.2v0.1c-0.2,0.4-0.4,0.8-0.6,1.1c-1.2,1.4-2.3,3.1-3.3,4.7c-2,3.2-4.7,6-4.1,11c0.2,1.2,0.5,1.5,1.1,2
		c0.7,0.6,1.6,1.2,2.7,1c5.9-1.1,9.5-8.5,9.6-14.5c0-5.8-0.4-5.8,0.6-7.2c2.2-2.3,1.6-0.1,5.8-3.7c0.8-0.7,1.3-0.9,1.6-1.7
		c0.1-0.2,0.1-0.4,0.3-0.6C319.9,237.5,318,235.8,317.3,237.1z M306.8,256.8c-1.9,3.3-1.1,3.4-4.8,5.8v0c-0.5,0.1-0.8,0.1-1.1-0.3
		c-1.2-2.1,2.7-7.7,3.9-9.6c0.9-1.6,1.9-3.2,3-4.5C308.2,251.1,307.3,253.9,306.8,256.8z M308.4,241.7c0,0.2,0,0.2,0,0.2
		c-0.7,0-0.7-0.1-1.3-0.4c-6.2-3.8-4.5-4-7.2-5.8c-0.1-0.2-0.3-0.4-0.4-0.6c0.6-0.1,1.6,0.7,2.2,0.9c2.3,0.6,3.2,1.5,6.5,4.9
		c0.2,0.2,0.3,0.2,0.3,0.5C308.5,241.5,308.5,241.5,308.4,241.7z M281.2,245.7h-2.5c-1.7-0.7-4.2-3.6-5.6-4.4
		c-1.7-1.5-2.4-3.6-2-6.5c0-0.2,0.3-0.7,0.6-0.9c0.4-0.2,3.4,1.6,4.8,4.5C276.6,238.3,279.2,242.3,281.2,245.7z M285.2,250.6
		c-1.2,5.4-3.7,10.1-7.1,13.9c-1,0.9-1.9,1.4-2.9,2.2c-0.3,0.2-0.6-0.2-0.6-0.5c-0.4-2.3,0.5-3.1,1.8-5.3c3.5-6,2.2-2.2,6.3-7.9
		C283.3,252.2,283.6,251.8,285.2,250.6z M254.6,238.5c-2.7-2-4.3-4.3-4.3-4.3l0.1-0.1c0-0.3,0-0.4,0.2-0.4c5.8,0,7.6,4.1,9.3,6.9
		c0.3,0.5,0.4,1.1,0.5,1.3c-0.4,0-0.7-0.1-1-0.4C258.9,241.1,255.2,238.9,254.6,238.5z M249.2,259.8c4-4.1,6.9-8.2,12.3-10.4
		c-1.1,1.4-4.2,6.3-10.2,9.8c-0.6,0.4-1.4,0.5-2,0.9C249.2,259.9,249.2,259.9,249.2,259.8z M235.5,249.4c-0.4,1.4-4.9,5.3-7.3,6.9
		c-0.8,0.5-1.7,1.1-2.4,1.9c-0.1,0.1-0.7,0-0.7,0c0,0,0,0,0,0c1.8-3.6,5.6-5.3,6.9-6.7c0.3-0.4,0.7-0.6,1.1-0.7
		c0.5-0.2,0.8-0.3,1.6-0.9C235,249.5,235.2,249.4,235.5,249.4z M213.1,234.4c1.2-0.3,2.2-0.1,3.4,0c2,0.4,1.7,0.4,4,1.9
		c1.5,0.9,3.1,1.9,4.4,3.4c-1.2,0.2-2.5-0.4-3.7-0.8C218.8,238.1,214.7,237.3,213.1,234.4z M196.9,247.1c-0.9,2.7-6.5,10.3-9.8,10.3
		c-0.1,0-0.2-0.3-0.2-0.4C190.3,250.8,188.7,251.6,196.9,247.1z M200.9,238.1L200.9,238.1c-2.5-0.8-7.2-2.9-8.6-4.9c0,0,0-0.1,0-0.1
		c0,0,0.2,0,0.2,0l0.1-0.1c0,0,0.1,0,0.1,0C198.3,235.7,194,231.7,200.9,238.1z M176.7,248.6L176.7,248.6c0,0.1-0.1,0.3-0.1,0.4
		c-0.8,3.5-1.5,4.7-2.4,5.9c-3.4,4.7-4.1,4.6-6,5.7c-0.6,0.4-1.2,0.7-1.9,0.7c0,0,0,0,0,0c0.5-1.8,4.7-9.4,10.2-12.5
		C176.6,248.7,176.7,248.6,176.7,248.6z M175.4,241.8L175.4,241.8L175.4,241.8C175.4,241.7,175.4,241.8,175.4,241.8
		C175.4,241.8,175.4,241.8,175.4,241.8z M173.8,241.1c-1.8,0-3.6,0.1-5.6-0.2c-0.8,0-1.8-0.6-2.7-0.6c-1-0.2-1.7-0.7-2.8-0.9
		c-0.2,0-0.7-0.4-0.9-0.6c1.2-0.9,2.3-1,3.6-0.3c1.3,0.8,2,0,3.4,1c0.6-0.2,0.9,0,1.5,0.3c1.6,0.9,0.8,0.1,3,1
		C173.5,241,173.6,241.1,173.8,241.1z M143.2,270c-0.1-0.1-0.1-0.3-0.1-0.4c0.1-0.4,1.3-2.7,1.5-3.2c2.5-5.3,2.3-3.6,3.6-6.3
		c0.3-0.7,0.7-1.4,1.3-1.8c1.1-0.8,1.7-1.8,2.5-2.8v0.3c-0.4,0.8-0.6,1.6-0.9,2.5c-1.5,5.5-4.7,8.6-6.3,10.7
		C144.5,269.4,143.7,269.7,143.2,270z M147.9,248.7c-0.5,0.9-0.9,0.6-3.2,0.6c-5.8-0.1-4.9,0.2-5.8-0.3c-0.5-0.3-0.9-0.4-1.5-0.4
		c-0.2,0-0.3,0-0.4,0c0.7-0.6,1.2-0.7,1.9-0.7c1.7,0.2,3.2-0.3,4.9,0.6c0.7,0.3,1.6,0.1,2.4,0.2
		C146.7,248.6,147.3,248.6,147.9,248.7z M120.7,274.5c-0.1-0.1,0,0-0.1-0.1c0-0.1,0.1-0.4,0-0.5c0,0,0.1-0.1,0.1-0.2
		c1.6-2.1,3.9-5.6,10-9.9c0.1,0.2,0.2,0.6,0.3,0.8c0.1,0.2,0.2,0.4,0,0.7C128.6,268.4,124.1,275.2,120.7,274.5z"/>
	<path d="M385.3,241.3c2.5,0.8,2.8,5.3-2.5,8c-9.8,5.3-21.3,4-27.3,14.4c-1.3,2.4-2.2,5.7-0.6,8c2,2.8,3.7,2.6,5.1,2.6
		c3.3-0.7,3.1-4.1,0.8-4.3c-1.4,2.3-2.5-4.7,3.4-8.4c3.2-2.1,6-2.9,8.3-3.8c9.2,5.2,3.4,26.8-14.9,31c-14,3.1-22.7-9-19.5-22.2
		c3.7-15.6,19.6-24.8,27.6-26.3c2.2-0.8,1.8-4.8-0.2-5.8c-21.8-6.3-19.9-33.7-8.6-37.1c7.5-2.4,9.2,5.5,5.4,6.3
		c-0.5,1.2-0.3,2.2,0.6,3.1c0.8,0.9,1.9,0.8,3.3-0.3c4.6-3,4.6-11.5-4.5-13.7c-20.7-2.8-35.5,30.5-5.4,45.9
		c-37,14.7-36.5,55.5-6.8,55.5c14.2,0,29.1-8.7,31.7-22.7c1.2-6.1,1.2-12.1-3.9-15.2c8.9-2.7,14.5-4,14.5-11.8
		C391.3,239.3,384.9,238.8,385.3,241.3z"/>
	<path d="M598.2,260.6c-2-1.4-3.8-2.9-6.2-3.1c-0.4,0-3.8-2.3-4.2-2.5c-1.8-1.1-3.4-2.1-5.3-2.7c9.4,0,9.1,0.2,10.8-0.8
		c0.4-0.2,0.8-0.4,1.1-0.9c1.3-1.8,1.3-2.7,0-4.3c-1.5-2-2.7-2.1-4.1-2.2c-1.4-0.1-0.9-1.1-2.6-0.5c-0.1,0.1-0.2,0.1-0.3,0.2
		c-0.5,0.4-3.1,0.4-3.8,0.4c-0.9,0-2.2,1-2.9,0.8c-0.7-0.2-1.2,0.1-1.7,0.3c-1.2,0.6-2.5-0.1-3.6,0.6c-1.4,0.7-3.7,0.2-4.7,1.1
		c-0.4,0.2-0.7,0.2-0.8,0.1c-0.9-0.7-1.5-0.4-2.3-0.8c-1.6-0.9-2.3-0.5-3.4-1.5c0.6,0,1.1-0.2,1.6-0.4c1.6-0.7,2.3-0.1,4.5-3.4
		c1.7-2.2-0.3-6.7-4.8-6.7c-1.3,0.2-2.5-0.2-3.8,0.3c-0.9,0.4-2.2,0.3-3.3,0.8c-1.3,0.7-4.3,1.9-5.5,2.3c-3.9,1.5-3.5,1.9-8,3.5
		c-1.8,0.5,1.4,1-12.5,0.5c0,0,0,0,0,0c0,0,0,0,0-0.1c1-0.6,0.8-0.8,2.3-1.4c3.2-1.3,6.8-5.6,6.1-7.5c-0.3-1.4-0.7-3-2.5-3.7
		c-2.8-0.9-3.5-1-6.6,0.6c-4.7,2.2-6.2,5-11,11.1c0,0-0.4,0.4-0.5,0.4c-2,0-4.1,0-6.2-0.1c8.9-5.2,4.4-12.6-2.8-11.6
		c-0.6,0.5-1.1,0.6-1.8,0.8c-3.7,0.8-13.6,9.7-15.4,11.4c-1.1,0.9-5.7-0.3-7.3,0.9c-0.2,0.1-1,0.1-1.2,0.2c-7.2,0-7.9-0.3-9.2,0.6
		c-1,0-2.4,0.1-3.5,0.1c0,0-0.1-0.1-0.1-0.1c0,0,1.9-1,4.1-2.8c4.7-3.8,6.4-9.7,1.2-10.6c-0.6-0.1-1.1-0.2-1.5-0.5
		c-0.3-0.2-0.7-0.1-1.1,0.1c-0.2,0.1-0.7,0.4-0.9,0.4c-1.4-0.2-2.4,0.7-3.7,1.4c-3.1,1.3-6.6,7.1-6.9,10.2c0,0.1-0.1,0.3-0.2,0.4
		c-0.9,1.7,0.7,1.2-1.9,2.9c-2.1-0.4-4.2,1.1-6.2,0.6c0.2-0.3,0.4-0.5,0.7-0.7c2.9-2,5.3-6.4,3.9-10.9c-1.6-5.5-7.6-4.9-10.7-1
		c-13,15.5-1.2,12.7-13.6,12.7c-2.6,0-1.2-0.7-3.5-0.6c0,0-2-0.1-4-0.1c-1-1-1.8-0.4-2.9-0.8c1.8-2.2,7.8-5.3,9.2-9.6
		c1.2-3.1-1.4-5.1-2.8-5.1c-5.4,0-5.1-0.2-6.3,0.8c-3.8,1.6-4.8,2.4-7.2,5.6c-2.6,3.8-1.4,2-2.3,5.1c0.1,0.1,0.2,0.4,0.2,0.5
		c-0.1,0-0.3,0-0.4,0c-0.2-0.1-1.5-0.9-1.8-1.1c-1.3-0.8-2.6-1.5-3.5-3c-0.3-0.6-1-0.7-1.7,0.2c-1.6,2,3.7,5.7,5.7,6.2
		c5.4,1.1-0.8,9.5,5.6,18.3c6.7,9.6,14.2,2.8,8.2-6.3c-1.8-2.5-3.4-5.4-5.4-7.7c-0.2-0.3-0.4-0.7-0.6-1.1v-0.1
		c0.1-0.1,0.1-0.1,0.1-0.2c1.4,0.9,2.5,0.2,3.7,0.8c1.5,0.9,2.7,0.1,4,0.6c2.6,1.1,5.4,0.6,8.1,0.8c0.6,0,0.7,0,0.7,0.8
		c-0.4,3.4,3.2,12.6,10.1,19c0.8,0.8,1.9,1.2,2.7,2c0.8,0.7,1.5,0.4,2.5,0.4c0.9-0.2,2.1-1.9,2.1-3c0-0.2,0-0.2,0.1-0.3
		c0.6-4.7-1.8-7.1-3.7-9.6c-1.4-1.9-2.8-3.8-4.5-5.3c-0.7-0.5-1.3-1.3-1.9-2.1c-0.1-0.2-0.5-0.8-0.7-0.9c-0.2-0.1-0.3-0.1-0.5-0.1
		c0-0.1,0-0.1,0.1-0.1c0.1,0,0.2,0,0.4,0c1.8,0,0,1.5,2.3,1.5l0.6-0.2c1.4-0.8,1.3-1.6,4.6-1.3c1.3,0.1,1.5,0,2.3-0.3
		c1.5-0.6,3.8-0.2,6.5-0.5c0.5,0,0.6,0.1,1,1c1.6,5.4,16.2,19.9,19.5,14.2c3.2-5.5-7.9-12.1-13.7-16c0.1-0.3,0.3-0.5,0.6-0.6
		c6.7,0,3.1-0.8,9.3-0.8c1.5-0.1,3.1,0.3,4.6-0.8c5.5,0,4.4-0.4,5.1,1.6c0.5,1.4-0.1,2.3,1.4,4.6c1.2,1.4,5.1,7.1,13,10.7
		c1.2,0.4,2.7-0.4,3.4-1.7c0.5-0.8,0.3-3.2-0.6-4.4c-3.3-4.7-2.3-2.9-5.3-5.4c-2.7-2.3-1.7-0.9-4.7-2.8c-0.7-0.5-1.5-1-2.4-1.2
		c-0.4-0.1-1.2-0.9-1.5-1.1c0,0,0-0.1,0-0.1c0,0,0-0.1,0-0.1c0.9,0,1.8,0,2.7-0.2c0.6,0,1,0.2,1.6,0c0.7,0,1.3,0.1,1.8-0.4
		c0,0,0.1,0,0.2,0.1c0.2,0.1,0.7,0.3,1.2-0.1c0.4-0.4,25.2-0.2,25.7-0.2c1.8-0.2,2.3,1.5,3.5,5.2c1.4,3.3,4.8,7.1,6.4,8.6
		c1.8,1.7,3.8,2.2,5.8,3.1c2,1.3,5.2-2,3.7-5.6c-0.7-1.6-2.1-4.3-2.7-5.2c-0.9-1.4-0.7-2.2-4.4-4.8c-0.2-0.2-0.4-0.3-0.5-0.5
		c0.1,0,5.3,0,5.5,0c2.9-0.1,3.7,0.8,5.4,0.8c0.2,0,0.2,0.2,0.3,0.4c1.3,4.3,0.7,13.9,12.6,18.6c1.7,0.9,4-0.8,4.8-2.6
		c0.8-3-6.8-12.7-10.6-15.6c0.8,0,2.7,0.6,3.6,0.7c2.4,0.3,1.3,0.8,3.4,0.8c0.9,0,1.4,0.1,2,0.6c1.3-0.2,2.4,0.7,3.6,0.9
		c1,0,2,0.6,2.9,1c4,2,1.3,8.9,7.8,17c6.1,8.7,12,6.8,9-1.1c-0.9-2.5-4.6-9.1-6.4-10.8c-0.3-0.3-0.7-0.6-0.8-1
		c1-0.1,2.1,0.8,2.9,1.2c2.7,0.9,5.8,3.5,7.6,4.1c0.6,0.1,1.8,1.4,1.8,1.8c0.3,1.7,1.6,3.8,2.5,5c5.3,7.2,8.1,11.6,13.9,10.9
		C610.2,278,616.6,273.4,598.2,260.6z M597,265.3c-0.2-0.4-0.1-0.5,0-0.8l0.3-0.8c6.2,4.3,8.5,7.8,10,9.9c0,0.1,0.1,0.2,0.1,0.2
		c0,0,0,0.5,0.1,0.5l-0.1,0v0.1C604.3,275.9,598.5,267.2,597,265.3z M583.3,249.3c-2.3,0.1-2.7,0.3-3.2-0.6c0.6-0.1,1.2-0.1,1.8-0.1
		c0.8-0.1,1.6,0.2,2.3-0.2c1.1-0.6,2.2-0.6,3.4-0.5c1.8,0,2.3-0.3,3.5,0.6c-0.1,0.1-0.6,0-0.8,0c-0.9,0.2-1.4,0.8-2.4,0.7
		C586.4,249.2,584.9,249.2,583.3,249.3z M584.9,269.6c0,0.1,0,0.3-0.1,0.4c-0.5-0.2-1.3-0.6-1.6-1c-1.7-2.2-4.8-5.2-6.3-10.7
		c-0.2-0.8-0.5-1.7-0.9-2.5v-0.3c0.9,1,1.4,2,2.5,2.8C579.2,258.8,584.3,267.5,584.9,269.6z M551.3,248.6c1.4,1.1,0.9-0.2,5,4.2
		c3.5,3.8,3,4.3,5,7.1c0.2,0.4,0.3,0.9,0.4,1.3c0,0,0,0,0,0c-0.6,0.1-1.3-0.3-1.9-0.7c-1.9-1.1-2.6-1-6-5.7
		C551.8,252.2,551.8,250.4,551.3,248.6L551.3,248.6z M565.3,239.5c-1.1,0.2-1.8,0.7-2.8,0.9c-0.5,0-1,0.2-1.5,0.3
		c-1.9,0.6-5,0.4-6.8,0.4c0.2-0.1,0.3-0.1,0.5-0.2c2.2-0.9,1.4-0.1,3-1c0.6-0.3,0.9-0.5,1.5-0.3c0.4-0.3,0.6-0.4,1.8-0.6
		c2.2-0.2,3-1.9,5.2-0.1C565.9,239.1,565.6,239.5,565.3,239.5z M527.1,238.1L527.1,238.1c4.4-4,3.7-3.6,6.1-4.4
		c0.8-0.2,1.5-0.5,2.1-0.8c0.1,0,0.1,0,0.2,0.2c0,0,0.2,0,0.2,0c0,0,0,0.1,0,0.1C534.3,235.2,529.5,237.3,527.1,238.1z M541.1,257.1
		c0,0.1-0.1,0.4-0.2,0.4c-4.5-0.9-9.2-8.2-9.9-10.3C539.8,251.8,538.1,251.6,541.1,257.1z M506.8,238.9c-1.2,0.4-2.5,1-3.7,0.8
		c1.4-1.5,2.9-2.4,4.4-3.4c1.8-1.1,2.3-1.7,4.1-1.9c1.2-0.1,2.3-0.2,3.4,0C513.3,237.3,509.3,238.1,506.8,238.9z M492.5,249.4
		c0.5,0,1,0.6,1.4,0.8c0.8,0.7,1.6,0.5,2.2,1.3c0.8,0.8,1.6,1.2,2.5,1.8c3.2,2.7,2.3,2.3,3.7,3.5c0.3,0.2,0.5,1,0.7,1.3
		c-0.2,0-0.6,0.1-0.7,0c-1.2-1.4-6.4-4.2-8.6-7.4l-0.2-0.2C493,250.3,492.7,249.9,492.5,249.4z M478.7,259.8c0,0,0,0.1,0,0.2
		c-1.4-0.8-5.4-1.2-12.3-10.6c1.1,0.4,2.1,0.9,3,1.5C476.2,256.4,474.4,255.4,478.7,259.8z M467.6,241.9c0-0.9,2.4-5.3,4.7-6.7
		c2.7-1.7,3.3-1.5,5-1.5c0.2,0,0.2,0,0.2,0.3l0,0.1l0.1,0.1c0,0,0,0.2-0.1,0.3c-2.3,3.4-6.7,5.6-9,7.2
		C468.3,241.8,468,241.9,467.6,241.9z M453.5,242.4c-0.8,0.7-3.2,2.8-4.2,3.2h-2.5c6.1-10.3,6.6-10.5,9.2-11.9
		c0.2-0.1,0.9,0.5,0.9,1C457.5,239.8,455,241,453.5,242.4z M446.5,254.7c0.5,0.6,1,1.3,1.6,1.7c2,1.5,3.2,4.3,4.7,6.6
		c0.9,1.5,0.7,4.2-0.1,3.8c-1-0.8-2-1.4-2.9-2.2c-3.5-3.9-5.9-8.6-7.1-13.9C443.8,251.4,444.4,251.7,446.5,254.7z M420.3,248.1
		c1.8,2.2,3.2,5.1,4.8,7.4c1,1.4,1.7,3.4,2.3,5.2c0.2,0.5,0.1,1-0.2,1.5c-0.3,0.4-0.6,0.5-1.1,0.3c-3.9-2.8-2.3-1.4-4.8-5.8
		C420.7,254,419.8,251.1,420.3,248.1z M419.7,241.9c-0.1,0-0.1-0.2-0.1-0.2c-0.1-0.2-0.1-0.2,0-0.4c0-0.5,3.4-3.6,3.9-3.9
		c1.5-1.2,2.5-1.1,3.9-1.9c0.4-0.2,0.8-0.5,1.3-0.4c-0.1,0.2-0.4,0.6-0.4,0.6c-0.5,0.3-0.9,0.6-1.3,0.9c-1.5,1.7-1,1.8-6.3,5.1
		C420.3,241.9,419.9,241.9,419.7,241.9z"/>
	<path d="M288.1,134.9c0,8.8-15.3,11.5-22.8-5.4c-3.8-8.8-4.2-20.9-3.9-30.5c0.3-4,0.1-5.1-0.1-5.3c-2.8,1.3-22.4,39.1-23.2,40.5
		c-1.6,2-3.9,3-6.8,2.8c-4.4-0.2-5.4-1.1-5.4-7.8c0-17.7,4-28-4.8-13.6c-10,17.3-16.9,32.3-16.9,32.3c-2.8,2.7-9.4,0.6-10.5-2.8
		c-2.1-12.9,1.2-49.7,8-65.8c5.4-3.3,8.5-4.4,10-0.8c-0.1,1.4-6.3,46-6.5,55.2c3.5-6.8,8.6-20.3,16.7-29.4
		c6.4-7.7,16.1-6.5,15.1,21.4c2-3.5,16.3-38.6,27.8-39.8c18-2.1,5.1,44.6,15.3,50.6c2.9,1.7,4.7,0,3.5-1.7c0.2-1.2,1.1-1.7,2.3-2
		C287.2,132.6,288,133.4,288.1,134.9z M457.8,98.3c-0.3-4.4-2-7.8-5-10.2c-8.1-6.7-15.7,1-21.3,10c-6.3,10.3-11.6,23.8-13.2,29.1
		c-0.2-1.4-0.3-4-0.3-8.9c0-45.1,2.8-50.1-8.6-43c-7.2,16.9-4.3,59.5-0.7,76.7c0.5,1.1,2.5,2.6,4.4,2.6c2.6,0,5.3-2.2,5.6-4.2
		c1.5-23.6,21.4-59.8,27.5-59.8c5.2,0.3,2.1,12.5,1.2,14.3c1.4,2.9,4.6,4.6,7.3,2.6C458.1,105.1,457.8,101.1,457.8,98.3z M395.9,90
		c2,2.1,2.6,4.4,1.1,6.9c-1.5,3.5-7.4,3.8-8.4,1c1-3.3-1.1-6.7-5.2-2.4c-5.7,5.8-14.5,25.2-15.9,46.7c-0.6,1.9-2,3.1-4.1,3.8
		c-0.1,0-1.3,0.4-1.5,0.4c-1.8,0-3.9-1.6-4.5-2.8c-1.5-7.6-3.7-20.8-4.3-29.7c-9.3,14-26.7,33.3-43,28.6c-20.9-5.6-20.9-39.9-5-54.8
		c4.9-4.8,10.5-5.6,16.8-3.1c13.5,5.4,4.3,26.6-13.9,26.8c-9.3,37.8,19,34.4,44.7-7.2c0.1-6.8,0.8-17,3.9-23.1
		c0.6-0.7,4.3-2.7,5.8-2.7c0.9,0,2,0.4,2.6,2.2c0.2,1.4-0.4,31.6,1.4,39.6c2.1-9.6,5.1-18,10.8-25.9C383.2,85.5,393,86.7,395.9,90z
		 M309.3,106.5c5.2-0.2,9.4-4.5,11.7-9.5c1.4-2.8,2.9-6.9,0-8.1C316.3,87,310.8,101.7,309.3,106.5z M525.1,129
		c19.5,89.9-51.4,119.9-68,80.2c-3.7-8.2-2.4-16.5,0.8-25.3c3.2-8.7,9.1-18.5,25.9-32.4c9.5-7.7,19.7-15,30.3-21.8
		c-3.5-16.7-7.7-22.4-12.2-33.6c-1.3,3.5-11.7,37.2-22.6,35.8c-19.1-3.2-8.4-39.5-7.5-40.9c2.4-2.3,5-2.4,7.6-0.4
		c1.6,1.2,3.6,2.9,4.6,4.6c0,5.2-3.8,25.6-1.9,27.5c3.3,3,16.2-32.2,18-39c1.2-1,2.5-1.7,4-1.7c1.2,0,4.2,1.3,6.2,3.6
		c1.5,2.2,9.3,21,13.4,38c16.3-11.3,21.2-20.1,22.6-21.3c2.5-1.4,4.5-0.8,6.1,1.1C546.5,111.4,540.9,116.9,525.1,129z M515.1,135.9
		c-14.4,9.7-29,18.9-41.3,32.3c-22.9,25.6-9.6,58.5,11.8,51.1C502.3,213.5,522.5,177.1,515.1,135.9z"/>
	<path d="M285.7,357.5c-6-1.7-10,1.8-13.3,7.1c-5.7,9.7-9.4,22.6-10.5,28.5c-0.5-6.2,0.2-38,0.5-45.2c-1.5-3.5-4.6-1.9-7.7,0.4
		c-3.2,6.7-3.9,17.4-4.2,24.9c-4.4,3.9-14.6,8.5-20,11c2.8-24.8-19.5-40.3-35.8,8.5c-1.5,4.8-2.4,8.5-2.9,10.8
		c-2.8-11.3-4.5-22.1-5-32.2c14.4-16.8,57.7-56.5,49.2-77.1c-4.1-10.4-28.2-20.7-48,12.1c-20.2,34.5-15.1,80.8,0.8,117.8
		c2.2,1.7,6.1,0.8,7.3-2.1c-0.4-3.6-0.6-3.4-0.6-6.9c-0.6-13.7,14.5-48.6,20.2-49.3c2.1-0.1,3.6,10,2.6,20c-0.1,1.3-0.2,2.6-0.4,3.8
		c-13.4,5.9-19.4,15.8-14.8,20c5.7,5,21.9-1.6,26.3-19.5c6.4-2.8,15-6.7,20.8-10.5c0,12.9,1.6,27.5,3.4,37.1
		c3.8,4.4,8.5,0.9,9.4-1.8c0,0,0.3-5.2,1.7-12.2c4.9-21,15-45.8,19.9-40.3c2,2.3,0.2,10.4-0.6,12.3c0.7,1.8,3.4,4.5,6.5,2.2
		C295.8,373.4,294.4,360.2,285.7,357.5z M226.9,290.9c20.4,10-25.9,56.5-40,71.8C188.4,309.7,212.9,283.4,226.9,290.9z M211,405.5
		c-6.2,4.3-5.8-3.5,5.8-9.7C215.8,399.5,214.4,403.4,211,405.5z M311.4,347.2c0-8.5,7.5-6.7,8.7-5.3c2,2.2-1.5,9.2-5.6,9.2
		C312.4,351,311.4,349.5,311.4,347.2z M567.7,323c-1.7,0.4-1.7,1.9-1.3,3.6c0.1,0,0.5-0.2,0.6-0.1c0,0,0.1,0.2-0.1,1
		c-0.5,1.1-1.9,2-4.3,2.8c-13.2,3.9-22.9,0.4-41.1-1.5c0.5-1.9,3.5-16.7,3.3-18.1c-0.5-2.4-1.7-3.6-3.3-3.6c-1.9,0-5.7,1.8-6.3,2.6
		c-1.7,3.9-3.6,9.9-5.5,17.7c-9.1-0.7-17.5-0.7-25.3,3c-5.7,2.7-6.4,5.4-6.3,7.7c0.4,2.7,1.8,4.8,4.3,4.8c1.7,0,4.1-3.1,1.1-4.4
		c-0.6,0.2-0.9,0.2-1-0.8c-0.4-1.6,10.5-7.7,26.1-5.9c-3.2,13.4-4.9,26.2-5.9,39.5c-9.6,13.2-22.5,28.4-25.1,27.3
		c-9-3.3,0.6-40.1-17.3-37.1c-10.1,1.6-21,38.3-23.8,46.2c-3-12.4-4.6-24.5-4.8-36c20.9-21.4,49.5-51,51.3-71.5
		c2.3-22.9-39.8-35.3-58.3,24.8c-4.7,15.8-5.7,33.9-4.7,49.5c-6.3,8.8-14.9,14-24.4,19.8c0.6-8.7,2.5-50.7-5.8-49.7
		c-0.6,0-1.3,0.2-1.8,0.4c-6,2.6-2.6,1.3-14.9,24.9c-1.3,2.7-13.6,27.7-16.6,26.8c-2.4-0.8-1.3-10.2-0.9-12.7
		c2.9-18.3,7.9-17.3,7.4-15.6c-0.1,0.3-0.3,1.2-0.7,1.4c-1.6,2.6,4.8,3.2,6.3,0.4c2.4-4.5-15.1-19.1-23.1,5.2
		c-5.5,7.5-24.1,34.8-30.1,28.5c-6.6-6.1,1.4-40.2,0.7-42.9c-1.3-2.7-6.8-3.4-9.6-0.1c-7.4,12.1-6.6,49.8,8.9,49.8
		c9.2,0,22.8-17.1,28.4-24.3c0.3,7.9,3.3,14.8,11.1,16.1c9.9,1.2,25.5-34,29.4-43.1c0.7,13.5,0.8,28-0.4,41.5
		c-21.6,11.9-62.5,31.3-62.5,59.1c0,29.9,63.7,48,73.6-59c8.9-5.1,18.6-11.7,25.7-18.9c1.3,11.7,3.8,24.3,8.6,38.8
		c2,0.9,3.6,1,5.7,1c2.3-0.1,3.8-1.4,4.6-3.8c2.5-15.4,17.9-49.6,20-51.4c1.2,2.4-2,34.4,15.1,38.1c7.8,1.2,23-17.8,27.7-24
		c-0.1,9.2,0.9,20,4.1,28.7c2.4,6.6,6.4,10.6,12,11.9c5.2,1.2,10.6-3,14.3-6.9c15.2-15.5,27.7-38,30.4-43.8
		c-1.3-1.8-3.7-2.3-5.9-1.1c-3.6,8.4-28.5,50-36.5,46.3c-13.8-5.9-2.9-67.7,0-82.4c9.2,1.2,47.1,7.7,51.6-4.1
		C573.8,323.4,569,322.3,567.7,323z M444.5,306.1c16-30.8,35.2-21.4,32.2-4.4c-5.1,23.1-42.1,58.6-45,62.4
		C432,344.9,435.5,322.7,444.5,306.1z M351.4,471.3c-7.5,3.1-13.8,3.3-18.9,0.5c-5.2-2.7-6.4-9.3-3.7-19.6
		c3.6-13.1,15.8-22.2,27.5-29.6c12-7.5,26.1-14.8,27.2-15.2C380.5,431.7,374.2,462.3,351.4,471.3z"/>
</g>
</svg>
