<?xml version="1.0" encoding="utf-8"?>
<!-- Generator: Adobe Illustrator 21.0.2, SVG Export Plug-In . SVG Version: 6.00 Build 0)  -->
<svg version="1.1" id="Layer_2" xmlns="http://www.w3.org/2000/svg" xmlns:xlink="http://www.w3.org/1999/xlink" x="0px" y="0px"
	 viewBox="0 0 731 516.6" style="enable-background:new 0 0 731 516.6;" xml:space="preserve">
<style type="text/css">
	.st0{fill:#26BF31;}
	.st1{fill:#DE0319;}
</style>
<g>
	<path d="M611.7,405.2c-0.6-0.4-1.8-0.2-2.5,0.5l-0.1,0.2c-4.7,13.3-17.5,22.9-33.6,25.2c-0.6-3.4-1.6-6.9-2.6-10.5
		c-1.7-6-3.4-12.2-4-19.5c-0.2-2.5,0.8-5.1,2.6-7.1c1.3-1.4,2.9-2.2,4.2-2.2c0,0,0,0,0,0c1.6,0,3.2,1.2,3.8,2.9c0.9,2.3,0,5-2.6,7.4
		c-0.4,0.4-0.4,1,0,1.5c0.5,0.5,1.6,0.7,2.6-0.1c2.2-1.7,3.6-3.8,3.9-6.2c0.5-3.7-1.5-6.7-5.4-7.9c-5.3-1.7-13.2,0.2-16.4,6.3
		c-1.4,2.7-1.5,6.4-0.9,10.6c-6.6,12.3-25.9,24.3-30.6,24.9c-0.4,0.1-0.7-0.1-1-0.4c-2.6-3.5,3.1-23.9,6-29.8
		c0.3-0.5,0.2-1.1-0.1-1.6c-0.9-1.3-4-1.7-6.3-1.3c-1,0.1-2.2,0.5-2.7,1.2c-8.2-1.6-15,0.2-19,5.2c-1.4,1.8-2.4,3.9-3,6.1
		c-8,13.2-27.1,23.8-30.5,23.5c-0.2,0-0.3-0.1-0.3-0.1c-0.2-1.9,1.2-6.4,2.8-11.7c3.4-11,7.7-24.7,2.1-29.3c-1.4-1.2-3-1.6-4.7-1.3
		c-5.9,1-12.3,10.4-17.4,18.5c2.3-8,2.2-12.9-0.1-14.2c-1.7-0.9-4.2,0.3-6.3,3.2c-2.1,2.7-4.2,7.3-6.5,12.1
		c-0.3,0.6-0.5,1.1-0.8,1.7c0.6-4.7,1.6-12.8,1.6-14.4c0-1-1.7-1.2-2.3-1.2c-1.9-0.1-5.9,0.2-6.1,2.2l-0.5,6
		c-5.2,14.1-27.6,40-34.7,40c0,0-0.1,0-0.1,0c-1.8-2.5-0.8-37.1,3-60.4l23.9,0.1c0,0,0,0,0,0c0.4,0,0.8-0.2,1-0.6
		c0.3-0.6,0.3-1.4,0-1.8c-0.2-0.3-0.5-0.5-0.8-0.5l-23.9-0.1c0.7-4.5,1.4-7.4,1.8-9.3c0.7-3.2,0.8-3.7-0.7-4.3
		c-2.1-0.7-5.9-0.6-6.9,1c-0.3,0.3-0.8,1.4-2.4,12.5c-6,0-10.4-0.1-13.6-0.1c-8.7-0.1-8.7-0.1-9,0.5c-0.3,0.4-0.3,1-0.2,1.5
		c0.2,0.4,0.5,0.7,0.8,0.8l21.6,0.2c-0.9,4.8-2.2,18.4-2.6,23l0,0.5c-7.3,14.3-21.2,19.1-31.8,20.6c-0.6-3.3-1.5-6.8-2.4-10.5
		c-1.5-5.8-3.1-12.5-3.9-19.8c-0.3-2.7,0.8-5.4,2.8-7.1c1.4-1.2,3.1-1.8,4.4-1.4c2.2,0.6,3.4,1.8,3.7,3.7c0.7,4.5-4,11.6-8.4,14.4
		l-0.1,0.1c-0.4,0.4-0.4,1,0,1.4c0.5,0.5,1.5,0.7,2.7-0.1c4.6-3.4,10.8-10.7,8.9-17.1c-0.8-2.8-3.5-4.7-7.2-5.1
		c-4.5-0.5-10.6,1.5-13.5,6.9c-1.5,2.8-1.5,6.7-0.8,11.1c-5.5,12.6-23.7,23-30.7,22.8c-0.1,0-0.2-0.1-0.2-0.2
		c-1.8-2.8,1.1-20.3,3.2-28.9l0-0.1l0-0.1c-0.3-1.8-3.1-2.4-4.9-2.3c-5,0.2-5.3,2.7-5.7,5.5c-0.1,0.4-0.1,0.8-0.2,1.3
		c-0.1,0.4-0.2,1.4-0.4,2.8c-5.9,12.9-24.5,23.6-32.9,25c-1.3-1.4,4.5-19.6,5.5-21.9c0.1-0.5,0.1-1-0.2-1.5c-0.9-1.4-3.8-2-6.8-2.6
		c-1.8-0.4-3.7-0.7-4.7-1.3c0.8-2.1,1-4.9-0.3-6.5c-0.6-0.8-1.9-1.7-4.3-1.4c-3.3,0.5-3.7,2.3-3.7,3.4c0,2,1.8,4.4,4.3,6.3
		c-6,13.9-26.3,29.3-33.1,31.4c-2-1.9,0.2-8,2.5-14.5c2.7-7.6,5.8-16.2,3.1-20.9c-1-1.7-2.8-2.8-5.2-3.3c-3.4-0.6-11.9,9.1-18,18.8
		v0c-1.2,1.9-2.1,3.5-2.7,4.6c0.1-0.5,0.2-1.2,0.3-1.9c0.6-3.8,1.7-10.8,3-21.9c15.4-12,19.2-23,16.1-28.6
		c-1.8-3.3-5.8-4.2-10.5-2.5c-10.7,3.9-14.5,23.1-16.1,39.2c-6.7,14.8-27.8,33.7-38.3,33.8c-3.3-0.1-6.9-2.2-9.9-5.9
		c-2.7-3.4-8.6-12.9-5.6-29c15.5-2.8,23.2-11.4,25.2-18.6c1.2-4.3,0.4-8.2-2.2-10.5c-2.8-2.5-7.3-2.6-12.5-0.3
		c-10.5,4.5-16.6,17.1-18.9,27.5c-9.4,0-13.4-4.7-14.1-8.8c-0.7-4.2,2-9.6,9.6-12.1c1.3-0.4,3.4-0.2,4.5,0.2
		c0.1,0.1,0.2,0.1,0.3,0.1c0,0.4,0.2,0.7,0.9,1c1,0.5,2.7,0.3,3.5-0.5c0.4-0.4,0.5-1,0.2-1.5c-1.1-2.4-7.8-3-11.2-1.9
		c-6.2,2-12.4,7.6-11.1,15c0.9,5,5.8,10.8,16.9,10.8c0,0,0.1,0,0.1,0c-1.7,14.2,2.5,27,11.1,33.6c3.6,2.8,7.7,4.2,11.9,4.2
		c2.7,0,5.5-0.6,8.2-1.7c10.1-4.2,23.1-15.5,30.7-27.9c-0.2,2.7-0.3,5.2-0.5,7.3c-0.2,3.1-0.3,5.5-0.5,7l0,0.2l0.1,0.2
		c0.7,1.2,2.6,1.7,4.1,1.8c0.7,0,2.9,0.1,3.8-1.1c0.7-0.8,1.8-2.7,3.4-5.2c4.1-6.7,10.9-17.7,17.3-22.6c-0.2,1.5-1.5,5.2-2,6.6
		l-0.3,0.8c-3.9,10.9-7.8,23-4.1,28.6c1.2,1.8,3.2,2.8,6,2.9c6.1-0.9,28.8-15.5,36.5-33c1.2,0.6,2.5,1.1,3.8,1.4
		c-4.2,8.7-6.7,19.2-3.1,23.6c1.2,1.5,2.9,2.2,5.2,2.2c1.1,0,2.3-0.2,3.7-0.5c9.2-2.4,22.8-10.4,30.5-21c-0.4,6.6-0.3,14.5,2.5,17.7
		c0.8,0.9,1.8,1.4,3,1.4c0.1,0,0.1,0,0.2,0c7.6-0.2,26.7-8.7,34.8-22c0.9,3.8,2.2,7.8,3.4,11.6c1,3.2,2,6.3,2.7,9.1
		c-5.1,1.3-10.2,4.3-9.9,9.2c0.1,1.7,1.1,3.1,2.7,3.9c2.8,1.3,6.9,0.7,10-1.5c1.9-1.4,5-4.5,4.5-10.3c13-1.6,24.1-7.7,30.8-16.9
		c-1.1,13.6-1.9,25.2,2.1,30.7c1.3,1.7,3,2.6,5.1,2.6c0.4,0,0.8,0,1.2-0.1c10-1.5,26.1-20.2,34.2-34.6l-0.5,5.8
		c-0.1,0.4,0,1.2,1.3,1.7c2.1,0.7,6.8,0.1,7.7-1.3c0.7-1,1.7-3.3,3-6.2c2.5-5.4,6.2-13.5,8.5-15.3c0.3,1.1,0,5.3-1.2,9.9
		c-0.6,2.3-1.2,3.7-1.6,4.7c-0.6,1.5-0.9,2.3,0.3,3.3c0.3,0.2,0.6,0.4,1,0.6l-0.5,1.4l0.8-1.3c1.2,0.5,2.5,0.6,3.8,0.4
		c1.8-0.3,2.3-1.2,4.8-5.6c6.6-11.6,10.6-17.6,11.8-18c0.1,0.2,0.2,1-0.4,3.9c-0.4,2-1.1,4.6-1.9,7.6c-2.8,11-6.7,26.1-2.7,30.8
		c0.9,1,2,1.5,3.5,1.5c0.2,0,0.4,0,0.6,0c0,0,0.1,0,0.1,0c4.2,0,21.1-7.9,31-21c0.2,1.1,0.5,2.2,0.9,3.3c1.3,2.9,3.5,4.6,6.3,4.7
		c0,0,0,0,0.1,0c1.7,0,8-8.5,12-14.6c-2.3,8.6-3.5,21.4,4.2,24.6c0.4,0.2,0.8,0.2,1.3,0.2c3.5,0,10.1-3.5,15.7-7.4
		c7.2-5,13.3-11,17.3-16.8c0.9,3.9,2.2,8,3.4,12.1c1,3.3,2,6.5,2.8,9.5c-6.5,1.6-8.7,4.6-9.4,6.3c-0.7,1.7-0.6,3.6,0.3,5
		c0.9,1.4,2.8,2.2,5,2.2c1,0,2.1-0.2,3.2-0.5c4-1.1,8.7-4.8,8.9-11.2c13.9-1.7,30.3-10.8,36.1-27.5
		C612.3,405.9,612,405.4,611.7,405.2z M219.1,377c2.9-6.9,5.3-7.8,6.5-7.6c1.4,0.1,2.3,1.6,2.5,2.5c1.2,5.6-5.6,15.3-13.3,22.3
		C215.4,390.2,216.6,382.9,219.1,377z M158.3,384.7c3.6-5,7.3-7.8,10.1-7.8c0.5,0,0.9,0.1,1.3,0.2c2,0.7,3.1,3.1,2.8,6.3
		c-0.4,5.5-5.6,15.6-22.2,19.4C151.8,396.2,154.7,389.6,158.3,384.7z M265.7,402.1c-0.6-0.8-1.5-2.3-1.6-2.6
		c-0.1-0.4,0.1-0.5,0.2-0.6c0.1-0.1,0.2-0.1,0.4-0.1c0.3,0,0.7,0.1,1,0.4C266.2,399.8,266.3,400.8,265.7,402.1z M350.2,441.6
		c-1.2,0.4-2.1-0.2-2.6-1.5c-0.2-0.5-0.4-1.4,0.2-2.6c0.6-1.2,2.2-2.9,6.2-4C354.6,437.6,352.3,441,350.2,441.6z M510.9,421.8
		L510.9,421.8c-0.3-0.1-0.6-1.7,0.5-5.4c1.5-5.1,6.3-14.6,13.4-15C522.1,405.8,512.3,420.6,510.9,421.8z M563.4,442.4
		c-0.8,0.2-1.4-0.1-1.7-0.8c-0.3-0.7-0.2-1.6,0.2-2.5c0.9-1.7,3-3.2,6.2-4.2C567.9,438.9,565.3,442,563.4,442.4z M312.1,382.5
		c0.4-1.3,1.8-2.8,4.3-2.6c2,0.1,3.3,1.1,3.7,2.6c0.3,1.4-0.4,3-1.7,3.7c-0.8,0.4-1.6,0.6-2.4,0.6c-1,0-2-0.3-2.8-0.9
		C312.1,385.2,311.7,383.8,312.1,382.5z"/>
	<path d="M532.1,101.3c-0.6-0.4-1.7-0.2-2.4,0.6l-0.1,0.1l0,0.1c-3.2,9.8-17.6,13.8-27.1,16.5c-2.2,0.6-4.1,1.2-5.7,1.7
		c1.6-21.1,2-27.3,2-30.3c0-1-1.1-1.8-2.9-2.2c-2.1-0.4-4.6,0-5.4,1.9c-0.1,0.3-0.3,1-0.6,2.2c-0.3,1.4-1,3.9-1.3,4.4
		c-3,5.6-8.2,12.9-12.3,16.9c-2.6,2.6-3.6,2.9-4,2.8c-0.4-0.2-0.7-1.4-0.8-3.5c-0.3-5.6,1.2-17,1.8-21.3c0.1-0.9,0.2-1.5,0.2-1.7
		c0.2-1.4-0.8-2.5-2.8-2.9c-2.3-0.4-5.6,0.2-6,2.6c-0.1,0.6-0.2,1.3-0.3,2.1c-0.5,3.2-1.1,7.7-1.4,12.2
		c-7.7,13.9-28.1,28.5-34.6,28.6c-0.8-1,1-8.9,5.3-23.5c0.4-1.3,0.7-2.4,0.9-3.1l0.1-0.3c0.6-2,0.2-2.9-7.2-6.3
		c-0.9-0.4-1.8-0.8-2.5-1.3c2.2-5.1,0.4-10.1-2.7-12.1c-2.1-1.3-4.5-1.1-6,0.5c-1.8,2-1.5,5.4,0.8,8.9c0.9,1.4,2.2,2.8,3.8,4
		c-6.2,14.2-26.6,23.9-34,23.9c-0.1,0-0.2,0-0.3,0c-0.1-0.1-0.9-0.9,1.7-10.3l0.1-0.2c0-0.1,0.1-0.4,0.3-0.9
		c3.3-10.7,3.2-10.8,3.1-11.1c-0.5-1.3-2.6-1.9-5.2-2.6c-1.8-0.5-3.9-1.1-5-1.9c1-2.5,0.8-5.3-0.4-7c-0.9-1.3-2.3-1.9-4-1.6
		c-2.1,0.3-3.4,1.6-3.4,3.5c0,2,1.3,4.5,3.3,6.5c-8.1,13.1-26.6,21.8-30.6,20.8c-0.5-0.1-0.9-0.5-1.3-1.1c-2.2-4,0.2-16.1,1.4-20.7
		c5,0.2,9.9-0.8,11.6-2.5c0.4-0.4,0.7-0.9,0.7-1.4c0.1-2.4-0.6-4.4-2.2-5.8c-2.4-2.2-6.6-3-11.5-2.1c-4.4,0.8-8.2,6.1-10,13.6
		c-8.9,13.1-33.2,29.4-46,31.7l-0.1,0.1c-0.5,0.2-0.6,0.1-0.7,0c-3.8-4.2,12.5-63.8,15.3-69.6l0.1-0.2c0-0.3,0-0.8-0.8-1.2
		c-1.6-0.8-6.7-0.9-8,0.7l-1.7,2.4c-13.4,18.9-21.3,30-28.1,41.2c4.7-23.1,3.9-37.9-2.5-43.9c-1.7-1.6-3-2.5-4.1-2.8
		c-1.3-0.3-6.7-1.2-8.3,0.1c-0.3,0.3-0.5,0.6-0.5,1c-0.3,1.6-0.7,4-1.3,7.1c-3.2,18.5-10.8,61.7-19.3,64.1
		c-4.4,0.2-8.2-1.5-10.4-4.7c-2-2.9-2.5-6.8-1.3-10.4c2.2-6.5,9.3-9.8,11.3-10c2.4-0.2,2.8,0.3,3.3,0.8c0.3,0.3,0.6,0.6,1.2,0.9
		c1.7,0.7,3,0.3,3.6-0.4c0.5-0.6,0.7-1.3,0.4-2.1c-0.3-0.7-1.4-2.4-5.8-2.4c-5.6,0-11.8,3.5-15.1,8.6c-2.5,3.8-3.3,8.4-2.1,12.5
		c1.2,4.2,4.3,7.4,8.6,9.2c4.8,1.9,9.2,1.7,13-0.6c12.7-7.8,17.5-38,20.9-60c0.5-3.2,1-6.3,1.5-9.1c8.1,5.1,4.9,28,3,41.8
		c-1.2,8.4-1.5,11.1-0.4,11.6c0.6,0.3,1.2-0.3,1.4-0.6c2.6-3,8-11.2,14.4-20.8c5.2-7.9,11.1-16.7,15.7-23.2
		c-5.3,13.6-15.7,43.6-11.6,57.2c0.8,2.7,2.3,4.6,4.3,5.5c1.1,0.5,2.4,0.7,3.7,0.7c4.1,0,9.1-2.2,13.7-4.5
		c9.7-4.9,23.6-14.5,31.9-24.2c-0.3,6,1,12.4,5.5,15.6c1.4,1,3.2,1.5,5.4,1.5c1.4,0,3-0.2,4.8-0.6c9-2.2,21.8-10.5,29.2-22
		c0.9,0.6,1.9,1.1,3,1.4c-2.1,4.8-5.8,20,0.5,24.4c2,1.4,6.3,1.3,11.6-0.4c9.7-3,23-10.9,28.9-23.5c0.8,0.6,1.2,0.8,1.6,0.9
		c0.2,0.1,0.3,0.1,0.5,0.2c-2.3,5-10.1,25.7-2.3,31.9c1.2,1,2.9,1.5,4.9,1.6c0.1,0,0.1,0,0.2,0c6.5,0,24.9-11.3,34.9-26
		c0.3,5.3,1.5,9.7,4.9,11c6.8,2.4,17.3-11.6,21.1-17.1c-1.1,6.6-1.3,11.4-1.5,15.1c-0.1,2-0.2,3.7-0.4,5
		c-10.9,6.1-17.3,15.5-17.7,25.7c-0.2,6.8,2.3,12.9,6.6,15.7c1.5,1,3,1.4,4.6,1.4c1.6,0,3.2-0.5,4.7-1.4c7.4-4.4,8.6-17.6,10.1-32.9
		c0.2-2.5,0.5-5.1,0.8-7.7c1.5-0.5,3.5-1.1,5.7-1.7c10.3-2.9,27.6-7.7,30.5-19.6C532.7,102.2,532.6,101.6,532.1,101.3z M347.9,91.9
		c0.9-2.7,2.5-4.4,4.3-4.4c0,0,0,0,0,0c1.5,0,2.8,1.2,3.4,3.1c0.3,1.2,0.1,1.3-0.5,1.6c-1.8,0.8-5.1,1.1-7.7,1
		C347.6,92.8,347.7,92.4,347.9,91.9z M378.9,93.3c-0.1-0.2-0.3-0.3-0.4-0.5c-1.1-1.5-1-2.4-0.8-2.6c0.1-0.1,0.2-0.1,0.3-0.1
		c0.1,0,0.3,0,0.4,0.1C378.9,90.5,379.3,91.5,378.9,93.3z M422.2,94.8c-2-2.2-3-5-2.9-6.5c0-0.3,0.1-0.6,0.3-0.7c0,0,0.1,0,0.2,0
		c0.2,0,0.5,0.1,0.9,0.5C421.6,88.9,423,91.3,422.2,94.8z M479.6,163.1c-2.8-0.4-5.3-4.2-6.2-9.2c-1.4-8.2,1.5-19.4,13.8-26.8
		C486.6,141.5,484,163.1,479.6,163.1z"/>
	<g>
		<path class="st0" d="M172.8,146c0.3-0.8,5.5-11.4,5.8-11.4c20.9,29.5,57.2,37.3,57.1,36.9c-3.7-36.1,7.2-38.1,7.4-37.8
			c29.9,30.2,49.6,27.7,49.6,27.7c-1.8-17.5,5.3-26.1,6.2-26.5c29,28.8,57.1,25.5,59.6,26.4c-1.3,2.1-25,18.7-28.2,58.7
			c-0.9,0.3-11.7-1.7-21.9-16.1c0,0-11.7,7.4-17.3,34.7l-28.6,0.2c-1.3-1.7-2.6-3.5-4-5.5c-0.1,0-1.7,2-3.9,5.6l-70.9,0.6
			C169.5,207.8,164.1,170.8,172.8,146z"/>
		<path d="M214,325.4c0,19.7,16,35.6,35.6,35.6s35.6-16,35.6-35.6c0-19.7-16-35.6-35.6-35.6S214,305.7,214,325.4z M240,325.4
			c0-5.3,4.3-9.6,9.6-9.6s9.6,4.3,9.6,9.6c0,5.3-4.3,9.6-9.6,9.6S240,330.7,240,325.4z M461.4,325.4c0,19.7,16,35.6,35.6,35.6
			c19.7,0,35.6-16,35.6-35.6c0-19.7-16-35.6-35.6-35.6C477.3,289.7,461.4,305.7,461.4,325.4z M487.4,325.4c0-5.3,4.3-9.6,9.6-9.6
			c5.3,0,9.6,4.3,9.6,9.6c0,5.3-4.3,9.6-9.6,9.6C491.7,335,487.4,330.7,487.4,325.4z"/>
		<path d="M563.8,280.4c10,4.7,9.5,21.8-0.8,25.7c-1-1.2-1.7-2.9-1.7-4.6C561.3,283.6,560.7,283.5,563.8,280.4z"/>
		<path class="st1" d="M156.6,246.7v69.2c0,3.9,3.1,7,7,7c6.7,0,5.4,6.9,12.1,6.9h34.1c-2.6-24.1,16.2-44.5,39.8-44.5
			s42.4,20.4,39.8,44.5h167.8c-3.1-21.8,14.7-44.5,39.8-44.5c23.6,0,42.4,20.4,39.8,44.5h22c3.9,0,7-3.1,7-7
			c0-8.7,0.8-11.8-2.8-14.4c-1.7-1.2-4.6-2.8-4.6-6.9c0-21.6-1.3-17.4,6.7-25.4c3.3-3.3,2.6-8.7-1.5-11c-4.6-2.7-3.5-1.4-9.4-22.7
			c-0.8-2.8-3.2-4.9-6-5.1l-98.5-10.1c-2.5-0.3-4.6-1.9-5.7-4.2l-14.6-32.9c-4.9-11.1-15.9-18.2-28-18.2h-40.2
			c-10,0-18.1,8.1-18.1,18.1v40.8c0,3.5-2.6,6.4-6,6.9v-20.3H166.1v22.2h-2.6C159.7,239.7,156.6,242.8,156.6,246.7z M433.2,321
			l4.2-23.9c4.1-23,24-39.7,47.3-39.7h56.3c3.3,0,3.3,4.9,0,4.9h-56.3c-20.9,0-38.8,15-42.4,35.6l-4.2,23.9
			C437.5,325,432.7,324.2,433.2,321z M423.8,233.3h-52.4c-5.2,0-9.4-4.2-9.4-9.4v-23.1c0-6.9,5.6-12.6,12.6-12.6h28.3
			c9.1,0,17.3,5.5,20.6,14l7.9,20C433.4,227.6,429.5,233.3,423.8,233.3z M356,252.4h23.2c4,0,4,6,0,6H356
			C352.1,258.4,352.1,252.5,356,252.4z M171,222.4h49.7V239l-49.7,0.6V222.4z M225.7,239v-16.6h50.8v16L225.7,239z M332.3,222.5
			v15.5l-50.8,0.6v-16H332.3z M163,313.7l0.9-11.7c1.9-23.7,21.2-42,44.9-42.6l49.8-1.2c23.8-0.6,44,16.7,47,40.3l2.4,18.9
			c0.4,3.3-4.5,3.8-4.9,0.6l-2.4-18.9c-2.6-21-20.7-36.5-41.9-36l-49.8,1.2c-21.2,0.5-38.4,16.9-40.1,38l-0.9,11.7
			C167.7,317.5,162.8,317.1,163,313.7z"/>
	</g>
</g>
</svg>
