<?xml version="1.0" encoding="utf-8"?>
<!-- Generator: Adobe Illustrator 21.0.2, SVG Export Plug-In . SVG Version: 6.00 Build 0)  -->
<svg version="1.1" id="Layer_1" xmlns="http://www.w3.org/2000/svg" xmlns:xlink="http://www.w3.org/1999/xlink" x="0px" y="0px"
	 viewBox="0 0 731 516.6" style="enable-background:new 0 0 731 516.6;" xml:space="preserve">
<g>
	<path d="M156.2,149.4c-18.3-9.7-23.9-36.2-23.1-56.9c1.5-36.4,19.8-58.5,31.4-62.3c6.5-1.2,9.9,1.4,5.6,5
		c-17.9,10.6-38.9,80.3-13.1,104.1c52.5,48.4,80.3-189.1,14.2-70.1c-4.6,9-15.3,31.8-7.4,38.1c2,1.6,2.8,1.2,3.9-0.3
		c4.2,1.2,3.5,3.4,0.1,5.9c-5.3,3.7-15.1-0.3-15.5-14.2c-0.4-25.3,18.1-55.9,37.1-67C243.3,0.5,212.2,180.6,156.2,149.4z
		 M345.4,87.4c1.5-3.4,0.6-5.5-3.5-5.7c-3.5-0.1-5,2.5-5.2,6C336.6,92.3,341.9,93.8,345.4,87.4z M438.9,91.3
		c1.5-3.4,0.6-5.5-3.5-5.7c-3.5-0.1-5.1,2.6-5.2,6C430,96.3,435.4,97.7,438.9,91.3z M586.2,119.1c-4.6,10.1-24.5,41.7-36.2,41.4
		c-12.3-0.3-17.8-19.9-19.4-32.1c-29.2,38.7-44.7,38.5-39.8-11.3c-4.9,7.3-17.5,25-25.8,22.2c-5.2-1.7-7-5.8-7.3-11.2
		c-5,5.8-9.8,11.1-16.1,15.7c-14,10.8-20.9-1.1-21-18.6c-36.7,45.2-55.6,17-54.8-2.9c-5.4,6.4-11,12.6-17.7,17.6
		c-14.3,11-21.4-1.8-21-20c-8.5,7.4-18.1,14.4-28.2,20.1c3.3,2.9,5.7,6.3,7.1,10.3c6.9,18.9-14.2,33.1-25.5-5
		c-11.4-1.4-12.5-10.1-2.5-12.2c-1.1-6.4-1.7-15-1.8-21c-9.5,5.8-25,13.8-35.5,18.2c11,8.4,12,29.3-0.7,33.9
		c-11.5,4.2-15.9-16.3-17.6-28.3c-2,0.3-3.9,0.3-5.5,0.1c-5.8-1.5-6.1-10.9,4.5-11.9c-2-48.1,18.4-112.5,51.3-99.8
		c28.4,10.3-19.3,59.4-39.7,80c-0.9,7.3-1.3,14.4-1.2,21c1,0.4,2.1,0.8,3.1,1.4c16.8-7,38.3-18.5,41.5-20.9
		c2-85.4,66.7-81.9,56.5-49c-7.7,24-35.3,43.1-44.4,49.7c-0.5,8.6-0.1,20.3,0.6,28c1.6,0.5,3.2,1.3,4.9,2.2
		c14.5-7.5,28.6-20.2,33.9-24.8c0.7-4.3,1.8-8.9,4.2-12.5c2.3-2.6,7.2-2.9,9.3,0.4c0.6,1.4-0.9,7.2-1.2,8.7
		c-10.6,51.4,9.9,24.7,27.6,2.8c3.1-10.7,11.7-23.6,22.7-20.6c13.6,3.6,8,19.5,1.8,20.6c-1.6,0.2-2.6-0.5-2.9-2
		c-0.5-1.6-0.3-2-0.1-2.8c3.1-0.9,4-9.6,1-11.1c-1.6-0.7-6.6,7-9.8,16.9c-11.8,34.6,6.5,48.1,41.1,2.3c0.6-3.4,2.1-9.2,4.2-11.5
		c4-3.4,8.3-1.5,9.2,0.8c0.6,2.5-7.6,31.9-2.3,37.3c4.7,5.3,22.6-18.6,27-24.1c1.7-4.8,4.5-9.1,8.3-12.5c11.1-9.8,25.1,6.5,13.1,9.7
		c-1.9,0.3-3.7-2.6-2.5-4c0.4-0.3,0.6-0.4,0.5-1.4c-0.1-0.7-0.4-0.7-0.6-0.7c-6,0.6-12.4,24.4-10.6,25.4
		c2.7,1.7,19.8-20.9,27.9-37.6c1.6-1.2,3.6-1.2,5.7-1.1c7.3,0.3,4.5,6.1,0.3,35.9c-0.4,2.7-2.9,19.7-0.7,20.2
		c5,0.9,27.7-29.8,28.9-31.4c-1.6-29,7.7-79.6,36.7-78.3c27.5,2.5,10,33.9-7.3,55.4c-9.2,11.6-16.6,19.9-18.2,21.5
		c0,9,2.6,34.6,10.1,36.1c7.9,1.5,26.8-31.4,28.9-36.6C582.4,116.7,584.8,117,586.2,119.1z M289,98.7c21.5-16.8,18-15.6,23.5-20.9
		C355,31.3,297.3,19.2,289,98.7z M234.5,93.8c12.5-13.2,52.1-54.6,36.1-64.6C257.9,21,241,60.3,234.5,93.8z M221.7,130.7
		c-0.1-0.6-0.1-1.3-0.2-1.9C216.9,129.4,218.7,131.1,221.7,130.7z M235.1,132.4c-1.1,0.4-2.1,0.8-3,1.1c2.1,17.9,9.8,21.9,9.8,21.9
		c0.9-0.2,1.3-1.8,1.2-4.3C242.9,142.9,241.5,137.2,235.1,132.4z M279.2,139.9l-0.4-1.9c-1.1,0.3-1.7,0.8-2,1.4
		C276.8,139.4,277.6,139.8,279.2,139.9z M293.6,142.7c-1.1,0.5-2.1,0.9-3.1,1.2c1.2,4.8,2.5,10.1,5,14.4c3.1,4.9,4.5,5.3,4.9,5.3
		C302.4,163.5,303.3,150.2,293.6,142.7z M541.1,108.7c9.6-11,36.8-42.4,32.9-56.9c-1-3.7-4.2-5.5-7.3-5.6
		C557.1,46.1,543.1,72.3,541.1,108.7z"/>
	<path d="M180.4,320.9c-9.3,23.9-33.3,25.8-46.7,7.5c-15.3-20.1-11.9-57.7-3.1-81.6c14.1-37.1,37.2-35.1,43.7-29
		c8.4,7.3,5.6,22.2,4.9,23.8c-1.5,2-4.2,0.5-5.1-1.1c0.6-13,0.5-18.6-6.2-20.5c-14.5-4.7-30.3,37.3-31.1,73.6
		c0.2,44.6,21.5,46.1,30,37.5c6-6.1,7.2-10.7,8-12.3C175.8,317.2,179.9,317.4,180.4,320.9z M314.4,230.5
		c19.9,27.2,2.7,108.8-25.8,108.2c-21.6-0.5-31.9-39-25.7-75.1c4.5-24.6,19-42.2,28.5-41.5C301,218.9,308.4,222.6,314.4,230.5z
		 M296,227c-16.1,10.1-21.2,45.6-21.1,64.8c0,32.6,13.2,51.9,26.7,32.2C319.3,297.3,320.9,222.8,296,227z M216.3,333.9
		c-37.6-0.8-32.7-106.4,5.2-112.3c0.3-0.2,0.4-0.2,0.7,0c0.7,0.1,1.4,0.4,1.9,0.9C268.2,220.8,255.2,334.7,216.3,333.9z
		 M224.7,228.3c-0.2,0.1-0.3,0.2-0.5,0.2c-3.8,0.7-7.3,5.1-10.5,13l0,0c-16.2,39.7-11.8,104.2,12.6,82
		C250.5,302.6,249.5,227.5,224.7,228.3z M362.8,271.2c11.8,13.7,24.7,40.7,32.1,44.3c2.8,1.4,3.8,1.1,4.1,0.9
		c0.8-0.8,0.7-1.2,0.6-1.6c0.4-1.3,1.1-1.8,2.3-1.6c1.4,0,2,1.3,2.2,2.7c0.2,1.5-0.7,3.3-2.9,5.6c-2.2,2.4-5.5,2.8-10,1.1
		c-9.8-3.2-16.7-17.8-31.8-43.6c-0.4,19.4-1.4,43.8-0.6,60.4c0.2,5.1-8.2,9.5-9.2,4.3c-2-29.8-1.4-49.1-1-70.3
		c-7.1,0.3-16.4-0.3-17.4-6.9c0.2-9.9,9.3-11,18-6.9c2.1-38.2,3.1-38,7.6-40.4c1.8-1.2,3.7-1,4.6,1c1.1,3-1.4,42.7-1.6,45.8
		c18.1-3.5,44.6-17.2,48.5-32.7c0.9-3.7,5.4-3.8,6.5,0.4C411,252.8,382.1,266.3,362.8,271.2z M349.1,264.9c-3.4-2.5-11-4.9-12.1-2.1
		c-0.7,2,1.6,2.8,3.7,3.3c2.6,0.6,5.3,1,8.2,1C349,266.3,349,265.6,349.1,264.9z M425.7,233.4c-0.1,5.1,6,11.7,9.4,1.8
		c0.5-1.3,0.8-2.5,0.8-3.5C436.1,226.5,425.9,226.9,425.7,233.4z M427.4,251.9c-4-0.1-4.1,1.3-5.7,9.1c-2.6,14.7-4.8,42.3-1.2,74.3
		c1,2.6,2.7,3.4,5,2.8c2.4-0.7,3.6-2.1,3.6-4.2c-1-25.1-0.7-44.1,1-56.5C432.9,256.4,432.8,252.8,427.4,251.9z M485.1,329.9
		c-1.8,0.3-26.2,3.8-27.5,4c-0.8-3,0.7-33,0.8-37.5c14.6-2-2.4,0.2,21.1-2.9c1.5-0.6,1.4-4.6,0.2-5.4c-5.5,0.6-10.6,1.3-20.8,2.7
		c0.7-12.5,3-48.4,5.4-60.4c1.5-0.3,5.1-0.3,11-0.2c11.3,0.4,13.5,0.9,12.8-2c-0.3-1.3-1.3-2.3-2-2.6c-6.5-1.4-29.8-2.1-32.1,0.9
		c-3.8,6.5-13.6,111.2-3.3,113.2c8.6,0.2,32.1-3.3,36.3-4.6C488.2,333.3,487.4,330.6,485.1,329.9z"/>
	<path d="M285.4,431.6c18-16.5,37.6-57.6,17.4-71.3c-6.1-3.7-17.8-4.6-28.2,2c-9.3,6-14.4,12.8-18,17.3c0.3-2.3,2.1-15.5,0.9-17.6
		c-0.5-0.6-1.6-1.2-2.7-1.2c-1.9,0-5.2,3.3-6.3,4.9c-1.7,4.6-9.1,60.6-0.8,109.9c0.8,1.9,2.5,2.8,5.2,1.2c9.8-4.8-4-4.8,2.4-85.8
		c8-12.8,22.2-30.9,37.3-29.5c11.6,1.1,6.1,30.4-2.7,49.4c-5.5,12.1-10.3,16.7-11.7,18.5c-4-0.9-9.1-0.4-13.1,0.3
		c-16,2.4-5.6,21.1,15.6,5.8c3.7,2.7,5.1,6.6,5,11.1c0.2,17.7-16.7,25.7-18,22.4c-0.8-1.9-0.3-2.4,0.5-2.7c0-1.4-0.9-2.1-2.3-2.4
		c-1.5-0.3-2.6,0.3-3.2,1.9c-4.3,12,21.5,9.7,30.7-6.2C301.5,446,293.3,433.9,285.4,431.6z M268.1,435.8c-1.7,0.4-5.9,1.4-5.9-0.4
		c0-3.5,9.3-3.3,12.6-2.7C273.2,433.8,271.1,435.2,268.1,435.8z M340.7,362.1c-8.1,1.6-9.1,1.1-22.5,57.9c-1.8,8-3.4,15.8-4.9,23.2
		l0,0c-1,5.7-2.7,15.7-2.6,18.1c0,4.1,4.7,3.3,6,1.3c0,0,2.9-17.3,4.7-25.4l27.1-2.8c0.5,2.6,6,33.9,7.2,36.3
		c3.7,4.3,11.3,3.6,10.7-0.5C350.9,413.6,353.4,362,340.7,362.1z M322.4,432.5c4.4-20.2,4.5-23.5,13.6-57.6
		c4,0.2,11.2,50.7,11.8,54.6C337.3,430.8,328.7,431.8,322.4,432.5z M445.8,374.6c-3.5,14.3-31,35.7-51.6,43.4l-0.3-0.2
		c0-1.6,1.4-53.6,0.5-55.8c-1.2-1.7-2.7-1.6-4.5-0.7c-4.1,2.2-4.4,3.2-5.2,15.3c-1.1,12.8-1.2,35.3-1.2,37.2
		c-12.6-1.7-17.5,4.4-16.4,9.3c1.4,5.5,11,4.6,16.6,3.4c0.2,22.8,2.5,47.2,3,48.8c1.2,2.5,2.9,2.5,5.2,1c2.4-1.6,3.5-3.3,3.4-5
		c-1.4-20.6-1.1-43.8-1.2-47.2c17.9,19.1,26.7,31.2,38.8,31.1c3,0,5.1-0.9,6.1-2.7c4.2-6.7-2.2-9.6-3.6-6c0.5,0.5,0.1,1.2-0.3,1.8
		c-0.3,0.5-1.3,0.8-4.7,0c-6.7-2-13.8-15.7-30.7-27.1c22.9-10.1,49.2-30.4,52.4-46.7C450.7,371.2,446.6,371.5,445.8,374.6z
		 M383.5,421.1c-3.4,0.6-12.5,1.1-11.6-2.1c0.7-2.4,9-2.2,11.5-1.3L383.5,421.1z M472.9,365.1c-1,11.6-1.7,24.7-1.9,33.4
		c13.5-2,18.3-2.6,20.7-2.9c1,0.6,1.3,3.7,0.1,4.6c0,0-8.9,1.2-21,3.1c-0.1,3.9-0.9,58.5,1.3,60.8c0,0,24.6-4.2,24.7-4.3
		c2,0.5,3,2.4,1.9,4.2c-7,1.5-29,5-35.6,5c-8.9,0.1-2.7-100.9,1.2-107.5c1.5-1.8,19.1-1.9,21.4-1.9c14.2-0.1,14.6,0,14.7,2.6
		c-0.1,0.5-0.3,1.5-0.6,2C498.2,364.2,474.6,364.6,472.9,365.1z M582.7,375.7c-0.2-21-32.9-27.9-55.1,3.2
		c0.7-14.4,1.8-18.7-1.8-18.6c-1.9,0-5.3,2.6-6.3,3.9c-3.8,8.3-5.1,43.3-5.3,57.1c-16.1-4.5-18.9,11.6,0.1,13.8
		c0.3,15.5,2.2,36.2,2.7,37.8c1.2,2.3,3.1,3,5.5,3c6.9-0.4,1.6-2.6,1.9-40.9l2.5-0.3c8.5,9.1,23.4,25.4,33.4,18.1
		c4.9-3.6,3.3-8,0.8-7.8c-1.7,0.2-2.2,0.8-2.3,1.6c0.4,0.5-0.2,1-0.7,1.4c-5.7,3-17.1-9.6-23.9-14.9
		C562.7,423.2,582.9,394.8,582.7,375.7z M514.3,429.8c-4.6-0.5-7.3-1.4-8.1-2.8c-2-3.3,4.6-3,8-1.9L514.3,429.8z M530.6,428.3
		l-1.7,0.6c0,0-2.1-1.5-4.2-2.9c0-0.4,1.3-24.8,2.1-35.8c21.1-36.5,51.3-36.3,42.8-5.8C564.9,402.2,549.5,422.1,530.6,428.3z"/>
	<path d="M488.2,177.6l-24.6,5.1c-0.1-3.2-3.4-4.2-5.2-3.3c-2-7.2-8.7-12.4-16.7-12.2l-199.5,5.5c-7.9,0.2-14.3,5.7-15.9,12.9
		c-2.8-0.5-4.5,1.4-4.5,3.7l-24.9-3.7c-6.2-1-11.8,4-11.6,10.3s6,11,12.2,9.6l24.6-5.1c0.1,2.8,2.7,4.1,4.7,3.4
		c2.1,7.2,8.8,12.3,16.6,12.1l199.5-5.5c7.9-0.2,14.3-5.8,15.9-13.1c1.8,0.8,5-0.5,4.9-3.6l24.9,3.7c6.2,1,11.8-4,11.6-10.3
		C500.1,181.1,494.3,176.4,488.2,177.6z M249.8,207.2c0,1.8-2.7,1.9-2.8,0.1c-0.8-27.3-1.3-27.4,0.6-27.5
		C249.6,179.8,249,180.1,249.8,207.2z M256.4,207.1c0,1.8-2.7,1.9-2.8,0.1c-0.8-27.3-1.3-27.4,0.6-27.5
		C256.3,179.6,255.7,179.9,256.4,207.1z M352.9,191.9c-3.1,3.4-6.5,6.8-9.7,10.3c-0.2,0.2-10.2-9.4-10.4-9.5
		c-4.9-5.6,1.4-14.7,9.6-9.6C351.4,177.1,357.2,187,352.9,191.9z M430.8,203.6c-2,0-1.4-0.3-2.2-27.4c0-1.8,2.7-1.9,2.8-0.1
		C432.2,203.5,432.7,203.6,430.8,203.6z M437.6,203.5c-0.8,0.1-1.5-0.6-1.4-1.3c-0.8-27.3-1.3-27.4,0.6-27.5
		c0.8-0.1,1.5,0.6,1.4,1.3C439,203.3,439.5,203.4,437.6,203.5z"/>
	<path d="M160.1,389.1l28.8,80.2c5.4,14.5,26.2,6,21.1-7.4l-28.8-80.2c-2.1-6.1,3.5-12.4,9.9-9.9c4.6,1.7,4.8,4.9,8.3,14.3
		c2.1,5.9,8.5,8.9,14.3,6.7c5.9-2.1,9-8.4,6.7-14.3c-3.6-10.2-5.9-20.2-18.7-26.5C177.2,339.9,151.1,363.8,160.1,389.1z
		 M176.2,425.5c-1.8-4.5-3.1-8.5-4.4-12.1l17.6-1.5l4.3,12.1L176.2,425.5z M198.1,436.4l4.3,12.1l-17.6,1.5c-1.7-4.4-3-8.3-4.4-12.1
		L198.1,436.4z M167.2,401.1c-1.9-5.5-3.2-9.4-4.2-12.3l17.4-1.4l4.4,12.3L167.2,401.1z M172.5,357.1l8.3,15.2
		c-0.7,0.8-1.2,1.7-1.7,2.7l-17.7,1.5C162.2,368.3,166.4,361.4,172.5,357.1z M200.8,382.5l16.2-5.2l0.9,2.2
		c1.7,4.4-0.8,9.3-5.2,10.8c-4.4,1.6-9.1-0.7-10.6-5C201.6,384.3,201.3,383.4,200.8,382.5z M192.2,369.2c-0.1,0-0.3-0.1-0.4-0.1
		l-2.2-17.4c7.5,0.3,14.9,3.8,20.1,9.8l-13.2,10.6C195.3,371,194.1,370,192.2,369.2z M189.2,462.1l17.6-1.5l0.8,2.1
		c1.7,4.4-0.8,9.3-5.2,10.8c-4.4,1.7-9.3-0.8-10.8-5.2C190.9,466.3,190.1,464.3,189.2,462.1z"/>
	<path d="M587.7,308.3c-7.1-9.3-6.8-25.8-6.8-25.8s-1.4-13.8,13.8-15.3c15.2-1.8,20-4.9,20-4.9s11.4-5.1,7-20.5
		c-4.3-15.4-36.5-6.6-37.3-8.7c-0.8-2.1,9.7-7.8,10.5-22.5c-0.4-26.3-25.2-29.7-25.2-29.7l0,0c0,0-24.4-5.4-33.9,19
		c-4.5,14.2,3.4,23,1.8,24.7s-28.5-17.8-37.9-4.9c-9.5,12.9-0.4,21.6-0.4,21.6s3.3,4.5,16.9,11.5c13.6,6.9,7.6,19.4,7.6,19.4
		s-5.5,15.5-15.4,21.7c-10,6.2-12.1-0.6-20.3,5.1c-8.2,5.6-5.3,14.9-5.3,14.9c-0.7,11.8,17.6,21.1,33.5,15.3
		c11-6.1,20.7-11.1,29.3-10.6c8.1,3.2,15.9,12,22.4,19.9c0,0,9.7,7.9,21.8,7.1c12.2-1,15-9.8,15-9.8s6-7.7,0.3-15.8
		C599.1,312,594.7,317.6,587.7,308.3z M594.5,235.4c2.7,0.8,5.4,2,5.9,5.1c0.6,3.7-1.9,3.6-2.4,5c-0.4,1.2-0.2,0.4,0.7,1.4
		c1.4,1.1,3.8,2.5,2.9,6.8c-0.1,0.6-1.9,4.8-1.4,4.9c2.7,0,3.2,4.5,0.4,4.3c-2.3-0.1-4.1-1.1-4.6-3.3c-0.9-3.2,2.7-6.3,0-9
		c-1.3-1.5-3.2-1.8-3.2-4.3c0-0.9,0.3-1.7,0.9-2.5c0.2-0.4,0.9-0.6,1-1c0.2-0.2,0.4-0.5,0.9-0.6c-0.6-0.9-1.2-1.5-1.8-2.3
		C591,238.9,591.7,234.6,594.5,235.4z M524.1,227.3c-0.2-0.2-0.1,4.9-0.4,5.3c-0.2,1-0.4,1.8-1.3,2.4c-1.4,1.3-1.6,0.5-3.2,1
		c-2.1,0.6-1.2,1.4-0.9,3.2c0.9,5.3-2,7.9-7.3,8.2c-2.7,0.1-3.2-4.2-0.4-4.3c3.2-0.1,3.3-1.9,2.9-4.8c-0.9-5.8,2.8-5.9,4.4-6.6
		c2.6-1,0.5-0.9,1.3-4.8c0.9-3.8,4.5-5.2,7.4-2.9C529.1,225.7,526.3,229,524.1,227.3z M577.9,203.5c-0.9,5.2-8.8,3.7-7.7-1.4
		C571,197,578.8,198.2,577.9,203.5z M520.5,321.3c-0.5-1.9,0.9-4.3-0.7-5.6c-1.8-1.7-7.3,1.1-5.9-6.9c0.6-3.1-0.8-2.9-3.3-3.8
		c-3.9-1.3-4.1-5-2.1-9c1.3-2.4,5.2-0.6,3.9,1.8c-2.2,4,5.8,2.3,6,8.6c0,0.9-0.9,3.2-0.6,3.9c0.4,0.9,4.9,1.7,6.1,3.4
		c1.8,2.5,0.1,4.6,0.7,7.1C525.4,323.5,521.2,323.9,520.5,321.3z M556.3,195.6c5.2,0.9,3.7,8.8-1.4,7.7
		C549.6,202.4,551.1,194.7,556.3,195.6z M542.9,291.4c1.5-8.6,14.7-6.5,13.2,2.4C554.5,302.3,541.5,300.3,542.9,291.4z M546.9,268.7
		c1.5-8.6,14.7-6.5,13.2,2.4C558.6,279.8,545.4,277.5,546.9,268.7z M556.1,255.3c-8.6-1.5-6.5-14.7,2.4-13.2
		C567,243.6,565.1,256.9,556.1,255.3z M576.8,220.8c-7.6,9.9-22,8.1-28.2-2.4c-1.5-2.4,2.2-4.9,3.6-2.4c4.8,8.2,15.2,9.8,21.2,2
		C575.2,215.6,578.6,218.5,576.8,220.8z M579.1,324c-2.5,5.7-5,3.5-7,3.7c-3.2,0.2-3.2,1.7-3.5,4c-0.4,2.8-4.6,1.9-4.3-0.7
		c1.4-9.9,6.8-7.1,9.1-7.4c2.2-0.1,1.9-4.2,3.8-5.7c2.6-2.1,6.5-0.4,7.4-4.6c0.5-2.7,4.8-2,4.3,0.7C586.9,324,582.1,317.6,579.1,324
		z"/>
</g>
</svg>
