<?xml version="1.0" encoding="utf-8"?>
<!-- Generator: Adobe Illustrator 21.0.2, SVG Export Plug-In . SVG Version: 6.00 Build 0)  -->
<svg version="1.1" id="Layer_1" xmlns="http://www.w3.org/2000/svg" xmlns:xlink="http://www.w3.org/1999/xlink" x="0px" y="0px"
	 viewBox="0 0 731 516.6" style="enable-background:new 0 0 731 516.6;" xml:space="preserve">
<path d="M166.9,294.4c-4.7,12.9-16.7,23.9-29.2,22.2c-38.1-6.5-39.3-65.1-26.7-101.7c18.6-52.3,60.8-42,52.8-6.9
	c-0.9,2.1-4.3,1.5-5.7-0.9c0.1-4.1,0-8.2-0.4-13.6c-0.9-11.3-18.7-19.9-32.2,24.9c-9.8,33.5-11.3,86.7,13.5,91.7
	c5.1,1.1,9.5-0.3,13.3-4.3c6.4-6.8,7.5-11.8,8.4-13.6C161.9,290.4,166.2,290.6,166.9,294.4z M320.9,231c0,48.6-18.1,80.2-35.7,80.2
	c-36.7,0-44.6-101.6-4.9-126c1.2-0.8,3-1.1,5.2-1C306.2,177,320.9,199.4,320.9,231z M290.6,189.5c-26.9,17.6-29.1,113.1-3.2,114.3
	c1.8,0.1,3.7-0.6,5.7-2.2C316.9,283.7,320.7,183.7,290.6,189.5z M238.8,207.2c10.3,23.5,4.1,75.5-17.3,94.1
	c-29,24.5-53.7-22.1-41.6-76.7c3.7-16.2,13-36.3,29.3-39.2c0.3-0.2,0.5-0.2,0.7,0c0.8,0,1.5,0.4,2.1,0.9
	C225.3,185.5,233.6,195.1,238.8,207.2z M213,192.6c-0.2,0.1-0.4,0.2-0.6,0.2c-4.1,0.9-7.9,5.7-11.1,14.3
	c-14.8,29.7-13.2,116.4,15.6,89C242.9,272.8,239.7,190.9,213,192.6z M420.2,193.8L420.2,193.8c-3.8,21.4-35.1,36.6-55.8,42.3
	c13.3,14.8,21.6,33.2,31.7,44.1c1.5,1.6,2.9,2.7,4.3,3.4c3.1,1.4,4.2,1.1,4.5,0.8c0.8-0.9,0.8-1.3,0.6-1.7c0.4-1.6,1.2-1.8,2.5-1.8
	c1.2,0,2.1,1,2.5,2.8c0.3,1.6-0.7,3.6-3,6.2c-2.4,2.6-6,3.2-10.9,1.5c-10.3-3.1-17.3-16.9-35.6-46.8c0,17.7-0.5,48,0.8,65.8
	c0.3,5-7.8,10.7-9.9,5c-2.4-10.9-2.7-65.5-2.7-76.7c-7.7,0.5-17.8,0.1-19.1-7.1c0-5.4,1.5-8.9,8.8-10.1c3.7-0.3,7.2,0.7,10.6,2.3
	c0.2-5.9,0.9-32.4,3.1-40.1c1.2-2.6,5-4.9,6.6-4.9c3.5,0,4.2,0.9,2,51.7c19.9-4.3,48.2-19.9,52-36.7
	C414.1,189.4,419.1,189.5,420.2,193.8z M336.1,227.5c-0.7,2.2,1.8,3.1,4.1,3.5c2.8,0.6,5.8,0.9,9,1c0.1-0.9,0.1-1.7,0.1-2.4
	C345.4,226.7,337.1,224.5,336.1,227.5z M432.1,193.5c0,5.6,6.8,12.5,10.3,1.7c0.5-1.5,0.8-2.7,0.8-3.8
	C443.2,185.7,432.1,186.3,432.1,193.5z M438.9,216.8c-1.1-2.1-3-3.1-5.2-3.1c-3.1,0-5,0.6-6.8,22c-1.9,19.4-1.7,43.3,1.8,68.9
	c2.3,5.8,9.6,2.7,9.3-1.7c-1.7-27.3-1.7-48-0.2-61.5C438.3,236.7,440.1,221,438.9,216.8z M499,297.2c-2.6,0.5-28.5,4.7-29.8,5
	c-0.9-3.3,0-35.9,0-40.9c0,0,23.1-3.7,23.1-3.7c0.6-0.5,0.9-1.4,0.9-2.7c0-1-0.2-2.6-1.1-3.2c-6.2,0.8-11.5,1.7-22.6,3.4
	c0.5-14.3,2.1-52.7,4.5-65.9c4.5-0.9,20.6-0.1,24.6-0.5c2.4-0.7,1.3-3.9-0.8-5.2c-3-1.2-32.5-2-35.1,1.7
	c-3.6,6.5-13.3,123.3,0.2,123.3c7.1,0,32.9-4.1,38.2-5.8C502.4,300.8,501.5,297.9,499,297.2z"/>
<path d="M271,338.1c-13.7,0.9-11.7,1-19.4,1.6c1.5,2.4,3.2,77.1-0.4,109.4c-1.1,10-1.2,10.7-6.2,10.7c-2.7-0.1-4.3-1.4-4.8-3.9
	c-0.7-10,2.3-107.2,2.3-115.3c-15.2,1.2-19.1,2.7-19.2-0.8c0.2-1.6,1.6-3.2,2.7-3.5c11.7-1.5,31.5-2.2,43.3-2.5
	C272,334.1,273,336.6,271,338.1z M322.6,335.1c-5.1-0.7-35.3-1.1-37.9,1.3c-4.1,5-12.4,117.1-2.7,117.1c7.5,0,31.1-3.5,39-5.1
	c1.3-2,0.1-4.1-2-4.6c0,0-27,4.4-27,4.4c-2.4-2.6-0.9-63.2-0.8-66.3c16.3-2.4,22.5-3.1,22.8-3.1c1.3-0.5,1.2-4.3,0-5
	c-1.8,0.2-10.3,1.2-22.6,2.9c0.3-9.3,1.2-23.6,2.5-36.3c1.7-0.4,27.6-0.7,29.4-0.7C324.2,338.1,324.4,335.7,322.6,335.1z
	 M331.4,367.5c0,22.4,22.5,36.5,42.8,57.6c15.6,17.1-1.1,36.7-14.3,29.6c-3.2-1.7-4.8-4.1-4.7-7.1c0.3-3.7,1.4-3.6,2.8-2.6
	c2.2,0,3.8-3,0.8-5c-5.9-3.7-13.6,6.9-6.6,16.1c16.9,18.5,51.1-8.5,32.7-32.7c-18-23.6-48.1-40.3-37.9-65.9
	c9.4-25.1,39.2-26.6,51.7-12.7c9.7,10.4,0.4,27.9-6.7,25.9c-1.4-0.4-2.1-1-1.5-2.2c-0.6-1.7-1.7-2.4-3.5-2c-1.8,0.3-2.5,1.9-2.1,4.8
	c0.4,2.4,2.3,3.9,5.7,4.4c12.3,1.7,22.6-16.1,17.5-28.7C395.4,319,331.4,323.6,331.4,367.5z M442.9,334.4c-2.5,0.1-24.7,1.2-26.9,2
	c-1.4,0.8-2.6,2.1-2.6,3.7c0.4,3.1,2.7,1.9,19.2,0.6c0,9.1-3,105.2-2.3,115.3c0.5,2.4,2.1,3.7,4.8,3.9c1.9,0,4.3-0.2,4.8-2.1
	c5.4-24.5,3.2-115.6,1.7-118c7.5-0.6,5.4-0.6,19.4-1.6c1-0.7,1.3-1.6,0.9-2.7C461.2,333.3,459.6,333.7,442.9,334.4z M507.1,334.7
	c-6.4-0.3-30-0.5-32.3,1.6c-4.1,5-12.3,117.1-2.7,117.1c7.2,0,31-3.4,39-5.1c1.3-2,0.1-4.1-2-4.6c0,0-27,4.4-27,4.4
	c-2.4-2.6-0.9-63.2-0.8-66.3c16.8-2.4,22.1-3,22.8-3.1c1.3-0.5,1.2-4.3,0-5c-2.3,0.3-10.5,1.2-22.6,2.9c0.3-9.4,1.2-23.8,2.5-36.3
	c1.8-0.4,27.6-0.7,29.4-0.7c0.3-0.5,0.5-1.5,0.7-2.1C514,334.7,512.6,334.9,507.1,334.7z M603.4,353.1c0,23.4-25.4,52.7-53.4,61.9
	c2.8,2.3,5.6,4.7,8.3,7.3c13.6,13.4,19.8,9.5,18.4,7.8c0.1-0.8,0.6-1.5,2.5-1.7c1.4-0.1,2.3,0.8,2.5,2.6c0.3,4-5,7.8-9.4,7.8
	c-9.5,0-20.3-11.1-30.3-22l-2.8,0.3c-0.7,41.9,5.2,44.2-2.5,44.5c-2.6,0-4.7-0.7-6-3.3c-0.5-1.8-2.3-24.4-2.5-41.2
	c-20.7-2.6-17.5-20.1,0-15c0.3-15,2.1-53.1,6.3-62.1c1.1-1.4,4.9-4.2,6.9-4.2c4,0,2.7,4.6,1.8,20.3
	C568,322.3,603.4,330.3,603.4,353.1z M570.6,340c-11.4,5.2-21.7,17.3-28.2,28.2c-1,12.1-2.7,38.6-2.7,39c2.3,1.5,4.6,3.2,4.6,3.2
	c3.4-1.2,7.6-2.4,13.3-5.9c8.8-5.4,16.3-13.2,21.8-21.5C599.4,353.5,590.7,330.2,570.6,340z M519.5,408.2c0.8,1.5,3.8,2.6,8.8,3.2
	v-5.2C524.5,405,517.3,404.6,519.5,408.2z"/>
<path d="M621.5,256.7c-10.6-4.6-18.3-18.9-18.3-18.9s-7.8-11.2,4.5-19.9C620,209,622.6,204,622.6,204s7.4-9.9-3.8-21
	c-11.1-11.2-34.6,11.9-36.3,10.5s4.5-11.4-1.8-24.4c-13-22.4-36-13.5-36-13.5l0,0c0,0-23.6,7.2-20.1,32.7
	c2.9,14.4,14,18.2,13.5,20.4c-0.5,2.2-33.2-1.6-35,14.1c-2,15.7,10.1,18.8,10.1,18.8s5,2.3,20.1,1.8c15.1-0.6,15.8,13,15.8,13
	s2.7,16-2.8,26.1c-5.6,10.1-10.7,5.3-15.1,14.2c-4.4,8.8,2.6,15.4,2.6,15.4c5.1,10.5,25.3,9.7,36.2-2.9
	c6.5-10.6,12.5-19.6,20.1-23.3c8.5-1.1,19.5,2.7,28.9,6.3c0,0,12.1,2.1,22.2-4.4c10.1-6.7,8.2-15.6,8.2-15.6s1.5-9.5-7.4-13.7
	C633.1,254.3,632.1,261.3,621.5,256.7z M592.3,190.5c2.7-0.6,5.6-0.9,7.5,1.5c2.3,2.9,0.1,4,0.4,5.5c0.2,1.2,0,0.4,1.3,0.8
	c1.8,0.3,4.5,0.3,5.7,4.5c0.2,0.6,0.7,5.1,1.2,4.8c2.4-1.3,4.9,2.3,2.4,3.5c-2,1.1-4,1-5.6-0.6c-2.3-2.3-0.7-6.7-4.3-7.8
	c-1.8-0.6-5.8-0.1-5.3-4.7c0-0.4,0.4-1,0.3-1.4c0.1-0.3,0.1-0.6,0.4-1c-1-0.4-1.8-0.7-2.6-1.1C590.9,195.2,589.5,191.2,592.3,190.5z
	 M527.7,217.5c-0.3-0.1,2.2,4.2,2.3,4.8c0.3,0.9,0.5,1.8,0.1,2.7c-0.6,1.8-1.1,1.2-2.3,2.4c-1.5,1.5-0.4,1.8,0.7,3.2
	c3.4,4.1,2.1,7.7-2.3,10.6c-2.3,1.4-4.7-2.1-2.4-3.5c2.8-1.6,1.9-3.2,0.2-5.5c-3.6-4.6-0.4-6.4,0.6-7.8c1.7-2.1,0-1-1.1-4.8
	c-1.1-3.7,1.4-6.6,5-6.1C531.2,213.7,530.4,217.9,527.7,217.5z M562.5,171c1.8,4.9-5.8,7.5-7.3,2.5
	C553.5,168.8,560.8,166.1,562.5,171z M569.9,300.2c-1.3-1.4-1.3-4.1-3.3-4.5c-2.4-0.6-5.7,4.5-8.4-3.1c-1-3-2.1-2.1-4.6-1.7
	c-3.9,0.8-6-2.4-6.1-6.7c-0.1-2.7,4.2-3.1,4.2-0.3c0.1,4.5,6.1-0.8,9.3,4.5c0.5,0.8,0.7,3.2,1.4,3.6c0.8,0.6,5.1-1,6.9-0.1
	c2.7,1.3,2.3,3.9,4.1,5.8C575.3,299.8,571.8,302.2,569.9,300.2z M540.1,174.6c4.9-1.8,7.5,5.8,2.5,7.3
	C537.7,183.7,535.2,176.4,540.1,174.6z M574.8,263.7c-2.8-8.1,9.6-12.7,12.5-4.3C590.1,267.5,577.9,272,574.8,263.7z M567.3,242.2
	c-2.8-8.1,9.6-12.7,12.5-4.3C582.7,246.1,570.2,250.5,567.3,242.2z M568.8,226.2c-8.1,2.8-12.7-9.6-4.3-12.5
	C572.5,210.9,577.4,223.3,568.8,226.2z M570,186.5c-1.8,12.2-15.1,17.6-25.4,11.5c-2.4-1.4-0.5-5.3,2-3.8c8.1,4.8,17.8,1.1,19.3-8.5
	C566.1,182.8,570.4,183.6,570,186.5z M621.7,274.3c0.6,6.1-2.6,5.4-4.3,6.5c-2.6,1.7-1.9,3-1.1,5.2c1,2.6-3,3.9-4,1.5
	c-3.6-9.2,2.4-9.4,4.3-10.7c1.9-1.2-0.4-4.6,0.6-6.8c1.2-3.1,5.4-3.4,4.1-7.6c-0.9-2.6,3.2-4,4-1.5
	C628.4,270.5,621.2,267.3,621.7,274.3z"/>
<path d="M151.5,363.3l29.4,84.6c5.6,15.3,27.5,6.5,22.3-7.6l-29.4-84.6c-2.1-6.4,3.9-13,10.5-10.3c4.8,1.8,5,5.2,8.6,15.1
	c2.1,6.2,8.9,9.4,15,7.2c6.2-2.1,9.5-8.8,7.2-15c-3.6-10.7-6-21.3-19.4-28C170,311.8,142.4,336.7,151.5,363.3z M168.1,401.8
	c-1.8-4.7-3.2-9-4.5-12.7l18.5-1.4l4.4,12.7L168.1,401.8z M191,413.4l4.4,12.7l-18.5,1.4c-1.7-4.6-3.1-8.8-4.5-12.7L191,413.4z
	 M158.9,376.1c-1.9-5.8-3.2-10-4.3-13l18.3-1.3l4.5,13L158.9,376.1z M164.9,329.8l8.6,16.1c-0.7,0.9-1.3,1.8-1.8,2.8l-18.6,1.4
	C154,341.5,158.5,334.3,164.9,329.8z M194.4,356.8l17-5.2l1,2.4c1.7,4.6-1,9.7-5.6,11.2c-4.6,1.6-9.5-0.9-11.1-5.4
	C195.2,358.7,194.9,357.8,194.4,356.8z M185.4,342.8c-0.1,0-0.3-0.1-0.4-0.1l-2.1-18.3c7.9,0.4,15.6,4.2,21,10.5l-14,11
	C188.8,344.7,187.5,343.6,185.4,342.8z M181.4,440.4l18.5-1.4l0.9,2.2c1.7,4.6-1,9.7-5.6,11.2c-4.6,1.7-9.7-1-11.2-5.6
	C183.1,444.8,182.3,442.7,181.4,440.4z"/>
<path d="M148.7,163.5c-17.1-9.2-22.8-35-22.4-55.3c0.7-35.7,17.2-57.6,27.8-61.6c6-1.3,9.2,1.2,5.3,4.8
	c-16.3,10.7-34.4,79.3-10.1,102.2c49.4,46.4,70.5-186.6,11.8-68.9c-4.1,8.9-13.5,31.4-6.1,37.4c1.9,1.5,2.6,1.1,3.6-0.4
	c3.9,1.1,3.3,3.3,0.2,5.8c-4.8,3.7-13.9,0-14.6-13.6c-0.9-24.8,15.6-55.1,33-66.3C226.3,16.2,201,193.1,148.7,163.5z M322.2,99.4
	c1.3-3.4,0.4-5.4-3.3-5.5c-3.2,0-4.6,2.5-4.7,6C314.2,104.4,319.1,105.8,322.2,99.4z M408.7,101.6c1.3-3.4,0.4-5.4-3.3-5.5
	c-3.2,0-4.7,2.6-4.7,6C400.5,106.6,405.5,107.9,408.7,101.6z M545.2,126.1c-4.1,10-21.8,41.3-32.6,41.2
	c-11.4-0.1-16.8-19.2-18.5-31.1c-26.2,38.4-40.5,38.5-37-10.3c-4.4,7.2-15.7,24.8-23.4,22.2c-4.8-1.6-6.6-5.6-7-10.8
	c-4.5,5.8-8.8,11-14.6,15.7c-12.7,10.8-19.3-0.7-19.7-17.8c-33,44.9-51,17.6-50.7-1.9c-4.9,6.4-9.9,12.5-16,17.5
	c-13,11-19.8-1.4-19.8-19.2c-7.7,7.4-16.4,14.4-25.7,20.2c21.1,18.9-3.2,50.9-16.9,5.5c-10.6-1.2-11.7-9.7-2.5-11.9
	c-1.1-6.2-1.9-14.7-2.1-20.5c-8.7,5.8-22.8,14-32.4,18.5c10.3,8,11.6,28.5,0,33.2c-10.5,4.3-15-15.7-16.8-27.4
	c-1.8,0.3-3.6,0.4-5.1,0.2c-5.4-1.4-5.8-10.6,3.9-11.7c-2.8-47.1,14.8-110.5,45.5-98.6c26.4,9.6-16.7,58.5-35.1,79
	c-0.7,7.2-0.9,14.1-0.7,20.6c0.9,0.4,2,0.7,2.9,1.3c15.4-7.2,35-18.8,37.9-21.2c0.2-83.6,60-81.4,51.2-49
	c-6.7,23.6-31.8,42.8-40.1,49.5c-0.3,8.4,0.3,19.9,1.1,27.4c1.5,0.5,3,1.2,4.6,2.1c13.2-7.6,26-20.3,30.8-24.9
	c0.6-4.2,1.5-8.7,3.6-12.3c2.1-2.6,6.6-3,8.6,0.2c0.6,1.4-0.7,7.1-0.9,8.5c-8.8,50.5,9.6,24,25.5,2.2c2.7-10.5,10.4-23.3,20.6-20.6
	c12.6,3.3,7.8,18.9,2.1,20.1c-2.7,0.4-3.3-2.7-2.9-4.6c2.8-0.9,3.5-9.5,0.7-10.9c-1.5-0.7-6,7-8.7,16.7c-10.2,34.1,6.9,47,38,1.5
	c0.5-3.3,1.8-9,3.7-11.3c3.6-3.4,7.6-1.6,8.5,0.6c0.6,2.4-6.4,31.4-1.4,36.6c4.4,5.1,20.5-18.6,24.5-24.1c1.5-4.7,4-9,7.4-12.4
	c10.1-9.8,23.3,5.9,12.3,9.3c-1.7,0.3-3.5-2.5-2.4-3.9c0.4-0.3,0.5-0.4,0.4-1.4c-0.1-0.7-0.4-0.7-0.6-0.7c-5.5,0.7-11,24.1-9.3,25.1
	c2.5,1.6,17.9-20.8,25-37.3c1.5-1.2,3.3-1.2,5.2-1.2c6.7,0.2,4.3,5.9,1,35.1c-0.3,2.7-2.3,19.3-0.3,19.8c4.6,0.8,25-29.7,26.1-31.3
	c-2-28.4,5.6-78.1,32.4-77.3c25.4,2,9.9,33-5.7,54.4c-8.3,11.5-14.9,19.8-16.4,21.4c0.2,8.8,3.1,33.8,10,35.2
	c7.3,1.3,24.1-31.2,26-36.4C541.6,123.9,543.9,124.1,545.2,126.1z M270.4,111.5c19.5-16.8,16.3-15.6,21.3-20.9
	C330,44.3,276.5,33.5,270.4,111.5z M220,107.7c11.3-13.1,47.1-54.4,32.1-63.9C240.2,36,225.3,74.8,220,107.7z M208.9,144
	c-0.1-0.6-0.1-1.3-0.2-1.9C204.4,142.9,206.1,144.5,208.9,144z M221.3,145.5c-1,0.4-1.9,0.8-2.7,1.1c2.3,17.5,9.5,21.3,9.5,21.3
	c0.8-0.2,1.2-1.8,1-4.2C228.7,155.6,227.3,150.1,221.3,145.5z M262.1,152l-0.4-1.9c-1,0.3-1.6,0.8-1.8,1.4
	C259.9,151.6,260.6,152,262.1,152z M275.5,154.5c-1,0.5-1.9,0.9-2.8,1.2c1.2,4.7,2.5,9.8,4.9,14c3,4.7,4.3,5.1,4.6,5.1
	C284,174.7,284.6,161.7,275.5,154.5z M503.3,116.8c8.7-10.9,33.2-42.2,29.3-56.3c-1-3.6-4-5.3-6.8-5.4
	C516.9,55.2,504.5,81.1,503.3,116.8z"/>
</svg>
