<?xml version="1.0" encoding="utf-8"?>
<!-- Generator: Adobe Illustrator 21.0.2, SVG Export Plug-In . SVG Version: 6.00 Build 0)  -->
<svg version="1.1" id="Layer_1" xmlns="http://www.w3.org/2000/svg" xmlns:xlink="http://www.w3.org/1999/xlink" x="0px" y="0px"
	 viewBox="0 0 731 516.6" style="enable-background:new 0 0 731 516.6;" xml:space="preserve">
<g>
	<path d="M260.4,258.5c0-3.4,1.4-6,4.9-6c8,0,3.1,9.8-1.8,9.8C262.4,262.2,260.4,261.6,260.4,258.5z M326.3,283.9
		c-2.5,1.8-5.4,0.4-6.6-2.4c0.8-1.8,2.9-10.2-0.4-10.3c-4.6,0-15.3,28.2-16.4,43.9c-0.5,2.5-5.3,6.2-9.2,1.8
		c-1.6-8.2-2.6-18.6-2.9-27.3c-6,7.7-19.1,24.2-28.3,22.5c-9-2-10.7-17.4-10.3-26.6c-2.7,1-8.5,3.3-14.1,5.7
		c-6.6,22.1-26,21.1-23.7,11.1c1.4-5.7,8.5-10,13.9-12.5c1.2-4,1.5-7.8,1.1-11.4c-0.3-3.7-1-4.6-1.3-4.8
		c-2.8-2.3-28.2,40.9-23.2,77.2c-0.6,1-1.3,1.9-3.3,3.4c-2.2,2-5.2,0.3-6.4-1.5c-9.1-18.8-8.1-45.2-4.6-65.9
		c-13.7,7-16.7,8.7-20.1,10.7c6.2,17.5-10.7,33.7-22.2,28.8c-4.7-2-5.3-6.4-3.9-11.3c1.6-5.9,7.3-11,15.5-16.7
		c-4.3-14.7-13.8-18.6-12.7-30.2c0.1-2,0.6-3.8,1.6-5.3c10.1-16.1,40.2-1.5,27.9,11.4c-5.4,5.9-9.2,0.8-9.2-0.9
		c0-1.1,1.5-2.4,3.5-2.1c0.4,0.4,0.6,1,2.1-0.5c5.3-5.6-12.7-17.3-14.3-2.4c-0.3,5.1,3.2,9.9,9.6,24.6c10.3-6.3,18.4-9.3,23.3-12.6
		c1.1-5.1,3.1-13.1,5.6-17.6c1.6-1.8,7.2-3.8,8.5,0.5c0.3,1.2,0.4,4-2.2,14.5c-3.3,13.4-6.9,36.1-4.1,49.7c1-7.2,2.8-14.8,5.2-22.7
		c15.7-50.1,37.2-42.3,34.4-19.5c7.8-3.1,9.9-3.5,13.4-5.1c0.5-3.5,1.5-7.3,3.4-10.3c2.6-3.2,7.9-2.6,9.3,0.2
		c0.2,0.6,0.2,2.1-0.9,8.1c-8.1,48.7,10.2,23.6,26.4,2.1c0.3-6.9,0.9-15.4,3.7-21.2c3.2-2.2,6.1-3.6,7.7,0
		c-0.4,7.3-0.7,28.7-0.6,33.7c0,0,0-0.1,0-0.1C316,242.9,336.8,276.8,326.3,283.9z M161.3,303.5c-12.4,8.5-12.5,16.4-10.1,18.5
		C155.5,325.1,162.4,315.5,161.3,303.5z M225.8,297c-1.9,1.1-3.4,2.3-4.4,3.4c-2.3,2.5-2.2,3.3-2.2,3.3
		C221.1,304.2,224.8,299,225.8,297z M346.4,262.3c4.5,0,9.7-9.8,1.6-9.8c-3.4,0-4.9,2.6-4.9,6C343.2,261.1,344.5,262.3,346.4,262.3z
		 M440.3,297.5c5.5,15.5-7.3,29.8-17.6,29.8c-4.9,0-9.2-2.6-9.2-8c0-9,8.5-15.5,16.2-20.9c-0.8-2.9-2-6.3-6.4-13.3
		c-5.2,9.1-24.2,38.6-35.4,36.1c-12-2.7-13.7-19-14.2-31.7c-6,7.7-19.1,24.4-28.4,22.7c-12.1-2.8-12.7-32.3-6.3-42.4
		c2.5-3,7.8-2.8,9.3,0.2c0.2,0.6,0.2,2.1-0.9,8.1c-0.7,4.4-1.3,9-1.6,13.7c-3.2,32,17.1,2.7,28.3-12.1c0.7-11.4,2.3-22.6,5-33.6
		c-11.8-1.2-20.8,3.2-21.1,4.3c0,0.1,0,0.1,0,0.2l0.2-0.1c3.5,0.9,1.4,4.8-0.9,4.8c-2.5-0.1-3.9-1.9-4.2-4.5c0-2.2,0.6-4.6,5.8-7
		c6.7-3.2,13.9-3.1,21.5-2.6c1-3.9,3.6-13,4.9-14.7c1.2-1.1,4.2-2.3,5.7-2.3c1.2,0,2.8,0.6,3.4,3.4c0.2,1.3-2.3,13.4-2.6,14.7
		c4.5,0.5,9,1.1,13.6,1.8c12.3,2.1,22.2-0.1,23.9-2.3l-0.1,0c-0.6-1.9-0.7-3.8,1.3-4.3c6.1-2.5,14.1,16.3-26.2,11.6l-13.4-1.6
		c-2.4,12-11.4,63-0.2,67.7c6.3,2.9,25.9-29.5,29.4-36c-7.7-13.3,1.5-26.1,17-23.1c11.6,2.2,16.2,11.3,9.9,17.9
		c-5.4,5.9-9.2,0.8-9.2-0.9c0-1.1,1.5-2.4,3.5-2.1c0.4,0.4,0.6,1,2.1-0.5c4.7-5-8.9-14.5-13.2-6.7c-3.6,6.6,1.3,12.4,8.4,28.9
		c10.6-6.4,21.1-10.5,24.3-13.4c0.9-0.2,1.7-0.4,3.2-0.2c2,0.2,2.4,0.7,3.4,1.8C464.2,285.8,453.7,289.7,440.3,297.5z M430.8,303.5
		c-16.4,11.2-12,22.9-5.4,17.9C429.8,317.7,431.3,309,430.8,303.5z"/>
	<path d="M258.4,355.2c-15-0.3-26.5,9.7-36.3,20.5c0.4-2.4,2.4-14.7,0.9-16.4c-1.9-1.6-4-1.5-5.6-0.2c-1.9,1.3-3.3,2.5-4.2,3.6
		c-1.8,3-10.4,58.3-2.1,105.8c0.8,1.9,2.8,2.8,5.8,1.3c10.6-4.6-4.1-5,3.6-82.5c9-12.8,24-29.2,39.6-27.8c12.7,1.2,4.9,30.9-3.5,47
		c-5.9,11.5-10.8,15.7-12.5,17.5c-4.2-0.9-9.7-0.5-13.9,0.2c-17.6,2.2-6.1,20.6,16.5,6.2c7,4.8,5.7,15,2.1,21.5
		c-5.7,9.5-15.2,12-16,10.2c-0.8-1.7-0.3-2,0.6-2.3c0-1.3-0.5-2.3-2.6-2.8c-1.7-0.4-3,0.3-3.7,2c-3,7.5,7.3,9.4,16,6.4
		c26.4-9.6,25.1-33.1,9-39.2C279.3,404.2,295.2,355.2,258.4,355.2z M239.8,427.7c-4.3,2.7-12.6,4.1-12.5,2.4c0-1.2,1.3-2,3.9-2.3
		C234,427.4,237,427.3,239.8,427.7z M307.6,377.6c0.5-7.1,1.6-15,0.1-16.7c-1.2-1-3.2-1-5.2,0.3c-4,2.2-5.4,1.5-8.1,24.1
		c-1.1,9.1-1.8,20.3-2,33.3c-17.1-4.3-20.1,11.3,0,13.8c0.2,14.7,1.9,34.5,2.5,36.2c1.3,2.4,3.4,3,6,3c7.7-0.3,2-2.7,2.7-39.2
		l2.4-0.2c9.2,9.1,24.7,24.6,35.5,17.7c5.6-3.6,3.7-8.1,0.8-7.9c-1.3,0.1-2.6,0.5-2.6,1.9l0.1,0.2c0,0-0.1,0.3-0.8,0.8
		c-5.9,2.7-17.9-9.3-24.6-14.2c13.5-4.4,26.5-11.6,38.2-25C391.1,360.3,337.9,340.1,307.6,377.6z M347.9,392.8
		c-1.6,3.1-3.5,6.2-5.7,9.2c-11.8,16-24.2,20.8-33.9,24c0,0-2.1-1.4-4.3-2.7c0.1-1.4,1.7-24.7,2.6-34.2
		C331.2,351.3,366.9,355.3,347.9,392.8z M292.5,422.6v4.1C279.8,425.4,282.5,419.9,292.5,422.6z M389.6,367.3c1,5.1-3.9,70.3-3.9,96
		c0,3.9-6.2,7.9-8.1,3.2c-4.3-22.9-3.5-51.3-1-74.4c2.6-23.8,4.4-24.1,8.3-26C387.4,365.2,389.1,366,389.6,367.3z M436.2,472.1
		c-44.7,0-43-80.2-14.1-107.8c10-9.6,29.4-11.3,35.2,1.1c2,4.6,2.7,8.8,2.1,12.4c-0.8,1.9-5.7,1.1-6.3-0.7c-1.7-22-16-19-24.2-7.6
		c-18.9,26.5-21.1,100.2,10.2,97.1c13.1-0.9,24.2-35.5,21.4-43.2c-4.6,1.2-12.7,4-14.5,3.8c-2.1-0.5-2.5-2.7-1-4.4
		c1.2-1.5,20.8-5.4,22.9-3.7C472.4,439.3,456.4,470.6,436.2,472.1z M549.3,358.5c-1.2,8.7-15.3,81.8-11.6,106.3l0,0.1
		c-0.4,2.8-3,2.7-4.7,2.7c-2.8-0.2-4.9-2-6.2-5.2c-3.6-13.3-2.3-35.2-0.7-47.4c-7.5,0.6-24.2,3.3-32.1,4.7c0,24.4,0.4,33.9,1.5,43.7
		c0,3.7-5.4,8.5-7.6,3.6c-3.4-14.8-4.1-30-4.5-45.3c-2.4,0.4-4,0.5-5,0.5c-3.1,0-2.8-4.4,0.4-6.1c0,0,2.6-0.4,4.6-0.8
		c0-8.5,0.3-37.7,3-45.7c1.1-2.1,6.2-5.9,8.8-2.4c0.8,1.7-1,45-1.2,46.6c19.5-3.1,27-3.2,32.5-3.6c0.4-1.8,5.8-37.2,11.3-50.2
		c0.8-1.3,3.6-3.5,5.9-4C546.1,355.4,547.9,356.7,549.3,358.5z M603.9,362.7c-4.4,0.3-16.8,1.2-18.6,1.3c1,1.8,3.5,81.6-1.9,103.8
		c-0.9,2.6-8.6,3.5-9.8-1.5c-0.7-9,2.2-93.4,2.2-101.5c-10.5,0.8-12.7,1.2-15.8,1.2c-3.8,0-3.7-3.5-0.2-5.5c0.3-0.1,4-0.5,4.3-0.5
		l0,0c4.4-0.5,19.2-1.3,38.1-1.7C605.5,358.7,605.9,361.4,603.9,362.7z"/>
	<path d="M191.7,44.8c-16.3,0.1-28.7,10-39.6,21.4c0.5-3,2.2-14.4,0.8-16.4c-1.3-1.3-4.1-1.8-6.1-0.2c-1.3,0.8-3.8,2.6-4.6,3.8
		c-2.2,5-10,59.3-0.3,105.7c1.8,4.9,10.9,0.4,10.9-3.4c-4.7-25.5-5.2-43-2.1-77.8c10.2-13.7,26.2-29.7,43.1-28.6
		c15.5,1.1,6.1,41.7-16.3,64.8c-5.3-0.9-18.9-0.3-22.9,3.4c-2.2,2.1-2.1,4.3,0.1,6.5c4.9,5.1,18,1.1,25.7-3.5
		c10.3,6.1,6.2,23.9-7.2,30.6c-5.9,2.8-7.3,2.1-7.6,1.4c-0.9-1.7-0.4-2,0.6-2.2c-0.1-3.1-5.3-4.1-6.8-0.7c-5,12,25.4,9.4,36.1-6.1
		c8.6-12.4,1.3-23.7-9.3-27.1C215.9,93.1,232,44,191.7,44.8z M172.7,117.6c-4.5,2.7-13.9,4.4-13.8,2.7
		C159,117.1,169.7,117.3,172.7,117.6z M247.5,49c-7.2,2-8.3,6.3-10.7,13.6c-9.3,25.5-21.6,73-21.4,81.9c0.1,4.5,6.6,3.2,7.5,1.2
		c0.9-5,3.7-18.4,5.2-24.2l31.3-3c0.5,2.2,7.1,32.2,8.7,34.7c4.3,4,13.2,3.7,12.8-0.9C261.3,95.3,265.9,46.3,247.5,49z M258.2,113.3
		c-11.9,1.3-21.7,2.3-29,3.1c1.8-6.9,6-25.7,15.3-54.9C248.7,62.5,257.9,111.5,258.2,113.3z M372.4,59.4
		c-4,13.7-35.8,34.5-59.7,42.2l-0.2-0.1c0.1-3.4,1.3-51.4,0.1-53.6c-2.9-3.4-8.8,0.8-9.9,2.8c-2.4,6.6-3,39.9-2.8,47.1
		c-4.6-0.5-10.2-0.5-14.5,1.8c-7.9,4.3-8.3,15,14.7,11c0.4,21.1,3.2,44.8,3.8,46.7c1.5,2.6,3.7,2.4,6.4,1c6-3.3,3.3,0.8,2.3-49.9
		c7.3,6.3,19.3,17.9,30.4,24.9c7,4.2,18.7,6.3,22.2,1.5c5.1-6.7-2.8-9.8-4.7-5.8c0.3,0.3,0.6,0.5-0.2,1.5c-0.2,0.3-1.1,0.8-5.3-0.1
		c-7.7-1.8-16.4-14.9-35.5-25.3c21.9-8.3,56-27.7,60.5-45.6C378.1,55.5,373.2,56.4,372.4,59.4z M299.9,101.8l0.1,2.8
		c-3.3,0.5-14.1,1.2-13.1-1.5C287.6,101,297.4,101.2,299.9,101.8z M405.3,52.8c0.8,3.2-0.3,23.4-2.4,77.3c-0.4,20.4,1.3,21-3.5,23.6
		c-2.3,1.2-4.3,1-5.3-1.3c-8-35-2.4-88.3,1.6-97.1C397.3,52.4,403.8,49.4,405.3,52.8z M498.9,50.9c1.3,1.3,1.2,2.6,1.2,4.3
		c-3.1,3.2-6.4,83.3-6.6,85c-0.7,3.7-2.2,5.7-4.6,5.9c-12.7,1.4-18.7-22.7-54.2-77.2c-2.8-4.6-5-7.6-6.6-9.1
		c-1.1,6.7,8.3,75.5,11.3,92.2c-0.9,2.2-5.4,3.1-8-1.1c-5.8-15.7-12.8-89.3-9.2-101.9c1.2-4,6.9-5.5,11.1-4.4
		c9.4,4.6,52.9,85.5,54.7,88.2C487.2,119.1,486.9,39.7,498.9,50.9z M538.4,153.5c-28.5-8.9-31.6-53.2-20.9-82.1
		c17.3-46.2,61.3-36.2,57.1-11.4c-0.9,2.1-6.3,1-6.8-0.5c-0.3-3.2-1.2-6.6-2.6-10c-3.9-10.7-24.9-10.6-34.6,25.9
		c-7.9,30.1-4.7,76.9,23.5,73.8c14.3-1.2,26.1-35.9,22.8-43.6c-4.8,1.2-14,4.3-15.9,4.1c-2.2-0.4-2.8-2.6-1.2-4.4
		c1.3-1.5,22.7-5.8,25-4.1C590.8,123.3,569,163.3,538.4,153.5z"/>
	<path d="M454.1,174.8l-26.3,7c-0.3-3.5-4-4.4-5.8-3.3c-2.7-7.7-10.2-12.9-18.8-12.2l-215.3,18.4c-8.5,0.7-15.1,7.1-16.4,15
		c-3.1-0.4-4.8,1.8-4.7,4.3l-27.1-2.5c-6.8-0.6-12.5,5-11.9,11.9c0.6,6.8,7.2,11.5,13.8,9.6l26.3-7c0.3,3,3.2,4.3,5.2,3.4
		c2.7,7.6,10.3,12.7,18.7,12L407.1,213c8.5-0.7,15.1-7.2,16.4-15.2c2,0.8,5.4-0.8,5.1-4.2l27.1,2.5c6.8,0.6,12.5-5,11.9-11.9
		C467.2,177.8,460.6,173.1,454.1,174.8z M198.1,221.7c0.2,2-2.8,2.2-3,0.3c-2.5-29.5-3.1-29.6-1.1-29.7
		C196.2,192.1,195.6,192.5,198.1,221.7z M205.3,221.1c0.2,2-2.8,2.2-3,0.3c-2.5-29.5-3.1-29.6-1.1-29.7
		C203.4,191.4,202.9,191.8,205.3,221.1z M308.7,198.7c-3.2,3.8-6.6,7.8-9.9,11.7c-0.2,0.2-11.6-9.5-11.8-9.7c-5.7-5.7,0.6-16,9.8-11
		C306.2,182.8,313,193.2,308.7,198.7z M393.7,206.6c-2.1,0.2-1.5-0.2-4-29.5c-0.2-2,2.8-2.2,3-0.3
		C395.2,206.3,395.7,206.4,393.7,206.6z M401,206c-0.8,0.1-1.6-0.5-1.6-1.4c-2.5-29.5-3.1-29.6-1.1-29.7c0.8-0.1,1.6,0.5,1.6,1.4
		C402.5,205.6,403,205.7,401,206z"/>
	<path d="M585.8,305.7c-8.8-10-9.7-28.6-9.7-28.6s-2.6-15.5,14.4-18.4c17.1-3.2,22.2-7.1,22.2-7.1s12.5-6.6,6.3-23.7
		c-6.1-17.1-41.8-4.6-42.8-6.9c-1-2.3,10.3-9.6,10.1-26.2c-2.5-29.7-30.8-31.6-30.8-31.6l0,0c0,0-28.1-4.1-36.9,24.2
		c-4,16.4,5.6,25.8,4,27.8s-33.7-17.9-43.3-2.5c-9.7,15.3,1.3,24.5,1.3,24.5s4.1,4.8,20,11.7c15.9,6.8,10.1,21.3,10.1,21.3
		s-5,18-15.7,25.8c-10.8,7.8-13.7,0.2-22.6,7.3c-8.8,7-4.8,17.3-4.8,17.3c0.1,13.4,21.5,22.4,39.1,14.7
		c11.9-7.8,22.6-14.2,32.3-14.3c9.4,3,18.9,12.4,26.9,20.7c0,0,11.6,8.1,25.2,6.3c13.7-2.1,16.1-12.3,16.1-12.3s6.2-9.2-0.9-17.9
		C599,308.9,594.5,315.7,585.8,305.7z M587.7,222.7c3.1,0.7,6.3,1.8,7.1,5.3c0.9,4.1-1.8,4.2-2.3,5.8c-0.3,1.4-0.2,0.5,0.9,1.5
		c1.7,1.1,4.5,2.5,3.8,7.4c-0.1,0.7-1.7,5.6-1.1,5.6c3.1-0.2,4,4.8,0.8,4.8c-2.6,0.1-4.7-0.9-5.5-3.3c-1.3-3.6,2.5-7.3-0.7-10.2
		c-1.6-1.6-3.8-1.8-4-4.6c-0.1-1,0.2-1.9,0.8-2.9c0.2-0.5,0.9-0.8,1-1.3c0.2-0.2,0.5-0.6,0.9-0.8c-0.8-0.9-1.5-1.6-2.2-2.4
		C584.1,226.9,584.5,222,587.7,222.7z M507.4,219.1c-0.2-0.2,0.2,5.5,0,6.1c-0.1,1.1-0.3,2.1-1.3,2.9c-1.5,1.6-1.7,0.7-3.6,1.4
		c-2.3,0.8-1.3,1.7-0.8,3.7c1.5,6-1.6,9-7.6,9.9c-3.1,0.3-3.9-4.5-0.8-4.8c3.7-0.3,3.6-2.4,2.9-5.6c-1.5-6.5,2.7-6.9,4.5-7.8
		c2.9-1.4,0.5-1,1.1-5.5c0.7-4.4,4.7-6.2,8.1-3.9C512.9,216.8,510.1,220.9,507.4,219.1z M566.4,187.9c-0.6,6-9.6,4.9-8.8-1
		C558.1,181.1,567,181.9,566.4,187.9z M510.9,325.7c-0.7-2.1,0.7-4.9-1.3-6.3c-2.2-1.8-8.1,1.8-7.2-7.3c0.5-3.6-1.1-3.2-4-4
		c-4.5-1.1-5-5.4-3.1-10c1.3-2.9,5.8-1.1,4.6,1.7c-2.2,4.7,6.8,2.1,7.4,9.3c0.1,1-0.8,3.7-0.3,4.5c0.6,1,5.7,1.5,7.2,3.3
		c2.2,2.6,0.5,5.2,1.4,8C516.6,327.8,511.8,328.6,510.9,325.7z M541.3,180.7c6,0.6,4.9,9.6-1,8.8
		C534.4,188.9,535.4,180.1,541.3,180.7z M540.5,298.5c-4.2-0.5-7.1-4.2-6.8-8.4c1-9.9,16.1-8.5,15.1,1.7
		C548.4,296,544.7,299,540.5,298.5z M536.5,264.2c1-9.9,16.1-8.5,15.1,1.7C550.6,275.7,535.5,274.2,536.5,264.2z M545.9,248.2
		c-9.9-1-8.5-16.2,1.7-15.1C557.3,234.1,556.2,249.4,545.9,248.2z M566.5,207.6c-7.8,11.8-24.3,10.9-32.1-0.5
		c-1.8-2.6,2.1-5.7,3.9-3c6.1,8.9,18,9.9,24.2,0.6C564.4,201.8,568.4,204.8,566.5,207.6z M577.3,324.2c-2.4,6.6-5.4,4.4-7.7,4.7
		c-3.6,0.5-3.4,2.2-3.7,4.8c-0.2,3.2-5,2.5-4.9-0.5c0.8-11.3,7.1-8.6,9.7-9c2.5-0.3,1.8-4.9,3.9-6.8c2.7-2.6,7.3-0.9,8-5.8
		c0.3-3.1,5.3-2.6,4.9,0.5C586.1,323.5,580.2,316.6,577.3,324.2z"/>
	<path d="M133.1,384.7l27.4,78.8c5.2,14.3,25.6,6.1,20.7-7.1l-27.4-78.8c-2-6,3.6-12.1,9.8-9.6c4.5,1.7,4.7,4.9,8,14.1
		c2,5.8,8.3,8.8,14,6.7c5.8-2,8.9-8.2,6.7-14c-3.4-10-5.6-19.8-18.1-26.1C150.3,336.8,124.6,359.9,133.1,384.7z M148.5,420.6
		c-1.7-4.4-3-8.4-4.2-11.9l17.3-1.3l4.1,11.9L148.5,420.6z M169.9,431.4l4.1,11.9l-17.3,1.3c-1.6-4.3-2.9-8.2-4.2-11.9L169.9,431.4z
		 M139.9,396.6c-1.8-5.4-3-9.3-4-12.1l17.1-1.2l4.2,12.1L139.9,396.6z M145.5,353.5l8,15c-0.7,0.8-1.2,1.7-1.7,2.6l-17.4,1.3
		C135.4,364.4,139.5,357.7,145.5,353.5z M173.1,378.7l15.9-4.9l0.9,2.2c1.6,4.3-0.9,9.1-5.2,10.5c-4.3,1.5-8.9-0.8-10.4-5
		C173.8,380.5,173.5,379.6,173.1,378.7z M164.7,365.6c-0.1,0-0.3-0.1-0.4-0.1l-2-17.1c7.4,0.4,14.6,3.9,19.5,9.8l-13.1,10.3
		C167.8,367.4,166.6,366.4,164.7,365.6z M160.9,456.6l17.3-1.3l0.8,2.1c1.6,4.3-0.9,9.1-5.2,10.5c-4.3,1.6-9.1-0.9-10.5-5.2
		C162.5,460.7,161.8,458.7,160.9,456.6z"/>
</g>
</svg>
