<?xml version="1.0" encoding="utf-8"?>
<!-- Generator: Adobe Illustrator 21.0.2, SVG Export Plug-In . SVG Version: 6.00 Build 0)  -->
<svg version="1.1" id="Layer_1" xmlns="http://www.w3.org/2000/svg" xmlns:xlink="http://www.w3.org/1999/xlink" x="0px" y="0px"
	 viewBox="0 0 731 516.6" style="enable-background:new 0 0 731 516.6;" xml:space="preserve">
<g>
	<path d="M268.3,145c-2.3-2.9-0.5-9.8,2.6-9.1c0.2-0.1,1.2,0,3,0.1C279.9,138.7,273.2,150,268.3,145z M378.1,160
		c-4.8,13.6-13.5,20.7-26.1,21.5c-5.9-0.2-10.3-4.1-12.4-9.1c-12,24.3-29.1,22.3-26.9,4.8c1.7-12.8,5.4-21.7,4.5-27.7
		c-0.2-1-0.3-1.5-0.3-1.5c-2.2-0.4-4.8,1.6-7.5,6c-5.3,8.4-6.9,19.6-7.9,22.1c-0.5,2-1.4,2.6-3.2,3.7c-3.8,0.7-5-3.9-5.5-7.7
		c-3.9,6.4-15,19.8-22.1,18.2c-6.9-1.6-7-11.9-6.6-18.9c-3.8,3.4-8.3,4.7-13.5,4.4c-6.7,12.7-17.8,13.1-20.7,6.6c0,0.1,0,0.8,0,2
		s0.6,2.6,1.7,4.2c0.9,1.6,1.4,2.5,1.4,2.6c2.9,4.8,4.3,9.5,4.3,15.6c0.2,6.9-4.1,9.1-7.1,7.8c-11.2-5.7-7.8-51.4-5.9-64.3
		c0.3-2.2,2.3-3.2,3.6-2.8c1.7,0.1,2.9,2.3,2.6,4c-0.1,0.9-2.6,16.6-2.6,17.4c0.4-2.3,0.9-4.4,1.5-6.1c10.6-29.6,31.2-17.7,24.2,5.8
		c4.6,0.5,8.1-2.9,12.3-11.8c0.3-1.4,0.6-2.7,1-3.9c0.5-2.9,4.4-3.3,5.6-0.7c1.3,2.3-0.3,1.9-1.5,11.8c-0.5,3.4-1.5,13.6-0.2,18.2
		c0.3,1.1,1.5,1,4.7-0.4c12.6-9.6,16.4-23,17.2-24.4c0.8-6.6,0.9-7.5,2.1-8.4c1.5-1.3,3.6-0.6,4.4,0.9c1.1,1.6,0.5,2.1-0.1,6.6
		c-0.2,1.6-0.3,2.7-0.3,2.8c-0.4,1.2-1,7-0.9,7.2c5.1-24.1,21.7-31.2,25.1-20.4c3.6,9.4-7.1,30.4-3.6,37.3c1,0.8,2.5,0,3.6-0.7
		c11.8-7.2,15.6-25.3,16.4-27.2c11-25.9,35.5-4.9,14.6,7.3c-3.4,2-6.4,2.9-9.9,2.6c0.4,5.9,4.2,9,7.9,9.3
		c9.5-0.7,16.3-6.5,20.4-17.4c0.9-2.1,2.2-2.8,4-2C378.1,155.8,378.6,157.4,378.1,160z M242.9,176.4c-4,0.6-4.8,0.9-6,2
		c-0.7,0.7-1.1,1-1,1C238.4,179.4,242.6,177,242.9,176.4z M248,155.1c-1.6-7.1-8.7-1.9-13,10c-0.4,1-1.1,3.6-2.4,7.9
		c3-2.7,7.9-3.3,11.9-3.6c0.8-0.1,1.5-0.2,2-0.2C247.7,166.2,249.1,159.5,248,155.1z M344.9,158.5c1.6,0.4,3.3-0.1,6.2-1.9
		C362.3,150.1,350.7,144.6,344.9,158.5z M576,159.3c-1.7,5.3-7,10.9-19.5,13.6c0.8,1.4,1.4,2.7,1.8,3.9c4,8.6,3.6,15.2-1.3,19.9
		c-8.4,6.2-15.1,6.1-19.3-3.6c-1.8-10.1,0.1-18.6,9.1-23.8c-0.9-1.5-1.6-2.6-2.2-3.5c-6.2,13.2-14.6,19.9-25.2,19.8
		c-8.7-0.2-12.9-8.8-13.3-11.2c-7.1,9.6-23.7,10.5-28.5-3c-9.5,17.5-21.9,24.5-27.3,21.6c-7.1-4.1-3.4-20.9-1.4-29.4
		c-3.5,0.6-7.4,0.6-10.7-0.5c-11.5,27.4-25.3,45.8-36.2,18c-2.9-10.6-0.8-29.1,0.9-40c-0.2,0-0.4,0-0.6-0.1c-5-1.2-5.7,0.4-7.5-1.2
		c-2.2-2.5-0.6-6,1.8-6c2.2-0.3,4.5-0.1,7,0.5c4.5-19.5,4.3-20.3,6-21.2c1.5-0.8,3.5-0.3,4.2,1.4c1.1,2.4-0.5,2.5-3.7,21.4
		c0,0,1.2,0.8,3,1.5c4.6,1.3,7.5,1.4,11.6-1.2c3.6-2.6,6.6,3.6,3.2,5.9c-7.3,4.8-13.3,3-19,0.9c-1.4,9.6-3.7,27.1-1,35.8
		c6.5,20.6,16.8,0.3,25.2-19.7c-4.5-6-4.2-15.5,2.7-20.1c8.8-6.2,18.5,2.1,6.3,18c2.9,0.3,9.7-0.9,11.8-1.3c1.8,0.4,3,2.3,2.3,4.3
		c-3.1,11.9-4.3,20.2-3.6,24.9c0.5,4,9.8-1.8,18.2-14.2c2.6-4,4.8-8.3,6.3-13c2.4-9.2,11.5-18.2,19.4-13.6c5.4,3,6.9,12.1-4,18.5
		c-3.4,2-6.4,2.9-9.9,2.6c0.4,5.9,4.2,9,7.9,9.3c12.6-0.5,15.6-12.9,16.5-15.1c11-25.9,35.4-4.7,14.5,7.4c-3,1.7-6.5,3-9.9,2.6
		c0.4,5.9,4.4,9.1,7.9,9.3c9.2-0.8,16.4-7.6,21.4-20.4c-2.5-7-0.9-16.4,5.9-20.7c12.1-7.9,20.3,11.3,1.7,22c0,0.3,4.2,7.1,4.2,7.1
		c9-1.4,14.7-4.3,17.1-8.8C571.8,154.6,575.8,155.2,576,159.3z M512.4,162.7c1.6,0.4,3.2-0.1,6.2-1.9
		C530.8,153.3,516.3,149.7,512.4,162.7z M441.8,144c-1-0.9-4,1.8-4.6,2.8s-0.8,2.3-0.7,3.9c0.2,1.6,0.3,2.4,0.4,2.5
		C438.6,151,441.5,146.7,441.8,144z M483.3,158.5c1.6,0.4,3.2-0.1,6.2-1.9C501.1,149.9,488.4,144.8,483.3,158.5z M546.2,153.2
		c3.2-1.9,6.5-4.5,7.1-8.2c0.1-0.8-0.3-2-0.4-2.1c-1.3-0.6-5.1,1-6.3,5.3C545.8,150.5,545.9,152,546.2,153.2z M550.4,174.9
		c-6.5,3.1-8.2,8.6-6.8,15.7c1.8,4.1,5,4.4,9.7,0.7C556.7,187.1,552.2,177.9,550.4,174.9z M242.9,331.8c-1.9-2-1.4-4.6-0.9-6.6
		s2.8-3.3,4.3-3c0.2-0.1,1.5-0.1,3.9,0.2C258.2,325.1,249.4,337.1,242.9,331.8z M592.8,347.8c-6.3,14.5-17.8,22.2-34.3,23
		c-8.9-0.2-16.3-5.9-18.1-15c-6,4.7-12.8,5.8-20.5,4.7c-9.1,13.7-26.9,16.6-32,1.3c-14.3,23.9-29.5,33.9-41.6,8.7
		c-0.9-2.8-1.5-6.3-1.8-10.6c-10.8,11.3-34.3,16.9-42.6,1.4c-18.1,31.3-41.3,25.5-45-1.4c-14.5,25-30.2,36.6-42.7,10.5
		c-1.2-3.6-1.9-8.6-1.9-14.7c-5.1,3.2-11.7,4.9-17.7,6c1.1,1.5,1.9,2.9,2.4,4.2c5.3,9.2,4.7,16.3-1.7,21.3
		c-10.4,6.2-19.6,6.9-25.3-3.9c-2.8-12.8,1.8-20.7,11.9-25.5c-1.2-1.5-2.1-2.8-2.8-3.7c-8.3,14.3-24.5,27.7-33.3,26
		c-3-0.6-5.4-2.6-7.4-6.2c-0.8-2.2-1.3-4.9-1.4-8.1c-4.9,7.2-9.8,12.1-14.8,14.6c-4.2,2.7-9.3,4.3-14,2.7
		c-8.4-3.5-7.8-11.2-5.8-20.2c0.4-1.4,4.5-16.5,3.8-15.2c-3.5,4.5-8.3,14.1-12.2,17.7c-3.5,3.2-7.9,2.8-10.1-0.9
		c-1.3-2.4-1.2-5.4-1-8.4c0.6-10.3,5.2-34.6-4.2-17.4c-4.4,8.1-7.3,18.9-8,23.6c-1.5,5.3-5.4,6-8.4,3.9c-5.5-5.5-5.4-19.2-4.2-27.6
		c0.8-3.5,0.1-5.4,2.1-6.6c1.8-1.4,4.8-1,5.8,0.6c2.2,2.1-0.4,4.6-0.4,14.7c0,1.4-0.4,5.3-0.3,5.5c0.3-1.1,2-8.7,3.6-12.3
		c8.3-18.5,19.6-18.9,22.6-11.9c2.3,5,1,14.6-0.3,27.9c-0.1,0.3,0.3-0.2,1.1-1.5c2.8-4.7,8.1-13.7,11.8-16.1c4.7-3.5,12-1.4,10,11
		c-0.9,8.6-8.3,23.9-3,26.3c13.1,0.5,22.6-18.2,28.2-30.7c0.5-1.9,1-3.8,1.6-5.5c0.5-2.2,3.3-3,5-2.4c2,0.4,3.6,2.8,2.7,4.6
		c-0.4,1-0.7,2.1-1,3.2c0,1-0.2,1.3-0.5,1.9c-1.2,5.6-2.9,18.7-1.1,24.1c1.3,3.7,18.8-5,28.3-25.6c-0.5-1.1-2.5-8.6-0.2-13.2
		c4.4-11.5,19.9-14.1,23.6-6.1c2.8,5.1,0.7,14.3-13.3,20.9c0,0.3,5.4,7.6,5.5,7.6c19.3-2.4,21.6-8.6,23-10.2
		c0.3-3.1,1.1-9.7,2.5-17.3c-1.1,0-3.6-0.8-7.8-0.5c-5.4,0.3-8.7-10.3,8.6-6.7c4.2-14.9,5.1-18.7,6-20.5c1.3-4.3,9.5-2.8,7.7,2.3
		c-1.8,5.1-4.5,16.9-5.1,20c0,0,4.5,2.6,11.5,2.6c2.5-0.2,5.1-0.9,7.7-2.3c3.3-1.9,7,1.1,6,4.1c-0.2,1-0.8,1.7-1.8,2.3
		c-9.4,5.1-17,3.3-24.9,1c-1.8,10.2-4.9,29-1.3,38.3c11.3,29.2,31.1-20,34.9-24.1c2-16,8-27.8,15.8-39.6c12.7-17,27.1-11.9,27.9,0.1
		c-0.5,23.3-13.6,37.4-35.2,44.6c-1,10.9,2.4,31.4,14.6,24.9c12.1-6.1,20.5-28.6,21.6-31c14.4-27.8,46.6-5.3,19.1,7.8
		c-4.5,2.1-8.4,3.1-13,2.8c0.5,6.2,5.4,9.7,10.4,9.9c12.4-0.8,21.3-7,26.7-18.6c0.2-3,1.1-9.7,2.5-17.2c-1.1,0-3.6-0.8-7.8-0.5
		c-5.4,0.3-8.7-10.3,8.6-6.7c6-20.9,5.6-21.7,7.9-22.7c3.4-1.5,6.9,1.2,5.8,4.4c-1.7,5-4.4,16.4-5.1,20c0,0,4.4,2.6,11.5,2.6
		c6.6-0.4,7.7-3.5,10.7-2.7c3.4,0.5,4.3,5.1,1.1,6.8c-9.1,5-16.5,3.4-24.9,1c-1.8,10.2-4.9,29-1.3,38.3c11.6,30,31.6-22.5,36-25
		c0.7-1.1,1.4-2.1,2.3-3.1c-0.9-5.1,1.1-9.3,5.9-12.7c12.3-9.3,29.7,1.7,25.2,26.2c13.3,1.2,14.9-8.2,18.3-9.7
		c9.2-21,33.1-15.1,29.9-3.1c-1.7,7.6-15,13.5-23.4,13c0.5,6.2,5.4,9.7,10.4,9.9c12.5-0.8,21.4-7,26.7-18.7c1.2-2.3,2.9-3,5.2-2.1
		C592.8,343.4,593.6,345.1,592.8,347.8z M549.3,346.3c1.2,0.3,2.5,0.2,3.8-0.2c2.9-0.9,10-4.1,10.6-7
		C564.4,336.2,555.2,334.8,549.3,346.3z M365.8,340.7c16-5.7,25.3-17.2,26.8-36c-0.1-3.3-1.5-3.9-3.4-3.8c-5,0.3-9.5,7-12.1,11.2
		C371.8,320.6,366.4,330.7,365.8,340.7z M281.3,340.7c2.1-1,3.9-2.1,5.3-3.1c2.1-1.7,4.7-4.6,3.8-7.1c-0.2-0.5-0.3-0.8-0.3-0.9
		c-1.8-0.7-6.7,1.1-8.3,5.6C280.7,337.7,280.9,339.3,281.3,340.7z M289.8,369c-0.6-1.6-1.6-3.3-3-5.2c-7.7,3-11,8.4-8.9,16.8
		c2.3,4.4,6.5,4.7,12.7,0.8C293.1,378.9,292.9,374.7,289.8,369z M409.3,345.6c0,0.2-0.1,0.5-0.1,0.7c2,0.4,4-0.1,7.9-2.1
		C431.6,337.3,416.9,331.7,409.3,345.6z M511.6,358.8c-6.2-1.8-12.7-6.9-15.5-10.5c-3.1,8.2,0,14.6,3.5,16.2
		C503.9,365.9,509.5,361.1,511.6,358.8z M503.3,332.9c-1.5,1.1-2.1,1.1-2.3,2c0.2,0,0.6,0.3,1.3,0.9c4,3.2,0.8,5.4-0.6,6.6
		c2.4,4.5,8.5,8.3,13.7,9.8C518.7,341.2,512,326.4,503.3,332.9z"/>
	<path d="M186.9,93.5c0,6.4-9.4,9.7-16.1,9.7c-4.3,0-11.3-2.1-11.3-7.3c-2.6-3.5,6.6-6.3,6.6,0.3c0,0.6,2.4,2.1,4.8,2.1
		c4.6,0,9.6-2.5,9.6-4.8c0-8.8-8.5-17.4-11.7-20.8c-8.4-8.9-12.2-13.8-11.9-22.4h-0.1c0-4.6,3.2-14.1,13.2-14.3l0,0
		c0.2,0,0.7-0.1,1-0.1c5.6,0,9.1,3.7,10.2,4.2c1.5,0.8,2,2.3,0.9,3.5c-0.8,1-3,1.4-4.4,0.7c-3.1-1.4-5.2-3.4-6.8-3.4
		c-5.1,0-7.6,6.4-7.6,9.4c0,7.1,3.4,11.1,10.2,18.4C179.1,75,186.9,84.1,186.9,93.5z M230.2,37.4c-0.4-3.2-6.6-3-6.6,0.2
		c0.5,9.7,0,17.1-0.1,18.6c-6.5-6.4-15.2-13.4-19.9-19.5c-1.5-2.1-6.5-1.4-6.1,1.6c-0.4,0.9-0.9,62.2-1,63.2c0,3.2,6.6,3.2,6.6,0
		c0.5-47.8,0.4-36.5,0.7-55.7c6.6,6.5,14.6,12.9,18.6,18c0.2,0.2,0.4,0.4,0.7,0.6c-0.2,7.4,0.1,34.1,0.3,36.6
		c-1.9,2.9,3.4,4.9,5.6,2.5c1.7-1.9,1.2-6.5,1-9.2C228.8,78.6,230.9,51.9,230.2,37.4z M280.2,77.4c-0.2,3.7-1.5,6.6-2.2,9.5
		c-1,4.1-4,16.5-18.3,16.5c-15.7,0-19.2-22.3-19.2-30.8c-0.1-3.6-0.4-5.3-0.4-10.3c0.7-12.2,3.2-27.5,15.5-27.5c2,0,3.5,0.2,4.8,0.6
		c5.9,1.2,9.2,4.4,11.3,6.5c0.4,0.4,0.6,0.5,0.8,0.9c0.1,0.1,0.2,0.2,0.2,0.4C277,50,280.2,57.4,280.2,77.4z M266.7,45.1
		c-7.9-6.4-10.2-5.1-12.6-4.9c-12.4,8.2-8.2,58.4,5.6,58.4c9.4,0,11.3-10.6,12.7-15.6c0.6-2,1.1-3.8,1.2-5.7
		C273.6,51.7,267.6,47.5,266.7,45.1z M334.5,35.9c-5.5,0-0.9,1.1-12.4,54.9c-2.3-4.3-4.5-8-6.6-11.1c-1.3-1.9-5.7-1.5-6.6,0.5
		c-2.4,5.1-5.3,9.2-8.4,13.9c-2.7-17.6-6.6-37-8.3-55.3c-0.4-3-6.6-3-6.6,0.4c2.1,21.5,6.9,44.3,9.6,63.8c0.2,2.1,3.9,3.1,5.8,1.3
		c0.7-0.3,0.7-0.5,1.1-1.1l0,0c0,0,0.1-0.1,0.1-0.2c2.7-5.6,6.9-10.8,10.4-16.7c2.8,4.5,5.6,10,7.9,15.2c-0.3,3.7,7.3,4.1,7,0.5
		c0.3-0.7-0.1-2.6-0.2-3.8c7.3-33.5,10.5-58.3,10.5-59.8C337.8,37.1,336.3,35.9,334.5,35.9z M352.8,36c-2.2-0.7-4.7,0.5-4.7,2.1
		c-0.5,15.8-1.4,35.3,0.2,50.1c0.6,6-0.1,7.9,0.9,13.5c0.6,2.9,6.6,2.7,6.6-0.3c-1-5.6-0.2-6.9-0.9-14c-1-9.4-0.8-17.1-0.8-20.6
		l11.4-0.2c4,0,4.5-4.9-0.2-4.9l-11.2,0.2c0-2.9-0.1,0.3,0.5-21c13.7-0.9,18.8,1.2,18.8-2.7C373.5,35.7,371.6,34.9,352.8,36z
		 M405.8,98.6l-15.6,0.2c-1.6-40.1,0.3-27.3,0.3-60.9c0-3.3-6.6-3.2-6.6,0v14.2c-1.7,14.3-0.4,43.8-0.4,48c-1.2,1.5,0.3,3.7,3,3.7
		c1.7,0-1,0,19.4-0.3c1.4,0,3.2-0.8,3.2-2.5C409.1,99.7,407.6,98.6,405.8,98.6z M456.7,85.7c0,2.7-2.5,2.7-5.1,3
		c0.1,0.4,0.1,0.9,0.1,1.4c3.7,11.3,4.1,13.9,0.5,14.5c-4.7,0.2-3.7-2.7-5.7-9.1c-2.1-6.9-1.3-5.5-1.6-6.6l-18.5,0.3
		c-0.9,2.3-1.4,6.6-2.6,11.6c-0.8,2.3-1,4.1-3.8,4.1c-1.5,0-3.4-0.8-3.4-2.4c0,0,0.6-2.1,3-13.2h-1.2c-4.7,0-4.2-4.9-0.2-4.9
		l2.5-0.1c2.8-17.7,5.9-20.6,11.4-47c0.4-2.4,6.2-3.4,7.3-0.7c4.4,9.5,3.7,19.2,6.7,27.9c0.6,0.6,4.3,18.6,4.4,19.4l2.9-0.3
		C455.1,83.5,456.6,84.5,456.7,85.7z M428.9,75.6c-0.8,2.8-1,5.6-1.5,8.5l16.4-0.2c-4.8-23.3-4-15.4-7.6-35.2
		c-3.3,12.7-2.4,10.1-4.5,16.7c-0.9,2.8-1.7,5.4-2.3,8.5L428.9,75.6z M497.9,99.5c0,0-16.4-20.9-23.5-31.9c0.3-0.2,0.6-0.5,0.8-0.9
		c1.9-4.3,18.4-23.3,18.4-26.5c0-2.7-5.1-3.4-6.3-0.9c-2.8,5.4-9.6,13.1-14.2,19.4L473,39c0-3.2-6.6-3.3-6.6,0
		c0.5,58.2-0.1,14.6,0.7,63.4c0,3.2,6.6,3.3,6.6,0l-0.4-25.6c6,8.6,12.6,16.7,18.5,24.5c1.2,3.3,2.8,4.3,6.2,1.8
		C499.2,102,499.3,100.7,497.9,99.5z M507.9,35.8c-2.2,0-3.3,1.2-3.4,2.4c0,54.9,0.3,33.2,0.9,61.4c-2.3,1.6-0.7,4.3,2.2,4.3
		l17.3-0.5c4.3,0,4.4-4.9,0-4.9L512,98.9c-0.4-10.5-0.7-19.5-0.8-28.3l9.6,0.1c4.3,0,4.3-4.9,0-4.9l-9.6-0.1V40.8
		c15.5,0.4,14.6,0.5,14.6,0.5c2,0,3.3-1.3,3.3-2.5C528.9,35.6,523.7,36.2,507.9,35.8z M551.1,68.7c-7.1-7.6-10.2-11.5-10.2-18.4
		c0-3,2.5-9.4,7.6-9.4c2.1,0,5.8,3.8,8.5,3.8c1.7,0,3.3-0.9,3.3-2.5c0-1.4-1.1-1.7-2.1-2.5c-6-4.6-9.6-3.8-10.7-3.8l0,0
		c-10,0.2-13.2,9.7-13.2,14.3h0.1c-0.5,15.2,14.9,22.3,20.4,33.1c2,3.7,3.2,6.6,3.2,10.1c0,2.3-5,4.8-9.6,4.8
		c-2.4,0-4.8-1.5-4.8-2.1c0-6.6-9.1-3.8-6.6-0.3c0,5.1,6.9,7.3,11.3,7.3c6.8,0,16.1-3.4,16.1-9.7C564.6,82.8,554.3,72.2,551.1,68.7z
		 M204.5,270.9l-3.2,0.1c0.2,5.2,0.4,11.2,0.6,16.2c0,3.6-6.9,3.3-6.9,0.2c-0.1-4.9-0.3-10.8-0.6-16.2l-19.9,0.5
		c0.1,12.7,0.7,18.2-4.2,18.2c-1.6,0-3.5-1-3.5-2.6c0-1.1,0.8-2.8,0.8-10.1c0-1.7-0.1-3.6-0.1-5.4c-1.1,0-5.2,0.5-5.5-2.4
		c0-2.9,4-2.7,5.3-2.8c0-1.1,0.7-42.4,1-46.2c0.4-3.4,6.9-3.1,6.9,0.2c-0.4,6.9-1,44.7-1,45.9l19.9-0.5c-0.9-24.4-0.2-20.1-0.2-26
		c0-0.5-0.5-5.2-0.5-9.3c0-4.7,0.1-8.2-0.7-11.8c-0.4-3.8,6.2-3.8,6.9-0.9c0.6,3,0.7,5.9,0.7,8.3c0,14.5,0.8,9,0.3,17.5
		c-0.3,5.5,0.1,14.1,0.3,22l3-0.1C208.9,265.8,208.9,270.7,204.5,270.9z M256.4,261.7c0,2.1-0.9,5.2-1.5,7
		c-1.5,4.8-3.5,20.4-20.4,20.4c-16.8,0-20.4-23.4-20.4-32.4c-0.1-3.1-0.5-6.3-0.5-9.7c0-26.4,11.8-32.8,21.5-29.4
		c6.4,1.2,9.8,4.6,12.5,7.2c0.1,0.1,0.3,0.3,0.4,0.5c0.1,0.1,0.2,0.2,0.3,0.4C253.1,233,256.4,240.9,256.4,261.7z M242.1,227.7
		c-8.4-6.7-10.9-5.4-13.5-5.2c-6.1,4-7.4,17.2-8.1,24.5c-0.2,2.4,0.3,6.2,0.5,9.4c0,7.1,4.6,27.5,13.5,27.5
		c7.8,0,11.2-7.1,12.7-13.1c0.8-3.3,2.1-6.3,2.2-9.2C249.4,234.8,242.9,230.2,242.1,227.7z M294.5,217.9l-32.5,1
		c-4.7,0.2-4.1,5.1,0,5.1l11.7-0.3c0.5,6.7,0.4,5.5,0.4,21.8c0,0.1,0.1,2.3,0.1,2.3c-0.3,37.5-0.1,29.2-0.6,38.3
		c0,3.4,6.6,3.5,6.9,0.2c0.7-12.5,0.9-52.5,0-62.8l13.8-0.4C299.2,222.7,298.7,217.9,294.5,217.9z M367.8,274.2
		c-3.2,0-5.1,3.6-6.3,6.5c-1.2,2.9-1.7,3.7-6.7,3.2c-6.2-0.7-8.1-4.4-10.4-9.9c-4.4-10.4-2.7-20.5-2.7-30.6
		c2.8-8.7,1.3-18.6,11.6-20.5c2.4,0,6.3,0.3,6.3,2.6c0,1.4,1.5,2.6,3.4,2.6c6.5,0,4.8-10.4-9.3-10.4c-0.4,0-1,0-1.3,0.1
		c-17.3,2.7-15.5,18.5-17.4,24.5c-0.2,0.3-0.2,0.5-0.2,0.7c0,7.3-4.5,43.4,18.1,45.8c8.7,0.9,13.6-0.5,16.9-9.2
		c0.2-0.6,0.5-1.3,0.6-1.4c0.5-0.4,0.8-1.1,0.8-1.6C371.2,274.9,369.2,274.2,367.8,274.2z M420.4,261.7c0,3.1-1.7,7.3-2.3,10
		c-1.1,4.3-4.3,17.3-19.5,17.3c-16.8,0-20.4-23.4-20.4-32.4c0-1.2-0.1-2.4-0.2-3.6c-1-14.6,1.5-36.1,16.2-36.1
		c10.2,0,17.3,7.1,18,8.4c0.1,0.1,0.2,0.2,0.3,0.4C417.1,233,420.4,240.8,420.4,261.7z M406.1,227.7c-8.4-6.7-10.9-5.4-13.5-5.2
		c-6.1,4-7.4,17.2-8.1,24.5c-0.2,2.4,0.3,6.2,0.5,9.4c0,7.1,4.6,27.5,13.5,27.5c7.8,0,11.2-7.1,12.7-13.1c0.8-3.4,2.1-6.3,2.2-9.2
		C413.5,234.7,407,230.2,406.1,227.7z M461.5,275.1c-4.9,4.7-2.7,8.9-7.7,8.9c-7.9,0-10.1-3.3-13-10.2c-4.4-10.4-2.6-20.3-2.6-30.5
		c2.8-8.7,1.3-18.6,11.6-20.5c2.4,0,6.3,0.3,6.3,2.6c0,3.5,6.9,3.5,6.9-0.1c0-7.4-13.1-8.1-14.2-7.6c-17.3,2.7-15.5,18.5-17.4,24.5
		c-0.2,0.3-0.2,0.5-0.2,0.7c0,8.9-4.3,43.4,18.1,45.8c8.7,0.9,13.6-0.5,16.9-9.2c0.2-0.6,0.5-1.3,0.6-1.4c0.5-0.4,0.8-1.1,0.8-1.6
		C467.7,274.2,463.4,273.3,461.5,275.1z M516.9,261.7c0,2.1-0.9,5.2-1.5,7c-1.5,4.9-3.5,20.4-20.4,20.4c-16.8,0-20.4-23.4-20.4-32.4
		c0-1.2-0.1-2.4-0.2-3.6c-1-14.7,1.6-36.1,16.2-36.1c10.2,0,17.3,7.1,18,8.4c0.1,0.1,0.2,0.2,0.3,0.4
		C513.6,233,516.9,240.8,516.9,261.7z M502.5,227.7c-8.4-6.7-10.9-5.4-13.5-5.2c-13.1,8.5-9,61.4,6,61.4c7.8,0,11.2-7.1,12.7-13.1
		c0.8-3.4,2.1-6.3,2.2-9.2C509.9,235,503.3,229.8,502.5,227.7z M563.9,273.6c0.1,0.5,0.1,1,0.1,1.5c3.2,9.6,5.2,15.3-0.1,15.3
		c-4.2,0-3.6-4-5.3-9.7c-2.3-7.5-1.3-5.7-1.7-7l-19.8,0.3c-1.7,4.5-0.8,6.7-3.6,14.5c-0.8,3.3-7.8,2-6.7-0.9c0,0,0.3-0.6,3.1-13.4
		h-1.3c-5,0-4.4-5.1-0.2-5.1l2.7-0.1c3-18.7,6.7-23.6,12.1-49.4c0.4-2.5,6.6-3.6,7.7-0.7c4.7,10,4,20.2,7.2,29.3
		c0.6,0.6,4.6,19.6,4.7,20.4l3.1-0.3c1.7,0,3.2,0.9,3.5,2.1C569.7,273.2,566.5,273.3,563.9,273.6z M539.8,259.8
		c-0.9,3-1.1,5.9-1.6,9l17.6-0.2c-6.5-31-2.9-9.6-8.2-37.2c-0.2,0.7-2.2,8.8-2.5,9.9c-1.5,6.4-3.6,10.8-4.8,16.8
		C540.2,258.1,539.8,259.8,539.8,259.8z M197,459c0.9,2,0.7,6.8,0.2,8.9c-3.1-8.5-7.3-16.5-10.4-24.6c3.4-7,7.4-13.7,11.2-20.7l0,0
		c6-10.3,0.7-16.4-8.8-16.4c-16.6,0-15.1,20.6-9.3,36.9c-7.9,16.5-13,38,5.7,38c3.6,0,6.9-0.7,9.7-2c1.3,2.8,1.6,4.3,4.2,4.3
		c1.6,0,3.2-0.9,3.2-2.6c0-0.7-2.2-4.8-2.5-5.5c4.9-5.6,4.3-14.9,2.6-18.3C201.3,454,195.5,455.6,197,459z M185.5,475.8
		c-4.5,0-6.4-2.2-6.4-7.4c0.4-5.3,1.7-10.9,4.1-17c3.2,7.5,6.7,14.4,9.1,21.6c0,0.1,0,0.3,0.2,0.5l0.3,0.6
		C190.9,475.3,188.4,475.8,185.5,475.8z M189.2,411.5c3.5,0,4.9,0.9,4.9,3.3c0,2,0,1.9-2,5.6l-0.2,0.2v0.1
		c-2.4,4.5-5.3,9.3-7.9,14.2C180.5,421.2,182.7,411.5,189.2,411.5z M262.4,478.3L262.4,478.3c-6.2,4.5-14.7,4.6-18.6,2.4
		c-1.7-1.3-1.4-1.1-2.1-1.4c-0.2-0.2-1.1-0.9-1.1-1c-1.8-1.2-2.9-1.9-2.9-3.4c0-2.5,4.2-4.2,8.1-0.1c1.1,1.1,2.3,2,6.1,2
		c3.6-0.1,3.7-0.4,6.4-2.5c4-2.6,5.8-6.3,5.9-12.4c0-12.3-8.2-15-14.5-19.1c-13.6-9-11-12.7-11.1-17c0-10.9,6.9-16.7,15.9-16.7
		c4.8,0,12.1,3.6,12.1,6.4c0,2.7-4,3.4-5.8,1.7c-1.1-1.2-4.2-2.8-6.2-2.8c-7.9,0.6-9.5,6.1-9.5,13.8c0,5.1,5.2,7.2,11.5,11.6
		C273.2,447.7,275.4,470,262.4,478.3z M318.2,461.4l-2.9,0.3c-0.3-1.6-3.8-20.6-4.4-21.2c-3-9.5-2.3-20.1-6.6-30.5
		c-0.5-1.5-3-2.4-5-1.3c-2.9,0.8-1.3,0.6-6.9,23.8c-1.9,9.3-4,12.2-6.5,29.7l-2.4,0.1c-1.7,0-3.1,1.2-3.1,2.7c0,1.4,1.5,2.6,3.4,2.6
		h1.1c-2.8,13.9-2.9,14-2.9,14c-0.5,1.5,1.3,3,3.3,3c2.8,0,3-2.1,3.8-4.4c1.3-5.9,1.5-9.3,2.6-12.7l18.2-0.3c0.3,1.1-0.4,0,1.6,7.3
		c0.8,2.8,0.7,3.2,0.7,3.2c0,0.4,0.3,1.3,0.3,1.7c1,3.5,1,5.3,4.6,5.1c3.5-0.7,3.1-3.4-0.5-15.8c0-0.5-0.1-1.1-0.1-1.6
		c1.5-0.2,5.4-0.1,5.1-3.4C321.2,462.3,319.8,461.4,318.2,461.4z M294.5,450.8c1.1-6.3,3-10.8,4.4-17.5c0,0,0-0.1,2.3-10.1
		c4.6,27.2,1.7,7.1,7.6,38.6l-16.2,0.2c0.6-4.4,0.5-5.4,1.7-10.3C294.5,450.9,294.5,450.8,294.5,450.8z M362.3,425.2
		c-1.9,37.4,1.3,54.9-1.2,58.1c-2.1,2.6-7.4,0.5-5.5-2.7c-0.2-2.8-0.6-31.5-0.3-40.1c-0.3-0.2-0.5-0.4-0.7-0.6
		c-4-5.5-11.8-12.5-18.4-19.6c-0.4,21.2-0.2,8.7-0.7,60.9c0,1.4-1.5,2.6-3.2,2.6c-1.8,0-3.2-1.2-3.2-2.6c0-1,0.6-68.2,0.9-69.2
		c-0.5-3.3,4.5-4,6-1.7c4.7,6.7,13.3,14.4,19.6,21.3c0.5-12.9,0.1-19.5,0.1-20.6c0-3.1,6.1-3.7,6.5-0.1
		C362.3,415.8,362.3,420.3,362.3,425.2z M402.9,414.3l-12.8,0.4c0.7,10.1,0.7,50.9,0,65.4c-0.3,3.5-6.5,3.3-6.5-0.2
		c0.4-9.1,0.3-0.9,0.5-39.9c-0.1,0.3-0.1-16.4-0.1-16.8c0-2.6-0.2-5.4-0.4-8.3l-10.8,0.3c-3.8,0-4.5-5,0-5.3l30-1
		c1.6,0,3.1,1.1,3.1,2.7C406,413.1,404.7,414.2,402.9,414.3z M442.7,461.4l-2.9,0.3c-0.3-1.7-3.8-20.6-4.4-21.2
		c-3-9.5-2.3-20.1-6.6-30.5c-0.5-1.5-3-2.4-5-1.3c-3.7,1-1.2,3.7-9.1,32.5c-4.4,16.1-3.8,17-4.3,21l-2.4,0.1c-1.7,0-3.1,1.2-3.1,2.7
		c0,1.4,1.5,2.6,3.4,2.6h1.1c-0.1,0.5-3,15-3,14.5c0,1.8,2.2,2.6,3.4,2.6c2.8,0,3-2.1,3.8-4.4c1.5-6.7,1.5-9,2.6-12.7l18.2-0.3
		c0.3,1.1-0.4,0,1.6,7.3c0.8,2.8,0.7,3.2,0.7,3.2c0,0.4,0.3,1.3,0.3,1.7c1,3.5,1,5.3,4.6,5.1c3.5-0.7,3.1-3.4-0.5-15.8
		c0-0.5-0.1-1.1-0.1-1.6c2.8-0.3,5.1-0.4,5.1-3.2C445.8,462.6,444.5,461.4,442.7,461.4z M419,450.8c1.1-6.3,3-10.8,4.4-17.5
		c0,0,0-0.4,2.3-10.1c4.6,27.1,1.9,8.1,7.6,38.6l-16.2,0.2c0.7-4.6,0.5-5.4,1.7-10.3C419,450.9,419,450.8,419,450.8z"/>
	<g>
		<path d="M496.6,414.8c3.7,7.6,31.1,25.7,30.7,29.3c-13.3-9.1-25.7-2.9-25.4-2.9c5-18.2-14.3-15.4-14.3-15.4
			c7-5.6-3.5-18.3-3.5-18.3c13.3,7.3,19.7-3.9,19.4-4.1c7.9,14.6,17.7,6.2,17.7,6c-4.4,17.6,8.9,32.2,8.9,32.2
			S498.4,412.9,496.6,414.8z M539.6,438.1c7.5-9.7,14.3-14.7,23.7-18.7c-4.7-0.7-10.2-8.4,2.6-17.7c-4.7-1.4-10.5-8.6-9.6-18.9
			c-0.5,7.9-13.6,13.7-16.3,8.6c0,0,2.9,6.2-1,13.6c-4,7.4-10.4,5.2-10.5,5c8.7,17.5,8.5,26.9,8.5,26.9
			C538.3,425,568.7,351.4,539.6,438.1z M524.2,448.5c0,0-9.2,2.3-28.1-2.5c0.1,0,3.7,5.9-2.7,11.3c-6.4,5.5-13.1,3.9-13.1,3.9
			c5.6,1.6,2.7,15.6-4.8,17.8c9.8-3.2,18.1,0.9,20.6,5.3c6.1-14.3,15-10.9,16.7-6.3c1.8-10,5.3-17.9,13.2-27.2
			C447.6,497.8,513,452.4,524.2,448.5z"/>
		<path d="M542.4,446c-1.9-4.8,0.6-10.1,5.2-11.8c4.8-1.9,10.1,0.6,11.8,5.2c1.9,4.8-0.6,10.1-5.2,11.8
			C549.5,453.1,544.2,450.7,542.4,446z M558.7,470.5c4.8-1.9,7.1-7.1,5.2-11.8c-1.9-4.8-7.1-7.1-11.8-5.2c-4.8,1.9-7.1,7.1-5.2,11.8
			C548.8,469.9,553.9,472.2,558.7,470.5z M539.2,465.4c4.8-1.9,7.1-7.1,5.2-11.8c-1.9-4.8-7.1-7.1-11.8-5.2
			c-4.8,1.9-7.1,7.1-5.2,11.8C529.3,465,534.6,467.3,539.2,465.4z"/>
	</g>
	<g>
		<path d="M191.4,171.6c11.7-2.8,11-6.3,10.9-6.3c-12.9-5.5-14.3-11.6-14.3-11.6c5.6-1.4,7.5-4.4,7.5-4.7
			c-12.3-5.4-14.5-14.1-15.1-14.7c-0.5,0.6-2.9,9.4-15.1,14.7c0,0.3,1.9,3.3,7.5,4.7c0,0-1.4,6.1-14.3,11.6c-0.1,0-0.8,3.4,10.9,6.3
			c0.1,0-6.5,9.8-17.9,12.9c-0.1,0,1.4,1.8,1.6,1.8c11.5,10.9,41.2,10.5,53.3,1.1c0.2-0.2,2.9-2.9,2.9-2.9
			C197.9,181.5,191.3,171.6,191.4,171.6z"/>
		<polygon points="187.7,125.4 182.7,124.6 180.4,120 178.2,124.6 173.2,125.4 176.8,128.9 175.9,133.9 180.4,131.6 184.9,133.9 
			184.1,128.9 		"/>
	</g>
</g>
</svg>
