<?xml version="1.0" encoding="utf-8"?>
<!-- Generator: Adobe Illustrator 21.0.2, SVG Export Plug-In . SVG Version: 6.00 Build 0)  -->
<svg version="1.1" id="Layer_2" xmlns="http://www.w3.org/2000/svg" xmlns:xlink="http://www.w3.org/1999/xlink" x="0px" y="0px"
	 viewBox="0 0 731 516.6" style="enable-background:new 0 0 731 516.6;" xml:space="preserve">
<g>
	<path d="M259.2,437.4c-12.4,34.1-58,24-54.7-37.8c1-18.3,6.9-41.9,20-54.8c10.3-10.3,25-10.2,30.1-0.7c3.3,5.9,3,13.6,1.9,18.3
		c-1,2.1-4,0.9-5-0.8c0.3-12.4,0-17.6-6.2-19.3c-13.5-4-27.9,34.9-27.9,70.1c1.1,42,21.2,43.1,29,34.8c5.5-5.9,6.5-10.1,7.3-11.8
		C254.8,433.7,258.6,434.1,259.2,437.4z M293.3,449c-34.9,0-33.4-99.8,2.7-106.3c0.2-0.1,0.4-0.1,0.7,0c0.7,0,1.3,0.3,1.9,0.8
		C340.5,341,330.2,449,293.3,449z M299.2,349c-0.2,0.1-0.4,0.2-0.5,0.2c-3.5,0.7-6.8,4.9-9.6,12.4l0,0c-9,23.7-13,73.4,2,80.8
		c3.5,1.6,7.4,0.4,11.5-3.6C325.1,418.5,322.4,347.8,299.2,349z M392.8,382.4c0,77.3-47.6,92.8-57,33.2c-6.7-43.4,14-74.5,26.3-73.9
		C380.9,335.2,392.8,356.8,392.8,382.4z M366.5,346.3c-17.6,11.6-23.7,62.3-14.1,87.8c4.2,11.8,11.6,13.1,16.2,9.3
		C389.4,427.9,392.4,341.3,366.5,346.3z M479.1,350.1c-3.1,17.1-27.6,31-48.4,36.7c12.6,14,23.7,37.8,31.1,41.2
		c2.7,1.2,3.6,1,3.9,0.7c0.7-0.7,0.6-1.1,0.5-1.5c0.3-1.3,1.1-1.8,2.2-1.6c1.3,0,1.9,1.2,2.2,2.5c0.3,1.4-0.6,3.2-2.6,5.4
		c-2.1,2.3-5.2,2.8-9.5,1.3c-9.3-2.8-16.1-16.4-30.8-40.5c0,16.9-0.2,21,0,34.9c0,23.9,2.4,24-2.7,27.6c-3.2,1.8-4.9,0.6-5.4-1.3
		c-2.5-28-2.3-46-2.3-66.4c-8.3,0.5-16.5-0.2-16.5-7.8c0-5.2,6.2-10.1,16.9-5.3c0.2-5.7,0.8-28.1,2.7-34.7c1.1-2.4,6.2-6.6,8.1-2.7
		c1.1,2.8-0.5,40.2-0.6,43.3c16.9-3.6,41.7-17.1,45.1-31.8C473.6,346.2,478,346.1,479.1,350.1z M406,379.3c-0.6,1.9,1.5,2.6,3.5,3
		c2.4,0.5,5,0.8,7.7,0.8c0.1-0.7,0.1-1.4,0.1-2C413.9,378.6,406.9,376.8,406,379.3z M495.2,370c-1.9-3.5-6.7-3.6-7.8-0.8
		c-3.1,10.9-5.9,41.4-1.2,77c1,2.4,2.6,3.2,4.9,2.6c2.3-0.7,3.4-2.1,3.3-4.1c-1.4-23.7-1.5-41.7-0.2-53.4
		C494.7,387.4,496.3,373.7,495.2,370z M489.2,349.8c0,1.7,1,5.4,3.9,6.2c3.4,1.7,5.8-5.6,5.8-8.1C499,343,489.2,343.5,489.2,349.8z
		 M547.3,439.7c-4,0.8-22.7,3.8-25.8,4.3c-0.8-3,0-29.4,0-35.4c2.7-0.4,18.4-2.9,19.9-3.1c1.5-0.6,1.3-4.4,0-5.2
		c-4.9,0.6-10.1,1.5-19.5,3c0.6-16.4,2.1-46.7,3.9-57.1c4-0.8,17.9-0.1,21.3-0.4c2.1-0.6,1.2-3.4-0.7-4.6c-2.6-1-28.2-1.8-30.5,1.5
		c-3.4,6.2-10.7,105.5-0.8,107.1c7.8,0,29.8-3.6,34.2-5.1C550.4,442.9,549.5,440.4,547.3,439.7z M558.3,354.8
		c-15.3,41.2,41.6,58.9,40.1,83.3c-1.4,18.7-21.9,17.5-21.5,6.6c0.3-3.6,1.1-3.1,2.1-2.3c2.3,0,3.7-3.2,0.9-5.1
		c-6.4-4.4-15,11.5-1.5,19.4c10.3,5.6,21.8-0.9,26.7-11.2c14.3-31.8-48.4-51.3-35.4-86.8c6-17.7,21.8-22.7,32.9-19.4
		c24.2,6,14.3,34.2,6.2,31.8c-1.5-0.5-1.5-1-1.2-1.9c-0.5-1.7-1.6-2.5-3.4-2.1c-1.7,0.3-2.4,1.9-2,4.8c0.9,6,12.5,7.2,18.5-3.8
		c2.3-3.7,3.4-9.4,3.4-12.6C624.1,327.7,570.3,320.6,558.3,354.8z"/>
	<path d="M204.8,267c-8.9,9-23.7,21-34.6,27.3c-1-0.5-2.1-1-3.2-1.4c-1.3-8.1-1.9-18.2-1.9-26.4c10.9-8.7,17.4-13.8,26.4-24.7
		c46.3-56.3-39-66.1-37.9,22.7c-5.8,1.1-14.3-1.6-19.5-4.3l0.7-0.4c0.3-4.5-4.2-6.9-6.9-6.9c-3.4,0-16.5,7.4-17.8,23
		c0,14,7.1,20.1,12.9,20.3c12.1,0,18.5-17.7,13.1-29.5c5.3,2.1,12,3.6,17.7,2.7c0.4,8.9,1.4,15.7,2.7,22.1
		c-9.6,0.3-12.9,11.8,3.2,11.8c13.5,37.6,38,11.3,15.7-6.1c15-8.9,34.4-27,35.5-28.7C210.9,265.8,206.3,265.4,204.8,267z
		 M177.6,316.7c-0.7-0.3-1.9-1.3-4.2-4.5c-2.2-3.4-3.6-7.9-4.6-11.3c0.6-0.3,1.2-0.6,2-1C180.2,307.1,180.3,317.8,177.6,316.7z
		 M165.6,259.1c6.6-84.6,70.6-59.3,5-4.1C168.7,256.6,167,257.9,165.6,259.1z M158,298.3c-2.9,0-3.8-0.3-4.1-0.5
		c0.5-1,2.4-1.4,3.5-1.5C157.7,297,157.8,297.7,158,298.3z M125.6,290.2c-5.8,0.9-6.3-15.4,3.3-25.6
		C135.1,274.9,130.7,289.5,125.6,290.2z M346.4,288c-1.7,0.4-2.2,1.1-2.4,2.3c1,1.2-0.5,1.5-1.9,0.7c-7.7-4.5,2.6-41.7-12.5-40
		c-8.4,0.9-17.9,22-21.4,29.4c0.1-2.1-0.1-12.6-3.5-16.1c-1.5-2.1-5.5-3.4-9.6,1.4c-5.8,6.6-10,16.3-12.1,20.8
		c0.9-10.6,4.9-39.1,5-40.8c-1.6-3.8-5-2.1-9,0.3c-2.7,6.5-4,14.1-5,20.1c-5.2,3.5-12.9,6.4-23.4,12.9c-7.2-17.1-12.3-23-8.6-29.9
		c4.4-8.1,18.2,1.7,13.4,7c-0.8,0.8-1.5,1.4-2.2,0.5c-2.3-0.4-5.1,1.5-2.4,4.4c2.5,2.9,5.5,1.5,8.1-1.3c11-11.8-12-25.5-24.8-15.5
		c-3.5,2.7-4.8,5.9-5,9.3c-1.2,12,8.5,15.7,12.8,31.2c-3.4,2.4-6.5,4.9-9.2,7.4c-7.9,7.3-10.3,18-2.7,21.4
		c12,5.2,28.6-12.1,22.4-29.7c3.7-2.2,7.1-4.1,20.6-11.2c-0.8,7.1-1.7,19.2-0.6,26c1.1,3.4,7.4,4.9,9.5,2.2
		c0.9-1.7,12.1-24.9,16.8-30.3c0.5,2.9-1.5,15-0.1,19.8c0.6,2.4,7.2,3.6,10.3-0.4c1-1.7,13.1-24.9,17.6-30.9
		c0.1,2.5-0.9,10.9,1,20.6c3.8,20.3,21.3,19.8,21.3,10.6C348.8,288.4,347.8,287.7,346.4,288z M237.5,308.3
		c-6.6,5.2-11.2-6.9,5.5-18.6C243.5,295.4,242,304.5,237.5,308.3z M456.3,270c-1.6-0.9-2.2-1.8-2.6-2.9c0.9-2.1,2.2-8.6,0.7-10.2
		c-4.1-4.6-16.5,26.3-17.7,44.9c-0.5,2.5-5.3,6.3-9.3,1.8c-1.5-7.9-2.6-18.3-2.9-27.6c-5,7.2-21.9,30.5-30.3,27.9
		c-11.6-2-9.8-26-9.2-37.7c-4.6,7.3-16.2,25.1-24.5,22.8c-11.8-3.3-9.3-24,1.4-34.5c10.6-10.1,25.1,5.4,13.3,9.1
		c-2,0.4-4.1-2.7-2.4-4.1c0.4-0.2,0.4-1.9-0.4-1.7c-1.2,0.2-2.3,1.3-3.5,3.3c-5.7,9-6.6,21.7-5.9,22c2.5,1.5,18.2-20.5,25.8-38.1
		c1.5-1.3,3.5-1.4,5.6-1.4c4.7,0,5.7,2.2,3.9,15.6c-0.8,6.6-4.8,39.2-2,39.7c5,0.8,26.9-31.7,28.1-33.5c0.3-6.5,0.9-15.6,3.8-21.5
		c3.2-2.3,6.1-3.6,7.7,0c-0.4,7.8-0.7,29.4-0.6,35c1.8-7,4.6-14.5,8.3-20.7c2.9-4.8,6.7-7.9,12.1-6.4
		C467,255.2,463.6,273.8,456.3,270z M532.7,225.8c0,13.3-32.8,7.9-45.2,6.4c-2.4,12.2-11.6,65.1-0.2,70c6.3,2.9,27.7-32,31.1-39.8
		c2.4-1.2,4.6-0.9,6.2,1.3c-4.4,9.7-25.8,44.6-37.9,44.6c-19.6,0-18.4-45.3-10.7-77.6c-12-1.2-21.1,3.3-21.4,4.5
		c0.1,0.3,0.1,0.4,0.1,0.4l0.3-0.1l0.2,0c3.1,1.3,0.7,4.8-1.3,4.8c-6.7-0.1-9.5-16.8,23.3-14.5c1.7-6.6,3.3-11.6,4.7-14.9
		c0.8-1.2,3.2-2,4.6-2.4c2.4-0.6,4.1,0.2,4.8,3.3c0.2,1.3-2.4,13.9-2.7,15.2c4.5,0.5,9.2,1.1,13.8,1.9c12.3,2.1,22.8-0.1,24.3-2.5
		l-0.2,0.1c-0.3-1.1-0.7-2.4,0-3.4C527.8,220.6,532.7,222,532.7,225.8z"/>
	<path d="M163,66.9c0.5,1.2,0.1,2.1-0.9,2.8c-14.9,1-12.5,1-20.4,1.6c1.8,2.9,3.7,98.8-1.8,123.9c-0.6,2-3,2.2-5,2.2
		c-6-0.3-5.2-5.4-5.2-12.9c0-6.8,2.6-111.1,2.6-112.3c-2.9,0.2-5.8,0.5-8.4,0.7c-9.3,1.1-11.7,1.3-11.7-1.5c0.2-1.7,1.7-3.3,2.8-3.7
		c8.5-1.1,19-1.7,28.2-2C160.6,65.1,162.3,64.7,163,66.9z M216.3,66.5c-1.7-0.2-8.1-0.6-15.3-0.6c-2.7,0-22.8-0.1-24.5,1.9
		c-4.4,7.2-13,122.9-2.8,122.9c7.5,0,31.9-3.5,41-5.4c1.2-1.9,0.3-4.2-2.1-4.8c0,0-28.3,4.6-28.3,4.6c-2.4-2.3-1.2-62-0.8-69.6
		c21.5-3.2,17.2-2.3,24-3.3c1.4-0.5,1.2-4.5,0.1-5.2l-0.1,0c-17.6,2.2-12,1.4-23.8,3.1c0.3-10,1.3-25.1,2.6-38.2
		c1.9-0.5,29.2-0.7,30.9-0.7c0.3-0.5,0.7-1.8,0.7-2.8C217.7,67.6,216.9,66.7,216.3,66.5z M286.9,191.3c0,0.1,0,0.2,0,0.2
		c0,5.4-10.3,3.9-12.3,0.1c-2.9-11.3-4.7-23-7.8-41.5l-31,2.9c-2.2,9.3-5.6,29-5.6,29c-1.5,2.2-6.8,3.2-6.8-1.6
		c0-2.7,2-14.1,3.2-20.6l0,0c4.8-23.5,12-53.4,19.3-76.3c3-10.3,3.9-14.5,12.8-16.1C273,67.3,270,127.4,286.9,191.3z M253,81.8
		c-10.5,38.3-13.9,55.6-16.2,65.7c7.2-0.7,17-1.8,29.1-3.1C265.5,141.2,257.6,81.9,253,81.8z M353,171.2c-3,7.6-7.3,19.2-18.7,17.9
		c-49.7-4.7-22.1-126,9.4-115c3,0.9,4.8,3.9,5.3,8.8c0.4,3.5,0.7,8.3,0.4,11.8c0.4,1.7,4.7,2.5,5.6,0.8c1.9-5.8,2.7-21.4-9.8-26.6
		c-54-20.4-77.9,122.5-12.7,125.6c18.2,0,25.6-18.5,25.6-21.9C358.1,170.3,354.9,169.8,353,171.2z M438.1,62.3
		c-2.4,0.6-5.4,3.1-6.2,4.5c-6,15.6-11.8,57.9-12.2,60c-6.9,0.6-14.3,0.6-35.6,4.4c0.2-1.7,2.2-53.7,1.3-55.7
		c-1.3-1.8-2.9-1.9-4.9-1c-4.5,2.4-4.9,3.6-5.9,17.3c-1.2,11.7-1.4,29.4-1.4,41.2c-3.2,0.6-5.1,0.9-5.1,0.9c-3,1.8-3.6,6.6-0.5,6.6
		c1.1,0,2.9-0.2,5.6-0.7c0.5,18.1,1.2,36.4,4.8,54.2c1,2.4,2.5,3.1,4.8,1.4c5.1-4.4,1.3-0.4,1.3-57.9c8.4-1.6,26.6-4.9,35.1-5.6
		c-0.5,3.9-4,37.3,0.6,56.6c1.4,3.7,3.5,5.8,6.4,6c1.7,0,4.4,0.3,4.8-2.9c0,0-1.3-7-0.4-22.8c2.3-41.9,11.5-92.1,12.9-103.7
		C442.2,63.1,440.3,61.6,438.1,62.3z M483.6,66c-2.4,0-20.2,0-22.3,1.9c-4.3,5.3-13,123-2.7,123c7.1,0,31.4-3.4,40.8-5.4
		c1.2-1.9,0.3-4.2-2.1-4.8c0,0-28.3,4.6-28.3,4.6c-2.5-2.5-1-65.3-0.8-69.6c16.3-2.4,24.1-3.3,24.1-3.3c1.3-0.9,1.1-4.5-0.1-5.2
		c-17.3,2.2-12,1.4-23.8,3.1c0.3-9.9,1.3-25,2.6-38.2c1.9-0.5,29.2-0.7,30.9-0.7c0.3-0.5,0.5-1.6,0.7-2.2
		C502.5,66,501.7,66,483.6,66z M540.3,150.4c3,2.4,5.9,4.9,8.8,7.7c14.5,14.3,20.7,9.8,19.3,8.1c0.1-0.8,0.6-1.6,2.6-1.7
		c2.8-0.2,4.6,4.7-1.1,8.8c-11.5,8.2-28.1-10.2-38-21.1l-2.9,0.3c-0.8,44.1,5.4,46.4-2.6,46.7c-2.8,0-4.9-0.7-6.2-3.4
		c-0.5-1.7-2.4-25.1-2.6-43.3c-21.7-2.7-18.4-21.1,0-15.7c0.3-15.6,1-29.1,2.2-40c0.5-4.9,2.3-20.8,4.4-25.2
		c1.1-1.4,5.1-4.4,7.2-4.4c4.1,0,2.8,4.2,1.9,21.4c12.8-17.6,27.9-23.9,38-23.9C620.5,64.7,590.6,133.9,540.3,150.4z M573.4,69.9
		c-14.1-2.8-32.1,16-41.2,31.5c-1,12.6-2.8,40.5-2.8,41c2.4,1.6,4.8,3.4,4.8,3.4l1.9-0.7C573.7,133.2,597.3,74.1,573.4,69.9z
		 M508.3,143.3c0.9,1.6,4,2.8,9.3,3.4v-5.5C513.6,139.9,506,139.5,508.3,143.3z"/>
	<path d="M627.1,292.9c-6.8-8.1-7.2-22.9-7.2-22.9s-1.8-12.3,11.8-14.4c13.6-2.2,17.8-5.2,17.8-5.2s10-5,5.4-18.7
		c-4.5-13.6-33.1-4.4-33.9-6.2c-0.8-1.8,8.4-7.5,8.5-20.6c-1.5-23.6-23.9-25.6-23.9-25.6l0,0c0,0-22.2-3.8-29.7,18.5
		c-3.5,12.9,4,20.5,2.7,22.2s-26.4-14.8-34.3-2.8c-8,12,0.6,19.5,0.6,19.5s3.2,3.9,15.7,9.6c12.5,5.6,7.6,17.1,7.6,17.1
		s-4.3,14.2-12.9,20.2c-8.7,6-10.9-0.1-18,5.4c-7.1,5.4-4.1,13.6-4.1,13.6c-0.1,10.6,16.7,18.2,30.7,12.3c9.6-6,18.2-10.9,25.9-10.8
		c7.4,2.5,14.8,10.2,21,16.9c0,0,9,6.7,19.9,5.4c10.9-1.4,13-9.4,13-9.4s5.1-7.2-0.4-14.2C637.4,295.7,633.8,301,627.1,292.9z
		 M630.1,227.1c2.4,0.6,5,1.6,5.5,4.3c0.7,3.3-1.5,3.3-1.9,4.6c-0.3,1.1-0.2,0.4,0.7,1.2c1.3,0.9,3.5,2.1,2.9,6
		c-0.1,0.5-1.5,4.4-1,4.4c2.5-0.1,3.1,3.9,0.6,3.8c-2.1,0-3.7-0.8-4.3-2.7c-0.9-2.8,2.1-5.8-0.4-8.1c-1.2-1.3-3-1.5-3.1-3.7
		c-0.1-0.8,0.2-1.5,0.7-2.3c0.2-0.4,0.7-0.6,0.8-1c0.2-0.2,0.4-0.4,0.7-0.6c-0.6-0.7-1.2-1.3-1.7-1.9
		C627.1,230.4,627.6,226.5,630.1,227.1z M566.4,222.8c-0.2-0.2,0.1,4.4-0.1,4.8c-0.1,0.9-0.3,1.6-1.1,2.2c-1.2,1.2-1.4,0.5-2.8,1
		c-1.8,0.6-1,1.3-0.7,2.9c1.1,4.8-1.4,7.2-6.2,7.7c-2.5,0.2-3-3.6-0.6-3.8c2.9-0.2,2.9-1.8,2.4-4.4c-1.1-5.2,2.3-5.4,3.7-6.1
		c2.3-1,0.4-0.8,1-4.3c0.6-3.4,3.8-4.8,6.5-2.9C570.8,221.1,568.5,224.2,566.4,222.8z M613.8,199.1c-0.6,4.7-7.7,3.7-7-1
		C607.3,193.6,614.4,194.3,613.8,199.1z M567.3,307.4c-0.5-1.6,0.6-3.9-0.9-5c-1.7-1.5-6.5,1.3-5.6-5.9c0.4-2.8-0.9-2.6-3.1-3.3
		c-3.5-1-3.9-4.4-2.3-8c1.1-2.2,4.7-0.8,3.6,1.4c-1.8,3.7,5.4,1.8,5.7,7.5c0.1,0.8-0.7,2.9-0.4,3.5c0.4,0.8,4.5,1.3,5.7,2.8
		c1.7,2.1,0.3,4.1,0.9,6.4C571.8,309.2,567.9,309.8,567.3,307.4z M594,192.9c4.7,0.6,3.7,7.7-1,7C588.3,199.3,589.3,192.3,594,192.9
		z M586.1,279.6c1-7.8,13-6.4,12,1.6C597,288.9,585.2,287.7,586.1,279.6z M588.7,259.1c1-7.8,13-6.4,12,1.6
		C599.7,268.5,587.7,267,588.7,259.1z M596.5,246.6c-7.8-1-6.4-13,1.6-12C605.7,235.6,604.6,247.7,596.5,246.6z M613.5,214.7
		c-6.4,9.2-19.5,8.2-25.4-0.9c-1.4-2.1,1.7-4.5,3.1-2.3c4.7,7.2,14.1,8.1,19.2,0.9C611.9,210.1,615,212.6,613.5,214.7z M620,307.4
		c-2,5.2-4.3,3.4-6.2,3.6c-2.8,0.3-2.8,1.7-3,3.8c-0.2,2.5-4,1.9-3.9-0.5c0.8-9,5.8-6.7,7.9-7c2-0.2,1.5-3.9,3.2-5.3
		c2.2-2,5.8-0.6,6.5-4.5c0.3-2.4,4.2-2,3.9,0.5C627,307,622.4,301.5,620,307.4z"/>
	<path d="M116.6,366.9l34.3,84.3c6.4,15.3,28.3,5.2,22.2-8.9L138.8,358c-2.5-6.4,3.2-13.3,10.1-11c5,1.6,5.4,5.1,9.5,14.9
		c2.5,6.2,9.5,9.1,15.6,6.5c6.2-2.5,9.2-9.4,6.5-15.6c-4.2-10.7-7.2-21.3-21.1-27.5C132.7,313.7,106,340.3,116.6,366.9z M135.4,405
		c-2.1-4.7-3.7-9-5.2-12.7l18.7-2.4l5.1,12.7L135.4,405z M159.3,415.7l5.1,12.7l-18.7,2.4c-2-4.6-3.6-8.8-5.2-12.7L159.3,415.7z
		 M124.8,379.4c-2.3-5.8-3.8-9.9-5-12.9l18.5-2.3l5.2,12.9L124.8,379.4z M128.5,332.2L138,348c-0.7,0.9-1.2,1.9-1.7,2.9l-18.8,2.4
		C118,344.6,122.2,337.1,128.5,332.2z M159.8,358l17-6.2l1.1,2.3c2,4.6-0.5,9.9-5.1,11.7c-4.6,1.9-9.7-0.4-11.6-4.9
		C160.7,360,160.3,359,159.8,358z M150,344.3c-0.1,0-0.3-0.1-0.4-0.1l-3.1-18.5c8.1,0,16.1,3.4,21.8,9.6l-13.7,11.9
		C153.5,346.1,152.1,345,150,344.3z M150.9,443.6l18.7-2.4l1,2.2c2,4.6-0.5,9.9-5.1,11.7c-4.6,2-9.9-0.5-11.7-5.1
		C152.9,448,152,445.8,150.9,443.6z"/>
</g>
</svg>
