<?xml version="1.0" encoding="utf-8"?>
<!-- Generator: Adobe Illustrator 21.0.2, SVG Export Plug-In . SVG Version: 6.00 Build 0)  -->
<svg version="1.1" id="Layer_2" xmlns="http://www.w3.org/2000/svg" xmlns:xlink="http://www.w3.org/1999/xlink" x="0px" y="0px"
	 viewBox="0 0 731 516.6" style="enable-background:new 0 0 731 516.6;" xml:space="preserve">
<g>
	<path d="M220.7,58.8c1.3,1.3,0.1,4.2-3.4,4.2c-2.8,0-3.5-1.8-5.7-4.9c-0.2-0.2-0.4-0.6-0.4-0.9c-0.7-2.7-1.4-1.3-1.4-8
		c0-6.1,4.5-9.3,7.3-9.3c4.1,0,4.8,3.7,2.4,5.1c-2.7,1.6-1.9,3.2-2.2,7.1c0,0.6,0.9,2.8,1.1,3.6L220.7,58.8z M236,43.7
		c-4.6,0-5.2,5.7,0.3,5.7l14.5-0.3c0,0-0.2,2-0.5,20.1c0.4,53,0.3,48.9,1.3,50.4c2,3.2,8.6,0.9,6.8-2.3c-1.1-37.1-0.3-66.4-0.2-68.3
		c19.3-0.5,19.6-0.3,19.6-0.3c1.3,0.2,3.1-0.6,3.1-2.7C280.9,41.6,277.6,42.8,236,43.7z M307.4,114.9l-3.7,0.1
		c-2-34-1.8-27.2-1.8-65.5l4.3-0.2c5.2-0.3,4.4-5.7,0-5.7l-14.2,0.5c-5.2,0.3-4.4,5.7,0,5.7l2.3-0.1c0,39.5-0.1,32.8,1.8,65.5
		l-2.4,0.1c-5.2,0.3-4.4,5.7,0,5.7l4.5-0.2c1,0.5,2.9,0.5,4.1-0.2c3.7-0.1,8.8,0.4,8.8-3.2C310.9,116.1,309.2,114.9,307.4,114.9z
		 M326,61.7c0-7.4,4.7-11.9,7.9-11.9c3.8,0,7,4.3,10.4,4.3c1.9,0,3.8-1,3.8-2.8c0-1.6-1.2-2-2.4-2.9c-6.2-4.7-9.8-4.3-12.2-4.3v0
		c-11.4,0.2-15.1,11.1-15.1,16.4l0.1,0c-0.5,17.3,17,25.6,23.3,37.9c2.3,4.2,3.7,7.6,3.7,11.6c0,2.6-5.7,5.5-10.9,5.5
		c-2.9,0-5.4-1.8-5.4-2.4c0-7.5-10.5-4.4-7.6-0.3c0,5.9,8,8.3,13,8.3c7.7,0,18.5-3.9,18.5-11.2c0-5.2-2.1-9.7-4.2-13.8
		C341.9,82.8,326,74,326,61.7z M430.4,43.8l-34.7,1c-5.1,0.3-4.4,5.7,0,5.7l12.4-0.3c0.6,7.2,0.4,6,0.4,23.6c0,0.1,0.1,2.5,0.1,2.5
		c-0.3,40.4-0.1,31.9-0.6,41.6c0,3.7,7.2,3.9,7.6,0.2c0.8-14.2,0.9-57.7,0.1-68.3l14.7-0.4C435.5,49.2,434.9,43.8,430.4,43.8z
		 M479,96c-0.9-26-0.2-21.4-0.2-28c0-3.6-0.5-3.9-0.5-9.5c0-6.3,0.1-10.1-0.8-14.5c-0.7-3.1-7.5-3.4-7.5,0.8
		c0.1,1.3,0.7,2.5,0.7,8.6c0,16.2,0.8,9.3,0.4,18.4c-0.3,6,0,14.3,0.3,24.3l-21.2,0.5c0-1.3,0.6-41.1,1.1-49.8c0-3.7-7.1-4-7.6-0.2
		c-0.4,4.6-1.1,48.9-1.1,50.2c-1.3,0-5.7-0.2-5.7,3.1c0.3,3,4.5,2.7,5.8,2.6c0.2,17.6-0.6,13.4-0.8,16.7c0,1.7,2,2.8,3.8,2.8
		c5.3,0,4.6-6.1,4.5-19.8l21.2-0.5c0.2,5.6,0.5,12.1,0.6,17.5c0,3.5,7.6,3.8,7.6-0.2c-0.1-5.3-0.4-11.9-0.6-17.6
		c2.4-0.1,6.9,0.3,6.9-3.1C485.8,95.4,481.3,96,479,96z M519.2,44.6c-0.4-0.2-20.1-0.6-20.5-0.6c-1.9,0-3.5,1.2-3.7,2.7
		c0,61.2,0.4,43.6,1,70.2c-2.6,1.8-0.8,4.9,2.6,4.9l19.8-0.5c5,0,5-5.7,0-5.7c0,0-14.8,0.5-14.8,0.5c-0.4-11.9-0.8-22.2-1-32.3
		l10.9,0.2c5,0,5-5.7,0-5.7l-10.9-0.2V49.8c17.7,0.5,16.6,0.6,16.6,0.6C523.1,50.3,525.2,45.7,519.2,44.6z"/>
	<path d="M294.5,364.1c-0.9-3.2,1.9-4,4.5-3.4c2.5,0.2,3.8,1.3,3.8,3.1C302.8,369.4,295.9,371.2,294.5,364.1z M552.2,394.8
		c-5.1,6.9-10.4,11.6-23.2,21c5.5,24,4.7,50.8-12.8,68.3c-21.4,22.1-46.4,8.2-46.4-11.4c0.8-23.8,28.3-42.4,50.6-56.1
		c-3.3-15.4-7.9-20.9-10.7-28.5c-0.7,1.3-9.8,31-19.2,29.9c-5.9-0.9-8.3-5.3-9.2-11.2c-5.1,9.1-13,20.5-21.2,27
		c-15.3,11.4-25.9-11.9-28.8-32.2c-3.5,4.7-19.7,29.2-32.2,29.2c-13,0-19.3-22.1-21-35.3c-7.9,2.1-18.6-0.7-24.6-3.6
		c4.7,6,5.8,21.7-3.5,30c-11.6,9.8-22.7-1.9-22.7-16.5c-5.9,5.7-17.2,14.5-18.5,15.7c0,12.3-0.5,25.2-8,41.9
		c-20.2,46.5-56.5,37-44.2,5.8c7.2-18,21.5-27.9,42.3-44.9c0.1-12.1-0.5-22.4-2.6-36.4c-0.5-3-0.7-5.3-0.7-6.7
		c2.6-2.1,6-2.8,8.1-0.3c0.7,1.3,4.3,12.2,5,35.5c8.4-6.7,14.5-11.9,19.6-17.6c2.1-7.5,7.5-14.2,16.4-18.4c3.6-1.3,8.9,2.1,8.7,5.8
		l-1.7,1.1c7.5,4.1,20,7.5,25.9,5c-3.7-39.9,17.7-70.2,35.4-70.2c5,0,11.7,3.6,13.7,6.7c10.6,17.1-29.3,54.8-39.7,66.3
		c0.7,11,5.3,30.9,12.5,32.1c8.4,1.4,28.3-26.9,31-31.3c-2.5-28.9,5.2-79.9,33.4-79.9c26.1,0,15.1,25.8,0.9,47.5
		c-9.5,14-17.1,22.7-24.1,31.1c0.4,11,4.5,36.4,13,37.7c8.6,1.3,23.6-27.2,27.7-34.9c0.7-5,1.6-9,2.6-12c2-1.8,4-1.9,6.1-0.3
		c2,1.5,3.2,2.7,3.8,3.6c0,1.1-1.9,15.4-2.1,19.2c-0.7,14.2,12.9-15.7,16.5-28.6c1.3-1,2.8-1.6,4.3-0.9c1.5,0.5,2.8,1.4,3.8,2.5
		c1,1.3,7.7,16.2,11.4,31.4c8.3-5.5,14.8-11.4,19.6-17.7c1.2-0.6,2.1-0.8,2.8-0.5C551.1,393.9,551.7,394.3,552.2,394.8z
		 M387.1,388.2c7.9-8.1,29-31.2,35.7-46.3c4-8.9,0.7-13.8-5.4-15C406.6,324.6,387.1,350.5,387.1,388.2z M298.8,429.1
		c-17.4,14.2-31.3,23.6-37.1,39.3c-3.6,9.6-3.9,16-1,19.2C270.7,498.8,296.7,463.9,298.8,429.1z M348,390c-0.9,0.8-1.7,1.7-2.4,2.7
		c-15.1,17.9-3.6,38.7,4.5,22.2C353.9,406.8,352.3,396.1,348,390z M440.5,387.3c4.9-5.3,25.6-30.6,32.4-49
		c3.6-9.1,2.9-18.3-6.8-19.2C454.8,318.3,440.5,347.9,440.5,387.3z M521,421.1c-14.1,9.3-37.3,22.4-43.8,39.4
		c-11,29.8,22.8,49.5,40.5,2.2C522.5,450.4,524.1,436.8,521,421.1z"/>
	<path d="M342.3,235.4c0,1.9-1.7,2.8-3,2.6c-1.2-0.2-13.1,0.2-18.5,0.3c-0.5,5.4-0.5,39.1,0.2,63.5c1.5,2.8-4.1,5.5-6.7,1.9
		c-1.9-1.9-0.6-63.9-0.6-65.3l-13.7,0.3c-5.2,0-4.6-5.4-0.3-5.4C339.6,232.5,342.3,231.4,342.3,235.4z M385.4,269.4
		c1,11.9-0.9,13.2-2.1,18.7c-1.1,4.4-4.3,17.6-19.8,17.6c-18.5,0-21.6-26.4-21.2-44.7c0.6-13,4-28.5,16.7-28.5
		c7.8,0,13.1,3.4,17.4,7.6c0.4,0.4,0.6,0.5,0.9,1c0.1,0.1,0.1,0.2,0.2,0.3C383.5,250.9,384.7,258,385.4,269.4z M370.9,243.6
		c-8.6-6.8-11.1-5.4-13.5-5.2c-13.4,8.7-8.6,62,6,62c10.4,0,12.5-12.4,13.7-16.5c0.6-2.1,1.2-4.1,1.3-6
		C378.4,250.9,371.9,246.1,370.9,243.6z M458.1,288c0,12-10.2,15.2-20.7,18.6c-1.2,0.3-1.3,0.2-8,0.4c-0.8,0-1.8-0.2-2.5-0.6
		c-2.3,0-3.6-1.5-3.6-2.8c0.7-16.1,0-26.7-0.7-47.7c-0.2-18.2-2-22.6,4.5-22.6c3.6,0,8.8,0.4,13.4,2.1l0,0
		c8.6,2.7,16.8,7.9,16.8,16.9c0,3.4-2.1,6.1-3.2,7.7c-4.3,6.2-6.7,5.4-10.4,7.9c-0.7,0.5,0,0.1-4.2,1.9
		C448.8,273,458.1,279.3,458.1,288z M430.6,301.5l4.4-0.1c11.2-3.5,15.5-4.8,15.9-12.8c0-8.5-11.6-13.9-20-15.3
		c-0.1,0-0.4,0.1-0.4,0.1C430.9,284.8,430.9,295.6,430.6,301.5z M439.2,263.8c4.5-3.3,5-1.2,8.6-6.4c0.9-1.3,2.4-3.2,2.4-5.1
		c0-8.9-11.5-11.2-12.8-12.1c-1.9-0.7-4.7-1.3-7.7-1.5c0.3,21,0.1,14.2,0.7,28.8l2.5-0.9l0,0L439.2,263.8z M471,233.6
		c-1.8,0-3.3,1.1-3.5,2.6c0,56.9,0.4,40.8,0.9,65.3c-2.5,1.7-0.8,4.7,2.5,4.7l18.7-0.5c4.8,0,4.8-5.4,0-5.4l-13.9,0.5
		c-0.4-11-0.8-20.6-0.9-30l10.3,0.2c4.8,0,4.8-5.4,0-5.4l-10.3-0.2v-26.3c15.8,0.4,13.8,0.3,14.8,0.5c1.7,0.5,4.5-0.7,4.5-2.6
		C494.1,234.1,491.2,233.6,471,233.6z"/>
	<path d="M465.5,187.5c-1.3-0.3-2-0.1-2.3,0.8c1.5,2.4-5.4,6.7-6.1-4.1c-0.9-14-0.5-28.8-11.4-27.7c-7.5,0.9-23.1,32.2-25.1,35.5
		c0.5-11.7,4.9-20.4,5.2-36.3c0.2-5.3-1.7-8.4-5.9-9.2c-3.2-1.4-23.7,8.1-32.7,9.9c0,0,0.1,0,0.1-0.1c0.2-3.2-3.4-5.3-6.6-5.3
		c-2.7,0-14.6,3.8-18.4,16.4c-7.7,4.2-12.4,5.8-22.8,12.1c-7.3-16.9-11.3-21.8-10.9-27.8c2-17.9,24-3.9,17.1,3.3
		c-1.5,1.5-2.7,1.7-3.5,0.8c-0.7-0.1-1.4,0.2-2.1,0.8c-0.6,0.5-0.3,1.3,0.7,2.3c2,2.2,4.4,1.7,7.3-1.4
		c12.6-13.1-18.7-26.9-28.8-11.1c-2.1,3.4-2.9,10.6,1.6,17.5c-2.9,3.7-25.3,36.7-31.5,35.8c-3.3-0.5-1.5-15.7-0.9-21.6
		c3.3-32.6,5.4-35.8-1.4-35.8c-2.3,0-3.9,0.4-4.8,1.1c-6.1,13.8-24.3,42.4-28.8,39.9c-3.3-1.5,3.7-27.1,10.2-28
		c1.9-0.4,2.3,2.8,1,3.4c-0.7,0.8,0.8,2.9,1.9,2.7c11.1-3.3-3.1-17.5-13.3-8c-3.7,3.6-6.3,7.8-7.9,12.6
		c-21.2,32.8-46.1,35.8-37.8,4.2c18.1,0,24.5-22.5,6.4-22.5c-8.7,0-15.2,10.4-17.2,19c-7.6,4.3-12.9,6-23.9,12.7
		c-8.1-18.7-13.8-25.2-9.5-32.8c4.2-7.6,14.6-2.1,16.8,3.1c1.5,4.4-3,7.7-4.5,5.9c-0.7-0.1-1.4,0.2-2.1,0.8
		c-0.6,0.5-0.3,1.3,0.7,2.3c2,2.2,4.4,1.7,7.3-1.4c12.3-12.9-18.5-27.2-28.8-11.1c-2.3,3.6-2.8,11.2,2.1,18.3
		c3.8,5.3,8.3,12.7,10.2,19.7c-8.2,5.6-15.2,11.3-17,17.8c-1.4,4.8-0.9,9,3.6,10.9c12.2,5.1,29.5-12.6,22.5-30.5
		c4.7-2.7,8.3-4.7,21.8-11.6c-2.3,24.3,20.7,40,47.6,4.4c0.1,6,1.8,10.8,7.6,12.4c8.6,2.4,22.8-18.8,27-26.4
		c-0.5,10.3-3.7,39.8,9,41.9c9.3,2.8,30.6-27.7,36.1-35.5c5.5,8.4,7.1,13.1,8.1,16.5c-8.2,5.6-15.2,11.3-17,17.8
		c-4.9,16.7,19.8,15.8,26.3-3.1c2.1-5.3,2-10.8-0.2-16.4c5-2.9,8.7-4.8,20.6-10.9c-1.8,19.4,13,31.3,23.8,23
		c5.3-3.5,7.3-9.7,7.3-16.1c0-11.9-4.8-17.1-5.5-18.5c2.6-0.4,9.3-2.5,12.8-3.8c25.9-9.2,21.2-12.8,13.2,20.8
		c-1.4,5.7-3.3,15.3-3.3,21.6c1.1,3.7,7,6.1,9.7,3.3c1.7-5.3,23.1-37,24.9-37.5c0.5-0.1,0.7,1.3,0.7,4.2
		c1.4,35.3,21.8,26.5,21.8,20.5C466.9,188.3,466.4,187.7,465.5,187.5z M208.8,166.6c1.4-4.4,6.1-16.4,10.4-14.7
		c2.1,0.8,2.1,3.2,0.2,7c-2.1,4.4-5.9,8-10.7,8C208.6,166.8,208.7,166.7,208.8,166.6z M153.9,210.1c-1.7-1.5-2.1-4-1-7.5
		c1.8-6.6,8.3-11.3,13.3-14.7C168.4,201.9,159.8,214.4,153.9,210.1z M326.6,209.4c-7.8,6-15.3-7.1,6.1-21.6
		C333.7,194.5,332,205.1,326.6,209.4z M380.3,193.5c-4.6-0.3-7.3-2.7-8.1-7c-1.7-9.4,3.1-19.6,9.9-26.4
		C393.2,174.1,386.4,193.8,380.3,193.5z"/>
	<path d="M259.9,368.6c-8.8-10.7-9.1-30.1-9.1-30.1s-2.2-16.2,15.6-18.7c17.8-2.7,23.3-6.6,23.3-6.6s13.2-6.5,7.4-24.4
		c-5.7-17.9-43.3-6.2-44.3-8.6c-1-2.4,11-9.6,11.4-26.9c-1.6-30.9-30.9-33.9-30.9-33.9l0,0c0,0-29-5.3-39.2,23.8
		c-4.7,16.9,4.9,27,3.2,29.1c-1.7,2.1-34.4-19.7-44.9-4.1c-10.7,15.6,0.5,25.5,0.5,25.5s4.1,5.1,20.4,12.8
		c16.3,7.6,9.7,22.5,9.7,22.5s-5.9,18.5-17.2,26.2c-11.5,7.7-14.3-0.2-23.7,6.8c-9.4,7-5.6,17.8-5.6,17.8
		c-0.3,13.9,21.6,24.1,40.1,16.6c12.7-7.7,23.9-14,34.1-13.8c9.7,3.4,19.2,13.5,27.3,22.5c0,0,11.7,8.9,26,7.4
		c14.4-1.7,17.2-12.2,17.2-12.2s6.7-9.3-0.3-18.6C273.5,372.4,268.6,379.2,259.9,368.6z M264.8,282.3c3.2,0.8,6.5,2.1,7.2,5.7
		c0.8,4.3-2.1,4.3-2.6,6c-0.4,1.4-0.3,0.5,0.9,1.6c1.7,1.2,4.6,2.8,3.7,7.9c-0.1,0.7-2,5.8-1.4,5.8c3.2-0.1,4,5.1,0.7,5
		c-2.7,0-4.8-1.1-5.6-3.6c-1.2-3.7,2.9-7.5-0.4-10.6c-1.2-1.3-6.1-3.3-3.1-7.8c0.3-0.5,1-0.8,1.1-1.3c0.2-0.2,0.5-0.6,1-0.8
		c-0.8-1-1.5-1.7-2.2-2.6C260.9,286.6,261.5,281.5,264.8,282.3z M181.5,275.9c-0.2-0.2,0,5.7-0.2,6.3c-0.2,1.2-0.4,2.1-1.4,2.9
		c-1.6,1.6-1.8,0.7-3.7,1.3c-2.4,0.8-1.4,1.7-1,3.8c1.3,6.2-2,9.3-8.2,10c-3.2,0.2-3.9-4.8-0.7-5c3.8-0.2,3.8-2.4,3.2-5.7
		c-1.3-6.8,3.1-7,4.9-7.9c3-1.3,0.5-1.1,1.4-5.7c0.9-4.5,5.1-6.3,8.6-3.8C187.3,273.7,184.2,277.8,181.5,275.9z M243.9,245.4
		c-0.8,6.2-10.2,4.8-9.1-1.4C235.5,238.1,244.7,239.3,243.9,245.4z M181.4,386.7c-0.6-2.2,0.9-5.1-1.1-6.6c-2.2-2-8.5,1.6-7.2-7.9
		c0.6-3.7-1.1-3.4-4-4.3c-4.6-1.3-5.1-5.8-2.9-10.5c1.4-2.9,6.1-1,4.7,1.9c-1.9,3.9,4.5,3.7,6.2,6.3c0.7,1.1,1.1,2.3,1.2,3.6
		c0.1,1.1-1,3.8-0.5,4.6c0.6,1.1,5.9,1.7,7.4,3.7c2.2,2.8,0.3,5.4,1.2,8.4C187.3,389.2,182.3,389.8,181.4,386.7z M218.1,237.1
		c6.2,0.8,4.8,10.2-1.4,9.1C210.5,245.4,211.9,236.3,218.1,237.1z M213.2,359.5c-4.4-0.6-7.2-4.7-6.7-8.9
		c1.4-10.2,17.1-8.2,15.7,2.3C221.5,357.2,217.4,360.1,213.2,359.5z M210.2,323.7c1.4-10.2,17.1-8.2,15.7,2.3
		C224.4,336.2,208.8,334.1,210.2,323.7z M220.5,307.4c-10.2-1.4-8.2-17.1,2.3-15.7C232.8,293.2,231.2,309,220.5,307.4z M243.3,265.9
		c-8.5,12-25.6,10.5-33.3-1.6c-1.8-2.8,2.3-5.9,4.2-3c6,9.5,18.3,10.9,25.1,1.4C241.3,259.9,245.3,263.1,243.3,265.9z M250.5,387.5
		c-2.7,6.8-5.7,4.3-8.1,4.6c-3.7,0.4-3.6,2.1-4,4.9c-0.3,3.3-5.3,2.4-5.1-0.6c1.2-11.8,7.7-8.7,10.4-9.1c2.6-0.3,2.1-5.1,4.3-6.9
		c2.9-2.6,7.7-0.7,8.5-5.8c0.5-3.2,5.6-2.6,5.1,0.6C259.7,387,253.7,379.7,250.5,387.5z"/>
	<path d="M512.8,164.1c-18.9,9.5-22.1,24.4-27.2,39.3c-3.2,8.6,1.5,18,10.1,20.9c8.5,3.1,18-1.5,20.9-10.1c5-13.9,5.3-18.7,12-21.2
		c9.2-3.8,17.7,5.4,14.6,14.3L502,325.8c-3.2,8.6,1.5,18,10.1,20.9c8.5,3.2,17.8-1.3,21.1-10.2L574.4,218
		C587.1,180.8,548.5,146,512.8,164.1z M525.4,270l6.1-17.8l25.9,1.9c-1.8,5.3-3.8,11.3-6.3,17.8L525.4,270z M545.2,290
		c-1.9,5.6-3.9,11.4-6.3,17.8l-25.9-1.9l6.1-17.8L545.2,290z M538.1,234.1l6.3-18.1l25.6,1.8c-1.5,4.2-3.4,10.1-6,18.1L538.1,234.1z
		 M572.2,199.5l-26-1.9c-0.7-1.5-1.5-2.8-2.5-3.9l12-22.5C564.6,177.4,570.9,187.5,572.2,199.5z M512.6,213.2
		c-2.3,6.3-9.2,9.6-15.6,7.5c-6.4-2.2-10.1-9.4-7.7-15.8l1.3-3.4l23.8,7.3C513.7,210.2,513.3,211.6,512.6,213.2z M520.6,193.6
		L501,178.1c7.5-8.8,18.3-14,29.4-14.6l-2.9,25.6c-0.1,0-0.4,0.1-0.6,0.1C524.1,190.4,522.2,191.9,520.6,193.6z M529.1,335.3
		c-2.2,6.4-9.4,10.1-15.8,7.7c-6.4-2.2-10.1-9.4-7.7-15.8l1.2-3.2l25.9,1.9C531.3,329,530.2,332.1,529.1,335.3z"/>
</g>
</svg>
