<?xml version="1.0" encoding="utf-8"?>
<!-- Generator: Adobe Illustrator 21.0.2, SVG Export Plug-In . SVG Version: 6.00 Build 0)  -->
<svg version="1.1" id="Layer_1" xmlns="http://www.w3.org/2000/svg" xmlns:xlink="http://www.w3.org/1999/xlink" x="0px" y="0px"
	 viewBox="0 0 731 516.6" style="enable-background:new 0 0 731 516.6;" xml:space="preserve">
<g>
	<path d="M160.6,204.3c11.8,0.6,31.8,7.9,25.3,29c-3.6,10.7-18.3,13.2-23,9.5c-2.1-1.6-1.6-4.6,1-5.8c1.5-0.9,2.6-0.7,5.7-1
		c3.7-0.2,7.1-2.1,7.8-5.9c1.4-5.9,0.3-10.6-4.8-13.9c-4.9-3.2-8.7-3.2-14.8-3.3c-20.7-0.4-25,17.5-21.2,28.2
		c3.4,9.5,15.9,15.6,25.1,20c7.4,4.2,9.9,6.5,12.7,9.7c12,14.5-7.6,33.7-30.3,26c-4.2-1.4-7.4-4.2-9.5-8.8c-1.2-2.5-1.9-7-1.3-9.5
		c1.1-4.4,11-7.8,11,2.4c0,13.1,29.4,10.9,19.9-5.3c-0.8-1.4-2-2.5-3.6-3.6c-23.7-15.5-49.7-18.5-45.2-45.7
		c1.5-9.6,6.2-16.2,17.7-20.1C141.9,203.7,151.6,203.8,160.6,204.3z M222.5,262.7c-0.5,0.1-1,0.1-1.5,0.1c-1-0.1-5.4,0.5-3.7,4
		c5.7,11.1,12.4,14.3,20.2,15c2.9,0.5,7.5,1.8,6.8,4.8c-0.9,4.2-3.7,4.9-9.9,5.2c-7.1,0.3-15.2-3.3-21.5-6.5
		c-19-9-26.2-48.1-7.5-64.7c4.5-4,6.3-5.7,9.9-7c17.8-6.9,40-0.7,46.2,19.5c1.4,4.7,3.5,8.6,1.7,18.7c-0.4,2-0.8,2.9-1.7,6
		c-1.9,5-6.5,4.4-10.6,4.6C231.1,263.1,232.9,261.7,222.5,262.7z M213.3,250.1c2.2,6.3,11.5,3.9,36.4,3.9c2.8,0.2,3.3-0.1,4-2.8
		c3.3-19.2-8.5-32.3-18.6-30.9c-13.5,1.9-21,10.4-22.1,17C212.3,241.2,212.2,246.9,213.3,250.1z M279.3,295.2
		c-2.8,0.4-4-0.3-4.6-2.9c-1.6-4.8-0.2-8.3-1-20.4c-0.8-13.7,1.2-29.1,6.7-44c3.7-10.4,11.8-16.5,22.4-20.1
		c4.1-1.5,14.4-1.6,22.1,1.3c5.1,1.9,12.2,6.1,15.7,10.7c14.2,19,16.6,40.9,16.6,64.8c0.5,12.2-5.2,16.9-18.8,11.6
		c-5-1.9-2.1-7.3-2.3-12.7c-0.2-4.1,0.4-4.8-1.8-6.5c-2.5-1.8-2.9-1.3-11.2-1.6c-8.9-0.4-20.8,0.1-31.3,0.4
		c-8.4,0.3-7.6,1.3-7.3,5.8c0.1,1.9,0.1,3.1,0.1,6.7C284.5,290.3,285.1,295.1,279.3,295.2z M284.7,264.4c0,2.8,0.2,2.8,3.3,2.7
		c15-0.6,25.4-1.4,34.5-0.4c4.3,0.5,11.7,0.5,13-0.5c0.5-0.4,0.7-1.5,0.5-3.5c-0.4-6.1-1.2-12-2.7-18c-11-44.6-36.6-29.8-42.1-16.4
		C286.8,239.5,284.7,254.4,284.7,264.4z M410.6,204.3c3.4,0.2,6.8,0.8,9.9,2c22.1,7.1,17.8,26.3,12.4,32.1
		c-7.9,8.6-21.3,6.7-21.3,2.4c-0.2-3,2.7-4.3,4.9-4.4c1.1,0,2.1-0.1,3-0.2c9-0.4,9.1-9.9,7.8-13.9c-0.7-2.3-2.4-4.3-4.8-5.9
		c-4.9-3.2-8.7-3.2-14.8-3.3c-12.4-0.3-21.2,6.1-22.3,18.7c-1.1,11.3,5.6,18.3,15.4,23.9c8.4,4.8,32.8,13.8,26.1,30
		c-4.9,11.8-20.7,15.3-32.8,11.2c-4.2-1.4-7.4-4.2-9.5-8.8c-1.2-2.6-1.9-7.1-1.3-9.5c1-4.2,11-7.9,11,2.4c0,13,29.4,10.9,19.9-5.3
		c-2.8-4.8-21.7-13.9-26.6-16.2c-15.7-7.5-25.9-16.8-21.9-34.2C368.7,205.5,390.6,203.3,410.6,204.3z M443.2,248.7
		c1.9-32.6,42.8-38.4,61-21.7c17.5,16.5,13.1,42-0.5,50.1c-11.5,6.9-21,8.2-34.3,6.2c-7.3-1.5-15.1-4.4-19.2-10.5
		C444.9,264.4,443.2,257.4,443.2,248.7z M496.2,249.2c-1.2-5-2.1-10.8-6-15.1c-7.6-8.6-22.4-8.4-29.2-2
		c-14.4,15.4-5.9,33.3-0.1,38.8c5.5,5.2,25.8,9.9,33.3-4.3C496.7,261.9,497.2,253.7,496.2,249.2z M592,267.6
		c4.4,6.5,2.5-36.4,2.5-42.7c0-6.4-0.8-8.1-1-11.6c-0.4-5.8,3.4-9.1,8.2-6.5c6.1,3.3,3.7,9.3,5,31.1c0.9,14.8,0.5,34-3.3,48.8
		c-3.6,10.4-10.3,12.2-16,7.7c-10.3-8-41.8-48.7-45.2-52.7c-5.8-6.9-6.5-11.2-5.9,10c1.2,38.5,7.8,40.9,0.7,44.3
		c-1.8,0.7-3.5,0.9-5.2,0.3c-2.4-0.7-3.7-2.6-4.6-9.4c-2.3-17.2-3.8-31.7-2.5-50.6c0-22.4-0.8-30.3,7.4-30.1
		c3.6,0.1,5.3,0.5,23.1,17.7C583.6,250.8,590.6,265.9,592,267.6z"/>
	<path d="M127,75.2c4.8,3.3,8.5,14.1,3.4,20.6c-2.1,2.8-5.6,6-9.1,6.8c-5,1.3-7.4,1.4-8.3-0.3c-1.7-3.3,6.8-5.6,6.4-10.2
		c-5.3-0.3-8.9-1.7-10.2-6.9c0-8.6,4.2-9.7,8.3-10.9C121.5,73.3,125.4,74.1,127,75.2z M164.8,158c0.8-7,1.1-13.8,0.9-20.3
		c-0.7-16.3,0.5-26.4,0-34.5c-0.3-4.5-1-5.1-6-4.6c-2.8,0.3-3,0.3-4.8,0.6c-8.7,1.8-13.9-8-7.3-12.7c2.2-1.6,3.9,0.4,11.4-0.6
		c8.7-1.2,10-0.6,17.1-1.6c6.8-1,16-3,20.7,0.8c2,1.3,2.4,2.9,1.1,4.9c-6.8,9.6-18.3,2.2-18.9,9.7c-1,13.5-0.9,48,0.8,53.1
		c1.5,4.6,1.7,8.1-2.5,11.4c-2.4,2-5.4,2.8-8.4,1.4C163.4,163.6,164.8,157,164.8,158z M229.1,175.8c-0.9,5.5-11,5.1-14,1.3
		c-1.9-2.4,0.3-3.6,0.3-11.9c0-25,0.3-23.1,0.6-41.5c0.4-30.7-0.7-28.6,0.6-30.2c2-2.7,6.9-3.1,10.3-1.4c3.3,1.2,2.6,3.9,2.8,9
		C229.9,108.5,229.4,174.1,229.1,175.8z M232.2,80.9c-2.8,3.4-16.5,7-17.4-3.3c-1.2-10.8,9.7-11,13.3-9.3
		C235.3,71.7,233.8,79,232.2,80.9z M261.8,180.2c-20.8-12.4-15.7-38,4.4-32.1c2.5,0.7,3.7,2.3,3.5,4.7c-0.4,5-7,3.3-9.3,5.5
		c-1.6,1.5,0,6.5,1,8.5c1.9,3.7,6.4,6,10.4,7.4c8.9,3.3,37-3.6,32.5-18.5c-4.5-14.9-40.6-23.3-52.7-42
		c-20.6-29.9,40.5-41.9,56.4-22.7c4.6,5.9,3.9,13.3,2.7,15.1c-2.3,3.1-9.6,1.8-9.3-3.7c0-15.7-34.9-14.4-40.5-4
		c-1.5,2.8-2.3,7.9,0.1,10.5c11.1,12.2,27.6,19,43.2,29.4c3.3,2.2,10.4,5.9,11.6,15.6c0.5,4.5,0.7,9.4-1.2,13.3
		c-2.3,4.9-8.3,9.7-13.4,11.8C288.9,184.3,273.3,187.4,261.8,180.2z M379.7,162.2c0.8-7,1.1-13.8,0.9-20.3
		c-0.7-16.4,0.5-26.4,0-34.5c-0.3-4.2-0.7-5.1-6-4.6c-5.8,0.6-5.2,0.9-7,0.7c-7.8,0-10.9-8.7-5.2-12.8c2.2-1.6,4,0.4,11.4-0.6
		c8.8-1.2,10-0.6,17.1-1.6c2.9-0.4,5.8-0.8,8.7-1.2c8.1-1.2,16.4,2,13.2,6.9c-5.7,8-14.5,4.3-17.8,6.9c-3,2.4-1.3,49.7-1,52.8
		c0.2,2.5,0.8,3,1.4,6c1.3,5.8-3.9,9.7-7.4,10.4c-2.7,0.5-6.3-0.8-7.5-3c-0.7-1.4-1.2-3.2-1-4.8
		C379.6,162.2,379.7,162.1,379.7,162.2z M509.9,171.2c-2.1,1.1-3.1,1.8-5.7,2.4c-2.4,0.5-5.2-1.5-6.4-3.6c-1.7-2.9,0.5-4.2,0.3-10.2
		c-0.2-5.7-0.2-5.6-1.5-21.5c-0.3-2.2-1.7-3.4-4.1-3.5c-43.7,0-43.6-0.4-45.1,1.1c-2.3,2.2,0.9,17.9,1.4,21.1
		c0.8,2.3,2.2,5.4,0.3,8.7c-2,3.5-7.5,5.6-11.9,2.9c-5.1-3-1.1-6.1-2.8-16.1c-1.9-11.2,0.4-14.2-4.5-16.9c-2.2-1.2-4.3-5.1-3.9-7.2
		c0.2-1.1,1-1.7,4.1-3.7c1.2-0.9,1.6-1.6,1.6-3.2c0-30-8.2-30.8,3-34.1c12.2-2.3,7.8,9.5,10.3,30.9c1.5,9.3-4.2,7.1,40.1,6.4
		c7.5-0.1,9.5,0,10.6-1.3c0.8-1,1.1-1.9,1.9-18.4c0.3-5.2,0.1-10.4-0.4-15.8c0-1.3-0.2-1.4,0-2.4c0.4-5.4,14.1-4.3,13,2.4
		c-0.2,1.3-1.8,24.2-0.8,32c0.2,0.8,0.3,1.7,0.2,2.5c-0.4,3.5-0.2,17.9,2.5,35.8C513.3,165.8,516.5,167.7,509.9,171.2z M546,144.9
		c0.7,3,4.1,6.1,6.5,8c7.5,5.7,11.2,4.6,17.8,5.6c4.1,0.5,6.3,3.9,5.9,6.3c-2,10.4-43.1,3-46.7-27.2c-6.5-45.1,26.2-61,50.4-45.7
		c2.9,1.8,5.4,4.6,6.8,9.8c2.4,9.3,3.6,19.5,2.9,32c-0.1,2.2-1.2,3.8-3.3,5c-6.2,4-8.9,2.7-28.8,3.2
		C553.3,142,544.9,141.5,546,144.9z M570.5,130.9c3.9-0.6,5.2-2,5.4-5.5c0.4-6.2-0.3-12.4-1.6-18.5c-0.8-5-7.1-10.5-14.1-9.5
		c-13.9,1.8-17,12.1-18,29.7c-0.1,1.7,1,2.9,3.2,3.5C552.1,132.6,567.7,131.3,570.5,130.9z"/>
	<g>
		<g>
			<path d="M162.7,350.5c3.3,10.4,35,38.9,33.9,43.5c-15.4-14.2-32.4-8.6-32.1-8.6c9.9-22.4-15.4-22.5-15.4-22.5
				c10-5.8-1-24.2-1-24.2c15.7,11.9,26-1.3,25.7-1.6c7.4,20.3,21.6,11.3,21.6,11.1c-9,21.8,5.3,43.1,5.3,43.1
				S165.3,348.4,162.7,350.5z M213.4,388.6c0,0,4.8-4.6,12.6-10.3c7.8-5.7,21.4-9.2,21.4-9.2s-6-1.8-5.7-8.9
				c0.4-7.1,12.4-13.3,12.4-13.3s-4.8-2.2-7.9-9.4c-3.1-7.2-0.8-16.7-0.8-16.7c-2.2,10-20.1,15-22.6,7.9c0,0,2.6,8.5-3.9,17.3
				c-6.5,8.7-14.4,4.7-14.4,4.4c7.9,24.1,5.8,36.2,5.8,36.2C214.3,371.6,267.3,282.8,213.4,388.6z M191.7,399.1
				c0,0-12.2,1.2-35.6-8.6c0.2,0,3.6,8.3-5.6,14c-9.2,5.8-17.5,2.5-17.5,2.5c6.9,3.1,0.5,20.5-9.6,21.9c0,0,9.7-1.6,16.6,2.1
				c6.9,3.6,8.8,8.6,8.8,8.6s7.1-11.5,14.2-11.3c7.1,0.2,8.4,6.4,8.4,6.4s4.5-13.2,10.8-20.6s11.3-11.8,11.3-11.8
				C83.9,447.8,176.6,402,191.7,399.1z"/>
			<path d="M209.6,397.6c-0.7-4.2,2.2-8.1,6.3-8.7c4.2-0.7,8.1,2.2,8.7,6.3c0.7,4.2-2.2,8.1-6.3,8.7
				C214.2,404.6,210.3,401.8,209.6,397.6z M218.7,420.4c4.2-0.7,7-4.6,6.3-8.7c-0.7-4.2-4.6-7-8.7-6.3c-4.2,0.7-7,4.6-6.3,8.7
				S214.5,421,218.7,420.4z M203.7,412.9c4.2-0.7,7-4.6,6.3-8.7c-0.7-4.2-4.6-7-8.7-6.3c-4.2,0.7-7,4.6-6.3,8.7
				C195.7,410.8,199.6,413.6,203.7,412.9z"/>
		</g>
		<path d="M505.3,376.9l-13.3,0l7.2-12.4c2-3.4-3.2-6.4-5.2-3l-9,15.4l-10.4,0c6.3-11.8,7.1-12.3,6-14.4c-1.1-2-2-1.6-13.4-2.3
			l4.1-7.3c0,0,17.4,0.1,17.4,0.1c4,0,4-6,0-6l-14-0.1l6.6-11.6c2-3.4-3.3-6.4-5.2-3l-6.6,11.6l-7.2-12.4c-2-3.4-7.2-0.4-5.2,3
			l9,15.4l-4.2,7.4l-6.3-9c-1.4-2-4.3-1.8-5.5,0.2l-6,10.1l-5.2-8.9l8.8-15c2-3.4-3.2-6.5-5.2-3l-7.1,12.1l-6.7-11.6
			c-2-3.4-7.2-0.4-5.2,3l6.7,11.5H416c-4,0-4,6,0,6h17.8l5.4,9.3c-13.5,0.2-14.2-0.3-15.4,1.7c-1.2,2-0.4,2.5,4.6,13.2l-8.4,0
			l-8.6-15.5c-1.9-3.5-7.2-0.6-5.2,2.9l7,12.6l-14.3,0c-4,0-4,6,0,6l14.2,0l-6.8,11.7c-1.2,2,0.3,4.5,2.6,4.5c2.3,0,2-0.5,11.2-16.2
			l8.3,0l-4.8,9.8c-1,2.1,0.5,4.6,2.8,4.7l12.6,0.3l-5,8.8c-0.1,0-17.7-0.2-17.8-0.2c-3.9,0-4,6,0,6l14.4,0.2l-7.1,12.4
			c-1.1,2,0.3,4.5,2.6,4.5c2.3,0,2.3-0.9,9.6-13.8l6.8,11.7c2,3.4,7.2,0.4,5.2-3l-8.6-14.7l5-8.7c6.8,11.1,6.8,12,9.1,12.1
			c2.3,0.1,2.5-1,9.1-10.9l4,6.9l-9.1,15.2c-1.2,2,0.3,4.5,2.6,4.5c2.3,0,2.2-0.8,10-13.9c7.5,13,7.5,13.9,9.8,13.9
			c2.3,0,3.8-2.5,2.6-4.5l-7.1-12.3h13.5c4,0,4-6,0-6h-17l-4.2-7.2l11.6-1.5c2.4-0.3,3.6-2.9,2.4-4.9l-5.8-9.4l9.4,0l8.5,15.1
			c1.9,3.5,7.2,0.5,5.2-2.9l-6.9-12.2l13.4,0c1.7,0,3-1.3,3-3C508.3,378.3,507,376.9,505.3,376.9z M463.9,366.1l9.4,0.6
			c-5.2,9.7-5.1,9.4-5.3,10.3l-10.3,0L463.9,366.1z M453.2,355.3l5.5,7.9l-5.8,10.3l-5.2-8.9C447.9,364.2,453,355.7,453.2,355.3z
			 M442.6,367.8l5.3,9.1l-12.8,0l-4.2-8.8C441.9,368,441.7,368.1,442.6,367.8z M442.3,391.9c-0.8-0.3-0.4-0.2-11.5-0.4l4.2-8.6
			l12.5,0L442.3,391.9z M453.5,404.6c-0.4-0.6-5.5-9.1-6-9.6l5.4-9.4l6.2,10.7L453.5,404.6z M464.2,393.1l-5.9-10.2l10.3,0l5.5,8.9
			L464.2,393.1z"/>
		<g>
			<path d="M584,403c18.6-4.5,17.6-10,17.4-10c-20.5-8.8-22.8-18.5-22.8-18.5c9-2.2,12-7,12-7.5c-19.6-8.6-23.1-22.4-24-23.4
				c-0.8,1-4.7,15-24,23.4c0,0.5,3,5.2,12,7.5c0,0-2.2,9.8-22.8,18.5c-0.2,0-1.2,5.5,17.4,10c0.1,0-10.4,15.7-28.6,20.5
				c-0.2,0,2.3,2.8,2.5,2.9c18.4,17.3,65.7,16.8,85,1.7c0.3-0.3,4.7-4.6,4.6-4.7C594.3,418.7,583.8,403,584,403z"/>
			<polygon points="566.5,321 569.5,327.1 576.2,328.1 571.4,332.8 572.5,339.5 566.5,336.4 560.5,339.5 561.6,332.8 556.8,328.1 
				563.5,327.1 			"/>
		</g>
		<path d="M355.2,404.1c-6.8-4.5-10.3-15.4-10.3-15.4s-4-8.7,5.6-13.2c9.6-4.6,12-7.7,12-7.7s6.3-5.9,0-15
			c-6.3-9.1-25.4,3.9-26.4,2.7c-1-1.2,4.6-7.3,1.8-17.1c-6.2-17.1-23.2-13.8-23.2-13.8l0,0c0,0-17.2,2-18,20.1
			c0.2,10.3,7.4,14.3,6.8,15.8c-0.6,1.5-22.7-5.2-26,5.4c-3.3,10.6,4.6,14.3,4.6,14.3s3.2,2.2,13.7,3.7c10.5,1.5,9.3,11,9.3,11
			s-0.1,11.4-5.2,17.7c-5.1,6.3-8.1,2.3-12.2,7.9c-4.1,5.5-0.1,11-0.1,11s1.7,6.2,10.2,7c8.5,0.9,15.2-4.5,15.2-4.5
			c5.8-6.5,11.1-12,16.8-13.6c6,0.3,13.1,4.3,19.2,8c0,0,8.1,3,15.9-0.3c7.8-3.4,7.6-9.8,7.6-9.8s2.2-6.4-3.4-10.4
			C363.5,403.9,361.9,408.6,355.2,404.1z M343.2,354.7c1.9-0.1,4,0.1,5,2c1.2,2.3-0.4,2.8-0.4,3.8c0,0.9-0.1,0.3,0.8,0.7
			c0.3,0.1,0.6,0.1,0.9,0.3c1.6,0.6,2.3,1.8,2.5,3.5c0,0.4-0.1,3.6,0.2,3.5c1.8-0.6,3.1,2.2,1.2,2.7c-1.5,0.5-2.9,0.2-3.8-1.1
			c-1.3-1.9,0.3-4.7-2-5.9c-1.2-0.7-2.5-0.5-3.1-2.1c-0.2-0.6-0.2-1.2,0-1.8c0.1-0.3,0.4-0.6,0.4-0.9c0.1-0.2,0.2-0.4,0.4-0.6
			c-0.6-0.4-1.1-0.7-1.7-1.1C341.7,357.8,341.2,354.8,343.2,354.7z M295.2,365.3c-0.2-0.1,1,3.2,1,3.6c0.1,0.7,0.1,1.3-0.3,1.9
			c-0.6,1.2-0.9,0.7-1.9,1.4c-1.2,0.8-0.5,1.2,0.1,2.3c1.8,3.3,0.5,5.6-2.9,7c-1.8,0.7-3-2-1.2-2.7c2.1-0.8,1.7-2,0.8-3.8
			c-1.9-3.6,0.5-4.5,1.4-5.3c1.5-1.3,0.1-0.7-0.2-3.4c-0.3-2.7,1.8-4.4,4.2-3.6C298.1,363.1,297,365.9,295.2,365.3z M325.1,337.5
			c0.6,3.6-4.9,4.4-5.4,0.8C319.1,334.8,324.5,333.9,325.1,337.5z M314.1,427.7c-0.7-1.1-0.4-3-1.7-3.5c-1.6-0.7-4.5,2.4-5.4-3.2
			c-0.3-2.2-1.2-1.7-3-1.7c-2.8,0-3.8-2.4-3.4-5.4c0.3-1.9,3.3-1.6,3,0.3c-0.4,2.5,3.2,1.3,4.6,2.5c0.6,0.5,1,1.1,1.3,1.8
			c0.2,0.6,0.1,2.3,0.5,2.7c0.5,0.5,3.6,0,4.8,0.8c1.7,1.2,1.1,3,2.1,4.5C317.8,428.1,315.1,429.3,314.1,427.7z M309.1,337.2
			c3.6-0.6,4.4,4.9,0.8,5.4C306.3,343.2,305.5,337.8,309.1,337.2z M327.3,407c-2.6,0.4-4.9-1.4-5.3-3.9c-0.4-2.6,1.4-4.9,3.9-5.3
			c2.6-0.4,4.9,1.4,5.3,3.9C331.6,404.2,329.8,406.6,327.3,407z M324.8,391.2c-2.6,0.4-4.9-1.4-5.3-3.9c-0.4-2.6,1.4-4.9,3.9-5.3
			c2.6-0.4,4.9,1.4,5.3,3.9C329.1,388.4,327.4,390.8,324.8,391.2z M322.5,376.4c-2.6,0.4-4.9-1.4-5.3-3.9c-0.4-2.6,1.4-4.9,3.9-5.3
			c2.6-0.4,4.9,1.4,5.3,3.9C326.9,373.6,325.1,376,322.5,376.4z M328.3,349.1c-2.7,8.2-12.6,10.3-19,4.8c-1.5-1.3,0.3-3.7,1.8-2.4
			c5,4.3,12.2,3,14.4-3.5C326.1,346.1,328.9,347.2,328.3,349.1z M353.1,416.3c-0.4,4.3-2.5,3.4-3.8,4c-2,0.8-1.7,1.8-1.4,3.4
			c0.4,1.9-2.6,2.3-3,0.5c-1.3-6.8,2.8-6.2,4.3-6.9c1.4-0.6,0.3-3.2,1.2-4.6c1.2-2,4.2-1.7,3.8-4.7c-0.3-1.9,2.7-2.4,3-0.5
			C358.2,414.5,353.6,411.4,353.1,416.3z"/>
	</g>
</g>
</svg>
