<?xml version="1.0" encoding="utf-8"?>
<!-- Generator: Adobe Illustrator 21.0.2, SVG Export Plug-In . SVG Version: 6.00 Build 0)  -->
<svg version="1.1" id="Layer_1" xmlns="http://www.w3.org/2000/svg" xmlns:xlink="http://www.w3.org/1999/xlink" x="0px" y="0px"
	 viewBox="0 0 731 516.6" style="enable-background:new 0 0 731 516.6;" xml:space="preserve">
<style type="text/css">
	.st0{fill:#161516;}
	.st1{fill:#45B748;}
	.st2{fill:#FFFFFF;}
	.st3{fill:#EA1821;}
</style>
<path class="st0" d="M241.4,280.3c1.3,3.2,3.6,6.4,6.5,4.4c5-4.1,4-38.6,3.7-45.1c-0.4-6.1-0.7-10.1,0.4-10.3
	c4.7-0.5,8.7,1.6,8.8,6.1c3,48.1-2,52-11.3,54.3c-4,1-8.2-0.3-11.3-5.2c-1.6-2.6-2.6-6.7-2.8-12.5c0-1.1,1.7-2.5,3.3-1.4
	C240.4,271.8,239.5,275.6,241.4,280.3z M269.1,276.4c-4.5,0.1-3.2-1.8,0.5-4.4c4.3-20.8,12.6-42.6,13.5-43.8
	c2.2-2.8,9.5-3.1,9.7,1.2c0.1,2.6-2.3,3.4,0.2,4.5c4.3,1.9,2.2,5.2,5.2,16.6c7.6,29,13.9,31.4,9.9,32.1c-2,0.3-5.4-1.3-7.1-3.2
	c-3.2-3.5-1.7-6.3-5.8-6.3c-5.2-0.4-10.3-0.1-15.3,0.8c-1.3,0.1-2,0.7-2.1,2c-0.5,4.1-0.9,5-1.6,9.7c-1.2,5-8,1.7-7.7-3.1
	C268.7,281.5,268.9,277.5,269.1,276.4z M296.1,268.9c-3.3-13.2-5.2-15.1-8.4-28.4c-4.5,11.8-6.5,19.1-8.4,28.9
	C288,268.1,292.1,268.3,296.1,268.9z M319.7,265.8c0.5,5.9,2.6,9.5,6.1,10.9c11.2,4.4,25.5-7.2,19.6-17.1
	c-5.7-8.1-28.3,2.2-31.1-12.1c-2.3-10.4,6.9-24.1,32.4-18.2c0.1-0.1,0.5-0.5,1.2-1.2c0.8-0.7,1.6-1,2.7-0.7c9,2.8,2.2,10.4,1.6,12.2
	c-0.4,1.1-2.5,3.3-4.3,4.2c-3.2,1.6-3.7-5.6-2.7-9.1c-13-1.1-24.4,5-23.4,12.5c1.1,8.2,11.2,4.1,25.7,6.5
	c11.2,1.9,15.7,20.3-1.9,27.8c-14.2,6-29.8-1.4-29.7-15.1c0-1.4,1.8-2.7,3-2C319.3,264.7,319.6,265.1,319.7,265.8z M372.4,265.3
	c0.6,7.9,0.5,9.5,2,14.2c2.3,6.1-7.8,5.1-9.3-0.4c-4.1-15-2.9-42.5-1.2-50.1c0.6-3,10.3-3.7,9.7-0.2c6.1-0.5,13.4-0.4,19,3
	c6.6,4.1,14.3,18-3.2,28.1C381.8,264.2,373.5,265.6,372.4,265.3z M372.3,256.4c29.3-2.1,25.1-27.3,1.1-24.2
	C372.9,232.2,372.3,255.9,372.3,256.4z M407.6,232.4c1.5-2.1,17.2-5,19.8-5.4c4.6-0.8,7.2-1.8,9.8,0.5c0.8,1.3,0.9,2.2,0.3,2.8
	c-2,1.8-1-0.1-18.4,4c-1.2,12.4-1.4,19.7-1.4,24.2c7.9-1.6,10.9-4,11.7-1.1c1,3.5-6.3,3.5-11.7,6c-0.1,5.6,0.5,11.6,1.7,11.4
	c2.7-0.2,6.7-1,13-4.3c8.4-4.3,8-4.7,9.3-3.5c0.5,0.4,0.4,1.2-0.1,2.2c-2.2,3.9-11,8.2-14.9,10c-10.9,5.1-16.8,1-18.6-2.5
	c-4.4-8.3-1.7-32.3,0.6-41.9c0-0.2-0.2-0.2-0.8-0.2C407.4,234.6,407.3,233.9,407.6,232.4z M466.6,264.4c6.6,13.8,19,11,15.9,15.6
	c-0.7,1-2.4,1.9-4.5,1.4c-8.2-2-12.5-8-16.6-15c-0.7,0.2-2,0.7-3.8,1.5c0,3.1,0.3,5.4,0.9,7.1c1.7,4.6,2.4,7.7,0.1,8.6
	c-3.4,0.3-5.4-0.3-7-3.8c-6.1-12.9-4.7-34.5-1.9-46.8c1.3-5.8,1.1-6.5,3-7.1c3.1-1,6.5-0.1,7.4,1.3c0.2,0.3,0.2,0.8,0,1.3
	c8.4-0.3,14.7,0.4,18.8,2.1c4.1,1.7,6.8,3.7,8.2,6.1c1.4,2.4,1.8,4.8,1.2,7.3c-0.5,2.5-1.2,4.3-2.1,5.6
	C478.7,260.3,468.9,263.2,466.6,264.4z M457.5,259.6c7.9-2.4,16.9-6.7,22.4-12.7c0.5-0.5,1-1.6,1.5-3.4c1.1-3.6-0.5-7.6-6.6-10.2
	c-3.1-1.3-8-1.8-14.9-1.5C456.8,242.8,457.4,256.1,457.5,259.6z"/>
<g>
	<g>
		<path class="st1" d="M345.9,491.2c-17.6,2.4-32-5.6-64.2,0.2c-22,3.9-47.9,4.4-65.1-9.9c-11.9-10-16.4-27.6-12-42.3
			c4.1-14,22.6-25.6,36.8-18.9c5.3,2.6,6.4,6.7,9.2,11.1c-3.1-4.9-8.4-5.1-11.6-5.6c-14.5-2.3-26.7,17.9-8.7,30
			c12,8,29.6-0.5,39.6-8.2c2.7-2,9.5-10.8,10.6-19.7c3-2.5,5.8-6,7.5-11.1c0.1,0,8.2,17.3,14.7,18.9c-0.5-0.5,6.9-1.8,13.1-18.9
			c0,0,6,16.2,14,18.9c0.2,0,9.7-6.7,13.1-19.5c0,0,1.7,6.2,6.8,11.6c1.4,15.1,1.2,17.9,6.6,31C360.5,469.7,360.3,489.3,345.9,491.2
			z M385.8,491.2c17.6,2.4,32-5.6,64.2,0.2c22,3.9,47.9,4.4,65.1-9.9c11.9-10,16.4-27.6,12-42.3c-4.1-14-22.6-25.6-36.8-18.9
			c-5.3,2.6-6.4,6.7-9.2,11.1c3.1-4.9,8.4-5.1,11.6-5.6c14.5-2.3,26.7,17.9,8.7,30c-12,8-29.6-0.5-39.6-8.2
			c-2.7-2-9.5-10.8-10.6-19.7c-3-2.5-5.8-6-7.5-11.1c-0.1,0-8.2,17.3-14.7,18.9c0.5-0.5-6.9-1.8-13.1-18.9c0,0-6,16.2-14,18.9
			c-0.2,0-9.7-6.7-13.1-19.5c0,0-1.7,6.2-6.8,11.6c-1.4,15.1-1.2,17.9-6.6,31C371.1,469.7,371.4,489.3,385.8,491.2z"/>
		<path class="st0" d="M281.3,303.4h65.8V321h-65.8V303.4z M281.3,355h65.8v-17.5h-65.8V355z M281.3,387.5c27.1,2,54.7-1,65.8-2.5
			v-13.2h-65.8V387.5z M384.6,303.4h65.8V321h-65.8V303.4z M384.6,355h65.8v-17.5h-65.8V355z M450.4,371.9h-65.8V385
			c10.9,1.5,38.6,4.5,65.8,2.5V371.9z"/>
		<path class="st2" d="M347.1,355v16.7h-65.8V355H347.1z M281.3,321v16.7h65.8V321H281.3z M450.4,355v16.7h-65.8V355H450.4z
			 M384.6,321v16.7h65.8V321H384.6z"/>
		<path class="st3" d="M250.5,416.3c7,0,12.7,5.7,12.7,12.7c0,7-5.7,12.7-12.7,12.7c-7,0-12.7-5.7-12.7-12.7
			C237.8,421.9,243.5,416.3,250.5,416.3z M351.8,384.2c0,0-39.6,6.6-76.2,2.8c0,0.2-0.1,39.6-5.6,46.6c0.1,0.2,13.3-2.8,17.9-16.4
			c0-0.1,8.1,17.3,14.7,18.9c-0.3-0.5,6.9-1.8,13.1-18.9c0-0.1,6,16.2,14,18.9c0,0.1,9.5-6.6,13.1-19.5c0,0,3.6,13.9,17.2,17.8
			C359.9,434.3,351.4,413.2,351.8,384.2z M468.4,429c0,7,5.7,12.7,12.7,12.7c7,0,12.7-5.7,12.7-12.7s-5.7-12.7-12.7-12.7
			C474,416.3,468.4,421.9,468.4,429z M371.8,434.2c13.4-4,17.2-17.8,17.2-17.8c3.5,12.9,13.1,19.7,13.1,19.5c8-2.7,14-19,14-18.9
			c6,17.2,13.3,18.4,13.1,18.9c6.6-1.5,14.7-18.9,14.7-18.9c4.5,13.6,17.8,16.6,17.9,16.4c-5.5-6.8-5.6-46.3-5.6-46.6
			c-36.6,3.7-76.2-2.8-76.2-2.8C380.3,413.2,371.8,434.3,371.8,434.2z"/>
	</g>
	<g>
		<path class="st1" d="M438.4,128.7l-14.8,24.6l-23.5-37l-22.4,36.7l-27.8-36.1l-14.7,42l-34.5-28.4l-13.9,40.7c0,0-8.5-5.7-17-11.5
			c43.7-55.2,19.7-87.5-3-81.2c-12.4,3.3-20,18.5-12.5,29.2c-2.2,2.8-3.4,6.4-3.4,10.2c-19.2-5.7-30.1-41-9.2-67.8
			c31.7-40.8,93.1-34.3,131.4-7.6C402.5,62.9,424.7,96.4,438.4,128.7z"/>
		<path class="st3" d="M267.8,101c9.3,0,16.9,7.6,16.9,16.9s-7.6,16.9-16.9,16.9c-9.3,0-16.9-7.6-16.9-16.9S258.5,101,267.8,101z
			 M454.4,196.2c23.2-45.2-5.9-76.1-9.3-78.4l-21.5,35.7l-23.5-37.1l-22.5,36.7l-27.8-36.1L335,159l-34.5-28.4l-13.9,40.7
			c0,0-35.6-23.6-33.4-23.5c-15,38.8,11.9,73.9,17.5,72.1C353.1,179.9,451.6,192,454.4,196.2z"/>
	</g>
</g>
</svg>
