<?xml version="1.0" encoding="utf-8"?>
<!-- Generator: Adobe Illustrator 21.0.2, SVG Export Plug-In . SVG Version: 6.00 Build 0)  -->
<svg version="1.1" id="Layer_2" xmlns="http://www.w3.org/2000/svg" xmlns:xlink="http://www.w3.org/1999/xlink" x="0px" y="0px"
	 viewBox="0 0 731 516.6" style="enable-background:new 0 0 731 516.6;" xml:space="preserve">
<style type="text/css">
	.st0{fill:#EA1821;}
</style>
<path class="st0" d="M542.8,175.3c-20.1-42.3-108-0.4-111-6.1c-3.6-5.8,24-27.2,18.4-70c-0.5-4.7-5.5-26.3-20.6-43.4
	c-8.9-10.1-20-17.8-32.5-22.8c-14.1-5.6-30.5-8.2-45.6-6.7c-19.4,1.5-44.4,13.9-59,32.9C283.6,70.5,278.1,84,275.3,98
	c-5.9,43,21.3,63.9,17.8,69.6c-3.9,6-91-36.8-111.3,5.3c-20.7,41.2,9.3,62.1,9.3,62.1s11.8,11.4,54.3,24.8
	c42.8,12.9,31.3,51.2,31.3,51.2s-7.6,47.2-33.8,70.2c-25.2,23.2-35.1,4.4-55.5,24.4c-20.8,20.1-7.8,45.4-7.8,45.4
	s3.2,26.4,37.7,36.2c34.5,8.7,66.2-8.5,66.2-8.5c28.5-23.5,53.3-42.4,79-45.2c23.2,5.3,47,23,74.2,46.2c43,24.4,99.7,8.4,103.6-26.2
	c0,0,13.1-25.2-7.5-45.7c-18.8-21.3-29-2.5-54-26c-24.8-23.4-32.5-70.2-32.5-70.2s-11.4-38.3,31.7-50.7
	c43.1-12.4,54.4-23.8,54.4-23.8S562.9,217.6,542.8,175.3z M306,450c2.4,7.6-9.4,10.1-12.2,3.5c-1.8-5.1,0.3-12.6-4.8-15.9
	c-7.1-3.6-20.4,7.4-20.4-16.7c0.1-15.2-12-4.5-19.8-14.2c-4.2-5.9-3.4-13.8-1.4-19.9c2.6-8.1,15.1-4,12.2,3.6
	c-4,12.1,17.8,3.1,21.4,21.1c0.1,2.8-1.2,10.2-0.1,11.8c1.8,2.6,14.9,2,19.2,6.4C307,436.2,302.9,442.8,306,450z M256.7,181.9
	c-0.3-0.5,1.9,14.2,1.7,15.8c0,3.3-0.4,5.2-2.9,7.6c-3,4.6-4.1,2.2-8.4,4.6c-5.1,2.4-3,4.6-0.8,9.7c5.4,15.2-1.7,23.9-16.4,27
	c-7.8,2-11-10.4-3.1-12.4c15.2-3.6,2.6-14.8,4.7-25.7c1.5-7.3,5.2-8.1,10.4-11c5.3-3.3,3.1-2.2,2.2-8c-3.4-16.2,8.9-23.6,19.2-18.5
	C270.1,174.9,263.4,186,256.7,181.9z M332.4,74.4c15.1-0.3,15.3,23-0.2,23.2C317.1,97.9,316.9,74.6,332.4,74.4z M361.3,374.1
	c-25.4-0.3-25-39.1,0.5-39.3C387.4,334.9,387.7,374.2,361.3,374.1z M381.4,292.1c-0.3,25.4-39.1,25-39.3-0.5
	C342.4,265,381.7,265.7,381.4,292.1z M343.1,227.7c-0.1-25.5,38.9-25.4,39.3,0.5C382.1,253.8,342.9,254.1,343.1,227.7z M472.6,397.6
	c0.4-8,12.7-8.3,11.9,0.6c-0.3,29.9-18.1,14.4-23.3,33.9c-3.8,17.3-11.2,12.8-18,14c-8.8,2.3-8,6.4-7.8,13.2c0.5,8-12.3,8-12.6-0.3
	c-1.1-28.9,16-24.2,22.3-25.9c6.5-1.7,4.3-13,8.3-18.4C460,407.1,471.8,410.6,472.6,397.6z M404,137.1c-16.4,32-59.3,34.2-81.6,7.4
	c-5.1-6.1,3.4-15,8.5-8.9c17.5,20.8,49,20.1,62.1-5.1C396.9,122.7,407.6,129.2,404,137.1z M398.4,86.5c-0.1,15.2-22.9,14.9-23.2-0.2
	C375.1,71.1,398.1,70.9,398.4,86.5z M493,244.8c-6.8,1.2-12.1-1.2-15.3-7.3c-4.5-8.7,4.2-19-4.6-25.7c-4.5-3.6-9.8-3.6-11-10.4
	c-0.5-2.3-0.2-5.2,1.1-7.4c0.7-1.4,2.3-3,2.5-3.8c0.6-0.8,1.2-1.7,1.9-2.5c-2-1.8-3.6-4-6.2-5.8c-7.9-0.8-8.1-13.7,0.3-12.6
	c19.1,1.8,21.3,13.9,19.9,19.9c-1.3,3-4.9,5.2-5.1,7.7c-0.7,4-0.6,1.6,2.7,3.8c0.8,0.6,2.2,0.7,3.4,1.4c6.5,3.5,8.4,8.8,8.2,15.9
	c0.3,1.3-2.5,14.6-1.1,14.4C498.1,231,501.1,243.3,493,244.8z"/>
<path d="M532.2,237.5l9.4-9.5c-4.5,6.3-9.2,9.3-9.2,9.3S532.3,237.4,532.2,237.5z M414.8,59.2h3.4l7.5-7.7c-0.9-0.9-1.8-1.7-2.7-2.5
	l-8.3,8.4v-6.2l4.9-5c-1-0.8-2-1.6-3.1-2.4l-1.8,1.8v-3.2c-10.7-7.5-22.9-12.3-35.8-14.8v5.2l-26.1,26.5c0,0,5.3,0,5.3,0L379,38v6.2
	l-14.6,14.9h5.3l9.6-9.6v5.9l-3.7,3.7h3.7v4l4-4h6.5l-10.3,10.6v5.3l15.6-15.9h6.2L386,74.9c1.5-0.1,3.1,0.1,4.6,0.6l16.2-16.6h6.2
	l-18.4,18.8c0.9,0.8,1.7,1.7,2.3,2.7l18-18.4V59.2z M525.9,416.9h6.5l-10.3,10.6v5.3l15.6-15.9h1.9c-3.4-6-11.2-14.6-18.1-17.9v3
	l-14.6,14.9h5.3l9.6-9.6v5.9l-3.7,3.7h3.7v4L525.9,416.9z M414.8,73.8v-5.3l-16.5,16.7c0.2,2.4-0.2,4.5-1,6.3L414.8,73.8z
	 M455,345.6h1.1c-2.2-5.6-4-11-5.4-15.8v0.9L436,345.6h5.3l9.6-9.6v5.9l-3.7,3.7h3.7v4L455,345.6z M451.2,361.5l8.1-8.2
	c-0.6-1.2-1.1-2.5-1.6-3.7l-6.4,6.6V361.5z M522.5,237.9H520l-13.1,13.4c3.2-1.3,6.1-2.6,8.6-3.8l6.7-6.8v3.4c5-2.7,7.9-4.8,9.2-5.9
	h-6.1l22.5-23c0.6-2,1.1-4.1,1.4-6.4L522.5,236V237.9z M431.2,57.4c-1.2-1.5-1.6-1.9-2.3-2.7l-4.4,4.5c0,0,5,0,5,0L431.2,57.4z
	 M446.9,130.8h1.5c0.2-0.6,0.3-1.3,0.5-2L446.9,130.8z M429.4,130.8l20.9-21.2v6.2l-14.6,14.9h5.3l9.2-9.2c0.8-5.7,1-12,0.4-18.8
	v1.6l-26.1,26.5C424.5,130.8,429.4,130.8,429.4,130.8z M467.4,422.5c-5,5.1-4.6,4-6.8,12.1l16.3-16.7
	C473.9,419.8,470.4,420.5,467.4,422.5z M488.9,257.7c2.9-0.9,5.6-1.9,8.2-2.8l16.7-17.1h-5.3L488.9,257.7z M411.1,452.7h-5.9
	l9.6-9.6v-5.3l-13.9,14.2c4.5,3.1,9.2,6.4,13.9,10.1v-5.2l4-4h-4v-3.7L411.1,452.7z M425.4,464.1l-3.4,3.5c1,0.8,2,1.6,3,2.5
	l4.6-4.7C428.1,465.3,426.6,464.9,425.4,464.1z M523.7,479.7v-0.8c-1.4,1.4-3,3.9-13,7.7l12.7-13v-6.2l-20.9,21.2h-5.3l26.1-26.5
	v-6.5l-32.4,33H488h-0.3h-29.9c-2.4-0.6-4.7-1.4-7.1-2.2l1.5-1.5v-5.9l-5.8,5.8c-1.3-0.5-2.5-1.1-3.7-1.7l9.2-9.4v-6.2l-13.4,13.6
	c-2-1.1-1.6-0.8-3.1-2.1l16.5-16.7v-6.5l-19.9,20.3c-1.2-1-2.4-2-3.6-3l19.8-20.1h2.5v-1.9l33.9-34.2h-5.6c3.2-2.8,5.5-7.7,5.6-18.3
	c0.7-8.9-11.6-8.6-11.9-0.6c-0.8,13-12.6,9.5-19.3,17.1c-1.2,1.7-1.9,3.9-2.3,6.2l0,0v-4h-3.7l3.7-3.7v-5.9l-9.6,9.6H436l14.6-14.9
	v-6.2l-20.9,21.2h-5.3l26.1-26.5v-6.5l-32.4,33h-3.4v2.8L389.9,445c-1.1-0.6-2.2-1.3-3.3-1.9l26.3-26.6h-6.2l-24,24.6
	c-1-0.5-2.1-1-3.1-1.5V439l21.8-22.1h-6.2l-15.6,15.9v-5.3l10.3-10.6h-6.5l-4,4v-4h-3.7l3.7-3.7v-5.9l-9.6,9.6h-5.3l14.6-14.9v-6.2
	l-20.9,21.2h-5.3l26.1-26.5v-6.5l-32.4,33h-3.4v2.8l-32.4,33h6.2l26.1-26.5v5.3l-13.4,13.6c-7.1,4-14.3,8.8-21.7,14.3v-4
	c-21.9,22.3-22.2,22.8-32.1,26.8l24.5-25c2.8-0.2,5.5-1.8,5.9-4.6h1.2v-1.9l33.9-34.2h-6.2L308,444.3V439l21.8-22.1h-6.2L308,432.7
	v-5.3l10.3-10.6h-6.5l-4,4v-4H304l3.7-3.7v-5.9l-9.6,9.6h-5.3l14.6-14.9v-6.2l-20.9,21.2h-5.3l26.1-26.5v-6.5l-26.5,27
	c-0.3-1.3-0.7-2.5-1.2-3.5l25.8-26.3h2.5v-1.9l33.3-33.9h-6.2L308,373v-5.3l21.8-22.1h-6.2L308,361.5v-5.3l10.3-10.6h-6.5l-4,4v-4
	H304l3.7-3.7v-5.9l-9.6,9.6h-5.3l14.6-14.9v-6.2l-20.9,21.2h-5.3l26.1-26.5v-6.5l-32.4,33h-3.4v2.8l-12.8,13.1
	c2.1-3.5,3.9-7.1,5.5-10.7l5.4-5.5h-3c1.9-4.7,3.6-9.3,4.9-13.6v0.2l21.8-22.1v-0.3h5.9l-27.1,27.7v6.2l33.3-33.9h2.5v-1.9
	l33.3-33.9h-6.2L308,301.4v-5.3l21.8-22.1h-6.2L308,289.9v-5.3l10.3-10.6h-6.5l-4,4v-4H304l3.7-3.7v-5.9l-9.6,9.6h-5.3l14.6-14.9
	v-6.2L286.6,274h-5.3l26.1-26.5V241L275,274h-3.4v2.8l-0.2,0.2c-0.7-1-1.5-2-2.3-3l0.4-0.4h-0.7c-9.5-10.7-21.5-13.1-33.2-17.1v-3.7
	l-2.7,2.8c-1.3-0.5-2.6-0.9-3.9-1.4l6.6-6.7V245c4.5-1.7,8-4.1,10.1-7.3l25.7-26v5.3l-20.9,21.2h6.2l14.9-14.9v5.3l-9.6,9.6h5.9
	l3.7-3.7v3.7h4l-4,4v6.5l10.3-10.6h5.3l-15.6,15.9v6.2l21.8-22.1h5.3l-27.1,27.7v6.2l33.6-34.2h2.5V236l33.3-33.9h-6.2l-27.1,27.7
	v-5.3l21.8-22.1h-6.2l-15.6,15.9V213l10.3-10.6h-6.5l-4,4v-4h-3.7l3.7-3.7v-5.9l-9.6,9.6h-5.3l14.6-14.9v-6.2l-20.9,21.2H281
	l26.1-26.5v-6.5l-32.4,33h-3.4v2.8l-23.2,23.6c0-1.4-0.2-2.9-0.5-4.5l21.8-22.2h-6.2l-17,17.4c-0.6-1.4-1.2-2.5-1.6-3.6l7.5-7.6
	c1.1-0.3,2.1-0.9,3.4-3c0.8-0.8,1.4-1.5,1.8-2.3l0.6-0.6h-0.3c0.6-1.3,0.7-2.8,0.8-4.7c0.2-1.7-2-16.4-1.7-15.8
	c6.6,4.1,13.4-7,6.6-10.9c-10.3-5.1-22.6,2.3-19.2,18.5c1,5.9,3.1,4.7-2.2,8c-3.2,1.7-5.7,2.7-7.6,4.9h-2.2l3.7-3.7v-5.9l-9.6,9.6
	h-5.3l14.6-14.9v-6.2l-20.9,21.2h-5.3l26.1-26.5v-6.5l-32.4,33H200v2.8l-18.7,19c-0.6-0.9-1.2-1.9-1.7-2.9l18.9-19.2l-6.2,0
	L177.6,217c-0.5-1.2-0.9-2.5-1.3-3.8l10.7-10.8h-6.2l-5.6,5.7c-0.3-1.5-0.4-3.2-0.5-4.8l0.9-0.9h-0.9c-0.3-8.3,1.5-18.1,7.3-29.5
	c4-8.2,10.5-13.2,18.5-16l-9.6,9.6h5.9l3.7-3.7v3.7h3.4l-3.7,3.7v6.5l10.3-10.3c0,0,5.3,0,5.3,0L200,182.5v6.2l21.8-22.1h5.3
	L200.3,194v6.2l33.3-33.9h2.5v-1.9l7.5-7.7c1.4,0.3,2.8,0.5,4.1,0.8l-8.8,9h6.2l7.8-7.9c1.4,0.3,2.9,0.7,4.3,1l-6.8,6.9h6.2l5.6-5.6
	c1.4,0.4,2.8,0.7,4.2,1.1l-4.4,4.4h5.9l3.2-3.2c0.2,0.1,0.4,0.1,0.6,0.2v3h4l-4,4v6.5l10.3-10.6h0.7c1.4,0.4,2.6,0.7,3.7,0.9
	l-14.7,15v6.2l20.2-20.5c0.6-0.1,1.1-0.2,1.3-0.6c0.2-0.3,0.3-0.7,0.3-1h5.3l-27.1,27.7v6.2l33.6-34.2h2.5v-1.9l17-17.3
	c0.9,0.9,1.8,1.8,2.7,2.6l-16.5,16.9h6.2l13.8-14c1,0.8,2,1.5,3.1,2.2l-11.6,11.8h6.2l9.3-9.5c1.1,0.6,2.3,1.2,3.5,1.7l-7.8,7.8h5.9
	l3.7-3.7v3.7h4l-4,4v6.5l10.3-10.6h5.3l-15.6,15.9v6.2l21.8-22.1h5.3l-27.1,27.7v6.2l33.9-34.2h2.5v-1.9l10.7-10.9
	c3.5-2.6,6.7-5.9,9.5-9.6l13.2-13.4h-6.2l-2.1,2.2c-1-5.5-8.5-8.4-11.7-2.1c-3.4,6.5-8,11.4-13.3,14.7v-3.8l10.3-10.6h-6.5l-4,4v-4
	h-3.7l3.7-3.7v-5.9l-9.6,9.6h-5.3l14.6-14.9v-6.2l-20.9,21.2c0,0-5.3,0-5.3,0l26.1-26.5v-6.5l-32.4,33h-3.4v2.8l-7.2,7.3
	c-0.9-0.8-1.8-1.7-2.7-2.6l7.7-7.9h-6.2l-4.5,4.6c-1.1-1.1-2.4-1.5-3.6-1.5l2.8-2.8h-6.2l-15.6,15.9v-5.3l10.3-10.6h-6.5l-4,4v-4
	h-3.7l3.7-3.7v-5.9l-9.6,9.6h-5.3l14.6-14.9v-6.2l-20.9,21.2H281l26.1-26.5v-6.5l-30.4,31c-0.3-1.3-0.6-2.7-0.9-4.1l29.7-30h2.5
	v-1.9l33.3-33.9h-6.2L308,86.6v-5.3l21.8-22.1h-6.2L308,75.1v-5.3l10.3-10.6h-6.5l-4,4v-4H304l3.7-3.7v-5.9l-9.6,9.6h-5.3l14.6-14.9
	v0c10.4-8,22.5-13.8,35.8-16.8V34l7.6-7.8c1-0.1,2.6-0.3,5.7-0.4l-13.2,13.5v6.2l19.5-19.8c1.7,0,3.4,0.1,5,0.3l-24.5,25.1v6.2
	l30.4-30.7c1.4,0.2,2.9,0.4,4.3,0.7l-31.2,31.8h-3.4V62l-12.3,12.5c-6.2,0.7-9.5,5.3-10,10.2L310.8,95h6.2l4.5-4.5
	c0.4,1.2,1.1,2.4,1.9,3.4l-1.1,1.1h2.2c1.9,1.6,4.4,2.7,7.7,2.6c4.6-0.1,7.8-2.1,9.6-5l1.4-1.4V95h4l-4,4v6.5L353.5,95h5.3
	l-15.6,15.9v6.2L365,95h5.3l-27.1,27.7v6.2l33.9-34.2h1.6c4.4,4,11.6,4.1,16,0.3h5.4l14.6-14.9v5.3l-9.6,9.6h5.9l3.7-3.7V95h4l-4,4
	v6.5L425.1,95h5.3l-15.6,15.9v6.2L436.6,95h5.3l-27.1,27.7v6.2l33.6-34.2h1c0.3,1.2,0.5,2.4,0.7,3.6l-31.9,32.5h-3.4v2.8l-32.4,33
	h6.2l26.1-26.5v5.3l-20.9,21.2h6.2l14.6-14.9v5.3l-9.6,9.6h5.9l3.7-3.7v3.7h4l-4,4v6.5l10.3-10.6h5.3l-15.6,15.9v6.2l18.8-19
	c1.4,0,3.6-0.4,6.4-1.1l-25.2,25.8v6.2l33.6-34.2c0,0,0.1,0,0.1,0h2.4v-0.7c1.8-0.5,3.6-1,5.5-1.5l-2.1,2.2h6.2l4.3-4.3
	c2.2-0.6,4.5-1.1,6.9-1.6l-5.9,6h6.2l7.4-7.6c2.1-0.4,4.1-0.7,6.2-1.1l-8.6,8.6h5.9l3.7-3.7v3.7h3.7l-3.7,3.7v6.5l10.3-10.3h5.3
	l-15.6,15.9v6.2l21.8-22.1h5.3L487,193.7v6.2l33-33.6h2.5v-1.9l4.3-4.4c1.1,0.5,2.3,1,3.3,1.6l-4.8,4.9h6.2l2.4-2.4
	c10.3,7.9,15.6,26,15.7,37.9h0l-27.1,27.7v-5.3l21.8-22.1h-6.2l-15.6,15.9V213l10.3-10.6h-6.5l-4,4v-4h-3.7l3.7-3.7v-5.9l-9.6,9.6
	h-5.3l14.6-14.9v-6.2L501,202.4v-0.3h-5l26.1-26.5v-6.5l-32.4,33h-3.1v2.8l-0.1,0.1c-0.8-0.8-1.8-1.6-2.9-2.3l0.6-0.6h-1.5
	c-0.1,0-0.1-0.1-0.2-0.1c-1.2-0.7-2.6-0.8-3.4-1.4c-3.4-2.2-3.4,0.2-2.7-3.8c0.2-2.5,3.8-4.7,5.1-7.7c1.4-6-0.8-18.1-19.9-19.9
	c-8.4-1.1-8.2,11.9-0.3,12.6c2.7,1.8,4.2,4.1,6.2,5.8c-0.6,0.8-1.2,1.7-1.9,2.5c-0.2,0.9-1.9,2.5-2.5,3.8c-1.3,2.1-1.7,5.1-1.1,7.4
	c0.3,1.7,0.8,2.9,1.6,4l-12.7,13V213l10.3-10.6h-6.5l-4,4v-4h-3.7l3.7-3.7v-5.9l-9.6,9.6h-5.3l14.6-14.9v-6.2l-20.9,21.2h-5
	l26.1-26.5v-6.5l-32.4,33h-3.4v2.8l-32.4,33h6.2l26.1-26.5v5.3l-20.9,21.2h6.2l14.6-14.9v5.3l-9.6,9.6h5.9l3.7-3.7v3.7h4l-4,4v6.5
	l10.3-10.6h5.3l-15.6,15.9v6.2l21.8-22.1h5.3l-27.1,27.7v6.2l33.6-34.2h2.5V236l23.1-23.5c1,0.9,1.8,2,2.3,3l-21.9,22.3h6.2
	l16.7-16.9c-0.1,1.9-0.4,3.9-0.6,5.9l-10.8,10.9h6.2l4.4-4.5c0.2,1.3,0.5,2.6,1.2,3.9l-0.6,0.6h0.9c2.2,3.8,5.1,6.1,8.8,6.9v3.4
	l3.1-3.1c1,0,2.1-0.1,3.2-0.3c3.9-0.7,5.2-3.9,4.6-6.9h4.6l-15.6,15.9v4.7c-2.8,0.9-5.7,1.7-8.7,2.6c-10.6,3-17.9,7.7-22.9,12.9
	h-0.4l-4,4v-4h-3.7l3.7-3.7v-5.9l-9.6,9.6h-5.3l14.6-14.9v-6.2L429.4,274v-0.3h-4.7l26.1-26.5v-6.5l-32.4,33h-3.4v2.8l-32.4,33h6.2
	l26.1-26.5v5.3l-20.9,21.2h6.2l14.6-14.9v5.3l-9.6,9.6h5.9l3.7-3.7v3.7h4l-4,4l0,6.5l10.3-10.6h5.3l-15.6,15.9v6.2l21.8-22.1h5.3
	l-27.1,27.7v6.2l31.1-31.7c0,0,0,0.1,0,0.1s0.3,1.6,0.9,4.4l-28.9,29.5h-3.4v2.8l-32.4,33h6.2l26.1-26.5v5.3l-20.9,21.2h6.2
	l14.6-14.9v5.3l-9.6,9.6h5.9l3.7-3.7v3.7h4l-4,4v6.5l10.3-10.6h5.3l-15.6,15.9v6.2l21.8-22.1v-0.3h5.9l-27.1,27.7v6.2l33.3-33.9h2.5
	v-1.9l14.2-14.4c0.6,1,1.3,2.1,1.9,3.1l-13,13.2h6.2l9.3-9.4c0.7,1,1.5,2,2.3,3l-6.3,6.4h6.2l2.9-3c0.8,0.9,1.6,1.8,2.4,2.6
	l-0.4,0.4h0.8c2.6,2.6,5.7,5.2,8.8,7.3v2.9l1.8-1.8c1.2,0.8,2.4,1.4,3.5,2l-5.3,5.4v6.2l9.6-9.8c1.4,0.5,2.8,0.9,4.2,1.2L487,408.5
	v6.2l18.8-19.1c1.3,0.2,2.6,0.3,3.9,0.4l-20.5,20.9h-3.1v2.8l-32.4,33h6.2l26.1-26.5v5.3l-20.9,21.2h6.2l14.6-14.9v5.3l-9.6,9.6h5.9
	l3.7-3.7v3.7h3.7l-3.7,3.7v6.5l10.3-10.3h5.3l-15.6,15.9v6.2l21.8-22.1h5.3l-26.8,27.4v6.2l33-33.6h2.5v-1.9l21.9-22.3
	c0.3,1.5,0.4,3,0.5,4.5L525,452.7h6.2l13-13.1c-0.2,2.4-0.7,4.6-1.2,6.5l-6.5,6.6h4.3c-0.3,0.7-0.5,1-0.5,1
	C539.1,464.3,533,473.2,523.7,479.7z M343.2,234.5v3.7h2.4c0.2,0.3,0.4,0.7,0.6,1l-3.1,3.1v6.5l6-6.2c1,0.8,2,1.6,3.1,2.2l-9.1,9.3
	v6.2l13.5-13.7c1.5,0.4,3,0.7,4.6,0.8l-18.1,18.5v6.2l25.2-25.5c6-1.6,11.1-5.9,13.1-12.6l31.4-32h-6.2L382.3,227
	c-0.1-1.6-0.4-3.1-0.7-4.5l19.8-20.1h-6.2l-15.4,15.7c0-0.1-0.1-0.2-0.1-0.3V213l10.3-10.6h-6.5l-4,4v-4h-3.7l3.7-3.7v-5.9l-9.6,9.6
	h-5.3l14.6-14.9v-6.2l-20.9,21.2h-5.3l26.1-26.5v-6.5l-32.4,33h-3.4v2.8l-32.4,33h6.2l26.1-26.5v5.3l-20.9,21.2h6.2l14.6-14.9v2.7
	c0,0.6-0.1,1.1-0.1,1.7c0,0.3,0,0.6,0,0.9l-9.6,9.6h5.9L343.2,234.5z M343.2,306.1v3.7h4l-4,4v6.5l10.3-10.6h1.4
	c1,0.3,2.1,0.6,3.1,0.8l-14.8,15.1v6.2l20.7-21c2-0.2,4-0.6,5.9-1.4h1.1l-27.1,27.7v6.2l33.3-33.9h2.5v-1.9l33.3-33.9h-6.2
	l-27.1,27.7v-0.9c0.8-1.8,1.4-3.8,1.6-6l20.1-20.4h-6.2l-14.1,14.3c-0.2-1.5-0.6-2.9-1.1-4.2l9.8-10.1h-6.5l-4,4v-4h-3.7l3.7-3.7
	v-5.9l-9.3,9.3c-1.3-0.6-2.7-1-4.1-1.3l13.1-13.3v-6.2L360.1,272c-2.4,0.2-4.8,0.7-7,1.7l25.9-26.2V241l-32.4,33h-3.4v2.8l-32.4,33
	h6.2l26.1-26.5v1.4c-0.5,1.5-0.8,3.1-1,4.8l-19.9,20.2h6.2l13.9-14.2c0.2,1,0.4,1.9,0.7,2.8v1.8l-9.6,9.6h5.9L343.2,306.1z
	 M379.6,379.2l33.3-33.9h-6.2L379.6,373v-5.3l21.8-22.1h-6.2L380.1,361c0.6-2,1-4.2,1-6.3l8.8-9.1h-6.5l-3.1,3.1
	c-0.3-0.9-0.6-1.9-1-2.8v-0.3h-0.1c-0.4-0.8-0.8-1.6-1.3-2.3l1.4-1.4v-5.9l-4,4c-0.9-0.9-1.9-1.7-3.1-2.4l6.8-6.9v-6.2l-11.1,11.3
	c-1.4-0.4-2.9-0.7-4.5-0.8l15.6-15.8v-6.5l-22.5,22.9c-5.8,1.5-9.9,5.3-12.1,10.1h-1.2v2.8l-32.4,33h6.2l25.5-25.8
	c0.1,2.6,0.7,4.6,0.7,4.6l-20.9,21.2h6.2l14.6-14.9v5.3l-9.6,9.6h5.9l3.7-3.7v3.7h4l-4,4v6.5l10.3-10.6h5.3l-15.6,15.9v6.2
	l21.8-22.1v-0.3h5.9l-27.1,27.7v6.2l33.3-33.9h2.5V379.2z M415.5,462.5c1,0.8,2,1.5,2.9,2.3l4.4-4.5c-0.3-1.2-0.2-4-0.2-5.2
	L415.5,462.5z M343.2,438.7v-0.9l-1.5,1.6C342.2,439.1,342.7,438.9,343.2,438.7z M397.2,449.4l17.7-17.9v-5.3l-20.9,21.2
	C395,448,396.1,448.7,397.2,449.4z M271.6,480.4l24-24.5c-1.1-0.9-1.7-2-2-3.2h-0.2l-21.8,22.1v-6.2l15.6-15.9h-5.3l-10.3,10.6v-6.5
	l4-4h-4v-3.7l-3.7,3.7H262l9.6-9.6v-5.3L257,452.7h-6.2l19.8-20.1c-0.5-1.1-0.9-2.4-1.3-4l-23.8,24.1h-6.2l29.5-30.1
	c0-0.6,0-1.1,0-1.8c0-1-0.1-2-0.2-2.8l-32.7,32.7v1.9h-2.5l-28.8,29.6c1.2,0.6,2.3,1.2,3.6,1.7l28-28.5v6.5l-23.5,23.8
	c1.3,0.5,2.6,0.9,4,1.3l19.5-19.8l0,6.2l-14.4,14.7c1.6,0.3,0.7,0.2,5.1,0.2l9.6-9.6v5.9l-3.7,3.7c18,0,22.5,1,38.9-4.6V480.4z
	 M436.6,452.7l-1.3,1.3c-0.1,1.3,0,4.4,0.1,5.4l6.5-6.7H436.6z M450.9,229.8l19.4-19.9c-1.1-0.6-2.3-1.2-3.3-1.8l-16.1,16.3V229.8z
	 M236.1,155.5v2.7l2.3-2.3C237.7,155.7,236.9,155.6,236.1,155.5z M186.4,230.8L200,217v-5.3L184,228
	C184.8,229,185.7,230,186.4,230.8z M204.8,243.7c1.1,0.6,2.3,1.2,3.6,1.8l7.2-7.3c0,0-5.3,0-5.3,0L204.8,243.7z M192.6,236.3
	l7.7-7.7v-5.3l-10.7,10.7C189.8,234,192.5,236.2,192.6,236.3z M293.4,95l-18.8,19.1c0.1,1.8,0.2,3.5,0.4,5.2L298.7,95H293.4z
	 M221.8,238.2l-9.2,9.3c1.2,0.5,2.4,1.1,3.7,1.7l6.4-6.5c-0.5-1.4-0.6-3-0.2-4.5H221.8z M343.2,80.1l-0.5,0.5
	c0.2,0.4,0.3,0.8,0.5,1.3V80.1z M340.1,77l3.1-3.2v-5.3l-6.5,6.5C338,75.5,339.2,76.2,340.1,77z M320.8,139.6l-13.1,13.3v5.3
	l14.1-14.4C321,142.4,320.7,141,320.8,139.6z M343,145.7l0.2-0.2v-5.3l-3.5,3.5C340.8,144.4,341.9,145.1,343,145.7z M227.1,453h-5.3
	L200,475.1v-6.2l15.6-15.9h-5.3L200,463.2v-6.5l3.7-3.7h-3.4v-3.7l-3.7,3.7l-5.9,0l9.6-9.6V438L185.7,453H180
	c1.1,4.8,5.5,17.6,20.6,27.1L227.1,453z M461.3,357.4l-10.1,10.3v5.3l11.9-12.2C462.5,359.7,461.9,358.6,461.3,357.4z M541.1,419.8
	L522.2,439v5.3l20.4-20.8C542.2,422.2,541.7,421,541.1,419.8z M196.6,238.2h-1.3c1.4,0.9,3.1,2,5.2,3.2l3.2-3.2h-3.4v-3.7
	L196.6,238.2z M429.7,345.6l19.7-20c-0.4-1.5-0.8-2.9-1.1-4.2l-23.9,24.2H429.7z M271.6,354.9l-26.1,26.5h-2.6
	c-2.5,2.3-4.8,4.1-7,5.7v3.7l-26.1,26.5h5.3l20.9-21.2v6.2l-14.6,14.9h5.3l9.6-9.6v5.9l-3.7,3.7h3.7v4l4-4h6.5l-10.3,10.6v5.3
	l15.6-15.9h6.2l-21.8,22.1v5.3l27.1-27.7h4.8c-2.1-9.2-12.5-1.5-19.4-10.2c-4.2-5.9-3.4-13.8-1.4-19.9c2.6-8.1,15.1-4,12.2,3.6
	c-2.5,7.6,5,6.9,11.9,9.7v-2.8l15.6-15.9h-5.3L271.6,392v-6.5l4-4h-4v-3.7l-3.7,3.7H262l9.6-9.6v-5.3L257,381.4h-6.2l20.9-21.2
	V354.9z M500.7,416.9l18.6-18.9c-1.4-0.5-2.7-0.9-4.1-1.2l-19.8,20L500.7,416.9z M293.4,381.1v0.3l-19.5,19.8
	c1.2,0.7,2.3,1.5,3.3,2.5l22.1-22.6H293.4z M200.3,417.2h3.1l25.8-26.3c-2.7,1.3-5.2,2.1-7.6,2.6L200.3,415v-6.2l13.9-14.2
	c-2,0.2-4,0.3-6,0.6l-8.2,8.3v-6.2l0.2-0.2c-8.3,3.1-18.2,12-22.2,22.6l2.7-2.7h6.2l-11,11.2c-0.2,1.9-0.3,3.7-0.3,5.5l16.6-17h6.2
	l-22.4,22.6c0.2,1.7,0.6,3.2,0.9,4.6l23.3-23.7V417.2z M281.9,309.8l-6.1,6.3c-0.4,1.9-1,4.3-1.7,7.1l13.1-13.4H281.9z M200.3,426.5
	l-21.8,22c0.6,1.6,1.1,2.6,1.1,2.6s0.1,0.5,0.3,1.4l20.4-20.7V426.5z M281.9,95l-7.1,7.3c-0.2,1.9-0.3,3.8-0.3,5.6L287.2,95H281.9z
	 M225.6,246.1l-4.8,4.9c1.1,0.5,2.3,0.9,3.5,1.4l5.7-5.8C228.5,246.9,227.1,247,225.6,246.1z"/>
</svg>
