<?xml version="1.0" encoding="utf-8"?>
<!-- Generator: Adobe Illustrator 21.0.2, SVG Export Plug-In . SVG Version: 6.00 Build 0)  -->
<svg version="1.1" id="Layer_1" xmlns="http://www.w3.org/2000/svg" xmlns:xlink="http://www.w3.org/1999/xlink" x="0px" y="0px"
	 viewBox="0 0 731 516.6" style="enable-background:new 0 0 731 516.6;" xml:space="preserve">
<style type="text/css">
	.st0{fill:#EA0202;}
</style>
<g>
	<path class="st0" d="M474.5,111.8c15.6-7.4,33-13.9,26.9-34.7c-2.6-9-11.9-37.9-25.8-31.3c-4.8,2.3-9.9,7.9-14.4,11.2
		c-51.2,38.2-69.1,51.8-129.7,46.1c-43.6-4-81.3-20.1-108.8-43.5c-6.2-5.3-16.9-20.3-26.3-18.3c-14.6,3.3-20.9,32.5-23.2,44.7
		c-5.3,28.9,16.2,35.4,38.5,43.8c51,19.2,106.6,24,160.3,14.6c0.1,0.7,0.3,1.3,0.9,1.8C403.6,179,406,240,405.8,297.1
		c-0.2,45.6-4.2,94.4-9.2,140c-0.9,8.5-8,30.3,4,32.1c5,0.7,8.4-3.9,12.1-6.6c19.3-14.4,45.1-24.5,68.5-14.3
		c20.9,9.1,37.4,34.5,62,34c15.4-0.3,12.6-14.3,12.8-25.9C557.8,334.9,539.7,213.2,474.5,111.8z"/>
	<path d="M333.1,292.4c16.1,0,29.1,13,29.1,29.1s-13,29.1-29.1,29.1s-29.1-13-29.1-29.1S317.1,292.4,333.1,292.4z M333.1,187.6
		c16.1,0,29.1,13,29.1,29.1s-13,29.1-29.1,29.1s-29.1-13-29.1-29.1S317.1,187.6,333.1,187.6z M333.1,397.2c16.1,0,29.1,13,29.1,29.1
		s-13,29.1-29.1,29.1s-29.1-13-29.1-29.1S317.1,397.2,333.1,397.2z"/>
	<path d="M489.8,453l1.5-1.5v2.4C490.8,453.6,490.3,453.3,489.8,453z M480.6,448.1l10.6-10.8v-4.3l-13.8,13.9
		C478.5,447.2,479.6,447.6,480.6,448.1z M396.5,454.6h-2.7c-0.1,1-0.1,1.9-0.1,2.9L396.5,454.6z M231.7,74.1h5.3l-8.4,8.7V87
		l12.7-13h1.1c-5.5-3.4-10.6-7.1-15.5-11l-10.8,11h4.3l7.9-7.9V71l-3.1,3.1h3.1v3.3L231.7,74.1z M491.3,442.4l-7.2,7.3
		c0.9,0.5,1.8,1,2.7,1.5l4.5-4.5V442.4z M493.4,455.5l0.9-0.9h-2.2C492.6,454.9,493,455.2,493.4,455.5z M522.1,476.4V476l-0.3,0.3
		c-1-0.5-1.9-1.1-2.8-1.7l2.9-2.9v-5.1l-5.9,6c-0.8-0.6-1.7-1.2-2.5-1.8l8.5-8.6v-5.3l-11.5,11.7c-1.1-0.8-2.1-1.6-3.2-2.4
		l11.3-11.5h2v-1.5l27.5-28H543l-22.2,22.7v-4.3l17.8-18.1h-5.1l-12.7,13V434l8.4-8.7h-5.3l-3.3,3.3v-3.3h-3.1l3.1-3.1v-4.8
		l-7.9,7.9h-4.3l12-12.2V408l-17.1,17.3h-4.3l21.4-21.7v-5.3l-26.5,27h-2.5v2.3l-17.8,18.1c-1.1-0.3-2.2-0.5-3.3-0.7L490,425h-5.1
		L466,444.4c-1.1-0.1-2.2-0.2-3.2-0.2v-0.8l17.8-18.1h-5.1l-12.7,13V434l8.4-8.7h-5.3l-3.3,3.3v-3.3h-3.1l3.1-3.1v-4.8l-7.9,7.9
		h-4.3l12-12.2V408l-17.1,17.3h-4.3l21.4-21.7v-5.3l-26.5,27h-2.8v2.3l-26.5,27h5.1l21.4-21.7v4.3l-17.1,17.3h5.1l12-12.2v4.3
		l-7.9,7.9c-4.3,2.4-8.5,5.1-12.4,8c-2.7,2-5.2,4.9-8.3,6.1v-2.2l-2.7,2.7c-0.4,0-0.8,0-1.2-0.1c-0.9-0.1-1.7-0.4-2.4-0.7l6.2-6.2
		v-5.3l-8.9,9.1c-0.7-1.1-1.1-2.3-1.4-3.7l7.5-7.7h2v-1.5l27.8-28h-5.1l-22.2,22.7v-4.3l17.8-18.1h-5.1l-12.7,13V434l8.4-8.7h-5.3
		l-3.3,3.3v-3.3h-3.1l3.1-3.1v-4.8l-5.8,5.8c0.2-1.7,0.3-3.3,0.5-5l5.1-5.2V408l-4.5,4.6c0.2-1.6,0.3-3.2,0.5-4.8l4-4.1v-5.3
		l-3.5,3.5c0.1-1.4,0.3-2.8,0.4-4.2l1.6-1.6h2v-1.5l27.3-27.8h-5.1l-22.2,22.7v-4.3L422,367h-5.1l-12.7,13v-4.3l8.4-8.7h-5.3
		l-3.3,3.3V367H403c0.1-0.8,0.1-1.5,0.2-2.3l0.7-0.7v-4.8l-0.4,0.4c0.5-8.1,1-16.2,1.3-24.3l26.6-27.1h-5.1l-21.3,21.8
		c0.1-1.5,0.1-3,0.2-4.5l16.8-17h-5.1l-11.5,11.7c0-1.5,0.1-3,0.1-4.5l7-7.3h-5.3l-1.6,1.6c0.1-4.3,0.1-8.6,0.2-12.9
		c0-7.1,0-14.2-0.1-21.4l25.7-26.2h-5.1l-20.7,21.2c0-1.4-0.1-2.8-0.1-4.2l16.5-16.7h-5.1l-11.5,11.8c0-1.4-0.1-2.8-0.2-4.2l7.4-7.6
		h-5.3l-2.3,2.3c-0.3-6.2-0.7-12.3-1.3-18.3v-1.3l-0.1,0.1c-0.1-1.3-0.3-2.6-0.4-3.9l0.5-0.5v-5.3l-1.1,1.1
		c-0.2-1.2-0.3-2.4-0.5-3.6l0,0h2v-1.5l27.3-27.8h-5.1l-22.2,22.7v-4.3l17.8-18.1h-5.1l-12.7,13v-4.3l8.4-8.7h-5.3l-3.3,3.3v-3.3
		h-3.1l3.1-3.1v-4.8l-7.7,7.7c-0.3-1.1-0.6-2.3-1-3.4l8.4-8.6v-5.1l-9.7,9.8c-0.4-1.1-0.7-2.2-1.1-3.2l10.8-10.9v-5.3l-12.2,12.4
		c-0.4-1-0.8-2-1.2-3l11.9-12h2v-1.5l27.3-27.8h-5.1L404.2,155v-4.3l17.8-18.1h-5.1l-12.7,13v-4.3l8.4-8.7h-5.3l-3.3,3.3v-3.3h-3.1
		l3.1-3.1v-4.8l-7.9,7.9h-4.3l12-12.2v-5.1l-17.1,17.3c0,0-4.3,0-4.3,0l21.4-21.7v-5.3l-26.5,27h-2.8v2.3l-10.6,10.8
		c-1.6,0.2-3.1,0.4-4.7,0.7l13.7-14h-5.1l-14.4,14.7c-1.6,0.2-3.1,0.3-4.7,0.5l14.7-14.9h-5.1l-12.7,13v-4.3l8.4-8.7h-5.3l-3.3,3.3
		v-3.3h-3.1l3.1-3.1v-4.8l-7.9,7.9h-4.3l12-12.2v-5.1L328,132.6c0,0-4.3,0-4.3,0l21.4-21.7v-5.3l-26.5,27h-2.8v2.3l-13.4,13.7
		c-1.4-0.1-2.7-0.2-4.1-0.2l15.7-16h-5.1L293.6,148c-1.3-0.1-2.6-0.2-3.9-0.3l14.9-15.1h-5.1l-12.7,13v-4.3l8.4-8.7h-5.3l-3.3,3.3
		v-3.3h-3.1l3.1-3.1v-4.8l-7.9,7.9h-4.3l12-12.2v-5.1l-17.1,17.3h-4.3l21.4-21.7v-5.3l-26.5,27h-2.5v2.3l-6.5,6.6
		c-1-0.2-2-0.5-3.1-0.7l8.3-8.4h-5.1l-7.2,7.4c-1.1-0.3-2.2-0.6-3.3-0.8l6.2-6.3h-5.1l-5.1,5.2c-1.1-0.3-2.2-0.6-3.3-1l4.1-4.2h-5.3
		l-3,3c-0.1,0-0.2-0.1-0.3-0.1v-2.9h-3.1l3.1-3.1v-4.8l-7.9,7.9h-0.9c-0.8-0.3-1.7-0.6-2.5-0.9l11.1-11.3v-5.1l-14.9,15.1
		c-0.5-0.2-1.1-0.4-1.6-0.6c-0.5-0.2-1-0.4-1.6-0.6l18-18.2v-5.3l-21.8,22.2c-1-0.4-2.1-0.8-3.1-1.2l23.3-23.6h2v-1.5L250.8,79
		c0.9,0.5,1.9,1,2.8,1.5L231,103.6h5.1l21.1-21.3c0.1,0.1,0.2,0.1,0.3,0.2v3.8l-17.1,17.3h5.1l12-12.2v4.3l-7.9,7.9h4.8l3.1-3.1v2.8
		h2.8l-3.1,3.1v5.3l8.4-8.4h4.3l-12.7,13v5.1l17.8-18.1h4.3l-21.9,22.4v5.1l27.5-27.8h2v-1.5l5.5-5.6c1.1,0.3,2.3,0.6,3.4,0.9
		l-6.6,6.7h5.1l5.6-5.7c1.2,0.3,2.3,0.6,3.5,0.8l-4.8,4.9h5.1l3.9-4c1.2,0.2,2.3,0.5,3.5,0.7l-3.3,3.3h4.8l2.6-2.6
		c0.2,0,0.3,0.1,0.5,0.1v2.2h3.3l-3.3,3.3v5.3l8.4-8.7h4.3l-12.7,13v5.1l17.8-18.1h0.6c1.2,0.1,2.3,0.2,3.5,0.3L315.8,126v5.1
		l26.9-27.1c10.6,0.6,19.8,0.5,28.2-0.4h0.4l0.1-0.1c1-0.1,2-0.2,3-0.4v0.2h3.3l-3.3,3.3v5.3l8.4-8.7h4.3l-12.7,13v5.1l17.8-18.1
		h4.3L374.4,126v5.1l27.8-28h2v-1.5l14.1-14.3c3.7-2.2,7.6-4.7,11.5-7.4l-23.3,23.8h5.1l21.4-21.7v4.3l-17.1,17.3h5.1l12-12.2v4.3
		l-7.9,7.9h4.8l3.1-3.1v2.8h3.3l-3.3,3.3v5.3l8.4-8.7h4.3l-12.7,13v5.1l17.8-18.1h4.3L432.9,126v5.1l27.8-28h2v-1.5L490,73.8h-5.1
		l-22.2,22.7v-4.3l17.8-18.1h-5.1l-12.7,13v-4.3l8.4-8.7h-5.3l-3.3,3.3v-3.3h-3.1l3.1-3.1v-4.8l-7.9,7.9h-4.3l12-12.2v-5.1
		l-17.1,17.3h-4.3l7.1-7.2c4.2-3.1,8.6-6.4,13.2-9.9c4.5-3.3,9.6-8.9,14.4-11.2c0.8-0.4,1.6-0.6,2.4-0.8h1.1l0.2-0.2
		c4.5-0.2,8.5,3.2,11.8,8v0.6l0.2-0.2c0.6,0.9,1.2,1.8,1.7,2.8l-2,2v5.1l3.7-3.8c0.5,1,1,2.1,1.4,3.1l-4.9,5v5.1l6.4-6.5
		c0.4,1,0.8,2,1.1,2.9l-5,5.1h-2.3v2.5l-26.5,27h5.1l21.4-21.7v4.3l-17.1,17.3h5.1l12-12.2v4.3l-7.9,7.9h4.8l3.1-3.1v2.5
		c-5,3.3-11.2,6-17,8.8c4.4,6.8,8.5,13.6,12.4,20.6h-2.3L462.5,155v-4.3l17.8-18.1h-5.1l-12.7,13v-4.3l8.4-8.7h-5.3l-3.3,3.3v-3.3
		h-3.1l3.1-3.1v-4.8l-7.9,7.9H450l12-12.2v-5.1l-17.1,17.3c0,0-4.1,0-4.1,0l21.4-21.7v-5.3l-26.5,27h-2.8v2.3l-26.5,27h5.1
		l21.4-21.7v4.3l-17.1,17.3h5.1l12-12.2v4.3l-7.9,7.9h4.8l3.1-3.1v3.1h3.3l-3.3,3.3v5.3l8.4-8.7h4.3l-12.7,13v5.1l17.8-18.1h4.3
		l-22.2,22.7v5.1l27.5-28h2v-1.5l25.5-25.9c0.5,0.9,1,1.9,1.6,2.8l-24.2,24.7h5.1l21-21.3c0.1,0.2,0.3,0.5,0.4,0.7v3.2l-17.1,17.3
		h5.1l12-12.2v4.3l-7.9,7.9h4.8l3.1-3.1v3.1h3.1l-3.1,3.1v5.3l8.4-8.4h2c0.3,0.5,0.5,1.1,0.8,1.6l-11.1,11.4v5.1l12.8-13
		c0.5,1,0.9,2,1.4,3.1L492,184.1v5.1l15.5-15.8c0.4,0.9,0.8,1.9,1.2,2.8L494.3,191h-2.5v2.3l-26.5,27h5.1l21.4-21.7v4.3l-17.1,17.3
		h5.1l12-12.2v4.3l-7.9,7.9h4.8l3.1-3.1v3.1h3.1l-3.1,3.1v5.3l8.4-8.4h4.3l-12.7,13v5.1l17.8-18.1h4.3L492,242.7v5.1l27-27.5h2v-1.5
		l2.8-2.9c0.3,1,0.7,2.1,1,3.1l-1.5,1.6h2.1c3.1,9.7,6,19.4,8.6,29.3h-0.2l-12.7,13v-4.3l8.4-8.7h-5.3l-3.3,3.3v-3.3h-3.1l3.1-3.1
		v-4.8l-7.9,7.9h-4.3l12-12.2v-5.1l-17.1,17.3v-0.3h-4.1l21.4-21.7v-5.3l-26.5,27h-2.5v2.3l-26.5,27h5.1l21.4-21.7v4.3l-17.1,17.3
		h5.1l12-12.2v4.3l-7.9,7.9h4.8l3.1-3.1v3.1h3.1l-3.1,3.1v5.3l8.4-8.4h4.3l-12.7,13v5.1l17.8-18.1h4.3L492,301.3v5.1l27-27.5h2v-1.5
		l15.8-16.1c0.3,1.1,0.5,2.2,0.8,3.3l-14.3,14.6h5.1l10.2-10.3c0.3,1.2,0.5,2.4,0.8,3.6l-6.7,6.8h5.1l2.5-2.5
		c2.2,10.5,4.2,21,5.9,31.6h-3l-22.2,22.7v-4.3l17.8-18.1h-5.1l-12.7,13V317l8.4-8.7h-5.3l-3.3,3.3v-3.3h-3.1l3.1-3.1v-4.8l-7.9,7.9
		h-4.3l12-12.2v-5.1l-17.1,17.3v-0.3h-4.1l21.4-21.7v-5.3l-26.5,27h-2.5v2.3l-26.5,27h5.1l21.4-21.7v4.3l-17.1,17.3h5.1l12-12.2v4.3
		l-7.9,7.9h4.8l3.1-3.1v3.1h3.1l-3.1,3.1v5.3l8.4-8.4h4.3l-12.7,13v5.1l17.8-18.1h4.3L492,359.8v5.1l27-27.5h2v-1.5l25.5-26
		c0.2,1.1,0.3,2.2,0.5,3.3l-23.7,24.2h5.1l19.3-19.6c0.2,1.3,0.4,2.5,0.5,3.8l-15.5,15.8h5.1l11.1-11.3c0.2,1.3,0.3,2.5,0.5,3.8
		l-7.5,7.5h4.8l3.1-3.1v3.1h0.5c0.1,0.8,0.2,1.7,0.3,2.5l-0.8,0.8v5.3l1.3-1.4c0.1,1.3,0.3,2.6,0.4,3.9l-1.8,1.8v5.1l2.2-2.3
		c0.1,1.4,0.3,2.8,0.4,4.2l-2.6,2.7v5.1l3-3.1c0.1,1.3,0.2,2.7,0.3,4l-0.6,0.6h-2.8v2.3l-26.5,27h5.1l21.4-21.7v4.3L532.8,396h5.1
		l12-12.2v4.3L542,396h4.8l3.1-3.1v3.1h3.3l-3.3,3.3v5.3l5.4-5.6c0.1,1.4,0.1,2.8,0.2,4.2l-5.6,5.7v5.1l5.7-5.8
		c0,1.5,0.1,2.9,0.1,4.4l-5.9,6v5.1l6-6.1c0,1.3,0.1,2.7,0.1,4l-3.5,3.6h-2.8v2.3l-26.5,27h5.1l21.4-21.7v4.3l-17.1,17.3h5.1
		l12.2-12.2v4.3l-7.9,7.9h4.8l3.1-3.1v3.1h3.3l-3.3,3.3v5.3l6.1-6.3c0,1.4,0,2.9,0,4.4l-6.2,6.3v5.1l6.2-6.3c0,1.7-0.1,3.3-0.3,4.9
		l-5.9,6v3.6c-1.7,0.8-3.9,1.3-6.7,1.4C535.5,482.5,528.6,480.1,522.1,476.4z M432.9,217.5v3.1h3.3l-3.3,3.3v5.3l8.4-8.7h4.3
		l-12.7,13v5.1l17.8-18.1h4.3l-22.2,22.7v5.1l27.5-28h2v-1.5l27.3-27.8h-5.1l-22.2,22.7v-4.3l17.8-18.1h-5.1l-12.7,13v-4.3l8.4-8.7
		h-5.3l-3.3,3.3v-3.3h-3.1l3.1-3.1v-4.8l-7.9,7.9H450l12-12.2v-5.1l-17.1,17.3c0,0-4.1,0-4.1,0l21.4-21.7v-5.3l-26.5,27h-2.8v2.3
		l-26.5,27h5.1l21.4-21.7v4.3l-17.1,17.3h5.1l12-12.2v4.3l-7.9,7.9h4.8L432.9,217.5z M432.9,276v3.1h3.3l-3.3,3.3v5.3l8.4-8.7h4.3
		l-12.7,13v5.1l17.8-18.1h4.3l-22.2,22.7v5.1l27.5-28h2v-1.5l27.3-27.8h-5.1l-22.2,22.7v-4.3l17.8-18.1h-5.1l-12.7,13v-4.3l8.4-8.7
		h-5.3l-3.3,3.3v-3.3h-3.1l3.1-3.1v-4.8l-7.9,7.9H450l12-12.2v-5.1l-17.1,17.3h-4.1l21.4-21.7v-5.3l-26.5,27h-2.8v2.3l-26.5,27h5.1
		l21.4-21.7v4.3l-17.1,17.3h5.1l12-12.2v4.3l-7.9,7.9h4.8L432.9,276z M433.2,334.4v3.1h3.3l-3.3,3.3v5.3l8.4-8.7h4.3l-12.7,13v5.1
		l17.8-18.1h4.3l-22.2,22.7v5.1l27.3-27.8h2v-1.5l27.3-27.8h-5.1l-22.2,22.7v-4.3l17.8-18.1h-5.1l-12.7,13V317l8.4-8.7h-5.3
		l-3.3,3.3v-3.3h-3.1l3.1-3.1v-4.8l-7.9,7.9H450l12-12.2v-5.1l-17.1,17.3v-0.3h-3.8l21.4-21.7v-5.3l-26.5,27h-2.8v2.3l-26.5,27h5.1
		l21.4-21.7v4.3l-17.1,17.3h5.1l12-12.2v4.3l-7.9,7.9h4.8L433.2,334.4z M462.7,394.5l27.3-27.8h-5.1l-22.2,22.7v-4.3l17.8-18.1h-5.1
		l-12.7,13v-4.3l8.4-8.7h-5.3l-3.3,3.3V367h-3.1l3.1-3.1v-4.8l-7.9,7.9h-4.3l12-12.2v-5.1L445.2,367h-4.3l21.4-21.7V340l-26.5,27
		h-2.8v2.3l-26.5,27h5.1l21.4-21.7v4.3l-17.1,17.3h5.1l12-12.2v4.3l-7.9,7.9h4.8l3.1-3.1v3.1h3.3l-3.3,3.3v5.3l8.4-8.7h4.3l-12.7,13
		v5.1l17.8-18.1V396h4.8l-22.2,22.7v5.1l27.3-27.8h2V394.5z M521.1,394.5l27.3-27.8h-5.1l-22.2,22.7v-4.3l17.8-18.1h-5.1l-12.7,13
		v-4.3l8.4-8.7h-5.3l-3.3,3.3V367h-3.1l3.1-3.1v-4.8l-7.9,7.9h-4.3l12-12.2v-5.1L503.5,367v-0.3h-4.1l21.4-21.7v-5.3l-26.5,27h-2.5
		v2.3l-26.5,27h5.1l21.4-21.7v4.3L474.7,396h5.1l12-12.2v4.3l-7.9,7.9h4.8l3.1-3.1v3.1h3.1l-3.1,3.1v5.3l8.4-8.4h4.3l-12.7,13v5.1
		l17.8-18.1l4.3,0L492,418.4v5.1l27-27.5h2V394.5z M509.1,454.6l-7.2,7.3c0.8,0.7,1.6,1.3,2.5,2l9.1-9.3H509.1z M496.5,457.7
		c0.8,0.6,1.7,1.3,2.5,1.9l5-5.1h-4.3L496.5,457.7z M209.6,46.7c-0.8-0.7-1.6-1.3-2.4-1.9l-8.4,8.6v-5.3l3.3-3.3h-3.3V42l-3.1,3.1
		H191l2.8-2.8c-9.3,4.3-14.8,19.5-18,31.8h2.7l-3.6,3.7c-0.5,2-0.9,3.9-1.2,5.6l9.1-9.3h5.1l-15.2,15.4c-0.2,1.6-0.3,3.1-0.3,4.6
		l19.8-20.3h5.1l-24.6,25.1c0.2,1.2,0.4,2.3,0.7,3.4l25.5-26v-2.3h2.8l17.5-17.9c-0.7-0.7-1.3-1.4-2-2.1l-18.3,18.5v-5.1l15.7-16
		c-0.7-0.7-1.5-1.5-2.2-2.2l-13.5,13.7v-5.1L209.6,46.7z M511.6,183c-0.4-1-0.8-2-1.3-3.1l-10.9,11h4.1v0.3L511.6,183z M404.2,94.7
		v1.8l3.3-3.3C406.3,93.7,405.2,94.2,404.2,94.7z M500.1,72.8l-1.2,1.2h1.6C500.4,73.7,500.2,73.3,500.1,72.8z M521.5,208.9
		l-0.4,0.4v4.3l1.5-1.6C522.2,211,521.9,209.9,521.5,208.9z M521.1,272.2l14.8-15.1c-0.3-1.1-0.6-2.2-0.8-3.3l-14,14.2V272.2z
		 M392.2,161.9l-5,5.1c0.5,1,1,2,1.4,3l7.9-8.1H392.2z M514.4,189.8c-0.4-1.1-0.8-2.1-1.3-3.2l-4.5,4.6h4.3L514.4,189.8z M287,94.3
		v2.1l1.6-1.6C288.1,94.7,287.5,94.5,287,94.3z M372,144.4c0.1,0.7,0.3,1.3,0.8,1.7l1.5-1.5v-4.3l-4.4,4.5
		C370.6,144.6,371.3,144.5,372,144.4z M385.4,163.7l1.7-1.7h-2.7C384.7,162.5,385.1,163.1,385.4,163.7z M311.5,149l4.3-4.4v-4.3
		l-8.5,8.6C308.7,148.9,310.1,148.9,311.5,149z M211.1,74.1l13.1-13.2c-0.5-0.4-1-0.8-1.4-1.2c-0.3-0.2-0.6-0.5-0.9-0.8l-15.1,15.2
		H211.1z M245,75.6l-16.3,16.5v4.3l18.9-19.3C246.7,76.6,245.8,76.1,245,75.6z M257.2,142.9v-2.6l-2.1,2.2
		C255.8,142.6,256.5,142.7,257.2,142.9z M216.7,103.3l-17.8,18.1v-5.1l12.7-13h-4.3l-8.4,8.7v-5.3l3.3-3.3h-3.3v-2.8l-3.1,2.8H191
		l7.9-7.9v-4.3l-12,12.2h-5.1L198.9,86v-4.3l-21.4,21.7h-3.8c3.5,11.2,13.8,17,26,21.9l21.4-21.9H216.7z"/>
</g>
</svg>
