<?xml version="1.0" encoding="utf-8"?>
<!-- Generator: Adobe Illustrator 21.0.2, SVG Export Plug-In . SVG Version: 6.00 Build 0)  -->
<svg version="1.1" id="Layer_1" xmlns="http://www.w3.org/2000/svg" xmlns:xlink="http://www.w3.org/1999/xlink" x="0px" y="0px"
	 viewBox="0 0 731 516.6" style="enable-background:new 0 0 731 516.6;" xml:space="preserve">
<g>
	<path d="M176.8,75.7c0,1.4-2.4,1.3-3.7,0.5c-1.2-0.7-0.1-1.5-1.4-4.3c-1.4-3-4.2-4.8-6.6-2.5c-10.5,8.4-10,48.4-4.6,58.8
		c1.3,2.5,2.6,3,5.5,2.4c3-0.6,6.1-3.6,6.1-10.7c0-5.9,5.1-3.7,5.1-1.4c1,20.1-15.1,22.3-24.5,13.4c-7.1-6.8-11.4-20.1-11.4-31.7
		c0-33.2,25.6-44.5,33.9-31.1C176.5,70.9,177,73.1,176.8,75.7z M215.2,110.7c-5.2-0.8-13.4-0.5-14,2c-1.8,7.2-3.1,13-3.7,17.1
		c-0.7,4.2-1.1,6.5-1.4,6.9c-0.6,3.7-13.5,3.5-12.6-0.6c5.8-29.7,5.6-27.5,5.1-28.5c-1.2-1.4-1.2-2.8,0.3-4.2c1.2-1.5,0.7-0.5,1.8-5
		c1.6-6.4,7-27.2,9.5-33.3c3.9-4.4,13.2-2.8,14,1.2c16.6,74,15.9,69.3,15,70.4c-1.3,1.6-5.8,2.8-7.4-2.4
		C219.8,128.1,219.1,122,215.2,110.7z M203.3,104.5c4,0.9,5.8-0.2,9.9,0.1c0,0-4.8-19.9-5.1-20.9C205.9,93.4,205.3,96.1,203.3,104.5
		z M283.2,93.4c-1.1,36.4-0.5,39.9-2.4,40.6c-2.6,0.8-5.6,1.5-8.2,0.7c-1.7-0.5-1.6-0.8-5.5-10.6c-5.1-13-9.4-24.3-14.5-37.8
		c-0.7,7.7-1,34.7-1.5,43.2c-0.1,2.2,0,5-2.8,6.6c-2.5,1.5-5.3,1.3-7.4,0.2c-2.1-1.2-1.9-2.6-2.1-7.4c-0.5-14.2-0.7-58.2-0.7-58.2
		c0-2.5,7.8-7.4,11.5-4.2c4.4,3.7,13.7,35.1,21.5,53.8c-0.4-1.7-2-42.6-1.2-50.3c0.2-2.4,9.6-6.5,13.2-3.5
		C284.7,67.8,284,67.6,283.2,93.4z M293.9,133.7c-0.2-3-0.7-34.5-0.5-55.5c0.1-14.7,0.1-13.5,1.6-13.8c30.9-5.8,46.3,18.8,41.6,42.8
		C330.5,138.3,294.3,141.2,293.9,133.7z M306.8,129.5c20-1.6,24.5-60.6-0.4-60.2L306.8,129.5z M361,94.7c4.8-8.3,8.8-19,12.5-27.4
		c0.5-1.1,0.8-1.8,1-2.1c2.4-3.4,5.7,0.6,4.9,2.6c-5.1,12.4-15.3,33.4-15.3,33.4c-0.7,1.3,0.5,26.3,0.2,32.2
		c-0.3,7.1-13.6,5-13.6,1.9c-0.5-39.1,0.4-34.9-3.5-45.2c-3.9-10-8.9-20.9-9.1-22.9c-0.4-3.8,9.9-5.3,10.5-4.2
		C353.1,71.5,359.2,90.8,361,94.7z M436.4,75.7c0,1.4-2.5,1.2-3.7,0.5s-0.1-1.5-1.4-4.3c-1.5-3.3-4.3-4.7-6.6-2.5
		c-11.9,9.4-9.8,60.2-1.8,61.4c6,0.7,8.9-4.4,8.9-10.9c0-5.9,5.1-3.7,5.1-1.4c0.4,9.1-3,18.1-12,18.3c-26.8,1.1-33.3-59.7-6.2-71.9
		C426.8,61.3,437,65.6,436.4,75.7z M474.8,110.7c-4.8-0.7-13.4-0.5-14,2c-1.8,7.2-3.1,13-3.7,17.1c-0.7,4.2-1.1,6.5-1.4,6.9
		c-0.6,3.7-13.5,3.5-12.6-0.6c5.8-29.7,5.6-27.5,5.1-28.5c-2-2.3-0.1-3.7,0.9-4.9c0.4-0.5,0.2-0.3,1.2-4.2c1.6-6.4,7-27.2,9.5-33.3
		c3.9-4.4,13.2-2.8,14,1.2l15.4,68.5c0.3,1.5-0.7,2.5-2,3C479.8,140.5,481.4,129.7,474.8,110.7z M462.9,104.5c4,0.9,5.8-0.2,9.9,0.1
		c-0.1-0.5-5-20.4-5.1-20.9C465.5,93.3,464.9,96.2,462.9,104.5z M542,122.4c-0.2,12.6-0.5,11.4-3.8,12.2c-1.9,0.5-4.1,0.7-6,0.1
		c-1.8-0.5-1.7-1-5.5-10.6c-5-12.6-9.2-23.8-14.5-37.8c-0.4,4.7-0.9,21.9-1,26.4c0,1.3-0.4,19-0.8,20.1c-1.7,6-11.1,5.3-11.7,0.9
		c-0.8-7.2-0.9-62.9-0.9-62.9c0-1.7,2.8-3.5,4.4-4.3c11.7-5.5,11,11.4,28.6,53.8c-0.4-1.7-2-42.5-1.2-50.3c0.2-2.4,9.6-6.5,13.2-3.5
		C544.8,68.2,542.9,68.4,542,122.4z M583.2,63.8c2.1,2.1,1.2,4.4-1.1,5.1c-8.4,0.8-10.8,0.8-14.9,0.8c0,1.1,0.1,13.5,0.2,16.1
		c4.5,0.2,7.7,0.3,12.2-0.5c1,0.3,2.4,2.5,2.1,4.6c-0.2,1.5-1.6,1.8-3.2,2c-2.9,0.5-8.2,0.6-10.9,0c-0.1,1.1-2.3,33.2-2.3,37.6
		c6.3,1.8,14.2-0.5,17.6-0.3c0.6,1.4,1,3,0.5,4.5c-0.6,2.3-1.4,3.9-14.6,3.4c-2.8-0.1-9.7-0.4-12.6-1c-8.8-2-2.5-60.4-2.9-71.2
		C553.3,64.1,557.6,64.4,583.2,63.8z"/>
	<path d="M152.8,314c3.9-6,8.8-8.7,15.2-12c-16-2.4-16.2-15.2-9.7-23.2c11.2-13.8,33.1-4.5,23.3,11.1c-3,4.7-8.4,1.6-10.7,2
		c-2-1.6-2-4.8,2.9-4.6c3.5,0.2,3.8-0.2,4-1.9c0.8-8.1-9.5-15.3-12.3,1c-0.5,2.6-0.7,6.1,0,8.6c0.5,1.7,0.8,2,5.3,2.8
		c3.7,0.7,8.7,1.1,12,0.5c1.4,1.1,1.6,2.4,0.8,3.6c-0.7,1.1-1.8,1.8-2.1,1.8c-13.1-0.6-20.6,11.6-22.1,16.9
		c-2.1,5.6,3,21.6,10.8,21.1c10.7-0.7,14.4-12.1,13.3-17.5c-0.4-2.6-5.9,3.3-7.5,1.5c-1-0.7-2.6-4.8-1.6-5.4c1.9-1.7,6-4.1,9.3-6.6
		c1.8-1.2,6.4-1.1,6.2,4.3l-3.6,2.3c9.9,34.3-32.4,40.1-37.4,13.6C147.8,328.2,149.2,319.6,152.8,314z M265.4,287.2
		c-2.4,11.2-12.1,45.7-12.2,46.1c-0.2,1.1-0.9,2.4-2.2,2.9c-8,2.8-14.3-33.3-18.8-41.8c2.6,19.6,4.8,48.6,3.9,51.3
		c-2.4,2.1-9.5,4.7-13.9,2.1c-2.9-1.7-2,0.2-5.7-65.9c3.1-9.4,17.7-5.6,17.7-1.5c3.2,8.2,9.3,23.6,12.4,34.6
		c0.5,1.8,1.1,3.8,1.6,4.9c14.7-46.2,13.4-43.6,15.4-44.9c5.3-3.6,15.1-1.5,15.4,3.7c0.6,13,2.5,57,2.5,69.5c0,3.8-13.7,8-14.4-1.2
		C266.2,337.2,266.5,298.7,265.4,287.2z M291.3,342.4c0-69.3-0.1-67.6,3-69.2c4.4-2.4,10-0.6,10,2.1c0,0.8,1.1,67.4,1.7,68
		C304.3,349.3,290.9,352.6,291.3,342.4z M316.6,326.5c-0.7,7.2,4.9,22,11.5,18.2c11.5-6.2,7.5-20.6,2.2-28.4
		c-10.4-9.6-24-27.8-14.3-38.8c12.4-11.5,27.4-0.7,29.2,9.4c-1.7,2.5-4,1.7-4.7,0.6c-9.9-17.4-23.3-7.1-6.3,12.7
		c2.5,2.9,16,15.5,12.9,32.9c-1.1,5.9-3.9,11.1-8.8,14.5c-14.8,10.4-29.8-6.6-27.7-21.2C310.5,323.2,316.6,322.5,316.6,326.5z
		 M369.9,347.6c-3.7,3.5-11.7,3.7-11.7-0.4c0.4-18.6,1.1-48.2,0.6-66.8c-4.8,0.5-8.2,1.6-11.9,0.7c-2.2-0.4-2.5-7.3,0.2-8.3
		c2.9-1.1,24.9-2.6,34.6-1.6c2.9,0.3,3.2,0.5,3.8,1.6c1,1.7,1,4.8-3.5,5.6c-3.6,0.7-6.9,0.6-9.4,1.2l-0.2,0.2
		C371.6,349.1,371.5,346,369.9,347.6z M402.4,340.9c0,1.8,0,2.8,0.1,3.1c1.1-0.3,10.8-1.8,13.6-1.8c2.4,0.2,3.5,5.3,0.7,5.5
		c-14.7,1.8-26.7,4.9-28.6,3.2c-1.1-0.8,0.3-69.4,1.7-75.8c1.9-1.9,10.3-4.4,13.9-0.9C407.3,277.7,402.4,287,402.4,340.9z
		 M451.4,272.5c2.1,2.2,1.2,4.6-1.1,5.5c-12.1,1.1-14.2,0.8-15.3,0.8c0,1.1,0.1,14.3,0.2,17.1c4.6,0.2,7.9,0.3,12.5-0.5
		c1,0.3,1.7,1.9,2,2.9c1,3.3-0.7,3.9-3.1,4.3c-3,0.5-8.4,0.6-11.2,0c-0.3,4-2.3,35.7-2.3,40c6.5,1.9,14.5-0.5,18.1-0.3
		c0.7,1.5,1,3.2,0.6,4.7c-0.7,2.7-1.8,3.5-9.4,3.7c-5.5,0.2-15.8-0.5-18.7-1.1c-5.8-1.4-4.9-27.9-4.7-34.3c0.5-17.8,2-35.3,1.8-41.4
		C420.7,272.9,427.6,273.1,451.4,272.5z M480.1,347.6c-3.1,3-8.6,3.3-10.8,1.6c-1.6-1.2-0.6-1.2-0.2-40.7
		c0.1-13.6,0.1-21.2-0.1-28.1c-4.9,0.5-8.2,1.6-11.9,0.7c-2.3-0.4-2.5-7.3,0.2-8.3c2.4-0.9,17.1-2,28-1.9c9.2,0.1,10.5,0.6,10.9,3.3
		c0.8,5.5-8.9,4.3-13.4,5.5l-0.2,0.2c0,1.1-0.3,46.7-1,61.2C481.3,345.4,481.5,346.2,480.1,347.6z M491.3,311.3
		c0-51.7,54-54.5,52.3-2.4C541.9,361.7,491.3,362.1,491.3,311.3z M536.6,312c2.1-40-25.6-52.3-29.2-3.1c-0.7,9.2-0.2,24.7,5.4,32
		C518.6,348.5,535,342.6,536.6,312z M581.3,272.5c2.1,2.2,1.2,4.6-1.1,5.5c-8.6,0.8-11.1,0.8-15.3,0.8c0,1.1,0.1,14.6,0.2,17.1
		c4.6,0.2,7.9,0.3,12.5-0.5c1.5,0.4,3.4,5.1,1.3,6.4c-2.1,1.2-10.2,1.4-13.6,0.6c-0.1,1.1-2.3,35.3-2.3,40
		c6.4,1.9,14.7-0.5,18.1-0.3c0.9,2.1,1.1,4.4-0.1,6.3c-0.7,1.1-1.4,1.5-3.9,1.8c-6.6,0.9-17.7,0-20.8-0.4c-3.9-0.5-9.5,2.7-7-47.6
		c0.8-15.1,1.4-24.2,1.3-28.5C550.6,272.9,556.2,273.1,581.3,272.5z"/>
	<path d="M340.3,375.6c-0.9-5.2,4.7-9.9,10.4-6.7c2.8,1.6,4.2,6.7,1.3,9.4C348.3,381.9,341.1,381.4,340.3,375.6z M593.2,410.1
		c0-4.4-5.7-3.5-6.6-0.3c-3.6,6.1-5.6,13.4-20.3,19.4c-8.6-11.8-18.1-14.3-18.1-22.1c0-9,7.2-16.5,10.3-17.5
		c1.5-0.7,6.1,1.1,6.4,6.2c0.2,4.4-4.7,6.4-2.2,9.6c1.9,2.4,4.4-1,6.4-3.3c1.1-1.3,2-4.2,2.7-8.6c0-3.1-1.7-9-6.9-12.1
		c-2.4-1.4-5.5-2-9.2-1.6c-3.8,0.3-8.4,2.3-13.8,5.9c-3.2,2.4-9.7,12.3-8.5,24.6c-0.6,2.1-1.2,5.4-3.8,11.4
		c-13.7,31.4-43.3,15.8-34.8-9.5c2.3-6.7,9-16.9,15.2-13.6c3.4,3.7,3.7,12.2-9.6,13.6c-2.1,0.3-3,1.2-2.7,2.7s1.2,2.3,2.7,2.3
		c1.2,0,5.6,1.9,14.3-5.1c3.3-2.6,5.8-10.4,1.5-17.2c-2.1-3.2-5-4.3-8.2-5c-9.2-1.3-16.4,0.5-21.6,5.7c-5.1,5.1-8,11.3-8.7,17.8
		c-3.2,11.7-7.8,18.9-21,24.3c-9-12.3-18.1-14.1-18.1-22.1c0-5.4,2.6-10.6,6-14.2c3.8-4,5.2-3.6,6.7-3c3.7,1.5,5.5,6.1,2,11.1
		c-1.2,1.7-1.2,3.1-0.2,4.4s2.4,1.1,4.1-0.7c12.4-12.3,0.3-35.9-25-19.1c-2.9,2.1-8.2,10.3-8.7,20.7c-3,7.7-9.6,11.4-16.8,14.5
		c-9-12.3-18.1-14.1-18.1-22.1c0-5.5,2.6-10.6,6-14.2c3.8-4,5.2-3.6,6.7-3c3.4,1.4,5.7,5.8,2,11.1c-1.2,1.7-1.2,3.1-0.2,4.4
		s2.4,1.1,4.1-0.7c9.8-9.8,4.2-26.3-11.2-25c-3.8,0.3-8.4,2.3-13.8,5.9c-3.1,2.4-9.4,11.9-8.5,23.9c-2.3,7.6-5,35.2-24.1,35.4
		c-10.5-0.6,12.5-55.6-5.2-55.6c-7,0-8.6,10.1-9.4,13.8c-0.4,2-0.8,4.2-1.1,6.5c-1.1,3.6-8.7,35.2-19.5,32.6
		c-1.4,0-10.7-11.1-13.4-20c3.8-3.8,17.3-23.6,25.5-47c0.8-2.8-1.8-5.9-4.7-4.8c-2.3,0.9-0.7,2.1-7.5,14.7
		c-8.6,16.1-19.1,32.9-20.2,34c-0.4-1.5-0.5-4.9-0.4-10c0.8-42.6,3.3-47.6-2.7-49.5c-2.3-0.8-4.7,0.6-7.2,4
		c-1.7,2.4-5.4,17.3-6.6,36.4c-2.9,44.2,10.8,55.8,15.8,45.4c0.9-1.9,1.7-5.1,2.3-9.6c10.4,16,22.1,16.2,28.8,10
		c4.3-4,7.5-9.2,9.9-14.6c0.2,1.4,0.4,2.8,0.7,4.2c1.1,5.7,3.7,10.4,7.7,13.8c0.8,0.7,2.9,1.3,6.3,1.7c6.5,0.8,15.1-2.4,23-14.5
		c2.4-3.7,4.4-8.7,5.9-14.9c1.6,2.2,3.6,4.2,6.3,6c0.9,1,2.2,1.9,4,2.7c14.2,7.1,11.4,19.5,8.2,21.2c-2.5,1.3-4.7,0.3-5.2-2.1
		c-0.3-1.2,0.4-2.5,2-4c3.2-3.3-0.9-7-3.3-5.4c-8.4,5.4-7.7,17.3,2.5,20.1c3.2,0.9,7.1,0.1,11.7-2.4c7-6.2,9.3-13.9,5.7-22.9
		c6.5-1.3,11.6-4.6,15.7-9.6c5.7,15.6,24.9,12.5,23.2,30.3c-1.5,9.3-11.9,3.9-5.6-1.6c3.3-3.4-1.1-7.3-3.3-5.4
		c-12.1,7.5-4.1,27.4,14.2,17.7c7.6-6.8,9.1-14.7,5.7-22.9c9.3-3,15.8-8.5,20.1-16c0.8,2.1,1.8,4.2,3,6.2
		c7.7,12.6,26.9,14.3,36.2,9.1c8.7-4.8,14.4-12.8,17.4-21.7c0.1-0.2,0.1-0.4,0.2-0.5c6.8,11.4,23.2,10.5,21.6,26.7
		c-1.5,9.2-11.9,3.9-5.6-1.6c3.2-3.2-0.9-7-3.3-5.4c-6.3,4-6.9,10.8-4.3,15.3c7.4,12.9,32.5,0.5,24.2-20.5
		C580,429.9,591,422,593.2,410.1z"/>
	<path d="M230.6,157.4c1.8,3-4.6,16-12,54c-1.2,5.9-1.9,10.9-2.2,14.8c-0.7,3.2-3.6,8.9-4.3,9.6c-5.6,7.6-13.2,0.7-14-1.4
		c-5.9-9.2-10-33.5-11.7-44.2c-7.6,14.9-8.1,34.7-12.5,39.6c-4.2,4.6-9.2,2.6-11.4-0.7c-4.1-5.9-7-12.2-8.6-18.8
		c-5.1-21-1.7-38.5-0.7-40.6c3.6-5.6,8.8-3.1,11.7,2.6c2.4,4.8,2.1,7.9,3.8,26.9c0.8,8.5,1.7,16.6,3.2,16.6
		c1.3-6,9.3-41.7,18.1-42.6c15.4-1.7,17.2,44.8,19.6,50.4c3.3-25.3,11.9-58.1,16-65.5C226.3,156.1,229.2,155,230.6,157.4z
		 M240.8,165.9c2.4,1.3,6.4,1.3,9.2-1.3c2.8-2.7,1.4-7.8-1.3-9.4c-2.6-1.5-6.6-1.7-9.1,1.6C237.1,159.8,238.1,164.3,240.8,165.9z
		 M504.6,196.3c0-4.4-5.7-3.5-6.6-0.3c-3.4,5.7-5.4,13.3-20.3,19.4c-3.6-5-10-10.7-14.6-14.7c-8.7-8.2,1.5-23.1,6.8-24.9
		c1.5-0.7,6.1,1,6.4,6.2c0.2,4.4-4.7,6.4-2.2,9.6c1,1.3,2.4,1.1,4.1-0.7c12.3-12.3,0.4-36-25-19.1c-3.2,2.4-9.6,12.2-8.5,24.5
		c-3.6,16.1-14.4,33.4-29.6,27.9c-22-11.1-3.9-44.9,6.3-39.6c2.2,2.4,3.6,7.4-1.7,11.2c-4.8,3.4-11.3,1.1-10.6,5.1
		c0.3,1.5,1.2,2.3,2.7,2.3c1.2,0,5.6,1.9,14.3-5.1c3.3-2.6,5.8-10.4,1.5-17.2c-2.1-3.2-5-4.3-8.2-5c-9.2-1.3-16.4,0.5-21.6,5.7
		c-3.7,3.7-6.2,7.9-7.6,12.4c-0.2,0.4-0.4,0.8-0.5,1.2c-4.4,12.6-7.2,46.9-21.2,48.9c-1.4-0.1-1.9-2.4-1.5-6.9
		c2.4-28.7,6.8-43.5-3.4-47.7c-1.7-0.7-3.7-0.6-6,0.2c-7.6,2.8-14.3,13-18.4,19.9c0-3.6,1.2-22.7,3.3-31.1c3-18.3,3.1-20,0.3-21.7
		c-2.1-1.3-5.2-1.4-8.2,0.8c-4.1,3-8.7,18.2-9.5,38.2l0,0c-3.3,5.4-5.4,13.3-20.3,19.4c-3.6-5-10-10.7-14.6-14.7
		c-6.5-6.1-2.7-16.1,2.6-21.6c3.8-4,5.2-3.6,6.7-3c2.2,0.9,3.8,3,4,5.9c0.2,4.4-4.7,6.4-2.2,9.6c1,1.3,2.4,1.1,4.1-0.7
		c2.7-2.7,3.9-4.2,5-11.2c0-3-1.7-9-6.9-12.1c-2.4-1.4-5.5-2-9.2-1.6c-3.8,0.3-8.4,2.3-13.8,5.9c-3.1,2.3-9.4,11.9-8.5,23.9
		c-0.9,3.1-1.7,7.2-2,8.5c-1.5,7.8-4.8,16.3-10.6,22.3c-2.9,3-6.7,4.5-11.5,4.6c-8.7-0.5,5.5-37,0.7-51.6c-1.5-4.3-9.3-7.1-13.3,2.4
		c-0.8,1.3-6.1,20.3-2.3,39.7c1.1,5.7,3.7,10.4,7.7,13.8c0.8,0.7,2.9,1.3,6.3,1.7c6.5,0.8,15.1-2.4,23-14.5
		c2.4-3.7,4.4-8.7,5.9-14.9c4.5,6.2,11.9,9.4,15.4,12.1c9.1,7.2,5.7,20.8-0.3,18.3c-1.7-0.7-3.3-3.4,0.1-6.4c3.2-3.3-0.9-7-3.3-5.4
		c-6.4,4.1-6.9,10.9-4.3,15.3c7.4,12.8,32.5,0.5,24.2-20.5c6.5-3,12.9-7,17.6-12.2c0.4,7.4,1.3,15.2,2.9,23.2
		c0.5,3.4,4.9,3.8,8.4,1.2c2.3-1.7,2.5-3,4-8.5c2.3-8.1,7.2-19,14.4-24.2c6.4-3-8.9,37,4.9,50.3c4.2,4.1,10,2,15.3-0.5
		c8-3.9,13.4-20,16.9-34.6c0.6,1.4,1.3,2.7,2.1,4.1c7.7,12.6,26.8,14.3,36.2,9.1c9.2-5.1,14.3-12.9,17.7-22.2
		c6.9,11.3,23.1,10.5,21.6,26.6c-1.1,6.4-6.8,6.2-7.6,2.3c-0.6-2.9,3.3-3.9,3.2-6.4c-0.1-2.6-2.8-4-4.5-2.9
		c-12.2,7.8-3.9,27.2,14.2,17.7c7.7-6.8,9-14.5,5.7-22.9C491.4,216,502.4,208.2,504.6,196.3z"/>
	<path d="M555.5,148.6c-13.5,1.2-19.1,9.4-25.7,17c-3.9,4.4-3.4,11.1,1,14.9s11.1,3.4,14.9-1c6.2-7.1,7.6-9.9,12.2-9.8
		c6.3,0,9.3,7.5,5.3,12.1l-52.9,60.8c-3.9,4.4-3.4,11.1,1,14.9c4.3,3.9,11,3.4,15-1.1l52.9-60.8
		C595.8,176.5,581.1,146.5,555.5,148.6z M537.7,215l8-9.2l15,7.3c-2.4,2.7-5,5.8-8,9.2L537.7,215z M544.6,231.6
		c-2.5,2.9-5.2,5.9-8,9.2l-14.9-7.3l8-9.2L544.6,231.6z M553.8,196.5l8.1-9.3l14.9,7.2c-1.8,2.3-4.4,5.3-7.9,9.4L553.8,196.5z
		 M582.5,184l-15.1-7.3c0-1-0.2-2-0.5-2.9l12.5-10.6C583.2,169.2,584.5,176.7,582.5,184z M566.2,152.7l-7.9,14.5c-0.1,0-0.3,0-0.4,0
		c-1.9,0-3.5,0.4-4.8,1.1l-7.9-13.9C551.7,150.9,559.5,150.3,566.2,152.7z M543.6,178c-2.9,3.2-7.9,3.5-11.2,0.7
		c-3.3-2.9-3.7-8-0.8-11.3l1.5-1.8l12.5,10.1C545,176.4,544.3,177.2,543.6,178z M524.2,254.9c-2.9,3.3-8,3.7-11.3,0.8
		c-3.3-2.9-3.7-8-0.8-11.3l1.4-1.6l14.9,7.2C527.1,251.6,525.7,253.2,524.2,254.9z"/>
	<path d="M177.9,389.7c3.8,8.5,33.4,29.7,32.9,33.7c-14.4-10.6-28.3-4.3-28.1-4.3c6.3-20-15.2-17.7-15.2-17.7
		c7.9-5.9-3.1-20.5-3.1-20.5c14.5,8.6,21.9-3.5,21.7-3.8c8.2,16.5,19.4,7.6,19.4,7.4c-5.6,19.3,8.5,36.1,8.5,36.1
		S179.9,387.7,177.9,389.7z M224.5,417.3c8.7-10.4,16.4-15.7,27-19.7c-5-0.9-11.1-9.7,3.6-19.5c0,0-4.3-1.4-7.6-7.3
		c-3.3-5.8-2.2-14.1-2.2-14.1c-0.9,8.7-15.7,14.6-18.4,8.8c0,0,3,7-1.7,15s-11.8,5.3-11.8,5.1c9,19.7,8.3,30.2,8.3,30.2
		C223.7,402.8,260.4,322.4,224.5,417.3z M207.1,428.2c0,0-10.2,2.2-31-4c0.2,0,3.8,6.7-3.4,12.4c-7.3,5.8-14.6,3.8-14.6,3.8
		c6.2,2,2.3,17.4-6.1,19.5c0,0,8.1-2.3,14.3,0.2c6.2,2.4,8.3,6.5,8.3,6.5c7.4-15.6,17-11.5,18.7-6.3c2.4-11,6.7-19.6,15.7-29.6
		C120.1,479.7,194.5,432.1,207.1,428.2z M227.5,426.2c-1.8-5.4,1.3-11.1,6.5-12.7c5.4-1.8,11.1,1.3,12.7,6.5
		c1.8,5.4-1.3,11.1-6.5,12.7C234.9,434.4,229.2,431.5,227.5,426.2z M244,454.3c5.4-1.8,8.3-7.5,6.5-12.7c-1.8-5.4-7.5-8.3-12.7-6.5
		c-5.4,1.8-8.3,7.5-6.5,12.7S238.6,455.9,244,454.3z M222.8,447.4c5.4-1.8,8.3-7.5,6.5-12.7c-1.8-5.4-7.5-8.3-12.7-6.5
		c-5.4,1.8-8.3,7.5-6.5,12.7C211.8,446.3,217.5,449.2,222.8,447.4z"/>
</g>
</svg>
