<?xml version="1.0" encoding="utf-8"?>
<!-- Generator: Adobe Illustrator 21.0.2, SVG Export Plug-In . SVG Version: 6.00 Build 0)  -->
<svg version="1.1" id="Layer_1" xmlns="http://www.w3.org/2000/svg" xmlns:xlink="http://www.w3.org/1999/xlink" x="0px" y="0px"
	 viewBox="0 0 731 516.6" style="enable-background:new 0 0 731 516.6;" xml:space="preserve">
<g>
	<path d="M294.1,372.3c5.3,11.4-4.8,27.3-16.9,26c-3.4-0.4-5.4-1.7-5.9-4c-1-5.9,4.7-5.7,5.9-2.6c-1.3,2.8,8.7,3.9,11.1-8.8
		c3.6-16.8-27.5-27.8-46.2-11.2c-6.5,5.8-11.7,17-8.4,25.8c8.9,24.2,46.6,37.1,44,58c-0.6,4.8-2.8,9.2-6.7,12.8
		c-17,16.2-41.1,0.4-31.1-11.1c4.3-5.2,9.6-1.5,9,1c-0.5,1.4-1.3,1.9-2.6,1.9c-1.8-1.2-2.2-0.1-2.4,2.1c-0.1,5,7.9,10,17,5.2
		c7.7-4.4,10.7-15.7,0.8-25.1c-23.2-21.1-51.7-35.4-39.9-63C233.1,351.7,282.9,350.9,294.1,372.3z M442.8,368.3
		c1.8,32.9,0.1,99.2-32.8,99.7c-27,0.4-26.9-53.3-24.6-80.2c-5.2,2.1-12.7,2.8-18.2,3c2.2,11.7,1.4,50.8-14.5,69.7
		c2.6,2.5,5.3,5,8.1,7.8c1,1.2,0.5,2.3-0.8,3.2c-1.3,1.1-2,1-3.4,1.1c-1.8-1.5-5-4.1-8.6-7.2c-4.2,3.2-8.3,5.1-14.3,5.4
		c-35.1,0.6-43.1-68.5-23.2-97.5c-0.3-17.8,47.2-22.6,55.8,13.2c6.3-0.1,15.1-0.7,19.6-5c0.4-4.7,0.8-8.4,1.2-10.9
		c2.2-7.2,11.7-6.3,13.4-0.4c2.2,6.5-9.7,89,12.6,91.5c20.6,2.5,23.8-69.3,22.9-91.1C437,366.4,440.5,366.2,442.8,368.3z
		 M321.5,375.4c3.4,3.3,16.1,9.1,35.4,10.8c-3.3-13.6-14-21.3-26.4-21.1c-0.1,0.5-0.5,1-1.6,1.3
		C326.1,367.2,323.6,370.3,321.5,375.4z M357.9,390.6c-12-0.6-28.1-3.5-38.8-8.9c-7.4,25.9-7,83.3,14.6,83c3.8-0.1,6.5-1.5,9.1-3.7
		c-3.8-3.2-6-5.4-6.7-6.9c-1.4-2.1,3.8-4.1,6.7-2.5c0,0,2.5,2.3,4.7,4.3C358.2,440.6,361.1,409.1,357.9,390.6z M485.6,361.3
		c9.6,16.2,9.2,55.9,23.5,102c0.4,4.6-7.9,4.7-11.8,0.8c-1.5-2.6-7.5-32.7-7.9-34.8l-28.4,2.9c-1.4,5.8-3.9,19.1-4.8,24.2
		c-0.4,0.9-1.8,1.9-4.2,1.8c-2.2-0.1-2.7-1.5-2.7-3.5c1.9-18.7,12.7-60.7,19.6-81.5c2.1-7,3-11.6,9.8-13.6
		C480.5,359.3,483.2,358.5,485.6,361.3z M488.4,424.1c-0.6-3.7-8.5-50.6-12.4-52c-9.3,32.3-9.7,36.7-14,55
		C468.7,426.4,477.6,425.4,488.4,424.1z M587.8,393.8c0.4,21.4-7.5,46.2-23.8,62.3c-11.9,11.6-26.5,11.7-31.9,10.7
		c0.3,1.8,0.7,3.9-2.2,3.8c-3.3-0.2-6.1-1.5-7.4-4.3c-4.7-15.3-7.1-93.1,0.5-108.5c0.6-0.8,3-2.4,3.9-2.9c1.9-1,3.7-1.3,5.4-0.2
		c0.7,1.9,0.5,7,0.5,9.1C553.2,343.8,587.1,348.5,587.8,393.8z M559.5,357.4c-10.3-2.4-21.2,6.5-27.5,15.1c-2.7,26-3.3,61.2-0.6,89
		c3.2,1.6,12.1,1.3,18.9-3C580.7,440.1,579.9,362.8,559.5,357.4z"/>
	<path d="M277.4,88.4c-8.4,0.9-13.8,18-16.2,26.3c-0.1-5.3,0.2-25.9,0.6-33.7c-1.5-3.6-4.4-2.2-7.6,0c-2.8,5.6-3.3,13.7-3.6,20
		c-9.2,12.4-18.3,22.5-20.1,22.2c-6.2-2.2-0.5-25.1-10-30.6c-11.6-5.9-20.4,23.9-24.8,36.7c-2.2-9.6-3.4-18.9-3.5-27.8
		c16.9-17.3,63.2-62.7,33.9-75.1c-23-9.3-48.3,26-45,77.2c-7.7,11.6-28.6,40.2-42.3,38.6c-32-2.9-22.8-80.2,0.2-102.5
		c12.6-12.1,24.1-0.8,27.1,5.3c3.3,6.9,2.2,14.5-1.7,16c-1.6,0.6-3.9,0.9-3.1-0.6l0.2-0.4c-1.8-3.7-6-2.9-6.3-0.1
		c-0.6,3.8,4.1,10,12.3,7.1c5.2-1.7,9.7-11.6,4.9-23.1c-5.8-13.1-20.9-17.2-28.1-15.7c-42.7,5.7-59.3,112.8-9.7,120.6
		c16.3,3.4,37.5-22.5,47.3-36.1c1.3,10.4,3.8,20.2,7,30.2c2.8,1.3,8.1,2.2,9.8-2.7c1.9-11.2,12.5-35.8,16-41.7
		c0.7,9.3,0.2,28.3,12.9,31c6.6,1,18.6-13.6,22.8-18.9c0.2,8.9,1.1,19.4,2.8,28.5c3.9,4.4,8.3,0.8,9-1.6c0,0,0.3-4.7,1.4-10.3
		c4.6-19.8,12.7-36.9,15.7-33.5c1.4,1.6,0.2,7.8-0.7,9.9c1,2.5,3.8,4.4,6.5,2.4C291,102.2,288.1,87.5,277.4,88.4z M220.9,29.8
		c3.7,0,7.4,2.7,8.3,6.6c3.5,15.6-28.5,47.9-36.8,56.8C193.4,56.8,208.1,30.4,220.9,29.8z M302,80.6c0-4.5,2.1-6,5.3-6
		c7.4,0.4,2.3,9.8-2,9.8C303.3,84.4,302,83.2,302,80.6z M495,126.2c0.4,0.5,0.6,0.6,0.1,0.9c-0.2,0.1-0.6,0.4-1.9-0.3
		c-5.5-3.2-1.5-23-4.8-33.4c-2.7-7.2-9-6.8-13.6-1.6c-7.4,8-13.7,22.8-14.5,24.6c0.2-6.8-1.2-18.1-8.1-17.2
		c-6.3,0.9-13.9,17.9-16.4,23.2c0.9-10.5,4.7-37.6,4.9-39.4c-1.6-3.8-4.9-2.1-8.8,0.3c-2.6,6.1-3.8,13-4.8,19.6
		c-2.6,4.3-21.4,37.2-26.7,34.9c-9.5-4.1-3.8-39.4-1.8-49.6c2-11.8,4.6-24.6,5-26.1c8.6-1.2,16.8-1.8,24.3-1.7
		c15,0.2,23.5,7.3,22.3,9.8c-0.2-0.1-0.6-0.5-0.8-0.7c-7.5,4.5,4.5,11.6,7.2,1.6c0.8-3.7-1.3-6.7-4.2-9.2
		c-11.3-9.9-31.8-8.1-47.4-5.8c1.1-5,2.1-11.1-3.1-11.1c-3,0.3-5.2,1.7-5.9,2.9c-0.8,2.1-1.9,5.5-3.2,10.1
		c-21.9,3.8-57.2,13.5-69.8,5.4c-1.8-1-2.7-2-2.5-2.6c0.3-0.8,0.4-0.6,1.2-0.2c5-7.7-7.3-7.2-7.3,0.9c-0.2,5,7.4,10,14.8,10.8
		c16.8,1.8,38.9-4.2,62.1-8.2c-7.8,18.3-23.6,34-37,48.1c-7-7.7-13.4-10.6-11.9-16.1c3.5-12.2,20.2-16.6,18.3-7.8
		c-0.6,2.2-1.1,1.8-1.7,1.6c-3.4,1.6-1,6.1,1.3,6.1c5.1,0,9.6-9.6,4.6-14.5c-8.5-8.5-32.9-0.8-33.8,14.2c-0.4,1.2-0.2,3.8,1.4,6.3
		c-15.6,21.1-34.4,48.2-26.3-1.6c0.3-1.5,1.4-7,0.8-8.4c-2.1-3.1-6.8-2.6-9,0c-4.4,7.2-5.2,22.6-1.7,33.7
		c6.8,21.8,26.6-0.6,39.7-19.2c2.4,2.6,10.8,10,12.5,11.7c-6.6,7.3-16,17.6-14.3,26.1c3,11,21.7,5.7,28.1-12.1
		c1.7-5.7,0-10.4-4.2-15.9c7.4-8.1,19-19.1,29.6-34.4c-2.7,18-7.6,57.3,9.9,61.8c3.6,0.8,7.4-1.3,12.2-6.4
		c7.3-7.7,12.1-14.8,15.6-20.2c-1.2,17.3,0,19.1,4.2,20.2c1.8,0.6,3.7,0.5,5.1-0.8c0.1-0.1,11.8-24.2,16.4-29.6
		c0.3,1.9-1.3,15-0.1,19.2c0.5,2,3.3,2.1,4.3,2.1c5.4,0.3,6.3-3.2,9.6-9.7c2.2-4.1,10.5-19,13.2-22.7c0.1,5.2-2.5,28.9,11.4,35.4
		c4.8,2,10.4-0.3,10.3-5.3C499.6,122.7,495.5,123.4,495,126.2z M340.7,138.7c1.2-4.9,6.3-10.3,10.8-15.5
		C356.7,138.4,336.1,152.6,340.7,138.7z M622,103.3c-0.9-1.1-1.4-1.6-3.3-1.8c-1.4-0.1-2.3,0-3.2,0.2c-3,2.8-13.9,7.2-23.9,13.4
		c-6.2-14.7-9.7-19.4-9.4-24.6c1.6-15,19.2-3.3,14.1,2.4c-1.5,1.5-1.7,0.9-2.1,0.5c-2-0.3-3.5,1-3.5,2.1c0,1.3,1.9,3.7,4.2,3.8
		c3,0,10.2-5.9,6.6-13.3c-3.5-7.6-17.9-10.9-25.9-4.7c-6.5,5-6.1,13.9-2.3,20.5c-1.3,1.8-22.6,33.4-27.4,32.7
		c-3.7-0.7,4.1-45.6,2.3-51.4c-0.9-3.2-7.5-2.6-9.6-0.9c-7.6,17.4-22.5,38.4-25,37c-1.3-0.8,1.5-11.5,2.3-14.1
		c2.8-8.1,6.8-12,7.3-9.8c0.1,0.9-0.1,0.9-0.4,1.2c-1.2,1.4,0.8,4.3,2.7,3.9c6.9-2.1,4.5-8.2,0.3-10.5
		c-17.6-9.9-31.4,30.5-14.7,35.2c8.1,2.3,19.2-14.8,23.7-22c-0.3,5.7-3.3,36.6,10.2,36.6c9.8,0,26.5-24.8,31.8-32.5
		c4.3,7,5.5,10.4,6.3,13.5c-8,5.7-13.7,10.8-15.3,16.8c-2.3,8.1,2.1,12.2,8.4,12.2c10.4,0,22.6-14.7,17.3-29.9
		C607,111.8,617,108,622,103.3z M574.3,144.2c-2.2-1.9-2.6-9.6,9.9-18.5C585.3,137.5,578.7,147.5,574.3,144.2z"/>
	<path d="M170.7,292.6c20.9-20.8,36-68.8,6.9-71.4c-8,0-17,0.6-31.8,20.3c0.3-2.3,1.8-14.1,0.8-16.1c-1-1.4-3.2-1.9-4.8-0.3
		c-4.2,3.4-4.1,3.2-6.2,22.7c-2.7,26-2.9,60.2,1,87c1.8,4.9,8.4,0.2,8.4-3.3c-3.2-25.5-3.3-43.1-0.5-78.1
		c6.8-11.7,19.4-29.3,32.8-27.9c11.4,1.3,4,42-13.3,64.7c-4.1-1-14.4-0.5-17.3,3c-4.8,5.8,4.6,14.9,19.5,3.5
		c3.1,2.6,4.2,6.4,4.1,10.4c0,15-12,22.9-15.1,21.9c-0.6-0.2-1-1.8-0.7-2.4c0.1-0.3,0.4-0.4,0.8-0.5c0-3-4.1-4.2-5.3-0.8
		c-2.4,7.3,5.9,9.5,13.4,6.4C185.5,322.2,184.1,298.7,170.7,292.6z M150.1,296.3c0.2-3.1,7.6-2.8,10.3-2.4
		C156.9,296.4,150,298,150.1,296.3z M212.4,230.7c-3.7,6.2-20.3,79.2-20.3,90.9c0,4.2,4.5,3.6,5.8,1.5c0,0,2.8-17.3,4.3-24.3
		l23.4-2.4c0.3,1.8,4.9,32.4,6.1,34.9c3.2,4.1,10.1,4,9.9-0.5c-10.9-45.5-10.5-86.4-18-102.4C220.4,223.9,214.7,227,212.4,230.7z
		 M203.1,293.7c6.9-33.1,6.3-31.1,12.3-54.7c3.2,2.5,9.2,50.4,9.4,52.1C215.9,292.3,208.6,293.1,203.1,293.7z M317.6,239.4
		c-1.3-3.7-5.3-3.2-6-0.1c-3.4,14.2-28.7,34.4-45.5,41.1l-0.1,0c0.1-3.6,1.6-49.9,0.9-53.5c-1.4-3.6-6.6-0.2-7.8,2.4
		c-2,6.7-2.8,40.1-2.8,47.1c-10-1.6-14.5,3.2-14.7,7.6c0,6.6,8.2,6.5,14.7,5.2c0,2.6,0.2,28.2,2.2,46.7c1.4,5.2,8.4,0.1,8.1-3.8
		c-1-20-0.6-42.8-0.6-44.7c13.1,15.5,21.2,27.6,30.2,29.4c3.3,0.8,7.3,0.8,9-2.2c4-6.8-2.2-9.8-3.7-5.9c0.2,0.3,0.5,0.5-0.2,1.6
		c-0.1,0.2-0.7,0.7-3.8-0.2c-5.8-1.9-11.8-15-26.4-26.1C290.1,275,314.3,255.9,317.6,239.4z M256.4,283.3
		c-11.1,1.8-13.2-3.4-4.1-3.4c2.5,0,3.2,0.2,4.1,0.5V283.3z M336.8,233.3c0.9,5.6-3.2,68.1-3.2,96.3c0,3.9-5.3,8-6.9,3.2
		c-5.7-36.5-0.3-89,2.6-97.3C330.6,232.8,335.6,229.9,336.8,233.3z M407.4,233.3c1,1.4,0.9,2.6,0.9,4.3c-2.2,2.9-5.1,66.4-5.7,76
		c-0.2,4.6,0.3,14.7-4.1,15c-9.9,1.2-13.3-22-39.9-78.5c-1.9-4.4-3.5-7.4-4.7-9c-0.8,7.8,5.3,76.6,7.2,92.4
		c-0.7,2.2-4.3,3.1-6.3-1.3c-4.2-16.2-8.3-90-5.4-102.2c0.8-3.5,4.8-5.6,8.6-4.2c7,4.7,37.3,83.9,39.7,89
		C397.4,305.5,398.1,221.3,407.4,233.3z M435.5,336.8c-26.2-11.6-24.9-80.4-2.3-106.5c9.5-11,25-10.2,29.4,1.1
		c1.7,4.6,2.2,8.8,1.7,12.4c-0.7,2.1-4.9,0.9-5.4-0.7c-1.4-22.7-13.5-18.4-19.9-7.7c-15.9,27-17.3,100.4,8.4,97.4
		c10.7-0.9,20-35.3,17.7-43.3c-3.6,1.1-10.6,4-12,3.8c-1.9-0.5-2.1-2.8-0.9-4.4c0.3-0.5,1.7-1.3,9.2-3c2.2-0.5,8.5-2.2,9.9-0.7
		C475.5,308.2,458.2,347.2,435.5,336.8z"/>
	<path d="M142.6,386.8l27.5,79c5.2,14.3,25.7,6.1,20.8-7.1l-27.5-79c-2-6,3.6-12.1,9.8-9.6c4.5,1.7,4.7,4.9,8,14.1
		c2,5.8,8.3,8.8,14,6.7c5.8-2,8.9-8.2,6.7-14c-3.4-10-5.6-19.9-18.1-26.2C159.9,338.7,134.1,361.9,142.6,386.8z M158.1,422.7
		c-1.7-4.4-3-8.4-4.2-11.9l17.3-1.3l4.1,11.9L158.1,422.7z M179.5,433.6l4.1,11.9l-17.3,1.3c-1.6-4.3-2.9-8.2-4.2-11.9L179.5,433.6z
		 M149.5,398.7c-1.8-5.4-3-9.3-4-12.1l17.1-1.2l4.2,12.1L149.5,398.7z M155.1,355.5l8,15c-0.7,0.8-1.2,1.7-1.7,2.6l-17.4,1.3
		C144.9,366.4,149.1,359.7,155.1,355.5z M182.7,380.7l15.9-4.9l0.9,2.2c1.6,4.3-0.9,9.1-5.2,10.5c-4.3,1.5-8.9-0.8-10.4-5
		C183.4,382.5,183.1,381.6,182.7,380.7z M174.3,367.6c-0.1,0-0.3-0.1-0.4-0.1l-2-17.1c7.4,0.4,14.6,3.9,19.6,9.8l-13.1,10.3
		C177.4,369.4,176.2,368.4,174.3,367.6z M170.5,458.8l17.3-1.3l0.8,2.1c1.6,4.3-0.9,9.1-5.2,10.5c-4.3,1.6-9.1-0.9-10.5-5.2
		C172.1,462.9,171.4,460.9,170.5,458.8z"/>
	<path d="M479.5,163l-28.3,6.7c-0.2-3.7-4.1-4.8-6.1-3.7c-2.6-8.3-10.5-14.1-19.7-13.6l-230.5,12.9c-9.1,0.5-16.3,7.1-18,15.5
		c-3.3-0.5-5.2,1.8-5.1,4.4l-28.9-3.5c-7.2-0.9-13.5,5-13.1,12.3s7.3,12.5,14.4,10.7l28.3-6.7c0.2,3.2,3.3,4.7,5.5,3.8
		c2.7,8.2,10.6,13.9,19.6,13.4l230.5-12.9c9.1-0.5,16.4-7.2,18-15.7c2.1,0.9,5.8-0.7,5.6-4.3l28.9,3.5c7.2,0.9,13.5-5,13.1-12.3
		C493.4,166.6,486.5,161.4,479.5,163z M204.7,205.1c0.1,2.1-3.1,2.3-3.2,0.2c-1.8-31.6-2.4-31.7-0.2-31.8
		C203.6,173.4,202.9,173.8,204.7,205.1z M212.4,204.7c0.1,2.1-3.1,2.3-3.2,0.2c-1.8-31.6-2.4-31.7-0.2-31.8
		C211.3,172.9,210.7,173.3,212.4,204.7z M323.5,184c-3.5,4-7.3,8.1-10.9,12.2c-0.2,0.2-12.1-10.5-12.3-10.7
		c-5.9-6.3,1.1-17.1,10.8-11.4C321.3,166.9,328.3,178.2,323.5,184z M414,195c-2.3,0.1-1.6-0.3-3.4-31.6c-0.1-2.1,3.1-2.3,3.2-0.2
		C415.6,194.8,416.2,194.9,414,195z M421.8,194.6c-0.9,0.1-1.7-0.6-1.7-1.5c-1.8-31.6-2.4-31.7-0.2-31.8c0.9-0.1,1.7,0.6,1.7,1.5
		C423.4,194.3,424,194.4,421.8,194.6z"/>
	<path d="M587.2,293.6c-7.7-8.7-8.5-25-8.5-25s-2.3-13.5,12.6-16.1c14.9-2.8,19.4-6.2,19.4-6.2s10.9-5.8,5.5-20.7
		c-5.3-14.9-36.5-4-37.4-6c-0.9-2,9-8.4,8.8-22.9c-2.2-25.9-26.9-27.6-26.9-27.6l0,0c0,0-24.5-3.6-32.2,21.1
		c-3.5,14.3,4.9,22.5,3.5,24.3c-1.4,1.8-29.4-15.6-37.8-2.2c-8.5,13.4,1.1,21.4,1.1,21.4s3.6,4.2,17.5,10.2
		c13.9,5.9,8.8,18.6,8.8,18.6s-4.4,15.7-13.7,22.5c-9.4,6.8-12,0.2-19.7,6.4c-7.7,6.1-4.2,15.1-4.2,15.1
		c0.1,11.7,18.8,19.6,34.1,12.8c10.4-6.8,19.7-12.4,28.2-12.5c8.2,2.6,16.5,10.8,23.5,18.1c0,0,10.1,7.1,22,5.5
		c12-1.8,14.1-10.7,14.1-10.7s5.4-8-0.8-15.6C598.7,296.4,594.8,302.3,587.2,293.6z M588.9,221.1c2.7,0.6,5.5,1.6,6.2,4.6
		c0.8,3.6-1.6,3.7-2,5.1c-0.3,1.2-0.2,0.4,0.8,1.3c1.5,1,3.9,2.2,3.3,6.5c-0.1,0.6-1.5,4.9-1,4.9c2.7-0.2,3.5,4.2,0.7,4.2
		c-2.3,0.1-4.1-0.8-4.8-2.9c-1.1-3.1,2.2-6.4-0.6-8.9c-1.4-1.4-3.3-1.6-3.5-4c-0.1-0.9,0.2-1.7,0.7-2.5c0.2-0.4,0.8-0.7,0.9-1.1
		c0.2-0.2,0.4-0.5,0.8-0.7c-0.7-0.8-1.3-1.4-1.9-2.1C585.7,224.8,586.1,220.5,588.9,221.1z M518.8,218c-0.2-0.2,0.2,4.8,0,5.3
		c-0.1,1-0.3,1.8-1.1,2.5c-1.3,1.4-1.5,0.6-3.1,1.2c-2,0.7-1.1,1.5-0.7,3.2c1.3,5.2-1.4,7.9-6.6,8.6c-2.7,0.3-3.4-3.9-0.7-4.2
		c3.2-0.3,3.1-2.1,2.5-4.9c-1.3-5.7,2.4-6,3.9-6.8c2.5-1.2,0.4-0.9,1-4.8c0.6-3.8,4.1-5.4,7.1-3.4C523.6,216,521.1,219.5,518.8,218z
		 M570.3,190.7c-0.5,5.2-8.4,4.3-7.7-0.9C563,184.8,570.8,185.5,570.3,190.7z M521.8,311c-0.6-1.8,0.6-4.3-1.1-5.5
		c-1.9-1.6-7.1,1.6-6.3-6.4c0.4-3.1-1-2.8-3.5-3.5c-3.9-1-4.4-4.7-2.7-8.7c1.1-2.5,5.1-1,4,1.5c-1.5,3.3,3.9,3,5.4,5.1
		c0.6,0.9,1,1.9,1.1,3c0.1,0.9-0.7,3.2-0.3,3.9c0.5,0.9,5,1.3,6.3,2.9c1.9,2.3,0.4,4.5,1.2,7C526.8,312.9,522.6,313.6,521.8,311z
		 M548.4,184.4c5.2,0.5,4.3,8.4-0.9,7.7C542.3,191.6,543.2,183.9,548.4,184.4z M547.7,287.3c-3.7-0.4-6.2-3.7-5.9-7.3
		c0.9-8.6,14.1-7.4,13.2,1.5C554.6,285.1,551.3,287.7,547.7,287.3z M544.2,257.3c0.9-8.6,14.1-7.4,13.2,1.5
		C556.5,267.4,543.3,266.1,544.2,257.3z M552.4,243.4c-8.6-0.9-7.4-14.1,1.5-13.2C562.3,231.1,561.4,244.4,552.4,243.4z
		 M570.4,207.9c-6.8,10.3-21.2,9.5-28-0.4c-1.6-2.3,1.8-5,3.4-2.6c5.3,7.8,15.7,8.6,21.1,0.5C568.5,202.9,572,205.5,570.4,207.9z
		 M579.8,309.7c-2.1,5.8-4.7,3.8-6.7,4.1c-3.1,0.4-3,1.9-3.2,4.2c-0.2,2.8-4.4,2.2-4.3-0.4c0.7-9.9,6.2-7.5,8.5-7.9
		c2.2-0.3,1.6-4.3,3.4-5.9c2.4-2.3,6.4-0.8,7-5.1c0.3-2.7,4.6-2.3,4.3,0.4C587.5,309.1,582.3,303.1,579.8,309.7z"/>
</g>
</svg>
