<?xml version="1.0" encoding="utf-8"?>
<!-- Generator: Adobe Illustrator 21.0.2, SVG Export Plug-In . SVG Version: 6.00 Build 0)  -->
<svg version="1.1" id="Layer_1" xmlns="http://www.w3.org/2000/svg" xmlns:xlink="http://www.w3.org/1999/xlink" x="0px" y="0px"
	 viewBox="0 0 731 516.6" style="enable-background:new 0 0 731 516.6;" xml:space="preserve">
<style type="text/css">
	.st0{fill:#BF1713;}
	.st1{fill:#006732;}
</style>
<path d="M529.4,308.7c-29.6,0-53.9,24-53.9,53.9c0,29.7,24,53.9,53.9,53.9c29.7,0,53.9-24,53.9-53.9
	C583.1,332.8,559,308.7,529.4,308.7z M529.4,377.1c-8.1,0-14.5-6.4-14.5-14.5s6.4-14.5,14.5-14.5c8.1,0,14.5,6.4,14.5,14.5
	S537.4,377.1,529.4,377.1z M155.8,308.7c-29.6,0-53.9,24-53.9,53.9c0,29.7,24,53.9,53.9,53.9s53.9-24,53.9-53.9
	S185.8,308.7,155.8,308.7z M155.8,377.1c-8.1,0-14.5-6.4-14.5-14.5s6.4-14.5,14.5-14.5c8.1,0,14.5,6.4,14.5,14.5
	S164,377.1,155.8,377.1z"/>
<path d="M58.9,326.5c0,2.5-0.9,5-2.5,6.9c-15.4-5.9-16.3-31.7-1.2-38.8C59.8,299.3,58.9,299.3,58.9,326.5z"/>
<path class="st0" d="M659.2,233.2c-4.5,0,4,0.1-86.4-0.9v-0.1c-1,0-166.8-1-175.5-2.2c-6.1-0.7-9.1-5.7-9.1-10.3v-61.5
	c0-15-12.2-27.3-27.3-27.3h-60.5c-18.4,0-35,10.7-42.2,27.5L236.1,208c-1.5,3.5-4.8,5.9-8.6,6.2c-118.6,12.2-119.7,11.8-132.7,15
	c-11.1,2.6-22.9,7.3-27.8,18.1c-5.9,21.7-5.2,20.8-11.4,24.4c-6,3.5-7.1,11.8-2.2,16.7c12.1,12.1,10.1,5.8,10.1,38.2
	c0,6-4.3,8.6-6.9,10.4c-10.4,7.6-2.2,32.2,18.2,32.2h21.2c-4-36.5,24.5-67.2,60.1-67.2c37.8,0,64.8,34.1,60.1,67.2h253.1
	c-4-36.5,24.5-67.2,60.1-67.2c35.6,0,64,30.8,60.1,67.2h51.6c10.2,0,8.2-10.4,18.4-10.4c5.8,0,10.5-4.8,10.5-10.5V243.9
	C669.6,238,665,233.3,659.2,233.2z M244.8,357.2l-6.3-36.1c-5.6-31.1-32.4-53.8-64-53.8H89.5c-4.9,0-4.9-7.5,0-7.5h85
	c35.2,0,65.1,25,71.3,59.9l6.3,36.1C253,360.7,245.7,361.9,244.8,357.2z M255.2,206.8l12-30.3c5-12.8,17.4-21.2,31.1-21.2H341
	c10.4,0,18.9,8.5,18.9,18.9v35c0,7.9-6.3,14.2-14.2,14.2h-79.1C257.8,223.7,252,214.9,255.2,206.8z M368.9,261.4h-35.1
	c-5.9,0-5.9-9,0-9h35.1C374.6,252.5,374.6,261.4,368.9,261.4z M652.5,345.5l-1.3-17.6c-2.5-31.9-28.5-56.6-60.4-57.5l-75.1-1.9
	c-32-0.7-59.2,22.6-63.1,54.3l-3.8,28.7c-0.5,4.8-8.1,4-7.5-0.9l3.7-28.5c4.5-35.6,35-61.7,70.8-60.7l75.1,1.6
	c35.8,0.8,64.9,28.5,67.8,64.2l1.3,17.6C660.3,350,652.8,350.5,652.5,345.5z"/>
<path d="M224,279.5l8.6-8.6v8l-4.6,4.7L224,279.5z M168.2,252.1l19.2-19.2v6.8L175.1,252h7.6l4.8-4.8v4.8h4.4l-4.8,4.8v4.2
	c1.3,0.2,2.3,0.4,3.5,0.7l9.7-9.7h6.8L196.2,263c2,0.5,4,1.3,5.9,2.2l13.1-13.2h6.8l-15.2,15.5c1.7,0.9,3.5,1.9,5,2.8l18.4-18.7h3.3
	v-2.3l26.8-27.3c-1.6-1-3.1-2.3-4-4l-22.7,23.3v-6.8l21-21.3c-0.4-2.7,0.1-4.7,1-7h-2.1l-19.9,20.3v-6.8l13.1-13.7h-8.4l-2.4,2.4
	c-1.6,3.3-4.8,5.6-8.4,5.9l-40.3,4v6.3L160.2,252h8V252.1z M279,140.8v6.8L266.7,160h7.6l4.8-4.8v4.8h2.4c9.9-5.7,15-4.5,45.6-4.5
	l24.3-24.7h-7.9l-17.9,18.4v-6.8l11.4-11.6h-7.9l-3.5,3.6v-3.6h-25.1c-17.9,0-35.4,10.7-43,29.3h2.5L279,140.8z M232.7,255.7
	l-16.8,17.2c1.6,1.2,3.2,2.3,4.7,3.6l12.2-12.3v-8.4H232.7z M341.7,155.6l24-24.3c-2.6-0.4-4.7-0.4-7.6-0.4l-24.3,24.7H341.7
	L341.7,155.6z M233,285.7l-1.7,1.7c0.5,0.7,1.3,1.5,1.7,2.3V285.7z M388,163l-17,17.5v8l17-17.4V163z M352.6,159.6l18.5-18.8v6.8
	l-12.3,12.5h7.6l4.8-4.8v4.8h5.2l-5.2,5.2v8.4l13.1-13.7h3.9c0-1.3,0-1.9,0-1.9c0.1-11.4-7-21.3-17-25.3l-23.5,24
	C349.3,157.5,351.1,158.4,352.6,159.6z M201.2,273l-13.9,14.1v8l19-19.4C204.8,274.8,203,273.9,201.2,273z M95.4,295.7l28-28.3h-8.2
	l-19.9,20.3L95.4,295.7z M95.4,272.4v8l12.9-13.1h-7.9L95.4,272.4z M141.3,259.8v-4.3l-4.2,4.3H141.3z M371,203.6l17-17.3v-8.2
	l-17,17.5V203.6z M142.3,223.1c-26.2,2.6-38.9,3.4-52.6,7.5l-21,21.3h8l18.8-19.2v6.8L83.1,252h7.6l4.8-4.8v4.8h5.2l-5.2,5.2v2.6
	h5.6l7.8-7.9h6.8l-7.8,7.9h8l7.8-7.9h6.8l-7.8,7.9h8.3l8.2-8.3h3.2v-2.3l28.5-29.1l-8.7,0.9l-19.7,20.2v-6.8l12.5-12.6l-8.7,0.9
	l-3.7,3.7L142.3,223.1L142.3,223.1z M190.2,269.3l-3.1,3.2v8l9.2-9.3C194.3,270.3,192.2,269.8,190.2,269.3z M153.4,252.1l33.1-33.4
	l-9.1,0.9l-31.9,32.6H153.4L153.4,252.1z M78.3,298.1h-8l-6.8,6.8c0.1,2.1,0.1,4.7,0,8.1L78.3,298.1z M572.1,270.1l-16.4,16.7v8
	l24-24.6L572.1,270.1z M443.9,252l18.8-19.2v6.8l-12.2,12.6h7.6l4.8-4.8v4.8h5.2l-5.2,5.2v8.4l13.1-13.7h6.8L463,272.3v8l28-28.5
	h6.8l-17.3,17.8c4.2-2.3,8.6-4.2,13.3-5.7l12.2-12.5h3.2v-2.3l17-17.5c-2.5,0-5.2,0-7.9-0.1l-9.3,9.5v-6.8l2.7-2.7
	c-17.9-0.1-37.5-0.3-55.4-0.4L435.9,252H443.9L443.9,252z M521.7,251.4L521.7,251.4l19.4-19.6c-2.5,0-5.4,0-8.1-0.1l-19.4,19.7
	H521.7z M600.6,264l0.3-0.4v-8.4l-7.8,8C595.7,263.3,598.1,263.6,600.6,264z M557.6,269.8l-2.3,2.3v8l9.9-10.1L557.6,269.8z
	 M536.6,251.4l18.8-19.2v6.8L543,251.3h7.6l4.8-4.8v4.8h4.8l-4.8,4.8v5.9l2.5,0.1l10.6-10.6h6.8l-10.6,10.8l7.8,0.2l10.8-10.9h6.8
	l-10.9,11.1l7.8,0.2l11.1-11.4h3.3v-2.3l16.3-16.6c-2.4,0-5-0.1-7.8-0.1l-8.4,8.6v-6.8l1.9-2c-8.6-0.1-18.7-0.2-30.4-0.3v-0.1
	c-0.2,0-10.1-0.1-24.9-0.2l-19.4,19.6L536.6,251.4L536.6,251.4z M613,252.1l18.9-19.1c-2.4,0-5-0.1-8.1-0.1L605,252.1H613L613,252.1
	z M627.7,252.1l18.6-19c-2.2,0-4.7-0.1-7.8-0.1l-18.8,19.1H627.7z M278.9,295.7L278.9,295.7l43.3-44h3.2v-2.3l26.8-27.3
	c-3.8,2-6.4,1.6-9.5,1.6l-17,17.6v-6.8l10.6-10.8h-7.9l-2.7,2.8v-2.9h-46.9v1.3l-26.8,27.2h8l19.2-19.2v6.8L266.7,252h7.6l4.8-4.8
	v4.8h5.2l-5.2,5.2v8.4l13.1-13.7h6.8l-20,20.4v8l28-28.5h6.8L279,287.5v8.2H278.9z M265.1,223.4L237.2,252h7.8l28.2-28.5
	C266.5,223.6,266.1,223.7,265.1,223.4z M359.8,206c0,3.7,0.3,6.1-1.5,9.7l9.9-10.2h-8L359.8,206z M241.1,303.9l5.7-5.8h-8.4
	C239.3,299.9,240.2,301.9,241.1,303.9z M462.8,295.6l15.8-15.8c-6.1,4.2-11.5,9.5-15.8,15.5V295.6z M509.4,261.4v-6.1l-6.8,6.9
	C504.8,261.8,507,261.5,509.4,261.4z M429.4,252l20.8-21c-2.7,0-5.5-0.1-8.1-0.1L421.4,252H429.4z M388.1,193.1l-12.8,13H371v3.6
	L329.3,252h8l33.5-34v6.8L344.1,252h8l18.8-19.2v6.8l-12.3,12.3h7.6l4.8-4.8v4.8h5.2l-3.3,3.3c0.7,2,0,4.4-2,5.6v4.8l13.1-13.7h6.8
	l-20,20.4v8l28-28.5h6.8l-34.9,35.6v8l43.6-44h3.4v0.2h0.1v-2.3l18-18.4c-2.6,0-5.4-0.1-7.8-0.1l-10.3,10.4v-6.8l3.7-3.8
	c-13.1-0.2-22.4-0.4-24.3-0.7c-6.1-0.7-9.1-5.7-9.1-10.3c0,0,0-5.8,0-13.8h-4.7l4.7-4.8v-8H388.1z M649.3,297.6
	c9.3,16,9.1,27.8,10.4,45.9h6.7l-19.9,20.4v3.6c4.5-3.2,4.8-8.7,13.1-8.7l10.1-10.2v-54.8l-3.9,4H659l10.6-10.8v-8.2L651,297.7h-1.6
	V297.6z M463.3,364.1v5.2h2.6l3.1-2.9c-0.2-2.7-0.1-5.5,0-8.1L463.3,364.1z M452.6,297.7l-34.9,35.6v-6.8l28-28.5h-7.9l-20,20.4
	v-6.8l13.1-13.7h-8.4l-5.2,5.2v-5.2h-4.9l4.8-4.8v-7.6L404.8,298h-6.6l18.8-19.2v-8L390.3,298h-6.8l33.5-33.8v-8.4l-41.6,42.3h-4.4
	v3.6L329.5,344h8l33.5-34v6.8L344.2,344h8l18.8-19.2v6.8L358.6,344h7.6l4.8-4.8v4.8h5.2l-5.2,5.2v8.4l13.1-13.7h6.8l-19.9,20.4v4.8
	h3.1L399,344v-0.4h7.6l-25.2,25.6h7.9l25.1-25.7h3.3v-2.2l29.3-29.7C448.5,306.8,450.4,302.1,452.6,297.7L452.6,297.7z M509,303.3
	v-5.2h-4.8l4.8-4.8v-7.6l-12.3,12.5h-6.8l18.8-19.2v-8l-26.8,27.2v-0.4h-6l27.6-28c-3.8,0.5-7.6,1.6-11,2.9l-24.7,25h-4.4v3.6
	l-7.8,7.9c-1.3,3.7-2.3,7.5-3.1,11.5l10.7-10.8v6.8l-11.8,12l-1.3,9.3l13-13.2v6.8l-12.2,12.3h7.6l4.8-4.8v4.8h5.2l-5.2,5.2v8.4
	l6.8-6.9c4.9-23.7,23.6-42.3,47.4-47.1l5.1-5.2h-8.4L509,303.3z M429.7,343.7l14.1-14.3c1.1-8.5,0.8-6.6,1.2-9.5l-23.3,23.9h8V343.7
	z M404,369.3l13.1-13.2v-8.4l-21.3,21.6L404,369.3L404,369.3z M442.1,343.7l0.8-6.4l-6.3,6.4H442.1z M525.2,302.2c3.2-0.2,6.8,0,8,0
	l4.2-4.2h-8L525.2,302.2z M544.1,297.7L544.1,297.7l-5,5.1c2.3,0.4,4.4,0.8,6.6,1.4l6.6-6.7h-8.1V297.7z M646.5,293.1
	c0.3,0.4,0.7,1,1,1.5l22.2-22.7v-8l-23.2,23.6V293.1z M659.2,233.1c-2.4,0.1-1.2,0.1-12.7-0.2v6.7l-12.3,12.3h7.6l4.8-4.8v4.8h5.2
	l-5.2,5.2v8.4l13.1-13.7h6.8l-20,20.4v8l23.2-23.4v-13.1C669.7,237.9,665.1,233.2,659.2,233.1z M646.5,343.5h5.2l-5.2,5.2v8.4
	l8.3-8.5c-1.3-0.4-2.2-1.5-2.3-3.2c-1.4-18.2-1.2-27.5-8.3-41.8l-39.2,40h8l33.5-34v6.8l-26.8,27.2h8l18.8-19.2v6.8l-12.3,12.3h7.6
	l4.8-4.8L646.5,343.5L646.5,343.5z M417.1,369.2v-6.4l-6.3,6.4H417.1z M600.5,369.2v-6.4l-6.3,6.4H600.5z M589.5,367.2l11.5-11.6
	v-8.4l-11.3,11.6C589.8,361.5,589.8,364.4,589.5,367.2z M640.5,297.7h-4.3l-34.9,35.6v-6.8l28-28.5h-8.2l-20,20.4v-6.8l13.1-13.7
	h-8.4l-5.2,5.2v-5.2h-4.8l4.8-4.8v-7.6l-12.2,12.5h-6.8l18.8-19.2v-7.1c-0.2,0-0.4-0.1-0.5-0.1l-26.1,26.5v-0.4h-6.4l26.7-26.9
	c-2.4-0.2-6.3-0.3-7.9-0.3l-26.7,27.1h-4v3.6l-4.7,4.8c16.9,6.4,30.4,20.3,35.9,37.7h3.5l-2.6,2.6c0.5,2.2,1.2,4.4,1.4,6.7l9.2-9.3
	h2.9v0.1h0.2v-2.3l40.6-41.3C641.5,299.3,641,298.4,640.5,297.7z M311.9,369.3l13.1-13.2v-8.4l-21.3,21.6L311.9,369.3L311.9,369.3z
	 M95.4,357.2l0.4-0.4c0.3-3.5,0.9-6.9,1.9-10.3l-2.3,2.3V357.2z M141.9,302.9v-5.2h-4.8l4.8-4.8v-7.6l-12.3,12.3h-6.8l18.8-19.2v-8
	l-26.8,27.2H108l30.4-30.7h-8.2l-30,30.7h-4.6v3.6l-41.6,42.3h8l33.5-33.7v6.8l-26.8,27.2h8l18.8-19.2v6.8l-12.3,12.3h7.6l4.8-5.2
	v4.8h3.2c7.5-22.7,28-39.4,52.7-41.3l4.2-4.3h-8.4L141.9,302.9z M158.1,302.1c2.4,0.1,4.9,0.3,7.2,0.7l4.7-4.8h-8L158.1,302.1z
	 M176.9,297.6l-6.1,6.3c2.1,0.4,4,1.2,6.1,1.9l8.1-8.2H176.9z M233,369.2v-6.4l-6.3,6.4H233z M85.1,297.6l-21.5,22.2
	c0,6.7,0.1,7.4-0.1,8.2L93,297.6H85.1L85.1,297.6z M95.4,363.9v5.2h0.4c-0.2-1.9-0.3-3.6-0.3-5.5L95.4,363.9z M268.3,297.6
	L246,320.5l1.3,6.8l29.1-29.6H268.3z M325.1,369.2v-6.4l-6.3,6.4H325.1z M216.2,369.1h3.8v0.1l13.1-13.2v-8.4l-16.5,16.8
	C216.5,366,216.4,367.7,216.2,369.1z M67.2,246.8l11.4-11.5C71.1,239.6,67.6,245.6,67.2,246.8z M360.7,297.7l-34.9,35.6v-6.8
	l28-28.5h-8l-20,20.4v-6.8l13.1-13.7h-8.4l-5.2,5.2v-5.2h-4.8l4.8-4.8v-7.6L313,298h-6.9l18.8-19.2v-8L298.1,298h-6.8l33.5-34v-8.5
	l-41.6,42.6h-4.4v3.6l-30.7,31.5l1.3,6.9l29.6-29.9v6.8l-26.8,27.2h8l18.8-19.2v6.8L266.6,344h7.6l4.8-4.8v4.8h5.2l-5.2,5.2v8.4
	l13.1-13.7h6.8l-20,20.4v4.8h3.1l24.9-25.2v-0.4h7.6l-25.2,25.6h7.9l25.1-25.7h3.4v0.2l0,0v-2.3l42.8-43.6L360.7,297.7L360.7,297.7z
	 M253.4,298.1l-10.5,10.7c0.7,2.1,1.3,4,1.9,6.2l16.7-16.9H253.4z M239.6,327.1l-6.1,6.2v-6.8l5-5.2c0-0.9-1.2-5.5-1.4-6.6l-3.6,3.7
	v-6.8l2-2.1c-1.5-4-3.5-8-5.8-11.6h-1.4l0.9-0.9c-1-1.5-2.1-2.9-3.2-4.5l-5.4,5.4h-6.6l9-9.1c-1.3-1.4-2.5-2.7-4-4l-13,13.1h-6.8
	l16.2-16.4c-1.5-1.3-3.1-2.3-4.7-3.5l-19.4,19.9h-4v3.6l-5.9,5.9c1.9,0.8,3.7,1.9,5.5,2.8l0.4-0.4v0.5c13.1,7.9,22.7,20.4,27,34.4
	l0.9-1h6.8l-6.3,6.6c0.4,2.3,0.8,4.7,1,7.1l13.8-14.1h3.1v-0.2h0.1V341l7.4-7.5L239.6,327.1z M237.5,344h5.1l-0.8-4.4L237.5,344z"/>
<path class="st1" d="M617.2,232.4l-99.7-0.8c-3.2-5-5.4-7.9-5.5-7.9c-2,2.8-3.8,5.5-5.7,7.8l-40.2-0.3
	c-7.8-38.3-24.3-48.7-24.3-48.7c-14.4,20.2-29.5,23.2-30.8,22.6c-4.4-56.3-37.7-79.6-39.5-82.6c3.4-1.3,43,3.4,83.8-37
	c1.3,0.4,11.3,12.7,8.6,37.3c0,0,27.6,3.6,69.7-38.9c0.2-0.4,15.6,2.3,10.4,53.1c-0.2,0.5,50.9-10.4,80.3-51.9
	c0.4,0,7.6,15,8.1,16.1C644.6,136,637,188,617.2,232.4z"/>
</svg>
