<?xml version="1.0" encoding="utf-8"?>
<!-- Generator: Adobe Illustrator 24.2.3, SVG Export Plug-In . SVG Version: 6.00 Build 0)  -->
<svg version="1.1" id="Layer_2_1_" xmlns="http://www.w3.org/2000/svg" xmlns:xlink="http://www.w3.org/1999/xlink" x="0px" y="0px"
	 viewBox="0 0 731 516.6" style="enable-background:new 0 0 731 516.6;" xml:space="preserve">
<style type="text/css">
	.st0{fill:#030303;}
	.st1{fill:#F18016;}
	.st2{fill:#FE0000;}
	.st3{fill:#E5E5E5;}
	.st4{fill:#8C3801;}
	.st5{fill:#5E422E;}
	.st6{fill:#45B748;}
</style>
<path d="M476.5,145.1c-6.2-0.8-12.4-0.4-18.6,0.2c-61,5.1-60.9,4.7-68.3,7.1c-10.7,3.3-12.6,14.2-11.1,24
	c1.6,9.8,9.7,17.5,19.5,18.6c19,2.2,31.6-20.2,28.8-36.1c3.2-4.8,10.1-5.4,14-1.2c-0.1,6.7,2.6,14.5,9,21.9
	c16.6,19.2,41.6,7.2,41.6-12.7C491.5,157,487.7,146.8,476.5,145.1z M441.8,152.8C441.8,152.8,441.7,152.9,441.8,152.8
	c-0.3,0.9-0.5,1.6-0.4,2.4c-4.5-3.5-11-3-14.7,1.2c-0.3-0.7-0.5-1.4-0.8-2.3l-0.1-0.1c-0.9-1.4-2.1-2.4-3.3-3.2l22.3-1.9
	C443.4,150.1,442.4,151.2,441.8,152.8z"/>
<path class="st0" d="M406.9,243.6c-0.2-2.9,1.9-5.4,4.8-5.7s5.4,1.9,5.7,4.8s-1.9,5.4-4.8,5.7S407.2,246.5,406.9,243.6z
	 M427.6,255.1c2.9-0.2,5.1-2.8,4.8-5.7s-2.8-5.1-5.7-4.8s-5.1,2.8-4.8,5.7S424.7,255.3,427.6,255.1z M442.5,256.9
	c2.9-0.2,5.1-2.8,4.8-5.7s-2.8-5.1-5.7-4.8c-2.9,0.2-5.1,2.8-4.8,5.7C437,255,439.6,257.2,442.5,256.9z M457.6,252.5
	c2.9-0.2,5.1-2.8,4.8-5.7s-2.8-5.1-5.7-4.8c-2.9,0.2-5.1,2.8-4.8,5.7C452.2,250.5,454.7,252.7,457.6,252.5z M471.1,244.4
	c2.9-0.2,5.1-2.8,4.8-5.7c-0.2-2.9-2.8-5.1-5.7-4.8c-2.9,0.2-5.1,2.8-4.8,5.7S468.2,244.7,471.1,244.4z"/>
<path class="st1" d="M477.9,196.5c-2.8,1.9-5.4,5.5-5.4,5.5c-0.2-1.2,1.7-4,3-5.8c-2.9-0.4-5.8-0.9-8.7-1.2c-3.9,2-6.4,6.4-6.4,6.2
	c-0.9-2.2,1.8-5,3.8-6.6c-2.9-0.4-5.6-0.8-8.2-1.1c-4.4,2.3-8.4,6.6-8.4,6.4c-0.3-3.1,2.9-5.3,5.7-6.7c-3.1-0.4-6-0.6-8.2-0.8
	c-4.7,0.1-17.2,2.7-17.6,16.7c-0.1,5.7,0.9,9.8,4.3,14.1c5.2,6.7,13.3,6,20,4c4.6-1.4,9.3-2.8,14-4.2c10.6-3.2,21.2-6.5,31.8-10
	c4.2-1.4,8.5-2.8,12.7-4.3c1.6-0.6,3.2-1,4.8-1.7c0.6-0.2,3-1,2.6-2.1c-0.3-0.8-1.9-1-2.4-1.1c-1.2-0.4-2.4-0.7-3.6-1
	c-3.5-0.9-7-1.6-10.6-2.2C493.3,198.9,485.6,197.7,477.9,196.5z"/>
<path class="st2" d="M44.7,201.7c5.8,6.6,12.7,12.5,21.8,13.1c2.3,0.1,4.5-0.1,6.7-0.7c4.8-1.4,11.1-7.8,16.6-0.3
	c3.5-2,7.6-3.1,11.7-2.1c1.2,0.3,2.7,1.4,3.8,1.4c3.2-0.1,3.3-5.6,7.2-7.5c4.4-2.3,7.9,2.6,10.2,2.1c1.7-0.3,2.7-3.4,3.6-4.6
	c2.9-4.3,8.6-7.5,13.8-5.5c4,1.5,6.2,6.3,10.9,5c4.1-1.2,7.2-4.1,11.5-5c6.3-1.4,13,0.9,16,6.7c0.7-0.1,6.8,0.5,13.8,4.2
	c-5.5-39-43.6-63.3-81.1-52.8c-13.2,3.8-24.3,12.1-33.5,22c-4.6,5-8.7,11-14.4,14.9c-4,2.7-9.8,4-14.2,1.9
	C48.3,197.1,46.8,199.7,44.7,201.7z"/>
<path class="st3" d="M35,206c-8.9,0.8-16.8-5.7-17.6-14.6s5.7-16.8,14.6-17.6s16.8,5.7,17.6,14.6C50.5,197.3,44,205.2,35,206z
	 M78,252.4c4.8,8.5,17.9,12.3,25.8,5.3c12.6-11,41-19.3,60.1-12.8c5.7,2,11.1,5,16.9,6.9c9.3,3,20.1,2.5,25.9-6.5
	c12.4-19.1-9.4-39.7-27.8-41.4c-0.1,0-0.3,0-0.5,0c-3.1-5.8-9.7-8.1-16-6.7c-4.2,1-7.4,3.8-11.5,5c-4.8,1.4-7-3.5-10.9-5
	c-5.2-2-10.9,1.2-13.8,5.5c-0.9,1.3-1.8,4.3-3.6,4.6c-2.3,0.5-5.9-4.4-10.2-2.1c-3.8,1.9-4,7.5-7.2,7.5c-1.2,0-2.7-1.1-3.8-1.4
	C85.8,207.8,67.6,234,78,252.4z"/>
<ellipse class="st4" cx="284" cy="244.4" rx="20.9" ry="14.1"/>
<path class="st5" d="M281.7,195.7c2,7.2-14.1,5.8-17.8,5.2c-5-0.9-6.8-2.9-10.7-0.5c-1.7,1.1-3,2.8-4.9,3.8
	c-6.3,3.4-18.3,3.6-19-5.8c-0.7-8.8,8.4-12.9,15.8-11.6c1,0.1,2.2,0.7,3.2,0.8c2.2,0.2,4-0.6,4.4-3.1c1-7.7-9.6-15.4-16-16.2
	c-2.8-0.3-5.6-0.1-8.4-0.3c-2.8-0.1-5.7-0.7-7.8-2.5c-6.7-5.5-0.2-14.3,7.2-13.2c3.8,0.6,12,2.9,10.2-4c-0.8-3-1.9-6-2.7-9.1
	c-7.4-30.3,20.6-33.4,23.9-19.6c2.1,8.7-5.4,16.5-6,24c-0.2,2.9,1.7,9,5.6,7.7c2-0.6,2.5-4.4,3-6.2c0.8-2.7,1.4-5.6,3.3-7.8
	c2.2-2.5,6-4.1,9-2c7,4.8-0.2,15.6-3.3,20.4c-3.2,4.9-6.4,10-6,16.2c0.6,8.3,6.3,15.2,13.2,19.9
	C279.3,192.8,281.2,193.9,281.7,195.7z M288.4,196.1c-2.7,6.9,13.5,7.2,17.2,6.9c5.1-0.4,7.1-2.2,10.7,0.5c1.6,1.2,2.7,3,4.5,4.2
	c6,4,17.8,5.4,19.5-3.9c1.6-8.7-7-13.6-14.6-13.1c-1.1,0-2.2,0.5-3.3,0.5c-2.2,0-4-1-4-3.5c-0.2-7.8,11.1-14.3,17.5-14.5
	c2.8-0.1,5.6,0.4,8.4,0.6c2.8,0.1,5.7-0.2,8.1-1.7c7.2-4.8,1.6-14.2-5.8-13.9c-3.8,0.2-12.2,1.7-9.7-5c1.1-2.9,2.5-5.8,3.6-8.8
	c10.4-29.3-17.1-35.3-21.8-21.9c-3,8.5,3.7,17,3.6,24.5c-0.1,2.9-2.6,8.8-6.3,7.1c-1.9-0.8-2-4.7-2.4-6.4c-0.5-2.8-0.9-5.7-2.5-8.1
	c-1.9-2.8-5.5-4.7-8.7-2.9c-7.5,4.1-1.3,15.6,1.3,20.6c2.7,5.2,5.4,10.6,4.4,16.7c-1.4,8.2-7.8,14.4-15.2,18.5
	C291,193.3,289.1,194.3,288.4,196.1z"/>
<path class="st6" d="M585.7,159.6c23.2-16.2,60.4-20.1,79.7,4.6c12.7,16.2,6.1,37.6-5.6,41.1c0-2.3-0.7-4.5-2.1-6.2
	c4.5-6.5-0.1-15.7-7.6-17.7c-13.8-3.8-28.3,15.8-1.8,49.2c-5.2,3.5-10.3,7-10.3,7l-8.4-24.7l-20.9,17.2l-8.9-25.5l-16.9,21.9
	l-13.6-22.2l-14.2,22.4l-9-14.9C554.4,192.3,567.9,172,585.7,159.6z"/>
<path class="st2" d="M659.8,205.3c0,5.6-4.6,10.2-10.2,10.2c-5.6,0-10.2-4.6-10.2-10.2s4.6-10.2,10.2-10.2
	C655.1,195.1,659.8,199.7,659.8,205.3z M647.8,267.2c3.4,1.1,19.7-20.2,10.6-43.7c1.3-0.1-20.2,14.2-20.2,14.2l-8.4-24.7l-20.9,17.2
	l-9-25.5l-16.9,22l-13.6-22.2L555.2,227l-13-21.6c-2.1,1.4-19.7,20.1-5.6,47.5C538.1,250.2,597.8,242.9,647.8,267.2z"/>
<path d="M88.5,336.8l-3.9,0.4c-0.2-2.2-0.4-4.5-0.6-6.9c0.5-0.1,1.2-0.2,1.7-0.3l0,0l2.8-0.3c4.2-0.2,3.8-5.9-0.2-5.9l-4.7,0.5
	c-0.3-3.7-0.5-7.3-0.8-10.9c-0.3-3.7-6.7-3.4-6.7,0.2c0,0,0.7,10.4,0.8,11.7c-2.9,0.4-4.9,0.8-7.1,1c-0.4-3.6-0.7-6.8-0.7-9.8
	c0-3.6-6.7-4-6.7,0.2c0.1,3.1,0.3,6.5,0.8,10.3c-3.1,0.2-6.7-0.1-6.7,3.3c0,3.8,4.6,2.9,7.2,2.6c0.3,2.5,0.1,2.4,0.4,6.3
	c-1.4,0.1-5,0.1-5,3.2c0.1,1.7,1.8,2.9,3.4,2.9l2.1-0.2c0.4,4.2,0.6,4.4,0.6,8.4c0,1.6,1.5,3,3.2,3c4.6,0,3.5-4.5,2.9-12.1l7.3-0.8
	c0.5,4.2,0.4,3.5,0.7,10.2c0.3,3.8,6.7,3.7,6.7-0.3c-0.3-7.5-0.2-6.7-0.7-10.6l3.8-0.4C93.1,342.2,92.9,336.8,88.5,336.8z M77.9,338
	l-7.3,0.7c-0.3-3.8,0.1-1.9-0.4-6.3c2.4-0.3,4.7-0.7,7.1-1C77.5,333.5,77.7,335.7,77.9,338z M134.5,362.3c0,1.2-0.6,1.4-1.4,2.9
	c-1.6,3.1-5.9,11.2-14.4,11.2c-15,0-17.4-19.4-17.7-35c-0.4-19.2,1.5-42,19.9-42.3l0,0c0.2,0,0.4,0,0.5,0
	c13.4-1.3,15.3,11.7,8.8,11.7c-2.3-0.1-3.8-2.1-3.2-3.4c0-2.7-3.9-2.7-5.4-2.4c-13.2,0.3-13.9,22.4-13.9,36.2
	c0,19.6,7.6,39.5,17.6,23.6c2.4-3.8,3.7-5.5,5.9-5.5C133.2,359.2,134.5,360.6,134.5,362.3z M179,356.7l-2.7,0.1
	c0.2,5.9,0.4,12.4,0.5,17.7c0,4.2-6.7,3.8-6.7,0.2c-0.1-5.1-0.3-11-0.5-17.7l-17.6,0.5c0.1,14,0.7,20-4,20c-1.7,0-3.3-1.2-3.3-3.3
	c1.1-5.7,0.7-13.9,0.6-16.5l-1.5,0.1c-1.9,0-3.3-1.2-3.5-2.8c0-3.2,3.4-3.1,4.8-3.2c0-1.5,0.8-48.2,0.9-50.8
	c0.4-4.1,6.7-3.4,6.7,0.1c0,0-0.9,43.4-0.9,50.5l17.5-0.5c-0.2-6.9-0.4-14.1-0.4-20.4c0-4.8,0.5-6.5,0-11.9
	c-0.2-2.1-0.2-4.3-0.2-6.5c0-13.5-0.6-10.9-0.6-13.4c0-1.5,1.3-2.9,3.3-3c5.8,0,3.2,6.3,4.6,55l2.5-0.1
	C183.2,350.8,183.3,356.4,179,356.7z M205.9,332.9c6.4-3.8,16.1-9.2,15.1-16.9c-0.1-0.7-0.2-4.7-0.6-5.4c-2.6-8.8-13-12.9-21.7-12.9
	c-2,0-4.7-0.2-5.5,2.1c-2.3,1.8-0.2,3.4-1.3,28.9c-0.5,12.1,0.1,29.9-0.5,45.6c0,3.9,6.4,4.1,6.7,0.2c0.8-19.9,0.3-32.9,0.3-38.1
	c0.6-0.1,1.2-0.3,1.7-0.5c5.9,13.5,12.2,27.5,18.3,39.2c1.5,3.2,7.8,1.7,6.1-2.5C219,362.4,212.8,349,205.9,332.9z M203.4,327.2
	c-1,0.6-3.3,1.8-5.1,2.7c0.3-8.6,0.3-2.8,0.3-26.2c7.4,0,15.6,3.6,15.6,11.5C214.2,318.7,214.6,320.2,203.4,327.2z M251.6,372.8
	c0.1,3.6-4.1,3.1-7.5,3.3c-1.1,0.7-2.7,0.7-3.6,0.2l-3.7,0.2c-3.9,0-4.6-5.6,0-5.9l1.9-0.1c-1.4-29.4-1.5-25.2-1.5-66.1l-1.8,0.1
	c-3.9,0-4.6-5.6,0-5.9l12-0.5c1.6,0,3.1,1.3,3.2,2.8c0,3.5-4,3.1-6.7,3.3c0,40.9,0.1,36.4,1.5,66.1l3-0.1
	C250,370,251.5,371.3,251.6,372.8z M283.6,351.2c1.8,4.2,3.5,8.6,3.5,13.9c0,7.4-9.1,11.4-15.7,11.4c-4.2,0-11.1-2.6-11.1-8.5
	c-2.6-4.3,6.7-7.4,6.7,0.3c0,0.6,2.2,2.3,4.4,2.3c4.3,0,9-2.9,9-5.5c0-19.7-23.3-28.6-22.8-50.1h-0.1c0-5.4,3.2-16.4,12.9-16.7l0,0
	c0.2,0,0.6-0.1,0.9-0.1c5.4,0,8.6,4,10,4.9c2.7,1.6,1.6,5.5-1.8,5.5c-2.7,0-6.3-4.4-8.2-4.4c-4.5,0-7.2,6.9-7.2,10.8
	C264.2,329.5,277.3,336.7,283.6,351.2z M324.6,300.8c0,2-1.6,3-3.2,3.1l-12.3,0.4c0.7,10.5,0.6,54.7-0.1,69
	c-0.3,3.9-6.7,3.7-6.7-0.2c0.4-9.6,0.3-1,0.5-42.2c0,0,0-19.4-0.5-26.4L292,305c-4,0-4.5-5.6,0-5.9l29.3-1.1
	C323,298,324.4,299.2,324.6,300.8z M366.3,324.1c-0.3,3.9-0.1,50.9-0.1,50.9c-1.4,4.6-6.7,2.9-6.7-0.1c0-77.9,0-38.3,0.9-64.6
	c-0.5,0.9-7.8,12.7-8.6,13.4c-1.1,2.1-5.1,3-6.5,0.4c-0.5-0.8-0.6-1.5-0.5-1.9c-1.2-2-3.8-5.9-6.3-9.7c-0.4,6.7-1.9,15.9-1.1,62.4
	c0,3.9-6.7,3.9-6.7,0c-0.9-58.2,1.5-52.9,1.3-74.7c0-3.5,6.1-4.1,6.7-0.2c2.8,5.5,6.7,10.9,10.3,16.5c11.6-18.5,11.2-19.1,14.2-18.8
	c1.4-0.5,4.1,0.7,4.1,2.8C367.6,307.8,366.7,319.5,366.3,324.1z M411.3,353.4l-2.7,0.3c-0.1-0.9-3.7-21.6-4.2-22.4
	c-3.4-11.9-3.3-37.4-10.7-34.1c-1.4,0.4-2.9,1.2-3.1,2.7c-5.7,33-8.2,33-10.9,54.3l-2.2,0.1c-4.1,0-4.6,5.9,0.2,5.9h0.9
	c-2.3,12.8-2.9,15.1-2.9,15.1c0,1.2,0.8,2.4,3,2.8c5,1.1,4.3-7.7,6.8-18l17.5-0.3c0.3,1.5,1.8,10,3.3,16.1c0.5,1.6,2.3,2.5,3.5,2.2
	c3.7-0.9,4-2.2,0-17c0-0.5,0-1-0.1-1.5l2.1-0.3C415.8,358.8,415.6,353.4,411.3,353.4z M388.3,342.5c1-6.6,2.9-11.4,4.3-18.5
	c0,0,0.3-1.8,2-9.8c3.9,26.4,1.5,6.2,7.2,39.7l-15.4,0.2C387.9,343.7,388.3,342.5,388.3,342.5z M447,365.1c0,7.4-9.1,11.4-15.7,11.4
	c-4.2,0-11.1-2.6-11.1-8.5c-2.5-4.2,6.7-7.5,6.7,0.3c0,0.6,2.2,2.3,4.4,2.3c4.3,0,9-2.9,9-5.5c0-19.9-23.3-28.3-22.8-50.1h-0.1
	c0-5.4,3.2-16.4,12.9-16.7l0,0c0.1,0,0.3,0,0.4,0c5-0.7,9.1,3.9,10.6,4.9c1.5,0.9,2,2.7,1,4.2c-0.8,1.2-3.1,1.7-4.5,0.8
	c-3.8-2.1-4.5-3.9-7.1-3.9c-2.5,0-6.5,4.4-6.5,12C424.1,331.9,447,343.8,447,365.1z M477.3,371.6L477.3,371.6c-3,2.3-6.6,3.7-10.5,4
	c-5.4,0.8-8.5-2.2-9.9-2.9c-0.2-0.3-1-1-1.1-1.1c-1-0.7-2.3-1.6-2.7-2.7c-0.8-1.5,0.4-3.9,3.4-3.9c4.6,0,3.5,4.7,10.5,4.7
	c3.5-0.1,3.5-0.4,6.2-2.6c3.9-2.7,5.6-6.6,5.7-13c0-12.9-8.1-15.8-14.1-20.1c-13.4-9.5-10.9-13.5-10.9-18.1
	c0-18.9,18.2-21.8,26.9-12.8c2.8,3.8-2.7,6.4-5.2,3.9c-1-1.2-4-3-5.9-3c-7.6,0.6-9.1,6.5-9.1,14.4c0,5.3,5,7.5,11.1,12.1
	C486.7,338.4,490.9,362.2,477.3,371.6z M528.6,363c3.8-10.5,3.5-14.6,4-17.3c0.5-2.5,0.5-3.2,0.5-4.9c0-1,0.6-3,0.6-5
	c0-7.4,1-10.1,0.3-14.3c-0.5-3.1-1.4-8.7-2.5-11.7c-2.6-7.9-10.3-12.9-16.7-11.9c-0.9-0.3-1.7-0.3-2.5,0c-7.2,2.7-9.9,8.8-12,13.1
	c0,0.1-3.4,10.2-3.4,10.3c-2.8,19-2.3,21.2-1.9,37.9c0.3,2.7,0.3,5.2,1.6,7.6c2.9,7.1,14.3,9.6,17.1,9.7c1.4,0.4,3.6-0.1,4.6-1.4
	c2.1-0.9,5.1-3,6.9-5.4c3.5,5.5,4.6,7.8,8.1,6.3c1.4-0.8,2.2-2.3,1.1-4.1C532.6,369.1,530.7,366.2,528.6,363z M526.5,341.7
	c0,1-0.8,3.8-0.8,5.7c-0.2,3-0.9,5.9-1.6,8.5c-4-5.6-4.6-6.2-6.6-6.2c-1.5,0-3.3,1-3.3,3c0,1.8,0.8,1.1,7.2,10.7
	c-1.2,2.6-1.7,4.2-6.7,6.7c-0.4,0-0.8,0-1.1,0.3c-3-0.4-9.5-2.7-10.6-5.7c-2.6-4.9-3.9-52.5,10.3-60.7c0.7,0,1.5-0.4,3-0.4
	c4.8,0,8.6,4.8,9.9,12.4c0.7,4.8,1.2,19.2,0.6,21.6c-0.2,0.8-0.4,1.6-0.4,3C526.4,341,526.5,341.4,526.5,341.7z M572.3,364.2
	L572.3,364.2c-0.9,6.2-6,11.8-12.4,13.7c-9.5,1.4-14.8-4.7-14.9-10.7c0,0-0.4-1.4-0.2-2.7c0-0.2-1.1-8.1-1.3-8.9
	c-1.1-1.9-0.3-29.5,0-53.7c0-3.9,6.7-3.9,6.7,0c0,22.4-0.8,10.5-0.2,52.5c0.4,1.3,1.5,9.6,1.5,10.7c0.1,0.2,0.2,0.9,0.2,2.1
	c0,2.4,2.3,4.9,4.6,5h2.6c2,0,6.3-5.4,6.7-8.7c1.2-3.5,1-8.9,1.5-13.6c2.2-24,0.5-33.6-0.8-48.3c0-3.8,6.3-3.9,6.7-0.3l0.4,4.4l0,0
	C576.5,334.3,573.2,361.2,572.3,364.2z M620.3,354.4c-1.6-0.2-3.3-0.2-5-0.3c-2.2-13.7-7.8-38.3-10.3-55.2c-0.5-2.8-4.9-3.5-6.3-0.9
	c-1.4,1.1-1.1,1.6-3.4,13.8c-4.5,17.8-7.2,26.4-10.2,38.4c0,0.1-4.3,21.7-4.3,21.7c0,1.5-0.1,4.1,2.7,4.6c0,0,0.4,0.1,0.5,0.1
	c2.7,0,3.2-2.2,3.6-3.7c0,0,2.1-11.6,2.2-11.7c7.5,0,13.1-0.6,19.8-0.9c0.2,1.5,2,12.2,3,13.9c1.9,3.6,7.9,0.7,5.9-2.6
	c-2.3-11.6-1.7-8.4-2.1-11.4c1.9,0.1,3.4,0.2,3.4,0.2c1.7,0,3.4-1.2,3.4-3C623.3,356.1,622,354.6,620.3,354.4z M608.6,354.2
	c-6.1,0.3-12,0.9-17.5,0.9c3.2-15.3,7.4-28.1,10.1-38.9C601.1,316.2,608.6,354.2,608.6,354.2z M639.1,297.2c-1-0.1-2,0.2-2.8,0.8
	c-2.1,0-3.5,1.3-3.5,2.8c-1.1,34.9-0.7,18.7-1.5,72.6c0,1.4,1.9,3.8,4.2,3.6c23.5-1.4,25.2-23.4,26.2-36.5c0.1-1,0.2-2,0.2-3
	C661.8,316,659.5,299.8,639.1,297.2z M639.4,303.3c16.8,2.8,14.3,19.4,15.9,34c-1.3,14.3-2.4,30.6-17.3,33.4
	C638.7,320.1,638.4,335.1,639.4,303.3z"/>
</svg>
